<svg id="Layer_1" data-name="Layer 1" xmlns="http://www.w3.org/2000/svg" viewBox="0 0 600 600"><defs><style>.cls-1{fill:#fff;}</style></defs><title>bde</title><path class="cls-1" d="M358.35,209.7V344.48a58.36,58.36,0,0,1-72.1,56.71l7.18-24.07a33.3,33.3,0,0,0,19-63.54l7.19-24.07a58.1,58.1,0,0,1,13.7,7.07V209.7a12.53,12.53,0,0,1,25.06,0Z"/><path class="cls-1" d="M313.76,287.76l-7.19,24.08a33.29,33.29,0,0,0-19,63.53l-7.19,24.07a58.44,58.44,0,0,1-38.76-55V209.7a12.53,12.53,0,1,1,25.06,0v86.88a58.3,58.3,0,0,1,47.05-8.82Z"/></svg>