<?xml version="1.0" encoding="utf-8"?>
<!-- Generator: Adobe Illustrator 22.0.1, SVG Export Plug-In . SVG Version: 6.00 Build 0)  -->
<svg version="1.1" id="Layer_1" xmlns="http://www.w3.org/2000/svg" xmlns:xlink="http://www.w3.org/1999/xlink" x="0px" y="0px"
	 viewBox="0 0 805 805" style="enable-background:new 0 0 805 805;" xml:space="preserve">
<style type="text/css">
	.st0{fill:#2474AE;}
	.st1{fill:#4156A6;}
	.st2{fill:#FFFFFF;}
	.st3{fill:#13263D;}
	.st4{fill:#FCFDFD;}
	.st5{fill:#FEC324;}
	.st6{fill:#FE8024;}
	.st7{fill:#132249;}
	.st8{fill:#C60000;}
	.st9{fill:#8187BC;}
	.st10{fill:#8186BB;}
	.st11{fill:#F5F5F5;}
	.st12{fill:#F8E391;}
	.st13{fill:#4BBCFB;}
	.st14{fill:#FB7DDE;}
	.st15{fill:#F8E392;}
	.st16{fill:#D7D793;}
	.st17{fill:#F4F5F4;}
	.st18{fill:#D971E1;}
	.st19{fill:#FBCA90;}
	.st20{fill:#EDD7B1;}
	.st21{fill:#8D8873;}
	.st22{fill:#F59ABC;}
	.st23{fill:#042742;}
	.st24{fill:#0C74C1;}
	.st25{clip-path:url(#SVGID_2_);fill:#FFFFFF;}
</style>
<rect class="st0" width="805" height="805"/>
<g>
	<g>
		<defs>
			<rect id="SVGID_1_" x="108.5" y="113" width="588" height="578.9"/>
		</defs>
		<use xlink:href="#SVGID_1_"  style="overflow:visible;fill:#1C73AD;"/>
		<clipPath id="SVGID_2_">
			<use xlink:href="#SVGID_1_"  style="overflow:visible;"/>
		</clipPath>
		<path class="st25" d="M617.4,420.3c-1-2.4-3.1-3.8-5.9-3.8c-4.3,0-10,3-16.6,8.8c-3.3,2.9-8.5,6-12.2,6c-1.4,0-2.5-0.5-3.2-1.5
			c-1.1-1.7-1.7-5.6,2.1-15.3c1-2.9,5.4-14.1,9.7-24.9c4.7-11.9,9.6-24.2,10.1-26.1c2.4-6.6,2.4-11.9,0-15.4
			c-1.9-2.8-5.4-4.3-9.7-4.3c-9.2,0-20.7,6.6-23.8,17.4c-6.3-11.2-15.1-17.2-25.3-17.2c-10,0-21,5.6-30.9,15.7
			c-14.6,14.8-23.9,36.2-23.7,54.7c-1.3,1.4-16.5,17.3-28.1,17.3c-1.1,0-2.2-0.2-3.1-0.4c-1.6-0.5-2.9-1.6-3.8-3.3
			c-5-9.6,3.2-35.1,3.7-36.7c34.5-36.2,54.5-69.6,61.9-86.3c8.2-18.4,10.9-35.3,4-46.4c-3.3-5.2-9.3-8-17.9-8.2
			c-0.7,0-1.4-0.1-2.1-0.1c-18.6,0-30.7,13.8-36.2,22.1c-11.9,18.3-35.7,81.1-47.6,141.8c-5.6,5.1-13,8.8-18.9,11.8
			c-1.2,0.6-2.4,1.2-3.4,1.7c-5.3,2.8-10.2,4.2-14.4,4.2h0c-5.6,0-9.9-2.5-12.6-7.3c-6.2-11.1-2.4-31.9,9.3-50.4
			c3.6-5.7,9.5-9.4,15.1-9.4c2.7,0,4.9,0.9,6.4,2.6c1.4,1.6,2,3.8,1.8,6.4c-2.3-2.7-5.2-4.2-8.4-4.2c-5.1,0-11.2,4.2-12.2,13.5
			c-0.1,3,0.9,5.7,3,7.8c2.8,2.9,7.3,4.6,12.1,4.6c10,0,20.4-7.4,20.9-23.9c0.2-7.7-2-14.3-6.5-18.9c-4.9-5.1-12.4-7.8-21.2-7.8
			c-13.5,0-28.1,6.4-39,17.3c-9.2,9-20.2,25.3-20.7,51.5c-0.4,1-6.2,15.3-19.3,17.8c-2.2,0.4-3.9-0.1-5.2-1.7
			c-3.9-4.9-3.3-19.1,1.7-40c2.9-13.5,4.2-18,5.6-23.3c1.1-4,2.3-8.5,4.4-17.7c1.9-7.9,7-26.9,12-45.4c4.9-18.1,9.5-35.1,9.9-37.8
			c0.9-5.7-2.7-10.7-8.9-12.1c-2.6-0.6-5-0.9-7.4-0.9c-4.1,0-8,0.9-11.7,2.7c-7.4,3.6-10.3,11.2-11.4,16.9
			c-4.5,18-7.8,29.9-10.6,40.4c-3.3,12.2-6.2,22.7-9.9,38.8c-0.3,1.1-0.6,2.4-0.9,4c-4.6,20.4-16.8,74.7-35.8,74.7
			c-0.4,0-0.7,0-1.1-0.1c-3.2-0.4-5.5-1.6-7.1-3.8c-3.5-4.9-3.3-14.7,0.6-31.9c3.7-14.4,7.5-27.4,11.1-40c4.5-15.5,8.7-30.1,12-44.8
			c4.4-16.6,2-32.9-6.2-43.6c-6.1-7.9-15-12.1-25.6-12.1c-6.7,0-14,1.7-21.7,4.9c-17.5,7.4-23.7,29-21.2,41
			c1.3,6.5,4.8,10.2,9.6,10.2h0.1c7.7-0.1,7.9-7.7,8.2-14.5c0-1.4,0.1-2.8,0.2-4c1.6-8.9,6.3-13.9,12.9-13.9c0.3,0,0.6,0,0.8,0
			c9.8,2.6,10.5,9.4,7.4,28.5c-0.8,2.6-1.5,5.2-2.4,8c-6.4,21.7-14.4,48.7-22,82.8c-5.2,23.7-3.5,41.2,5.1,51.9
			c7.3,9.1,17.7,11,25.1,11c5.8,0,11.8-1.2,16.8-3.4c11.3-4.9,16-9.5,23.1-23.4c3.9,16.8,13.4,26.1,26.8,26.1
			c13.1,0,28.2-9,39.6-23.6c4,13,16.2,21.2,26.3,22.7c2.9,0.6,5.9,0.9,8.9,0.9c22.5,0,41.9-15.8,49.8-23.1
			c2.5,15.2,12.2,23.5,27.6,23.5c16.7,0,37-10.2,46.4-23.3c6.6,14.6,16.2,22.7,27.2,22.7c11.5,0,23.4-9.1,28.9-22
			c0.2,7.5,2.4,13.5,6.3,17.5c3.5,3.5,8.2,5.3,13.7,5.3c5.2,0,11-1.6,16.7-4.7c11-5.5,13.2-7.4,26.7-20.3
			C617.4,430.6,619.1,424.4,617.4,420.3 M527.1,431.1c-7.8-2.4-6.4-14.1-4-25.2c6.1-28.6,20.8-38.3,21-38.4c2.4-1.8,4.7-2.6,6.8-2.6
			c2,0,3.8,0.9,5.2,2.6c2.7,3.3,3.4,9.4,2,15.9c-0.7,3.2-14.1,35.5-14.2,35.8c-4.5,8.2-9.2,12.2-14.6,12.2
			C528.5,431.3,527.8,431.3,527.1,431.1 M469.5,354c2.2-8.3,11.9-42.9,28.7-71.1c3.8-5.3,7.6-8.5,10.2-8.5c0.9,0,1.6,0.4,2.1,1.1
			c1.6,2.3,0.9,7.7-1.7,14.5C499.4,314.1,478,345.6,469.5,354"/>
	</g>
	<g>
		<polygon class="st2" points="446.1,511.5 446.1,529.7 437,529.7 437,520.6 428,520.6 428,566.2 437,566.2 437,547.9 432.5,547.9 
			432.5,538.8 446.1,538.8 446.1,570.5 441.4,575.3 423.7,575.3 418.9,570.5 418.9,516.3 423.7,511.5 434.8,511.5 437.2,513.9 
			437.2,511.5 		"/>
		<path class="st2" d="M480,516.3v54.3l-4.7,4.8h-17.6l-4.8-4.8v-54.3l4.8-4.8h17.6L480,516.3z M470.9,520.6H462v45.7h8.9V520.6z"/>
		<polygon class="st2" points="517,557 517,575.3 486.8,575.3 486.8,566.2 489.7,566.2 489.7,520.6 486.8,520.6 486.8,511.5 
			501.8,511.5 501.8,520.6 498.8,520.6 498.8,566.2 508,566.2 508,557 		"/>
		<polygon class="st2" points="316.4,557 316.4,575.3 286.3,575.3 286.3,566.2 289.2,566.2 289.2,520.6 286.3,520.6 286.3,511.5 
			301.3,511.5 301.3,520.6 298.3,520.6 298.3,566.2 307.5,566.2 307.5,557 		"/>
		<polygon class="st2" points="552.7,511.5 552.7,529.7 543.8,529.7 543.8,520.6 534.6,520.6 534.6,538.8 543.8,538.8 543.8,547.9 
			534.6,547.9 534.6,566.2 537.6,566.2 537.6,575.3 522.5,575.3 522.5,566.2 525.5,566.2 525.5,520.6 522.5,520.6 522.5,511.5 
			541.4,511.5 543.8,513.9 543.8,511.5 		"/>
		<polygon class="st2" points="350.8,520.5 350.8,570.6 346,575.4 328.4,575.4 323.5,570.6 323.5,520.5 320.6,520.5 320.6,511.4 
			335.6,511.4 335.6,520.5 332.7,520.5 332.7,566.3 341.6,566.3 341.6,520.5 338.7,520.5 338.7,511.4 353.8,511.4 353.8,520.5 		"/>
		<path class="st2" d="M388.2,516.2v24.6l-2.6,2.6l2.6,2.6v24.6l-4.8,4.8H358v-9.1h3v-45.8h-3v-9.1h25.4L388.2,516.2z M370,538.8
			h9.2v-18.3H370V538.8z M379.2,547.9H370v18.3h9.2V547.9z"/>
		<polygon class="st2" points="279.5,511.4 279.5,529.7 270.3,529.7 270.3,520.5 261.4,520.5 261.4,566.3 270.3,566.3 270.3,557.1 
			279.5,557.1 279.5,570.6 274.8,575.4 257.1,575.4 252.3,570.6 252.3,516.2 257.1,511.4 268.2,511.4 270.6,513.8 270.6,511.4 		"/>
	</g>
</g>
</svg>
