<?xml version="1.0" encoding="utf-8"?>
<!-- Generator: Adobe Illustrator 22.0.1, SVG Export Plug-In . SVG Version: 6.00 Build 0)  -->
<svg version="1.1" id="Layer_1" xmlns="http://www.w3.org/2000/svg" xmlns:xlink="http://www.w3.org/1999/xlink" x="0px" y="0px"
	 viewBox="0 0 805 805" style="enable-background:new 0 0 805 805;" xml:space="preserve">
<style type="text/css">
	.st0{fill:#8187BC;}
	.st1{fill:#4156A6;}
	.st2{fill:#2474AE;}
	.st3{fill:#FFFFFF;}
	.st4{fill:#13263D;}
	.st5{fill:#FCFDFD;}
	.st6{fill:#FEC324;}
	.st7{fill:#FE8024;}
	.st8{fill:#132249;}
	.st9{fill:#C60000;}
	.st10{fill:#8186BB;}
	.st11{fill:#F5F5F5;}
	.st12{fill:#F8E391;}
	.st13{fill:#4BBCFB;}
	.st14{fill:#FB7DDE;}
	.st15{fill:#F8E392;}
	.st16{fill:#D7D793;}
	.st17{fill:#F4F5F4;}
	.st18{fill:#D971E1;}
	.st19{fill:#FBCA90;}
	.st20{fill:#EDD7B1;}
	.st21{fill:#8D8873;}
	.st22{fill:#F59ABC;}
</style>
<rect x="0" class="st0" width="805" height="805"/>
<g>
	<path class="st10" d="M668.3,138.4c0-1.4-0.3-1.7-1.7-1.7c-176.1,0-352.1,0-528.2,0c-1.4,0-1.7,0.3-1.7,1.7c0,88,0,176.1,0,264.1
		s0,176.1,0,264.1c0,1.4,0.3,1.7,1.7,1.7c176.1,0,352.1,0,528.2,0c1.4,0,1.7-0.3,1.7-1.7C668.2,490.5,668.2,314.5,668.3,138.4z
		 M556.6,454.7c-2.7,9.9-6.4,19.4-11,28.6c-1.8,3.7-3.6,7.5-6,10.9c-0.6,0.8-1,1.8-1.4,2.7c-0.5,2.4-2.3,3.9-3.5,5.8
		c-0.3,0.4-0.7,0.7-0.8,1.2c-0.3,2.3-2.1,3.4-3.7,4.7l-0.1,0.1c0.1,1.7-1.5,2.3-2.1,3.5c-0.9,1.6-1.9,3.1-3.1,4.5
		c-0.6,0.6-1.1,1.1-1.9,1.2c-0.6,0.7-1.1,1.3-1.7,2c-0.5,0.5-1,1.1-1.5,1.6c-0.2,0.2-0.4,0.5-0.6,0.7c-0.4,0.4-0.7,0.8-1.1,1.2
		c-0.2,0.2-0.4,0.5-0.6,0.7c-0.4,0.4-0.8,0.9-1.2,1.3c-0.2,0.2-0.4,0.5-0.7,0.7c-0.5,0.5-1,1-1.5,1.5c-0.4,0.4-0.8,0.8-1.2,1.2
		c-0.4,0.4-0.7,0.7-1.1,1.1c-0.9,0.9-1.9,1.8-2.8,2.7c-0.8,0.7-1.6,1.5-2.4,2.2c-0.3,0.3-0.7,0.6-1,0.9c-0.7,0.6-1.3,1.1-2,1.7
		c-0.3,0.3-0.7,0.6-1,0.8c-0.7,0.6-1.3,1.1-2,1.7c-2.7,2.2-5.5,4.3-8.4,6.3c-6.8,4.8-14,9.1-21.5,12.9c-0.5,0.2-1,0.4-1.6,0.5
		c-4.8,2.9-10.1,4.8-15.3,6.8c-20.9,7.9-42.6,11.1-64.9,10.3c-5.5-0.2-10.9-0.7-16.3-1.4c-0.4-0.1-0.7-0.2-1-0.3
		c-6-0.5-11.8-1.9-17.5-3.3c-11.9-3-23.3-7.4-34.2-12.9c-0.6-0.3-1.1-0.7-1.7-1.1c-3.3-1.1-6.1-3.1-9-4.9c-6-3.7-11.9-7.6-17.4-12
		c-7.3-6-14.5-12.3-20.6-19.6c-3.5-4.2-7.1-8.3-10.3-12.6c-4.3-5.7-8.1-11.7-11.6-17.9c-0.3-0.6-0.6-1.2-0.9-1.8
		c-2.4-4.3-4.6-8.8-6.5-13.3c-0.9-2-2-3.9-2.9-5.9c-1.3-3-1.3-6.3-2.3-9.4c-0.9-2.9-1.7-5.8-2.7-8.6c-0.6-1.5-0.4-3.1-0.8-4.7
		c-0.9-3.3-2.3-6.5-2-10v0c-0.1-0.1-0.1-0.2-0.2-0.2c-0.4-0.6-0.9-1.1-0.9-1.9c-0.3-6.9-1.5-13.6-1.6-20.5c-0.1-7.5-0.1-15,0.9-22.4
		c0.6-4.8,0.8-9.6,2.2-14.3c0.3-3.4,0.7-6.7,1.7-10c0.5-1.4,0.9-2.9,1.3-4.4c0.2-0.8,0.5-1.5,1.3-1.8l0,0c-0.2-1.7,0.5-3.1,1.4-4.4
		l0.1-1.5c-0.2-2.2,0.7-4.1,2.1-5.8c1.4-4.5,3.7-8.6,5.4-13c0.3-0.7,1-1.3,1.4-1.9c0.8-2.8,2.4-5.2,3.9-7.7
		c11.2-19.7,25.9-36.5,43.9-50.3c7.7-6.1,16-11.2,24.7-15.7c11.6-6,23.8-10.6,36.5-13.8c7.7-1.9,14.7-1.4,21.1,1.7
		c0.4,0.2,0.9,0.4,1.3,0.7c1.1,0.6,2.1,1.3,3.1,2c0.4,0.3,0.8,0.6,1.2,0.9c0.2,0.2,0.4,0.3,0.6,0.5c0.8,0.7,1.6,1.4,2.4,2.1
		c0.2,0.2,0.4,0.3,0.6,0.5c2.9,2.5,4.6,5.8,6.3,9c1.8,3.4,2.9,7.1,3.4,10.9c1,0.6,0.7,1.7,0.7,2.5c0,16.5,0,32.9,0,49.4
		c0,8,0,16.1,0,24.1c0,1.2,0.1,2.5-0.3,3.6c0.1,7.3-0.8,14.7,0.6,21.9c3.9,20.3,21.3,33.7,41.9,32.4c0.6-0.1,1.2-0.2,1.8-0.2
		c29.2,0,58.4,0,87.6-0.1c4.7,0,8.8,1.9,13,3.4c3.1,1.2,5.4,3.6,8.2,5.4c0.8,0.5,1.4,1.2,1.4,2.3c0.6,1,1.5,1.7,2.2,2.6
		c0.2,0.2,0.4,0.5,0.5,0.7c0.1,0.2,0.2,0.4,0.3,0.5c0.3,0.2,0.6,0.5,0.8,0.8c0.2,0.2,0.3,0.4,0.5,0.6c0.1,0.2,0.3,0.4,0.4,0.6
		c0.5,0.9,0.9,1.9,1.2,3c0.4,0.5,0.7,1.1,0.9,1.7c0.2,0.4,0.4,0.8,0.5,1.1c0.9,2.1,1.3,4.4,1.5,6.7
		C559.4,444.1,558,449.4,556.6,454.7z M574.6,369.3c-2.1,4.5-4.8,8.6-8.5,11.9c-4,4.2-8.9,7-14.3,8.9c-2,0.7-3.9,1.3-6,1.5
		c-1.4,0.5-2.9,0.7-4.3,0.7c-29.5,0-59,0-88.5,0c-0.6,0-1.1,0-1.7-0.1h0c-5.6,0-11-0.6-16.4-2.2c-11.3-3.4-17.9-11.2-20.5-22.5
		c-1-4.3-1.5-8.6-1.5-13c0-29.3,0-58.5,0-87.8c0-2.5,0.2-4.9,0.7-7.3c0.8-5.4,2.8-10.4,5.9-14.9c3.4-5,7.5-9.2,12.9-12.2
		c4.1-2.3,8.3-3.9,12.9-4.8c4.1-0.7,8.1-0.6,12.1-0.6c5.7,0.1,11,1.4,16.2,4c4,2,6.7,5,9.9,7.9c3.3,3,5.6,6.6,7.9,10.2
		c2.8,4.2,3.7,9.2,4.2,14.1c0.2,2.2,0.1,4.4,0.1,6.6c0,11.9,4.4,22,13.2,29.9c7,6.3,15.4,9.5,24.8,9.9c0.6,0,1.2,0.1,1.8,0.1
		c16.5-0.8,29.2,5.8,37.7,20c3.3,5.6,4.9,11.7,5.1,18.3C578.4,355.2,577.8,362.5,574.6,369.3z"/>
	<path class="st11" d="M395.5,355.2c0.1,7.3-0.8,14.7,0.6,21.9c3.9,20.3,21.3,33.6,41.9,32.4c1.3,0,2.7,0,4,0
		c9.5,0,18.9,0.1,28.3,0.1c-0.7,1,0.2,0.9,0.7,1c0.3,0.3,0.5,0.7,0.8,1c2.5,2,5.3,3.6,8.1,5.3c-0.1,0.4-0.1,0.7-0.2,1.1
		c-0.2,0.3-0.4,0.6-0.6,0.9c-2.5,5.1-4.6,10.4-6.4,15.9c-3.4,10.3-5.3,20.7-4.1,31.5c1.4,11.9,5.8,22.3,14,31
		c6.9,7.4,15.3,12.4,24.7,15.9c4.3,1.6,8.6,3.1,13.1,3.7c0.6,0.5,1.6,0.2,2.2,0.9c-9.1,10.6-19.4,20.1-30.8,28.2
		c-6.8,4.8-14,9.1-21.5,12.9c-0.5,0.2-1,0.4-1.6,0.5c0.2-1.7-1.1-2.8-1.5-4.3c-0.8-2.8-2.1-5.5-3.5-8c-2.4-4.4-4.9-8.9-8.4-12.6
		c0.1-1.5-1.1-2.6-2-3.4c-4-3.6-8.2-7-13.4-8.7c-2.3-0.8-4.7-1.6-7.1-1.8c-7.2-0.7-14.1,0.8-20.5,4.1c-0.9,0.5-2,0.7-2.6,1.6
		c-0.3,0.1-0.6,0.1-0.9,0.3c-4,2.8-8.1,5.4-11.9,8.5c-6.9,5.6-12.2,12.6-17.4,19.7c-3.4,4.7-5.9,9.9-8,15.3
		c-0.5,1.3-1.7,2.9-0.5,4.5c-6-0.5-11.8-1.9-17.5-3.3c-11.9-3-23.3-7.4-34.2-12.9c-0.6-0.3-1.1-0.7-1.7-1.1
		c2.8-4.2,4.9-8.8,6.2-13.7c4.4-16.4,1.5-32-5.3-47.2c-4.2-9.3-9.8-17.8-15.8-26.1c-2.4-3.4-4.8-6.8-7.9-9.7c0-0.2,0-0.5,0-0.7
		c0.8-0.2,1.2-1,1.8-1.5c10.1-9.2,18.5-19.6,23.6-32.5c5.9-14.9,5.7-29.8-1.1-44.4c-6.3-13.5-16.6-23.4-29.3-31
		c-9.1-5.5-19.1-9-29.2-12.2c-4.9-1.5-9.7-3-14.8-3.9c0.8-2.8,2.4-5.2,3.9-7.7c11.2-19.7,25.9-36.5,43.9-50.3
		c0.8,0.6-0.1,1.1-0.2,1.6c-0.6,1.5-1.5,2.8-2,4.3c-0.8,2.6-1.5,5.2-2.1,7.8c-2.2,8.9-1.7,17.8,1.1,26.4c1.9,6,4.7,11.5,8.8,16.4
		c0.8,0.7,0,2.5,1.8,2.6c0.1,0.1,0.2,0.2,0.3,0.3c0.6,1.9,2.2,2.9,3.4,4.3c2.1,2.4,4.6,4.2,7,6.1c0.6,0.4,1.1,0.8,1.8,0.7l0.1,0.1
		c0,0.5,0.1,0.9,0.5,1.3c3.4,2.6,7.1,4.6,10.9,6.6c0.3,0.2,0.7,0.1,1.1,0.2c0.1,0,0.3,0,0.4,0.1c0.2,0.8,0.7,1.2,1.4,1.6
		c2.2,0.9,4.4,1.9,6.5,2.9c1.1,0.5,2,1.7,3.5,1.4c0.1,0,0.3,0,0.4,0.1c0.4,0.8,1.1,1.1,1.9,1.4c1.8,0.8,3.7,1.1,5.6,1.7
		c4.4,1.6,9,2.3,13.6,2.6c5,0.3,10,0.7,15-0.7c2.2-0.6,4.6-0.7,6.4-2.4c0.9,0,1.4-0.7,2.2-0.9c2.5,0.6,3.2,0.3,3.6-1.8l0.1-0.1
		c1.7-0.3,3.1-1,3.7-2.9c1.5-1.5,3.5-2.4,4.4-4.5c0.1,0,0.3,0,0.4,0C395.5,354.2,395.5,354.7,395.5,355.2z"/>
	<path class="st12" d="M395.1,353.7c-0.8,2.1-2.9,3-4.4,4.5c-1.6,0.4-3.2,1-3.7,2.9c0,0-0.1,0.1-0.1,0.1c-1.5,0.1-2.9,0.2-3.6,1.8
		c-0.8,0.2-1.4,0.9-2.2,0.9c-0.7-0.5-1.3-0.3-2.1-0.1c-1.8,0.3-3.2,1.8-4.8,1.8c-5.5-0.1-10.9,0.4-16.4,0.3
		c-4.3-0.1-7.8-2.3-11.8-2.8c-2.5-0.3-4.7-1.9-7.3-1.8c-0.1,0-0.3,0-0.4-0.1c-0.2-0.6-0.6-1-1.2-1.3c-2.1-1-4.2-2.1-6.4-3
		c-1.3-0.5-2.2-1.8-3.8-1.5c-0.1,0-0.3,0-0.4-0.1c-0.3-0.8-1-1.2-1.7-1.5c-1.8-0.9-3.4-2.3-5.2-3.2c-1.9-1-3.3-2.9-5.5-3.4
		c0,0-0.1-0.1-0.1-0.1c-1.4-2.2-3.7-3.4-5.5-5.2c-1.6-1.5-3.3-2.9-4.6-4.7c-0.6-0.8-1.2-1.1-2.1-1.2c-0.1-0.1-0.2-0.2-0.3-0.3
		c-0.6-0.9-0.2-2.4-1.8-2.6c-4-4.9-6.8-10.4-8.8-16.4c-2.8-8.7-3.2-17.5-1.1-26.4c0.6-2.6,1.3-5.2,2.1-7.8c0.5-1.5,1.4-2.8,2-4.3
		c0.2-0.5,1-0.9,0.2-1.6c7.7-6.1,16-11.2,24.7-15.7c11.6-6,23.8-10.6,36.5-13.8c11.4-2.9,21.3-0.3,29.7,7.9
		c-0.1,0.6-0.2,1.3,0.3,1.7c2.8,1.9,3.9,5,5.5,7.8c2.2,3.8,2.8,8.1,3.6,12.4c0.2,1.3,0.8,2.4,0.8,3.8
		C395.1,305,395.1,329.4,395.1,353.7z"/>
	<path class="st13" d="M246.2,334.6c5,0.8,9.9,2.3,14.8,3.9c10.1,3.2,20,6.7,29.2,12.2c12.7,7.6,23,17.5,29.3,31
		c6.8,14.6,7,29.5,1.1,44.4c-5,12.9-13.4,23.3-23.6,32.5c-0.6,0.5-1,1.3-1.8,1.5c-2.4-2.4-4.7-4.7-7.1-7.1
		c-5.2-5.2-10.8-9.8-17.3-13.3c-7.6-4-15.6-6.2-24.2-6.2c-5.4,0-10.4,1.8-15.5,3.2c-0.4-0.7-1-1.2-1.1-2.1
		c-0.3-6.9-1.5-13.6-1.6-20.5c-0.1-7.5-0.1-15,0.9-22.4c0.6-4.8,0.8-9.6,2.2-14.3c1.3-0.6,1.4-1.7,1.4-2.9c0-3.3,1.4-6.3,2.2-9.4
		c0.3-1.3,0.9-2.5,0.8-3.9c0,0,0,0,0,0c1-1.3,1.5-2.8,1.4-4.4c0-0.5,0.1-1,0.1-1.4c0.6,0,1.2-0.1,1.3-0.8c0.1-1.7,1.1-3.2,0.9-5
		c1.4-4.5,3.7-8.6,5.4-13C245.1,335.8,245.7,335.2,246.2,334.6z"/>
	<path class="st12" d="M535.4,309.6c16.5-0.8,29.2,5.8,37.7,20c3.3,5.6,4.9,11.7,5.1,18.3c0.2,7.4-0.4,14.6-3.6,21.4
		c-2.1,4.5-4.8,8.6-8.5,11.9c-3.2-1.4-6-3.6-9.2-5c-2.7-1.1-5.2-2.6-8-3.1c-3.2-0.6-6.5-1.1-9.8-1.4c-4.8-0.3-9.5,0.5-14,1.6
		c-4.9,1.3-9.4,3.7-13.6,6.5c-5.1,3.3-9.5,7.3-13.7,11.6c-15.5,0-31,0-46.5,0c-1.8-1.5-3-3.6-4.3-5.6c-2-3.1-3.8-6.4-5.2-9.9
		c-1.7-4.1-3.4-8.2-3.9-12.7c-0.3-2.4-0.4-4.9-0.9-7.3c-0.7-3.6-0.5-7.1-0.2-10.6c0.4-5,1.3-10,2.9-14.7c0.8-2.4,1.2-5,2.8-7.1
		c0.9,0.2,1.7,0.7,2.5,1.2c4.4,3.1,9.1,5.6,14.3,7.3c6.9,2.2,14,2.9,21.2,2.3c10.9-0.9,21.1-4.3,30.8-9.1
		c6.2-3.1,12.1-6.6,17.7-10.5C531.1,313,533.5,311.6,535.4,309.6z"/>
	<path class="st14" d="M520.6,516.9c-4.5-0.6-8.8-2.1-13.1-3.7c-9.4-3.5-17.9-8.5-24.7-15.9c-8.1-8.8-12.6-19.2-14-31
		c-1.2-10.9,0.7-21.3,4.1-31.5c1.8-5.4,3.9-10.7,6.4-15.9c0.2-0.3,0.4-0.6,0.6-0.9c2.2,1.2,4.4,2.5,6.6,3.5c2.3,1,4.5,2.2,6.7,3.3
		c1.9,1,3.8,2.2,5.9,2.8c3.5,1,6.8,2.4,10.4,3.3c2.2,0.6,4.4,1.2,6.7,1.2l0,0c0.3,1.3,1.3,1.4,2.4,1.5c2.5,0.1,5.1-0.4,7.5,0.3
		c1.8,0.5,3.7,0.7,5.4,0.3c1.9-0.5,3.7-0.5,5.6-0.6c3.2-0.1,6.3-0.6,9.1-2.1c1.2-0.7,2.5-1.5,3.8-1.8c1.9-0.5,3.7-3.1,5.9-0.5
		c1.9,2.9,2.7,6.2,3,9.6c0.5,5.6-0.9,10.8-2.4,16.1c-2.7,9.9-6.4,19.4-11,28.6c-1.8,3.7-3.6,7.5-6,10.9c-0.6,0.8-1,1.8-1.4,2.7
		c-0.9,0-1.2,0.6-1.6,1.3c-1.7,2.8-3.2,5.6-5.6,7.9c-0.7,0.7-0.9,1.6-0.9,2.5c0,0-0.1,0.1-0.1,0.1c-2.3,1.6-3.7,4-5.3,6.2
		C523.5,516.5,522.4,517.1,520.6,516.9z"/>
	<path class="st13" d="M495.5,269.6c-2.3-0.1-3.9,1.5-5.8,2.5c-3.7,1.8-7.1,4.3-10.5,6.6c-0.2,1.2-1.4,1.8-2.2,2.2
		c-2.1,1.2-3.6,2.9-5.3,4.5c-2,1.8-4,3.5-6.3,4.9v0c-0.1,0.1-0.2,0.1-0.3,0.2c-0.2,0-0.3,0.1-0.3,0.3c-0.1,0.2-0.1,0.3-0.2,0.5
		c-0.2,0-0.3,0-0.4,0.1c0,0,0,0,0,0c0,0-0.1,0.1-0.1,0.2c0,0.1,0,0.1,0,0.2c-0.1,0.1-0.2,0.2-0.3,0.3c-0.2-0.1-0.3-0.1-0.4,0
		c0,0,0,0,0,0c0,0,0,0,0,0c0,0.1,0,0.2,0,0.3c-0.6,0.5-1.2,1-1.8,1.6c-3.4,3.8-6.5,7.8-9.5,11.9c-3.1,4.4-6.5,8.7-8.5,13.8
		c-0.4,1-0.8,2-1.7,2.8c-6.3-5.4-11.7-11.6-15.5-18.9c-5.7-11-9.4-22.7-11.5-35c-0.5-3.1-0.6-6.3-1.5-9.4c0.8-5.4,2.8-10.4,5.9-14.9
		c3.4-5,7.5-9.2,12.9-12.2c4.1-2.3,8.3-3.9,12.9-4.8c4.1-0.7,8.1-0.6,12.1-0.6c5.7,0.1,11,1.4,16.2,4c4,2,6.7,5,9.9,7.9
		c3.3,3,5.6,6.6,7.9,10.2c2.8,4.2,3.7,9.2,4.2,14.1C495.6,265.2,495.5,267.4,495.5,269.6z"/>
	<path class="st13" d="M463.4,292.6L463.4,292.6c-0.1-0.2-0.1-0.3,0-0.3C463.3,292.3,463.3,292.4,463.4,292.6z"/>
	<path class="st13" d="M464.1,291.8L464.1,291.8c0-0.1-0.1-0.2-0.1-0.2C464.1,291.6,464.1,291.7,464.1,291.8z"/>
	<path class="st14" d="M295.2,460.8c3.1,2.9,5.4,6.3,7.9,9.7c6,8.3,11.6,16.8,15.8,26.1c6.8,15.1,9.6,30.8,5.3,47.2
		c-1.3,4.9-3.4,9.4-6.2,13.7c-3.3-1.1-6.1-3.1-9-4.9c-6-3.7-11.9-7.6-17.4-12c-7.3-6-14.5-12.3-20.6-19.6
		c-3.5-4.2-7.1-8.3-10.3-12.6c-4.3-5.7-8.1-11.7-11.6-17.9c-0.3-0.6-0.6-1.2-0.9-1.8c0.1-0.9,0.7-1.4,1.5-1.6c1.1-0.3,2.1-0.6,3.2-1
		c4.9-2,9.7-4.1,14.4-6.5c7.9-4,15-9.1,22-14.4C291.2,463.6,292.8,461.7,295.2,460.8z"/>
	<path class="st15" d="M371.4,574.8c-1.2-1.6,0-3.1,0.5-4.5c2-5.4,4.6-10.6,8-15.3c5.2-7.1,10.5-14.2,17.4-19.7
		c3.8-3.1,7.9-5.7,11.9-8.5c0.2-0.2,0.6-0.2,0.9-0.3c2.3,0,4.1-1.4,6.2-2.1c4-1.3,8-2.6,12.3-2.7c6.5-0.2,12.5,1.6,17.9,5
		c2.8,1.8,5.7,3.8,7.4,6.9c0.4,0.7,1.1,1,1.9,1c3.5,3.7,6,8.1,8.4,12.6c1.4,2.5,2.7,5.2,3.5,8c0.4,1.4,1.7,2.6,1.5,4.3
		c-4.8,2.9-10.1,4.8-15.3,6.8c-20.9,7.9-42.6,11.1-64.9,10.3c-5.5-0.2-10.9-0.7-16.3-1.4C372,575.1,371.7,574.9,371.4,574.8z"/>
	<path class="st16" d="M535.4,309.6c-1.9,2.1-4.3,3.5-6.5,5c-5.6,3.9-11.5,7.5-17.7,10.5c-9.7,4.8-19.9,8.3-30.8,9.1
		c-7.2,0.6-14.3-0.1-21.2-2.3c-5.2-1.7-9.9-4.2-14.3-7.3c-0.8-0.5-1.5-1-2.5-1.2c-0.1-0.3-0.3-0.6-0.4-0.9c0.9-0.7,1.4-1.8,1.7-2.8
		c2-5.1,5.3-9.4,8.5-13.8c2.9-4.1,6-8.2,9.5-11.9c0.5-0.6,1.2-1.1,1.8-1.6l0,0c0.1-0.1,0.3-0.3,0.4-0.4c0.1-0.1,0.2-0.2,0.3-0.3l0,0
		c0.3-0.1,0.4-0.3,0.4-0.5c0.1-0.2,0.1-0.3,0.2-0.5c0.1-0.1,0.2-0.2,0.3-0.3c0.1-0.1,0.2-0.1,0.3-0.2c2.3-1.4,4.3-3.1,6.3-4.9
		c1.7-1.6,3.2-3.3,5.3-4.5c0.8-0.5,2-1,2.2-2.2c3.4-2.3,6.8-4.8,10.5-6.6c1.9-0.9,3.5-2.5,5.8-2.5c0,11.9,4.4,22,13.2,29.9
		c7,6.3,15.4,9.5,24.8,9.9C534.1,309.5,534.8,309.5,535.4,309.6z"/>
	<path class="st17" d="M451.2,391.4c0,0.2,0,0.5,0,0.7c-5.6,0-11-0.6-16.4-2.2c-11.3-3.4-17.9-11.2-20.5-22.5c-1-4.3-1.5-8.6-1.5-13
		c0-29.3,0-58.5,0-87.8c0-2.5,0.2-4.9,0.7-7.3c0.9,3.1,0.9,6.3,1.5,9.4c2.1,12.2,5.8,23.9,11.5,35c3.8,7.4,9.2,13.6,15.5,18.9
		c0.1,0.3,0.3,0.6,0.4,0.9c-1.6,2.1-2,4.7-2.8,7.1c-1.5,4.8-2.4,9.7-2.9,14.7c-0.3,3.5-0.5,7,0.2,10.6c0.5,2.4,0.6,4.8,0.9,7.3
		c0.6,4.5,2.3,8.6,3.9,12.7c1.4,3.5,3.1,6.8,5.2,9.9C448.2,387.8,449.3,389.9,451.2,391.4z"/>
	<path class="st18" d="M295.2,460.8c-2.3,0.9-4,2.8-5.9,4.2c-7,5.2-14.1,10.4-22,14.4c-4.7,2.4-9.5,4.5-14.4,6.5
		c-1,0.4-2.1,0.7-3.2,1c-0.8,0.2-1.4,0.7-1.5,1.6c-2.4-4.3-4.6-8.8-6.5-13.3c-0.9-2-2-3.9-2.9-5.9c-1.3-3-1.3-6.3-2.3-9.4
		c-0.9-2.9-1.7-5.8-2.7-8.6c-0.6-1.5-0.4-3.1-0.8-4.7c-0.9-3.3-2.3-6.5-2-10c5.1-1.4,10.1-3.2,15.5-3.2c8.6,0,16.7,2.1,24.2,6.2
		c6.5,3.5,12.2,8.1,17.3,13.3c2.4,2.4,4.7,4.7,7.1,7.1C295.1,460.3,295.2,460.6,295.2,460.8z"/>
	<path class="st19" d="M550.1,420.2c0.9,1.4,2.3,2.3,3,3.8c-0.3,0.9,1.5,1.9,0,2.8c-0.9,0.5-1.6,1.6-2.9,1.6c-1.1,0-2.1,0.5-2.9,1
		c-2.1,1.4-4.7,1.7-7,2.3c-2.4,0.7-5.2,1-7.9,1.1c-5.5,0.2-10.9-0.5-16.3-0.8c0,0,0,0,0,0c-0.3-0.8-0.5-1.6-1.7-1
		c-0.5,0.3-0.9,0-1.4-0.2c-3.1-1.1-6.3-2.2-9.4-3.3c-2-0.7-4.3-0.9-6.1-1.9c-3.3-1.8-6.7-3.6-10.2-5c-2.4-1-4.2-3.1-6.7-4.1
		c0-0.8-0.2-1.7,0.7-2.3c1.4-1.1,1.8-2.7,2.3-4.3c0.9,0,1.8-0.1,2.8-0.1c13.4,0,26.8,0,40.2,0c0.3,0,0.6-0.1,0.9-0.1
		c6.9,0.7,13,3.3,18.7,7.3C547.6,418,548.6,419.4,550.1,420.2z"/>
	<path class="st19" d="M497.7,391.4c4.2-4.3,8.6-8.3,13.7-11.6c4.3-2.8,8.7-5.2,13.6-6.5c4.5-1.2,9.2-2,14-1.6
		c3.3,0.2,6.6,0.7,9.8,1.4c2.8,0.5,5.4,2,8,3.1c3.3,1.3,6,3.5,9.2,5c-4,4.2-8.9,7-14.3,8.9c-2,0.7-3.9,1.3-6,1.5c-1.5,0-2.9,0-4.4,0
		C526.7,391.4,512.2,391.4,497.7,391.4z"/>
	<path class="st20" d="M497.7,391.4c14.5,0,29,0,43.5,0c1.5,0,3,0,4.4,0c-1.4,0.5-2.9,0.7-4.3,0.7c-29.5,0-59,0-88.5,0
		c-0.6,0-1.1,0-1.7-0.1c0-0.2,0-0.4,0-0.7C466.7,391.4,482.2,391.4,497.7,391.4z"/>
	<path class="st21" d="M550.1,420.2c-1.5-0.7-2.5-2.2-3.8-3.1c-5.6-4-11.8-6.6-18.7-7.3c-0.3,0-0.6,0-0.9,0.1
		c-0.8-0.5-1.7-0.3-2.5-0.3c-12.9,0-25.9,0-38.8,0c-5,0-9.9,0-14.9,0.1c-9.5,0-18.9-0.1-28.4-0.1c-1.3,0-2.7,0-4,0
		c0.6-0.1,1.2-0.2,1.8-0.2c29.2,0,58.4,0,87.6-0.1c4.7,0,8.8,1.9,13,3.4c3.1,1.2,5.4,3.6,8.2,5.4
		C549.5,418.4,550.2,419.1,550.1,420.2z"/>
	<path class="st20" d="M395.1,353.7c0-24.3,0-48.7,0.1-73c0-1.3-0.5-2.5-0.8-3.8c-0.8-4.2-1.4-8.6-3.6-12.4
		c-1.6-2.7-2.8-5.8-5.5-7.8c-0.5-0.4-0.4-1.1-0.3-1.7c3.2,2.5,5.1,6,6.9,9.5c1.8,3.4,2.9,7.1,3.4,10.9c0.1,1.9,0.3,3.8,0.3,5.7
		c0,22.1,0,44.2,0,66.4c0,2,0,4.1-0.1,6.1C395.3,353.7,395.2,353.7,395.1,353.7z"/>
	<path class="st22" d="M516.2,432c5.4,0.3,10.8,1,16.3,0.8c2.7-0.1,5.5-0.4,7.9-1.1c2.3-0.7,4.9-0.9,7-2.3c0.8-0.6,1.8-1.1,2.9-1
		c1.2,0,1.9-1,2.9-1.6c1.4-0.8-0.4-1.8,0-2.8c1.6,1.3,2.4,3,2.8,5c-2.2-2.6-4,0.1-5.9,0.5c-1.3,0.3-2.6,1.1-3.8,1.8
		c-2.9,1.5-6,2-9.1,2.1c-1.9,0.1-3.7,0.1-5.6,0.6c-1.7,0.4-3.6,0.2-5.4-0.3c-2.4-0.7-5-0.2-7.5-0.3
		C517.5,433.5,516.5,433.3,516.2,432z"/>
	<path class="st21" d="M395.4,353.7c0-2,0.1-4.1,0.1-6.1c0-22.1,0-44.2,0-66.4c0-1.9-0.2-3.8-0.3-5.7c1,0.6,0.7,1.7,0.7,2.5
		c0,16.5,0,32.9,0,49.4c0,8,0,16.1,0,24.1c0,1.2,0.1,2.5-0.3,3.6C395.5,354.7,395.5,354.2,395.4,353.7z"/>
	<path class="st13" d="M235.7,361.2c0.1,1.4-0.4,2.6-0.8,3.9c-0.8,3.1-2.1,6.1-2.2,9.4c0,1.2-0.1,2.4-1.4,2.9
		c0.3-3.4,0.7-6.7,1.7-10c0.4-1.4,0.9-2.9,1.3-4.4C234.5,362.2,234.8,361.5,235.7,361.2z"/>
	<path class="st18" d="M530.1,508.7c0-0.9,0.1-1.8,0.9-2.5c2.4-2.3,3.9-5.1,5.6-7.9c0.4-0.7,0.7-1.3,1.6-1.3
		c-0.5,2.4-2.3,3.9-3.5,5.8c-0.3,0.4-0.7,0.7-0.8,1.2C533.6,506.3,531.8,507.4,530.1,508.7z"/>
	<path class="st18" d="M520.6,516.9c1.8,0.2,2.9-0.4,4.1-2c1.6-2.2,3.1-4.6,5.3-6.2c0.1,1.7-1.5,2.3-2.1,3.5
		c-0.9,1.6-1.9,3.1-3.1,4.5c-0.6,0.6-1.1,1.1-1.9,1.2C522.3,517.2,521.3,517.5,520.6,516.9z"/>
	<path class="st13" d="M239.4,349.5c0.3,1.8-0.8,3.3-0.9,5c0,0.7-0.7,0.8-1.3,0.8C237.1,353,237.9,351.1,239.4,349.5z"/>
	<path class="st13" d="M237.1,356.7c0,1.7-0.4,3.1-1.4,4.4C235.5,359.4,236.2,358,237.1,356.7z"/>
	<path class="st20" d="M455.6,534.6c-0.8,0-1.5-0.3-1.9-1c-1.7-3.1-4.6-5.1-7.4-6.9c-5.4-3.4-11.4-5.2-17.9-5
		c-4.2,0.1-8.3,1.4-12.3,2.7c-2.1,0.7-3.9,2.2-6.2,2.1c0.6-1,1.7-1.2,2.6-1.6c6.4-3.4,13.3-4.8,20.5-4.1c2.4,0.2,4.7,1,7.1,1.8
		c5.2,1.7,9.4,5.1,13.4,8.7C454.5,532.1,455.6,533.1,455.6,534.6z"/>
	<path class="st20" d="M338.7,361.2c2.6-0.2,4.8,1.4,7.3,1.8c4,0.5,7.6,2.8,11.8,2.8c5.5,0.1,10.9-0.4,16.4-0.3
		c1.7,0,3.1-1.5,4.8-1.8c0.7-0.1,1.4-0.4,2.1,0.1c-1.8,1.7-4.2,1.8-6.4,2.4c-4.9,1.4-10,1-15,0.7c-4.6-0.3-9.2-1-13.6-2.6
		c-1.8-0.6-3.8-0.9-5.6-1.7C339.8,362.2,339.1,361.9,338.7,361.2z"/>
	<path class="st15" d="M483.7,410c-0.5,1.6-0.9,3.2-2.3,4.3c-0.8,0.6-0.7,1.5-0.7,2.3c-0.2,0.1-0.5,0.2-0.7,0.3
		c-2.8-1.6-5.6-3.2-8.1-5.3c-0.3-0.3-0.5-0.6-0.8-1c0.4-0.7,1.1-0.7,1.8-0.7C476.5,409.9,480.1,409.9,483.7,410z"/>
	<path class="st22" d="M480.1,416.8c0.2-0.1,0.5-0.2,0.7-0.3c2.4,1,4.2,3.1,6.7,4.1c3.5,1.5,6.8,3.2,10.2,5c1.8,1,4.1,1.2,6.1,1.9
		c3.1,1.1,6.3,2.2,9.4,3.3c0.5,0.2,0.9,0.4,1.4,0.2c1.1-0.6,1.4,0.2,1.7,1c-2.3,0.1-4.4-0.6-6.7-1.2c-3.6-0.9-6.9-2.3-10.4-3.3
		c-2.1-0.6-3.9-1.8-5.9-2.8c-2.2-1.1-4.4-2.3-6.7-3.3c-2.2-1-4.4-2.3-6.6-3.5C480,417.5,480,417.2,480.1,416.8z"/>
	<path class="st20" d="M483.7,410c-3.6,0-7.2,0-10.8-0.1c-0.7,0-1.4,0-1.8,0.7c-0.5-0.1-1.4-0.1-0.7-1c5,0,9.9-0.1,14.9-0.1
		c12.9,0,25.9,0,38.8,0c0.8,0,1.7-0.2,2.5,0.3c-13.4,0-26.8,0-40.2,0C485.6,409.9,484.6,409.9,483.7,410z"/>
	<path class="st20" d="M301.7,336c0.9,0,1.5,0.4,2.1,1.2c1.3,1.8,3,3.2,4.6,4.7c1.8,1.8,4.2,3,5.5,5.2c-0.7,0.1-1.3-0.3-1.8-0.7
		c-2.4-1.9-4.9-3.7-7-6.1C303.9,338.9,302.3,337.9,301.7,336z"/>
	<path class="st20" d="M314,347.1c2.2,0.5,3.6,2.4,5.5,3.4c1.8,0.9,3.4,2.3,5.2,3.2c0.7,0.4,1.4,0.7,1.7,1.5c-0.4-0.1-0.8,0-1.1-0.2
		c-3.7-2-7.5-4-10.9-6.6C314.1,348.1,314,347.6,314,347.1z"/>
	<path class="st20" d="M326.8,355.3c1.6-0.3,2.6,1,3.8,1.5c2.2,0.9,4.3,2,6.4,3c0.6,0.3,1,0.7,1.2,1.3c-1.5,0.3-2.3-0.8-3.5-1.4
		c-2.1-1-4.3-2-6.5-2.9C327.5,356.5,327,356,326.8,355.3z"/>
	<path class="st20" d="M383.3,362.9c0.7-1.6,2.1-1.7,3.6-1.8C386.5,363.2,385.8,363.6,383.3,362.9z"/>
	<path class="st20" d="M387,361.1c0.5-1.8,2-2.4,3.7-2.9C390.1,360,388.7,360.7,387,361.1z"/>
	<path class="st20" d="M299.5,333.1c1.6,0.2,1.3,1.7,1.8,2.6C299.6,335.7,300.3,333.8,299.5,333.1z"/>
	<path class="st10" d="M464.5,291.3c0,0.3-0.1,0.5-0.4,0.5l0,0c0-0.1,0-0.2,0-0.2c0-0.1,0-0.1,0.1-0.2c0,0,0,0,0,0
		C464.3,291.3,464.4,291.3,464.5,291.3z"/>
	<path class="st10" d="M463.8,292.1c-0.1,0.1-0.3,0.3-0.4,0.4l0,0c0-0.2-0.1-0.3,0-0.3c0,0,0,0,0,0c0,0,0,0,0,0
		C463.5,292.1,463.6,292.1,463.8,292.1z"/>
	<path class="st10" d="M465,290.5c-0.1,0.1-0.2,0.2-0.3,0.3C464.7,290.6,464.8,290.5,465,290.5z"/>
</g>
</svg>
