<?xml version="1.0" encoding="utf-8"?>
<!-- Generator: Adobe Illustrator 22.0.1, SVG Export Plug-In . SVG Version: 6.00 Build 0)  -->
<svg version="1.1" id="Layer_1" xmlns="http://www.w3.org/2000/svg" xmlns:xlink="http://www.w3.org/1999/xlink" x="0px" y="0px"
	 viewBox="0 0 600 600" style="enable-background:new 0 0 600 600;" xml:space="preserve">
<title>co</title>
<path d="M263.2,285c-11.8-14-14.6-33.5-7.2-50.2l3,4.7l3.2,5c-2.9,11.6-0.4,24,7,33.5h14.1l2.8,4.5l2.8,4.5H265l-1.3-1.5
	C263.5,285.3,263.4,285.1,263.2,285z"/>
<path d="M340.5,368.6c-1.1,1.8-2.4,3.4-3.7,5l-0.4,0.4l-1.4,1.5h-70l-1.3-1.5l-0.4-0.5c-15.1-17.9-15.1-44.2,0.1-62.1l1.4-1.6h38.8
	l2.8,4.5l2.8,4.5h-40.3c-10.8,14.1-10.7,33.7,0.2,47.7h61.8c1.6-2.1,3-4.3,4.1-6.6l2.8,4.4L340.5,368.6z"/>
<path d="M333.3,314.6l-0.1-0.1h-66.5c-13.8,16.2-13.8,40-0.1,56.3l0.3,0.4h66l0.3-0.4C347,354.5,347,330.8,333.3,314.6L333.3,314.6z
	 M335,360c-1.2,2.4-2.6,4.6-4.2,6.6h-61.7c-10.9-14-11-33.6-0.2-47.7h62.2C340.1,330.8,341.6,346.7,335,360L335,360z"/>
<path d="M336.8,311.7l-1.5-1.7h-70.6l-1.4,1.6c-15.2,17.9-15.2,44.1-0.1,62.1l0.4,0.5l1.3,1.5h70l1.3-1.5l0.4-0.4
	c1.4-1.6,2.6-3.3,3.7-5C351.8,350.9,350.3,327.8,336.8,311.7L336.8,311.7z M269.1,366.6c-10.9-14-11-33.6-0.2-47.7h62.2
	c10.7,14.1,10.7,33.7-0.2,47.7H269.1z"/>
<path d="M262.1,244.5c-2.9,11.6-0.4,24,7,33.5H333v4.5h-66l-0.3-0.4c-10-11.8-12.9-28-7.8-42.6c1.8-5,4.4-9.6,7.9-13.7h66.4v4.5
	h-64.3C265.7,234.5,263.4,239.3,262.1,244.5z"/>
<path d="M333.2,221.3v9h-64.3c-3.2,4.2-5.5,9.1-6.8,14.2c-2.9,11.6-0.4,24,7,33.5H333v9h-68l-1.3-1.5c-0.1-0.1-0.3-0.3-0.4-0.4
	c-11.8-14-14.6-33.5-7.3-50.2l0,0c1.9-4.3,4.4-8.3,7.4-11.9l1.4-1.6L333.2,221.3z"/>
<path d="M336.8,311.7l-1.5-1.7h-70.6l-1.4,1.6c-15.2,17.9-15.2,44.1-0.1,62.1l0.4,0.5l1.3,1.5h70l1.3-1.5l0.4-0.4
	c1.4-1.6,2.6-3.3,3.7-5C351.8,350.9,350.3,327.8,336.8,311.7L336.8,311.7z M269.1,366.6c-10.9-14-11-33.6-0.2-47.7h62.2
	c10.7,14.1,10.7,33.7-0.2,47.7H269.1z M263.6,285.4l1.3,1.5H333v-9h-63.9c-10.9-14-10.9-33.6-0.2-47.7h64.3v-9h-68.5l-1.4,1.6
	c-3,3.6-5.5,7.6-7.3,11.9l0,0c-7.4,16.8-4.6,36.2,7.2,50.2C263.4,285.1,263.5,285.3,263.6,285.4L263.6,285.4z M336.8,311.7l-1.5-1.7
	h-70.6l-1.4,1.6c-15.2,17.9-15.2,44.1-0.1,62.1l0.4,0.5l1.3,1.5h70l1.3-1.5l0.4-0.4c1.4-1.6,2.6-3.3,3.7-5
	C351.8,350.9,350.3,327.8,336.8,311.7L336.8,311.7z M269.1,366.6c-10.9-14-11-33.6-0.2-47.7h62.2c10.7,14.1,10.7,33.7-0.2,47.7
	H269.1z M263.6,285.4l1.3,1.5H333v-9h-63.9c-10.9-14-10.9-33.6-0.2-47.7h64.3v-9h-68.5l-1.4,1.6c-3,3.6-5.5,7.6-7.3,11.9l0,0
	c-7.4,16.8-4.6,36.2,7.2,50.2C263.4,285.1,263.5,285.3,263.6,285.4L263.6,285.4z M221.8,181.9V418h156.5V181.9H221.8z M369,408.8
	H231V191.2h138V408.8z M263.6,374.1l1.3,1.5H335l1.3-1.5l0.4-0.4c1.4-1.6,2.6-3.3,3.7-5c11.4-17.7,9.8-40.8-3.7-56.9l-1.4-1.7h-70.6
	l-1.4,1.6c-15.2,17.9-15.2,44.1-0.1,62.1L263.6,374.1z M331.1,319c10.7,14.1,10.7,33.7-0.2,47.7h-61.8c-10.9-14-11-33.6-0.2-47.7
	H331.1z M263.6,285.4l1.3,1.5H333v-9h-63.9c-10.9-14-10.9-33.6-0.2-47.7h64.3v-9h-68.5l-1.4,1.6c-3,3.6-5.5,7.6-7.3,11.9l0,0
	c-7.4,16.8-4.6,36.2,7.2,50.2C263.4,285.1,263.5,285.3,263.6,285.4L263.6,285.4z"/>
<path d="M221.8,181.9V418h156.5V181.9H221.8z M369,408.8H231V191.2h138V408.8z"/>
</svg>
