<svg id="Layer_1" data-name="Layer 1" xmlns="http://www.w3.org/2000/svg" viewBox="0 0 600 600"><defs><style>.cls-1{fill:#fff;}</style></defs><title>co</title><path class="cls-1" d="M263.23,285A48,48,0,0,1,256,234.78l3,4.69,3.16,5a39,39,0,0,0,7,33.47h14.11l2.84,4.49,2.83,4.48H265l-1.34-1.53C263.48,285.25,263.36,285.1,263.23,285Z"/><path class="cls-1" d="M340.48,368.61a49,49,0,0,1-3.73,5.05l-.37.44L335,375.63H265l-1.34-1.53-.38-.45a48.08,48.08,0,0,1,.11-62.06l1.35-1.59h38.78l2.82,4.48,2.84,4.49H268.92a39.08,39.08,0,0,0,.19,47.68h61.77A39,39,0,0,0,335,360l2.76,4.37Z"/><path class="cls-1" d="M333.32,314.6l-.1-.12H266.77a43.6,43.6,0,0,0-.1,56.29l.32.37h66l.31-.37a43.57,43.57,0,0,0,0-56.17ZM335,360a39,39,0,0,1-4.16,6.65H269.11a39.08,39.08,0,0,1-.19-47.68h62.16a39.08,39.08,0,0,1,4,41Z"/><path class="cls-1" d="M336.75,311.71,335.28,310H264.69l-1.35,1.59a48.08,48.08,0,0,0-.11,62.06l.38.45,1.34,1.53H335l1.34-1.53.37-.44a49,49,0,0,0,3.73-5.05,48.05,48.05,0,0,0-3.73-56.9Zm-67.64,54.94a39.08,39.08,0,0,1-.19-47.68h62.16a39.12,39.12,0,0,1-.2,47.68Z"/><path class="cls-1" d="M262.08,244.48a39,39,0,0,0,7,33.47H333v4.49H267l-.32-.37a43.53,43.53,0,0,1-7.75-42.6,44.09,44.09,0,0,1,7.85-13.69h66.45l0,4.49H268.92A39.48,39.48,0,0,0,262.08,244.48Z"/><path class="cls-1" d="M333.23,221.3v9H268.92a39.48,39.48,0,0,0-6.84,14.21,39,39,0,0,0,7,33.47H333v9H265l-1.34-1.53c-.13-.14-.25-.29-.38-.44A48,48,0,0,1,256,234.78h0a48.75,48.75,0,0,1,7.39-11.88l1.35-1.59Z"/><path class="cls-1" d="M336.75,311.71,335.28,310H264.69l-1.35,1.59a48.08,48.08,0,0,0-.11,62.06l.38.45,1.34,1.53H335l1.34-1.53.37-.44a49,49,0,0,0,3.73-5.05,48.05,48.05,0,0,0-3.73-56.9Zm-67.64,54.94a39.08,39.08,0,0,1-.19-47.68h62.16a39.12,39.12,0,0,1-.2,47.68Zm-5.5-81.26,1.34,1.53H333v-9h-63.9a39.1,39.1,0,0,1-.19-47.68h64.31v-9H264.69l-1.35,1.59A48.75,48.75,0,0,0,256,234.77h0A48,48,0,0,0,263.23,285C263.36,285.1,263.48,285.25,263.61,285.39Zm73.14,26.32L335.28,310H264.69l-1.35,1.59a48.08,48.08,0,0,0-.11,62.06l.38.45,1.34,1.53H335l1.34-1.53.37-.44a49,49,0,0,0,3.73-5.05,48.05,48.05,0,0,0-3.73-56.9Zm-67.64,54.94a39.08,39.08,0,0,1-.19-47.68h62.16a39.12,39.12,0,0,1-.2,47.68Zm-5.5-81.26,1.34,1.53H333v-9h-63.9a39.1,39.1,0,0,1-.19-47.68h64.31v-9H264.69l-1.35,1.59A48.75,48.75,0,0,0,256,234.77h0A48,48,0,0,0,263.23,285C263.36,285.1,263.48,285.25,263.61,285.39ZM221.76,181.94V418.05H378.23V181.94ZM369,408.83H231V191.17H369ZM263.61,374.1l1.34,1.53H335l1.34-1.53.37-.44a49,49,0,0,0,3.73-5.05,48.05,48.05,0,0,0-3.73-56.9L335.28,310H264.69l-1.35,1.59a48.08,48.08,0,0,0-.11,62.06ZM331.08,319a39.12,39.12,0,0,1-.2,47.68H269.11a39.08,39.08,0,0,1-.19-47.68Zm-67.47-33.58,1.34,1.53H333v-9h-63.9a39.1,39.1,0,0,1-.19-47.68h64.31v-9H264.69l-1.35,1.59A48.75,48.75,0,0,0,256,234.77h0A48,48,0,0,0,263.23,285C263.36,285.1,263.48,285.25,263.61,285.39Z"/><path class="cls-1" d="M221.76,181.94V418.05H378.23V181.94ZM369,408.83H231V191.17H369Z"/></svg>