<?xml version="1.0" encoding="utf-8"?>
<!-- Generator: Adobe Illustrator 22.0.1, SVG Export Plug-In . SVG Version: 6.00 Build 0)  -->
<svg version="1.1" id="Layer_1" xmlns="http://www.w3.org/2000/svg" xmlns:xlink="http://www.w3.org/1999/xlink" x="0px" y="0px"
	 viewBox="0 0 1543.3 981" style="enable-background:new 0 0 1543.3 981;" xml:space="preserve">
<style type="text/css">
	.st0{fill:#406EFF;}
	.st1{fill:#FFFFFF;stroke:#000000;stroke-width:35;stroke-miterlimit:10;}
	.st2{fill:none;}
</style>
<polygon class="st0" points="573.2,882 573.2,882 100.8,882 100.8,134.1 "/>
<g>
	<g>
		<path class="st1" d="M507,657c0,41.7-15,80-40,109.5c-0.4,0.5-0.8,1-1.2,1.5H208.3c-0.4-0.5-0.8-1-1.2-1.5
			c-25-29.6-40-67.8-40-109.5s15.4-80.4,40.4-110l0,0h259.2c0.1,0.1,0.3,0.3,0.4,0.5C492,577,507,615.3,507,657z"/>
		<path class="st1" d="M465.8,422H208.3c-0.4-0.5-0.8-1-1.2-1.5c-25-29.6-40-67.8-40-109.5s15.4-80.4,40.4-110l0,0h259.2"/>
	</g>
</g>
<path class="st2" d="M31.8,30v921h610.3V30H31.8z"/>
<path d="M31.8,30v921h610.3V30H31.8z M606.2,915H67.8V66h538.3V915z"/>
<g>
	<path d="M758.8,420.9c0-6.5,1-12.6,3.1-18.3c2-5.7,5.2-10.7,9.4-15c4.2-4.3,9.5-7.6,15.9-10.1c6.4-2.5,14.1-3.7,23-3.7
		c5.3,0,10.2,0.4,14.5,1.1c4.3,0.8,8.7,2,13.2,3.8l-5.2,18.9c-2.5-0.9-5.4-1.7-8.5-2.4c-3.1-0.7-7.1-1-11.9-1c-5.6,0-10.3,0.7-14,2
		c-3.8,1.3-6.8,3.2-9.1,5.5c-2.3,2.4-3.9,5.2-5,8.5c-1,3.3-1.5,6.9-1.5,10.7c0,8.3,2.3,14.8,7,19.5c4.6,4.7,12.6,7.1,23.8,7.1
		c3.7,0,7.5-0.3,11.5-0.8c4-0.5,7.7-1.3,11-2.5l3.4,19.3c-3.3,1.3-7.3,2.3-12,3.2c-4.7,0.8-10.2,1.2-16.6,1.2
		c-9.2,0-17-1.2-23.6-3.6c-6.6-2.4-11.9-5.7-16.1-9.9c-4.2-4.2-7.3-9.2-9.3-14.9C759.8,433.7,758.8,427.5,758.8,420.9z"/>
	<path d="M929.3,399.9c-1.5-0.4-3.3-0.8-5.4-1.1c-2.1-0.4-4.2-0.7-6.4-1.1c-2.2-0.3-4.3-0.5-6.3-0.7c-2-0.1-3.8-0.2-5.2-0.2
		c-3.3,0-6.6,0.2-9.7,0.5c-3.2,0.3-6.4,0.9-9.7,1.8v66.6h-23.7V382c6.2-2.3,12.6-4.1,19.2-5.5c6.6-1.4,14.2-2.1,23-2.1
		c1.3,0,3.1,0.1,5.4,0.2c2.4,0.1,4.9,0.4,7.5,0.7c2.7,0.3,5.4,0.7,8.1,1.1c2.7,0.4,5.2,1,7.3,1.8L929.3,399.9z"/>
	<path d="M947.2,421.7c0-7.9,1.2-14.8,3.6-20.8c2.4-6,5.6-11,9.5-15c3.9-4,8.5-7,13.6-9.1c5.1-2,10.3-3.1,15.7-3.1
		c13.2,0,23.3,3.9,30.2,11.7c6.9,7.8,10.3,19.2,10.3,34.3c0,1.5,0,3.1-0.1,4.8c-0.1,1.7-0.2,3-0.3,4h-58.2c0,5.9,2.4,10.5,7.3,13.8
		c4.8,3.4,11.1,5.1,18.7,5.1c4.7,0,9.2-0.5,13.5-1.5c4.3-1,7.9-2,10.8-3.1l3.2,20c-4.1,1.4-8.4,2.6-13,3.5s-9.7,1.4-15.5,1.4
		c-7.6,0-14.5-1-20.5-3c-6-2-11.2-4.9-15.5-8.8c-4.3-3.9-7.5-8.7-9.8-14.4C948.4,436,947.2,429.3,947.2,421.7z M1007.3,412.3
		c0-2.4-0.3-4.7-1-7c-0.6-2.2-1.7-4.2-3.1-6c-1.4-1.8-3.2-3.2-5.3-4.3c-2.2-1.1-4.8-1.6-8-1.6c-3.1,0-5.7,0.5-7.9,1.5
		c-2.2,1-4.1,2.4-5.5,4.2c-1.5,1.8-2.6,3.8-3.4,6.1c-0.8,2.3-1.4,4.6-1.6,7.1H1007.3z"/>
	<path d="M1082.6,373.8c7.4,0,13.5,0.9,18.4,2.6c4.9,1.7,8.8,4.1,11.7,7.3c2.9,3.1,5,6.9,6.3,11.5c1.3,4.5,1.9,9.6,1.9,15.2v53.4
		c-3.4,0.8-8.5,1.7-15.3,2.7c-6.7,1-14.3,1.5-22.7,1.5c-5.7,0-10.9-0.5-15.6-1.5c-4.6-1-8.6-2.7-11.9-5.1c-3.3-2.4-5.9-5.4-7.6-9.2
		c-1.8-3.8-2.7-8.4-2.7-13.8c0-5.2,1-9.6,3.1-13.2c2-3.6,4.8-6.4,8.2-8.6c3.4-2.2,7.4-3.7,11.8-4.7c4.5-1,9.1-1.4,13.9-1.4
		c6.1,0,11.5,0.5,16.2,1.5v-2.9c0-4.5-1.4-8.2-4.2-11.2c-2.8-3-7.6-4.5-14.5-4.5c-4.5,0-8.8,0.3-12.9,1c-4.1,0.6-7.5,1.4-10,2.3
		l-3.2-18.9c2.9-1,7.1-1.9,12.4-2.8C1071.3,374.2,1076.8,373.8,1082.6,373.8z M1084.7,449c2.5,0,5,0,7.4-0.1
		c2.4-0.1,4.5-0.2,6.3-0.5v-20.6c-1.5-0.3-3.4-0.5-5.5-0.7c-2.2-0.2-4.1-0.3-5.9-0.3c-2.4,0-4.8,0.2-7.1,0.5c-2.3,0.3-4.3,0.9-6,1.6
		c-1.7,0.8-3.1,1.8-4.1,3.2c-1,1.4-1.5,3.2-1.5,5.5c0,4.1,1.5,7,4.6,8.7C1075.9,448.1,1079.8,449,1084.7,449z"/>
	<path d="M1159.5,395.5h-20.4v-19.5h20.4v-22.5l23.5-3.8v26.3h37.6v19.5H1183v36.3c0,3.3,0.3,6,1,8c0.6,2,1.5,3.6,2.7,4.8
		c1.1,1.1,2.5,1.9,4.2,2.3c1.7,0.4,3.5,0.6,5.5,0.6c2.2,0,4.2-0.1,6-0.2c1.8-0.1,3.6-0.3,5.3-0.7c1.7-0.3,3.5-0.8,5.3-1.4
		c1.8-0.6,3.8-1.5,6-2.5l3.2,20.2c-4.3,1.8-9,3.1-14,3.8c-5,0.8-9.9,1.1-14.6,1.1c-5.5,0-10.3-0.4-14.5-1.3
		c-4.2-0.9-7.8-2.6-10.7-5.2c-2.9-2.5-5.2-6.1-6.7-10.8c-1.5-4.6-2.3-10.7-2.3-18.2V395.5z"/>
	<path d="M1316.8,462c-4.8,2.3-9.4,3.8-13.6,4.7c-4.3,0.8-8.2,1.2-11.7,1.2c-6.1,0-11.2-0.9-15.4-2.7c-4.1-1.8-7.4-4.4-9.9-7.7
		c-2.5-3.4-4.2-7.5-5.2-12.3c-1-4.8-1.5-10.4-1.5-16.6v-33h-24.8v-19.5h48.3v55.5c0,5.3,1,9.3,3,11.9c2,2.6,5.2,3.9,9.8,3.9
		c2.2,0,4.8-0.3,7.8-0.9c3.1-0.6,6.5-1.7,10.3-3.5L1316.8,462z M1281.8,350.3c0,4.6-1.5,8.2-4.4,10.9c-2.9,2.7-6.4,4-10.5,4
		c-4.1,0-7.5-1.3-10.4-4c-2.9-2.7-4.3-6.3-4.3-10.9c0-4.7,1.4-8.4,4.3-11.1c2.9-2.7,6.3-4,10.4-4c4.1,0,7.6,1.3,10.5,4
		C1280.4,341.9,1281.8,345.6,1281.8,350.3z"/>
	<path d="M1360.1,465.8c-5.7-11.3-11.5-24.6-17.5-39.8c-5.9-15.2-11.5-31.8-16.9-49.9h24.6c1.1,4.8,2.5,10,4.1,15.5
		c1.6,5.5,3.3,11,5.1,16.5c1.8,5.5,3.6,10.9,5.4,16.1c1.8,5.2,3.6,10,5.2,14.3c1.7-4.3,3.5-9.1,5.5-14.3c2-5.2,4-10.6,6-16.1
		c2-5.5,3.9-11,5.7-16.5c1.8-5.5,3.3-10.6,4.5-15.5h23.9c-5.3,18.1-11.3,34.7-17.8,49.9c-6.5,15.2-12.6,28.5-18.3,39.8H1360.1z"/>
	<path d="M1424.4,421.7c0-7.9,1.2-14.8,3.6-20.8c2.4-6,5.6-11,9.5-15c3.9-4,8.5-7,13.6-9.1c5.1-2,10.3-3.1,15.7-3.1
		c13.2,0,23.3,3.9,30.2,11.7c6.9,7.8,10.3,19.2,10.3,34.3c0,1.5,0,3.1-0.1,4.8c-0.1,1.7-0.2,3-0.3,4h-58.2c0,5.9,2.4,10.5,7.3,13.8
		c4.8,3.4,11.1,5.1,18.7,5.1c4.7,0,9.2-0.5,13.5-1.5c4.3-1,7.9-2,10.8-3.1l3.2,20c-4.1,1.4-8.4,2.6-13,3.5c-4.6,1-9.7,1.4-15.5,1.4
		c-7.6,0-14.5-1-20.5-3c-6-2-11.2-4.9-15.5-8.8c-4.3-3.9-7.5-8.7-9.8-14.4C1425.6,436,1424.4,429.3,1424.4,421.7z M1484.6,412.3
		c0-2.4-0.3-4.7-1-7c-0.6-2.2-1.7-4.2-3.1-6c-1.4-1.8-3.2-3.2-5.3-4.3c-2.2-1.1-4.8-1.6-8-1.6c-3.1,0-5.7,0.5-7.9,1.5
		c-2.2,1-4.1,2.4-5.5,4.2c-1.5,1.8-2.6,3.8-3.4,6.1c-0.8,2.3-1.4,4.6-1.6,7.1H1484.6z"/>
	<path d="M840.5,598.3c0,7.1-1,13.6-3.1,19.4c-2,5.8-4.9,10.8-8.6,15c-3.7,4.2-8.1,7.4-13.3,9.7c-5.2,2.3-10.9,3.4-17.3,3.4
		c-6.4,0-12.1-1.1-17.3-3.4c-5.2-2.3-9.6-5.5-13.4-9.7c-3.8-4.2-6.7-9.2-8.7-15c-2-5.8-3.1-12.2-3.1-19.4c0-7,1.1-13.4,3.1-19.2
		c2.1-5.8,5-10.8,8.8-14.9c3.8-4.1,8.2-7.3,13.5-9.5c5.2-2.2,10.9-3.3,17-3.3c6.2,0,11.9,1.1,17.1,3.3c5.2,2.2,9.6,5.4,13.4,9.5
		c3.8,4.1,6.6,9.1,8.7,14.9C839.5,584.9,840.5,591.3,840.5,598.3z M779.8,598.4c0,8,1.4,14.5,4.3,19.5c2.9,5,7.5,7.4,13.8,7.4
		c6.1,0,10.7-2.5,13.8-7.4c3.1-5,4.7-11.5,4.7-19.5c0-8-1.4-14.5-4.3-19.4c-2.9-4.9-7.5-7.3-13.8-7.3c-6.1,0-10.7,2.4-13.8,7.3
		C781.4,584,779.8,590.4,779.8,598.4z"/>
	<path d="M929.5,640.3c-4.3,1.1-9.6,2.3-15.7,3.4c-6.2,1.1-12.9,1.7-20.1,1.7c-7.4,0-13.4-1-18.1-3.1c-4.7-2-8.4-4.9-11.2-8.7
		c-2.7-3.8-4.6-8.2-5.6-13.3c-1-5.1-1.5-10.7-1.5-16.8v-50h23.5v47c0,8.3,1,14.4,3,18.4c2,4,5.8,6,11.5,6c3.6,0,7.1-0.3,10.7-1
		v-70.4h23.7V640.3z"/>
	<path d="M968.6,573.1h-20.4v-19.5h20.4v-22.5l23.5-3.8v26.3h37.6v19.5h-37.6v36.3c0,3.3,0.3,6,1,8c0.6,2,1.5,3.6,2.7,4.8
		c1.1,1.1,2.5,1.9,4.2,2.3c1.7,0.4,3.5,0.6,5.5,0.6c2.2,0,4.2-0.1,6-0.2c1.8-0.1,3.6-0.3,5.3-0.7c1.7-0.3,3.5-0.8,5.3-1.4
		c1.8-0.6,3.8-1.5,6-2.5l3.2,20.2c-4.3,1.8-9,3.1-14,3.8c-5,0.8-9.9,1.1-14.6,1.1c-5.5,0-10.3-0.4-14.5-1.3
		c-4.2-0.9-7.8-2.6-10.7-5.2c-2.9-2.5-5.2-6.1-6.7-10.8c-1.5-4.6-2.3-10.7-2.3-18.2V573.1z"/>
	<path d="M1125.9,639.5c-0.4,0.3-1.2,0.7-2.6,1.3c-1.3,0.6-3.1,1.3-5.2,2c-2.2,0.7-4.8,1.3-7.9,1.8c-3.1,0.5-6.7,0.8-10.6,0.8
		c-10.8,0-18.7-3.2-23.7-9.6c-5-6.4-7.4-15.8-7.4-28.2v-76.2h-24.8V512h48.3v97.4c0,6.1,1.2,10.2,3.6,12.4c2.4,2.2,5.5,3.2,9.2,3.2
		c4.7,0,8.7-0.6,11.8-1.9c3.2-1.3,5.3-2.1,6.3-2.5L1125.9,639.5z"/>
	<path d="M1138.1,599.2c0-7.9,1.2-14.8,3.6-20.8c2.4-6,5.6-11,9.5-15c3.9-4,8.5-7,13.6-9.1c5.1-2,10.3-3.1,15.7-3.1
		c13.2,0,23.3,3.9,30.2,11.7c6.9,7.8,10.3,19.2,10.3,34.3c0,1.5,0,3.1-0.1,4.8c-0.1,1.7-0.2,3-0.3,4h-58.2c0,5.9,2.4,10.5,7.3,13.8
		c4.8,3.4,11.1,5.1,18.7,5.1c4.7,0,9.2-0.5,13.5-1.5c4.3-1,7.9-2,10.8-3.1l3.2,20c-4.1,1.4-8.4,2.6-13,3.5c-4.6,1-9.7,1.4-15.5,1.4
		c-7.6,0-14.5-1-20.5-3c-6-2-11.2-4.9-15.5-8.8c-4.3-3.9-7.5-8.7-9.8-14.4C1139.3,613.5,1138.1,606.8,1138.1,599.2z M1198.2,589.9
		c0-2.4-0.3-4.7-1-7c-0.6-2.2-1.7-4.2-3.1-6c-1.4-1.8-3.2-3.2-5.3-4.3c-2.2-1.1-4.8-1.6-8-1.6c-3.1,0-5.7,0.5-7.9,1.5
		c-2.2,1-4.1,2.4-5.5,4.2c-1.5,1.8-2.6,3.8-3.4,6.1c-0.8,2.3-1.4,4.6-1.6,7.1H1198.2z"/>
	<path d="M1254.9,573.1h-20.4v-19.5h20.4v-22.5l23.5-3.8v26.3h37.6v19.5h-37.6v36.3c0,3.3,0.3,6,1,8c0.6,2,1.5,3.6,2.7,4.8
		c1.1,1.1,2.5,1.9,4.2,2.3c1.7,0.4,3.5,0.6,5.5,0.6c2.2,0,4.2-0.1,6-0.2c1.8-0.1,3.6-0.3,5.3-0.7c1.7-0.3,3.5-0.8,5.3-1.4
		c1.8-0.6,3.8-1.5,6-2.5l3.2,20.2c-4.3,1.8-9,3.1-14,3.8c-5,0.8-9.9,1.1-14.6,1.1c-5.5,0-10.3-0.4-14.5-1.3
		c-4.2-0.9-7.8-2.6-10.7-5.2c-2.9-2.5-5.2-6.1-6.7-10.8c-1.5-4.6-2.3-10.7-2.3-18.2V573.1z"/>
</g>
</svg>
