<?xml version="1.0" encoding="utf-8"?>
<!-- Generator: Adobe Illustrator 22.0.1, SVG Export Plug-In . SVG Version: 6.00 Build 0)  -->
<svg version="1.1" id="Layer_1" xmlns="http://www.w3.org/2000/svg" xmlns:xlink="http://www.w3.org/1999/xlink" x="0px" y="0px"
	 viewBox="0 0 600 600" style="enable-background:new 0 0 600 600;" xml:space="preserve">
<title>dsp</title>
<path d="M150.7,353.1l46.5-106.2h2.6l43.9,106.2H150.7z M225.5,346.6l-31-76.2L161,346.6H225.5z M250.1,249.3H328l2.1,26.1h-2.9
	c-0.4-5.2-1.2-9.1-2.6-11.8c-1.2-2.5-3.2-4.6-5.7-5.9c-2.4-1.2-6.2-1.8-11.4-1.8H272l31.6,40.6l-36,42.5H307
	c7.2,0,12.6-1.2,16.4-3.5c3.8-2.3,6.6-7.1,8.6-14.4l2.9,0.7l-4.4,31.4h-80.3v-2.8l40-47.1l-40-51.1L250.1,249.3z M419.6,255h-48.1
	v79.2c0,6.8,0.9,11.2,2.6,13s5.9,2.8,12.4,3.1v2.8h-44.7v-2.8c6.4-0.2,10.5-1.2,12.3-3.1c1.8-1.8,2.7-6.2,2.7-13v-66
	c0-6.8-0.9-11.2-2.7-13c-1.8-1.8-5.9-2.8-12.3-3.1v-2.8h107.6v2.8c-6.4,0.2-10.5,1.2-12.3,3.1c-1.8,1.8-2.7,6.2-2.7,13v66
	c0,6.8,0.9,11.2,2.7,13s5.9,2.8,12.3,3.1v2.8h-44.6v-2.8c6.4-0.2,10.5-1.2,12.3-3c1.8-1.8,2.7-6.1,2.7-13V255z"/>
</svg>
