<svg id="Layer_1" data-name="Layer 1" xmlns="http://www.w3.org/2000/svg" viewBox="0 0 600 600"><defs><style>.cls-1{fill:#fff;}</style></defs><title>dsp</title><path class="cls-1" d="M150.69,353.09l46.54-106.18h2.6l43.94,106.18Zm74.79-6.51-31-76.24L161,346.58Zm24.65-97.29H328l2.07,26.1h-2.91q-.54-7.74-2.61-11.83a12.85,12.85,0,0,0-5.66-5.93q-3.6-1.85-11.41-1.84H272l31.62,40.57-36,42.49h39.42q10.73,0,16.38-3.45T332,321l2.91.69-4.44,31.39h-80.3v-2.76l40-47.15-40-51.14ZM419.61,255H371.46v79.23q0,10.26,2.64,13t12.36,3.07v2.83h-44.7v-2.83q9.64-.31,12.32-3.07t2.68-13v-66q0-10.26-2.68-13t-12.32-3.06v-2.83H449.31v2.83q-9.65.3-12.32,3.06t-2.68,13v66q0,10.26,2.68,13t12.32,3.07v2.83H404.68v-2.83q9.57-.31,12.25-3t2.68-13.05Z"/></svg>