<?xml version="1.0" encoding="utf-8"?>
<!-- Generator: Adobe Illustrator 22.0.1, SVG Export Plug-In . SVG Version: 6.00 Build 0)  -->
<svg version="1.1" id="Layer_1" xmlns="http://www.w3.org/2000/svg" xmlns:xlink="http://www.w3.org/1999/xlink" x="0px" y="0px"
	 viewBox="0 0 805 805" style="enable-background:new 0 0 805 805;" xml:space="preserve">
<style type="text/css">
	.st0{fill:#4156A6;}
	.st1{fill:#2474AE;}
	.st2{fill:#FFFFFF;}
	.st3{fill:#13263D;}
	.st4{fill:#FCFDFD;}
	.st5{fill:#FEC324;}
	.st6{fill:#FE8024;}
	.st7{fill:#132249;}
	.st8{fill:#C60000;}
	.st9{fill:#8187BC;}
	.st10{fill:#8186BB;}
	.st11{fill:#F5F5F5;}
	.st12{fill:#F8E391;}
	.st13{fill:#4BBCFB;}
	.st14{fill:#FB7DDE;}
	.st15{fill:#F8E392;}
	.st16{fill:#D7D793;}
	.st17{fill:#F4F5F4;}
	.st18{fill:#D971E1;}
	.st19{fill:#FBCA90;}
	.st20{fill:#EDD7B1;}
	.st21{fill:#8D8873;}
	.st22{fill:#F59ABC;}
	.st23{fill:#042742;}
	.st24{fill:#0C74C1;}
</style>
<rect width="805" height="805"/>
<g>
	<g>
		<path class="st2" d="M272.6,333.6h-3.4l-60.4,137.7h120.7L272.6,333.6z M265.6,364l40.2,98.9h-83.7L265.6,364z M443.9,429.7
			c-2.5,9.5-6.1,15.7-11,18.7c-4.9,3-12,4.5-21.2,4.5h-51.1l46.7-55.1l-41-52.6h46c6.8,0,11.7,0.8,14.8,2.4c3.1,1.6,5.6,4.2,7.3,7.7
			c1.8,3.5,2.9,8.7,3.4,15.3h3.8l-2.7-33.9h-101v3.6l51.8,66.3l-51.8,61.2v3.6H442l5.8-40.7L443.9,429.7z M580.1,344.4
			c2.3-2.4,7.6-3.7,16-4v-3.7H456.6v3.7c8.3,0.3,13.7,1.6,16,4c2.3,2.4,3.5,8,3.5,16.9v85.6c0,8.9-1.2,14.5-3.5,16.9
			c-2.3,2.4-7.6,3.7-16,4v3.7h58v-3.7c-8.4-0.3-13.8-1.6-16-4c-2.3-2.4-3.4-8-3.4-16.9V344.1h62.4v102.8c0,8.9-1.2,14.6-3.5,16.9
			c-2.3,2.3-7.6,3.7-15.9,3.9v3.7h57.9v-3.7c-8.3-0.3-13.7-1.6-16-4c-2.3-2.4-3.5-8-3.5-16.9v-85.6
			C576.7,352.4,577.8,346.7,580.1,344.4z"/>
	</g>
</g>
</svg>
