<svg id="Layer_1" data-name="Layer 1" xmlns="http://www.w3.org/2000/svg" viewBox="0 0 1200 600"><defs><style>.cls-1{fill:#fff;}</style></defs><title>dve_1</title><path class="cls-1" d="M223.94,241l-2.29,22,7.3.07-7.3,73.81H206.59L210.27,300h7.61l2.29-22.28H183L175,359h73.88L260.54,241Z"/><path class="cls-1" d="M264.75,277.57l-8.12,81.25,29.29.08,6.06-59h14.69l-1.48,14.84h29.6l3.77-37.12Z"/><path class="cls-1" d="M407.41,329.52,418,300l2.21-22.21H346.45l-8.05,81,73.59.08,2.29-22.22H370l3.7-36.83h14.83L378,329.45Z"/><path class="cls-1" d="M428.23,277.79l-8.06,81h29.38L466.09,344l-1.7,14.91h29.37l8.2-81.11Zm38.52,59-15-.08,3.7-36.83h14.83Z"/><path class="cls-1" d="M510.15,277.79l-8,81,29.23.08,5.82-59h14.91L546.17,359l29.3-.07,6-59h14.84L590.38,359H619.9L628,277.79Z"/><path class="cls-1" d="M683.66,277.79l-15.2,42.36-7.08-42.29-29.3.07,14.09,81h29.31l30.18-81Z"/><path class="cls-1" d="M709.64,277.79,701.45,359l29.45-.15,8.19-81Z"/><path class="cls-1" d="M818.5,299.93l2.29-22.36H747l-5.17,51.73,44.06.15-.74,7.46H741.08l-2.15,21.91,73.59.08,5.17-51.59H773.33l.89-7.46Z"/><path class="cls-1" d="M828.83,277.79,820.64,359l29.45-.15,8.19-81Z"/><path class="cls-1" d="M866.18,277.79l-8,81,73.44.08,8.2-81.11Zm38.3,59-14.76-.08,3.69-36.83H908.1Z"/><path class="cls-1" d="M947.73,277.79l-8,81,29.23.08,5.82-59h14.91L983.75,359l29.45-.07,8.12-81.11Z"/><polygon class="cls-1" points="268.4 241.03 266.2 263.03 1022.8 263.03 1025 241.03 268.4 241.03"/></svg>