<svg id="Layer_1" data-name="Layer 1" xmlns="http://www.w3.org/2000/svg" viewBox="0 0 600 600"><defs><style>.cls-1,.cls-2,.cls-3{fill:#fff;}.cls-2{font-size:29.72px;}.cls-2,.cls-3{font-family:Cocon-Regular, Cocon;}.cls-3{font-size:24.35px;}</style></defs><title>kels</title><path class="cls-1" d="M272.25,317c-.23-5.33-4.07-10.78-8.63-12.23-3.3-1.06-7.45.75-8.45,3.67,6.09-2,6.72-2,8.37-.61-1.88.67-2.78,1.72-2.73,3.28a2.62,2.62,0,0,0,1.8,2.59c2.26.82,3.42-.53,4.22-2.55,2.3,4.5,1.27,9.46-2.17,11.31-3.77,2-8.84-.11-11.55-5.12a11.63,11.63,0,0,0,9.35,10,7.38,7.38,0,0,0,8.84-4.54A12.46,12.46,0,0,0,272.25,317Zm14.81,14.58a1.34,1.34,0,0,0-1.48,1.48,1.32,1.32,0,0,0,1.35,1.45c1,.06,1.37-.63,1.52-1.45A1.39,1.39,0,0,0,287.06,331.55Zm2.63-8.14c-1-.05-1.42.62-1.46,1.5a1.25,1.25,0,0,0,1.35,1.41c1,0,1.36-.64,1.52-1.54A1.41,1.41,0,0,0,289.69,323.41Zm4.66,6.33a1.4,1.4,0,0,0-1.3,1.63,1.28,1.28,0,0,0,1.49,1.27,1.38,1.38,0,0,0,1.35-1.61C295.85,330.16,295.24,329.77,294.35,329.74Zm3.7-6.25a1.41,1.41,0,0,0-1.43,1.57,1.36,1.36,0,0,0,1.45,1.39c1,0,1.33-.72,1.42-1.55C299.4,324,298.92,323.45,298.05,323.49Zm3.8,8.15a1.33,1.33,0,0,0-1.47,1.29,1.43,1.43,0,1,0,2.84.13A1.25,1.25,0,0,0,301.85,331.64Zm5-35.5h0v0ZM316,320.33a1.4,1.4,0,0,0-1.4,1.59,1.31,1.31,0,0,0,1.46,1.35c.94,0,1.35-.69,1.41-1.75A1.35,1.35,0,0,0,316,320.33Zm4-7.21a1.44,1.44,0,0,0-1.45,1.58,1.28,1.28,0,0,0,1.45,1.35,1.31,1.31,0,0,0,1.35-1.45A1.37,1.37,0,0,0,320,313.12Zm1,13.1a1.31,1.31,0,0,0-1.4,1.53,1.27,1.27,0,0,0,1.41,1.36c1,0,1.34-.68,1.47-1.61A1.38,1.38,0,0,0,321,326.22Zm2.08-7.87a1.4,1.4,0,0,0-1.49,1.51c0,.9.51,1.34,1.4,1.45a1.41,1.41,0,0,0,1.45-1.5A1.32,1.32,0,0,0,323.09,318.35Zm4.9-40.18v0h0v0Zm1.85,44a1.36,1.36,0,0,0-1.52,1.44,1.26,1.26,0,0,0,1.3,1.46c1,.06,1.41-.54,1.57-1.42A1.41,1.41,0,0,0,329.84,322.14Zm.89-7.66a1.36,1.36,0,0,0-1.51,1.46,1.29,1.29,0,0,0,1.31,1.46c1,.06,1.4-.59,1.57-1.45A1.41,1.41,0,0,0,330.73,314.48ZM314.84,303.1a3,3,0,0,1-1.95-.49,12.53,12.53,0,0,0-6.05-2.35c-1.2-.34-2.45.11-3.65-.27l-.33-.09a3.46,3.46,0,0,0-3.28.92l-.42.48c-4.3,2.06-7.47,5.1-8.44,10-.14.72-.73.87-1.24,1.13a27.45,27.45,0,0,0-14.2,17.87,14.49,14.49,0,0,0-.47,5.9,8.8,8.8,0,0,0,.67-1.74c2.5-8,7-14.3,14.76-18a1.5,1.5,0,0,1,2.17.39A6.32,6.32,0,0,0,296,319a1.86,1.86,0,0,0,2.21-1.13c.5-1,0-1.47-.69-2a7.51,7.51,0,0,1-1.5-1.42c-.53-.73-1-1.58-.29-2.48s1.55-.52,2.36-.22c3,1.1,3.31,3.59,3.29,6.28,0,2.28.36,2.82,2.41,3.53.63.22,1.42.65,2,.18s.09-1.21,0-1.81a30.67,30.67,0,0,1-1-5.24c.92,1.38,1.68,2.83,2.54,4.22,1.34,2.18,1.73,2.18,3.43.25l.3-.38c.67-.82.94-1.54,0-2.46a9.85,9.85,0,0,1-2.23-3.48,5.76,5.76,0,0,1-.62-3.26,2,2,0,0,1,2.28-1.78c1.2.1,1.31,1.07,1.26,2s-.15,1.82-.16,2.72.15,1.68,1.14,1.88,1.54-.56,1.84-1.39a9.85,9.85,0,0,0,.6-4.88c-.22-1.51.39-1.61,1.63-1.56a46.3,46.3,0,0,1,13.4,2.91c3.25,1.14,6.33,2.66,9.5,4C332.41,307.63,324.45,303.39,314.84,303.1Zm29.62-22.73a3,3,0,0,0-3,3.07,2.89,2.89,0,0,0,2.92,3,3,3,0,0,0,2.9-3A2.83,2.83,0,0,0,344.46,280.37Zm5.13,3.42c1,4.29.69,7.6-.76,10.44-1.69,3.3-4.5,4.45-8,3.3-4.85-1.59-8-7.82-6.86-13.4.89-4.24,3.48-6.34,7.78-6.33h2.18a8.56,8.56,0,0,0-12,2.63,14.59,14.59,0,0,0-2,9.85,12.65,12.65,0,0,0,13,11.33,8.62,8.62,0,0,0,6.3-2.68C352.83,295.22,353.09,288.4,349.59,283.79Zm0,0c1,4.29.69,7.6-.76,10.44-1.69,3.3-4.5,4.45-8,3.3-4.85-1.59-8-7.82-6.86-13.4.89-4.24,3.48-6.34,7.78-6.33h2.18a8.56,8.56,0,0,0-12,2.63,14.59,14.59,0,0,0-2,9.85,12.65,12.65,0,0,0,13,11.33,8.62,8.62,0,0,0,6.3-2.68C352.83,295.22,353.09,288.4,349.59,283.79Zm-5.13-3.42a3,3,0,0,0-3,3.07,2.89,2.89,0,0,0,2.92,3,3,3,0,0,0,2.9-3A2.83,2.83,0,0,0,344.46,280.37ZM314.84,303.1a3,3,0,0,1-1.95-.49,12.53,12.53,0,0,0-6.05-2.35c-1.2-.34-2.45.11-3.65-.27l-.33-.09a3.46,3.46,0,0,0-3.28.92l-.42.48c-4.3,2.06-7.47,5.1-8.44,10-.14.72-.73.87-1.24,1.13a27.45,27.45,0,0,0-14.2,17.87,14.49,14.49,0,0,0-.47,5.9,8.8,8.8,0,0,0,.67-1.74c2.5-8,7-14.3,14.76-18a1.5,1.5,0,0,1,2.17.39A6.32,6.32,0,0,0,296,319a1.86,1.86,0,0,0,2.21-1.13c.5-1,0-1.47-.69-2a7.51,7.51,0,0,1-1.5-1.42c-.53-.73-1-1.58-.29-2.48s1.55-.52,2.36-.22c3,1.1,3.31,3.59,3.29,6.28,0,2.28.36,2.82,2.41,3.53.63.22,1.42.65,2,.18s.09-1.21,0-1.81a30.67,30.67,0,0,1-1-5.24c.92,1.38,1.68,2.83,2.54,4.22,1.34,2.18,1.73,2.18,3.43.25l.3-.38c.67-.82.94-1.54,0-2.46a9.85,9.85,0,0,1-2.23-3.48,5.76,5.76,0,0,1-.62-3.26,2,2,0,0,1,2.28-1.78c1.2.1,1.31,1.07,1.26,2s-.15,1.82-.16,2.72.15,1.68,1.14,1.88,1.54-.56,1.84-1.39a9.85,9.85,0,0,0,.6-4.88c-.22-1.51.39-1.61,1.63-1.56a46.3,46.3,0,0,1,13.4,2.91c3.25,1.14,6.33,2.66,9.5,4C332.41,307.63,324.45,303.39,314.84,303.1Zm15.89,11.38a1.36,1.36,0,0,0-1.51,1.46,1.29,1.29,0,0,0,1.31,1.46c1,.06,1.4-.59,1.57-1.45A1.41,1.41,0,0,0,330.73,314.48Zm-.89,7.66a1.36,1.36,0,0,0-1.52,1.44,1.26,1.26,0,0,0,1.3,1.46c1,.06,1.41-.54,1.57-1.42A1.41,1.41,0,0,0,329.84,322.14Zm-1.85-44v0h0v0Zm-4.9,40.18a1.4,1.4,0,0,0-1.49,1.51c0,.9.51,1.34,1.4,1.45a1.41,1.41,0,0,0,1.45-1.5A1.32,1.32,0,0,0,323.09,318.35ZM321,326.22a1.31,1.31,0,0,0-1.4,1.53,1.27,1.27,0,0,0,1.41,1.36c1,0,1.34-.68,1.47-1.61A1.38,1.38,0,0,0,321,326.22Zm-1-13.1a1.44,1.44,0,0,0-1.45,1.58,1.28,1.28,0,0,0,1.45,1.35,1.31,1.31,0,0,0,1.35-1.45A1.37,1.37,0,0,0,320,313.12Zm-4,7.21a1.4,1.4,0,0,0-1.4,1.59,1.31,1.31,0,0,0,1.46,1.35c.94,0,1.35-.69,1.41-1.75A1.35,1.35,0,0,0,316,320.33Zm-9.18-24.19h0v0Zm-5,35.5a1.33,1.33,0,0,0-1.47,1.29,1.43,1.43,0,1,0,2.84.13A1.25,1.25,0,0,0,301.85,331.64Zm-3.8-8.15a1.41,1.41,0,0,0-1.43,1.57,1.36,1.36,0,0,0,1.45,1.39c1,0,1.33-.72,1.42-1.55C299.4,324,298.92,323.45,298.05,323.49Zm-3.7,6.25a1.4,1.4,0,0,0-1.3,1.63,1.28,1.28,0,0,0,1.49,1.27,1.38,1.38,0,0,0,1.35-1.61C295.85,330.16,295.24,329.77,294.35,329.74Zm-4.66-6.33c-1-.05-1.42.62-1.46,1.5a1.25,1.25,0,0,0,1.35,1.41c1,0,1.36-.64,1.52-1.54A1.41,1.41,0,0,0,289.69,323.41Zm-2.63,8.14a1.34,1.34,0,0,0-1.48,1.48,1.32,1.32,0,0,0,1.35,1.45c1,.06,1.37-.63,1.52-1.45A1.39,1.39,0,0,0,287.06,331.55ZM272.25,317c-.23-5.33-4.07-10.78-8.63-12.23-3.3-1.06-7.45.75-8.45,3.67,6.09-2,6.72-2,8.37-.61-1.88.67-2.78,1.72-2.73,3.28a2.62,2.62,0,0,0,1.8,2.59c2.26.82,3.42-.53,4.22-2.55,2.3,4.5,1.27,9.46-2.17,11.31-3.77,2-8.84-.11-11.55-5.12a11.63,11.63,0,0,0,9.35,10,7.38,7.38,0,0,0,8.84-4.54A12.46,12.46,0,0,0,272.25,317Zm0,0c-.23-5.33-4.07-10.78-8.63-12.23-3.3-1.06-7.45.75-8.45,3.67,6.09-2,6.72-2,8.37-.61-1.88.67-2.78,1.72-2.73,3.28a2.62,2.62,0,0,0,1.8,2.59c2.26.82,3.42-.53,4.22-2.55,2.3,4.5,1.27,9.46-2.17,11.31-3.77,2-8.84-.11-11.55-5.12a11.63,11.63,0,0,0,9.35,10,7.38,7.38,0,0,0,8.84-4.54A12.46,12.46,0,0,0,272.25,317Zm14.81,14.58a1.34,1.34,0,0,0-1.48,1.48,1.32,1.32,0,0,0,1.35,1.45c1,.06,1.37-.63,1.52-1.45A1.39,1.39,0,0,0,287.06,331.55Zm2.63-8.14c-1-.05-1.42.62-1.46,1.5a1.25,1.25,0,0,0,1.35,1.41c1,0,1.36-.64,1.52-1.54A1.41,1.41,0,0,0,289.69,323.41Zm4.66,6.33a1.4,1.4,0,0,0-1.3,1.63,1.28,1.28,0,0,0,1.49,1.27,1.38,1.38,0,0,0,1.35-1.61C295.85,330.16,295.24,329.77,294.35,329.74Zm3.7-6.25a1.41,1.41,0,0,0-1.43,1.57,1.36,1.36,0,0,0,1.45,1.39c1,0,1.33-.72,1.42-1.55C299.4,324,298.92,323.45,298.05,323.49Zm3.8,8.15a1.33,1.33,0,0,0-1.47,1.29,1.43,1.43,0,1,0,2.84.13A1.25,1.25,0,0,0,301.85,331.64Zm5-35.5h0v0ZM316,320.33a1.4,1.4,0,0,0-1.4,1.59,1.31,1.31,0,0,0,1.46,1.35c.94,0,1.35-.69,1.41-1.75A1.35,1.35,0,0,0,316,320.33Zm4-7.21a1.44,1.44,0,0,0-1.45,1.58,1.28,1.28,0,0,0,1.45,1.35,1.31,1.31,0,0,0,1.35-1.45A1.37,1.37,0,0,0,320,313.12Zm1,13.1a1.31,1.31,0,0,0-1.4,1.53,1.27,1.27,0,0,0,1.41,1.36c1,0,1.34-.68,1.47-1.61A1.38,1.38,0,0,0,321,326.22Zm2.08-7.87a1.4,1.4,0,0,0-1.49,1.51c0,.9.51,1.34,1.4,1.45a1.41,1.41,0,0,0,1.45-1.5A1.32,1.32,0,0,0,323.09,318.35Zm4.9-40.18v0h0v0Zm1.85,44a1.36,1.36,0,0,0-1.52,1.44,1.26,1.26,0,0,0,1.3,1.46c1,.06,1.41-.54,1.57-1.42A1.41,1.41,0,0,0,329.84,322.14Zm.89-7.66a1.36,1.36,0,0,0-1.51,1.46,1.29,1.29,0,0,0,1.31,1.46c1,.06,1.4-.59,1.57-1.45A1.41,1.41,0,0,0,330.73,314.48ZM314.84,303.1a3,3,0,0,1-1.95-.49,12.53,12.53,0,0,0-6.05-2.35c-1.2-.34-2.45.11-3.65-.27l-.33-.09a3.46,3.46,0,0,0-3.28.92l-.42.48c-4.3,2.06-7.47,5.1-8.44,10-.14.72-.73.87-1.24,1.13a27.45,27.45,0,0,0-14.2,17.87,14.49,14.49,0,0,0-.47,5.9,8.8,8.8,0,0,0,.67-1.74c2.5-8,7-14.3,14.76-18a1.5,1.5,0,0,1,2.17.39A6.32,6.32,0,0,0,296,319a1.86,1.86,0,0,0,2.21-1.13c.5-1,0-1.47-.69-2a7.51,7.51,0,0,1-1.5-1.42c-.53-.73-1-1.58-.29-2.48s1.55-.52,2.36-.22c3,1.1,3.31,3.59,3.29,6.28,0,2.28.36,2.82,2.41,3.53.63.22,1.42.65,2,.18s.09-1.21,0-1.81a30.67,30.67,0,0,1-1-5.24c.92,1.38,1.68,2.83,2.54,4.22,1.34,2.18,1.73,2.18,3.43.25l.3-.38c.67-.82.94-1.54,0-2.46a9.85,9.85,0,0,1-2.23-3.48,5.76,5.76,0,0,1-.62-3.26,2,2,0,0,1,2.28-1.78c1.2.1,1.31,1.07,1.26,2s-.15,1.82-.16,2.72.15,1.68,1.14,1.88,1.54-.56,1.84-1.39a9.85,9.85,0,0,0,.6-4.88c-.22-1.51.39-1.61,1.63-1.56a46.3,46.3,0,0,1,13.4,2.91c3.25,1.14,6.33,2.66,9.5,4C332.41,307.63,324.45,303.39,314.84,303.1Zm29.62-22.73a3,3,0,0,0-3,3.07,2.89,2.89,0,0,0,2.92,3,3,3,0,0,0,2.9-3A2.83,2.83,0,0,0,344.46,280.37Zm5.13,3.42c1,4.29.69,7.6-.76,10.44-1.69,3.3-4.5,4.45-8,3.3-4.85-1.59-8-7.82-6.86-13.4.89-4.24,3.48-6.34,7.78-6.33h2.18a8.56,8.56,0,0,0-12,2.63,14.59,14.59,0,0,0-2,9.85,12.65,12.65,0,0,0,13,11.33,8.62,8.62,0,0,0,6.3-2.68C352.83,295.22,353.09,288.4,349.59,283.79Zm0,0c1,4.29.69,7.6-.76,10.44-1.69,3.3-4.5,4.45-8,3.3-4.85-1.59-8-7.82-6.86-13.4.89-4.24,3.48-6.34,7.78-6.33h2.18a8.56,8.56,0,0,0-12,2.63,14.59,14.59,0,0,0-2,9.85,12.65,12.65,0,0,0,13,11.33,8.62,8.62,0,0,0,6.3-2.68C352.83,295.22,353.09,288.4,349.59,283.79Zm-8.14-.35a2.89,2.89,0,0,0,2.92,3,3,3,0,0,0,2.9-3,2.83,2.83,0,0,0-2.81-3A3,3,0,0,0,341.45,283.44Zm-28.56,19.17a12.53,12.53,0,0,0-6.05-2.35c-1.2-.34-2.45.11-3.65-.27l-.33-.09a3.46,3.46,0,0,0-3.28.92l-.42.48c-4.3,2.06-7.47,5.1-8.44,10-.14.72-.73.87-1.24,1.13a27.45,27.45,0,0,0-14.2,17.87,14.49,14.49,0,0,0-.47,5.9,8.8,8.8,0,0,0,.67-1.74c2.5-8,7-14.3,14.76-18a1.5,1.5,0,0,1,2.17.39A6.32,6.32,0,0,0,296,319a1.86,1.86,0,0,0,2.21-1.13c.5-1,0-1.47-.69-2a7.51,7.51,0,0,1-1.5-1.42c-.53-.73-1-1.58-.29-2.48s1.55-.52,2.36-.22c3,1.1,3.31,3.59,3.29,6.28,0,2.28.36,2.82,2.41,3.53.63.22,1.42.65,2,.18s.09-1.21,0-1.81a30.67,30.67,0,0,1-1-5.24c.92,1.38,1.68,2.83,2.54,4.22,1.34,2.18,1.73,2.18,3.43.25l.3-.38c.67-.82.94-1.54,0-2.46a9.85,9.85,0,0,1-2.23-3.48,5.76,5.76,0,0,1-.62-3.26,2,2,0,0,1,2.28-1.78c1.2.1,1.31,1.07,1.26,2s-.15,1.82-.16,2.72.15,1.68,1.14,1.88,1.54-.56,1.84-1.39a9.85,9.85,0,0,0,.6-4.88c-.22-1.51.39-1.61,1.63-1.56a46.3,46.3,0,0,1,13.4,2.91c3.25,1.14,6.33,2.66,9.5,4-7.25-5.89-15.21-10.13-24.82-10.42A3,3,0,0,1,312.89,302.61Zm17.84,11.87a1.36,1.36,0,0,0-1.51,1.46,1.29,1.29,0,0,0,1.31,1.46c1,.06,1.4-.59,1.57-1.45A1.41,1.41,0,0,0,330.73,314.48Zm-.89,7.66a1.36,1.36,0,0,0-1.52,1.44,1.26,1.26,0,0,0,1.3,1.46c1,.06,1.41-.54,1.57-1.42A1.41,1.41,0,0,0,329.84,322.14Zm-1.84-44h0v0h0Zm-4.91,40.18a1.4,1.4,0,0,0-1.49,1.51c0,.9.51,1.34,1.4,1.45a1.41,1.41,0,0,0,1.45-1.5A1.32,1.32,0,0,0,323.09,318.35ZM321,326.22a1.31,1.31,0,0,0-1.4,1.53,1.27,1.27,0,0,0,1.41,1.36c1,0,1.34-.68,1.47-1.61A1.38,1.38,0,0,0,321,326.22Zm.33-11.62a1.37,1.37,0,0,0-1.35-1.48,1.44,1.44,0,0,0-1.45,1.58,1.28,1.28,0,0,0,1.45,1.35A1.31,1.31,0,0,0,321.34,314.6ZM316,320.33a1.4,1.4,0,0,0-1.4,1.59,1.31,1.31,0,0,0,1.46,1.35c.94,0,1.35-.69,1.41-1.75A1.35,1.35,0,0,0,316,320.33Zm-9.16-24.21,0,0h0Zm-5,35.52a1.33,1.33,0,0,0-1.47,1.29,1.43,1.43,0,1,0,2.84.13A1.25,1.25,0,0,0,301.85,331.64Zm-3.8-8.15a1.41,1.41,0,0,0-1.43,1.57,1.36,1.36,0,0,0,1.45,1.39c1,0,1.33-.72,1.42-1.55C299.4,324,298.92,323.45,298.05,323.49Zm-3.7,6.25a1.4,1.4,0,0,0-1.3,1.63,1.28,1.28,0,0,0,1.49,1.27,1.38,1.38,0,0,0,1.35-1.61C295.85,330.16,295.24,329.77,294.35,329.74Zm-4.66-6.33c-1-.05-1.42.62-1.46,1.5a1.25,1.25,0,0,0,1.35,1.41c1,0,1.36-.64,1.52-1.54A1.41,1.41,0,0,0,289.69,323.41Zm-2.63,8.14a1.34,1.34,0,0,0-1.48,1.48,1.32,1.32,0,0,0,1.35,1.45c1,.06,1.37-.63,1.52-1.45A1.39,1.39,0,0,0,287.06,331.55Zm-23.44-26.81c-3.3-1.06-7.45.75-8.45,3.67,6.09-2,6.72-2,8.37-.61-1.88.67-2.78,1.72-2.73,3.28a2.62,2.62,0,0,0,1.8,2.59c2.26.82,3.42-.53,4.22-2.55,2.3,4.5,1.27,9.46-2.17,11.31-3.77,2-8.84-.11-11.55-5.12a11.63,11.63,0,0,0,9.35,10,7.38,7.38,0,0,0,8.84-4.54,12.46,12.46,0,0,0,.95-5.79C272,311.64,268.18,306.19,263.62,304.74ZM300,201.32A98.68,98.68,0,1,0,398.68,300,98.68,98.68,0,0,0,300,201.32Zm-5,40.44c1.34.56,1.44,1.75,1.55,2.91a18.61,18.61,0,0,1-.79,6.16c-.49,2-1,3.92-1.52,5.89-.63,2.65-1,5.3.16,7.94-1.75-2.4-2.07-5.2-2.26-8-.16-2.24-.2-4.48-.34-6.71-.2-3.33-1-6.43-4-9.06A14.67,14.67,0,0,1,295,241.76Zm-31.93,8c3.76-2.91,7.9-4.2,12.58-2.67,3.32,1.09,4.75,3,4.84,6.54,0,1.75,0,3.52-.14,5.27-.29,5.34.51,10.33,4.29,14.52-4.48-1.79-6.81-5.24-7.55-9.86q-.57-3.56-1-7.14a6.53,6.53,0,0,0-5.54-6.14,12.06,12.06,0,0,0-9.25,1.61A4.14,4.14,0,0,1,263.06,249.78Zm-29.61,81.31a11.63,11.63,0,0,1-.6,1.81c-.34.84-.83,1.54-1.88,1.44s-1.43-.88-1.63-1.74a14.32,14.32,0,0,1-.39-2.68c0-1.87,0-3.74,0-5.61s0-3.84,0-5.76a11.5,11.5,0,0,0-3.53-8.16,56.54,56.54,0,0,0-7.29-5.73,47.1,47.1,0,0,1-5.74-4.61,12.52,12.52,0,0,1-3.44-13.61,24.58,24.58,0,0,1,8.63-12.05,40.51,40.51,0,0,1,4-2.91,129.74,129.74,0,0,0,16-12c3.06-2.6,6.55-4.42,10.75-4.35a13.55,13.55,0,0,1,1.43.08c1.77.21,1.82.3,1.17,1.94-3,7.44-6,14.83-8.9,22.3A106.1,106.1,0,0,0,234.63,318,57.34,57.34,0,0,1,233.45,331.09ZM334,362.8a41.52,41.52,0,0,1-9.66,1.23,42.73,42.73,0,0,0-13.27,2.7c-3.1,1.17-6.24,2.23-9.62,2.12-2.65-.09-2.68-.14-2-2.64,1.62-6.06,3.56-12,7.4-17.06,2.83-3.75,6.4-6.25,11.74-6.22,4.15.16,8,2.09,11.64,4.67a29.59,29.59,0,0,1,6.77,6.3C340.28,358.27,339.24,361.31,334,362.8Zm30.24-42.7c-2,4.9-4.64,9.49-6.57,14.43a14.77,14.77,0,0,0-.79,8.59c1.21,5.93-3.78,12.34-9.88,13a5.64,5.64,0,0,1-5.95-2.77c-5-7.89-12.31-12.56-21.29-14.74a19.88,19.88,0,0,0-3.47-.61,3.36,3.36,0,0,1-2.86-2,85.07,85.07,0,0,1-3.74-8c-.61-1.34-1.25-2.68-2-4a6.42,6.42,0,0,0,.53,3c.71,2.63,1.45,5.25,1.9,7.94a8.27,8.27,0,0,1-2.25,7.36c-.83.9-1.61,1.87-2.51,2.7a28.7,28.7,0,0,0-7.9,13.51,42.54,42.54,0,0,1-2.79,7.66c-2.53,5-6.53,6.5-11.74,4.47a32,32,0,0,1-6.78-3.91,29.33,29.33,0,0,0-9.39-4.34c-8.5-2.31-14.31-7.76-17.89-15.71a66,66,0,0,1-3.7-11.57c-1.64-6.67-3-13.42-6.21-19.63a15.94,15.94,0,0,1,3.8,4.78c2.84,4.9,4.33,10.32,6.05,15.65s3.76,10.57,7.45,14.94a25.12,25.12,0,0,0,9.38,6.91c-4.07-8.11-4.27-17.4-9.52-24.83a76.43,76.43,0,0,1-5.51-9.39c-5.49-10.68-3.55-20.6,4.12-29.85a34.63,34.63,0,0,1,8.17-7.14A9.14,9.14,0,0,1,276,289.49c1.35,2.07,2,4.45,3,7.08a11.76,11.76,0,0,0,1-9.8c-1.56-4.72-6.21-8.31-10.74-8.23a11.42,11.42,0,0,0-7.07,3,47.41,47.41,0,0,0-6.57,7,11.55,11.55,0,0,1-1.83,1.87c2.71-5.68,5.74-11.14,11.87-13.81a12.31,12.31,0,0,1,12.75,1.56,22,22,0,0,1,7.67,10c1.54,4,.33,7.41-1.85,10.73s-5,6.56-6.94,10.19a21.34,21.34,0,0,0-2.72,8.29c1.34-2.56,2.5-5.22,4-7.72,3.28-5.63,7.19-10.74,12.56-14.56s14.47-5.79,21.22-5.42l.39,0c4.77,1,11.68,4,16.15,6.46a6.76,6.76,0,0,0-3-3.38c-3-2.08-6.52-3.16-9.9-4.45-3.58-1.38-7.29-2.46-10.46-4.75-5.73-4.12-6-11.75-.57-16.18,3.84-3.1,8.39-4.41,13.19-4.89a29,29,0,0,1,14.13,1.93,1.74,1.74,0,0,1-1.29,0c-7.27-1-14.29-.36-20.77,3.39-2.29,1.34-3.84,3.23-3.58,6.13.24,2.56,2.59,5.14,5.8,6.27-.36-1.21-.77-2.35-1-3.53a5.9,5.9,0,0,1,3-6.8,14.62,14.62,0,0,1,7-1.93,36.36,36.36,0,0,1,26.89,9.1c5.22,4.58,7,10.51,6.6,17.29-.35,5.5-1.53,10.88-2.24,16.34-.55,4.25-.89,8.51.42,12.7a15.51,15.51,0,0,0,1.93,4c.55.83.89.68,1.36-.06,5.19-8,7.46-16.45,4.65-25.89-1.2-4-2.46-8-2.54-12.2a15.53,15.53,0,0,1,.6-5.53c.32,5.39,2.95,10,5.09,14.7A26.11,26.11,0,0,1,364.26,320.1ZM374,264.81a23.16,23.16,0,0,0-.66,8.56,28.79,28.79,0,0,1,.16,3.35c-.12,4.53-4.51,6.91-8.44,4.56a11.47,11.47,0,0,1-3.93-4.14c-3-5.14-6-10.36-9-15.49-3.44-5.78-7.4-11.13-13.13-14.88-4.46-2.92-9.25-4.84-14.73-4.54a19.74,19.74,0,0,1-5.58-.38c-2.16-.5-2.68-1.58-1.93-3.65,1-2.88,3.3-4.36,6.08-5.18a21,21,0,0,1,6.51-.73c7.37.17,14.46,2,21.5,3.93,6.74,1.89,13.39,4,19.52,7.51.83.47,1.66,1,2.44,1.52,3.86,2.72,5.05,6,4.09,10.58C376.23,258.94,374.86,261.79,374,264.81Zm-24.39,19c1,4.29.69,7.6-.76,10.44-1.69,3.3-4.5,4.45-8,3.3-4.85-1.59-8-7.82-6.86-13.4.89-4.24,3.48-6.34,7.78-6.33h2.18a8.56,8.56,0,0,0-12,2.63,14.59,14.59,0,0,0-2,9.85,12.65,12.65,0,0,0,13,11.33,8.62,8.62,0,0,0,6.3-2.68C352.83,295.22,353.09,288.4,349.59,283.79Zm-8.14-.35a2.89,2.89,0,0,0,2.92,3,3,3,0,0,0,2.9-3,2.83,2.83,0,0,0-2.81-3A3,3,0,0,0,341.45,283.44Zm-28.56,19.17a12.53,12.53,0,0,0-6.05-2.35c-1.2-.34-2.45.11-3.65-.27l-.33-.09a3.46,3.46,0,0,0-3.28.92l-.42.48c-4.3,2.06-7.47,5.1-8.44,10-.14.72-.73.87-1.24,1.13a27.45,27.45,0,0,0-14.2,17.87,14.49,14.49,0,0,0-.47,5.9,8.8,8.8,0,0,0,.67-1.74c2.5-8,7-14.3,14.76-18a1.5,1.5,0,0,1,2.17.39A6.32,6.32,0,0,0,296,319a1.86,1.86,0,0,0,2.21-1.13c.5-1,0-1.47-.69-2a7.51,7.51,0,0,1-1.5-1.42c-.53-.73-1-1.58-.29-2.48s1.55-.52,2.36-.22c3,1.1,3.31,3.59,3.29,6.28,0,2.28.36,2.82,2.41,3.53.63.22,1.42.65,2,.18s.09-1.21,0-1.81a30.67,30.67,0,0,1-1-5.24c.92,1.38,1.68,2.83,2.54,4.22,1.34,2.18,1.73,2.18,3.43.25l.3-.38c.67-.82.94-1.54,0-2.46a9.85,9.85,0,0,1-2.23-3.48,5.76,5.76,0,0,1-.62-3.26,2,2,0,0,1,2.28-1.78c1.2.1,1.31,1.07,1.26,2s-.15,1.82-.16,2.72.15,1.68,1.14,1.88,1.54-.56,1.84-1.39a9.85,9.85,0,0,0,.6-4.88c-.22-1.51.39-1.61,1.63-1.56a46.3,46.3,0,0,1,13.4,2.91c3.25,1.14,6.33,2.66,9.5,4-7.25-5.89-15.21-10.13-24.82-10.42A3,3,0,0,1,312.89,302.61Zm17.84,11.87a1.36,1.36,0,0,0-1.51,1.46,1.29,1.29,0,0,0,1.31,1.46c1,.06,1.4-.59,1.57-1.45A1.41,1.41,0,0,0,330.73,314.48Zm-.89,7.66a1.36,1.36,0,0,0-1.52,1.44,1.26,1.26,0,0,0,1.3,1.46c1,.06,1.41-.54,1.57-1.42A1.41,1.41,0,0,0,329.84,322.14ZM328,278.19h0v0h0Zm-4.9,40.16a1.4,1.4,0,0,0-1.49,1.51c0,.9.51,1.34,1.4,1.45a1.41,1.41,0,0,0,1.45-1.5A1.32,1.32,0,0,0,323.09,318.35ZM321,326.22a1.31,1.31,0,0,0-1.4,1.53,1.27,1.27,0,0,0,1.41,1.36c1,0,1.34-.68,1.47-1.61A1.38,1.38,0,0,0,321,326.22Zm.33-11.62a1.37,1.37,0,0,0-1.35-1.48,1.44,1.44,0,0,0-1.45,1.58,1.28,1.28,0,0,0,1.45,1.35A1.31,1.31,0,0,0,321.34,314.6ZM316,320.33a1.4,1.4,0,0,0-1.4,1.59,1.31,1.31,0,0,0,1.46,1.35c.94,0,1.35-.69,1.41-1.75A1.35,1.35,0,0,0,316,320.33Zm-9.16-24.21,0,0h0Zm-5,35.52a1.33,1.33,0,0,0-1.47,1.29,1.43,1.43,0,1,0,2.84.13A1.25,1.25,0,0,0,301.85,331.64Zm-3.8-8.15a1.41,1.41,0,0,0-1.43,1.57,1.36,1.36,0,0,0,1.45,1.39c1,0,1.33-.72,1.42-1.55C299.4,324,298.92,323.45,298.05,323.49Zm-3.7,6.25a1.4,1.4,0,0,0-1.3,1.63,1.28,1.28,0,0,0,1.49,1.27,1.38,1.38,0,0,0,1.35-1.61C295.85,330.16,295.24,329.77,294.35,329.74Zm-4.66-6.33c-1-.05-1.42.62-1.46,1.5a1.25,1.25,0,0,0,1.35,1.41c1,0,1.36-.64,1.52-1.54A1.41,1.41,0,0,0,289.69,323.41Zm-2.63,8.14a1.34,1.34,0,0,0-1.48,1.48,1.32,1.32,0,0,0,1.35,1.45c1,.06,1.37-.63,1.52-1.45A1.39,1.39,0,0,0,287.06,331.55Zm-23.44-26.81c-3.3-1.06-7.45.75-8.45,3.67,6.09-2,6.72-2,8.37-.61-1.88.67-2.78,1.72-2.73,3.28a2.62,2.62,0,0,0,1.8,2.59c2.26.82,3.42-.53,4.22-2.55,2.3,4.5,1.27,9.46-2.17,11.31-3.77,2-8.84-.11-11.55-5.12a11.63,11.63,0,0,0,9.35,10,7.38,7.38,0,0,0,8.84-4.54,12.46,12.46,0,0,0,.95-5.79C272,311.64,268.18,306.19,263.62,304.74ZM272.25,317c-.23-5.33-4.07-10.78-8.63-12.23-3.3-1.06-7.45.75-8.45,3.67,6.09-2,6.72-2,8.37-.61-1.88.67-2.78,1.72-2.73,3.28a2.62,2.62,0,0,0,1.8,2.59c2.26.82,3.42-.53,4.22-2.55,2.3,4.5,1.27,9.46-2.17,11.31-3.77,2-8.84-.11-11.55-5.12a11.63,11.63,0,0,0,9.35,10,7.38,7.38,0,0,0,8.84-4.54A12.46,12.46,0,0,0,272.25,317Zm14.81,14.58a1.34,1.34,0,0,0-1.48,1.48,1.32,1.32,0,0,0,1.35,1.45c1,.06,1.37-.63,1.52-1.45A1.39,1.39,0,0,0,287.06,331.55Zm2.63-8.14c-1-.05-1.42.62-1.46,1.5a1.25,1.25,0,0,0,1.35,1.41c1,0,1.36-.64,1.52-1.54A1.41,1.41,0,0,0,289.69,323.41Zm4.66,6.33a1.4,1.4,0,0,0-1.3,1.63,1.28,1.28,0,0,0,1.49,1.27,1.38,1.38,0,0,0,1.35-1.61C295.85,330.16,295.24,329.77,294.35,329.74Zm3.7-6.25a1.41,1.41,0,0,0-1.43,1.57,1.36,1.36,0,0,0,1.45,1.39c1,0,1.33-.72,1.42-1.55C299.4,324,298.92,323.45,298.05,323.49Zm3.8,8.15a1.33,1.33,0,0,0-1.47,1.29,1.43,1.43,0,1,0,2.84.13A1.25,1.25,0,0,0,301.85,331.64Zm5-35.5h0v0ZM316,320.33a1.4,1.4,0,0,0-1.4,1.59,1.31,1.31,0,0,0,1.46,1.35c.94,0,1.35-.69,1.41-1.75A1.35,1.35,0,0,0,316,320.33Zm4-7.21a1.44,1.44,0,0,0-1.45,1.58,1.28,1.28,0,0,0,1.45,1.35,1.31,1.31,0,0,0,1.35-1.45A1.37,1.37,0,0,0,320,313.12Zm1,13.1a1.31,1.31,0,0,0-1.4,1.53,1.27,1.27,0,0,0,1.41,1.36c1,0,1.34-.68,1.47-1.61A1.38,1.38,0,0,0,321,326.22Zm2.08-7.87a1.4,1.4,0,0,0-1.49,1.51c0,.9.51,1.34,1.4,1.45a1.41,1.41,0,0,0,1.45-1.5A1.32,1.32,0,0,0,323.09,318.35Zm4.9-40.18v0h0v0Zm1.85,44a1.36,1.36,0,0,0-1.52,1.44,1.26,1.26,0,0,0,1.3,1.46c1,.06,1.41-.54,1.57-1.42A1.41,1.41,0,0,0,329.84,322.14Zm.89-7.66a1.36,1.36,0,0,0-1.51,1.46,1.29,1.29,0,0,0,1.31,1.46c1,.06,1.4-.59,1.57-1.45A1.41,1.41,0,0,0,330.73,314.48ZM314.84,303.1a3,3,0,0,1-1.95-.49,12.53,12.53,0,0,0-6.05-2.35c-1.2-.34-2.45.11-3.65-.27l-.33-.09a3.46,3.46,0,0,0-3.28.92l-.42.48c-4.3,2.06-7.47,5.1-8.44,10-.14.72-.73.87-1.24,1.13a27.45,27.45,0,0,0-14.2,17.87,14.49,14.49,0,0,0-.47,5.9,8.8,8.8,0,0,0,.67-1.74c2.5-8,7-14.3,14.76-18a1.5,1.5,0,0,1,2.17.39A6.32,6.32,0,0,0,296,319a1.86,1.86,0,0,0,2.21-1.13c.5-1,0-1.47-.69-2a7.51,7.51,0,0,1-1.5-1.42c-.53-.73-1-1.58-.29-2.48s1.55-.52,2.36-.22c3,1.1,3.31,3.59,3.29,6.28,0,2.28.36,2.82,2.41,3.53.63.22,1.42.65,2,.18s.09-1.21,0-1.81a30.67,30.67,0,0,1-1-5.24c.92,1.38,1.68,2.83,2.54,4.22,1.34,2.18,1.73,2.18,3.43.25l.3-.38c.67-.82.94-1.54,0-2.46a9.85,9.85,0,0,1-2.23-3.48,5.76,5.76,0,0,1-.62-3.26,2,2,0,0,1,2.28-1.78c1.2.1,1.31,1.07,1.26,2s-.15,1.82-.16,2.72.15,1.68,1.14,1.88,1.54-.56,1.84-1.39a9.85,9.85,0,0,0,.6-4.88c-.22-1.51.39-1.61,1.63-1.56a46.3,46.3,0,0,1,13.4,2.91c3.25,1.14,6.33,2.66,9.5,4C332.41,307.63,324.45,303.39,314.84,303.1Zm29.62-22.73a3,3,0,0,0-3,3.07,2.89,2.89,0,0,0,2.92,3,3,3,0,0,0,2.9-3A2.83,2.83,0,0,0,344.46,280.37Zm5.13,3.42c1,4.29.69,7.6-.76,10.44-1.69,3.3-4.5,4.45-8,3.3-4.85-1.59-8-7.82-6.86-13.4.89-4.24,3.48-6.34,7.78-6.33h2.18a8.56,8.56,0,0,0-12,2.63,14.59,14.59,0,0,0-2,9.85,12.65,12.65,0,0,0,13,11.33,8.62,8.62,0,0,0,6.3-2.68C352.83,295.22,353.09,288.4,349.59,283.79Zm0,0c1,4.29.69,7.6-.76,10.44-1.69,3.3-4.5,4.45-8,3.3-4.85-1.59-8-7.82-6.86-13.4.89-4.24,3.48-6.34,7.78-6.33h2.18a8.56,8.56,0,0,0-12,2.63,14.59,14.59,0,0,0-2,9.85,12.65,12.65,0,0,0,13,11.33,8.62,8.62,0,0,0,6.3-2.68C352.83,295.22,353.09,288.4,349.59,283.79Zm-5.13-3.42a3,3,0,0,0-3,3.07,2.89,2.89,0,0,0,2.92,3,3,3,0,0,0,2.9-3A2.83,2.83,0,0,0,344.46,280.37ZM314.84,303.1a3,3,0,0,1-1.95-.49,12.53,12.53,0,0,0-6.05-2.35c-1.2-.34-2.45.11-3.65-.27l-.33-.09a3.46,3.46,0,0,0-3.28.92l-.42.48c-4.3,2.06-7.47,5.1-8.44,10-.14.72-.73.87-1.24,1.13a27.45,27.45,0,0,0-14.2,17.87,14.49,14.49,0,0,0-.47,5.9,8.8,8.8,0,0,0,.67-1.74c2.5-8,7-14.3,14.76-18a1.5,1.5,0,0,1,2.17.39A6.32,6.32,0,0,0,296,319a1.86,1.86,0,0,0,2.21-1.13c.5-1,0-1.47-.69-2a7.51,7.51,0,0,1-1.5-1.42c-.53-.73-1-1.58-.29-2.48s1.55-.52,2.36-.22c3,1.1,3.31,3.59,3.29,6.28,0,2.28.36,2.82,2.41,3.53.63.22,1.42.65,2,.18s.09-1.21,0-1.81a30.67,30.67,0,0,1-1-5.24c.92,1.38,1.68,2.83,2.54,4.22,1.34,2.18,1.73,2.18,3.43.25l.3-.38c.67-.82.94-1.54,0-2.46a9.85,9.85,0,0,1-2.23-3.48,5.76,5.76,0,0,1-.62-3.26,2,2,0,0,1,2.28-1.78c1.2.1,1.31,1.07,1.26,2s-.15,1.82-.16,2.72.15,1.68,1.14,1.88,1.54-.56,1.84-1.39a9.85,9.85,0,0,0,.6-4.88c-.22-1.51.39-1.61,1.63-1.56a46.3,46.3,0,0,1,13.4,2.91c3.25,1.14,6.33,2.66,9.5,4C332.41,307.63,324.45,303.39,314.84,303.1Zm15.89,11.38a1.36,1.36,0,0,0-1.51,1.46,1.29,1.29,0,0,0,1.31,1.46c1,.06,1.4-.59,1.57-1.45A1.41,1.41,0,0,0,330.73,314.48Zm-.89,7.66a1.36,1.36,0,0,0-1.52,1.44,1.26,1.26,0,0,0,1.3,1.46c1,.06,1.41-.54,1.57-1.42A1.41,1.41,0,0,0,329.84,322.14Zm-1.85-44v0h0v0Zm-4.9,40.18a1.4,1.4,0,0,0-1.49,1.51c0,.9.51,1.34,1.4,1.45a1.41,1.41,0,0,0,1.45-1.5A1.32,1.32,0,0,0,323.09,318.35ZM321,326.22a1.31,1.31,0,0,0-1.4,1.53,1.27,1.27,0,0,0,1.41,1.36c1,0,1.34-.68,1.47-1.61A1.38,1.38,0,0,0,321,326.22Zm-1-13.1a1.44,1.44,0,0,0-1.45,1.58,1.28,1.28,0,0,0,1.45,1.35,1.31,1.31,0,0,0,1.35-1.45A1.37,1.37,0,0,0,320,313.12Zm-4,7.21a1.4,1.4,0,0,0-1.4,1.59,1.31,1.31,0,0,0,1.46,1.35c.94,0,1.35-.69,1.41-1.75A1.35,1.35,0,0,0,316,320.33Zm-9.18-24.19h0v0Zm-5,35.5a1.33,1.33,0,0,0-1.47,1.29,1.43,1.43,0,1,0,2.84.13A1.25,1.25,0,0,0,301.85,331.64Zm-3.8-8.15a1.41,1.41,0,0,0-1.43,1.57,1.36,1.36,0,0,0,1.45,1.39c1,0,1.33-.72,1.42-1.55C299.4,324,298.92,323.45,298.05,323.49Zm-3.7,6.25a1.4,1.4,0,0,0-1.3,1.63,1.28,1.28,0,0,0,1.49,1.27,1.38,1.38,0,0,0,1.35-1.61C295.85,330.16,295.24,329.77,294.35,329.74Zm-4.66-6.33c-1-.05-1.42.62-1.46,1.5a1.25,1.25,0,0,0,1.35,1.41c1,0,1.36-.64,1.52-1.54A1.41,1.41,0,0,0,289.69,323.41Zm-2.63,8.14a1.34,1.34,0,0,0-1.48,1.48,1.32,1.32,0,0,0,1.35,1.45c1,.06,1.37-.63,1.52-1.45A1.39,1.39,0,0,0,287.06,331.55ZM272.25,317c-.23-5.33-4.07-10.78-8.63-12.23-3.3-1.06-7.45.75-8.45,3.67,6.09-2,6.72-2,8.37-.61-1.88.67-2.78,1.72-2.73,3.28a2.62,2.62,0,0,0,1.8,2.59c2.26.82,3.42-.53,4.22-2.55,2.3,4.5,1.27,9.46-2.17,11.31-3.77,2-8.84-.11-11.55-5.12a11.63,11.63,0,0,0,9.35,10,7.38,7.38,0,0,0,8.84-4.54A12.46,12.46,0,0,0,272.25,317Zm0,0c-.23-5.33-4.07-10.78-8.63-12.23-3.3-1.06-7.45.75-8.45,3.67,6.09-2,6.72-2,8.37-.61-1.88.67-2.78,1.72-2.73,3.28a2.62,2.62,0,0,0,1.8,2.59c2.26.82,3.42-.53,4.22-2.55,2.3,4.5,1.27,9.46-2.17,11.31-3.77,2-8.84-.11-11.55-5.12a11.63,11.63,0,0,0,9.35,10,7.38,7.38,0,0,0,8.84-4.54A12.46,12.46,0,0,0,272.25,317Zm14.81,14.58a1.34,1.34,0,0,0-1.48,1.48,1.32,1.32,0,0,0,1.35,1.45c1,.06,1.37-.63,1.52-1.45A1.39,1.39,0,0,0,287.06,331.55Zm2.63-8.14c-1-.05-1.42.62-1.46,1.5a1.25,1.25,0,0,0,1.35,1.41c1,0,1.36-.64,1.52-1.54A1.41,1.41,0,0,0,289.69,323.41Zm4.66,6.33a1.4,1.4,0,0,0-1.3,1.63,1.28,1.28,0,0,0,1.49,1.27,1.38,1.38,0,0,0,1.35-1.61C295.85,330.16,295.24,329.77,294.35,329.74Zm3.7-6.25a1.41,1.41,0,0,0-1.43,1.57,1.36,1.36,0,0,0,1.45,1.39c1,0,1.33-.72,1.42-1.55C299.4,324,298.92,323.45,298.05,323.49Zm3.8,8.15a1.33,1.33,0,0,0-1.47,1.29,1.43,1.43,0,1,0,2.84.13A1.25,1.25,0,0,0,301.85,331.64Zm5-35.5h0v0ZM316,320.33a1.4,1.4,0,0,0-1.4,1.59,1.31,1.31,0,0,0,1.46,1.35c.94,0,1.35-.69,1.41-1.75A1.35,1.35,0,0,0,316,320.33Zm4-7.21a1.44,1.44,0,0,0-1.45,1.58,1.28,1.28,0,0,0,1.45,1.35,1.31,1.31,0,0,0,1.35-1.45A1.37,1.37,0,0,0,320,313.12Zm1,13.1a1.31,1.31,0,0,0-1.4,1.53,1.27,1.27,0,0,0,1.41,1.36c1,0,1.34-.68,1.47-1.61A1.38,1.38,0,0,0,321,326.22Zm2.08-7.87a1.4,1.4,0,0,0-1.49,1.51c0,.9.51,1.34,1.4,1.45a1.41,1.41,0,0,0,1.45-1.5A1.32,1.32,0,0,0,323.09,318.35Zm4.9-40.18v0h0v0Zm1.85,44a1.36,1.36,0,0,0-1.52,1.44,1.26,1.26,0,0,0,1.3,1.46c1,.06,1.41-.54,1.57-1.42A1.41,1.41,0,0,0,329.84,322.14Zm.89-7.66a1.36,1.36,0,0,0-1.51,1.46,1.29,1.29,0,0,0,1.31,1.46c1,.06,1.4-.59,1.57-1.45A1.41,1.41,0,0,0,330.73,314.48ZM314.84,303.1a3,3,0,0,1-1.95-.49,12.53,12.53,0,0,0-6.05-2.35c-1.2-.34-2.45.11-3.65-.27l-.33-.09a3.46,3.46,0,0,0-3.28.92l-.42.48c-4.3,2.06-7.47,5.1-8.44,10-.14.72-.73.87-1.24,1.13a27.45,27.45,0,0,0-14.2,17.87,14.49,14.49,0,0,0-.47,5.9,8.8,8.8,0,0,0,.67-1.74c2.5-8,7-14.3,14.76-18a1.5,1.5,0,0,1,2.17.39A6.32,6.32,0,0,0,296,319a1.86,1.86,0,0,0,2.21-1.13c.5-1,0-1.47-.69-2a7.51,7.51,0,0,1-1.5-1.42c-.53-.73-1-1.58-.29-2.48s1.55-.52,2.36-.22c3,1.1,3.31,3.59,3.29,6.28,0,2.28.36,2.82,2.41,3.53.63.22,1.42.65,2,.18s.09-1.21,0-1.81a30.67,30.67,0,0,1-1-5.24c.92,1.38,1.68,2.83,2.54,4.22,1.34,2.18,1.73,2.18,3.43.25l.3-.38c.67-.82.94-1.54,0-2.46a9.85,9.85,0,0,1-2.23-3.48,5.76,5.76,0,0,1-.62-3.26,2,2,0,0,1,2.28-1.78c1.2.1,1.31,1.07,1.26,2s-.15,1.82-.16,2.72.15,1.68,1.14,1.88,1.54-.56,1.84-1.39a9.85,9.85,0,0,0,.6-4.88c-.22-1.51.39-1.61,1.63-1.56a46.3,46.3,0,0,1,13.4,2.91c3.25,1.14,6.33,2.66,9.5,4C332.41,307.63,324.45,303.39,314.84,303.1Zm29.62-22.73a3,3,0,0,0-3,3.07,2.89,2.89,0,0,0,2.92,3,3,3,0,0,0,2.9-3A2.83,2.83,0,0,0,344.46,280.37Zm5.13,3.42c1,4.29.69,7.6-.76,10.44-1.69,3.3-4.5,4.45-8,3.3-4.85-1.59-8-7.82-6.86-13.4.89-4.24,3.48-6.34,7.78-6.33h2.18a8.56,8.56,0,0,0-12,2.63,14.59,14.59,0,0,0-2,9.85,12.65,12.65,0,0,0,13,11.33,8.62,8.62,0,0,0,6.3-2.68C352.83,295.22,353.09,288.4,349.59,283.79Zm0,0c1,4.29.69,7.6-.76,10.44-1.69,3.3-4.5,4.45-8,3.3-4.85-1.59-8-7.82-6.86-13.4.89-4.24,3.48-6.34,7.78-6.33h2.18a8.56,8.56,0,0,0-12,2.63,14.59,14.59,0,0,0-2,9.85,12.65,12.65,0,0,0,13,11.33,8.62,8.62,0,0,0,6.3-2.68C352.83,295.22,353.09,288.4,349.59,283.79Zm-5.13-3.42a3,3,0,0,0-3,3.07,2.89,2.89,0,0,0,2.92,3,3,3,0,0,0,2.9-3A2.83,2.83,0,0,0,344.46,280.37ZM314.84,303.1a3,3,0,0,1-1.95-.49,12.53,12.53,0,0,0-6.05-2.35c-1.2-.34-2.45.11-3.65-.27l-.33-.09a3.46,3.46,0,0,0-3.28.92l-.42.48c-4.3,2.06-7.47,5.1-8.44,10-.14.72-.73.87-1.24,1.13a27.45,27.45,0,0,0-14.2,17.87,14.49,14.49,0,0,0-.47,5.9,8.8,8.8,0,0,0,.67-1.74c2.5-8,7-14.3,14.76-18a1.5,1.5,0,0,1,2.17.39A6.32,6.32,0,0,0,296,319a1.86,1.86,0,0,0,2.21-1.13c.5-1,0-1.47-.69-2a7.51,7.51,0,0,1-1.5-1.42c-.53-.73-1-1.58-.29-2.48s1.55-.52,2.36-.22c3,1.1,3.31,3.59,3.29,6.28,0,2.28.36,2.82,2.41,3.53.63.22,1.42.65,2,.18s.09-1.21,0-1.81a30.67,30.67,0,0,1-1-5.24c.92,1.38,1.68,2.83,2.54,4.22,1.34,2.18,1.73,2.18,3.43.25l.3-.38c.67-.82.94-1.54,0-2.46a9.85,9.85,0,0,1-2.23-3.48,5.76,5.76,0,0,1-.62-3.26,2,2,0,0,1,2.28-1.78c1.2.1,1.31,1.07,1.26,2s-.15,1.82-.16,2.72.15,1.68,1.14,1.88,1.54-.56,1.84-1.39a9.85,9.85,0,0,0,.6-4.88c-.22-1.51.39-1.61,1.63-1.56a46.3,46.3,0,0,1,13.4,2.91c3.25,1.14,6.33,2.66,9.5,4C332.41,307.63,324.45,303.39,314.84,303.1Zm15.89,11.38a1.36,1.36,0,0,0-1.51,1.46,1.29,1.29,0,0,0,1.31,1.46c1,.06,1.4-.59,1.57-1.45A1.41,1.41,0,0,0,330.73,314.48Zm-.89,7.66a1.36,1.36,0,0,0-1.52,1.44,1.26,1.26,0,0,0,1.3,1.46c1,.06,1.41-.54,1.57-1.42A1.41,1.41,0,0,0,329.84,322.14Zm-1.85-44v0h0v0Zm-4.9,40.18a1.4,1.4,0,0,0-1.49,1.51c0,.9.51,1.34,1.4,1.45a1.41,1.41,0,0,0,1.45-1.5A1.32,1.32,0,0,0,323.09,318.35ZM321,326.22a1.31,1.31,0,0,0-1.4,1.53,1.27,1.27,0,0,0,1.41,1.36c1,0,1.34-.68,1.47-1.61A1.38,1.38,0,0,0,321,326.22Zm-1-13.1a1.44,1.44,0,0,0-1.45,1.58,1.28,1.28,0,0,0,1.45,1.35,1.31,1.31,0,0,0,1.35-1.45A1.37,1.37,0,0,0,320,313.12Zm-4,7.21a1.4,1.4,0,0,0-1.4,1.59,1.31,1.31,0,0,0,1.46,1.35c.94,0,1.35-.69,1.41-1.75A1.35,1.35,0,0,0,316,320.33Zm-9.18-24.19h0v0Zm-5,35.5a1.33,1.33,0,0,0-1.47,1.29,1.43,1.43,0,1,0,2.84.13A1.25,1.25,0,0,0,301.85,331.64Zm-3.8-8.15a1.41,1.41,0,0,0-1.43,1.57,1.36,1.36,0,0,0,1.45,1.39c1,0,1.33-.72,1.42-1.55C299.4,324,298.92,323.45,298.05,323.49Zm-3.7,6.25a1.4,1.4,0,0,0-1.3,1.63,1.28,1.28,0,0,0,1.49,1.27,1.38,1.38,0,0,0,1.35-1.61C295.85,330.16,295.24,329.77,294.35,329.74Zm-4.66-6.33c-1-.05-1.42.62-1.46,1.5a1.25,1.25,0,0,0,1.35,1.41c1,0,1.36-.64,1.52-1.54A1.41,1.41,0,0,0,289.69,323.41Zm-2.63,8.14a1.34,1.34,0,0,0-1.48,1.48,1.32,1.32,0,0,0,1.35,1.45c1,.06,1.37-.63,1.52-1.45A1.39,1.39,0,0,0,287.06,331.55ZM272.25,317c-.23-5.33-4.07-10.78-8.63-12.23-3.3-1.06-7.45.75-8.45,3.67,6.09-2,6.72-2,8.37-.61-1.88.67-2.78,1.72-2.73,3.28a2.62,2.62,0,0,0,1.8,2.59c2.26.82,3.42-.53,4.22-2.55,2.3,4.5,1.27,9.46-2.17,11.31-3.77,2-8.84-.11-11.55-5.12a11.63,11.63,0,0,0,9.35,10,7.38,7.38,0,0,0,8.84-4.54A12.46,12.46,0,0,0,272.25,317Z"/><path class="cls-1" d="M300,166.59a133.43,133.43,0,1,1-94.33,39.08A132.52,132.52,0,0,1,300,166.59m22.7,80.68c.58,0,1.17,0,1.81-.05l.85,0h0c3.51,0,7,1.19,10.87,3.75,4.23,2.77,7.69,6.74,11.57,13.26,1.58,2.65,3.15,5.38,4.68,8,1.06,1.84,2.15,3.74,3.25,5.62l-.08.24a25.11,25.11,0,0,0-4.19-4.72,42,42,0,0,0-11.52-7.25L344.1,264,334,259.87a32.59,32.59,0,0,0-12.72-2.47c-1.23,0-2.51.06-3.81.18-6.47.65-11.65,2.61-15.84,6a16.41,16.41,0,0,0-1.61,1.49L299,262.61c-.47-1.05-.44-2.29.14-4.71.25-1,.52-2,.79-3.06s.49-1.87.73-2.83V252a22.79,22.79,0,0,0,.89-7.79c-.13-1.45-.5-5.3-4.59-7a17.84,17.84,0,0,0-7.15-1.36c-.77,0-1.56,0-2.43.11l-11.71,1,8.83,7.75c1.54,1.35,2.17,2.87,2.34,5.61.06,1,.1,2,.14,2.95.06,1.24.11,2.51.2,3.79.23,3.31.68,7.14,3.21,10.62l5.55,7.61c0,.17,0,.34,0,.51a14.34,14.34,0,0,0,.47,3.27l-8-8.91c-2.38-2.64-3.28-5.9-3-10.88.11-1.9.2-3.77.15-5.69-.15-5.65-2.93-9.4-8.29-11.16a17.47,17.47,0,0,0-5.48-.9A19,19,0,0,0,260,245.82a8.67,8.67,0,0,0-3.05,3.64l-.1.21-1.55,3.09a6.43,6.43,0,0,0-5-2.53,18.63,18.63,0,0,0-2-.12h-.31c-4.87,0-9.37,1.81-13.76,5.54a124.65,124.65,0,0,1-15.35,11.57,46,46,0,0,0-4.51,3.26A29.43,29.43,0,0,0,204.14,285a17.49,17.49,0,0,0,4.74,18.68,52.56,52.56,0,0,0,6.32,5.1l.72.5a46.6,46.6,0,0,1,5.93,4.69,6.45,6.45,0,0,1,2.07,4.75c0,1.25,0,2.5,0,3.83,0,.6,0,1.2,0,1.83v2c0,1.22,0,2.48,0,3.8a19.73,19.73,0,0,0,.52,3.64,6.8,6.8,0,0,0,6,5.59l.67,0a6.67,6.67,0,0,0,6.31-4.57,16,16,0,0,0,.84-2.56c.18-.75.33-1.51.46-2.26.31,1.23.61,2.47.91,3.73.21.89.43,1.78.64,2.65a71.21,71.21,0,0,0,4,12.44c4.34,9.63,11.45,15.85,21.14,18.49a24.13,24.13,0,0,1,7.81,3.59,37,37,0,0,0,7.85,4.49,16.55,16.55,0,0,0,6,1.21,12.36,12.36,0,0,0,9.19-4,8.43,8.43,0,0,0,5,1.3H302a30.3,30.3,0,0,0,10.89-2.45A37.19,37.19,0,0,1,324.58,369a46.16,46.16,0,0,0,10.81-1.42c4.28-1.22,7-3.44,8.05-6.58,0,0,0-.1,0-.14a11.88,11.88,0,0,0,2.56.28,13,13,0,0,0,1.51-.09,16.35,16.35,0,0,0,11.35-6.75,15.51,15.51,0,0,0,2.9-12.19,9.8,9.8,0,0,1,.55-5.79c.95-2.44,2.09-4.8,3.3-7.3,1.1-2.27,2.23-4.61,3.23-7.05a31.09,31.09,0,0,0-.3-25.55c-.37-.83-.76-1.66-1.15-2.48a43.64,43.64,0,0,1-3-7.46,11,11,0,0,0,3.79.69,10.28,10.28,0,0,0,10.27-10.35,34.69,34.69,0,0,0-.18-3.91,18.2,18.2,0,0,1,.48-6.73c.31-1,.7-2.13,1.11-3.27a42.25,42.25,0,0,0,1.88-6.09c1.36-6.59-.69-11.87-6.11-15.69-.82-.57-1.72-1.14-2.85-1.78-6.7-3.8-13.88-6.08-20.64-8-7.08-2-14.66-3.92-22.71-4.11h-1a25.2,25.2,0,0,0-7.1.94c-4.73,1.4-7.88,4.18-9.37,8.28a7.72,7.72,0,0,0,.2,6.53,7.62,7.62,0,0,0,5.29,3.69,22.62,22.62,0,0,0,5.18.55M267.79,255a8,8,0,0,1,1.72.19c1.21.26,1.49.58,1.63,1.81.29,2.52.62,5,1,7.37a19.49,19.49,0,0,0,2.24,6.56,16.66,16.66,0,0,0-3.73-.42,17.51,17.51,0,0,0-7.08,1.53c-7.73,3.36-11.48,10.14-14.38,16.24L240.25,307a104.11,104.11,0,0,1,6.39-25.77c1.83-4.71,3.76-9.49,5.62-14.11l2-4.89,9.74-6.08a7,7,0,0,1,3.82-1.15M287,279.77l12.27,4.9c.35.43.71.83,1.1,1.23a40.3,40.3,0,0,0-8.94,3.19,14.55,14.55,0,0,0-.77-2.68,27.73,27.73,0,0,0-3.66-6.64m57.38,3.47v.26h-2.08a2.28,2.28,0,0,1,0-.26h2.1m-101,21.46a27.7,27.7,0,0,0-.86,7.27l-.45-.36L240,309.94c.07-.94.16-1.87.27-2.81l3.15-2.43m61.54.45c-.09.11-.19.22-.28.34l-.23-.34h.51m-5.28,1.57V307a2.15,2.15,0,0,0-.27-.1l.27-.18m20.09,7.95h0m-.64,0h0m-.25,0h0m5.58,5.28h0m-1.07,0h0m-.43,0h0m-6.91.31v1.18l-.68,0a8,8,0,0,0,.67-1.14m3.48.91a1.77,1.77,0,0,1,0,.2c-.27.06-.53.14-.78.22l-1.3-.07,2-.35m-27.88,3.7V325h.73l-.73-.13m6.45-1v.86l-3.37-.37,1.37-.15a1.1,1.1,0,0,1,0-.18h.48a7.06,7.06,0,0,0,1.54-.17m2.45,1.12h1.1v.11l-1-.11h-.06m-1,0h0m-1.47,0v.77a5.82,5.82,0,0,0-1.3-.64l1.3-.13m-2,6.1h0m4.34,1.79h0M300,161.59A138.41,138.41,0,1,0,438.41,300,138.41,138.41,0,0,0,300,161.59Zm22.7,80.68a17.72,17.72,0,0,1-4-.42c-2.16-.5-2.68-1.58-1.93-3.65,1-2.88,3.3-4.36,6.08-5.18a20.26,20.26,0,0,1,5.69-.74h.82c7.37.17,14.46,2,21.5,3.93,6.74,1.89,13.39,4,19.52,7.51.83.47,1.66,1,2.44,1.52,3.86,2.72,5.05,6,4.09,10.58-.64,3.11-2,6-2.89,9a23.16,23.16,0,0,0-.66,8.56,28.79,28.79,0,0,1,.16,3.35,5.31,5.31,0,0,1-5.27,5.48,6.16,6.16,0,0,1-3.17-.92,11.47,11.47,0,0,1-3.93-4.14c-3-5.14-6-10.36-9-15.49-3.44-5.78-7.4-11.13-13.13-14.88-4.15-2.72-8.59-4.57-13.61-4.57l-1.12,0c-.51,0-1,0-1.54,0Zm-28.31,22.39c-1.75-2.4-2.07-5.2-2.26-8-.16-2.24-.2-4.48-.34-6.71-.2-3.33-1-6.43-4-9.06.71-.06,1.37-.09,2-.09a13.12,13.12,0,0,1,5.22,1c1.34.56,1.44,1.75,1.55,2.91a18.61,18.61,0,0,1-.79,6.16c-.49,2-1,3.92-1.52,5.89-.63,2.65-1,5.3.16,7.94Zm-33.07-12.75a4.14,4.14,0,0,1,1.74-2.13,14.07,14.07,0,0,1,8.65-3.32,12.63,12.63,0,0,1,3.93.65c3.32,1.09,4.75,3,4.84,6.54,0,1.75,0,3.52-.14,5.27-.29,5.34.51,10.33,4.29,14.52-4.48-1.79-6.81-5.24-7.55-9.86q-.57-3.56-1-7.14a6.53,6.53,0,0,0-5.54-6.14,13.36,13.36,0,0,0-2.78-.3,12,12,0,0,0-6.47,1.91Zm-30.15,82.44H231c-1-.1-1.43-.88-1.63-1.74a14.32,14.32,0,0,1-.39-2.68c0-1.87,0-3.74,0-5.61s0-3.84,0-5.76a11.5,11.5,0,0,0-3.53-8.16,56.54,56.54,0,0,0-7.29-5.73,47.1,47.1,0,0,1-5.74-4.61,12.52,12.52,0,0,1-3.44-13.61,24.58,24.58,0,0,1,8.63-12.05,40.51,40.51,0,0,1,4-2.91,129.74,129.74,0,0,0,16-12c3-2.55,6.42-4.35,10.52-4.35h.23a13.55,13.55,0,0,1,1.43.08c1.77.21,1.82.3,1.17,1.94-3,7.44-6,14.83-8.9,22.3A106.1,106.1,0,0,0,234.63,318a57.34,57.34,0,0,1-1.18,13,11.63,11.63,0,0,1-.6,1.81c-.32.79-.77,1.45-1.68,1.45Zm97.59-38.14a6.76,6.76,0,0,0-3-3.38c-3-2.08-6.52-3.16-9.9-4.45-3.58-1.38-7.29-2.46-10.46-4.75-5.73-4.12-6-11.75-.57-16.18,3.84-3.1,8.39-4.41,13.19-4.89,1.11-.11,2.21-.16,3.31-.16a28.09,28.09,0,0,1,10.82,2.09,1.18,1.18,0,0,1-.56.14,5.06,5.06,0,0,1-.73-.12,43.23,43.23,0,0,0-5.86-.42,29.13,29.13,0,0,0-14.91,3.81c-2.29,1.34-3.84,3.23-3.58,6.13.24,2.56,2.59,5.14,5.8,6.27-.36-1.21-.77-2.35-1-3.53a5.9,5.9,0,0,1,3-6.8,14.62,14.62,0,0,1,7-1.93c.8,0,1.6-.07,2.39-.07a36,36,0,0,1,24.5,9.17c5.22,4.58,7,10.51,6.6,17.29-.35,5.5-1.53,10.88-2.24,16.34-.55,4.25-.89,8.51.42,12.7a15.51,15.51,0,0,0,1.93,4c.26.39.47.56.67.56s.44-.23.69-.62c5.19-8,7.46-16.45,4.65-25.89-1.2-4-2.46-8-2.54-12.2a15.53,15.53,0,0,1,.6-5.53c.32,5.39,2.95,10,5.09,14.7a26.11,26.11,0,0,1,.23,21.59c-2,4.9-4.64,9.49-6.57,14.43a14.77,14.77,0,0,0-.79,8.59c1.21,5.93-3.78,12.34-9.88,13a8.31,8.31,0,0,1-1,.06,5.49,5.49,0,0,1-5-2.83c-5-7.89-12.31-12.56-21.29-14.74a19.88,19.88,0,0,0-3.47-.61,3.36,3.36,0,0,1-2.86-2,85.07,85.07,0,0,1-3.74-8c-.61-1.34-1.25-2.68-2-4a6.42,6.42,0,0,0,.53,3c.71,2.63,1.45,5.25,1.9,7.94a8.27,8.27,0,0,1-2.25,7.36c-.83.9-1.61,1.87-2.51,2.7a28.7,28.7,0,0,0-7.9,13.51,42.54,42.54,0,0,1-2.79,7.66c-1.8,3.56-4.35,5.34-7.55,5.34a11.64,11.64,0,0,1-4.19-.87,32,32,0,0,1-6.78-3.91,29.33,29.33,0,0,0-9.39-4.34c-8.5-2.31-14.31-7.76-17.89-15.71a66,66,0,0,1-3.7-11.57c-1.64-6.67-3-13.42-6.21-19.63a15.94,15.94,0,0,1,3.8,4.78c2.84,4.9,4.33,10.32,6.05,15.65s3.76,10.57,7.45,14.94a25.12,25.12,0,0,0,9.38,6.91c-4.07-8.11-4.27-17.4-9.52-24.83a76.43,76.43,0,0,1-5.51-9.39c-5.49-10.68-3.55-20.6,4.12-29.85a34.63,34.63,0,0,1,8.17-7.14,9.87,9.87,0,0,1,5.27-1.61,9.31,9.31,0,0,1,7.8,4.5c1.35,2.07,2,4.45,3,7.08a11.76,11.76,0,0,0,1-9.8c-1.54-4.67-6.11-8.23-10.59-8.23h-.15a11.42,11.42,0,0,0-7.07,3,47.41,47.41,0,0,0-6.57,7,11.55,11.55,0,0,1-1.83,1.87c2.71-5.68,5.74-11.14,11.87-13.81a12.64,12.64,0,0,1,5.08-1.11,13,13,0,0,1,7.67,2.67,22,22,0,0,1,7.67,10c1.54,4,.33,7.41-1.85,10.73s-5,6.56-6.94,10.19a21.34,21.34,0,0,0-2.72,8.29c1.34-2.56,2.5-5.22,4-7.72,3.28-5.63,7.19-10.74,12.56-14.56,5-3.52,13.05-5.46,19.56-5.46.57,0,1.12,0,1.66,0l.39,0c4.77,1,11.68,4,16.15,6.46ZM302,368.86h-.49c-2.65-.09-2.68-.14-2-2.64,1.62-6.06,3.56-12,7.4-17.06,2.81-3.73,6.36-6.22,11.65-6.22h.09c4.15.16,8,2.09,11.64,4.67a29.59,29.59,0,0,1,6.77,6.3c3.26,4.37,2.22,7.41-3,8.9a41.52,41.52,0,0,1-9.66,1.23,42.73,42.73,0,0,0-13.27,2.7,26,26,0,0,1-9.13,2.13Zm37.19-92.46a8.51,8.51,0,0,0-7.21,4,13.84,13.84,0,0,0-2.12,7.6,13.84,13.84,0,0,1,2.12-7.6,8.51,8.51,0,0,1,7.21-4,9,9,0,0,1,4.76,1.4,9,9,0,0,0-4.76-1.4Zm0,0a8.51,8.51,0,0,0-7.21,4,13.84,13.84,0,0,0-2.12,7.6,13.84,13.84,0,0,1,2.12-7.6,8.51,8.51,0,0,1,7.21-4,9,9,0,0,1,4.76,1.4,9,9,0,0,0-4.76-1.4Zm0,0a8.51,8.51,0,0,0-7.21,4,13.84,13.84,0,0,0-2.12,7.6,13.84,13.84,0,0,1,2.12-7.6,8.51,8.51,0,0,1,7.21-4,9,9,0,0,1,4.76,1.4,9,9,0,0,0-4.76-1.4Zm0,0a8.51,8.51,0,0,0-7.21,4,13.84,13.84,0,0,0-2.12,7.6,13.84,13.84,0,0,1,2.12-7.6,8.51,8.51,0,0,1,7.21-4,9,9,0,0,1,4.76,1.4,9,9,0,0,0-4.76-1.4Zm0,0a8.51,8.51,0,0,0-7.21,4,13.84,13.84,0,0,0-2.12,7.6,19.14,19.14,0,0,0,.14,2.25,12.64,12.64,0,0,0,12.78,11.33h.17a8.62,8.62,0,0,0,6.3-2.68,10.88,10.88,0,0,0,2.87-7.6,12.54,12.54,0,0,0-2.49-7.54,21.09,21.09,0,0,1,.57,4.63,12.5,12.5,0,0,1-1.33,5.81c-1.26,2.47-3.15,3.73-5.5,3.73a8.13,8.13,0,0,1-2.52-.43c-4.16-1.36-7.1-6.15-7.11-11a11.35,11.35,0,0,1,.25-2.39c.89-4.23,3.47-6.33,7.75-6.33h2.21a9,9,0,0,0-4.76-1.4Zm2.55,1.4c-4.28,0-6.86,2.1-7.75,6.33a11.35,11.35,0,0,0-.25,2.39,11.35,11.35,0,0,1,.25-2.39c.89-4.23,3.47-6.33,7.75-6.33h0Zm0,0c-4.28,0-6.86,2.1-7.75,6.33a11.35,11.35,0,0,0-.25,2.39,11.35,11.35,0,0,1,.25-2.39c.89-4.23,3.47-6.33,7.75-6.33h0Zm0,0c-4.28,0-6.86,2.1-7.75,6.33a11.35,11.35,0,0,0-.25,2.39,11.35,11.35,0,0,1,.25-2.39c.89-4.23,3.47-6.33,7.75-6.33h0Zm0,0c-4.28,0-6.86,2.1-7.75,6.33a11.35,11.35,0,0,0-.25,2.39,11.35,11.35,0,0,1,.25-2.39c.89-4.23,3.47-6.33,7.75-6.33h0Zm-13.7.37h0v0Zm0,0h0v0Zm0,0h0v0Zm0,0h0v0Zm0,0h0v0h0v0Zm0,0v0h0v0Zm0,0v0h0v0Zm0,0v0h0v0Zm0,0v0h0v0Zm16.42,2.2a3,3,0,0,0-3,3.07v0a3,3,0,0,1,3-3.07h0a2.83,2.83,0,0,1,2.81,2.87,2.83,2.83,0,0,0-2.81-2.87Zm0,0a3,3,0,0,0-3,3.07v0a3,3,0,0,1,3-3.07h0a2.83,2.83,0,0,1,2.81,2.87,2.83,2.83,0,0,0-2.81-2.87Zm0,0a3,3,0,0,0-3,3.07v0a3,3,0,0,1,3-3.07h0a2.83,2.83,0,0,1,2.81,2.87,2.83,2.83,0,0,0-2.81-2.87Zm0,0a3,3,0,0,0-3,3.07v0a3,3,0,0,1,3-3.07h0a2.83,2.83,0,0,1,2.81,2.87,2.83,2.83,0,0,0-2.81-2.87Zm0,0a3,3,0,0,0-3,3.07v.06a2.89,2.89,0,0,0,2.92,2.9h.05a3,3,0,0,0,2.85-3v-.14a2.83,2.83,0,0,0-2.81-2.87Zm2.86,2.87v.14a3,3,0,0,1-2.85,3h-.05a2.89,2.89,0,0,1-2.92-2.9,2.89,2.89,0,0,0,2.92,2.9h.05a3,3,0,0,0,2.85-3v-.14Zm0,0v.14a3,3,0,0,1-2.85,3h-.05a2.89,2.89,0,0,1-2.92-2.9,2.89,2.89,0,0,0,2.92,2.9h.05a3,3,0,0,0,2.85-3v-.14Zm0,0v.14a3,3,0,0,1-2.85,3h-.05a2.89,2.89,0,0,1-2.92-2.9,2.89,2.89,0,0,0,2.92,2.9h.05a3,3,0,0,0,2.85-3v-.14Zm0,0v.14a3,3,0,0,1-2.85,3h-.05a2.89,2.89,0,0,1-2.92-2.9,2.89,2.89,0,0,0,2.92,2.9h.05a3,3,0,0,0,2.85-3v-.14Zm2.32.55a12.54,12.54,0,0,1,2.49,7.54,12.54,12.54,0,0,0-2.49-7.54Zm0,0a21.09,21.09,0,0,1,.57,4.63,21.09,21.09,0,0,0-.57-4.63Zm0,0a21.09,21.09,0,0,1,.57,4.63,21.09,21.09,0,0,0-.57-4.63Zm0,0a21.09,21.09,0,0,1,.57,4.63,21.09,21.09,0,0,0-.57-4.63Zm0,0a21.09,21.09,0,0,1,.57,4.63,21.09,21.09,0,0,0-.57-4.63Zm0,0a12.54,12.54,0,0,1,2.49,7.54,12.54,12.54,0,0,0-2.49-7.54Zm0,0a12.54,12.54,0,0,1,2.49,7.54,12.54,12.54,0,0,0-2.49-7.54Zm0,0a12.54,12.54,0,0,1,2.49,7.54,12.54,12.54,0,0,0-2.49-7.54Zm-15.89,2.73c0,4.86,2.95,9.65,7.11,11a8.13,8.13,0,0,0,2.52.43c2.35,0,4.24-1.26,5.5-3.73a12.5,12.5,0,0,0,1.33-5.81,12.5,12.5,0,0,1-1.33,5.81c-1.26,2.47-3.15,3.73-5.5,3.73a8.13,8.13,0,0,1-2.52-.43c-4.16-1.36-7.1-6.15-7.11-11Zm0,0c0,4.86,2.95,9.65,7.11,11a8.13,8.13,0,0,0,2.52.43c2.35,0,4.24-1.26,5.5-3.73a12.5,12.5,0,0,0,1.33-5.81,12.5,12.5,0,0,1-1.33,5.81c-1.26,2.47-3.15,3.73-5.5,3.73a8.13,8.13,0,0,1-2.52-.43c-4.16-1.36-7.1-6.15-7.11-11Zm0,0c0,4.86,2.95,9.65,7.11,11a8.13,8.13,0,0,0,2.52.43c2.35,0,4.24-1.26,5.5-3.73a12.5,12.5,0,0,0,1.33-5.81,12.5,12.5,0,0,1-1.33,5.81c-1.26,2.47-3.15,3.73-5.5,3.73a8.13,8.13,0,0,1-2.52-.43c-4.16-1.36-7.1-6.15-7.11-11Zm0,0c0,4.86,2.95,9.65,7.11,11a8.13,8.13,0,0,0,2.52.43c2.35,0,4.24-1.26,5.5-3.73a12.5,12.5,0,0,0,1.33-5.81,12.5,12.5,0,0,1-1.33,5.81c-1.26,2.47-3.15,3.73-5.5,3.73a8.13,8.13,0,0,1-2.52-.43c-4.16-1.36-7.1-6.15-7.11-11ZM329.82,288a19.14,19.14,0,0,0,.14,2.25,12.64,12.64,0,0,0,12.78,11.33h.17a8.62,8.62,0,0,0,6.3-2.68,10.88,10.88,0,0,0,2.87-7.6,10.88,10.88,0,0,1-2.87,7.6,8.62,8.62,0,0,1-6.3,2.68h-.17A12.64,12.64,0,0,1,330,290.28a19.14,19.14,0,0,1-.14-2.25Zm0,0a19.14,19.14,0,0,0,.14,2.25,12.64,12.64,0,0,0,12.78,11.33h.17a8.62,8.62,0,0,0,6.3-2.68,10.88,10.88,0,0,0,2.87-7.6,10.88,10.88,0,0,1-2.87,7.6,8.62,8.62,0,0,1-6.3,2.68h-.17A12.64,12.64,0,0,1,330,290.28a19.14,19.14,0,0,1-.14-2.25Zm0,0a19.14,19.14,0,0,0,.14,2.25,12.64,12.64,0,0,0,12.78,11.33h.17a8.62,8.62,0,0,0,6.3-2.68,10.88,10.88,0,0,0,2.87-7.6,10.88,10.88,0,0,1-2.87,7.6,8.62,8.62,0,0,1-6.3,2.68h-.17A12.64,12.64,0,0,1,330,290.28a19.14,19.14,0,0,1-.14-2.25Zm0,0a19.14,19.14,0,0,0,.14,2.25,12.64,12.64,0,0,0,12.78,11.33h.17a8.62,8.62,0,0,0,6.3-2.68,10.88,10.88,0,0,0,2.87-7.6,10.88,10.88,0,0,1-2.87,7.6,8.62,8.62,0,0,1-6.3,2.68h-.17A12.64,12.64,0,0,1,330,290.28a19.14,19.14,0,0,1-.14-2.25Zm-23,8.09,0,0,0,0v0Zm0,0,0,0,0,0v0Zm0,0,0,0,0,0v0Zm0,0,0,0,0,0v0Zm0,0,0,0h0v0Zm0,0h0Zm0,0h0Zm0,0h0Zm0,0h0ZM302,299.81a3.4,3.4,0,0,0-2.43,1l-.42.48c-4.3,2.06-7.47,5.1-8.44,10-.14.72-.73.87-1.24,1.13a27.45,27.45,0,0,0-14.2,17.87,15.61,15.61,0,0,0-.59,4.13,15.61,15.61,0,0,1,.59-4.13,27.45,27.45,0,0,1,14.2-17.87c.51-.26,1.1-.41,1.24-1.13,1-4.87,4.14-7.91,8.44-10l.42-.48a3.4,3.4,0,0,1,2.43-1,4.17,4.17,0,0,1,.85.09l.33.09a4.11,4.11,0,0,0,1.26.16c.41,0,.82,0,1.22,0a4.17,4.17,0,0,1,1.17.14,12.53,12.53,0,0,1,6.05,2.35,3,3,0,0,0,1.95.49c9.61.29,17.57,4.53,24.82,10.42-7.25-5.89-15.21-10.13-24.82-10.42a3,3,0,0,1-1.95-.49,12.53,12.53,0,0,0-6.05-2.35,4.17,4.17,0,0,0-1.17-.14c-.4,0-.81,0-1.22,0a4.11,4.11,0,0,1-1.26-.16l-.33-.09a4.17,4.17,0,0,0-.85-.09Zm0,0a3.4,3.4,0,0,0-2.43,1l-.42.48c-4.3,2.06-7.47,5.1-8.44,10-.14.72-.73.87-1.24,1.13a27.45,27.45,0,0,0-14.2,17.87,15.61,15.61,0,0,0-.59,4.13,15.61,15.61,0,0,1,.59-4.13,27.45,27.45,0,0,1,14.2-17.87c.51-.26,1.1-.41,1.24-1.13,1-4.87,4.14-7.91,8.44-10l.42-.48a3.4,3.4,0,0,1,2.43-1,4.17,4.17,0,0,1,.85.09l.33.09a4.11,4.11,0,0,0,1.26.16c.41,0,.82,0,1.22,0a4.17,4.17,0,0,1,1.17.14,12.53,12.53,0,0,1,6.05,2.35,3,3,0,0,0,1.95.49c9.61.29,17.57,4.53,24.82,10.42-7.25-5.89-15.21-10.13-24.82-10.42a3,3,0,0,1-1.95-.49,12.53,12.53,0,0,0-6.05-2.35,4.17,4.17,0,0,0-1.17-.14c-.4,0-.81,0-1.22,0a4.11,4.11,0,0,1-1.26-.16l-.33-.09a4.17,4.17,0,0,0-.85-.09Zm0,0a3.4,3.4,0,0,0-2.43,1l-.42.48c-4.3,2.06-7.47,5.1-8.44,10-.14.72-.73.87-1.24,1.13a27.45,27.45,0,0,0-14.2,17.87,15.61,15.61,0,0,0-.59,4.13,15.61,15.61,0,0,1,.59-4.13,27.45,27.45,0,0,1,14.2-17.87c.51-.26,1.1-.41,1.24-1.13,1-4.87,4.14-7.91,8.44-10l.42-.48a3.4,3.4,0,0,1,2.43-1,4.17,4.17,0,0,1,.85.09l.33.09a4.11,4.11,0,0,0,1.26.16c.41,0,.82,0,1.22,0a4.17,4.17,0,0,1,1.17.14,12.53,12.53,0,0,1,6.05,2.35,3,3,0,0,0,1.95.49c9.61.29,17.57,4.53,24.82,10.42-7.25-5.89-15.21-10.13-24.82-10.42a3,3,0,0,1-1.95-.49,12.53,12.53,0,0,0-6.05-2.35,4.17,4.17,0,0,0-1.17-.14c-.4,0-.81,0-1.22,0a4.11,4.11,0,0,1-1.26-.16l-.33-.09a4.17,4.17,0,0,0-.85-.09Zm0,0a3.4,3.4,0,0,0-2.43,1l-.42.48c-4.3,2.06-7.47,5.1-8.44,10-.14.72-.73.87-1.24,1.13a27.45,27.45,0,0,0-14.2,17.87,15.61,15.61,0,0,0-.59,4.13,15.61,15.61,0,0,1,.59-4.13,27.45,27.45,0,0,1,14.2-17.87c.51-.26,1.1-.41,1.24-1.13,1-4.87,4.14-7.91,8.44-10l.42-.48a3.4,3.4,0,0,1,2.43-1,4.17,4.17,0,0,1,.85.09l.33.09a4.11,4.11,0,0,0,1.26.16c.41,0,.82,0,1.22,0a4.17,4.17,0,0,1,1.17.14,12.53,12.53,0,0,1,6.05,2.35,3,3,0,0,0,1.95.49c9.61.29,17.57,4.53,24.82,10.42-7.25-5.89-15.21-10.13-24.82-10.42a3,3,0,0,1-1.95-.49,12.53,12.53,0,0,0-6.05-2.35,4.17,4.17,0,0,0-1.17-.14c-.4,0-.81,0-1.22,0a4.11,4.11,0,0,1-1.26-.16l-.33-.09a4.17,4.17,0,0,0-.85-.09Zm0,0a3.4,3.4,0,0,0-2.43,1l-.42.48c-4.3,2.06-7.47,5.1-8.44,10-.14.72-.73.87-1.24,1.13a27.45,27.45,0,0,0-14.2,17.87,15.61,15.61,0,0,0-.59,4.13,10.53,10.53,0,0,0,.12,1.77,8.8,8.8,0,0,0,.67-1.74c2.5-8,7-14.3,14.76-18a2.45,2.45,0,0,1,1-.29,1.48,1.48,0,0,1,1.16.68A6.32,6.32,0,0,0,296,319a3,3,0,0,0,.5.05,1.84,1.84,0,0,0,1.71-1.18,1.57,1.57,0,0,0,.2-.72c0-.53-.4-.9-.89-1.28a7.51,7.51,0,0,1-1.5-1.42,2.73,2.73,0,0,1-.66-1.52,1.48,1.48,0,0,1,.37-1,1.35,1.35,0,0,1,1.09-.54,3.77,3.77,0,0,1,1.27.32c2.9,1.07,3.29,3.46,3.29,6.07v.3c0,2.2.39,2.74,2.41,3.44a4.46,4.46,0,0,0,1.37.39.92.92,0,0,0,.6-.21.73.73,0,0,0,.24-.58,7.48,7.48,0,0,0-.26-1.23,30.67,30.67,0,0,1-1-5.24c.92,1.38,1.68,2.83,2.54,4.22.69,1.12,1.13,1.67,1.62,1.67s1-.48,1.81-1.42l.3-.38a2.12,2.12,0,0,0,.6-1.28,1.65,1.65,0,0,0-.63-1.18,9.85,9.85,0,0,1-2.23-3.48,6.87,6.87,0,0,1-.68-2.61,3.66,3.66,0,0,1,.06-.65,2,2,0,0,1,2-1.79h.24c1.06.09,1.27.85,1.27,1.69,0,.11,0,.23,0,.34,0,.91-.15,1.82-.16,2.72s.15,1.68,1.14,1.88a1.45,1.45,0,0,0,.35,0c.83,0,1.22-.7,1.49-1.43a10.35,10.35,0,0,0,.69-3.63,8.66,8.66,0,0,0-.09-1.25,3.62,3.62,0,0,1,0-.54c0-.86.45-1,1.27-1h.4a46.3,46.3,0,0,1,13.4,2.91c3.25,1.14,6.33,2.66,9.5,4-7.25-5.89-15.21-10.13-24.82-10.42a3,3,0,0,1-1.95-.49,12.53,12.53,0,0,0-6.05-2.35,4.17,4.17,0,0,0-1.17-.14c-.4,0-.81,0-1.22,0a4.11,4.11,0,0,1-1.26-.16l-.33-.09a4.17,4.17,0,0,0-.85-.09Zm-40.4,4.62c-2.8,0-5.64,1.63-6.44,4,.8-2.35,3.64-4,6.44-4a6.54,6.54,0,0,1,2,.31c4.56,1.45,8.4,6.9,8.63,12.23,0,.28,0,.55,0,.83,0-.28,0-.55,0-.83-.23-5.33-4.07-10.78-8.63-12.23a6.54,6.54,0,0,0-2-.31Zm0,0c-2.8,0-5.64,1.63-6.44,4,.8-2.35,3.64-4,6.44-4a6.54,6.54,0,0,1,2,.31c4.56,1.45,8.4,6.9,8.63,12.23,0,.28,0,.55,0,.83,0-.28,0-.55,0-.83-.23-5.33-4.07-10.78-8.63-12.23a6.54,6.54,0,0,0-2-.31Zm0,0c-2.8,0-5.64,1.63-6.44,4,.8-2.35,3.64-4,6.44-4a6.54,6.54,0,0,1,2,.31c4.56,1.45,8.4,6.9,8.63,12.23,0,.28,0,.55,0,.83,0-.28,0-.55,0-.83-.23-5.33-4.07-10.78-8.63-12.23a6.54,6.54,0,0,0-2-.31Zm0,0c-2.8,0-5.64,1.63-6.44,4,.8-2.35,3.64-4,6.44-4a6.54,6.54,0,0,1,2,.31c4.56,1.45,8.4,6.9,8.63,12.23,0,.28,0,.55,0,.83,0-.28,0-.55,0-.83-.23-5.33-4.07-10.78-8.63-12.23a6.54,6.54,0,0,0-2-.31Zm0,0c-2.8,0-5.64,1.63-6.44,4,3.35-1.08,5-1.58,6.17-1.58a3.09,3.09,0,0,1,2.2,1c-1.83.65-2.73,1.67-2.73,3.16v.12a2.62,2.62,0,0,0,1.8,2.59,3.57,3.57,0,0,0,1.25.24c1.47,0,2.33-1.18,3-2.79a10.78,10.78,0,0,1,1.23,4.92,7,7,0,0,1-3.4,6.39,6.38,6.38,0,0,1-3.06.77c-3.13,0-6.47-2.15-8.49-5.89a11.63,11.63,0,0,0,9.35,10,9.79,9.79,0,0,0,2,.21,7.29,7.29,0,0,0,6.87-4.75,11.93,11.93,0,0,0,1-5c0-.28,0-.55,0-.83-.23-5.33-4.07-10.78-8.63-12.23a6.54,6.54,0,0,0-2-.31Zm54.75,2.17c-.82,0-1.27.17-1.27,1,0-.86.45-1,1.27-1h.4a46.3,46.3,0,0,1,13.4,2.91c3.25,1.14,6.33,2.66,9.5,4-3.17-1.34-6.25-2.86-9.5-4a46.3,46.3,0,0,0-13.4-2.91Zm0,0c-.82,0-1.27.17-1.27,1,0-.86.45-1,1.27-1h.4a46.3,46.3,0,0,1,13.4,2.91c3.25,1.14,6.33,2.66,9.5,4-3.17-1.34-6.25-2.86-9.5-4a46.3,46.3,0,0,0-13.4-2.91Zm0,0c-.82,0-1.27.17-1.27,1,0-.86.45-1,1.27-1h.4a46.3,46.3,0,0,1,13.4,2.91c3.25,1.14,6.33,2.66,9.5,4-3.17-1.34-6.25-2.86-9.5-4a46.3,46.3,0,0,0-13.4-2.91Zm0,0c-.82,0-1.27.17-1.27,1,0-.86.45-1,1.27-1h.4a46.3,46.3,0,0,1,13.4,2.91c3.25,1.14,6.33,2.66,9.5,4-3.17-1.34-6.25-2.86-9.5-4a46.3,46.3,0,0,0-13.4-2.91Zm-55,.23c-1.13,0-2.82.5-6.17,1.58,3.35-1.08,5-1.58,6.17-1.58a3.09,3.09,0,0,1,2.2,1,3.09,3.09,0,0,0-2.2-1Zm0,0c-1.13,0-2.82.5-6.17,1.58,3.35-1.08,5-1.58,6.17-1.58a3.09,3.09,0,0,1,2.2,1,3.09,3.09,0,0,0-2.2-1Zm0,0c-1.13,0-2.82.5-6.17,1.58,3.35-1.08,5-1.58,6.17-1.58a3.09,3.09,0,0,1,2.2,1,3.09,3.09,0,0,0-2.2-1Zm0,0c-1.13,0-2.82.5-6.17,1.58,3.35-1.08,5-1.58,6.17-1.58a3.09,3.09,0,0,1,2.2,1,3.09,3.09,0,0,0-2.2-1Zm53.75.8a3.62,3.62,0,0,0,0,.54,8.66,8.66,0,0,1,.09,1.25,8.66,8.66,0,0,0-.09-1.25,3.62,3.62,0,0,1,0-.54Zm0,0a3.62,3.62,0,0,0,0,.54,8.66,8.66,0,0,1,.09,1.25,8.66,8.66,0,0,0-.09-1.25,3.62,3.62,0,0,1,0-.54Zm0,0a3.62,3.62,0,0,0,0,.54,8.66,8.66,0,0,1,.09,1.25,8.66,8.66,0,0,0-.09-1.25,3.62,3.62,0,0,1,0-.54Zm0,0a3.62,3.62,0,0,0,0,.54,8.66,8.66,0,0,1,.09,1.25,8.66,8.66,0,0,0-.09-1.25,3.62,3.62,0,0,1,0-.54Zm-4.88.17a2,2,0,0,0-2,1.79,3.66,3.66,0,0,0-.06.65,3.66,3.66,0,0,1,.06-.65,2,2,0,0,1,2-1.79h.24c1.06.09,1.27.85,1.27,1.69,0-.84-.21-1.6-1.27-1.69Zm0,0a2,2,0,0,0-2,1.79,3.66,3.66,0,0,0-.06.65,3.66,3.66,0,0,1,.06-.65,2,2,0,0,1,2-1.79h.24c1.06.09,1.27.85,1.27,1.69,0-.84-.21-1.6-1.27-1.69Zm0,0a2,2,0,0,0-2,1.79,3.66,3.66,0,0,0-.06.65,3.66,3.66,0,0,1,.06-.65,2,2,0,0,1,2-1.79h.24c1.06.09,1.27.85,1.27,1.69,0-.84-.21-1.6-1.27-1.69Zm0,0a2,2,0,0,0-2,1.79,3.66,3.66,0,0,0-.06.65,3.66,3.66,0,0,1,.06-.65,2,2,0,0,1,2-1.79h.24c1.06.09,1.27.85,1.27,1.69,0-.84-.21-1.6-1.27-1.69Zm-46.67,0c-1.83.65-2.73,1.67-2.73,3.16,0-1.49.9-2.51,2.73-3.16Zm0,0c-1.83.65-2.73,1.67-2.73,3.16,0-1.49.9-2.51,2.73-3.16Zm0,0c-1.83.65-2.73,1.67-2.73,3.16,0-1.49.9-2.51,2.73-3.16Zm0,0c-1.83.65-2.73,1.67-2.73,3.16,0-1.49.9-2.51,2.73-3.16Zm51.68,1.62a10.35,10.35,0,0,1-.69,3.63c-.27.73-.66,1.43-1.49,1.43a1.45,1.45,0,0,1-.35,0c-1-.2-1.14-1.05-1.14-1.88,0,.83.15,1.68,1.14,1.88a1.45,1.45,0,0,0,.35,0c.83,0,1.22-.7,1.49-1.43a10.35,10.35,0,0,0,.69-3.63Zm0,0a10.35,10.35,0,0,1-.69,3.63c-.27.73-.66,1.43-1.49,1.43a1.45,1.45,0,0,1-.35,0c-1-.2-1.14-1.05-1.14-1.88,0,.83.15,1.68,1.14,1.88a1.45,1.45,0,0,0,.35,0c.83,0,1.22-.7,1.49-1.43a10.35,10.35,0,0,0,.69-3.63Zm0,0a10.35,10.35,0,0,1-.69,3.63c-.27.73-.66,1.43-1.49,1.43a1.45,1.45,0,0,1-.35,0c-1-.2-1.14-1.05-1.14-1.88,0,.83.15,1.68,1.14,1.88a1.45,1.45,0,0,0,.35,0c.83,0,1.22-.7,1.49-1.43a10.35,10.35,0,0,0,.69-3.63Zm0,0a10.35,10.35,0,0,1-.69,3.63c-.27.73-.66,1.43-1.49,1.43a1.45,1.45,0,0,1-.35,0c-1-.2-1.14-1.05-1.14-1.88,0,.83.15,1.68,1.14,1.88a1.45,1.45,0,0,0,.35,0c.83,0,1.22-.7,1.49-1.43a10.35,10.35,0,0,0,.69-3.63Zm-3.5.08c0,.11,0,.23,0,.34,0,.91-.15,1.82-.16,2.72,0-.9.11-1.81.16-2.72,0-.11,0-.23,0-.34Zm0,0c0,.11,0,.23,0,.34,0,.91-.15,1.82-.16,2.72,0-.9.11-1.81.16-2.72,0-.11,0-.23,0-.34Zm0,0c0,.11,0,.23,0,.34,0,.91-.15,1.82-.16,2.72,0-.9.11-1.81.16-2.72,0-.11,0-.23,0-.34Zm0,0c0,.11,0,.23,0,.34,0,.91-.15,1.82-.16,2.72,0-.9.11-1.81.16-2.72,0-.11,0-.23,0-.34Zm-3.61.74a6.87,6.87,0,0,0,.68,2.61,9.85,9.85,0,0,0,2.23,3.48,1.65,1.65,0,0,1,.63,1.18,1.65,1.65,0,0,0-.63-1.18,9.85,9.85,0,0,1-2.23-3.48,6.87,6.87,0,0,1-.68-2.61Zm0,0a6.87,6.87,0,0,0,.68,2.61,9.85,9.85,0,0,0,2.23,3.48,1.65,1.65,0,0,1,.63,1.18,1.65,1.65,0,0,0-.63-1.18,9.85,9.85,0,0,1-2.23-3.48,6.87,6.87,0,0,1-.68-2.61Zm0,0a6.87,6.87,0,0,0,.68,2.61,9.85,9.85,0,0,0,2.23,3.48,1.65,1.65,0,0,1,.63,1.18,1.65,1.65,0,0,0-.63-1.18,9.85,9.85,0,0,1-2.23-3.48,6.87,6.87,0,0,1-.68-2.61Zm0,0a6.87,6.87,0,0,0,.68,2.61,9.85,9.85,0,0,0,2.23,3.48,1.65,1.65,0,0,1,.63,1.18,1.65,1.65,0,0,0-.63-1.18,9.85,9.85,0,0,1-2.23-3.48,6.87,6.87,0,0,1-.68-2.61Zm-47.3.72v.12a2.62,2.62,0,0,0,1.8,2.59,3.57,3.57,0,0,0,1.25.24c1.47,0,2.33-1.18,3-2.79a10.78,10.78,0,0,1,1.23,4.92,10.78,10.78,0,0,0-1.23-4.92c-.64,1.61-1.5,2.79-3,2.79a3.57,3.57,0,0,1-1.25-.24,2.62,2.62,0,0,1-1.8-2.59V311Zm0,0v.12a2.62,2.62,0,0,0,1.8,2.59,3.57,3.57,0,0,0,1.25.24c1.47,0,2.33-1.18,3-2.79a10.78,10.78,0,0,1,1.23,4.92,10.78,10.78,0,0,0-1.23-4.92c-.64,1.61-1.5,2.79-3,2.79a3.57,3.57,0,0,1-1.25-.24,2.62,2.62,0,0,1-1.8-2.59V311Zm0,0v.12a2.62,2.62,0,0,0,1.8,2.59,3.57,3.57,0,0,0,1.25.24c1.47,0,2.33-1.18,3-2.79a10.78,10.78,0,0,1,1.23,4.92,10.78,10.78,0,0,0-1.23-4.92c-.64,1.61-1.5,2.79-3,2.79a3.57,3.57,0,0,1-1.25-.24,2.62,2.62,0,0,1-1.8-2.59V311Zm0,0v.12a2.62,2.62,0,0,0,1.8,2.59,3.57,3.57,0,0,0,1.25.24c1.47,0,2.33-1.18,3-2.79a10.78,10.78,0,0,1,1.23,4.92,10.78,10.78,0,0,0-1.23-4.92c-.64,1.61-1.5,2.79-3,2.79a3.57,3.57,0,0,1-1.25-.24,2.62,2.62,0,0,1-1.8-2.59V311Zm36,.48a1.35,1.35,0,0,0-1.09.54,1.48,1.48,0,0,0-.37,1,1.48,1.48,0,0,1,.37-1,1.35,1.35,0,0,1,1.09-.54,3.77,3.77,0,0,1,1.27.32c2.9,1.07,3.29,3.46,3.29,6.07,0-2.61-.39-5-3.29-6.07a3.77,3.77,0,0,0-1.27-.32Zm0,0a1.35,1.35,0,0,0-1.09.54,1.48,1.48,0,0,0-.37,1,1.48,1.48,0,0,1,.37-1,1.35,1.35,0,0,1,1.09-.54,3.77,3.77,0,0,1,1.27.32c2.9,1.07,3.29,3.46,3.29,6.07,0-2.61-.39-5-3.29-6.07a3.77,3.77,0,0,0-1.27-.32Zm0,0a1.35,1.35,0,0,0-1.09.54,1.48,1.48,0,0,0-.37,1,1.48,1.48,0,0,1,.37-1,1.35,1.35,0,0,1,1.09-.54,3.77,3.77,0,0,1,1.27.32c2.9,1.07,3.29,3.46,3.29,6.07,0-2.61-.39-5-3.29-6.07a3.77,3.77,0,0,0-1.27-.32Zm0,0a1.35,1.35,0,0,0-1.09.54,1.48,1.48,0,0,0-.37,1,1.48,1.48,0,0,1,.37-1,1.35,1.35,0,0,1,1.09-.54,3.77,3.77,0,0,1,1.27.32c2.9,1.07,3.29,3.46,3.29,6.07,0-2.61-.39-5-3.29-6.07a3.77,3.77,0,0,0-1.27-.32Zm-1.46,1.5a2.73,2.73,0,0,0,.66,1.52,7.51,7.51,0,0,0,1.5,1.42c.49.38.89.75.89,1.28,0-.53-.4-.9-.89-1.28a7.51,7.51,0,0,1-1.5-1.42,2.73,2.73,0,0,1-.66-1.52Zm0,0a2.73,2.73,0,0,0,.66,1.52,7.51,7.51,0,0,0,1.5,1.42c.49.38.89.75.89,1.28,0-.53-.4-.9-.89-1.28a7.51,7.51,0,0,1-1.5-1.42,2.73,2.73,0,0,1-.66-1.52Zm0,0a2.73,2.73,0,0,0,.66,1.52,7.51,7.51,0,0,0,1.5,1.42c.49.38.89.75.89,1.28,0-.53-.4-.9-.89-1.28a7.51,7.51,0,0,1-1.5-1.42,2.73,2.73,0,0,1-.66-1.52Zm0,0a2.73,2.73,0,0,0,.66,1.52,7.51,7.51,0,0,0,1.5,1.42c.49.38.89.75.89,1.28,0-.53-.4-.9-.89-1.28a7.51,7.51,0,0,1-1.5-1.42,2.73,2.73,0,0,1-.66-1.52Zm24.6.18a1.44,1.44,0,0,0-1.45,1.55,1.44,1.44,0,0,1,1.45-1.55,1.37,1.37,0,0,1,1.35,1.43,1.37,1.37,0,0,0-1.35-1.43Zm0,0a1.44,1.44,0,0,0-1.45,1.55,1.44,1.44,0,0,1,1.45-1.55,1.37,1.37,0,0,1,1.35,1.43,1.37,1.37,0,0,0-1.35-1.43Zm0,0a1.44,1.44,0,0,0-1.45,1.55,1.44,1.44,0,0,1,1.45-1.55,1.37,1.37,0,0,1,1.35,1.43,1.37,1.37,0,0,0-1.35-1.43Zm0,0a1.44,1.44,0,0,0-1.45,1.55,1.44,1.44,0,0,1,1.45-1.55,1.37,1.37,0,0,1,1.35,1.43,1.37,1.37,0,0,0-1.35-1.43Zm0,0a1.44,1.44,0,0,0-1.45,1.55v0a1.27,1.27,0,0,0,1.4,1.35H320a1.31,1.31,0,0,0,1.35-1.45v-.05a1.37,1.37,0,0,0-1.35-1.43Zm10.61,1.36a1.35,1.35,0,0,0-1.38,1.46v0a1.35,1.35,0,0,1,1.38-1.46h.13A1.41,1.41,0,0,1,332.1,316a1.41,1.41,0,0,0-1.37-1.47Zm0,0a1.35,1.35,0,0,0-1.38,1.46v0a1.35,1.35,0,0,1,1.38-1.46h.13A1.41,1.41,0,0,1,332.1,316a1.41,1.41,0,0,0-1.37-1.47Zm0,0a1.35,1.35,0,0,0-1.38,1.46v0a1.35,1.35,0,0,1,1.38-1.46h.13A1.41,1.41,0,0,1,332.1,316a1.41,1.41,0,0,0-1.37-1.47Zm0,0a1.35,1.35,0,0,0-1.38,1.46v0a1.35,1.35,0,0,1,1.38-1.46h.13A1.41,1.41,0,0,1,332.1,316a1.41,1.41,0,0,0-1.37-1.47Zm0,0a1.35,1.35,0,0,0-1.38,1.46v.1a1.27,1.27,0,0,0,1.31,1.36h.12c.89,0,1.29-.63,1.45-1.45a1.41,1.41,0,0,0-1.37-1.47Zm-9.26.07v.05a1.31,1.31,0,0,1-1.35,1.45h-.05a1.27,1.27,0,0,1-1.4-1.35v0a1.27,1.27,0,0,0,1.4,1.35H320a1.31,1.31,0,0,0,1.35-1.45v-.05Zm0,0v.05a1.31,1.31,0,0,1-1.35,1.45h-.05a1.27,1.27,0,0,1-1.4-1.35v0a1.27,1.27,0,0,0,1.4,1.35H320a1.31,1.31,0,0,0,1.35-1.45v-.05Zm0,0v.05a1.31,1.31,0,0,1-1.35,1.45h-.05a1.27,1.27,0,0,1-1.4-1.35v0a1.27,1.27,0,0,0,1.4,1.35H320a1.31,1.31,0,0,0,1.35-1.45v-.05Zm0,0v.05a1.31,1.31,0,0,1-1.35,1.45h-.05a1.27,1.27,0,0,1-1.4-1.35v0a1.27,1.27,0,0,0,1.4,1.35H320a1.31,1.31,0,0,0,1.35-1.45v-.05Zm-16.56.15a30.67,30.67,0,0,0,1,5.24,7.48,7.48,0,0,1,.26,1.23,7.48,7.48,0,0,0-.26-1.23,30.67,30.67,0,0,1-1-5.24Zm0,0a30.67,30.67,0,0,0,1,5.24,7.48,7.48,0,0,1,.26,1.23,7.48,7.48,0,0,0-.26-1.23,30.67,30.67,0,0,1-1-5.24Zm0,0a30.67,30.67,0,0,0,1,5.24,7.48,7.48,0,0,1,.26,1.23,7.48,7.48,0,0,0-.26-1.23,30.67,30.67,0,0,1-1-5.24Zm0,0a30.67,30.67,0,0,0,1,5.24,7.48,7.48,0,0,1,.26,1.23,7.48,7.48,0,0,0-.26-1.23,30.67,30.67,0,0,1-1-5.24Zm0,0c.92,1.38,1.68,2.83,2.54,4.22.69,1.12,1.13,1.67,1.62,1.67s1-.48,1.81-1.42l.3-.38a2.12,2.12,0,0,0,.6-1.28,2.12,2.12,0,0,1-.6,1.28l-.3.38c-.82.94-1.34,1.42-1.81,1.42s-.93-.55-1.62-1.67c-.86-1.39-1.62-2.84-2.54-4.22Zm0,0c.92,1.38,1.68,2.83,2.54,4.22.69,1.12,1.13,1.67,1.62,1.67s1-.48,1.81-1.42l.3-.38a2.12,2.12,0,0,0,.6-1.28,2.12,2.12,0,0,1-.6,1.28l-.3.38c-.82.94-1.34,1.42-1.81,1.42s-.93-.55-1.62-1.67c-.86-1.39-1.62-2.84-2.54-4.22Zm0,0c.92,1.38,1.68,2.83,2.54,4.22.69,1.12,1.13,1.67,1.62,1.67s1-.48,1.81-1.42l.3-.38a2.12,2.12,0,0,0,.6-1.28,2.12,2.12,0,0,1-.6,1.28l-.3.38c-.82.94-1.34,1.42-1.81,1.42s-.93-.55-1.62-1.67c-.86-1.39-1.62-2.84-2.54-4.22Zm0,0c.92,1.38,1.68,2.83,2.54,4.22.69,1.12,1.13,1.67,1.62,1.67s1-.48,1.81-1.42l.3-.38a2.12,2.12,0,0,0,.6-1.28,2.12,2.12,0,0,1-.6,1.28l-.3.38c-.82.94-1.34,1.42-1.81,1.42s-.93-.55-1.62-1.67c-.86-1.39-1.62-2.84-2.54-4.22ZM332.1,316c-.16.82-.56,1.45-1.45,1.45h-.12a1.27,1.27,0,0,1-1.31-1.36,1.27,1.27,0,0,0,1.31,1.36h.12c.89,0,1.29-.63,1.45-1.45Zm0,0c-.16.82-.56,1.45-1.45,1.45h-.12a1.27,1.27,0,0,1-1.31-1.36,1.27,1.27,0,0,0,1.31,1.36h.12c.89,0,1.29-.63,1.45-1.45Zm0,0c-.16.82-.56,1.45-1.45,1.45h-.12a1.27,1.27,0,0,1-1.31-1.36,1.27,1.27,0,0,0,1.31,1.36h.12c.89,0,1.29-.63,1.45-1.45Zm0,0c-.16.82-.56,1.45-1.45,1.45h-.12a1.27,1.27,0,0,1-1.31-1.36,1.27,1.27,0,0,0,1.31,1.36h.12c.89,0,1.29-.63,1.45-1.45Zm-64,.09a7,7,0,0,1-3.4,6.39,6.38,6.38,0,0,1-3.06.77c-3.13,0-6.47-2.15-8.49-5.89,2,3.74,5.36,5.89,8.49,5.89a6.38,6.38,0,0,0,3.06-.77,7,7,0,0,0,3.4-6.39Zm0,0a7,7,0,0,1-3.4,6.39,6.38,6.38,0,0,1-3.06.77c-3.13,0-6.47-2.15-8.49-5.89,2,3.74,5.36,5.89,8.49,5.89a6.38,6.38,0,0,0,3.06-.77,7,7,0,0,0,3.4-6.39Zm0,0a7,7,0,0,1-3.4,6.39,6.38,6.38,0,0,1-3.06.77c-3.13,0-6.47-2.15-8.49-5.89,2,3.74,5.36,5.89,8.49,5.89a6.38,6.38,0,0,0,3.06-.77,7,7,0,0,0,3.4-6.39Zm0,0a7,7,0,0,1-3.4,6.39,6.38,6.38,0,0,1-3.06.77c-3.13,0-6.47-2.15-8.49-5.89,2,3.74,5.36,5.89,8.49,5.89a6.38,6.38,0,0,0,3.06-.77,7,7,0,0,0,3.4-6.39Zm23.19.06a2.45,2.45,0,0,0-1,.29c-7.71,3.74-12.26,10-14.76,18a8.8,8.8,0,0,1-.67,1.74,10.53,10.53,0,0,1-.12-1.77,10.53,10.53,0,0,0,.12,1.77,8.8,8.8,0,0,0,.67-1.74c2.5-8,7-14.3,14.76-18a2.45,2.45,0,0,1,1-.29,1.48,1.48,0,0,1,1.16.68A6.32,6.32,0,0,0,296,319a3,3,0,0,0,.5.05,1.84,1.84,0,0,0,1.71-1.18,1.57,1.57,0,0,0,.2-.72,1.57,1.57,0,0,1-.2.72,1.84,1.84,0,0,1-1.71,1.18,3,3,0,0,1-.5-.05,6.32,6.32,0,0,1-3.62-2.23,1.48,1.48,0,0,0-1.16-.68Zm0,0a2.45,2.45,0,0,0-1,.29c-7.71,3.74-12.26,10-14.76,18a8.8,8.8,0,0,1-.67,1.74,10.53,10.53,0,0,1-.12-1.77,10.53,10.53,0,0,0,.12,1.77,8.8,8.8,0,0,0,.67-1.74c2.5-8,7-14.3,14.76-18a2.45,2.45,0,0,1,1-.29,1.48,1.48,0,0,1,1.16.68A6.32,6.32,0,0,0,296,319a3,3,0,0,0,.5.05,1.84,1.84,0,0,0,1.71-1.18,1.57,1.57,0,0,0,.2-.72,1.57,1.57,0,0,1-.2.72,1.84,1.84,0,0,1-1.71,1.18,3,3,0,0,1-.5-.05,6.32,6.32,0,0,1-3.62-2.23,1.48,1.48,0,0,0-1.16-.68Zm0,0a2.45,2.45,0,0,0-1,.29c-7.71,3.74-12.26,10-14.76,18a8.8,8.8,0,0,1-.67,1.74,10.53,10.53,0,0,1-.12-1.77,10.53,10.53,0,0,0,.12,1.77,8.8,8.8,0,0,0,.67-1.74c2.5-8,7-14.3,14.76-18a2.45,2.45,0,0,1,1-.29,1.48,1.48,0,0,1,1.16.68A6.32,6.32,0,0,0,296,319a3,3,0,0,0,.5.05,1.84,1.84,0,0,0,1.71-1.18,1.57,1.57,0,0,0,.2-.72,1.57,1.57,0,0,1-.2.72,1.84,1.84,0,0,1-1.71,1.18,3,3,0,0,1-.5-.05,6.32,6.32,0,0,1-3.62-2.23,1.48,1.48,0,0,0-1.16-.68Zm0,0a2.45,2.45,0,0,0-1,.29c-7.71,3.74-12.26,10-14.76,18a8.8,8.8,0,0,1-.67,1.74,10.53,10.53,0,0,1-.12-1.77,10.53,10.53,0,0,0,.12,1.77,8.8,8.8,0,0,0,.67-1.74c2.5-8,7-14.3,14.76-18a2.45,2.45,0,0,1,1-.29,1.48,1.48,0,0,1,1.16.68A6.32,6.32,0,0,0,296,319a3,3,0,0,0,.5.05,1.84,1.84,0,0,0,1.71-1.18,1.57,1.57,0,0,0,.2-.72,1.57,1.57,0,0,1-.2.72,1.84,1.84,0,0,1-1.71,1.18,3,3,0,0,1-.5-.05,6.32,6.32,0,0,1-3.62-2.23,1.48,1.48,0,0,0-1.16-.68Zm-38.14,1.21a11.63,11.63,0,0,0,9.35,10,9.79,9.79,0,0,0,2,.21,7.29,7.29,0,0,0,6.87-4.75,11.93,11.93,0,0,0,1-5,11.93,11.93,0,0,1-1,5,7.29,7.29,0,0,1-6.87,4.75,9.79,9.79,0,0,1-2-.21,11.63,11.63,0,0,1-9.35-10Zm0,0a11.63,11.63,0,0,0,9.35,10,9.79,9.79,0,0,0,2,.21,7.29,7.29,0,0,0,6.87-4.75,11.93,11.93,0,0,0,1-5,11.93,11.93,0,0,1-1,5,7.29,7.29,0,0,1-6.87,4.75,9.79,9.79,0,0,1-2-.21,11.63,11.63,0,0,1-9.35-10Zm0,0a11.63,11.63,0,0,0,9.35,10,9.79,9.79,0,0,0,2,.21,7.29,7.29,0,0,0,6.87-4.75,11.93,11.93,0,0,0,1-5,11.93,11.93,0,0,1-1,5,7.29,7.29,0,0,1-6.87,4.75,9.79,9.79,0,0,1-2-.21,11.63,11.63,0,0,1-9.35-10Zm0,0a11.63,11.63,0,0,0,9.35,10,9.79,9.79,0,0,0,2,.21,7.29,7.29,0,0,0,6.87-4.75,11.93,11.93,0,0,0,1-5,11.93,11.93,0,0,1-1,5,7.29,7.29,0,0,1-6.87,4.75,9.79,9.79,0,0,1-2-.21,11.63,11.63,0,0,1-9.35-10Zm48.3.52v0Zm0,0v0Zm0,0v0Zm0,0v0Zm0,.3c0,2.2.39,2.74,2.41,3.44a4.46,4.46,0,0,0,1.37.39.92.92,0,0,0,.6-.21.73.73,0,0,0,.24-.58.73.73,0,0,1-.24.58.92.92,0,0,1-.6.21,4.46,4.46,0,0,1-1.37-.39c-2-.7-2.41-1.24-2.41-3.44Zm0,0c0,2.2.39,2.74,2.41,3.44a4.46,4.46,0,0,0,1.37.39.92.92,0,0,0,.6-.21.73.73,0,0,0,.24-.58.73.73,0,0,1-.24.58.92.92,0,0,1-.6.21,4.46,4.46,0,0,1-1.37-.39c-2-.7-2.41-1.24-2.41-3.44Zm0,0c0,2.2.39,2.74,2.41,3.44a4.46,4.46,0,0,0,1.37.39.92.92,0,0,0,.6-.21.73.73,0,0,0,.24-.58.73.73,0,0,1-.24.58.92.92,0,0,1-.6.21,4.46,4.46,0,0,1-1.37-.39c-2-.7-2.41-1.24-2.41-3.44Zm0,0c0,2.2.39,2.74,2.41,3.44a4.46,4.46,0,0,0,1.37.39.92.92,0,0,0,.6-.21.73.73,0,0,0,.24-.58.73.73,0,0,1-.24.58.92.92,0,0,1-.6.21,4.46,4.46,0,0,1-1.37-.39c-2-.7-2.41-1.24-2.41-3.44Zm21.6.22a1.4,1.4,0,0,0-1.41,1.51v0a1.4,1.4,0,0,1,1.41-1.51h.08a1.31,1.31,0,0,1,1.36,1.37,1.31,1.31,0,0,0-1.36-1.37Zm0,0a1.4,1.4,0,0,0-1.41,1.51v0a1.4,1.4,0,0,1,1.41-1.51h.08a1.31,1.31,0,0,1,1.36,1.37,1.31,1.31,0,0,0-1.36-1.37Zm0,0a1.4,1.4,0,0,0-1.41,1.51v0a1.4,1.4,0,0,1,1.41-1.51h.08a1.31,1.31,0,0,1,1.36,1.37,1.31,1.31,0,0,0-1.36-1.37Zm0,0a1.4,1.4,0,0,0-1.41,1.51v0a1.4,1.4,0,0,1,1.41-1.51h.08a1.31,1.31,0,0,1,1.36,1.37,1.31,1.31,0,0,0-1.36-1.37Zm0,0a1.4,1.4,0,0,0-1.41,1.51V320c0,.84.54,1.25,1.4,1.36a1.41,1.41,0,0,0,1.45-1.5v-.09a1.31,1.31,0,0,0-1.36-1.37Zm1.44,1.37v.09a1.41,1.41,0,0,1-1.45,1.5c-.86-.11-1.4-.52-1.4-1.36,0,.84.54,1.25,1.4,1.36a1.41,1.41,0,0,0,1.45-1.5v-.09Zm0,0v.09a1.41,1.41,0,0,1-1.45,1.5c-.86-.11-1.4-.52-1.4-1.36,0,.84.54,1.25,1.4,1.36a1.41,1.41,0,0,0,1.45-1.5v-.09Zm0,0v.09a1.41,1.41,0,0,1-1.45,1.5c-.86-.11-1.4-.52-1.4-1.36,0,.84.54,1.25,1.4,1.36a1.41,1.41,0,0,0,1.45-1.5v-.09Zm0,0v.09a1.41,1.41,0,0,1-1.45,1.5c-.86-.11-1.4-.52-1.4-1.36,0,.84.54,1.25,1.4,1.36a1.41,1.41,0,0,0,1.45-1.5v-.09Zm-8.41.61H316a1.4,1.4,0,0,0-1.4,1.59v0a1.4,1.4,0,0,1,1.4-1.59H316a1.34,1.34,0,0,1,1.42,1.19,1.34,1.34,0,0,0-1.42-1.19Zm0,0H316a1.4,1.4,0,0,0-1.4,1.59v0a1.4,1.4,0,0,1,1.4-1.59H316a1.34,1.34,0,0,1,1.42,1.19,1.34,1.34,0,0,0-1.42-1.19Zm0,0H316a1.4,1.4,0,0,0-1.4,1.59v0a1.4,1.4,0,0,1,1.4-1.59H316a1.34,1.34,0,0,1,1.42,1.19,1.34,1.34,0,0,0-1.42-1.19Zm0,0H316a1.4,1.4,0,0,0-1.4,1.59v0a1.4,1.4,0,0,1,1.4-1.59H316a1.34,1.34,0,0,1,1.42,1.19,1.34,1.34,0,0,0-1.42-1.19Zm0,0H316a1.4,1.4,0,0,0-1.4,1.59v0a1.31,1.31,0,0,0,1.46,1.33c.94,0,1.35-.69,1.41-1.75a1.34,1.34,0,0,0-1.42-1.19Zm1.42,1.19c-.06,1.06-.47,1.74-1.41,1.75a1.31,1.31,0,0,1-1.46-1.33,1.31,1.31,0,0,0,1.46,1.33c.94,0,1.35-.69,1.41-1.75Zm0,0c-.06,1.06-.47,1.74-1.41,1.75a1.31,1.31,0,0,1-1.46-1.33,1.31,1.31,0,0,0,1.46,1.33c.94,0,1.35-.69,1.41-1.75Zm0,0c-.06,1.06-.47,1.74-1.41,1.75a1.31,1.31,0,0,1-1.46-1.33,1.31,1.31,0,0,0,1.46,1.33c.94,0,1.35-.69,1.41-1.75Zm0,0c-.06,1.06-.47,1.74-1.41,1.75a1.31,1.31,0,0,1-1.46-1.33,1.31,1.31,0,0,0,1.46,1.33c.94,0,1.35-.69,1.41-1.75Zm12.25.62c-.89,0-1.32.6-1.39,1.44,0,.05,0,.11,0,.16s0-.11,0-.16c.07-.84.5-1.44,1.39-1.44h.13a1.41,1.41,0,0,1,1.35,1.48,1.41,1.41,0,0,0-1.35-1.48Zm0,0c-.89,0-1.32.6-1.39,1.44,0,.05,0,.11,0,.16s0-.11,0-.16c.07-.84.5-1.44,1.39-1.44h.13a1.41,1.41,0,0,1,1.35,1.48,1.41,1.41,0,0,0-1.35-1.48Zm0,0c-.89,0-1.32.6-1.39,1.44,0,.05,0,.11,0,.16s0-.11,0-.16c.07-.84.5-1.44,1.39-1.44h.13a1.41,1.41,0,0,1,1.35,1.48,1.41,1.41,0,0,0-1.35-1.48Zm0,0c-.89,0-1.32.6-1.39,1.44,0,.05,0,.11,0,.16s0-.11,0-.16c.07-.84.5-1.44,1.39-1.44h.13a1.41,1.41,0,0,1,1.35,1.48,1.41,1.41,0,0,0-1.35-1.48Zm0,0c-.89,0-1.32.6-1.39,1.44,0,.05,0,.11,0,.16a1.25,1.25,0,0,0,1.31,1.3h.13c.88,0,1.29-.58,1.44-1.42a1.41,1.41,0,0,0-1.35-1.48Zm-40.12,1.27c-.91,0-1.32.65-1.36,1.5v0c0-.85.45-1.5,1.36-1.5h.1a1.41,1.41,0,0,1,1.41,1.37,1.41,1.41,0,0,0-1.41-1.37Zm0,0c-.91,0-1.32.65-1.36,1.5v0c0-.85.45-1.5,1.36-1.5h.1a1.41,1.41,0,0,1,1.41,1.37,1.41,1.41,0,0,0-1.41-1.37Zm0,0c-.91,0-1.32.65-1.36,1.5v0c0-.85.45-1.5,1.36-1.5h.1a1.41,1.41,0,0,1,1.41,1.37,1.41,1.41,0,0,0-1.41-1.37Zm0,0c-.91,0-1.32.65-1.36,1.5v0c0-.85.45-1.5,1.36-1.5h.1a1.41,1.41,0,0,1,1.41,1.37,1.41,1.41,0,0,0-1.41-1.37Zm0,0c-.91,0-1.32.65-1.36,1.5V325a1.24,1.24,0,0,0,1.35,1.32h.06c.95,0,1.3-.66,1.46-1.54a1.41,1.41,0,0,0-1.41-1.37Zm8.55.08h-.09a1.4,1.4,0,0,0-1.43,1.52,1.4,1.4,0,0,1,1.43-1.52h.09c.81,0,1.26.52,1.35,1.41-.09-.89-.54-1.41-1.35-1.41Zm0,0h-.09a1.4,1.4,0,0,0-1.43,1.52,1.4,1.4,0,0,1,1.43-1.52h.09c.81,0,1.26.52,1.35,1.41-.09-.89-.54-1.41-1.35-1.41Zm0,0h-.09a1.4,1.4,0,0,0-1.43,1.52,1.4,1.4,0,0,1,1.43-1.52h.09c.81,0,1.26.52,1.35,1.41-.09-.89-.54-1.41-1.35-1.41Zm0,0h-.09a1.4,1.4,0,0,0-1.43,1.52,1.4,1.4,0,0,1,1.43-1.52h.09c.81,0,1.26.52,1.35,1.41-.09-.89-.54-1.41-1.35-1.41Zm0,0h-.09a1.4,1.4,0,0,0-1.43,1.52v.05a1.36,1.36,0,0,0,1.45,1.39c1,0,1.33-.72,1.42-1.55-.09-.89-.54-1.41-1.35-1.41Zm33.05.13c-.15.84-.56,1.42-1.44,1.42h-.13a1.25,1.25,0,0,1-1.31-1.3,1.25,1.25,0,0,0,1.31,1.3h.13c.88,0,1.29-.58,1.44-1.42Zm0,0c-.15.84-.56,1.42-1.44,1.42h-.13a1.25,1.25,0,0,1-1.31-1.3,1.25,1.25,0,0,0,1.31,1.3h.13c.88,0,1.29-.58,1.44-1.42Zm0,0c-.15.84-.56,1.42-1.44,1.42h-.13a1.25,1.25,0,0,1-1.31-1.3,1.25,1.25,0,0,0,1.31,1.3h.13c.88,0,1.29-.58,1.44-1.42Zm0,0c-.15.84-.56,1.42-1.44,1.42h-.13a1.25,1.25,0,0,1-1.31-1.3,1.25,1.25,0,0,0,1.31,1.3h.13c.88,0,1.29-.58,1.44-1.42Zm-40.09,1.16c-.16.88-.51,1.54-1.46,1.54h-.06a1.24,1.24,0,0,1-1.35-1.32,1.24,1.24,0,0,0,1.35,1.32h.06c.95,0,1.3-.66,1.46-1.54Zm0,0c-.16.88-.51,1.54-1.46,1.54h-.06a1.24,1.24,0,0,1-1.35-1.32,1.24,1.24,0,0,0,1.35,1.32h.06c.95,0,1.3-.66,1.46-1.54Zm0,0c-.16.88-.51,1.54-1.46,1.54h-.06a1.24,1.24,0,0,1-1.35-1.32,1.24,1.24,0,0,0,1.35,1.32h.06c.95,0,1.3-.66,1.46-1.54Zm0,0c-.16.88-.51,1.54-1.46,1.54h-.06a1.24,1.24,0,0,1-1.35-1.32,1.24,1.24,0,0,0,1.35,1.32h.06c.95,0,1.3-.66,1.46-1.54Zm8.39.12c-.09.83-.43,1.55-1.42,1.55a1.36,1.36,0,0,1-1.45-1.39v0a1.36,1.36,0,0,0,1.45,1.39c1,0,1.33-.72,1.42-1.55Zm0,0c-.09.83-.43,1.55-1.42,1.55a1.36,1.36,0,0,1-1.45-1.39v0a1.36,1.36,0,0,0,1.45,1.39c1,0,1.33-.72,1.42-1.55Zm0,0c-.09.83-.43,1.55-1.42,1.55a1.36,1.36,0,0,1-1.45-1.39v0a1.36,1.36,0,0,0,1.45,1.39c1,0,1.33-.72,1.42-1.55Zm0,0c-.09.83-.43,1.55-1.42,1.55a1.36,1.36,0,0,1-1.45-1.39v0a1.36,1.36,0,0,0,1.45,1.39c1,0,1.33-.72,1.42-1.55Zm21.57,1.32H321a1.3,1.3,0,0,0-1.4,1.47,1.3,1.3,0,0,1,1.4-1.47h.05a1.38,1.38,0,0,1,1.43,1.28,1.38,1.38,0,0,0-1.43-1.28Zm0,0H321a1.3,1.3,0,0,0-1.4,1.47,1.3,1.3,0,0,1,1.4-1.47h.05a1.38,1.38,0,0,1,1.43,1.28,1.38,1.38,0,0,0-1.43-1.28Zm0,0H321a1.3,1.3,0,0,0-1.4,1.47,1.3,1.3,0,0,1,1.4-1.47h.05a1.38,1.38,0,0,1,1.43,1.28,1.38,1.38,0,0,0-1.43-1.28Zm0,0H321a1.3,1.3,0,0,0-1.4,1.47,1.3,1.3,0,0,1,1.4-1.47h.05a1.38,1.38,0,0,1,1.43,1.28,1.38,1.38,0,0,0-1.43-1.28Zm0,0H321a1.3,1.3,0,0,0-1.4,1.47v.06a1.27,1.27,0,0,0,1.36,1.36h0c1,0,1.34-.68,1.47-1.61a1.38,1.38,0,0,0-1.43-1.28Zm1.43,1.28c-.13.93-.51,1.6-1.47,1.61h0a1.27,1.27,0,0,1-1.36-1.36v0a1.27,1.27,0,0,0,1.36,1.36h0c1,0,1.34-.68,1.47-1.61Zm0,0c-.13.93-.51,1.6-1.47,1.61h0a1.27,1.27,0,0,1-1.36-1.36v0a1.27,1.27,0,0,0,1.36,1.36h0c1,0,1.34-.68,1.47-1.61Zm0,0c-.13.93-.51,1.6-1.47,1.61h0a1.27,1.27,0,0,1-1.36-1.36v0a1.27,1.27,0,0,0,1.36,1.36h0c1,0,1.34-.68,1.47-1.61Zm0,0c-.13.93-.51,1.6-1.47,1.61h0a1.27,1.27,0,0,1-1.36-1.36v0a1.27,1.27,0,0,0,1.36,1.36h0c1,0,1.34-.68,1.47-1.61Zm-28.14,2.24a1.37,1.37,0,0,0-1.3,1.49,1.37,1.37,0,0,1,1.3-1.49c.89,0,1.5.42,1.54,1.29v0c0-.87-.65-1.26-1.54-1.29Zm0,0a1.37,1.37,0,0,0-1.3,1.49,1.37,1.37,0,0,1,1.3-1.49c.89,0,1.5.42,1.54,1.29v0c0-.87-.65-1.26-1.54-1.29Zm0,0a1.37,1.37,0,0,0-1.3,1.49,1.37,1.37,0,0,1,1.3-1.49c.89,0,1.5.42,1.54,1.29v0c0-.87-.65-1.26-1.54-1.29Zm0,0a1.37,1.37,0,0,0-1.3,1.49,1.37,1.37,0,0,1,1.3-1.49c.89,0,1.5.42,1.54,1.29v0c0-.87-.65-1.26-1.54-1.29Zm0,0a1.37,1.37,0,0,0-1.3,1.49v.14a1.26,1.26,0,0,0,1.36,1.27h.13a1.36,1.36,0,0,0,1.35-1.5V331c0-.87-.65-1.26-1.54-1.29Zm1.54,1.4a1.36,1.36,0,0,1-1.35,1.5h-.13a1.26,1.26,0,0,1-1.36-1.27v0a1.26,1.26,0,0,0,1.36,1.27h.13a1.36,1.36,0,0,0,1.35-1.5Zm0,0a1.36,1.36,0,0,1-1.35,1.5h-.13a1.26,1.26,0,0,1-1.36-1.27v0a1.26,1.26,0,0,0,1.36,1.27h.13a1.36,1.36,0,0,0,1.35-1.5Zm0,0a1.36,1.36,0,0,1-1.35,1.5h-.13a1.26,1.26,0,0,1-1.36-1.27v0a1.26,1.26,0,0,0,1.36,1.27h.13a1.36,1.36,0,0,0,1.35-1.5Zm0,0a1.36,1.36,0,0,1-1.35,1.5h-.13a1.26,1.26,0,0,1-1.36-1.27v0a1.26,1.26,0,0,0,1.36,1.27h.13a1.36,1.36,0,0,0,1.35-1.5Zm-8.92.41a1.33,1.33,0,0,0-1.39,1.48v0a1.33,1.33,0,0,1,1.39-1.48h.09a1.39,1.39,0,0,1,1.39,1.48,1.39,1.39,0,0,0-1.39-1.48Zm0,0a1.33,1.33,0,0,0-1.39,1.48v0a1.33,1.33,0,0,1,1.39-1.48h.09a1.39,1.39,0,0,1,1.39,1.48,1.39,1.39,0,0,0-1.39-1.48Zm0,0a1.33,1.33,0,0,0-1.39,1.48v0a1.33,1.33,0,0,1,1.39-1.48h.09a1.39,1.39,0,0,1,1.39,1.48,1.39,1.39,0,0,0-1.39-1.48Zm0,0a1.33,1.33,0,0,0-1.39,1.48v0a1.33,1.33,0,0,1,1.39-1.48h.09a1.39,1.39,0,0,1,1.39,1.48,1.39,1.39,0,0,0-1.39-1.48Zm0,0a1.33,1.33,0,0,0-1.39,1.48v.05a1.31,1.31,0,0,0,1.35,1.4H287c.88,0,1.27-.66,1.41-1.45a1.39,1.39,0,0,0-1.39-1.48Zm14.83.09a1.33,1.33,0,0,0-1.42,1.29v0a1.33,1.33,0,0,1,1.42-1.29h.05a1.25,1.25,0,0,1,1.37,1.29,1.25,1.25,0,0,0-1.37-1.29Zm0,0a1.33,1.33,0,0,0-1.42,1.29v0a1.33,1.33,0,0,1,1.42-1.29h.05a1.25,1.25,0,0,1,1.37,1.29,1.25,1.25,0,0,0-1.37-1.29Zm0,0a1.33,1.33,0,0,0-1.42,1.29v0a1.33,1.33,0,0,1,1.42-1.29h.05a1.25,1.25,0,0,1,1.37,1.29,1.25,1.25,0,0,0-1.37-1.29Zm0,0a1.33,1.33,0,0,0-1.42,1.29v0a1.33,1.33,0,0,1,1.42-1.29h.05a1.25,1.25,0,0,1,1.37,1.29,1.25,1.25,0,0,0-1.37-1.29Zm0,0a1.33,1.33,0,0,0-1.42,1.29v0a1.38,1.38,0,0,0,1.3,1.57h.17a1.38,1.38,0,0,0,1.37-1.48v-.13a1.25,1.25,0,0,0-1.37-1.29Zm1.42,1.29v.13a1.38,1.38,0,0,1-1.37,1.48h-.17a1.38,1.38,0,0,1-1.3-1.57,1.38,1.38,0,0,0,1.3,1.57h.17a1.38,1.38,0,0,0,1.37-1.48v-.13Zm0,0v.13a1.38,1.38,0,0,1-1.37,1.48h-.17a1.38,1.38,0,0,1-1.3-1.57,1.38,1.38,0,0,0,1.3,1.57h.17a1.38,1.38,0,0,0,1.37-1.48v-.13Zm0,0v.13a1.38,1.38,0,0,1-1.37,1.48h-.17a1.38,1.38,0,0,1-1.3-1.57,1.38,1.38,0,0,0,1.3,1.57h.17a1.38,1.38,0,0,0,1.37-1.48v-.13Zm0,0v.13a1.38,1.38,0,0,1-1.37,1.48h-.17a1.38,1.38,0,0,1-1.3-1.57,1.38,1.38,0,0,0,1.3,1.57h.17a1.38,1.38,0,0,0,1.37-1.48v-.13Zm-14.77.1c-.14.79-.53,1.45-1.41,1.45h-.11a1.31,1.31,0,0,1-1.35-1.4,1.31,1.31,0,0,0,1.35,1.4H287c.88,0,1.27-.66,1.41-1.45Zm0,0c-.14.79-.53,1.45-1.41,1.45h-.11a1.31,1.31,0,0,1-1.35-1.4,1.31,1.31,0,0,0,1.35,1.4H287c.88,0,1.27-.66,1.41-1.45Zm0,0c-.14.79-.53,1.45-1.41,1.45h-.11a1.31,1.31,0,0,1-1.35-1.4,1.31,1.31,0,0,0,1.35,1.4H287c.88,0,1.27-.66,1.41-1.45Zm0,0c-.14.79-.53,1.45-1.41,1.45h-.11a1.31,1.31,0,0,1-1.35-1.4,1.31,1.31,0,0,0,1.35,1.4H287c.88,0,1.27-.66,1.41-1.45Z"/><text class="cls-2" transform="translate(194.21 312.35) rotate(-89.09)">W</text><text class="cls-2" transform="matrix(0.22, -0.98, 0.98, 0.22, 195.14, 285.03)">E</text><text class="cls-2" transform="translate(198.89 269.35) rotate(-71.32)"> </text><text class="cls-2" transform="matrix(0.42, -0.91, 0.91, 0.42, 200.56, 263.5)">P</text><text class="cls-2" transform="translate(207.07 248.92) rotate(-55.84)">U</text><text class="cls-2" transform="translate(217.76 233.29) rotate(-46.51)">T</text><text class="cls-2" transform="translate(228.91 221.87) rotate(-40.56)"> </text><text class="cls-2" transform="translate(233.35 217.7) rotate(-34.59)">T</text><text class="cls-2" transform="translate(246.17 208.59) rotate(-25.06)">H</text><text class="cls-2" transform="translate(263.72 200.48) rotate(-15.46)">E</text><text class="cls-2" transform="matrix(0.99, -0.16, 0.16, 0.99, 279.32, 196.41)"> </text><text class="cls-2" transform="matrix(1, -0.07, 0.07, 1, 285.32, 195.19)"></text><text class="cls-2" transform="matrix(1, 0.06, -0.06, 1, 297.94, 194.06)">K</text><text class="cls-2" transform="matrix(0.98, 0.21, -0.21, 0.98, 315.29, 195.3)"></text><text class="cls-2" transform="translate(327.83 198.08) rotate(17.08)"> </text><text class="cls-2" transform="translate(333.81 199.88) rotate(20.89)">I</text><text class="cls-2" transform="matrix(0.88, 0.47, -0.47, 0.88, 340.97, 202.14)">N</text><text class="cls-2" transform="matrix(0.82, 0.58, -0.58, 0.82, 358.23, 211.87)"> </text><text class="cls-2" transform="matrix(0.75, 0.66, -0.66, 0.75, 363.39, 215.09)">K</text><text class="cls-2" transform="translate(376.47 226.41) rotate(51.87)">O</text><text class="cls-2" transform="translate(389.18 242.75) rotate(62.13)">R</text><text class="cls-2" transform="translate(397.21 257.91) rotate(71.14)">E</text><text class="cls-2" transform="translate(402.96 274.85) rotate(81.33)">A</text><text class="cls-2" transform="translate(405.82 292.81) rotate(91.57)">N</text><path class="cls-1" d="M328,278.17v0h0Z"/><path class="cls-1" d="M339.66,313.52c-3.17-1.34-6.25-2.86-9.5-4a46.3,46.3,0,0,0-13.4-2.91c-1.24-.05-1.85.05-1.63,1.56a9.85,9.85,0,0,1-.6,4.88c-.3.83-.77,1.61-1.84,1.39s-1.14-1.05-1.14-1.88.11-1.81.16-2.72-.06-1.93-1.26-2a2,2,0,0,0-2.28,1.78,5.76,5.76,0,0,0,.62,3.26,9.85,9.85,0,0,0,2.23,3.48c1,.92.7,1.64,0,2.46l-.3.38c-1.7,1.93-2.09,1.93-3.43-.25-.86-1.39-1.62-2.84-2.54-4.22a30.67,30.67,0,0,0,1,5.24c.11.6.52,1.38,0,1.81s-1.34,0-2-.18c-2.05-.71-2.42-1.25-2.41-3.53,0-2.69-.31-5.18-3.29-6.28-.81-.3-1.66-.62-2.36.22s-.24,1.75.29,2.48a7.51,7.51,0,0,0,1.5,1.42c.69.53,1.19,1,.69,2A1.86,1.86,0,0,1,296,319a6.32,6.32,0,0,1-3.62-2.23,1.5,1.5,0,0,0-2.17-.39c-7.71,3.74-12.26,10-14.76,18a8.8,8.8,0,0,1-.67,1.74,14.49,14.49,0,0,1,.47-5.9,27.45,27.45,0,0,1,14.2-17.87c.51-.26,1.1-.41,1.24-1.13,1-4.87,4.14-7.91,8.44-10l.42-.48a3.46,3.46,0,0,1,3.28-.92l.33.09c1.2.38,2.45-.07,3.65.27a12.53,12.53,0,0,1,6.05,2.35,3,3,0,0,0,1.95.49C324.45,303.39,332.41,307.63,339.66,313.52Z"/><path class="cls-1" d="M312.61,289.75l-.39,0A1.79,1.79,0,0,1,312.61,289.75Z"/><path class="cls-1" d="M328,278.19h0v0Z"/><path class="cls-1" d="M328,278.19h0v0Z"/><polygon class="cls-1" points="328 278.19 327.99 278.17 327.99 278.17 328 278.19"/><circle class="cls-1" cx="189.14" cy="336.97" r="4.45"/><circle class="cls-1" cx="411.07" cy="336.97" r="4.45"/><text class="cls-3" transform="translate(195.27 370.68) rotate(52.37)">G</text><text class="cls-3" transform="matrix(0.72, 0.69, -0.69, 0.72, 206.47, 385.03)">O</text><text class="cls-3" transform="matrix(0.82, 0.57, -0.57, 0.82, 221.08, 398.69)">U</text><text class="cls-3" transform="translate(236.13 409) rotate(27.05)">R</text><text class="cls-3" transform="translate(251.46 416.92) rotate(17.52)">M</text><text class="cls-3" transform="translate(274.86 423.76) rotate(8.36)">E</text><text class="cls-3" transform="translate(290.18 425.89) rotate(1.45)">T</text><text class="cls-3" transform="translate(304.97 426.04) rotate(-3.43)"> </text><text class="cls-3" transform="matrix(0.99, -0.15, 0.15, 0.99, 311.79, 425.78)">K</text><text class="cls-3" transform="translate(327.83 423.06) rotate(-14.25)">I</text><text class="cls-3" transform="translate(335.64 421.17) rotate(-19.49)">T</text><text class="cls-3" transform="translate(350.18 415.93) rotate(-26.75)">C</text><text class="cls-3" transform="matrix(0.82, -0.57, 0.57, 0.82, 365.02, 408.36)">H</text><text class="cls-3" transform="matrix(0.74, -0.68, 0.68, 0.74, 380.12, 397.61)">E</text><text class="cls-3" transform="translate(391.71 386.95) rotate(-50.28)">N</text></svg>