<?xml version="1.0" encoding="utf-8"?>
<!-- Generator: Adobe Illustrator 22.0.1, SVG Export Plug-In . SVG Version: 6.00 Build 0)  -->
<svg version="1.1" id="Layer_1" xmlns="http://www.w3.org/2000/svg" xmlns:xlink="http://www.w3.org/1999/xlink" x="0px" y="0px"
	 viewBox="0 0 805 789.6" style="enable-background:new 0 0 805 789.6;" xml:space="preserve">
<style type="text/css">
	.st0{fill:#4156A6;}
	.st1{fill:#2474AE;}
	.st2{fill:#FFFFFF;}
	.st3{fill:#13263D;}
	.st4{fill:#C60000;}
	.st5{fill:#FCFDFD;}
	.st6{fill:#FEC324;}
	.st7{fill:#FE8024;}
	.st8{fill:#132249;}
</style>
<rect y="0" class="st0" width="805" height="789.6"/>
<path class="st2" d="M606.8,391.1c0,11.9-4.8,22.8-12.7,30.6c-7.8,7.8-18.6,12.7-30.6,12.7H241.4c-4.9,0-9.6-0.8-14-2.3
	c-0.5-0.2-1.1-0.4-1.6-0.6c-0.2-0.1-0.3-0.1-0.5-0.2c-2.3-0.9-4.6-2-6.7-3.4c0,0,0,0,0,0c-1.1-0.7-2.3-1.5-3.3-2.3
	c-10.5-7.9-17.2-20.4-17.2-34.6c0-11.9,4.8-22.8,12.7-30.6c7.8-7.8,18.6-12.7,30.6-12.7h322.1c5.2,0,10.2,0.9,14.8,2.6v0
	c0.2,0.1,0.3,0.1,0.5,0.2c0.2,0.1,0.5,0.2,0.7,0.3c1.9,0.8,3.7,1.6,5.5,2.6c0.4,0.2,0.8,0.5,1.2,0.7c1.3,0.8,2.5,1.6,3.7,2.6
	C600.2,364.7,606.8,377.1,606.8,391.1z"/>
<g>
	<path class="st0" d="M235.5,373.7c-5.6,0-11.1,0.1-16.7,0.1v54.1c2.1,1.3,4.3,2.4,6.7,3.4v-32.5h10
		C252.8,398.8,252.8,373.7,235.5,373.7z M235.5,392.7h-10v-12.6h10C244,380.1,244,392.7,235.5,392.7z"/>
	<path class="st0" d="M264.4,383.6c-2.5,0-5.1,0.5-7,3.5l-0.5-2.9h-5.7v25h6.2V396c0-4.6,3-6.3,6.2-6.3c2,0,3.2,0.6,4.5,1.6l2.8-5.4
		C269.5,384.6,267,383.6,264.4,383.6z"/>
	<path class="st0" d="M284.7,383.7c-7.9,0-12.9,5.9-12.9,13c0,7.2,4.9,13,13,13c8.1,0,13-5.8,13-13
		C297.7,389.6,292.6,383.7,284.7,383.7z M284.7,404.1c-4.5,0-6.8-3.5-6.8-7.3c0-3.7,2.3-7.4,6.8-7.4c4.2,0,6.8,3.6,6.8,7.4
		C291.5,400.5,289.2,404.1,284.7,404.1z"/>
	<path class="st0" d="M313.7,378.5c1.3,0,2.5,0.5,3.8,1.3l2.3-4.6c-2-1.3-4.3-2-6.5-2c-5,0-9.5,3.1-9.5,9.8v1.7h-4.7v5.4h4.7v19.2
		h6.2V390h7.3v-5.4h-7.3v-1.7C309.9,379.9,311.5,378.5,313.7,378.5z"/>
	<path class="st0" d="M320.8,377.2c0,4.8,7.3,4.8,7.3,0S320.8,372.4,320.8,377.2z M321.4,384.1v25.1h6.2v-25.1H321.4z"/>
	<path class="st0" d="M347.7,403.2c-0.9,0.5-2,0.8-3,0.8c-1.9,0-3.2-1.2-3.2-3.5v-10.8h6.9v-5.3h-6.9v-7.1l-6.2,0.7v6.4h-4.7v5.3
		h4.7v10.8c0,6.2,3.5,9.3,9,9.1c1.9-0.1,3.3-0.4,5.1-1.1L347.7,403.2z"/>
	<path class="st0" d="M372.6,384.2l-0.2,3.4c-1.4-2.5-4.6-4.1-7.9-4.1c-7.3-0.1-13,4.5-13,13.1c0,8.8,5.5,13.3,12.9,13.3
		c2.8-0.1,6.7-1.5,8.1-4.4l0.3,3.6h5.8v-25H372.6z M365,404.3c-4.1,0-7.4-2.8-7.4-7.6c0-4.8,3.3-7.5,7.4-7.5
		C374.7,389.2,374.7,404.3,365,404.3z"/>
	<path class="st0" d="M397.3,383.6c-2.6,0-6.7,1.4-8.2,4v-13.8H383v35.4h5.8l0.4-3.4c1.9,3,5,4,8,4c7.3,0,12.9-4.9,12.9-13.1
		C410,388.1,404.6,383.6,397.3,383.6z M396.8,404c-3.9,0-7.2-2.8-7.2-7.3c0-4.4,3.3-7.3,7.2-7.3c3.9,0,7.1,2.8,7.1,7.3
		C403.9,401.1,400.7,404,396.8,404z"/>
	<path class="st0" d="M414.3,373.8v35.4h6.1v-35.4H414.3z"/>
	<path class="st0" d="M437.8,383.5c-8.1,0-13.3,5.5-13.3,13.1c0,8,5.1,13.3,13.7,13.3c3.8,0,8.1-1.3,10.7-4l-3.9-3.9
		c-1.4,1.5-4.4,2.3-6.7,2.3c-4.4,0-7-2.2-7.4-5.3h19.5C451.3,388.6,446.1,383.5,437.8,383.5z M431,393.8c0.9-3.2,3.6-4.9,7-4.9
		c3.5,0,6.1,1.6,6.5,4.9H431z"/>
	<path class="st0" d="M481.6,388.7v6h9.1v6.3c-2.8,2.2-5.2,2.8-8,2.8c-8.8,0-12.2-6-12.2-11.8c0-7.3,4.6-13.1,12.2-13.1
		c3.1,0,6.6,1.3,9,3.5l4.2-4.3c-3.6-3.6-8.4-5.4-13.2-5.4c-12.5,0-18.7,9.2-18.7,19.2c0,9.3,5.4,18.1,18.7,18.1
		c6.2,0,10.6-2.4,14.1-6.4v-14.9H481.6z"/>
	<path class="st0" d="M513.2,383.7c-7.9,0-12.9,5.9-12.9,13c0,7.2,4.9,13,13,13c8.1,0,13-5.8,13-13
		C526.3,389.6,521.2,383.7,513.2,383.7z M513.3,404.1c-4.5,0-6.8-3.5-6.8-7.3c0-3.7,2.3-7.4,6.8-7.4c4.2,0,6.8,3.6,6.8,7.4
		C520.1,400.5,517.8,404.1,513.3,404.1z"/>
	<path class="st0" d="M542,383.7c-7.9,0-12.9,5.9-12.9,13c0,7.2,4.9,13,13,13c8.1,0,13-5.8,13-13C555.1,389.6,550,383.7,542,383.7z
		 M542.1,404.1c-4.5,0-6.8-3.5-6.8-7.3c0-3.7,2.3-7.4,6.8-7.4c4.2,0,6.8,3.6,6.8,7.4C548.9,400.5,546.6,404.1,542.1,404.1z"/>
	<path class="st0" d="M579.6,350.9c-0.2-0.1-0.5-0.2-0.7-0.3v37c-1.5-2.6-5.6-4-8.2-4c-7.3,0-12.7,4.5-12.7,13.1
		c0,8.2,5.5,13.1,12.9,13.1c3,0,6.1-1,8-4l0.4,3.4h5.8v-55.7C583.3,352.5,581.4,351.6,579.6,350.9z M571.2,404c-3.9,0-7.1-3-7.1-7.3
		c0-4.5,3.1-7.3,7.1-7.3c3.9,0,7.2,2.9,7.2,7.3C578.4,401.2,575.1,404,571.2,404z"/>
</g>
</svg>
