<svg id="Layer_1" data-name="Layer 1" xmlns="http://www.w3.org/2000/svg" viewBox="0 0 600 600"><defs><style>.cls-1{fill:#fff;}</style></defs><title>rt</title><path class="cls-1" d="M388.93,260.54H371.48a81.68,81.68,0,0,1-96.3,117.27v16.27A97.3,97.3,0,0,0,388.93,260.54Z"/><path class="cls-1" d="M374.89,238a97.24,97.24,0,1,0-107.51,153.7V304.22h3.18L284.75,362h16.08v-.63l-14.45-57.18h3.74c2.81-.2,4.89-1.1,6.25-2.68s2-4,2-7.23V248.52q0-10.56-10.56-10.56H251.78V365.87A81.63,81.63,0,1,1,353,238H304v14.78h14.29V362h15.59V252.74H385A97.36,97.36,0,0,0,374.89,238Zm-107.51,14.3h15.11v40.92H267.38Z"/></svg>