<?xml version="1.0" encoding="utf-8"?>
<!-- Generator: Adobe Illustrator 22.0.1, SVG Export Plug-In . SVG Version: 6.00 Build 0)  -->
<svg version="1.1" id="Layer_1" xmlns="http://www.w3.org/2000/svg" xmlns:xlink="http://www.w3.org/1999/xlink" x="0px" y="0px"
	 viewBox="0 0 600 600" style="enable-background:new 0 0 600 600;" xml:space="preserve">
<title>rt</title>
<path d="M388.9,260.5h-17.4c21.8,39.5,7.4,89.2-32.1,111c-19.6,10.8-42.8,13.1-64.2,6.3v16.3c52,13.7,105.2-17.3,118.9-69.3
	C399.7,303.4,397.9,280.8,388.9,260.5z"/>
<path d="M374.9,238c-34.3-41.3-95.6-47-136.9-12.7s-47,95.6-12.7,136.9c11.1,13.4,25.7,23.6,42.1,29.5v-87.5h3.2l14.2,57.8h16.1
	v-0.6l-14.5-57.2h3.7c2.8-0.2,4.9-1.1,6.3-2.7s2-4,2-7.2v-45.8c0-7-3.5-10.6-10.6-10.6h-36v127.9c-36.6-26.3-45-77.3-18.7-113.9
	s77.3-45,113.9-18.7c2.1,1.5,4,3,6,4.7h-49v14.8h14.3V362h15.6V252.7H385C382.1,247.5,378.7,242.6,374.9,238z M267.4,252.3h15.1
	v40.9h-15.1V252.3z"/>
</svg>
