<?xml version="1.0" encoding="utf-8"?>
<!-- Generator: Adobe Illustrator 22.0.1, SVG Export Plug-In . SVG Version: 6.00 Build 0)  -->
<svg version="1.1" id="Layer_1" xmlns="http://www.w3.org/2000/svg" xmlns:xlink="http://www.w3.org/1999/xlink" x="0px" y="0px"
	 viewBox="0 0 805 789.6" style="enable-background:new 0 0 805 789.6;" xml:space="preserve">
<style type="text/css">
	.st0{fill:#2474AE;}
	.st1{fill:#4156A6;}
	.st2{fill:#FFFFFF;}
	.st3{fill:#13263D;}
	.st4{fill:#FCFDFD;}
	.st5{fill:#FEC324;}
	.st6{fill:#FE8024;}
	.st7{fill:#132249;}
	.st8{fill:#C60000;}
	.st9{fill:#8187BC;}
	.st10{fill:#8186BB;}
	.st11{fill:#F5F5F5;}
	.st12{fill:#F8E391;}
	.st13{fill:#4BBCFB;}
	.st14{fill:#FB7DDE;}
	.st15{fill:#F8E392;}
	.st16{fill:#D7D793;}
	.st17{fill:#F4F5F4;}
	.st18{fill:#D971E1;}
	.st19{fill:#FBCA90;}
	.st20{fill:#EDD7B1;}
	.st21{fill:#8D8873;}
	.st22{fill:#F59ABC;}
	.st23{fill:#042742;}
	.st24{fill:#0C74C1;}
	.st25{clip-path:url(#SVGID_2_);fill:#FFFFFF;}
	.st26{fill:#C30000;}
</style>
<rect x="0" width="805" height="789.6"/>
<g>
	<path class="st26" d="M557.3,325.8H527c38,68.8,12.9,155.5-55.9,193.5c-34.2,18.8-74.6,22.8-111.9,11v28.4
		c90.6,23.9,183.3-30.2,207.2-120.8C576.1,400.6,573,361.2,557.3,325.8z"/>
	<path class="st2" d="M532.9,286.6c-59.8-72-166.6-81.9-238.6-22.1S212.4,431,272.2,503c19.3,23.4,44.8,41.1,73.4,51.4V401.9h5.6
		l24.7,100.7h28.1v-1l-25.3-99.7h6.4c4.9-0.3,8.5-1.9,11-4.7c2.4-2.8,3.5-7,3.5-12.5v-79.8c0-12.2-6.1-18.5-18.5-18.5h-62.7v222.9
		c-63.8-45.8-78.4-134.7-32.6-198.5s134.7-78.4,198.5-32.6c3.7,2.6,7,5.2,10.5,8.2h-85.4v25.8h24.9v190.5h27.2V312.2h89.1
		C545.4,303.1,539.5,294.6,532.9,286.6z M345.5,311.5h26.3v71.3h-26.3V311.5z"/>
</g>
</svg>
