<svg id="Layer_1" data-name="Layer 1" xmlns="http://www.w3.org/2000/svg" viewBox="0 0 600 600"><defs><style>.cls-1{fill:#fff;}</style></defs><title>sc</title><path class="cls-1" d="M414.82,359.17a6.27,6.27,0,0,1-.52,2.15c-2.33,5.46-12.21,9.46-30.21,12.26-.6.8-1.22,3.66-1.6,5.41s-.77,3.49-1.32,5.33a5.16,5.16,0,0,1-5.31,4h-.26a29.24,29.24,0,0,1-5.19-.64,60.52,60.52,0,0,0-12.23-1.3,53.09,53.09,0,0,0-8.78.74c-5.8,1-10.73,4.45-16.46,8.49-8.17,5.78-17.43,12.33-31.52,12.33-.63,0-1.22,0-1.68,0s-.77,0-1.16,0c-14.08,0-23.34-6.55-31.52-12.33-5.71-4-10.64-7.52-16.45-8.49a53.09,53.09,0,0,0-8.78-.74,61,61,0,0,0-12.23,1.38,28.39,28.39,0,0,1-5.19.73,5.31,5.31,0,0,1-5.57-4.05c-.56-1.88-.94-3.66-1.32-5.39s-1-4.62-1.61-5.43c-18-2.8-27.87-6.81-30.21-12.28a6.31,6.31,0,0,1-.51-2.14,4.77,4.77,0,0,1,4-5c31.21-5.14,45.27-37.18,45.85-38.54a2.4,2.4,0,0,1,.11-.23c1.66-3.38,2-6.21,1.1-8.41-1.8-4.25-8.44-6.36-12.84-7.75-1.21-.39-2.37-.75-3.33-1.13-10.63-4.2-12.11-9-11.49-12.34.88-4.59,6.48-7.67,11.17-7.67a8.52,8.52,0,0,1,3.64.74,25.59,25.59,0,0,0,10.56,2.83,9,9,0,0,0,4.46-1c-.1-1.84-.22-3.75-.34-5.59-1-15.59-2.2-35,2.9-46.42,15.14-34,47.25-36.6,56.72-36.6l2.09,0,1.88,0h.58c9.5,0,41.67,2.64,56.82,36.62,5.1,11.43,3.88,30.85,2.89,46.46l0,.66c-.1,1.7-.2,3.33-.29,4.91a8.8,8.8,0,0,0,3.85,1,26.73,26.73,0,0,0,9.9-2.81,10.71,10.71,0,0,1,4.4-.89,12.85,12.85,0,0,1,4.79.92h0c4.25,1.52,6.92,4.58,7,8,.08,4.37-3.82,8.14-11.6,11.22-.95.37-2.11.74-3.34,1.13-4.39,1.39-11,3.5-12.83,7.75-.94,2.2-.57,5,1.1,8.41,0,.07.07.15.11.23.58,1.36,14.63,33.39,45.85,38.54A4.76,4.76,0,0,1,414.82,359.17Z"/></svg>