<?xml version="1.0" encoding="utf-8"?>
<!-- Generator: Adobe Illustrator 22.0.1, SVG Export Plug-In . SVG Version: 6.00 Build 0)  -->
<svg version="1.1" id="Layer_1" xmlns="http://www.w3.org/2000/svg" xmlns:xlink="http://www.w3.org/1999/xlink" x="0px" y="0px"
	 viewBox="0 0 600 600" style="enable-background:new 0 0 600 600;" xml:space="preserve">
<title>sc</title>
<path d="M414.8,359.2c0,0.7-0.2,1.5-0.5,2.1c-2.3,5.5-12.2,9.5-30.2,12.3c-0.6,0.8-1.2,3.7-1.6,5.4s-0.8,3.5-1.3,5.3
	c-0.6,2.4-2.8,4.1-5.3,4h-0.3c-1.7-0.1-3.5-0.3-5.2-0.6c-4-0.8-8.1-1.3-12.2-1.3c-2.9,0-5.9,0.3-8.8,0.7c-5.8,1-10.7,4.5-16.5,8.5
	c-8.2,5.8-17.4,12.3-31.5,12.3c-0.6,0-1.2,0-1.7,0s-0.8,0-1.2,0c-14.1,0-23.3-6.5-31.5-12.3c-5.7-4-10.6-7.5-16.4-8.5
	c-2.9-0.5-5.8-0.7-8.8-0.7c-4.1,0-8.2,0.5-12.2,1.4c-1.7,0.4-3.4,0.6-5.2,0.7c-2.6,0.2-5-1.5-5.6-4c-0.6-1.9-0.9-3.7-1.3-5.4
	s-1-4.6-1.6-5.4c-18-2.8-27.9-6.8-30.2-12.3c-0.3-0.7-0.5-1.4-0.5-2.1c-0.1-2.4,1.6-4.6,4-5c31.2-5.1,45.3-37.2,45.8-38.5
	c0-0.1,0.1-0.2,0.1-0.2c1.7-3.4,2-6.2,1.1-8.4c-1.8-4.3-8.4-6.4-12.8-7.8c-1.2-0.4-2.4-0.8-3.3-1.1c-10.6-4.2-12.1-9-11.5-12.3
	c0.9-4.6,6.5-7.7,11.2-7.7c1.3,0,2.5,0.2,3.6,0.7c3.3,1.7,6.9,2.7,10.6,2.8c1.5,0.1,3.1-0.3,4.5-1c-0.1-1.8-0.2-3.8-0.3-5.6
	c-1-15.6-2.2-35,2.9-46.4c15.1-34,47.3-36.6,56.7-36.6h2.1h1.9h0.6c9.5,0,41.7,2.6,56.8,36.6c5.1,11.4,3.9,30.9,2.9,46.5v0.7
	c-0.1,1.7-0.2,3.3-0.3,4.9c1.2,0.6,2.5,1,3.9,1c3.5-0.3,6.8-1.2,9.9-2.8c1.4-0.6,2.9-0.9,4.4-0.9c1.6,0,3.3,0.3,4.8,0.9l0,0
	c4.3,1.5,6.9,4.6,7,8c0.1,4.4-3.8,8.1-11.6,11.2c-1,0.4-2.1,0.7-3.3,1.1c-4.4,1.4-11,3.5-12.8,7.8c-0.9,2.2-0.6,5,1.1,8.4
	c0,0.1,0.1,0.1,0.1,0.2c0.6,1.4,14.6,33.4,45.9,38.5C413.3,354.7,414.9,356.8,414.8,359.2z"/>
</svg>
