<svg id="Layer_1" data-name="Layer 1" xmlns="http://www.w3.org/2000/svg" viewBox="0 0 600 600"><defs><style>.cls-1{fill:#fff;}</style></defs><title>shhs</title><path class="cls-1" d="M378.06,182.11H221.85c-.46,0-.93,0-1.4,0V347.45a8.85,8.85,0,0,1,.5,2.21c1.24,5.08,3.9,9.44,7,13.53a115.24,115.24,0,0,0,18.45,18.49c16.5,13.67,34.36,25.31,52.85,36a1.32,1.32,0,0,0,1.54-.07c18.12-10.51,35.61-21.91,51.83-35.22,7-5.75,13.69-11.88,19.25-19.12,3.19-4.17,5.92-8.59,7.15-13.78.15-.63,0-1.33.51-1.88V182.27A3.29,3.29,0,0,0,378.06,182.11Zm-6.23,162.4a17.33,17.33,0,0,1-2.4,8.44,57.64,57.64,0,0,1-9.77,12.58c-9.17,9.4-19.6,17.29-30.31,24.82-9.25,6.52-18.8,12.59-28.54,18.36a1.28,1.28,0,0,1-1.53.11c-15.87-9.47-31.31-19.58-45.67-31.24C246.69,372,240.06,366,234.54,359c-2.65-3.38-5-6.93-6.06-11.18a10.85,10.85,0,0,1-.32-2.61q0-38.51,0-77t0-77.31c0-1,.27-1.2,1.23-1.2q70.65,0,141.28,0c1,0,1.19.29,1.19,1.24Q371.81,267.69,371.83,344.51Z"/><path class="cls-1" d="M364.17,198.74a7.12,7.12,0,0,1,0-.8c0-.46-.08-.67-.6-.67-2.29,0-4.6,0-6.89,0H243.3c-2.08,0-4.18,0-6.27-.07-1,0-1.26.24-1.26,1.25q0,73.08,0,146.15a6.91,6.91,0,0,0,.56,2.85,36.08,36.08,0,0,0,6.76,9.87,78.36,78.36,0,0,0,7.89,7.89,83.41,83.41,0,0,0,7.3,6.26c2.46,2.16,5.05,4.13,7.69,6.06,2.35,1.86,4.79,3.61,7.26,5.3,2.59,1.91,5.22,3.72,7.92,5.46,2.43,1.72,4.92,3.37,7.47,4.91s4.91,3.22,7.46,4.66c1.16.74,2.34,1.45,3.49,2.2a.68.68,0,0,0,.83,0c1.07-.69,2.15-1.36,3.23-2q3.93-2.26,7.69-4.82c2.56-1.54,5.05-3.19,7.47-4.91,2.71-1.72,5.33-3.56,7.91-5.45,2.43-1.66,4.83-3.37,7.12-5.21,2.71-1.93,5.31-4,7.87-6.12s5-4.07,7.27-6.29a79.41,79.41,0,0,0,7.88-7.9,43.79,43.79,0,0,0,5.57-7.41,12.29,12.29,0,0,0,1.77-6.41Q364.13,271.14,364.17,198.74Zm-6.82,36.8-.69.17a10,10,0,0,0-3.64,1,2.92,2.92,0,0,0-1.68,3.06,13.1,13.1,0,0,0,.71,3c.42,1.29,0,2-1.36,2l-1.72.05a14.09,14.09,0,0,0-6.16.34c-1.13.4-1.44.71-1.28,1.91a8.2,8.2,0,0,1-.08,2.1,3.55,3.55,0,0,1-1.63,1.55,9.74,9.74,0,0,1-3.76.9,3.58,3.58,0,0,0-2.26.62,14,14,0,0,0-6,5.63,1.94,1.94,0,0,0,1.08,3,10.63,10.63,0,0,1,3.19,2.18,9.43,9.43,0,0,0,3.64,1.8c1.92.42,3.87-.27,5.79.11a1.7,1.7,0,0,0,1.84-1.21c1.43-3.17,2.77-6.4,5.65-8.61.18-.11.36-.19.52-.31,1.48-.88,1.9-.71,2.3.88a4.68,4.68,0,0,0,2.46,3.49c.79.38.79,1.22.63,1.95s-.56,1.74-.76,2.61a3.19,3.19,0,0,0,1.05,3.6c1.35,1,1.27,2.26,0,3.41-.46.42-1,.79-1.46,1.23a2,2,0,0,0-.37,3c.37.61.77,1.18,1.13,1.79a1.2,1.2,0,0,1-1.89,1.45,3,3,0,0,0-3.64-.47c-2.39,1.12-5,1.4-7.54,1.91a5.05,5.05,0,0,1-4.74-1.75c-.94-1.1-1.74-.86-2.29.52-.26.64-.52,1.29-.77,1.94-1,1.29-1,1.28-2.43.48a5.61,5.61,0,0,1-1.55-1.56,6.48,6.48,0,0,0-3.14-2.56,3.31,3.31,0,0,1-1.44-1,1.74,1.74,0,0,0-2.81-.1,14,14,0,0,0-3.62,5.73c-2.12,1.79-4.72,2.4-7.31,3a2.61,2.61,0,0,0-1.68.13c-2,.71-3.83,1.7-6,1.69a11.54,11.54,0,0,0-3.71.73c-1.27.35-2.4,1.13-3.77,1.2a5.5,5.5,0,0,0-2,.45,2.82,2.82,0,0,0-1.87,3.28,1.31,1.31,0,0,0,1.73,1.2l2.16-.38c.53-.07,1.05-.17,1.57-.22,2-.16,3.94-.29,5.91-.44.46.08.93.13,1.38.21l6.31,1.1c1.15,1.58,2.89,2.16,4.59,2.88a5.45,5.45,0,0,1,2.75,1.93c0,.28,0,.56,0,.84-.54.83-.85,1.91-1.93,2.16a3.94,3.94,0,0,0-2.85,2.32,15.89,15.89,0,0,0-.95,2.85,6,6,0,0,1-1.59,3.2A4.63,4.63,0,0,0,309.6,312a14.93,14.93,0,0,0-.67,4.55c-.07,1.75.73,2.3,2.4,1.72a7.48,7.48,0,0,0,3.66-2.34,30.74,30.74,0,0,0,3.89-6.05c.37-.29.45-.86.92-1a5.85,5.85,0,0,0,2.7-2.31,6.94,6.94,0,0,1,2.78-2.67.6.6,0,0,0,.35-.44c0-.62.47-.65.88-.74a5.62,5.62,0,0,1,4.52,1.73c1,.9,1.61,2.05,2.55,3a4.31,4.31,0,0,0,1.76,1.4c.42.22.74.47.67,1a1.05,1.05,0,0,1-.83.89,4.31,4.31,0,0,0-1.6.73c-1.63,1-1.71,2.61-1.76,4.24,0,.74.26,1.61-.05,2.18s-1.28.17-1.95.33a14.85,14.85,0,0,0-1.47.33,2.26,2.26,0,0,0-1.7,2.87,13.35,13.35,0,0,0,1.14,3.11c.24.54.68,1.13.26,1.69s-1,.14-1.53.15c-1.66-.11-3.31-.26-5-.29a4,4,0,0,0-3,1c-1.63,1.46-3.67,1.83-5.72,2.24a5.47,5.47,0,0,0-1.54.4,1.35,1.35,0,0,0-1.23.7,1.84,1.84,0,0,1-1.92.88c-1.24-.13-2.54.08-3.75-.46a2.48,2.48,0,0,0-.79-.11c-1.36-.39-2.78-.41-4.12-.92a1.67,1.67,0,0,1-1.27-1.63,10.78,10.78,0,0,1,1.21-5.94,24.74,24.74,0,0,0,1.71-4.09,4.94,4.94,0,0,0-1-5,32.64,32.64,0,0,1-3.83-5.27c-1.7-2.75-3.87-4.82-7.28-5.13a1.81,1.81,0,0,0-.4,0,6.16,6.16,0,0,0-2,0,1.26,1.26,0,0,0-1.34,1.18,8.78,8.78,0,0,0,.92,6.16,26.45,26.45,0,0,1,2.25,6c.32,1.78.68,3.56,1,5.34.39,2.49-.24,4.87-.86,7.24a80.79,80.79,0,0,1-4.88,10.46c-.79,1.49-1,1.57-2.55,1a6.29,6.29,0,0,1-1.46-2.26,2.09,2.09,0,0,0-1.82-1.53c-1.6-.12-3.23-.31-4.65.74a23.33,23.33,0,0,0-6.89,6.42,1.86,1.86,0,0,0,.33,2.64c1.95,2.05,4.29,2.13,6.79,1.27a17.5,17.5,0,0,1,3.89-.29c1.26.12,2.54.08,3.81.11,1.77.12,1.78.12,2.1,2a18.2,18.2,0,0,1,.28,5.89c-.15,1-.42,1.76-1.69,1.42a2.33,2.33,0,0,0-.69,0c-2.17,0-3.08.61-3.56,2.71-.3,1.28-.5,2.56-.69,3.85-.1.62-.34.8-.94.61-.82-.26-1.67-.47-2.51-.69a4.2,4.2,0,0,0-4.38.36c-.38.27-.84.57-.92,1-.21,1.4-1.19,1.3-2.18,1.24a21.16,21.16,0,0,0-4.9-2.5,7.82,7.82,0,0,1-2.75-2,10.7,10.7,0,0,1-1.62-3.43c-.09-.35-.3-.68-.62-.71-.84-.06-1-.57-1.06-1.27-.29-2.09-1.7-3.18-4-3.22-2.33-.55-2.61-1.26-1.18-3.2.39-.54.79-1.07,1.19-1.61A23.1,23.1,0,0,0,257.11,334a44.5,44.5,0,0,0,.09-6.83c0-1-.19-2.14,1.1-2.64,1-.11,1.41.29,1.42,1.38a4.84,4.84,0,0,0,.82,2.75c.52.73,1.49.72,2.22,1.15,1,.57,3.09-1,3.47-2.29a12.23,12.23,0,0,0,.15-3.31c0-4-.74-8-.71-12a.9.9,0,0,0-.39-.88c-.83-.56-3.24-.21-3.58.69s-1.12,1.1-1.93,1.29l-1.48.31a12.09,12.09,0,0,0-4,1c-1.32.6-2.8,1-3.37,2.58-1.23,1.08-1.65,1-2.65-.24-1.72-2.21-3.4-4.47-4.93-6.83-.17-.33-.3-.67-.5-1-1.49-2.38-1.43-5.07-1.51-7.7-.06-1.55.9-2.61,2-3.54a22.3,22.3,0,0,0,3.46-4.28,14.4,14.4,0,0,1,3.24-3.89,3.16,3.16,0,0,0,1.15-1.61,13.84,13.84,0,0,0,1.31-6.87c-.26-2.45-.11-4.89-.26-7.35a1,1,0,0,1,.68-1.11.93.93,0,0,1,1.14.43,3,3,0,0,0,1.36,1c.75.3,1.56.8,2.28.21s.42-1.55.22-2.36a25.65,25.65,0,0,1-.68-5.91,1.37,1.37,0,0,1,1.05-1.49,12.61,12.61,0,0,1,2.33,1.35,1.4,1.4,0,0,0,2.25-.81,4.39,4.39,0,0,0,.27-1.18c.65-5.13-1-9.58-4.05-13.6a1.32,1.32,0,0,0-.78-.6,2.59,2.59,0,0,0-3.4,1c-.25.33-.36.76-.89.89-.95.22-1.15,1-1,1.81a2.86,2.86,0,0,1,.16,1.38c-.45,1.82-.69,3.73-2.25,5a6.5,6.5,0,0,0-2,2.37,1.18,1.18,0,0,1-.75.62,7.13,7.13,0,0,0-2.83,1.87,35.41,35.41,0,0,0,.05-3.68c-.21-3.24-.94-6.41-1.23-9.63a27.25,27.25,0,0,1,.3-8.26,6.78,6.78,0,0,1,4.54-5.26c1.53-.55,1.61-.73.89-2.15a.63.63,0,0,1,0-.72,3.63,3.63,0,0,0,.32-2.45,30.07,30.07,0,0,1,.13-10.06,25.33,25.33,0,0,1,.75-2.49,12.86,12.86,0,0,1,2.53-3.74,3.43,3.43,0,0,1,2.55-1.36,3.16,3.16,0,0,0,2-1,16.19,16.19,0,0,1,3.1-1.66c.46-.13.59-.61.59-1.08a8.07,8.07,0,0,0-.31-2.49,4.58,4.58,0,0,1-.21-1,1.36,1.36,0,0,1,.47-1.44c.45-.28.8.18,1.15.4a9.07,9.07,0,0,1,.83.54,7.36,7.36,0,0,1,.75.63,1.42,1.42,0,0,1,.25.24l.09.09a1.45,1.45,0,0,1,.17.18h0a1.27,1.27,0,0,1,.21.25,1.63,1.63,0,0,1,.27.31,4.41,4.41,0,0,1,.3.39,6.77,6.77,0,0,1,.25,4.91,9.3,9.3,0,0,0,1.25,8.26,6.94,6.94,0,0,1,.42,7,9.21,9.21,0,0,0,.17,8.71c.25.44.45,1,0,1.38-.72.62-1.23-.09-1.8-.34a5.28,5.28,0,0,1-2.25-3,5.06,5.06,0,0,0-1.18-2.2,1.19,1.19,0,0,1-.35-1.51,10.23,10.23,0,0,0,.1-6.05,2,2,0,0,0-2.36-1.81,3.12,3.12,0,0,0-2.11.8,7.56,7.56,0,0,0-2.24,5.5c-.18,3.26,1.18,6.13,2.27,9.07a4.41,4.41,0,0,0,3,3.07c.37.09.54.4.75.66a61.88,61.88,0,0,1,4.06,5.64c.21.42.39.85.64,1.25,1.72,2.71,1.82,5.77,1.92,8.84a57.62,57.62,0,0,1-.26,7.55c-.18,1.9-1.2,3.48-1.77,5.22-.17.51-.36,1-.55,1.51-.71,1.72-1.45,3.45-2.16,5.18a25.39,25.39,0,0,1-3,6,18.55,18.55,0,0,0-2.49,4.46,3.58,3.58,0,0,0-.29.39,67.56,67.56,0,0,1-3.91,6.8,9.44,9.44,0,0,0-1.34,8c.77,2.94,2.71,4,5.56,2.89a7.89,7.89,0,0,0,4.63-4.37,13.15,13.15,0,0,0,.93-3.9,72.29,72.29,0,0,1,2.16-7.78c.77-1.67,1.49-3.37,2.3-5,1.33-2.66,3.33-4.8,5.15-7.07l1.66-1.89a20.55,20.55,0,0,1,2.74-2.78,4.4,4.4,0,0,0,.78-6.49c-.27-.35-.57-.68-.83-1-.89-1.11-.78-1.73.49-2.38,1-.53,2-1,3.07-1.44a3.24,3.24,0,0,0,1.67-1.4c.31-.51.41-1.14.74-1.63,2.45-3.59,2.06-7.62,1.83-11.63a1.13,1.13,0,0,0-1.17-1.16,3.87,3.87,0,0,1-3.11-1.59,14.41,14.41,0,0,1-1.43-3.85,9.18,9.18,0,0,0-.57-1.51c-.48-1-.93-1.14-2-.76a2.82,2.82,0,0,1-1.05.28c-1,0-1.68-.58-1.53-1.57.64-4.08.48-8.28,1.66-12.28a16.85,16.85,0,0,1,2-4.38c.64-1,.57-1.47-.33-2.25a10.43,10.43,0,0,1-2.38-2.31c-.82-1.37-.39-2.26,1.23-2.34a19.71,19.71,0,0,0,3.52-.22c.22,0,.44-.14.66-.2a1.12,1.12,0,0,0,.2,0c1.72-1.28,3.78-2.14,5-4.09a8.22,8.22,0,0,1,2.32-2.59,2.17,2.17,0,0,1,2.67.94c1.18,1.62,2.51,3.12,3.62,4.79a1.31,1.31,0,0,0,1.21.75c2.5.16,5,.22,7.49.19,2.13,0,4.25.4,6.39.09a4.8,4.8,0,0,1,1.29.16,1.71,1.71,0,0,1,.64.86c.33,1.53.71,3,1,4.59a3.36,3.36,0,0,1-1.63,3.4l0,1.23a22.72,22.72,0,0,1,6.3,1.24c.39.1.77.16,1.17.24a2.94,2.94,0,0,0,3-.41c.79-.52,1.53-1.12,2.32-1.61s1.16-.29,1.07.64a2.68,2.68,0,0,1-1.48,2.6,17.12,17.12,0,0,1-5,1.64,19.19,19.19,0,0,1-5-.94,1.57,1.57,0,0,0-1.88.59c-.51.61,0,1.11.34,1.61.08.13.21.26.3.4,1.14,1.6.71,2.75-1.19,3.28a6.7,6.7,0,0,0-.8-.11,2.07,2.07,0,0,0-2.3,1.8c-.25,1.1.09,1.71,1.29,2.3.59.3,1.18.61,1.78.9a5.1,5.1,0,0,0,4,.48,10,10,0,0,0,3.49-1.9,10.05,10.05,0,0,1,2.68-.22,2.38,2.38,0,0,1,2.19,2c.14.56-.17,1.28.4,1.67a4,4,0,0,0,2.44.75,5.56,5.56,0,0,0,3.41-1.32,15.59,15.59,0,0,1,3.93-2.37,6.48,6.48,0,0,0,3.65-2.52c1-1.54,2.34-2.81,3.44-4.27.27-.37.47-.8.7-1.19,1.18-2,1.42-4.32,1.86-6.56a53.12,53.12,0,0,1,1.83-6.9,2.41,2.41,0,0,1,1.81-1.79c.62-.15,1.22-.38,1.82-.57.3,0,.61,0,.91,0a2.11,2.11,0,0,1,2.09,1.9,3.75,3.75,0,0,0,3.12,3.39,1.91,1.91,0,0,1,1.33,1c0,.54,0,1.07,0,1.61a3,3,0,0,0,1.08,2.74c1.07.81,1.05,1.63.19,2.68-.35.42-.71.81-1.07,1.2-.05,1.1.29,2.22-.18,3.3.21.72.87,1.07,1.36,1.55.33.32.79.62.69,1.13S357.78,235.45,357.35,235.54Z"/><path class="cls-1" d="M356.45,232.28a2.46,2.46,0,0,1,.18-3.3C356.58,230.08,356.92,231.2,356.45,232.28Z"/><path class="cls-1" d="M311.34,225H310.2a1.59,1.59,0,0,1,1.11-1.23Z"/><path class="cls-1" d="M296,220.59c0,.85-1.21,1.7-2.41,1.71a2.33,2.33,0,0,1-2.14-1.94,2.37,2.37,0,0,1,1.87-2.42A2.81,2.81,0,0,1,296,220.59Z"/></svg>