<?xml version="1.0" encoding="utf-8"?>
<!-- Generator: Adobe Illustrator 22.0.1, SVG Export Plug-In . SVG Version: 6.00 Build 0)  -->
<svg version="1.1" id="Layer_1" xmlns="http://www.w3.org/2000/svg" xmlns:xlink="http://www.w3.org/1999/xlink" x="0px" y="0px"
	 viewBox="0 0 600 600" style="enable-background:new 0 0 600 600;" xml:space="preserve">
<title>shhs</title>
<path d="M378.1,182.1H221.9c-0.5,0-0.9,0-1.4,0v165.3c0.3,0.7,0.4,1.5,0.5,2.2c1.2,5.1,3.9,9.4,7,13.5c5.4,6.8,11.6,13,18.4,18.5
	c16.5,13.7,34.4,25.3,52.8,36c0.5,0.3,1.1,0.3,1.5-0.1c18.1-10.5,35.6-21.9,51.8-35.2c7-5.8,13.7-11.9,19.3-19.1
	c3.2-4.2,5.9-8.6,7.1-13.8c0.1-0.6,0-1.3,0.5-1.9V182.3C379.1,182.1,378.6,182.1,378.1,182.1z M371.8,344.5c-0.1,3-0.9,5.9-2.4,8.4
	c-2.7,4.6-5.9,8.9-9.8,12.6c-9.2,9.4-19.6,17.3-30.3,24.8c-9.3,6.5-18.8,12.6-28.5,18.4c-0.4,0.4-1.1,0.4-1.5,0.1
	c-15.9-9.5-31.3-19.6-45.7-31.2c-6.9-5.6-13.6-11.6-19.1-18.6c-2.6-3.4-5-6.9-6.1-11.2c-0.2-0.9-0.3-1.7-0.3-2.6c0-25.7,0-51.3,0-77
	s0-51.4,0-77.3c0-1,0.3-1.2,1.2-1.2c47.1,0,94.2,0,141.3,0c1,0,1.2,0.3,1.2,1.2C371.8,242.1,371.8,293.3,371.8,344.5z"/>
<path d="M364.2,198.7c0-0.3,0-0.5,0-0.8c0-0.5-0.1-0.7-0.6-0.7c-2.3,0-4.6,0-6.9,0H243.3c-2.1,0-4.2,0-6.3-0.1c-1,0-1.3,0.2-1.3,1.3
	c0,48.7,0,97.4,0,146.1c0,1,0.2,2,0.6,2.9c1.7,3.6,4,7,6.8,9.9c2.4,2.8,5.1,5.5,7.9,7.9c2.3,2.2,4.7,4.3,7.3,6.3
	c2.5,2.2,5,4.1,7.7,6.1c2.4,1.9,4.8,3.6,7.3,5.3c2.6,1.9,5.2,3.7,7.9,5.5c2.4,1.7,4.9,3.4,7.5,4.9s4.9,3.2,7.5,4.7
	c1.2,0.7,2.3,1.5,3.5,2.2c0.2,0.2,0.6,0.2,0.8,0c1.1-0.7,2.1-1.4,3.2-2c2.6-1.5,5.2-3.1,7.7-4.8c2.6-1.5,5-3.2,7.5-4.9
	c2.7-1.7,5.3-3.6,7.9-5.5c2.4-1.7,4.8-3.4,7.1-5.2c2.7-1.9,5.3-4,7.9-6.1s5-4.1,7.3-6.3c2.8-2.4,5.4-5.1,7.9-7.9
	c2.1-2.3,4-4.7,5.6-7.4c1.2-1.9,1.8-4.2,1.8-6.4C364.1,295.3,364.1,247,364.2,198.7z M357.4,235.5l-0.7,0.2c-1.3,0.1-2.5,0.4-3.6,1
	c-1.2,0.5-1.9,1.8-1.7,3.1c0.1,1,0.4,2,0.7,3c0.4,1.3,0,2-1.4,2l-1.7,0.1c-2.1-0.3-4.2-0.2-6.2,0.3c-1.1,0.4-1.4,0.7-1.3,1.9
	c0.1,0.7,0,1.4-0.1,2.1c-0.4,0.7-0.9,1.2-1.6,1.6c-1.2,0.5-2.5,0.9-3.8,0.9c-0.8-0.1-1.6,0.2-2.3,0.6c-2.5,1.2-4.6,3.2-6,5.6
	c-0.6,0.9-0.4,2.1,0.5,2.7c0.2,0.1,0.4,0.2,0.6,0.3c1.2,0.5,2.3,1.3,3.2,2.2c1.1,0.9,2.3,1.5,3.6,1.8c1.9,0.4,3.9-0.3,5.8,0.1
	c0.8,0.1,1.6-0.4,1.8-1.2c1.4-3.2,2.8-6.4,5.6-8.6c0.2-0.1,0.4-0.2,0.5-0.3c1.5-0.9,1.9-0.7,2.3,0.9c0.2,1.5,1.1,2.8,2.5,3.5
	c0.8,0.4,0.8,1.2,0.6,2s-0.6,1.7-0.8,2.6c-0.5,1.3,0,2.8,1,3.6c1.4,1,1.3,2.3,0,3.4c-0.5,0.4-1,0.8-1.5,1.2
	c-0.9,0.6-1.2,1.9-0.5,2.8c0.1,0.1,0.1,0.2,0.2,0.2c0.4,0.6,0.8,1.2,1.1,1.8c0.3,0.6,0.1,1.3-0.4,1.6c-0.5,0.3-1.1,0.2-1.5-0.2
	c-1-1-2.5-1.2-3.6-0.5c-2.4,1.1-5,1.4-7.5,1.9c-1.8,0.3-3.6-0.4-4.7-1.8c-0.9-1.1-1.7-0.9-2.3,0.5c-0.3,0.6-0.5,1.3-0.8,1.9
	c-1,1.3-1,1.3-2.4,0.5c-0.6-0.4-1.1-0.9-1.5-1.6c-0.7-1.2-1.8-2.1-3.1-2.6c-0.6-0.2-1.1-0.5-1.4-1c-0.5-0.8-1.6-1-2.4-0.5
	c-0.1,0.1-0.3,0.2-0.4,0.4c-1.7,1.6-2.9,3.6-3.6,5.7c-2.1,1.8-4.7,2.4-7.3,3c-0.6-0.1-1.1-0.1-1.7,0.1c-2,0.7-3.8,1.7-6,1.7
	c-1.3,0-2.5,0.3-3.7,0.7c-1.3,0.4-2.4,1.1-3.8,1.2c-0.7,0-1.4,0.2-2,0.5c-1.4,0.5-2.2,1.9-1.9,3.3c0,0.7,0.6,1.3,1.3,1.3
	c0.1,0,0.3,0,0.4-0.1l2.2-0.4c0.5-0.1,1-0.2,1.6-0.2c2-0.2,3.9-0.3,5.9-0.4c0.5,0.1,0.9,0.1,1.4,0.2l6.3,1.1
	c1.1,1.6,2.9,2.2,4.6,2.9c1.1,0.3,2.1,1,2.8,1.9c0,0.3,0,0.6,0,0.8c-0.5,0.8-0.9,1.9-1.9,2.2c-1.3,0.3-2.3,1.1-2.9,2.3
	c-0.4,0.9-0.7,1.9-1,2.9c-0.2,1.2-0.7,2.3-1.6,3.2c-0.9,0.6-1.5,1.5-1.8,2.5c-0.5,1.5-0.7,3-0.7,4.5c-0.1,1.8,0.7,2.3,2.4,1.7
	c1.4-0.4,2.7-1.2,3.7-2.3c1.5-1.9,2.8-3.9,3.9-6c0.4-0.3,0.5-0.9,0.9-1c1.1-0.5,2.1-1.3,2.7-2.3c0.7-1.1,1.6-2.1,2.8-2.7
	c0.2-0.1,0.3-0.2,0.4-0.4c0-0.6,0.5-0.6,0.9-0.7c1.7-0.1,3.4,0.5,4.5,1.7c1,0.9,1.6,2,2.5,3c0.5,0.6,1.1,1.1,1.8,1.4
	c0.4,0.2,0.7,0.5,0.7,1c-0.1,0.4-0.4,0.8-0.8,0.9c-0.6,0.1-1.1,0.4-1.6,0.7c-1.6,1-1.7,2.6-1.8,4.2c0,0.7,0.3,1.6,0,2.2
	s-1.3,0.2-2,0.3c-0.5,0.1-1,0.2-1.5,0.3c-1.2,0.3-2,1.5-1.8,2.7c0,0.1,0,0.1,0.1,0.2c0.2,1.1,0.6,2.1,1.1,3.1
	c0.2,0.5,0.7,1.1,0.3,1.7s-1,0.1-1.5,0.1c-1.7-0.1-3.3-0.3-5-0.3c-1.1-0.1-2.2,0.3-3,1c-1.6,1.5-3.7,1.8-5.7,2.2
	c-0.5,0.1-1,0.2-1.5,0.4c-0.5,0-1,0.3-1.2,0.7c-0.4,0.7-1.2,1-1.9,0.9c-1.2-0.1-2.5,0.1-3.8-0.5c-0.3-0.1-0.5-0.1-0.8-0.1
	c-1.4-0.4-2.8-0.4-4.1-0.9c-0.7-0.2-1.3-0.9-1.3-1.6c-0.2-2.1,0.2-4.1,1.2-5.9c0.7-1.3,1.3-2.7,1.7-4.1c0.6-1.7,0.2-3.6-1-5
	c-1.4-1.6-2.7-3.4-3.8-5.3c-1.7-2.8-3.9-4.8-7.3-5.1c-0.1,0-0.3,0-0.4,0c-0.7-0.1-1.3-0.1-2,0c-0.7,0-1.3,0.5-1.3,1.2c0,0,0,0,0,0
	c-0.5,2.1-0.1,4.3,0.9,6.2c1,1.9,1.7,3.9,2.3,6c0.3,1.8,0.7,3.6,1,5.3c0.4,2.5-0.2,4.9-0.9,7.2c-1.4,3.6-3,7.1-4.9,10.5
	c-0.8,1.5-1,1.6-2.5,1c-0.6-0.6-1.1-1.4-1.5-2.3c-0.2-0.8-1-1.4-1.8-1.5c-1.6-0.1-3.2-0.3-4.6,0.7c-2.7,1.6-5.1,3.8-6.9,6.4
	c-0.6,0.8-0.5,2,0.3,2.6c0,0,0,0,0,0c2,2,4.3,2.1,6.8,1.3c1.3-0.2,2.6-0.3,3.9-0.3c1.3,0.1,2.5,0.1,3.8,0.1c1.8,0.1,1.8,0.1,2.1,2
	c0.4,1.9,0.5,3.9,0.3,5.9c-0.1,1-0.4,1.8-1.7,1.4c-0.2,0-0.5,0-0.7,0c-2.2,0-3.1,0.6-3.6,2.7c-0.3,1.3-0.5,2.6-0.7,3.9
	c-0.1,0.6-0.3,0.8-0.9,0.6c-0.8-0.3-1.7-0.5-2.5-0.7c-1.4-0.7-3.1-0.6-4.4,0.4c-0.4,0.3-0.8,0.6-0.9,1c-0.2,1.4-1.2,1.3-2.2,1.2
	c-1.5-1-3.2-1.9-4.9-2.5c-1.1-0.5-2-1.1-2.8-2c-0.7-1-1.3-2.2-1.6-3.4c-0.1-0.4-0.3-0.7-0.6-0.7c-0.8-0.1-1-0.6-1.1-1.3
	c-0.3-2.1-1.7-3.2-4-3.2c-2.3-0.5-2.6-1.3-1.2-3.2c0.4-0.5,0.8-1.1,1.2-1.6c3.5-3.8,5.6-8.6,6.1-13.7c0.2-2.3,0.2-4.6,0.1-6.8
	c0-1-0.2-2.1,1.1-2.6c1-0.1,1.4,0.3,1.4,1.4c0,1,0.3,1.9,0.8,2.8c0.5,0.7,1.5,0.7,2.2,1.1c1,0.6,3.1-1,3.5-2.3
	c0.2-1.1,0.3-2.2,0.1-3.3c0-4-0.7-8-0.7-12c0.1-0.3-0.1-0.7-0.4-0.9c-0.8-0.6-3.2-0.2-3.6,0.7s-1.1,1.1-1.9,1.3l-1.5,0.3
	c-1.4,0.1-2.7,0.4-4,1c-1.3,0.6-2.8,1-3.4,2.6c-1.2,1.1-1.6,1-2.6-0.2c-1.7-2.2-3.4-4.5-4.9-6.8c-0.2-0.3-0.3-0.7-0.5-1
	c-1.5-2.4-1.4-5.1-1.5-7.7c-0.1-1.5,0.9-2.6,2-3.5c1.3-1.3,2.5-2.7,3.5-4.3c0.8-1.5,1.9-2.8,3.2-3.9c0.5-0.4,0.9-1,1.1-1.6
	c1-2.1,1.5-4.5,1.3-6.9c-0.3-2.5-0.1-4.9-0.3-7.4c-0.1-0.5,0.2-1,0.7-1.1c0.4-0.2,0.9,0,1.1,0.4c0.3,0.5,0.8,0.8,1.4,1
	c0.8,0.3,1.6,0.8,2.3,0.2s0.4-1.5,0.2-2.4c-0.5-1.9-0.7-3.9-0.7-5.9c-0.1-0.7,0.4-1.3,1-1.5c0.8,0.4,1.6,0.8,2.3,1.4
	c0.6,0.5,1.5,0.4,2-0.2c0.1-0.2,0.2-0.4,0.3-0.6c0.1-0.4,0.2-0.8,0.3-1.2c0.6-5.1-1-9.6-4-13.6c-0.2-0.3-0.5-0.5-0.8-0.6
	c-1.2-0.6-2.7-0.2-3.4,1c-0.3,0.3-0.4,0.8-0.9,0.9c-0.9,0.2-1.1,1-1,1.8c0.2,0.4,0.2,0.9,0.2,1.4c-0.4,1.8-0.7,3.7-2.3,5
	c-0.8,0.6-1.5,1.4-2,2.4c-0.1,0.3-0.4,0.5-0.8,0.6c-1.1,0.4-2.1,1-2.8,1.9c0.1-1.2,0.1-2.5,0.1-3.7c-0.2-3.2-0.9-6.4-1.2-9.6
	c-0.3-2.8-0.2-5.5,0.3-8.3c0.4-2.5,2.2-4.5,4.5-5.3c1.5-0.6,1.6-0.7,0.9-2.1c-0.2-0.2-0.2-0.5,0-0.7c0.4-0.8,0.5-1.6,0.3-2.4
	c-0.5-3.3-0.5-6.7,0.1-10.1c0.2-0.8,0.5-1.7,0.8-2.5c0.6-1.4,1.5-2.7,2.5-3.7c0.6-0.8,1.5-1.3,2.6-1.4c0.8-0.1,1.5-0.4,2-1
	c1-0.7,2-1.2,3.1-1.7c0.5-0.1,0.6-0.6,0.6-1.1c0-0.8-0.1-1.7-0.3-2.5c-0.1-0.3-0.2-0.7-0.2-1c-0.1-0.5,0-1.1,0.5-1.4
	c0.5-0.3,0.8,0.2,1.1,0.4c0.3,0.2,0.6,0.3,0.8,0.5c0.3,0.2,0.5,0.4,0.8,0.6c0.1,0.1,0.2,0.2,0.3,0.2l0.1,0.1
	c0.1,0.1,0.1,0.1,0.2,0.2l0,0c0.1,0.1,0.2,0.2,0.2,0.3c0.1,0.1,0.2,0.2,0.3,0.3c0.1,0.1,0.2,0.3,0.3,0.4c0.7,1.5,0.8,3.3,0.3,4.9
	c-0.9,2.8-0.4,5.9,1.3,8.3c1.4,2.1,1.6,4.8,0.4,7c-1.4,2.7-1.3,6,0.2,8.7c0.3,0.4,0.5,1,0,1.4c-0.7,0.6-1.2-0.1-1.8-0.3
	c-1.1-0.7-1.9-1.8-2.3-3c-0.2-0.8-0.6-1.6-1.2-2.2c-0.5-0.3-0.6-1-0.4-1.5c0.6-2,0.7-4.1,0.1-6.1c-0.1-1.1-1-1.9-2.2-1.8
	c-0.1,0-0.1,0-0.2,0c-0.8,0-1.5,0.3-2.1,0.8c-1.5,1.5-2.3,3.4-2.2,5.5c-0.2,3.3,1.2,6.1,2.3,9.1c0.4,1.5,1.5,2.6,3,3.1
	c0.4,0.1,0.5,0.4,0.8,0.7c1.5,1.8,2.8,3.7,4.1,5.6c0.2,0.4,0.4,0.9,0.6,1.3c1.7,2.7,1.8,5.8,1.9,8.8c0.1,2.5,0,5-0.3,7.5
	c-0.2,1.9-1.2,3.5-1.8,5.2c-0.2,0.5-0.4,1-0.5,1.5c-0.7,1.7-1.5,3.5-2.2,5.2c-0.7,2.1-1.7,4.1-3,6c-1,1.4-1.9,2.9-2.5,4.5
	c-0.1,0.1-0.2,0.3-0.3,0.4c-1.2,2.3-2.5,4.6-3.9,6.8c-1.6,2.3-2.1,5.3-1.3,8c0.8,2.9,2.7,4,5.6,2.9c2.1-0.7,3.8-2.3,4.6-4.4
	c0.5-1.2,0.8-2.6,0.9-3.9c0.6-2.6,1.3-5.2,2.2-7.8c0.8-1.7,1.5-3.4,2.3-5c1.3-2.7,3.3-4.8,5.1-7.1l1.7-1.9c0.8-1,1.7-1.9,2.7-2.8
	c2-1.4,2.5-4.1,1.1-6.1c-0.1-0.1-0.2-0.2-0.3-0.4c-0.3-0.4-0.6-0.7-0.8-1c-0.9-1.1-0.8-1.7,0.5-2.4c1-0.5,2-1,3.1-1.4
	c0.7-0.3,1.3-0.8,1.7-1.4c0.3-0.5,0.4-1.1,0.7-1.6c2.5-3.6,2.1-7.6,1.8-11.6c0-0.6-0.5-1.1-1.1-1.2c0,0,0,0-0.1,0
	c-1.2,0-2.4-0.6-3.1-1.6c-0.7-1.2-1.1-2.5-1.4-3.9c-0.1-0.5-0.3-1-0.6-1.5c-0.5-1-0.9-1.1-2-0.8c-0.3,0.2-0.7,0.3-1,0.3
	c-1,0-1.7-0.6-1.5-1.6c0.6-4.1,0.5-8.3,1.7-12.3c0.5-1.5,1.1-3,2-4.4c0.6-1,0.6-1.5-0.3-2.3c-0.9-0.6-1.7-1.4-2.4-2.3
	c-0.8-1.4-0.4-2.3,1.2-2.3c1.2,0,2.4,0,3.5-0.2c0.2,0,0.4-0.1,0.7-0.2c0.1,0,0.1,0,0.2,0c1.7-1.3,3.8-2.1,5-4.1
	c0.6-1,1.4-1.9,2.3-2.6c1-0.4,2.1,0,2.7,0.9c1.2,1.6,2.5,3.1,3.6,4.8c0.2,0.5,0.7,0.8,1.2,0.8c2.5,0.2,5,0.2,7.5,0.2
	c2.1,0,4.3,0.4,6.4,0.1c0.4,0,0.9,0,1.3,0.2c0.3,0.2,0.5,0.5,0.6,0.9c0.3,1.5,0.7,3,1,4.6c0.2,1.4-0.4,2.7-1.6,3.4v1.2
	c2.1,0.1,4.3,0.5,6.3,1.2c0.4,0.1,0.8,0.2,1.2,0.2c1,0.4,2.2,0.3,3-0.4c0.8-0.5,1.5-1.1,2.3-1.6s1.2-0.3,1.1,0.6
	c0.1,1.1-0.5,2.1-1.5,2.6c-1.6,0.8-3.3,1.4-5,1.6c-1.7-0.1-3.4-0.4-5-0.9c-0.7-0.3-1.5,0-1.9,0.6c-0.5,0.6,0,1.1,0.3,1.6
	c0.1,0.1,0.2,0.3,0.3,0.4c1.1,1.6,0.7,2.8-1.2,3.3c-0.3-0.1-0.5-0.1-0.8-0.1c-1.1-0.1-2.2,0.7-2.3,1.8c-0.3,1.1,0.1,1.7,1.3,2.3
	c0.6,0.3,1.2,0.6,1.8,0.9c1.2,0.7,2.7,0.9,4,0.5c1.3-0.4,2.5-1,3.5-1.9c0.9-0.2,1.8-0.3,2.7-0.2c1.1,0.1,2,0.9,2.2,2
	c0.1,0.6-0.2,1.3,0.4,1.7c0.7,0.5,1.6,0.8,2.4,0.8c1.3,0,2.5-0.5,3.4-1.3c1.2-1,2.5-1.8,3.9-2.4c1.5-0.4,2.8-1.3,3.6-2.5
	c1-1.5,2.3-2.8,3.4-4.3c0.3-0.4,0.5-0.8,0.7-1.2c1.2-2,1.4-4.3,1.9-6.6c0.5-2.3,1.1-4.6,1.8-6.9c0.2-0.9,0.9-1.6,1.8-1.8
	c0.6-0.1,1.2-0.4,1.8-0.6c0.3,0,0.6,0,0.9,0c1.1,0,2,0.8,2.1,1.9c0.1,1.7,1.4,3.1,3.1,3.4c0.6,0.1,1.1,0.5,1.3,1c0,0.5,0,1.1,0,1.6
	c-0.1,1,0.3,2.1,1.1,2.7c1.1,0.8,1,1.6,0.2,2.7c-0.4,0.4-0.7,0.8-1.1,1.2c0,1.1,0.3,2.2-0.2,3.3c0.2,0.7,0.9,1.1,1.4,1.6
	c0.3,0.3,0.8,0.6,0.7,1.1S357.8,235.4,357.4,235.5L357.4,235.5z"/>
<path d="M356.5,232.3c-0.8-1-0.7-2.4,0.2-3.3C356.6,230.1,356.9,231.2,356.5,232.3z"/>
<path d="M311.3,225h-1.1c0.1-0.6,0.5-1.1,1.1-1.2L311.3,225z"/>
<path d="M296,220.6c0,0.9-1.2,1.7-2.4,1.7c-1.1-0.1-2-0.9-2.1-1.9c-0.1-1.2,0.7-2.2,1.9-2.4C294.8,218,295.9,219.1,296,220.6z"/>
</svg>
