<?xml version="1.0" encoding="utf-8"?>
<!-- Generator: Adobe Illustrator 22.0.1, SVG Export Plug-In . SVG Version: 6.00 Build 0)  -->
<svg version="1.1" id="Layer_1" xmlns="http://www.w3.org/2000/svg" xmlns:xlink="http://www.w3.org/1999/xlink" x="0px" y="0px"
	 viewBox="0 0 600 600" style="enable-background:new 0 0 600 600;" xml:space="preserve">
<title>stuco</title>
<polygon points="249.9,342.1 249.9,342.1 245.8,346.4 245.4,346.8 244.7,346.4 244.1,346.1 244,346 240.8,343.9 240.8,343.9 
	242.6,342.1 242.6,342.1 "/>
<polygon points="263.9,327.6 253,338.9 245.8,338.9 245.8,338.7 258.9,325.1 258.9,327.6 "/>
<polygon points="275.4,308.7 275.4,315.8 275.4,315.8 267,324.4 267,324.4 262.1,324.4 262.1,321.7 262.1,321.7 271.6,311.8 
	274.6,308.7 274.6,308.7 "/>
<path d="M292,298.5l-0.7,0.7l-4.6,4.8l0,0l-8.2,8.4v-7h-0.9l5.1-5.3l0,0l2.7-2.8h5.5C291.3,297.7,291.7,298.1,292,298.5z"/>
<polygon points="273.6,342.1 273.6,342.1 269.1,346.4 256.1,358.8 250.1,350 253.6,346.4 257.9,342.1 257.9,342.1 "/>
<path d="M295.1,306.4v15.1l-18.1,17.4h-15.8l11.3-11.3h6.2v-6.2l12.9-12.9l3.6-3.6C295,305.5,295.1,305.9,295.1,306.4z"/>
<path d="M303,297v16.9l-3,2.9l-1.7,1.7v-12.1c0-0.2,0-0.4,0-0.5c0-0.2,0-0.3,0-0.5v-0.1c0-0.2,0-0.3,0-0.5s0-0.3,0-0.5l0,0l-0.1-0.4
	c0,0,0-0.1,0-0.1c0-0.1,0-0.1,0-0.2c0-0.2-0.1-0.4-0.1-0.6c0-0.3-0.1-0.5-0.2-0.7l0,0l2.1-2.3L303,297z"/>
<polygon points="320.2,297.4 317.3,300.2 317.2,300.2 313.3,304 313.3,304 308.5,308.6 306.2,310.8 306.2,297.4 "/>
<polygon points="341,274.8 341,277.4 341,277.4 325.9,292 325.9,274.8 "/>
<path d="M303,279.1v8l-3,3.1l-0.1,0.1l-4.7,4.8l-0.9,1l0,0c-0.1-0.1-0.2-0.3-0.4-0.4c-0.4-0.4-0.7-0.7-1.1-1
	c-0.3-0.2-0.5-0.4-0.8-0.6c-0.3-0.2-0.5-0.4-0.8-0.6l0,0l0,0l0,0h-0.1l-0.1-0.1h-0.1l0,0l-0.1-0.1l-0.1-0.1l-0.1-0.1
	c-0.2-0.1-0.3-0.2-0.5-0.3l0,0l1.5-1.5l0,0l4.8-5l0,0l3.9-4L303,279.1z"/>
<path d="M377.9,233.1c0.5,0.6,0.5,1.3-0.4,2.1l-6.8,5.8c-0.9,0.8-1.6,0.7-2.1,0s-0.5-1.3,0.4-2.1l6.8-5.8
	C376.7,232.4,377.4,232.5,377.9,233.1z"/>
<path d="M370.1,209.3l-2.1,2.2l-1.8,1.8l-2.9,3l0,0c0.9,1.3,0.7,2.8-0.5,4.5l-1,1.3l-2-1.4l1-1.4c0.2-0.3,0.3-0.6,0.4-0.9l0,0
	l-8,8.3c0.1,0.1,0.2,0.2,0.3,0.2c0.7,0.5,1.3,0.4,2-0.5l1.4-1.9l2,1.4l-1.3,1.8c-1.6,2.1-3.5,2.6-5.6,1.1c-0.2-0.1-0.3-0.3-0.5-0.4
	l-2.5,2.6l-1.7,1.9l-19.8,20.6l-4.1,4.3h7.9l4.1-4.3l0,0l16.5-17.1l0,0l1.4-1.4l0.1-0.1l0.3-0.3l17-17.6l3.6-3.8l20-8L377,222.8
	l-2.9,2.9h0L363,237.9l-0.5-0.5l-2.7,2.7l-1.8,1.8l-11.7,11.7l-4.3,4.3h18.4v0.9l4.3-4.1l2.3-2.2l1.9-1.8l3.3-3.1l0,0
	c0.2-1.2,0.9-2.3,2-2.9l3.4-2.3l0,0l9-8.7l0,0l1.9-1.8l1.9-1.8l13.3-33.7L370.1,209.3z M379.1,237.3l-6.5,5.6c-2,1.7-4,1.6-5.7-0.3
	s-1.4-4,0.6-5.7l6.5-5.6c2-1.7,4.1-1.6,5.7,0.3S381.1,235.5,379.1,237.3L379.1,237.3z"/>
<path d="M247.6,375.6L247.6,375.6c-0.8-0.4-1.5-0.8-2.2-1.4l0,0c0.7-1,1.3-1,2-0.6S248.1,374.7,247.6,375.6z"/>
<path d="M262.2,372.9L262.2,372.9L262.2,372.9l-0.1,0.1c0,0-0.1,0-0.1,0.1l-0.1,0.1l-0.1,0.1l-0.1,0.1l-0.1,0.1l0,0l0,0
	c0,0,0,0-0.1,0.1l-0.3,0.2l-0.5,0.3h-0.1l-0.5,0.3h-0.1l0,0h0l-0.5,0.3c-0.6,0.3-1.2,0.6-1.8,0.9l-0.8,0.3l0,0
	c-0.3,0.1-0.6,0.2-0.9,0.3l-0.4,0.1L252,374l-1.2,2l0.9,0.5h-0.2h-0.3l-0.4-0.1l-0.4-0.1l-0.4-0.1c1-1.6,0.5-3.7-1.1-4.7
	c0,0-0.1,0-0.1-0.1c-1.9-1.4-3.8-1-5.3,0.8l-17-17c-2.3-2.2-3.5-5.3-3.3-8.5v-0.4c0,0,0-0.1,0-0.1v-0.3c0-0.2,0-0.4,0.1-0.7
	c0-0.1,0-0.2,0-0.3c0-0.1,0-0.3,0.1-0.4s0.1-0.4,0.1-0.6s0.1-0.3,0.1-0.4c0.1-0.3,0.2-0.7,0.3-1c0-0.1,0.1-0.3,0.1-0.5
	c0.2-0.5,0.4-1,0.6-1.5c0-0.1,0.1-0.2,0.1-0.3c0.2-0.4,0.3-0.7,0.5-1l0.2-0.3l0.2-0.3c0,0,0-0.1,0.1-0.1c0.1-0.3,0.3-0.5,0.4-0.8
	l0.3-0.5l0.9,0.6l9.6,6.2l1.4,0.9l1.8,1.1l2.4,1.6l0.3,0.1l3.9,2.5l1.5,1l0,0l14,21.2L262.2,372.9z"/>
<path d="M226.1,359l-9.4,11.2l-1.6,2l-7.9,9.3l1.2,1.2l9.3,9.4l0,0l0.8,0.8l9.3-8l1.9-1.7l11.1-9.5L226.1,359z M226.1,363.3l7.7,7.7
	l-12.2-2.4L226.1,363.3z M218.5,389.3l-6.3-6.3l11,2.3L218.5,389.3z M226.1,382.7l-1.3-0.3l-12.6-2.8l2.3-2.6l6.1,1.3l4.6,1l4,0.9
	l-1.6,1.4L226.1,382.7z M220.7,374.8L217,374l1.4-1.6l0.8-0.9l16.3,3.2l-3.3,2.8L220.7,374.8z"/>
<path d="M216.5,396.9c0,1.6-0.6,3.1-1.7,4.2l-0.2,0.2l-0.5,0.4c-0.6,0.4-1.2,0.7-1.8,0.9l-0.6,0.1c-0.3,0.1-0.6,0.1-0.9,0.1h-0.6
	c-0.3,0-0.6,0-0.9-0.1l-0.6-0.1c-0.7-0.2-1.3-0.5-1.8-0.9c-0.1-0.1-0.2-0.2-0.4-0.3l-0.3-0.3l-7.5-7.5l-0.3-0.3l-0.3-0.4
	c-0.4-0.6-0.7-1.2-0.9-1.8c-0.1-0.2-0.1-0.4-0.1-0.6c-0.1-0.3-0.1-0.6-0.1-0.9c0-0.2,0-0.4,0-0.6c0-0.3,0-0.6,0.1-0.9
	c0-0.2,0.1-0.4,0.1-0.6l0.9-1.8c0.1-0.2,0.3-0.3,0.4-0.5l0.2-0.2l0.2-0.2l0.5-0.4c0.3-0.2,0.5-0.4,0.8-0.5l0.4-0.2
	c0.4-0.1,0.7-0.2,1.1-0.3l0.6-0.1c0.4,0,0.8,0,1.1,0c0.2,0,0.4,0,0.6,0.1c0.4,0.1,0.8,0.2,1.1,0.3l0.5,0.2c0.3,0.1,0.5,0.3,0.8,0.5
	l0,0c0.2,0.1,0.3,0.2,0.4,0.4l0.2,0.2l7.5,7.5c0.3,0.3,0.6,0.6,0.8,1l0,0l0,0C216.2,394.6,216.5,395.7,216.5,396.9z"/>
<path d="M276.6,257.9L276.6,257.9l-4.1-4.3L252.6,233l-1.8-1.9l-2.7-2.8l-0.8,0.6c-0.6-0.4-1.1-0.9-1.4-1.5l-1.6-2
	c-0.9-1.2-1.7-1.4-2.6-0.6l-0.7,0.6l4.1,5.3l-1.6,1.2l0,0l2.7,2.8l0,0l1.8,1.8l16.5,17.1l4.1,4.3L276.6,257.9L276.6,257.9z
	 M257.9,257.9l-4.2-4.2L242,241.9l-1.8-1.8l-4.8-4.8l-0.2,0.2l1.8,2.5l-1.7,1.6l-9.6-13.7l0.2-0.2l-2.9-2.9l-1.8-1.8l0,0l-15.7-15.7
	l20.1,8l1.9,2l0,0l1.8,1.8l10.9,11.3l-7-9.2l3.1-2.4c0.2-0.1,0.3-0.3,0.5-0.4l-2.9-3l-1.9-1.9l-2.1-2.2l-33.5-12.9l0,0l13.3,33.7
	l1.9,1.8l1.8,1.8l17.8,17l1.9,1.8l7.5,7.2l3.1,3l0.2-0.2l0.1-0.1c0.3-0.3,0.7-0.7,1.1-1s0.7-0.5,1-0.8s0.7-0.5,1.1-0.7
	c0.4-0.2,0.7-0.4,1.1-0.6c0.6-0.3,1.2-0.5,1.8-0.7c1.5-0.5,3-0.7,4.6-0.7L257.9,257.9L257.9,257.9z M226.3,244.3l-9.7-8l1.6-2
	l9.8,8.1c0.9,0.8,1.6,0.6,2.1,0s0.5-1.3-0.4-2.1l-9.8-8.1l1.6-1.9l9.7,8c2,1.7,2.4,3.7,0.8,5.6S228.3,246,226.3,244.3L226.3,244.3z
	 M240.6,220.5l-0.2-0.2l0,0l-1.8-1.9c-0.4-0.1-0.8,0-1.1,0.3l-1,0.8l3.1,4l0.8-0.6C241.2,222.3,241.4,221.6,240.6,220.5L240.6,220.5
	z"/>
<path d="M295.1,306.4v5.6l-3.6-3.5l-4.7-4.5l0,0l-4-3.8l0,0l-2.9-2.8h11.1c0.4,0.3,0.8,0.7,1.1,1.1c0.2,0.3,0.5,0.5,0.7,0.8
	c1.3,1.6,2.1,3.6,2.3,5.7C295,305.5,295.1,305.9,295.1,306.4z"/>
<path d="M303,303v16.6l-3-2.9l-1.7-1.7v-8.7c0-0.2,0-0.4,0-0.5c0-0.2,0-0.3,0-0.5v-0.1c0-0.2,0-0.3,0-0.5s0-0.3,0-0.5l0,0l-0.1-0.4
	c0,0,0-0.1,0-0.1c0-0.1,0-0.1,0-0.2c0-0.2-0.1-0.4-0.1-0.6c0-0.3-0.1-0.5-0.2-0.7l0,0l-0.1-0.4c-0.1-0.2-0.1-0.4-0.2-0.6l-0.2-0.6
	c-0.1-0.2-0.2-0.4-0.3-0.5s-0.3-0.6-0.4-0.9l-0.2-0.4c-0.1-0.2-0.3-0.5-0.4-0.7s-0.2-0.3-0.3-0.5l-0.3-0.4l0,0
	c-0.3-0.4-0.6-0.8-1-1.2l0,0c-0.1-0.1-0.2-0.3-0.4-0.4c-0.4-0.4-0.7-0.7-1.1-1c-0.3-0.2-0.5-0.4-0.8-0.6c-0.3-0.2-0.5-0.4-0.8-0.6
	l0,0l0,0l0,0h-0.1l-0.1-0.1H291l0,0l-0.1-0.1l-0.1-0.1l-0.1-0.1c-0.2-0.1-0.3-0.2-0.5-0.3c-0.2-0.1-0.4-0.2-0.5-0.3l-0.5-0.2
	l-0.6-0.2l-0.6-0.2l-0.5-0.1l-0.5-0.1l-0.5-0.1l-0.9-0.2l-0.8-0.1h-0.1h-0.9h-10.4l-10.9-10.5v-5.2h13.1l0,0l0.1,0.1l0,0v8.5l6.5-2
	l0,0l9,9l0,0l3.9,3.9l4.8,4.6L303,303z"/>
<polygon points="338.9,338.9 323.1,338.9 306.2,322.8 306.2,306.3 308.5,308.6 322.6,322.7 322.6,328.4 328.4,328.4 "/>
<polygon points="349.9,350 343.8,358.8 330.9,346.4 326.4,342.1 326.4,342.1 342.1,342.1 342.1,342.1 346.3,346.4 "/>
<polygon points="303,285.5 303,293.5 303,293.4 300,290.3 299.9,290.3 299.3,289.6 298.9,289.2 296.1,286.3 290,280 290,280 
	295.3,278.4 295.3,277.4 300,282.3 "/>
<polygon points="322.6,305.9 322.6,313.7 313.3,304 309.8,300.5 309,299.6 306.9,297.4 314.5,297.4 317.2,300.2 "/>
<polygon points="341,325 341,325.2 341,325.2 341,325.2 333.7,325.2 333.7,325.2 333.7,325.2 325.9,317.1 325.9,309.2 341,325 "/>
<polygon points="354.4,338.9 347,338.9 336.8,328.4 344.2,328.4 344.2,328.3 "/>
<polygon points="359.2,343.9 355.6,346.3 355.3,346.4 354.6,346.8 354.2,346.4 350.1,342.1 350.1,342.1 357.5,342.1 357.5,342.1 
	359.2,343.9 "/>
<path d="M376.8,347c0.2,3.2-1,6.3-3.3,8.5l-17.4,17.4c-0.2,0.2-0.4,0.4-0.6,0.5s-0.6,0.5-0.9,0.7s-0.4,0.3-0.6,0.4l-0.3,0.2
	l-2.2-3.1l-2.1,1.5l2,2.8l0,0h-0.1l-0.4,0.1l-0.6,0.2l-0.7,0.2l-1.6-2.5l-2.2,1.4l0.9,1.4h-0.4h-0.4H346h-0.3c-0.1,0-0.3,0-0.4-0.1
	l-0.4-0.1l-0.3-0.1l-0.4-0.1l-0.4-0.1l-0.3-0.1l-0.4-0.1l-0.4-0.2c-0.2-0.1-0.4-0.1-0.5-0.2c-0.7-0.3-1.4-0.7-2.1-1.1l-0.3-0.2
	l-0.1-0.1l-0.1-0.1l-0.4-0.2l-0.1,0l-0.3-0.2l0,0l-0.1,0c0,0-0.1-0.1-0.1-0.1l0,0l0,0l0,0l-0.1-0.1l-0.2-0.1
	c-0.1-0.1-0.3-0.2-0.4-0.4l0,0l14-21.2l0,0l0.9-0.6l0.3-0.2l3.9-2.5l0.2-0.1l2.8-1.8l3.2-2.1l1.5-1l8-5.2l0.9-0.6
	c0.1,0.2,0.2,0.4,0.3,0.5c0.2,0.4,0.4,0.7,0.6,1.1c0.1,0.2,0.2,0.3,0.3,0.5l0.3,0.5l0.2,0.4c0.3,0.6,0.5,1.2,0.7,1.8
	c0,0.1,0.1,0.3,0.1,0.4s0.1,0.3,0.1,0.4s0.1,0.2,0.1,0.3s0.1,0.4,0.2,0.6s0,0.2,0,0.3s0.1,0.3,0.1,0.4s0.1,0.3,0.1,0.5s0,0.2,0,0.3
	s0,0.4,0.1,0.6s0,0.3,0,0.4c0,0,0,0,0,0.1C376.8,346.8,376.8,346.9,376.8,347z"/>
<path d="M385,372.2l-1.7-2l-9.5-11.2l-14.7,14.7l11.1,9.5l2,1.7l9.3,8l0.8-0.8l9.3-9.4l1.2-1.3L385,372.2z M373.8,363.3l4.5,5.3
	l-12.1,2.4L373.8,363.3z M367.8,377.5l-3.3-2.8l16.3-3.2l0.8,0.9l1.4,1.6l-3.6,0.9L367.8,377.5z M381.5,389.3l-4.7-4l11-2.3
	L381.5,389.3z M375.1,382.4l-1.3,0.3l-1.4-1.2l-1.6-1.4l4-0.9l4.6-1l6.1-1.3l2.3,2.6L375.1,382.4z"/>
<path d="M402.9,389.4c0,0.2,0,0.4,0,0.6c-0.1,0.6-0.2,1.1-0.4,1.7c-0.1,0.2-0.1,0.3-0.2,0.4c-0.1,0.3-0.3,0.6-0.5,0.8
	c-0.1,0.2-0.2,0.3-0.4,0.5c-0.1,0.1-0.1,0.1-0.2,0.2l-7.5,7.5l-0.2,0.2c-0.1,0.1-0.3,0.3-0.5,0.4c-0.6,0.4-1.2,0.7-1.8,0.9l-0.6,0.1
	c-0.3,0.1-0.6,0.1-0.9,0.1h-0.6c-0.3,0-0.6,0-0.9-0.1l-0.6-0.1c-0.7-0.2-1.3-0.5-1.8-0.9c-0.1-0.1-0.2-0.2-0.4-0.3
	c-0.1-0.1-0.2-0.2-0.3-0.3l-0.3-0.3c-0.1-0.1-0.2-0.2-0.3-0.4l-0.9-1.9c-0.1-0.2-0.1-0.3-0.1-0.5c-0.1-0.3-0.1-0.6-0.1-0.9
	c0-0.1,0-0.2,0-0.3s0-0.2,0-0.3c0-0.3,0-0.6,0.1-0.9c0-0.2,0.1-0.4,0.1-0.6c0.1-0.5,0.3-0.9,0.6-1.3v-0.1v-0.1l0,0
	c0.1-0.1,0.2-0.3,0.3-0.4c0.1-0.2,0.2-0.3,0.4-0.5l0.2-0.2l7.5-7.5l0.3-0.2c0.1-0.1,0.3-0.2,0.4-0.4l0,0c0.3-0.2,0.6-0.4,0.9-0.5
	l0.4-0.2c0.4-0.1,0.7-0.2,1.1-0.3c0.2,0,0.4-0.1,0.6-0.1c0.4,0,0.8,0,1.1,0c0.2,0,0.4,0.1,0.6,0.1c0.4,0.1,0.7,0.2,1.1,0.3
	c0.2,0.1,0.4,0.2,0.5,0.2c0.3,0.1,0.5,0.3,0.8,0.5c0.2,0.1,0.3,0.3,0.5,0.4l0.2,0.2l0.2,0.2c0.1,0.1,0.3,0.3,0.4,0.5
	c0.2,0.2,0.3,0.5,0.5,0.8c0.1,0.2,0.2,0.4,0.2,0.5c0.2,0.5,0.4,1.1,0.4,1.7C402.9,389,402.9,389.2,402.9,389.4z"/>
<path d="M320.2,399l-1.7-8.8c-0.2-1.2-0.8-1.5-1.6-1.4s-1.2,0.7-1,1.9l1.7,8.8c0.2,1.1,0.8,1.5,1.6,1.3S320.4,400.2,320.2,399z
	 M320.2,399l-1.7-8.8c-0.2-1.2-0.8-1.5-1.6-1.4s-1.2,0.7-1,1.9l1.7,8.8c0.2,1.1,0.8,1.5,1.6,1.3S320.4,400.2,320.2,399z M320.2,399
	l-1.7-8.8c-0.2-1.2-0.8-1.5-1.6-1.4s-1.2,0.7-1,1.9l1.7,8.8c0.2,1.1,0.8,1.5,1.6,1.3S320.4,400.2,320.2,399z M320.2,399l-1.7-8.8
	c-0.2-1.2-0.8-1.5-1.6-1.4s-1.2,0.7-1,1.9l1.7,8.8c0.2,1.1,0.8,1.5,1.6,1.3S320.4,400.2,320.2,399z M320.2,399l-1.7-8.8
	c-0.2-1.2-0.8-1.5-1.6-1.4s-1.2,0.7-1,1.9l1.7,8.8c0.2,1.1,0.8,1.5,1.6,1.3S320.4,400.2,320.2,399z M320.2,399l-1.7-8.8
	c-0.2-1.2-0.8-1.5-1.6-1.4s-1.2,0.7-1,1.9l1.7,8.8c0.2,1.1,0.8,1.5,1.6,1.3S320.4,400.2,320.2,399z M270.2,385.7l-1.4-0.5l-3.9,11.1
	l1.4,0.5c0.8,0.3,1.4,0,1.8-1.1l2.8-8.1C271.4,386.5,271,386,270.2,385.7L270.2,385.7z M320.2,399l-1.7-8.8
	c-0.2-1.2-0.8-1.5-1.6-1.4s-1.2,0.7-1,1.9l1.7,8.8c0.2,1.1,0.8,1.5,1.6,1.3S320.4,400.2,320.2,399z M320.2,399l-1.7-8.8
	c-0.2-1.2-0.8-1.5-1.6-1.4s-1.2,0.7-1,1.9l1.7,8.8c0.2,1.1,0.8,1.5,1.6,1.3S320.4,400.2,320.2,399z M270.2,385.7l-1.4-0.5l-3.9,11.1
	l1.4,0.5c0.8,0.3,1.4,0,1.8-1.1l2.8-8.1C271.4,386.5,271,386,270.2,385.7L270.2,385.7z M270.2,385.7l-1.4-0.5l-3.9,11.1l1.4,0.5
	c0.8,0.3,1.4,0,1.8-1.1l2.8-8.1C271.4,386.5,271,386,270.2,385.7L270.2,385.7z M320.2,399l-1.7-8.8c-0.2-1.2-0.8-1.5-1.6-1.4
	s-1.2,0.7-1,1.9l1.7,8.8c0.2,1.1,0.8,1.5,1.6,1.3S320.4,400.2,320.2,399z M320.2,399l-1.7-8.8c-0.2-1.2-0.8-1.5-1.6-1.4
	s-1.2,0.7-1,1.9l1.7,8.8c0.2,1.1,0.8,1.5,1.6,1.3S320.4,400.2,320.2,399z M270.2,385.7l-1.4-0.5l-3.9,11.1l1.4,0.5
	c0.8,0.3,1.4,0,1.8-1.1l2.8-8.1C271.4,386.5,271,386,270.2,385.7L270.2,385.7z M270.2,385.7l-1.4-0.5l-3.9,11.1l1.4,0.5
	c0.8,0.3,1.4,0,1.8-1.1l2.8-8.1C271.4,386.5,271,386,270.2,385.7L270.2,385.7z M320.2,399l-1.7-8.8c-0.2-1.2-0.8-1.5-1.6-1.4
	s-1.2,0.7-1,1.9l1.7,8.8c0.2,1.1,0.8,1.5,1.6,1.3S320.4,400.2,320.2,399z M320.2,399l-1.7-8.8c-0.2-1.2-0.8-1.5-1.6-1.4
	s-1.2,0.7-1,1.9l1.7,8.8c0.2,1.1,0.8,1.5,1.6,1.3S320.4,400.2,320.2,399z M270.2,385.7l-1.4-0.5l-3.9,11.1l1.4,0.5
	c0.8,0.3,1.4,0,1.8-1.1l2.8-8.1C271.4,386.5,271,386,270.2,385.7L270.2,385.7z M270.2,385.7l-1.4-0.5l-3.9,11.1l1.4,0.5
	c0.8,0.3,1.4,0,1.8-1.1l2.8-8.1C271.4,386.5,271,386,270.2,385.7L270.2,385.7z M320.2,399l-1.7-8.8c-0.2-1.2-0.8-1.5-1.6-1.4
	s-1.2,0.7-1,1.9l1.7,8.8c0.2,1.1,0.8,1.5,1.6,1.3S320.4,400.2,320.2,399z M320.2,399l-1.7-8.8c-0.2-1.2-0.8-1.5-1.6-1.4
	s-1.2,0.7-1,1.9l1.7,8.8c0.2,1.1,0.8,1.5,1.6,1.3S320.4,400.2,320.2,399z M270.2,385.7l-1.4-0.5l-3.9,11.1l1.4,0.5
	c0.8,0.3,1.4,0,1.8-1.1l2.8-8.1C271.4,386.5,271,386,270.2,385.7L270.2,385.7z M229,226.8l4.9,6.9l1.8-1.7L229,226.8z M270.3,385.7
	l-1.4-0.5l-3.9,11.1l1.4,0.5c0.8,0.3,1.4,0,1.8-1.1l2.8-8.1C271.4,386.5,271,386,270.3,385.7L270.3,385.7z M320.2,399l-1.7-8.8
	c-0.2-1.2-0.8-1.5-1.6-1.4s-1.2,0.7-1,1.9l1.7,8.8c0.2,1.1,0.8,1.5,1.6,1.3S320.4,400.2,320.2,399z M320.2,399l-1.7-8.8
	c-0.2-1.2-0.8-1.5-1.6-1.4s-1.2,0.7-1,1.9l1.7,8.8c0.2,1.1,0.8,1.5,1.6,1.3S320.4,400.2,320.2,399z M270.2,385.7l-1.4-0.5l-3.9,11.1
	l1.4,0.5c0.8,0.3,1.4,0,1.8-1.1l2.8-8.1C271.4,386.5,271,386,270.2,385.7L270.2,385.7z M229,226.8l4.9,6.9l1.8-1.7L229,226.8z
	 M229,226.8l4.9,6.9l1.8-1.7L229,226.8z M240.6,220.5l-0.2-0.2l0,0l-0.8-1c-0.2-0.4-0.6-0.7-1-0.8c-0.4-0.1-0.8,0-1.1,0.3l-1,0.8
	l3.1,4l0.8-0.6C241.2,222.3,241.4,221.6,240.6,220.5L240.6,220.5z M270.3,385.7l-1.4-0.5l-3.9,11.1l1.4,0.5c0.8,0.3,1.4,0,1.8-1.1
	l2.8-8.1C271.4,386.5,271,386,270.3,385.7L270.3,385.7z M320.2,399l-1.7-8.8c-0.2-1.2-0.8-1.5-1.6-1.4s-1.2,0.7-1,1.9l1.7,8.8
	c0.2,1.1,0.8,1.5,1.6,1.3S320.4,400.2,320.2,399z M320.2,399l-1.7-8.8c-0.2-1.2-0.8-1.5-1.6-1.4s-1.2,0.7-1,1.9l1.7,8.8
	c0.2,1.1,0.8,1.5,1.6,1.3S320.4,400.2,320.2,399z M270.2,385.7l-1.4-0.5l-3.9,11.1l1.4,0.5c0.8,0.3,1.4,0,1.8-1.1l2.8-8.1
	C271.4,386.5,271,386,270.2,385.7L270.2,385.7z M229,226.8l4.9,6.9l1.8-1.7L229,226.8z M240.6,220.5l-0.2-0.2l0,0l-0.8-1
	c-0.2-0.4-0.6-0.7-1-0.8c-0.4-0.1-0.8,0-1.1,0.3l-1,0.8l3.1,4l0.8-0.6C241.2,222.3,241.4,221.6,240.6,220.5L240.6,220.5z M229,226.8
	l4.9,6.9l1.8-1.7L229,226.8z M240.6,220.5l-0.2-0.2l0,0l-0.8-1c-0.2-0.4-0.6-0.7-1-0.8c-0.4-0.1-0.8,0-1.1,0.3l-1,0.8l3.1,4l0.8-0.6
	C241.2,222.3,241.4,221.6,240.6,220.5L240.6,220.5z M270.3,385.7l-1.4-0.5l-3.9,11.1l1.4,0.5c0.8,0.3,1.4,0,1.8-1.1l2.8-8.1
	C271.4,386.5,271,386,270.3,385.7L270.3,385.7z M272.2,201.9l1.1,8.4l2.4-0.7L272.2,201.9z M320.2,399l-1.7-8.8
	c-0.2-1.2-0.8-1.5-1.6-1.4s-1.2,0.7-1,1.9l1.7,8.8c0.2,1.1,0.8,1.5,1.6,1.3S320.4,400.2,320.2,399L320.2,399z M320.2,399l-1.7-8.8
	c-0.2-1.2-0.8-1.5-1.6-1.4s-1.2,0.7-1,1.9l1.7,8.8c0.2,1.1,0.8,1.5,1.6,1.3S320.4,400.2,320.2,399L320.2,399z M270.2,385.7l-1.4-0.5
	l-3.9,11.1l1.4,0.5c0.8,0.3,1.4,0,1.8-1.1l2.8-8.1C271.4,386.5,271,386,270.2,385.7L270.2,385.7z M229,226.8l4.9,6.9l1.8-1.7
	L229,226.8z M240.6,220.5l-0.2-0.2l0,0l-0.8-1c-0.2-0.4-0.6-0.7-1-0.8c-0.4-0.1-0.8,0-1.1,0.3l-1,0.8l3.1,4l0.8-0.6
	C241.2,222.3,241.4,221.6,240.6,220.5L240.6,220.5z M272.2,201.9l1.1,8.4l2.4-0.7L272.2,201.9z M229,226.8l4.9,6.9l1.8-1.7
	L229,226.8z M240.6,220.5l-0.2-0.2l0,0l-0.8-1c-0.2-0.4-0.6-0.7-1-0.8c-0.4-0.1-0.8,0-1.1,0.3l-1,0.8l3.1,4l0.8-0.6
	C241.2,222.3,241.4,221.6,240.6,220.5L240.6,220.5z M270.3,385.7l-1.4-0.5l-3.9,11.1l1.4,0.5c0.8,0.3,1.4,0,1.8-1.1l2.8-8.1
	C271.4,386.5,271,386,270.3,385.7L270.3,385.7z M272.2,201.9l1.1,8.4l2.4-0.7L272.2,201.9z M320.2,399l-1.7-8.8
	c-0.2-1.2-0.8-1.5-1.6-1.4s-1.2,0.7-1,1.9l1.7,8.8c0.2,1.1,0.8,1.5,1.6,1.3S320.4,400.2,320.2,399L320.2,399z M320.2,399l-1.7-8.8
	c-0.2-1.2-0.8-1.5-1.6-1.4s-1.2,0.7-1,1.9l1.7,8.8c0.2,1.1,0.8,1.5,1.6,1.3S320.4,400.2,320.2,399L320.2,399z M270.2,385.7l-1.4-0.5
	l-3.9,11.1l1.4,0.5c0.8,0.3,1.4,0,1.8-1.1l2.8-8.1C271.4,386.5,271,386,270.2,385.7L270.2,385.7z M229,226.8l4.9,6.9l1.8-1.7
	L229,226.8z M240.6,220.5l-0.2-0.2l0,0l-0.8-1c-0.2-0.4-0.6-0.7-1-0.8c-0.4-0.1-0.8,0-1.1,0.3l-1,0.8l3.1,4l0.8-0.6
	C241.2,222.3,241.4,221.6,240.6,220.5L240.6,220.5z M272.2,201.9l1.1,8.4l2.4-0.7L272.2,201.9z M229,226.8l4.9,6.9l1.8-1.7
	L229,226.8z M240.6,220.5l-0.2-0.2l0,0l-0.8-1c-0.2-0.4-0.6-0.7-1-0.8c-0.4-0.1-0.8,0-1.1,0.3l-1,0.8l3.1,4l0.8-0.6
	C241.2,222.3,241.4,221.6,240.6,220.5L240.6,220.5z M270.3,385.7l-1.4-0.5l-3.9,11.1l1.4,0.5c0.8,0.3,1.4,0,1.8-1.1l2.8-8.1
	C271.4,386.5,271,386,270.3,385.7L270.3,385.7z M272.2,201.9l1.1,8.4l2.4-0.7L272.2,201.9z M320.2,399l-1.7-8.8
	c-0.2-1.2-0.8-1.5-1.6-1.4s-1.2,0.7-1,1.9l1.7,8.8c0.2,1.1,0.8,1.5,1.6,1.3S320.4,400.2,320.2,399L320.2,399z M320.2,399l-1.7-8.8
	c-0.2-1.2-0.8-1.5-1.6-1.4s-1.2,0.7-1,1.9l1.7,8.8c0.2,1.1,0.8,1.5,1.6,1.3S320.4,400.2,320.2,399L320.2,399z M270.2,385.7l-1.4-0.5
	l-3.9,11.1l1.4,0.5c0.8,0.3,1.4,0,1.8-1.1l2.8-8.1C271.4,386.5,271,386,270.2,385.7L270.2,385.7z M229,226.8l4.9,6.9l1.8-1.7
	L229,226.8z M240.6,220.5l-0.2-0.2l0,0l-0.8-1c-0.2-0.4-0.6-0.7-1-0.8c-0.4-0.1-0.8,0-1.1,0.3l-1,0.8l3.1,4l0.8-0.6
	C241.2,222.3,241.4,221.6,240.6,220.5L240.6,220.5z M272.2,201.9l1.1,8.4l2.4-0.7L272.2,201.9z M229,226.8l4.9,6.9l1.8-1.7
	L229,226.8z M240.6,220.5l-0.2-0.2l0,0l-0.8-1c-0.2-0.4-0.6-0.7-1-0.8c-0.4-0.1-0.8,0-1.1,0.3l-1,0.8l3.1,4l0.8-0.6
	C241.2,222.3,241.4,221.6,240.6,220.5L240.6,220.5z M270.3,385.7l-1.4-0.5l-3.9,11.1l1.4,0.5c0.8,0.3,1.4,0,1.8-1.1l2.8-8.1
	C271.4,386.5,271,386,270.3,385.7L270.3,385.7z M272.2,201.9l1.1,8.4l2.4-0.7L272.2,201.9z M320.2,399l-1.7-8.8
	c-0.2-1.2-0.8-1.5-1.6-1.4s-1.2,0.7-1,1.9l1.7,8.8c0.2,1.1,0.8,1.5,1.6,1.3S320.4,400.2,320.2,399L320.2,399z M320.2,399l-1.7-8.8
	c-0.2-1.2-0.8-1.5-1.6-1.4s-1.2,0.7-1,1.9l1.7,8.8c0.2,1.1,0.8,1.5,1.6,1.3S320.4,400.2,320.2,399L320.2,399z M270.2,385.7l-1.4-0.5
	l-3.9,11.1l1.4,0.5c0.8,0.3,1.4,0,1.8-1.1l2.8-8.1C271.4,386.5,271,386,270.2,385.7L270.2,385.7z M229,226.8l4.9,6.9l1.8-1.7
	L229,226.8z M240.6,220.5l-0.2-0.2l0,0l-0.8-1c-0.2-0.4-0.6-0.7-1-0.8c-0.4-0.1-0.8,0-1.1,0.3l-1,0.8l3.1,4l0.8-0.6
	C241.2,222.3,241.4,221.6,240.6,220.5L240.6,220.5z M272.2,201.9l1.1,8.4l2.4-0.7L272.2,201.9z M229,226.8l4.9,6.9l1.8-1.7
	L229,226.8z M240.6,220.5l-0.2-0.2l0,0l-0.8-1c-0.2-0.4-0.6-0.7-1-0.8c-0.4-0.1-0.8,0-1.1,0.3l-1,0.8l3.1,4l0.8-0.6
	C241.2,222.3,241.4,221.6,240.6,220.5L240.6,220.5z M270.3,385.7l-1.4-0.5l-3.9,11.1l1.4,0.5c0.8,0.3,1.4,0,1.8-1.1l2.8-8.1
	C271.4,386.5,271,386,270.3,385.7L270.3,385.7z M272.2,201.9l1.1,8.4l2.4-0.7L272.2,201.9z M320.2,399l-1.7-8.8
	c-0.2-1.2-0.8-1.5-1.6-1.4s-1.2,0.7-1,1.9l1.7,8.8c0.2,1.1,0.8,1.5,1.6,1.3S320.4,400.2,320.2,399L320.2,399z M320.2,399l-1.7-8.8
	c-0.2-1.2-0.8-1.5-1.6-1.4s-1.2,0.7-1,1.9l1.7,8.8c0.2,1.1,0.8,1.5,1.6,1.3S320.4,400.2,320.2,399L320.2,399z M270.2,385.7l-1.4-0.5
	l-3.9,11.1l1.4,0.5c0.8,0.3,1.4,0,1.8-1.1l2.8-8.1C271.4,386.5,271,386,270.2,385.7L270.2,385.7z M229,226.8l4.9,6.9l1.8-1.7
	L229,226.8z M240.6,220.5l-0.2-0.2l0,0l-0.8-1c-0.2-0.4-0.6-0.7-1-0.8c-0.4-0.1-0.8,0-1.1,0.3l-1,0.8l3.1,4l0.8-0.6
	C241.2,222.3,241.4,221.6,240.6,220.5L240.6,220.5z M272.2,201.9l1.1,8.4l2.4-0.7L272.2,201.9z M229,226.8l4.9,6.9l1.8-1.7
	L229,226.8z M240.6,220.5l-0.2-0.2l0,0l-0.8-1c-0.2-0.4-0.6-0.7-1-0.8c-0.4-0.1-0.8,0-1.1,0.3l-1,0.8l3.1,4l0.8-0.6
	C241.2,222.3,241.4,221.6,240.6,220.5L240.6,220.5z M270.3,385.7l-1.4-0.5l-3.9,11.1l1.4,0.5c0.8,0.3,1.4,0,1.8-1.1l2.8-8.1
	C271.4,386.5,271,386,270.3,385.7L270.3,385.7z M272.2,201.9l1.1,8.4l2.4-0.7L272.2,201.9z M320.2,399l-1.7-8.8
	c-0.2-1.2-0.8-1.5-1.6-1.4s-1.2,0.7-1,1.9l1.7,8.8c0.2,1.1,0.8,1.5,1.6,1.3S320.4,400.2,320.2,399L320.2,399z M320.2,399l-1.7-8.8
	c-0.2-1.2-0.8-1.5-1.6-1.4s-1.2,0.7-1,1.9l1.7,8.8c0.2,1.1,0.8,1.5,1.6,1.3S320.4,400.2,320.2,399L320.2,399z M270.2,385.7l-1.4-0.5
	l-3.9,11.1l1.4,0.5c0.8,0.3,1.4,0,1.8-1.1l2.8-8.1C271.4,386.5,271,386,270.2,385.7L270.2,385.7z M229,226.8l4.9,6.9l1.8-1.7
	L229,226.8z M240.6,220.5l-0.2-0.2l0,0l-0.8-1c-0.2-0.4-0.6-0.7-1-0.8c-0.4-0.1-0.8,0-1.1,0.3l-1,0.8l3.1,4l0.8-0.6
	C241.2,222.3,241.4,221.6,240.6,220.5L240.6,220.5z M272.2,201.9l1.1,8.4l2.4-0.7L272.2,201.9z M229,226.8l4.9,6.9l1.8-1.7
	L229,226.8z M240.6,220.5l-0.2-0.2l0,0l-0.8-1c-0.2-0.4-0.6-0.7-1-0.8c-0.4-0.1-0.8,0-1.1,0.3l-1,0.8l3.1,4l0.8-0.6
	C241.2,222.3,241.4,221.6,240.6,220.5L240.6,220.5z M270.3,385.7l-1.4-0.5l-3.9,11.1l1.4,0.5c0.8,0.3,1.4,0,1.8-1.1l2.8-8.1
	C271.4,386.5,271,386,270.3,385.7L270.3,385.7z M272.2,201.9l1.1,8.4l2.4-0.7L272.2,201.9z M320.2,399l-1.7-8.8
	c-0.2-1.2-0.8-1.5-1.6-1.4s-1.2,0.7-1,1.9l1.7,8.8c0.2,1.1,0.8,1.5,1.6,1.3S320.4,400.2,320.2,399L320.2,399z M320.2,399l-1.7-8.8
	c-0.2-1.2-0.8-1.5-1.6-1.4s-1.2,0.7-1,1.9l1.7,8.8c0.2,1.1,0.8,1.5,1.6,1.3S320.4,400.2,320.2,399L320.2,399z M270.2,385.7l-1.4-0.5
	l-3.9,11.1l1.4,0.5c0.8,0.3,1.4,0,1.8-1.1l2.8-8.1C271.4,386.5,271,386,270.2,385.7L270.2,385.7z M229,226.8l4.9,6.9l1.8-1.7
	L229,226.8z M240.6,220.5l-0.2-0.2l0,0l-0.8-1c-0.2-0.4-0.6-0.7-1-0.8c-0.4-0.1-0.8,0-1.1,0.3l-1,0.8l3.1,4l0.8-0.6
	C241.2,222.3,241.4,221.6,240.6,220.5L240.6,220.5z M272.2,201.9l1.1,8.4l2.4-0.7L272.2,201.9z M229,226.8l4.9,6.9l1.8-1.7
	L229,226.8z M240.6,220.5l-0.2-0.2l0,0l-0.8-1c-0.2-0.4-0.6-0.7-1-0.8c-0.4-0.1-0.8,0-1.1,0.3l-1,0.8l3.1,4l0.8-0.6
	C241.2,222.3,241.4,221.6,240.6,220.5L240.6,220.5z M270.3,385.7l-1.4-0.5l-3.9,11.1l1.4,0.5c0.8,0.3,1.4,0,1.8-1.1l2.8-8.1
	C271.4,386.5,271,386,270.3,385.7L270.3,385.7z M272.2,201.9l1.1,8.4l2.4-0.7L272.2,201.9z M320.2,399l-1.7-8.8
	c-0.2-1.2-0.8-1.5-1.6-1.4s-1.2,0.7-1,1.9l1.7,8.8c0.2,1.1,0.8,1.5,1.6,1.3S320.4,400.2,320.2,399L320.2,399z M377.9,233.1
	c-0.5-0.6-1.2-0.7-2.1,0l-6.8,5.8c-0.9,0.8-0.9,1.5-0.4,2.1s1.2,0.7,2.1,0l6.8-5.8C378.5,234.4,378.5,233.7,377.9,233.1z M320.2,399
	l-1.7-8.8c-0.2-1.2-0.8-1.5-1.6-1.4s-1.2,0.7-1,1.9l1.7,8.8c0.2,1.1,0.8,1.5,1.6,1.3S320.4,400.2,320.2,399z M270.2,385.7l-1.4-0.5
	l-3.9,11.1l1.4,0.5c0.8,0.3,1.4,0,1.8-1.1l2.8-8.1C271.4,386.5,271,386,270.2,385.7L270.2,385.7z M229,226.8l4.9,6.9l1.8-1.7
	L229,226.8z M240.6,220.5l-0.2-0.2l0,0l-0.8-1c-0.2-0.4-0.6-0.7-1-0.8c-0.4-0.1-0.8,0-1.1,0.3l-1,0.8l3.1,4l0.8-0.6
	C241.2,222.3,241.4,221.6,240.6,220.5L240.6,220.5z M272.2,201.9l1.1,8.4l2.4-0.7L272.2,201.9z M378,233.1c-0.5-0.6-1.2-0.7-2.1,0
	l-6.8,5.8c-0.9,0.8-0.9,1.5-0.4,2.1s1.2,0.7,2.1,0l6.8-5.8C378.5,234.4,378.5,233.7,378,233.1L378,233.1z M229,226.8l4.9,6.9
	l1.8-1.7L229,226.8z M240.6,220.5l-0.2-0.2l0,0l-0.8-1c-0.2-0.4-0.6-0.7-1-0.8c-0.4-0.1-0.8,0-1.1,0.3l-1,0.8l3.1,4l0.8-0.6
	C241.2,222.3,241.4,221.6,240.6,220.5L240.6,220.5z M270.2,385.7l-1.4-0.5l-3.8,11.1l1.4,0.5c0.8,0.3,1.4,0,1.8-1.1l2.8-8.1
	C271.4,386.5,271,386,270.2,385.7L270.2,385.7z M272.1,201.9l1.1,8.4l2.4-0.7L272.1,201.9z M320.1,399l-1.7-8.8
	c-0.2-1.2-0.8-1.5-1.6-1.4s-1.2,0.7-1,1.9l1.7,8.8c0.2,1.1,0.8,1.5,1.6,1.3S320.4,400.2,320.1,399L320.1,399z M377.9,233.1
	c-0.5-0.6-1.2-0.7-2.1,0l-6.8,5.8c-0.9,0.8-0.9,1.5-0.4,2.1s1.2,0.7,2.1,0l6.8-5.8C378.5,234.4,378.5,233.7,377.9,233.1z
	 M384.9,242.2c-0.5-0.7-1.1-0.9-2.1-0.2l-7.4,5c-1,0.7-1,1.4-0.6,2s1.1,0.9,2.1,0.2l7.4-5C385.3,243.5,385.3,242.9,384.9,242.2
	L384.9,242.2z M320.2,399l-1.7-8.8c-0.2-1.2-0.8-1.5-1.6-1.4s-1.2,0.7-1,1.9l1.7,8.8c0.2,1.1,0.8,1.5,1.6,1.3S320.4,400.2,320.2,399
	z M270.2,385.7l-1.4-0.5l-3.9,11.1l1.4,0.5c0.8,0.3,1.4,0,1.8-1.1l2.8-8.1C271.4,386.5,271,386,270.2,385.7L270.2,385.7z M229,226.8
	l4.9,6.9l1.8-1.7L229,226.8z M240.6,220.5l-0.2-0.2l0,0l-0.8-1c-0.2-0.4-0.6-0.7-1-0.8c-0.4-0.1-0.8,0-1.1,0.3l-1,0.8l3.1,4l0.8-0.6
	C241.2,222.3,241.4,221.6,240.6,220.5L240.6,220.5z M272.2,201.9l1.1,8.4l2.4-0.7L272.2,201.9z M378,233.1c-0.5-0.6-1.2-0.7-2.1,0
	l-6.8,5.8c-0.9,0.8-0.9,1.5-0.4,2.1s1.2,0.7,2.1,0l6.8-5.8C378.5,234.4,378.5,233.7,378,233.1L378,233.1z M384.9,242.2
	c-0.5-0.7-1.1-0.9-2.1-0.2l-7.4,5c-1,0.7-1,1.4-0.6,2s1.1,0.9,2.1,0.2l7.4-5C385.3,243.5,385.3,242.9,384.9,242.2L384.9,242.2z
	 M388.1,235.8c-0.3-0.3-0.5-0.7-0.8-1s-0.5-0.7-0.8-1l0,0c-2.9-3.8-6.1-7.5-9.6-10.9c-2-2-4.1-3.9-6.2-5.8c-1.5-1.3-3-2.5-4.6-3.7
	l-1-0.8l-1-0.8c-38.3-27.8-90.1-27.8-128.3,0l-1,0.8l-1,0.8c-1.6,1.2-3.1,2.4-4.6,3.7c-2.2,1.8-4.2,3.8-6.2,5.8
	c-3.4,3.4-6.6,7-9.6,10.9l-0.8,1l-0.8,1c-29,39.8-27.8,94.1,3,132.5l0.8,1l0.8,1c0.6,0.7,1.2,1.4,1.8,2.1c0.8,0.8,1.5,1.7,2.3,2.5
	c1.4,1.5,2.9,3,4.4,4.4c0.8,0.8,1.6,1.5,2.4,2.2c0.7,0.6,1.4,1.2,2.1,1.8c0.3,0.3,0.6,0.5,1,0.8s0.7,0.5,1,0.8
	c39.9,32.1,96.9,32.1,136.8,0l1-0.8l1-0.8c0.7-0.6,1.4-1.2,2.1-1.8c0.8-0.7,1.6-1.5,2.4-2.2c1.5-1.4,3-2.9,4.4-4.4
	c0.8-0.8,1.5-1.6,2.3-2.5s1.2-1.4,1.8-2.1c0.3-0.3,0.5-0.6,0.8-1l0.8-1C415.9,329.9,417.2,275.5,388.1,235.8L388.1,235.8z
	 M381.2,239.9c2.2-1.5,4.2-1.2,5.6,0.9s1,4.1-1.2,5.6l-7.1,4.8c-2.2,1.5-4.2,1.2-5.6-0.9c-0.6-0.8-0.9-1.7-0.8-2.7l0,0
	c0.2-1.2,0.9-2.3,2-2.9l3.4-2.3l0,0L381.2,239.9z M379.7,231.6c1.7,1.9,1.4,4-0.6,5.7l-6.5,5.6c-2,1.7-4,1.6-5.7-0.3s-1.4-4,0.6-5.7
	l6.5-5.6C376,229.6,378.1,229.6,379.7,231.6L379.7,231.6z M372.3,224l1.9,1.8h0L363,237.9l-0.5-0.5l-1.4-1.3l4.8-5.2l-2.2-2
	l-4.8,5.2l-1.9-1.8l11.2-12.1l1.9,1.8l-4.8,5.2l2.2,2L372.3,224z M362.1,215.3c0.4,0.3,0.8,0.7,1.2,1.2l0,0c0.9,1.3,0.7,2.8-0.5,4.5
	l-1,1.3l-2-1.4l1-1.4c0.2-0.3,0.3-0.6,0.4-0.9c0.1-0.5-0.1-1-0.6-1.2c-0.7-0.5-1.3-0.4-2,0.5l-5.3,7.2c-0.6,0.8-0.6,1.4-0.1,1.9
	c0.1,0.1,0.2,0.2,0.3,0.2c0.7,0.5,1.3,0.4,2-0.5l1.4-1.9l2,1.4l-1.3,1.8c-1.6,2.1-3.5,2.6-5.6,1.1c-0.2-0.1-0.3-0.3-0.5-0.4
	c-1.6-1.4-1.6-3.3-0.2-5.2l5.1-6.9C358.1,214.2,360.1,213.7,362.1,215.3L362.1,215.3z M343,218.2l0.5-0.9l2.1,1.2l-0.6,1
	c-0.6,1-0.4,1.6,0.4,2.1s1.4,0.3,2-0.7c1.7-2.9-2.4-6,0-10.1c1.3-2.3,3.2-2.9,5.4-1.7s2.5,3.2,1.2,5.5l-0.3,0.4l-2.1-1.2l0.3-0.6
	c0.6-1,0.4-1.6-0.3-2.1s-1.4-0.3-1.9,0.8c-1.7,2.9,2.4,6,0,10.1c-1.3,2.3-3.2,2.9-5.4,1.6S341.6,220.4,343,218.2z M336.2,201.5
	l-2.5,6.6l2.8,1.1l2.5-6.6l2.5,0.9l-5.9,15.4L333,218l2.5-6.6l-2.8-1.1l-2.5,6.6l-2.4-0.9l5.9-15.4L336.2,201.5z M319.3,209.6
	l2.1-8.3c0.7-2.6,2.3-3.7,4.8-3.1s3.4,2.4,2.7,5l-0.4,1.6l-2.4-0.6l0.4-1.7c0.3-1.1-0.1-1.7-0.9-1.9s-1.4,0.1-1.7,1.2l-2.2,8.6
	c-0.3,1.1,0.1,1.7,0.9,1.9s1.4-0.1,1.7-1.2l0.8-2.9l-1.1-0.3l0.6-2.3l3.5,0.9l-1.3,5.1c-0.6,2.6-2.3,3.7-4.8,3.1
	S318.5,212.2,319.3,209.6L319.3,209.6z M316.4,196.4l2.6,0.4l-2.8,16.3l-2.5-0.4L316.4,196.4z M304.4,195.1l2.6,0.2l-0.6,7l2.9,0.2
	l0.6-7l2.6,0.2l-1.4,16.4l-2.6-0.2l0.6-7.1l-2.9-0.2l-0.6,7l-2.6-0.2L304.4,195.1z M291.8,195.4l1,14.1l4.3-0.3l0.2,2.4l-6.8,0.5
	l-1.2-16.4L291.8,195.4z M281.8,196.7l2.4,13.9l4.2-0.7l0.4,2.3l-6.8,1.2l-2.8-16.3L281.8,196.7z M273.4,198.5l7,15.2l-2.5,0.7
	l-1.2-2.8l-3.1,0.9l0.4,3l-2.3,0.6l-2-16.6L273.4,198.5z M258.6,203.7l2.7,6.5l2.7-1.1l-2.7-6.5l2.4-1l6.3,15.2l-2.4,1l-2.7-6.5
	l-2.7,1.1l2.7,6.5l-2.4,1l-6.3-15.3L258.6,203.7z M248.6,208.5l1.2,2l-2.3,1.4l7.4,12l-2.2,1.4l-7.4-12l-2.3,1.4l-1.2-2L248.6,208.5
	z M233.1,219.2l3.1-2.4c0.2-0.1,0.3-0.3,0.5-0.4c1.9-1.2,3.4-0.8,4.8,1l0.8,1c1,1.3,1.3,2.6,0.7,3.7c1.4-0.4,2.5,0.4,3.5,1.7l1.6,2
	c0.4,0.6,0.9,1.1,1.4,1.4l-1.3,1l-0.8,0.6c-0.6-0.4-1.1-0.9-1.4-1.5l-1.6-2c-0.9-1.2-1.7-1.4-2.6-0.6l-0.7,0.6l4.1,5.3l-1.6,1.2l0,0
	l-0.4,0.3l-3-3.9l0,0l0,0L233.1,219.2z M228.4,223.3l13.4,10l-1.9,1.8l-2.4-1.9l-2.1,2l-0.2,0.2l1.8,2.5l-1.7,1.6l-9.6-13.7l0.2-0.2
	L228.4,223.3z M218.2,234.3l9.8,8.1c0.9,0.8,1.6,0.6,2.1,0s0.5-1.3-0.4-2.1l-9.8-8.1l1.6-1.9l9.7,8c2,1.7,2.4,3.7,0.8,5.6
	s-3.6,2-5.7,0.4l-9.7-8L218.2,234.3z M214.6,238.9l2,1.3l-1.5,2.3l11.8,7.8l-1.4,2.2l-11.8-7.8l-1.5,2.3l-2-1.3L214.6,238.9z
	 M208.7,256.8c-2.4-1.2-3.1-3.1-1.9-5.3s3.1-2.7,5.4-1.5l0.5,0.2l-1.1,2.2l-0.6-0.3c-1.1-0.6-1.7-0.3-2,0.4s-0.2,1.4,0.9,1.9
	c3,1.6,5.9-2.6,10.1-0.5c2.3,1.2,3.1,3.1,1.9,5.3s-3.1,2.7-5.5,1.5l-0.9-0.5l1.1-2.2l1,0.5c1,0.5,1.7,0.3,2-0.5s0.3-1.4-0.8-1.9
	C215.8,254.8,212.9,259,208.7,256.8L208.7,256.8z M244.4,384.3c-1.6,2.1-3.5,2.6-5.6,1.1s-2.3-3.5-0.7-5.6l0.6-0.8l2,1.4l-0.7,1
	c-0.7,1-0.5,1.6,0.1,2.1s1.4,0.4,2-0.5c2-2.8-1.8-6.2,1-10.1c0.1-0.1,0.2-0.2,0.3-0.3c1.5-1.9,3.3-2.2,5.3-0.8
	c1.6,0.9,2.2,3,1.2,4.7c0,0,0,0.1-0.1,0.1c-0.1,0.3-0.3,0.6-0.5,0.8l-0.3,0.4l-2-1.4l0.4-0.5c0,0,0.1-0.1,0.1-0.1
	c0.6-0.9,0.4-1.5-0.2-2s-1.3-0.4-2,0.6l0,0C243.4,377,247.1,380.4,244.4,384.3L244.4,384.3z M245.8,389.8l7.2-12.2l-1.4-0.8l0,0
	l-0.9-0.5l1.2-2l3.8,2.2l3.1,1.8l-1.2,2l-2.3-1.4l-7.2,12.2L245.8,389.8z M255.6,395.2c-2.3-1.1-2.9-3-1.8-5.4l5.3-11.4l2.4,1.1
	l-5.4,11.5c-0.5,1.1-0.2,1.7,0.5,2c0.8,0.3,1.4,0.2,1.9-0.9l5.4-11.5l2.2,1l-5.3,11.4C259.7,395.5,257.9,396.3,255.6,395.2
	L255.6,395.2z M265.6,399.1l-3.9-1.4l5.4-15.6l3.9,1.4c2.4,0.9,3.2,2.6,2.3,5.1l-2.8,7.9C269.8,399,268.1,399.9,265.6,399.1
	L265.6,399.1z M279.5,395.5l-3.5-0.8l-1.1,4.7l4.4,1.1l-0.6,2.3l-6.9-1.7l3.9-16l6.9,1.7L282,389l-4.4-1l-1.1,4.5l3.5,0.8
	L279.5,395.5z M289.4,404.4l-2.6-0.4l-1.5-12.3l-1.7,11.8l-2.3-0.3l2.3-16.3l3.2,0.5l1.3,10.1l1.4-9.8l2.3,0.3L289.4,404.4z
	 M300.1,390.8l-2.7-0.1l-0.6,14.1l-2.6-0.1l0.6-14.1l-2.7-0.1l0.1-2.4l8,0.3L300.1,390.8z M309.5,404.6c-2.5,0.2-4-1.2-4.2-3.8
	l-0.8-8.5c-0.2-2.6,1-4.3,3.5-4.5s4,1.2,4.2,3.8l0.1,1.6l-2.4,0.2l-0.2-1.8c-0.1-1.2-0.7-1.6-1.5-1.5s-1.3,0.6-1.2,1.7l0.8,8.9
	c0.1,1.2,0.7,1.5,1.5,1.5s1.3-0.5,1.2-1.7l-0.2-2.4l2.4-0.2l0.2,2.2C313.2,402.7,312,404.4,309.5,404.6L309.5,404.6z M319.6,403.2
	c-2.5,0.5-4.1-0.8-4.6-3.3l-1.6-8.4c-0.5-2.6,0.6-4.3,3.1-4.8s4.1,0.8,4.6,3.4l1.6,8.4C323.2,401,322.1,402.7,319.6,403.2
	L319.6,403.2z M329.7,400.8c-2.4,0.7-4.1-0.4-4.9-2.9l-3.5-12.1l2.5-0.7l3.6,12.2c0.3,1.1,1,1.4,1.7,1.2s1.2-0.8,0.8-1.9l-3.6-12.2
	l2.4-0.7l3.5,12.1C333,398.2,332.1,400,329.7,400.8L329.7,400.8z M341.1,396.5l-7.5-9.8l4.5,11l-2.2,0.9l-6.3-15.3l3-1.2l6.2,8.1
	l-3.7-9.1l2.1-0.9l6.3,15.3L341.1,396.5z M349.5,392.6c-2.3,1.2-4.1,0.5-5.4-1.8l-4-7.6c-1.3-2.3-0.8-4.3,1.5-5.5s4.1-0.5,5.4,1.8
	l0.8,1.4l-2.1,1.1l-0.8-1.6c-0.5-1-1.2-1.2-2-0.8s-1,1-0.4,2.1l4.2,7.9c0.6,1,1.2,1.2,1.9,0.8s1-1,0.4-2l-1.1-2.1l2.2-1.1l1,1.9
	C352.2,389.5,351.7,391.4,349.5,392.6L349.5,392.6z M354.9,389.4l-8-12.6l-0.9-1.4l2.2-1.4l1.6,2.5L357,388L354.9,389.4z
	 M359.3,386.5l-7.7-10.5l0,0l-2-2.8l2.1-1.5l2.2,3.1l6.1,8.4l3.5-2.5l1.4,1.9L359.3,386.5z M376.1,337c-0.2,0.5-0.5,0.9-0.7,1.4
	l-0.7,1.4c-7.9,14.8-19.9,26.9-34.7,34.9l-1.3,0.7c-0.4,0.2-0.9,0.4-1.3,0.6c-23.6,11.7-51.4,11.7-75,0l-1.3-0.6l-1.3-0.7l0,0
	c-14.8-8-26.8-20.1-34.7-34.9l-0.7-1.4l-0.7-1.4c-13.1-27.1-10.9-59.1,5.9-84.1l0.7-1.1c0.3-0.3,0.5-0.7,0.7-1
	c2.7-3.8,5.7-7.3,9-10.6c1.9-1.9,3.9-3.7,6-5.4l0,0c1.5-1.2,3-2.4,4.6-3.6l1-0.7c0.4-0.2,0.7-0.5,1.1-0.7c28.5-19,65.6-19,94.1,0
	l1.1,0.7l1,0.7c1.6,1.1,3.1,2.3,4.6,3.6c2.1,1.7,4.1,3.5,6,5.4l0,0c3.3,3.3,6.3,6.9,9,10.6l0.7,1c0.3,0.4,0.5,0.7,0.7,1.1
	C386.9,277.9,389.2,309.9,376.1,337z M379.6,256.6l2,3.7l-2.1,1.1l-3.3-6l14.5-7.8l1.2,2.3L379.6,256.6z M374.8,249
	c0.5,0.7,1.1,0.9,2.1,0.2l7.4-5c1-0.7,1-1.3,0.6-2s-1.1-0.9-2.1-0.2l-7.4,5C374.4,247.6,374.4,248.3,374.8,249z M369.1,238.9
	c-0.9,0.8-0.9,1.5-0.4,2.1s1.2,0.7,2.1,0l6.8-5.8c0.9-0.8,0.9-1.4,0.4-2.1s-1.2-0.7-2.1,0L369.1,238.9z M318.5,390.3
	c-0.2-1.2-0.8-1.5-1.6-1.4s-1.2,0.7-1,1.9l1.7,8.8c0.2,1.1,0.8,1.5,1.6,1.3s1.2-0.7,1-1.8L318.5,390.3z M275.6,209.6l-3.5-7.7
	l1.1,8.4L275.6,209.6z M270.2,385.7l-1.4-0.5l-3.9,11.1l1.4,0.5c0.8,0.3,1.4,0,1.8-1.1l2.8-8.1C271.4,386.5,271,386,270.2,385.7z
	 M240.6,220.5l-0.2-0.2l0,0l-0.8-1c-0.2-0.4-0.6-0.7-1-0.8c-0.4-0.1-0.8,0-1.1,0.3l-1,0.8l3.1,4l0.8-0.6
	C241.2,222.3,241.4,221.6,240.6,220.5z M235.7,231.9l-6.7-5.1l4.9,6.9L235.7,231.9z M384.9,242.2c-0.5-0.7-1.1-0.9-2.1-0.2l-7.4,5
	c-1,0.7-1,1.4-0.6,2s1.1,0.9,2.1,0.2l7.4-5C385.3,243.5,385.3,242.9,384.9,242.2z M377.9,233.1c-0.5-0.6-1.2-0.7-2.1,0l-6.8,5.8
	c-0.9,0.8-0.9,1.5-0.4,2.1s1.2,0.7,2.1,0l6.8-5.8C378.5,234.4,378.5,233.7,377.9,233.1z M272.1,201.9l1.1,8.4l2.4-0.7L272.1,201.9z
	 M240.6,220.5l-0.2-0.2l0,0l-0.8-1c-0.2-0.4-0.6-0.7-1-0.8c-0.4-0.1-0.8,0-1.1,0.3l-1,0.8l3.1,4l0.8-0.6
	C241.2,222.3,241.4,221.6,240.6,220.5z M229,226.8l4.9,6.9l1.8-1.7L229,226.8z M270.3,385.7l-1.4-0.5l-3.9,11.1l1.4,0.5
	c0.8,0.3,1.4,0,1.8-1.1l2.8-8.1C271.4,386.5,271,386,270.3,385.7L270.3,385.7z M320.2,399l-1.7-8.8c-0.2-1.2-0.8-1.5-1.6-1.4
	s-1.2,0.7-1,1.9l1.7,8.8c0.2,1.1,0.8,1.5,1.6,1.3S320.4,400.2,320.2,399z M384.9,242.2c-0.5-0.7-1.1-0.9-2.1-0.2l-7.4,5
	c-1,0.7-1,1.4-0.6,2s1.1,0.9,2.1,0.2l7.4-5C385.3,243.5,385.3,242.9,384.9,242.2L384.9,242.2z M377.9,233.1c-0.5-0.6-1.2-0.7-2.1,0
	l-6.8,5.8c-0.9,0.8-0.9,1.5-0.4,2.1s1.2,0.7,2.1,0l6.8-5.8C378.5,234.4,378.5,233.7,377.9,233.1L377.9,233.1z M320.2,399l-1.7-8.8
	c-0.2-1.2-0.8-1.5-1.6-1.4s-1.2,0.7-1,1.9l1.7,8.8c0.2,1.1,0.8,1.5,1.6,1.3S320.4,400.2,320.2,399z M272.2,201.9l1.1,8.4l2.4-0.7
	L272.2,201.9z M270.3,385.7l-1.4-0.5l-3.9,11.1l1.4,0.5c0.8,0.3,1.4,0,1.8-1.1l2.8-8.1C271.4,386.5,271,386,270.3,385.7L270.3,385.7
	z M240.6,220.5l-0.2-0.2l0,0l-0.8-1c-0.2-0.4-0.6-0.7-1-0.8c-0.4-0.1-0.8,0-1.1,0.3l-1,0.8l3.1,4l0.8-0.6
	C241.2,222.3,241.4,221.6,240.6,220.5z M229,226.8l4.9,6.9l1.8-1.7L229,226.8z M272.2,201.9l1.1,8.4l2.4-0.7L272.2,201.9z
	 M240.6,220.5l-0.2-0.2l0,0l-0.8-1c-0.2-0.4-0.6-0.7-1-0.8c-0.4-0.1-0.8,0-1.1,0.3l-1,0.8l3.1,4l0.8-0.6
	C241.2,222.3,241.4,221.6,240.6,220.5z M229,226.8l4.9,6.9l1.8-1.7L229,226.8z M270.3,385.7l-1.4-0.5l-3.9,11.1l1.4,0.5
	c0.8,0.3,1.4,0,1.8-1.1l2.8-8.1C271.4,386.5,271,386,270.3,385.7L270.3,385.7z M320.2,399l-1.7-8.8c-0.2-1.2-0.8-1.5-1.6-1.4
	s-1.2,0.7-1,1.9l1.7,8.8c0.2,1.1,0.8,1.5,1.6,1.3S320.4,400.2,320.2,399z M320.2,399l-1.7-8.8c-0.2-1.2-0.8-1.5-1.6-1.4
	s-1.2,0.7-1,1.9l1.7,8.8c0.2,1.1,0.8,1.5,1.6,1.3S320.4,400.2,320.2,399z M272.2,201.9l1.1,8.4l2.4-0.7L272.2,201.9z M270.3,385.7
	l-1.4-0.5l-3.9,11.1l1.4,0.5c0.8,0.3,1.4,0,1.8-1.1l2.8-8.1C271.4,386.5,271,386,270.3,385.7L270.3,385.7z M240.6,220.5l-0.2-0.2
	l0,0l-0.8-1c-0.2-0.4-0.6-0.7-1-0.8c-0.4-0.1-0.8,0-1.1,0.3l-1,0.8l3.1,4l0.8-0.6C241.2,222.3,241.4,221.6,240.6,220.5z M229,226.8
	l4.9,6.9l1.8-1.7L229,226.8z M272.2,201.9l1.1,8.4l2.4-0.7L272.2,201.9z M240.6,220.5l-0.2-0.2l0,0l-0.8-1c-0.2-0.4-0.6-0.7-1-0.8
	c-0.4-0.1-0.8,0-1.1,0.3l-1,0.8l3.1,4l0.8-0.6C241.2,222.3,241.4,221.6,240.6,220.5z M229,226.8l4.9,6.9l1.8-1.7L229,226.8z
	 M270.3,385.7l-1.4-0.5l-3.9,11.1l1.4,0.5c0.8,0.3,1.4,0,1.8-1.1l2.8-8.1C271.4,386.5,271,386,270.3,385.7L270.3,385.7z M320.2,399
	l-1.7-8.8c-0.2-1.2-0.8-1.5-1.6-1.4s-1.2,0.7-1,1.9l1.7,8.8c0.2,1.1,0.8,1.5,1.6,1.3S320.4,400.2,320.2,399z M320.2,399l-1.7-8.8
	c-0.2-1.2-0.8-1.5-1.6-1.4s-1.2,0.7-1,1.9l1.7,8.8c0.2,1.1,0.8,1.5,1.6,1.3S320.4,400.2,320.2,399z M272.2,201.9l1.1,8.4l2.4-0.7
	L272.2,201.9z M270.3,385.7l-1.4-0.5l-3.9,11.1l1.4,0.5c0.8,0.3,1.4,0,1.8-1.1l2.8-8.1C271.4,386.5,271,386,270.3,385.7L270.3,385.7
	z M240.6,220.5l-0.2-0.2l0,0l-0.8-1c-0.2-0.4-0.6-0.7-1-0.8c-0.4-0.1-0.8,0-1.1,0.3l-1,0.8l3.1,4l0.8-0.6
	C241.2,222.3,241.4,221.6,240.6,220.5z M229,226.8l4.9,6.9l1.8-1.7L229,226.8z M272.2,201.9l1.1,8.4l2.4-0.7L272.2,201.9z
	 M240.6,220.5l-0.2-0.2l0,0l-0.8-1c-0.2-0.4-0.6-0.7-1-0.8c-0.4-0.1-0.8,0-1.1,0.3l-1,0.8l3.1,4l0.8-0.6
	C241.2,222.3,241.4,221.6,240.6,220.5z M229,226.8l4.9,6.9l1.8-1.7L229,226.8z M270.3,385.7l-1.4-0.5l-3.9,11.1l1.4,0.5
	c0.8,0.3,1.4,0,1.8-1.1l2.8-8.1C271.4,386.5,271,386,270.3,385.7L270.3,385.7z M320.2,399l-1.7-8.8c-0.2-1.2-0.8-1.5-1.6-1.4
	s-1.2,0.7-1,1.9l1.7,8.8c0.2,1.1,0.8,1.5,1.6,1.3S320.4,400.2,320.2,399z M320.2,399l-1.7-8.8c-0.2-1.2-0.8-1.5-1.6-1.4
	s-1.2,0.7-1,1.9l1.7,8.8c0.2,1.1,0.8,1.5,1.6,1.3S320.4,400.2,320.2,399z M272.2,201.9l1.1,8.4l2.4-0.7L272.2,201.9z M270.3,385.7
	l-1.4-0.5l-3.9,11.1l1.4,0.5c0.8,0.3,1.4,0,1.8-1.1l2.8-8.1C271.4,386.5,271,386,270.3,385.7L270.3,385.7z M240.6,220.5l-0.2-0.2
	l0,0l-0.8-1c-0.2-0.4-0.6-0.7-1-0.8c-0.4-0.1-0.8,0-1.1,0.3l-1,0.8l3.1,4l0.8-0.6C241.2,222.3,241.4,221.6,240.6,220.5z M229,226.8
	l4.9,6.9l1.8-1.7L229,226.8z M272.2,201.9l1.1,8.4l2.4-0.7L272.2,201.9z M240.6,220.5l-0.2-0.2l0,0l-0.8-1c-0.2-0.4-0.6-0.7-1-0.8
	c-0.4-0.1-0.8,0-1.1,0.3l-1,0.8l3.1,4l0.8-0.6C241.2,222.3,241.4,221.6,240.6,220.5z M229,226.8l4.9,6.9l1.8-1.7L229,226.8z
	 M270.3,385.7l-1.4-0.5l-3.9,11.1l1.4,0.5c0.8,0.3,1.4,0,1.8-1.1l2.8-8.1C271.4,386.5,271,386,270.3,385.7L270.3,385.7z M320.2,399
	l-1.7-8.8c-0.2-1.2-0.8-1.5-1.6-1.4s-1.2,0.7-1,1.9l1.7,8.8c0.2,1.1,0.8,1.5,1.6,1.3S320.4,400.2,320.2,399z M320.2,399l-1.7-8.8
	c-0.2-1.2-0.8-1.5-1.6-1.4s-1.2,0.7-1,1.9l1.7,8.8c0.2,1.1,0.8,1.5,1.6,1.3S320.4,400.2,320.2,399z M272.2,201.9l1.1,8.4l2.4-0.7
	L272.2,201.9z M270.3,385.7l-1.4-0.5l-3.9,11.1l1.4,0.5c0.8,0.3,1.4,0,1.8-1.1l2.8-8.1C271.4,386.5,271,386,270.3,385.7L270.3,385.7
	z M240.6,220.5l-0.2-0.2l0,0l-0.8-1c-0.2-0.4-0.6-0.7-1-0.8c-0.4-0.1-0.8,0-1.1,0.3l-1,0.8l3.1,4l0.8-0.6
	C241.2,222.3,241.4,221.6,240.6,220.5z M229,226.8l4.9,6.9l1.8-1.7L229,226.8z M272.2,201.9l1.1,8.4l2.4-0.7L272.2,201.9z
	 M240.6,220.5l-0.2-0.2l0,0l-0.8-1c-0.2-0.4-0.6-0.7-1-0.8c-0.4-0.1-0.8,0-1.1,0.3l-1,0.8l3.1,4l0.8-0.6
	C241.2,222.3,241.4,221.6,240.6,220.5z M229,226.8l4.9,6.9l1.8-1.7L229,226.8z M270.3,385.7l-1.4-0.5l-3.9,11.1l1.4,0.5
	c0.8,0.3,1.4,0,1.8-1.1l2.8-8.1C271.4,386.5,271,386,270.3,385.7L270.3,385.7z M320.2,399l-1.7-8.8c-0.2-1.2-0.8-1.5-1.6-1.4
	s-1.2,0.7-1,1.9l1.7,8.8c0.2,1.1,0.8,1.5,1.6,1.3S320.4,400.2,320.2,399z M320.2,399l-1.7-8.8c-0.2-1.2-0.8-1.5-1.6-1.4
	s-1.2,0.7-1,1.9l1.7,8.8c0.2,1.1,0.8,1.5,1.6,1.3S320.4,400.2,320.2,399z M272.2,201.9l1.1,8.4l2.4-0.7L272.2,201.9z M270.3,385.7
	l-1.4-0.5l-3.9,11.1l1.4,0.5c0.8,0.3,1.4,0,1.8-1.1l2.8-8.1C271.4,386.5,271,386,270.3,385.7L270.3,385.7z M240.6,220.5l-0.2-0.2
	l0,0l-0.8-1c-0.2-0.4-0.6-0.7-1-0.8c-0.4-0.1-0.8,0-1.1,0.3l-1,0.8l3.1,4l0.8-0.6C241.2,222.3,241.4,221.6,240.6,220.5z M229,226.8
	l4.9,6.9l1.8-1.7L229,226.8z M272.2,201.9l1.1,8.4l2.4-0.7L272.2,201.9z M240.6,220.5l-0.2-0.2l0,0l-0.8-1c-0.2-0.4-0.6-0.7-1-0.8
	c-0.4-0.1-0.8,0-1.1,0.3l-1,0.8l3.1,4l0.8-0.6C241.2,222.3,241.4,221.6,240.6,220.5z M229,226.8l4.9,6.9l1.8-1.7L229,226.8z
	 M270.3,385.7l-1.4-0.5l-3.9,11.1l1.4,0.5c0.8,0.3,1.4,0,1.8-1.1l2.8-8.1C271.4,386.5,271,386,270.3,385.7L270.3,385.7z M320.2,399
	l-1.7-8.8c-0.2-1.2-0.8-1.5-1.6-1.4s-1.2,0.7-1,1.9l1.7,8.8c0.2,1.1,0.8,1.5,1.6,1.3S320.4,400.2,320.2,399z M320.2,399l-1.7-8.8
	c-0.2-1.2-0.8-1.5-1.6-1.4s-1.2,0.7-1,1.9l1.7,8.8c0.2,1.1,0.8,1.5,1.6,1.3S320.4,400.2,320.2,399z M272.2,201.9l1.1,8.4l2.4-0.7
	L272.2,201.9z M270.3,385.7l-1.4-0.5l-3.9,11.1l1.4,0.5c0.8,0.3,1.4,0,1.8-1.1l2.8-8.1C271.4,386.5,271,386,270.3,385.7L270.3,385.7
	z M240.6,220.5l-0.2-0.2l0,0l-0.8-1c-0.2-0.4-0.6-0.7-1-0.8c-0.4-0.1-0.8,0-1.1,0.3l-1,0.8l3.1,4l0.8-0.6
	C241.2,222.3,241.4,221.6,240.6,220.5z M229,226.8l4.9,6.9l1.8-1.7L229,226.8z M272.2,201.9l1.1,8.4l2.4-0.7L272.2,201.9z
	 M240.6,220.5l-0.2-0.2l0,0l-0.8-1c-0.2-0.4-0.6-0.7-1-0.8c-0.4-0.1-0.8,0-1.1,0.3l-1,0.8l3.1,4l0.8-0.6
	C241.2,222.3,241.4,221.6,240.6,220.5z M229,226.8l4.9,6.9l1.8-1.7L229,226.8z M270.3,385.7l-1.4-0.5l-3.9,11.1l1.4,0.5
	c0.8,0.3,1.4,0,1.8-1.1l2.8-8.1C271.4,386.5,271,386,270.3,385.7L270.3,385.7z M320.2,399l-1.7-8.8c-0.2-1.2-0.8-1.5-1.6-1.4
	s-1.2,0.7-1,1.9l1.7,8.8c0.2,1.1,0.8,1.5,1.6,1.3S320.4,400.2,320.2,399z M320.2,399l-1.7-8.8c-0.2-1.2-0.8-1.5-1.6-1.4
	s-1.2,0.7-1,1.9l1.7,8.8c0.2,1.1,0.8,1.5,1.6,1.3S320.4,400.2,320.2,399z M272.2,201.9l1.1,8.4l2.4-0.7L272.2,201.9z M270.3,385.7
	l-1.4-0.5l-3.9,11.1l1.4,0.5c0.8,0.3,1.4,0,1.8-1.1l2.8-8.1C271.4,386.5,271,386,270.3,385.7L270.3,385.7z M240.6,220.5l-0.2-0.2
	l0,0l-0.8-1c-0.2-0.4-0.6-0.7-1-0.8c-0.4-0.1-0.8,0-1.1,0.3l-1,0.8l3.1,4l0.8-0.6C241.2,222.3,241.4,221.6,240.6,220.5z M229,226.8
	l4.9,6.9l1.8-1.7L229,226.8z M240.6,220.5l-0.2-0.2l0,0l-0.8-1c-0.2-0.4-0.6-0.7-1-0.8c-0.4-0.1-0.8,0-1.1,0.3l-1,0.8l3.1,4l0.8-0.6
	C241.2,222.3,241.4,221.6,240.6,220.5L240.6,220.5z M229,226.8l4.9,6.9l1.8-1.7L229,226.8z M270.3,385.7l-1.4-0.5l-3.9,11.1l1.4,0.5
	c0.8,0.3,1.4,0,1.8-1.1l2.8-8.1C271.4,386.5,271,386,270.3,385.7L270.3,385.7z M320.2,399l-1.7-8.8c-0.2-1.2-0.8-1.5-1.6-1.4
	s-1.2,0.7-1,1.9l1.7,8.8c0.2,1.1,0.8,1.5,1.6,1.3S320.4,400.2,320.2,399z M320.2,399l-1.7-8.8c-0.2-1.2-0.8-1.5-1.6-1.4
	s-1.2,0.7-1,1.9l1.7,8.8c0.2,1.1,0.8,1.5,1.6,1.3S320.4,400.2,320.2,399z M270.2,385.7l-1.4-0.5l-3.9,11.1l1.4,0.5
	c0.8,0.3,1.4,0,1.8-1.1l2.8-8.1C271.4,386.5,271,386,270.2,385.7L270.2,385.7z M240.6,220.5l-0.2-0.2l0,0l-0.8-1
	c-0.2-0.4-0.6-0.7-1-0.8c-0.4-0.1-0.8,0-1.1,0.3l-1,0.8l3.1,4l0.8-0.6C241.2,222.3,241.4,221.6,240.6,220.5z M229,226.8l4.9,6.9
	l1.8-1.7L229,226.8z M240.6,220.5l-0.2-0.2l0,0l-0.8-1c-0.2-0.4-0.6-0.7-1-0.8c-0.4-0.1-0.8,0-1.1,0.3l-1,0.8l3.1,4l0.8-0.6
	C241.2,222.3,241.4,221.6,240.6,220.5L240.6,220.5z M229,226.8l4.9,6.9l1.8-1.7L229,226.8z M270.3,385.7l-1.4-0.5l-3.9,11.1l1.4,0.5
	c0.8,0.3,1.4,0,1.8-1.1l2.8-8.1C271.4,386.5,271,386,270.3,385.7L270.3,385.7z M320.2,399l-1.7-8.8c-0.2-1.2-0.8-1.5-1.6-1.4
	s-1.2,0.7-1,1.9l1.7,8.8c0.2,1.1,0.8,1.5,1.6,1.3S320.4,400.2,320.2,399z M320.2,399l-1.7-8.8c-0.2-1.2-0.8-1.5-1.6-1.4
	s-1.2,0.7-1,1.9l1.7,8.8c0.2,1.1,0.8,1.5,1.6,1.3S320.4,400.2,320.2,399z M270.2,385.7l-1.4-0.5l-3.9,11.1l1.4,0.5
	c0.8,0.3,1.4,0,1.8-1.1l2.8-8.1C271.4,386.5,271,386,270.2,385.7L270.2,385.7z M240.6,220.5l-0.2-0.2l0,0l-0.8-1
	c-0.2-0.4-0.6-0.7-1-0.8c-0.4-0.1-0.8,0-1.1,0.3l-1,0.8l3.1,4l0.8-0.6C241.2,222.3,241.4,221.6,240.6,220.5z M229,226.8l4.9,6.9
	l1.8-1.7L229,226.8z M229,226.8l4.9,6.9l1.8-1.7L229,226.8z M270.3,385.7l-1.4-0.5l-3.9,11.1l1.4,0.5c0.8,0.3,1.4,0,1.8-1.1l2.8-8.1
	C271.4,386.5,271,386,270.3,385.7L270.3,385.7z M320.2,399l-1.7-8.8c-0.2-1.2-0.8-1.5-1.6-1.4s-1.2,0.7-1,1.9l1.7,8.8
	c0.2,1.1,0.8,1.5,1.6,1.3S320.4,400.2,320.2,399z M320.2,399l-1.7-8.8c-0.2-1.2-0.8-1.5-1.6-1.4s-1.2,0.7-1,1.9l1.7,8.8
	c0.2,1.1,0.8,1.5,1.6,1.3S320.4,400.2,320.2,399z M270.2,385.7l-1.4-0.5l-3.9,11.1l1.4,0.5c0.8,0.3,1.4,0,1.8-1.1l2.8-8.1
	C271.4,386.5,271,386,270.2,385.7L270.2,385.7z M229,226.8l4.9,6.9l1.8-1.7L229,226.8z M270.3,385.7l-1.4-0.5l-3.9,11.1l1.4,0.5
	c0.8,0.3,1.4,0,1.8-1.1l2.8-8.1C271.4,386.5,271,386,270.3,385.7L270.3,385.7z M320.2,399l-1.7-8.8c-0.2-1.2-0.8-1.5-1.6-1.4
	s-1.2,0.7-1,1.9l1.7,8.8c0.2,1.1,0.8,1.5,1.6,1.3S320.4,400.2,320.2,399z M320.2,399l-1.7-8.8c-0.2-1.2-0.8-1.5-1.6-1.4
	s-1.2,0.7-1,1.9l1.7,8.8c0.2,1.1,0.8,1.5,1.6,1.3S320.4,400.2,320.2,399z M270.2,385.7l-1.4-0.5l-3.9,11.1l1.4,0.5
	c0.8,0.3,1.4,0,1.8-1.1l2.8-8.1C271.4,386.5,271,386,270.2,385.7L270.2,385.7z M270.2,385.7l-1.4-0.5l-3.9,11.1l1.4,0.5
	c0.8,0.3,1.4,0,1.8-1.1l2.8-8.1C271.4,386.5,271,386,270.2,385.7L270.2,385.7z M320.2,399l-1.7-8.8c-0.2-1.2-0.8-1.5-1.6-1.4
	s-1.2,0.7-1,1.9l1.7,8.8c0.2,1.1,0.8,1.5,1.6,1.3S320.4,400.2,320.2,399z M320.2,399l-1.7-8.8c-0.2-1.2-0.8-1.5-1.6-1.4
	s-1.2,0.7-1,1.9l1.7,8.8c0.2,1.1,0.8,1.5,1.6,1.3S320.4,400.2,320.2,399z M270.2,385.7l-1.4-0.5l-3.9,11.1l1.4,0.5
	c0.8,0.3,1.4,0,1.8-1.1l2.8-8.1C271.4,386.5,271,386,270.2,385.7L270.2,385.7z M270.2,385.7l-1.4-0.5l-3.9,11.1l1.4,0.5
	c0.8,0.3,1.4,0,1.8-1.1l2.8-8.1C271.4,386.5,271,386,270.2,385.7L270.2,385.7z M320.2,399l-1.7-8.8c-0.2-1.2-0.8-1.5-1.6-1.4
	s-1.2,0.7-1,1.9l1.7,8.8c0.2,1.1,0.8,1.5,1.6,1.3S320.4,400.2,320.2,399z M320.2,399l-1.7-8.8c-0.2-1.2-0.8-1.5-1.6-1.4
	s-1.2,0.7-1,1.9l1.7,8.8c0.2,1.1,0.8,1.5,1.6,1.3S320.4,400.2,320.2,399z M270.2,385.7l-1.4-0.5l-3.9,11.1l1.4,0.5
	c0.8,0.3,1.4,0,1.8-1.1l2.8-8.1C271.4,386.5,271,386,270.2,385.7L270.2,385.7z M270.2,385.7l-1.4-0.5l-3.9,11.1l1.4,0.5
	c0.8,0.3,1.4,0,1.8-1.1l2.8-8.1C271.4,386.5,271,386,270.2,385.7L270.2,385.7z M320.2,399l-1.7-8.8c-0.2-1.2-0.8-1.5-1.6-1.4
	s-1.2,0.7-1,1.9l1.7,8.8c0.2,1.1,0.8,1.5,1.6,1.3S320.4,400.2,320.2,399z M320.2,399l-1.7-8.8c-0.2-1.2-0.8-1.5-1.6-1.4
	s-1.2,0.7-1,1.9l1.7,8.8c0.2,1.1,0.8,1.5,1.6,1.3S320.4,400.2,320.2,399z M270.2,385.7l-1.4-0.5l-3.9,11.1l1.4,0.5
	c0.8,0.3,1.4,0,1.8-1.1l2.8-8.1C271.4,386.5,271,386,270.2,385.7L270.2,385.7z M320.2,399l-1.7-8.8c-0.2-1.2-0.8-1.5-1.6-1.4
	s-1.2,0.7-1,1.9l1.7,8.8c0.2,1.1,0.8,1.5,1.6,1.3S320.4,400.2,320.2,399z M320.2,399l-1.7-8.8c-0.2-1.2-0.8-1.5-1.6-1.4
	s-1.2,0.7-1,1.9l1.7,8.8c0.2,1.1,0.8,1.5,1.6,1.3S320.4,400.2,320.2,399z M320.2,399l-1.7-8.8c-0.2-1.2-0.8-1.5-1.6-1.4
	s-1.2,0.7-1,1.9l1.7,8.8c0.2,1.1,0.8,1.5,1.6,1.3S320.4,400.2,320.2,399z M320.2,399l-1.7-8.8c-0.2-1.2-0.8-1.5-1.6-1.4
	s-1.2,0.7-1,1.9l1.7,8.8c0.2,1.1,0.8,1.5,1.6,1.3S320.4,400.2,320.2,399z"/>
<path d="M240.1,339.6l-1.4,1.9c-0.2-0.6-0.3-1.3-0.3-1.9H240.1z"/>
<path d="M239,342.1h-0.7l0.4-0.6C238.8,341.7,238.9,341.9,239,342.1z"/>
<path d="M290.8,340.1l-0.2,0.1l0.1-0.1L290.8,340.1z"/>
<polygon points="275.4,324.4 275.4,324.4 262.1,324.4 262.1,315.8 250.9,319.1 242.6,321.6 242.6,321.6 250.9,319.1 262.1,315.8 
	262.1,324.4 "/>
<path d="M295.1,306.4v20.7c0,6.5-5.3,11.8-11.9,11.8h-37.5V324l6.1-1.8l7.1-2.1v7.6h19.7v-22.1h-23.9c-5.1,0-9.6-3.3-11.2-8.1h47.5
	c0.4,0.3,0.8,0.7,1.1,1.1c0.2,0.3,0.5,0.5,0.7,0.8c1.2,1.6,2,3.6,2.3,5.6C295,305.5,295.1,305.9,295.1,306.4z"/>
<path d="M295.3,297.4L295.3,297.4z"/>
<path d="M305.3,335.4L305.3,335.4l-0.2-0.3C305.2,335.2,305.3,335.3,305.3,335.4z"/>
<path d="M305.5,335.7L305.5,335.7L305.5,335.7z"/>
<path d="M308.4,338.9L308.4,338.9L308.4,338.9z"/>
<path d="M310.4,340.2L310.4,340.2L310.4,340.2L310.4,340.2z"/>
<path d="M315.8,342L315.8,342L315.8,342L315.8,342z"/>
<path d="M316.1,342.1H316c0,0-0.1,0-0.1,0H316.1z"/>
<rect x="325.9" y="325.2" width="15.1" height="0"/>
<path d="M357.2,323.8v15.1h-39.7c-6.2,0-11.3-5.1-11.3-11.3c0,0,0,0,0,0v-30.2h16.4v31h21.6v-8.5L357.2,323.8z"/>
<polygon points="360.4,321.5 360.4,321.5 341,315.6 341,315.6 "/>
<path d="M262.1,324.4v-8.7l-11.2,3.3l-8.4,2.5l0,0l8.4-2.5l11.2-3.3L262.1,324.4L262.1,324.4L262.1,324.4z M290.7,340.1l-0.1,0.1
	l0.2-0.1L290.7,340.1z M295.3,297.4L295.3,297.4z"/>
<path d="M275.6,275.6L275.6,275.6L275.6,275.6l0.1,0.1l0,0v-0.1H275.6z M303,297L303,297L303,297L303,297z M275.7,275.6L275.7,275.6
	L275.7,275.6L275.7,275.6L275.7,275.6l0.1,0.1v-0.1H275.7z M283.2,291.3h-9.8l-10.9-10.5v10.5h21.1
	C283.5,291.3,283.3,291.3,283.2,291.3z M284.3,291.3L284.3,291.3l-0.2,0c-0.2,0-0.3,0-0.5,0l0.3,0h0l0.5,0L284.3,291.3z M286,291.5
	h-0.6l0.8,0.2L286,291.5z M285,291.4L285,291.4l-0.1,0h-0.4l0.8,0.1L285,291.4z M290.1,292.9l-0.2-0.1l0,0h0c-0.1,0-0.2-0.1-0.3-0.1
	c-0.1,0-0.2-0.1-0.3-0.1l-0.2-0.1l0.2,0.1c0.1,0,0.2,0.1,0.3,0.1c0.1,0,0.2,0.1,0.3,0.1c0.1,0.1,0.3,0.1,0.4,0.2
	C290.2,293,290.1,293,290.1,292.9z M289.6,292.7c-0.1-0.1-0.2-0.1-0.3-0.1l-0.3-0.1h0l0,0l-0.2-0.1l0.3,0.1l0.2,0.1h0l-0.2-0.1
	l0.2,0.1C289.4,292.6,289.5,292.6,289.6,292.7z M289.1,292.5l0.2,0.1h0L289.1,292.5z M286.4,291.6h-0.2l0.4,0.1L286.4,291.6z
	 M286.8,291.7L286.8,291.7l0.3,0.1L286.8,291.7z M294.2,296.1l-0.3-0.3c0.1,0.1,0.2,0.3,0.4,0.4l0,0
	C294.2,296.1,294.2,296.1,294.2,296.1z M293.5,295.4l-0.2-0.2c0,0-0.1,0-0.1-0.1L293.5,295.4L293.5,295.4
	C293.5,295.4,293.5,295.4,293.5,295.4L293.5,295.4z M293.7,295.5C293.7,295.5,293.6,295.5,293.7,295.5L293.7,295.5l-0.1-0.1
	c0,0,0,0,0,0c0.1,0.1,0.2,0.2,0.3,0.3C293.8,295.7,293.8,295.6,293.7,295.5z M291.3,293.7l-0.2-0.1c0.1,0.1,0.3,0.2,0.4,0.3v0
	L291.3,293.7z M275.6,275.6L275.6,275.6l0.1,0.1l0,0v-0.1H275.6z M300,290.3L300,290.3L300,290.3l-0.7-0.7l-0.4-0.4l-2.8-2.9
	L290,280l-3.1,0.9l-4.6,1.4l-6.6,2v-8.7h-13.3v15.7h22.1l0.8,0.1l0.7,0.1h0l0.2,0l0.5,0.1l0.5,0.1l0.5,0.1l0.6,0.2l0.3,0.1l0.3,0.1
	l0.2,0.1h0l0.3,0.1c0.1,0,0.2,0.1,0.3,0.1c0.1,0,0.2,0.1,0.3,0.1h0l0,0c0.1,0,0.2,0.1,0.3,0.2h0c0.1,0,0.1,0,0.1,0.1l0.1,0.1
	l0.1,0.1l0.1,0.1h0.1l0.1,0.1h0.1c0.3,0.2,0.6,0.4,0.8,0.6c0.3,0.2,0.6,0.4,0.8,0.6c0.4,0.3,0.8,0.7,1.1,1c0.1,0.1,0.2,0.3,0.3,0.4
	l0.9-1l0.2,0.2l-0.1,0.1l4.8,4.8l3-3v-3.6L300,290.3z M300,290.3L300,290.3L300,290.3l-0.7-0.7l-0.4-0.4l-2.8-2.9L290,280l-3.1,0.9
	l-4.6,1.4l-6.6,2v-8.7h-13.3v15.7h22.1l0.8,0.1l0.7,0.1h0l0.2,0l0.5,0.1l0.5,0.1l0.5,0.1l0.6,0.2l0.3,0.1l0.3,0.1l0.2,0.1h0l0.3,0.1
	c0.1,0,0.2,0.1,0.3,0.1c0.1,0,0.2,0.1,0.3,0.1h0l0,0c0.1,0,0.2,0.1,0.3,0.2h0c0.1,0,0.1,0,0.1,0.1l0.1,0.1l0.1,0.1l0.1,0.1h0.1
	l0.1,0.1h0.1c0.3,0.2,0.6,0.4,0.8,0.6c0.3,0.2,0.6,0.4,0.8,0.6c0.4,0.3,0.8,0.7,1.1,1c0.1,0.1,0.2,0.3,0.3,0.4
	c0.4,0.4,0.7,0.8,1,1.2l0.3,0.4c0.1,0.1,0.2,0.3,0.3,0.4c0.1,0.2,0.3,0.5,0.4,0.7l0.2,0.4c0.2,0.3,0.3,0.6,0.4,0.9s0.2,0.4,0.3,0.5
	l0.2,0.6c0.1,0.2,0.1,0.4,0.2,0.6l0.1,0.4l2.4-2l3-3v-3.6L300,290.3z M300,290.3L300,290.3L300,290.3l-0.7-0.7l-0.4-0.4l-2.8-2.9
	L290,280l-3.1,0.9l-4.6,1.4l-6.6,2v-8.7h-13.3v15.7h22.1l0.8,0.1l0.7,0.1h0l0.2,0l0.5,0.1l0.5,0.1l0.5,0.1l0.6,0.2l0.3,0.1l0.3,0.1
	l0.2,0.1h0l0.3,0.1c0.1,0,0.2,0.1,0.3,0.1c0.1,0,0.2,0.1,0.3,0.1h0l0,0c0.1,0,0.2,0.1,0.3,0.2h0c0.1,0,0.1,0,0.1,0.1l0.1,0.1
	l0.1,0.1l0.1,0.1h0.1l0.1,0.1h0.1c0.3,0.2,0.6,0.4,0.8,0.6c0.3,0.2,0.6,0.4,0.8,0.6c0.4,0.3,0.8,0.7,1.1,1c0.1,0.1,0.2,0.3,0.3,0.4
	c0.4,0.4,0.7,0.8,1,1.2l0.3,0.4c0.1,0.1,0.2,0.3,0.3,0.4c0.1,0.2,0.3,0.5,0.4,0.7l0.2,0.4c0.2,0.3,0.3,0.6,0.4,0.9s0.2,0.4,0.3,0.5
	l0.2,0.6c0.1,0.2,0.1,0.4,0.2,0.6l0.1,0.4l2.4-2l3-3v-3.6L300,290.3z M300,290.3L300,290.3l-4.7,4.8l-0.1,0.1l4.8,4.8l3-3v-9.8
	L300,290.3z M295.3,295.2L295.3,295.2l4.6-4.8l0.1-0.1l-0.1-0.1l-0.6-0.6l-0.4-0.4l-2.8-2.9L290,280l-3.1,0.9l-4.6,1.4l-6.6,2v-8.7
	h-13.3v15.7h22.1l0.8,0.1l0.7,0.1h0l0.2,0l0.5,0.1l0.5,0.1l0.5,0.1l0.6,0.2l0.3,0.1l0.3,0.1l0.2,0.1h0l0.3,0.1
	c0.1,0,0.2,0.1,0.3,0.1c0.1,0,0.2,0.1,0.3,0.1h0l0,0c0.1,0,0.2,0.1,0.3,0.2h0c0.1,0,0.1,0,0.1,0.1l0.1,0.1l0.1,0.1l0.1,0.1h0.1
	l0.1,0.1h0.1c0.3,0.2,0.6,0.4,0.8,0.6c0.3,0.2,0.6,0.4,0.8,0.6c0.4,0.3,0.8,0.7,1.1,1c0.1,0.1,0.2,0.3,0.3,0.4
	c0.4,0.4,0.7,0.8,1,1.2l0.3,0.4c0.1,0.1,0.2,0.3,0.3,0.4c0.1,0.2,0.3,0.5,0.4,0.7l0.2,0.4c0.2,0.3,0.3,0.6,0.4,0.9s0.2,0.4,0.3,0.5
	l0.2,0.6c0.1,0.2,0.1,0.4,0.2,0.6l0.1,0.4l2.4-2L295.3,295.2L295.3,295.2z M325.9,317.1v8.2h7.9v0L325.9,317.1z M300,290.3
	L300,290.3l-4.7,4.8l-0.1,0.1l4.8,4.8l3-3v-9.8L300,290.3z M295.3,295.2L295.3,295.2l4.6-4.8l0.1-0.1l-0.1-0.1l-0.6-0.6l-0.4-0.4
	l-2.8-2.9L290,280l-3.1,0.9l-4.6,1.4l-6.6,2v-8.7h-13.3v15.7h22.1l0.8,0.1l0.7,0.1h0l0.2,0l0.5,0.1l0.5,0.1l0.5,0.1l0.6,0.2l0.3,0.1
	l0.3,0.1l0.2,0.1h0l0.3,0.1c0.1,0,0.2,0.1,0.3,0.1c0.1,0,0.2,0.1,0.3,0.1h0l0,0c0.1,0,0.2,0.1,0.3,0.2h0c0.1,0,0.1,0,0.1,0.1
	l0.1,0.1l0.1,0.1l0.1,0.1h0.1l0.1,0.1h0.1c0.3,0.2,0.6,0.4,0.8,0.6c0.3,0.2,0.6,0.4,0.8,0.6c0.4,0.3,0.8,0.7,1.1,1
	c0.1,0.1,0.2,0.3,0.3,0.4c0.4,0.4,0.7,0.8,1,1.2l0.3,0.4c0.1,0.1,0.2,0.3,0.3,0.4c0.1,0.2,0.3,0.5,0.4,0.7l0.2,0.4
	c0.2,0.3,0.3,0.6,0.4,0.9s0.2,0.4,0.3,0.5l0.2,0.6c0.1,0.2,0.1,0.4,0.2,0.6l0.1,0.4l2.4-2L295.3,295.2L295.3,295.2z M325.9,317.1
	v8.2h7.9v0L325.9,317.1z M300,290.3L300,290.3l-4.7,4.8l-0.1,0.1l4.8,4.8l3-3v-9.8L300,290.3z M295.3,295.2L295.3,295.2l4.6-4.8
	l0.1-0.1l-0.1-0.1l-0.6-0.6l-0.4-0.4l-2.8-2.9L290,280l-3.1,0.9l-4.6,1.4l-6.6,2v-8.7h-13.3v15.7h22.1l0.8,0.1l0.7,0.1h0l0.2,0
	l0.5,0.1l0.5,0.1l0.5,0.1l0.6,0.2l0.3,0.1l0.3,0.1l0.2,0.1h0l0.3,0.1c0.1,0,0.2,0.1,0.3,0.1c0.1,0,0.2,0.1,0.3,0.1h0l0,0
	c0.1,0,0.2,0.1,0.3,0.2h0c0.1,0,0.1,0,0.1,0.1l0.1,0.1l0.1,0.1l0.1,0.1h0.1l0.1,0.1h0.1c0.3,0.2,0.6,0.4,0.8,0.6
	c0.3,0.2,0.6,0.4,0.8,0.6c0.4,0.3,0.8,0.7,1.1,1c0.1,0.1,0.2,0.3,0.3,0.4c0.4,0.4,0.7,0.8,1,1.2l0.3,0.4c0.1,0.1,0.2,0.3,0.3,0.4
	c0.1,0.2,0.3,0.5,0.4,0.7l0.2,0.4c0.2,0.3,0.3,0.6,0.4,0.9s0.2,0.4,0.3,0.5l0.2,0.6c0.1,0.2,0.1,0.4,0.2,0.6l0.1,0.4l2.4-2
	L295.3,295.2L295.3,295.2z M325.9,317.1v8.2h7.9v0L325.9,317.1z M300,290.3L300,290.3l-4.7,4.8l-0.1,0.1l4.8,4.8l3-3v-9.8L300,290.3
	z M295.3,295.2L295.3,295.2l4.6-4.8l0.1-0.1l-0.1-0.1l-0.6-0.6l-0.4-0.4l-2.8-2.9L290,280l-3.1,0.9l-4.6,1.4l-6.6,2v-8.7h-13.3v15.7
	h22.1l0.8,0.1l0.7,0.1h0l0.2,0l0.5,0.1l0.5,0.1l0.5,0.1l0.6,0.2l0.3,0.1l0.3,0.1l0.2,0.1h0l0.3,0.1c0.1,0,0.2,0.1,0.3,0.1
	c0.1,0,0.2,0.1,0.3,0.1h0l0,0c0.1,0,0.2,0.1,0.3,0.2h0c0.1,0,0.1,0,0.1,0.1l0.1,0.1l0.1,0.1l0.1,0.1h0.1l0.1,0.1h0.1
	c0.3,0.2,0.6,0.4,0.8,0.6c0.3,0.2,0.6,0.4,0.8,0.6c0.4,0.3,0.8,0.7,1.1,1c0.1,0.1,0.2,0.3,0.3,0.4c0.4,0.4,0.7,0.8,1,1.2l0.3,0.4
	c0.1,0.1,0.2,0.3,0.3,0.4c0.1,0.2,0.3,0.5,0.4,0.7l0.2,0.4c0.2,0.3,0.3,0.6,0.4,0.9s0.2,0.4,0.3,0.5l0.2,0.6
	c0.1,0.2,0.1,0.4,0.2,0.6l0.1,0.4l2.4-2L295.3,295.2L295.3,295.2z M325.9,317.1v8.2h7.9v0L325.9,317.1z M300,290.3L300,290.3
	l-4.7,4.8l-0.1,0.1l4.8,4.8l3-3v-9.8L300,290.3z M295.3,295.2L295.3,295.2l4.6-4.8l0.1-0.1l-0.1-0.1l-0.6-0.6l-0.4-0.4l-2.8-2.9
	L290,280l-3.1,0.9l-4.6,1.4l-6.6,2v-8.7h-13.3v15.7h22.1l0.8,0.1l0.7,0.1h0l0.2,0l0.5,0.1l0.5,0.1l0.5,0.1l0.6,0.2l0.3,0.1l0.3,0.1
	l0.2,0.1h0l0.3,0.1c0.1,0,0.2,0.1,0.3,0.1c0.1,0,0.2,0.1,0.3,0.1h0l0,0c0.1,0,0.2,0.1,0.3,0.2h0c0.1,0,0.1,0,0.1,0.1l0.1,0.1
	l0.1,0.1l0.1,0.1h0.1l0.1,0.1h0.1c0.3,0.2,0.6,0.4,0.8,0.6c0.3,0.2,0.6,0.4,0.8,0.6c0.4,0.3,0.8,0.7,1.1,1c0.1,0.1,0.2,0.3,0.3,0.4
	c0.4,0.4,0.7,0.8,1,1.2l0.3,0.4c0.1,0.1,0.2,0.3,0.3,0.4c0.1,0.2,0.3,0.5,0.4,0.7l0.2,0.4c0.2,0.3,0.3,0.6,0.4,0.9s0.2,0.4,0.3,0.5
	l0.2,0.6c0.1,0.2,0.1,0.4,0.2,0.6l0.1,0.4l2.4-2L295.3,295.2L295.3,295.2z M325.9,317.1v8.2h7.9v0L325.9,317.1z M300,290.3
	L300,290.3l-4.7,4.8l-0.1,0.1l4.8,4.8l3-3v-9.8L300,290.3z M295.3,295.2L295.3,295.2l4.6-4.8l0.1-0.1l-0.1-0.1l-0.6-0.6l-0.4-0.4
	l-2.8-2.9L290,280l-3.1,0.9l-4.6,1.4l-6.6,2v-8.7h-13.3v15.7h22.1l0.8,0.1l0.7,0.1h0l0.2,0l0.5,0.1l0.5,0.1l0.5,0.1l0.6,0.2l0.3,0.1
	l0.3,0.1l0.2,0.1h0l0.3,0.1c0.1,0,0.2,0.1,0.3,0.1c0.1,0,0.2,0.1,0.3,0.1h0l0,0c0.1,0,0.2,0.1,0.3,0.2h0c0.1,0,0.1,0,0.1,0.1
	l0.1,0.1l0.1,0.1l0.1,0.1h0.1l0.1,0.1h0.1c0.3,0.2,0.6,0.4,0.8,0.6c0.3,0.2,0.6,0.4,0.8,0.6c0.4,0.3,0.8,0.7,1.1,1
	c0.1,0.1,0.2,0.3,0.3,0.4c0.4,0.4,0.7,0.8,1,1.2l0.3,0.4c0.1,0.1,0.2,0.3,0.3,0.4c0.1,0.2,0.3,0.5,0.4,0.7l0.2,0.4
	c0.2,0.3,0.3,0.6,0.4,0.9s0.2,0.4,0.3,0.5l0.2,0.6c0.1,0.2,0.1,0.4,0.2,0.6l0.1,0.4l2.4-2L295.3,295.2L295.3,295.2z M325.9,317.1
	v8.2h7.9v0L325.9,317.1z M300,290.3L300,290.3l-4.7,4.8l-0.1,0.1l4.8,4.8l3-3v-9.8L300,290.3z M295.3,295.2L295.3,295.2l4.6-4.8
	l0.1-0.1l-0.1-0.1l-0.6-0.6l-0.4-0.4l-2.8-2.9L290,280l-3.1,0.9l-4.6,1.4l-6.6,2v-8.7h-13.3v15.7h22.1l0.8,0.1l0.7,0.1h0l0.2,0
	l0.5,0.1l0.5,0.1l0.5,0.1l0.6,0.2l0.3,0.1l0.3,0.1l0.2,0.1h0l0.3,0.1c0.1,0,0.2,0.1,0.3,0.1c0.1,0,0.2,0.1,0.3,0.1h0l0,0
	c0.1,0,0.2,0.1,0.3,0.2h0c0.1,0,0.1,0,0.1,0.1l0.1,0.1l0.1,0.1l0.1,0.1h0.1l0.1,0.1h0.1c0.3,0.2,0.6,0.4,0.8,0.6
	c0.3,0.2,0.6,0.4,0.8,0.6c0.4,0.3,0.8,0.7,1.1,1c0.1,0.1,0.2,0.3,0.3,0.4c0.4,0.4,0.7,0.8,1,1.2l0.3,0.4c0.1,0.1,0.2,0.3,0.3,0.4
	c0.1,0.2,0.3,0.5,0.4,0.7l0.2,0.4c0.2,0.3,0.3,0.6,0.4,0.9s0.2,0.4,0.3,0.5l0.2,0.6c0.1,0.2,0.1,0.4,0.2,0.6l0.1,0.4l2.4-2
	L295.3,295.2L295.3,295.2z M325.9,317.1v8.2h7.9v0L325.9,317.1z M300,290.3L300,290.3l-4.7,4.8l-0.1,0.1l4.8,4.8l3-3v-9.8L300,290.3
	z M295.3,295.2L295.3,295.2l4.6-4.8l0.1-0.1l-0.1-0.1l-0.6-0.6l-0.4-0.4l-2.8-2.9L290,280l-3.1,0.9l-4.6,1.4l-6.6,2v-8.7h-13.3v15.7
	h22.1l0.8,0.1l0.7,0.1h0l0.2,0l0.5,0.1l0.5,0.1l0.5,0.1l0.6,0.2l0.3,0.1l0.3,0.1l0.2,0.1h0l0.3,0.1c0.1,0,0.2,0.1,0.3,0.1
	c0.1,0,0.2,0.1,0.3,0.1h0l0,0c0.1,0,0.2,0.1,0.3,0.2h0c0.1,0,0.1,0,0.1,0.1l0.1,0.1l0.1,0.1l0.1,0.1h0.1l0.1,0.1h0.1
	c0.3,0.2,0.6,0.4,0.8,0.6c0.3,0.2,0.6,0.4,0.8,0.6c0.4,0.3,0.8,0.7,1.1,1c0.1,0.1,0.2,0.3,0.3,0.4c0.4,0.4,0.7,0.8,1,1.2l0.3,0.4
	c0.1,0.1,0.2,0.3,0.3,0.4c0.1,0.2,0.3,0.5,0.4,0.7l0.2,0.4c0.2,0.3,0.3,0.6,0.4,0.9s0.2,0.4,0.3,0.5l0.2,0.6
	c0.1,0.2,0.1,0.4,0.2,0.6l0.1,0.4l2.4-2L295.3,295.2L295.3,295.2z M325.9,317.1v8.2h7.9v0L325.9,317.1z M300,290.3L300,290.3
	l-4.7,4.8l-0.1,0.1l4.8,4.8l3-3v-9.8L300,290.3z M295.3,295.2L295.3,295.2l4.6-4.8l0.1-0.1l-0.1-0.1l-0.6-0.6l-0.4-0.4l-2.8-2.9
	L290,280l-3.1,0.9l-4.6,1.4l-6.6,2v-8.7h-13.3v15.7h22.1l0.8,0.1l0.7,0.1h0l0.2,0l0.5,0.1l0.5,0.1l0.5,0.1l0.6,0.2l0.3,0.1l0.3,0.1
	l0.2,0.1h0l0.3,0.1c0.1,0,0.2,0.1,0.3,0.1c0.1,0,0.2,0.1,0.3,0.1h0l0,0c0.1,0,0.2,0.1,0.3,0.2h0c0.1,0,0.1,0,0.1,0.1l0.1,0.1
	l0.1,0.1l0.1,0.1h0.1l0.1,0.1h0.1c0.3,0.2,0.6,0.4,0.8,0.6c0.3,0.2,0.6,0.4,0.8,0.6c0.4,0.3,0.8,0.7,1.1,1c0.1,0.1,0.2,0.3,0.3,0.4
	c0.4,0.4,0.7,0.8,1,1.2l0.3,0.4c0.1,0.1,0.2,0.3,0.3,0.4c0.1,0.2,0.3,0.5,0.4,0.7l0.2,0.4c0.2,0.3,0.3,0.6,0.4,0.9s0.2,0.4,0.3,0.5
	l0.2,0.6c0.1,0.2,0.1,0.4,0.2,0.6l0.1,0.4l2.4-2L295.3,295.2L295.3,295.2z M325.9,317.1v8.2h7.9v0L325.9,317.1z M300,290.3
	L300,290.3l-4.7,4.8l-0.1,0.1l4.8,4.8l3-3v-9.8L300,290.3z M295.3,295.2L295.3,295.2l4.6-4.8l0.1-0.1l-0.1-0.1l-0.6-0.6l-0.4-0.4
	l-2.8-2.9L290,280l-3.1,0.9l-4.6,1.4l-6.6,2v-8.7h-13.3v15.7h22.1l0.8,0.1l0.7,0.1h0l0.2,0l0.5,0.1l0.5,0.1l0.5,0.1l0.6,0.2l0.3,0.1
	l0.3,0.1l0.2,0.1h0l0.3,0.1c0.1,0,0.2,0.1,0.3,0.1c0.1,0,0.2,0.1,0.3,0.1h0l0,0c0.1,0,0.2,0.1,0.3,0.2h0c0.1,0,0.1,0,0.1,0.1
	l0.1,0.1l0.1,0.1l0.1,0.1h0.1l0.1,0.1h0.1c0.3,0.2,0.6,0.4,0.8,0.6c0.3,0.2,0.6,0.4,0.8,0.6c0.4,0.3,0.8,0.7,1.1,1
	c0.1,0.1,0.2,0.3,0.3,0.4c0.4,0.4,0.7,0.8,1,1.2l0.3,0.4c0.1,0.1,0.2,0.3,0.3,0.4c0.1,0.2,0.3,0.5,0.4,0.7l0.2,0.4
	c0.2,0.3,0.3,0.6,0.4,0.9s0.2,0.4,0.3,0.5l0.2,0.6c0.1,0.2,0.1,0.4,0.2,0.6l0.1,0.4l2.4-2L295.3,295.2L295.3,295.2z M325.9,317.1
	v8.2h7.9v0L325.9,317.1z M300,290.3L300,290.3l-4.7,4.8l-0.1,0.1l4.8,4.8l3-3v-9.8L300,290.3z M295.3,295.2L295.3,295.2l4.6-4.8
	l0.1-0.1l-0.1-0.1l-0.6-0.6l-0.4-0.4l-2.8-2.9L290,280l-3.1,0.9l-4.6,1.4l-6.6,2v-8.7h-13.3v15.7h22.1l0.8,0.1l0.7,0.1h0l0.2,0
	l0.5,0.1l0.5,0.1l0.5,0.1l0.6,0.2l0.3,0.1l0.3,0.1l0.2,0.1h0l0.3,0.1c0.1,0,0.2,0.1,0.3,0.1c0.1,0,0.2,0.1,0.3,0.1h0l0,0
	c0.1,0,0.2,0.1,0.3,0.2h0c0.1,0,0.1,0,0.1,0.1l0.1,0.1l0.1,0.1l0.1,0.1h0.1l0.1,0.1h0.1c0.3,0.2,0.6,0.4,0.8,0.6
	c0.3,0.2,0.6,0.4,0.8,0.6c0.4,0.3,0.8,0.7,1.1,1c0.1,0.1,0.2,0.3,0.3,0.4c0.4,0.4,0.7,0.8,1,1.2l0.3,0.4c0.1,0.1,0.2,0.3,0.3,0.4
	c0.1,0.2,0.3,0.5,0.4,0.7l0.2,0.4c0.2,0.3,0.3,0.6,0.4,0.9s0.2,0.4,0.3,0.5l0.2,0.6c0.1,0.2,0.1,0.4,0.2,0.6l0.1,0.4l2.4-2
	L295.3,295.2L295.3,295.2z M325.9,317.1v8.2h7.9v0L325.9,317.1z M300,290.3L300,290.3l-4.7,4.8l-0.1,0.1l4.8,4.8l3-3v-9.8L300,290.3
	z M295.3,295.2L295.3,295.2l4.6-4.8l0.1-0.1l-0.1-0.1l-0.6-0.6l-0.4-0.4l-2.8-2.9L290,280l-3.1,0.9l-4.6,1.4l-6.6,2v-8.7h-13.3v15.7
	h22.1l0.8,0.1l0.7,0.1h0l0.2,0l0.5,0.1l0.5,0.1l0.5,0.1l0.6,0.2l0.3,0.1l0.3,0.1l0.2,0.1h0l0.3,0.1c0.1,0,0.2,0.1,0.3,0.1
	c0.1,0,0.2,0.1,0.3,0.1h0l0,0c0.1,0,0.2,0.1,0.3,0.2h0c0.1,0,0.1,0,0.1,0.1l0.1,0.1l0.1,0.1l0.1,0.1h0.1l0.1,0.1h0.1
	c0.3,0.2,0.6,0.4,0.8,0.6c0.3,0.2,0.6,0.4,0.8,0.6c0.4,0.3,0.8,0.7,1.1,1c0.1,0.1,0.2,0.3,0.3,0.4c0.4,0.4,0.7,0.8,1,1.2l0.3,0.4
	c0.1,0.1,0.2,0.3,0.3,0.4c0.1,0.2,0.3,0.5,0.4,0.7l0.2,0.4c0.2,0.3,0.3,0.6,0.4,0.9s0.2,0.4,0.3,0.5l0.2,0.6
	c0.1,0.2,0.1,0.4,0.2,0.6l0.1,0.4l2.4-2L295.3,295.2L295.3,295.2z M325.9,317.1v8.2h7.9v0L325.9,317.1z M300,290.3L300,290.3
	l-4.7,4.8l-0.1,0.1l4.8,4.8l3-3v-9.8L300,290.3z M295.3,295.2L295.3,295.2l4.6-4.8l0.1-0.1l-0.1-0.1l-0.6-0.6l-0.4-0.4l-2.8-2.9
	L290,280l-3.1,0.9l-4.6,1.4l-6.6,2v-8.7h-13.3v15.7h22.1l0.8,0.1l0.7,0.1h0l0.2,0l0.5,0.1l0.5,0.1l0.5,0.1l0.6,0.2l0.3,0.1l0.3,0.1
	l0.2,0.1h0l0.3,0.1c0.1,0,0.2,0.1,0.3,0.1c0.1,0,0.2,0.1,0.3,0.1h0l0,0c0.1,0,0.2,0.1,0.3,0.2h0c0.1,0,0.1,0,0.1,0.1l0.1,0.1
	l0.1,0.1l0.1,0.1h0.1l0.1,0.1h0.1c0.3,0.2,0.6,0.4,0.8,0.6c0.3,0.2,0.6,0.4,0.8,0.6c0.4,0.3,0.8,0.7,1.1,1c0.1,0.1,0.2,0.3,0.3,0.4
	c0.4,0.4,0.7,0.8,1,1.2l0.3,0.4c0.1,0.1,0.2,0.3,0.3,0.4c0.1,0.2,0.3,0.5,0.4,0.7l0.2,0.4c0.2,0.3,0.3,0.6,0.4,0.9s0.2,0.4,0.3,0.5
	l0.2,0.6c0.1,0.2,0.1,0.4,0.2,0.6l0.1,0.4l2.4-2L295.3,295.2L295.3,295.2z M325.9,317.1v8.2h7.9v0L325.9,317.1z M300,290.3
	L300,290.3l-4.7,4.8l-0.1,0.1l4.8,4.8l3-3v-9.8L300,290.3z M295.3,295.2L295.3,295.2l4.6-4.8l0.1-0.1l-0.1-0.1l-0.6-0.6l-0.4-0.4
	l-2.8-2.9L290,280l-3.1,0.9l-4.6,1.4l-6.6,2v-8.7h-13.3v15.7h22.1l0.8,0.1l0.7,0.1h0l0.2,0l0.5,0.1l0.5,0.1l0.5,0.1l0.6,0.2l0.3,0.1
	l0.3,0.1l0.2,0.1h0l0.3,0.1c0.1,0,0.2,0.1,0.3,0.1c0.1,0,0.2,0.1,0.3,0.1h0l0,0c0.1,0,0.2,0.1,0.3,0.2h0c0.1,0,0.1,0,0.1,0.1
	l0.1,0.1l0.1,0.1l0.1,0.1h0.1l0.1,0.1h0.1c0.3,0.2,0.6,0.4,0.8,0.6c0.3,0.2,0.6,0.4,0.8,0.6c0.4,0.3,0.8,0.7,1.1,1
	c0.1,0.1,0.2,0.3,0.3,0.4c0.4,0.4,0.7,0.8,1,1.2l0.3,0.4c0.1,0.1,0.2,0.3,0.3,0.4c0.1,0.2,0.3,0.5,0.4,0.7l0.2,0.4
	c0.2,0.3,0.3,0.6,0.4,0.9s0.2,0.4,0.3,0.5l0.2,0.6c0.1,0.2,0.1,0.4,0.2,0.6l0.1,0.4l2.4-2L295.3,295.2L295.3,295.2z M325.9,317.1
	v8.2h7.9v0L325.9,317.1z M300,290.3L300,290.3l-4.7,4.8l-0.1,0.1l4.8,4.8l3-3v-9.8L300,290.3z M295.3,295.2L295.3,295.2l4.6-4.8
	l0.1-0.1l-0.1-0.1l-0.6-0.6l-0.4-0.4l-2.8-2.9L290,280l-3.1,0.9l-4.6,1.4l-6.6,2v-8.7h-13.3v15.7h22.1l0.8,0.1l0.7,0.1h0l0.2,0
	l0.5,0.1l0.5,0.1l0.5,0.1l0.6,0.2l0.3,0.1l0.3,0.1l0.2,0.1h0l0.3,0.1c0.1,0,0.2,0.1,0.3,0.1c0.1,0,0.2,0.1,0.3,0.1h0l0,0
	c0.1,0,0.2,0.1,0.3,0.2h0c0.1,0,0.1,0,0.1,0.1l0.1,0.1l0.1,0.1l0.1,0.1h0.1l0.1,0.1h0.1c0.3,0.2,0.6,0.4,0.8,0.6
	c0.3,0.2,0.6,0.4,0.8,0.6c0.4,0.3,0.8,0.7,1.1,1c0.1,0.1,0.2,0.3,0.3,0.4c0.4,0.4,0.7,0.8,1,1.2l0.3,0.4c0.1,0.1,0.2,0.3,0.3,0.4
	c0.1,0.2,0.3,0.5,0.4,0.7l0.2,0.4c0.2,0.3,0.3,0.6,0.4,0.9s0.2,0.4,0.3,0.5l0.2,0.6c0.1,0.2,0.1,0.4,0.2,0.6l0.1,0.4l2.4-2
	L295.3,295.2L295.3,295.2z M325.9,317.1v8.2h7.9v0L325.9,317.1z M300,290.3L300,290.3l-4.7,4.8l-0.1,0.1l4.8,4.8l3-3v-9.8L300,290.3
	z M295.3,295.2L295.3,295.2l4.6-4.8l0.1-0.1l-0.1-0.1l-0.6-0.6l-0.4-0.4l-2.8-2.9L290,280l-3.1,0.9l-4.6,1.4l-6.6,2v-8.7h-13.3v15.7
	h22.1l0.8,0.1l0.7,0.1h0l0.2,0l0.5,0.1l0.5,0.1l0.5,0.1l0.6,0.2l0.3,0.1l0.3,0.1l0.2,0.1h0l0.3,0.1c0.1,0,0.2,0.1,0.3,0.1
	c0.1,0,0.2,0.1,0.3,0.1h0l0,0c0.1,0,0.2,0.1,0.3,0.2h0c0.1,0,0.1,0,0.1,0.1l0.1,0.1l0.1,0.1l0.1,0.1h0.1l0.1,0.1h0.1
	c0.3,0.2,0.6,0.4,0.8,0.6c0.3,0.2,0.6,0.4,0.8,0.6c0.4,0.3,0.8,0.7,1.1,1c0.1,0.1,0.2,0.3,0.3,0.4c0.4,0.4,0.7,0.8,1,1.2l0.3,0.4
	c0.1,0.1,0.2,0.3,0.3,0.4c0.1,0.2,0.3,0.5,0.4,0.7l0.2,0.4c0.2,0.3,0.3,0.6,0.4,0.9s0.2,0.4,0.3,0.5l0.2,0.6
	c0.1,0.2,0.1,0.4,0.2,0.6l0.1,0.4l2.4-2L295.3,295.2L295.3,295.2z M325.9,317.1v8.2h7.9v0L325.9,317.1z M300,290.3L300,290.3
	l-4.7,4.8l-0.1,0.1l4.8,4.8l3-3v-9.8L300,290.3z M295.3,295.2L295.3,295.2l4.6-4.8l0.1-0.1l-0.1-0.1l-0.6-0.6l-0.4-0.4l-2.8-2.9
	L290,280l-3.1,0.9l-4.6,1.4l-6.6,2v-8.7h-13.3v15.7h22.1l0.8,0.1l0.7,0.1h0l0.2,0l0.5,0.1l0.5,0.1l0.5,0.1l0.6,0.2l0.3,0.1l0.3,0.1
	l0.2,0.1h0l0.3,0.1c0.1,0,0.2,0.1,0.3,0.1c0.1,0,0.2,0.1,0.3,0.1h0l0,0c0.1,0,0.2,0.1,0.3,0.2h0c0.1,0,0.1,0,0.1,0.1l0.1,0.1
	l0.1,0.1l0.1,0.1h0.1l0.1,0.1h0.1c0.3,0.2,0.6,0.4,0.8,0.6c0.3,0.2,0.6,0.4,0.8,0.6c0.4,0.3,0.8,0.7,1.1,1c0.1,0.1,0.2,0.3,0.3,0.4
	c0.4,0.4,0.7,0.8,1,1.2l0.3,0.4c0.1,0.1,0.2,0.3,0.3,0.4c0.1,0.2,0.3,0.5,0.4,0.7l0.2,0.4c0.2,0.3,0.3,0.6,0.4,0.9s0.2,0.4,0.3,0.5
	l0.2,0.6c0.1,0.2,0.1,0.4,0.2,0.6l0.1,0.4l2.4-2L295.3,295.2L295.3,295.2z M325.9,317.1v8.2h7.9v0L325.9,317.1z M300,290.3
	L300,290.3l-4.7,4.8l-0.1,0.1l4.8,4.8l3-3v-9.8L300,290.3z M295.3,295.2L295.3,295.2l4.6-4.8l0.1-0.1l-0.1-0.1l-0.6-0.6l-0.4-0.4
	l-2.8-2.9L290,280l-3.1,0.9l-4.6,1.4l-6.6,2v-8.7h-13.3v15.7h22.1l0.8,0.1l0.7,0.1h0l0.2,0l0.5,0.1l0.5,0.1l0.5,0.1l0.6,0.2l0.3,0.1
	l0.3,0.1l0.2,0.1h0l0.3,0.1c0.1,0,0.2,0.1,0.3,0.1c0.1,0,0.2,0.1,0.3,0.1h0l0,0c0.1,0,0.2,0.1,0.3,0.2h0c0.1,0,0.1,0,0.1,0.1
	l0.1,0.1l0.1,0.1l0.1,0.1h0.1l0.1,0.1h0.1c0.3,0.2,0.6,0.4,0.8,0.6c0.3,0.2,0.6,0.4,0.8,0.6c0.4,0.3,0.8,0.7,1.1,1
	c0.1,0.1,0.2,0.3,0.3,0.4c0.4,0.4,0.7,0.8,1,1.2l0.3,0.4c0.1,0.1,0.2,0.3,0.3,0.4c0.1,0.2,0.3,0.5,0.4,0.7l0.2,0.4
	c0.2,0.3,0.3,0.6,0.4,0.9s0.2,0.4,0.3,0.5l0.2,0.6c0.1,0.2,0.1,0.4,0.2,0.6l0.1,0.4l2.4-2L295.3,295.2L295.3,295.2z M325.9,317.1
	v8.2h7.9v0L325.9,317.1z M300,290.3L300,290.3l-4.7,4.8l-0.1,0.1l4.8,4.8l3-3v-9.8L300,290.3z M295.3,295.2L295.3,295.2l4.6-4.8
	l0.1-0.1l-0.1-0.1l-0.6-0.6l-0.4-0.4l-2.8-2.9L290,280l-3.1,0.9l-4.6,1.4l-6.6,2v-8.7h-13.3v15.7h22.1l0.8,0.1l0.7,0.1h0l0.2,0
	l0.5,0.1l0.5,0.1l0.5,0.1l0.6,0.2l0.3,0.1l0.3,0.1l0.2,0.1h0l0.3,0.1c0.1,0,0.2,0.1,0.3,0.1c0.1,0,0.2,0.1,0.3,0.1h0l0,0
	c0.1,0,0.2,0.1,0.3,0.2h0c0.1,0,0.1,0,0.1,0.1l0.1,0.1l0.1,0.1l0.1,0.1h0.1l0.1,0.1h0.1c0.3,0.2,0.6,0.4,0.8,0.6
	c0.3,0.2,0.6,0.4,0.8,0.6c0.4,0.3,0.8,0.7,1.1,1c0.1,0.1,0.2,0.3,0.3,0.4c0.4,0.4,0.7,0.8,1,1.2l0.3,0.4c0.1,0.1,0.2,0.3,0.3,0.4
	c0.1,0.2,0.3,0.5,0.4,0.7l0.2,0.4c0.2,0.3,0.3,0.6,0.4,0.9s0.2,0.4,0.3,0.5l0.2,0.6c0.1,0.2,0.1,0.4,0.2,0.6l0.1,0.4l2.4-2
	L295.3,295.2L295.3,295.2z M325.9,317.1v8.2h7.9v0L325.9,317.1z M300,290.3L300,290.3l-4.7,4.8l-0.1,0.1l4.8,4.8l3-3v-9.8L300,290.3
	z M295.3,295.2L295.3,295.2l4.6-4.8l0.1-0.1l-0.1-0.1l-0.6-0.6l-0.4-0.4l-2.8-2.9L290,280l-3.1,0.9l-4.6,1.4l-6.6,2v-8.7h-13.3v15.7
	h22.1l0.8,0.1l0.7,0.1h0l0.2,0l0.5,0.1l0.5,0.1l0.5,0.1l0.6,0.2l0.3,0.1l0.3,0.1l0.2,0.1h0l0.3,0.1c0.1,0,0.2,0.1,0.3,0.1
	c0.1,0,0.2,0.1,0.3,0.1h0l0,0c0.1,0,0.2,0.1,0.3,0.2h0c0.1,0,0.1,0,0.1,0.1l0.1,0.1l0.1,0.1l0.1,0.1h0.1l0.1,0.1h0.1
	c0.3,0.2,0.6,0.4,0.8,0.6c0.3,0.2,0.6,0.4,0.8,0.6c0.4,0.3,0.8,0.7,1.1,1c0.1,0.1,0.2,0.3,0.3,0.4c0.4,0.4,0.7,0.8,1,1.2l0.3,0.4
	c0.1,0.1,0.2,0.3,0.3,0.4c0.1,0.2,0.3,0.5,0.4,0.7l0.2,0.4c0.2,0.3,0.3,0.6,0.4,0.9s0.2,0.4,0.3,0.5l0.2,0.6
	c0.1,0.2,0.1,0.4,0.2,0.6l0.1,0.4l2.4-2L295.3,295.2L295.3,295.2z M325.9,317.1v8.2h7.9v0L325.9,317.1z M300,290.3L300,290.3
	l-4.7,4.8l-0.1,0.1l4.8,4.8l3-3v-9.8L300,290.3z M295.3,295.2L295.3,295.2l4.6-4.8l0.1-0.1l-0.1-0.1l-0.6-0.6l-0.4-0.4l-2.8-2.9
	L290,280l-3.1,0.9l-4.6,1.4l-6.6,2v-8.7h-13.3v15.7h22.1l0.8,0.1l0.7,0.1h0l0.2,0l0.5,0.1l0.5,0.1l0.5,0.1l0.6,0.2l0.3,0.1l0.3,0.1
	l0.2,0.1h0l0.3,0.1c0.1,0,0.2,0.1,0.3,0.1c0.1,0,0.2,0.1,0.3,0.1h0l0,0c0.1,0,0.2,0.1,0.3,0.2h0c0.1,0,0.1,0,0.1,0.1l0.1,0.1
	l0.1,0.1l0.1,0.1h0.1l0.1,0.1h0.1c0.3,0.2,0.6,0.4,0.8,0.6c0.3,0.2,0.6,0.4,0.8,0.6c0.4,0.3,0.8,0.7,1.1,1c0.1,0.1,0.2,0.3,0.3,0.4
	c0.4,0.4,0.7,0.8,1,1.2l0.3,0.4c0.1,0.1,0.2,0.3,0.3,0.4c0.1,0.2,0.3,0.5,0.4,0.7l0.2,0.4c0.2,0.3,0.3,0.6,0.4,0.9s0.2,0.4,0.3,0.5
	l0.2,0.6c0.1,0.2,0.1,0.4,0.2,0.6l0.1,0.4l2.4-2L295.3,295.2L295.3,295.2z M325.9,317.1v8.2h7.9v0L325.9,317.1z M300,290.3
	L300,290.3l-0.1,0.1l-4.6,4.8l-0.1,0.1l4.8,4.8l3-3v-9.8L300,290.3z M295.3,295.2L295.3,295.2l4.6-4.8l0.1-0.1l-0.1-0.1l-0.6-0.6
	l-0.4-0.4l-2.8-2.9L290,280l-3.1,0.9l-4.6,1.4l-6.6,2v-8.7h-13.3v15.7h22.1l0.8,0.1l0.7,0.1h0l0.2,0l0.5,0.1l0.5,0.1l0.5,0.1
	l0.6,0.2l0.3,0.1l0.3,0.1l0.2,0.1h0l0.3,0.1c0.1,0,0.2,0.1,0.3,0.1c0.1,0,0.2,0.1,0.3,0.1h0l0,0c0.1,0,0.2,0.1,0.3,0.2h0
	c0.1,0,0.1,0,0.1,0.1l0.1,0.1l0.1,0.1l0.1,0.1h0.1l0.1,0.1h0.1c0.3,0.2,0.6,0.4,0.8,0.6c0.3,0.2,0.6,0.4,0.8,0.6
	c0.4,0.3,0.8,0.7,1.1,1c0.1,0.1,0.2,0.3,0.3,0.4c0.4,0.4,0.7,0.8,1,1.2l0.3,0.4c0.1,0.1,0.2,0.3,0.3,0.4c0.1,0.2,0.3,0.5,0.4,0.7
	l0.2,0.4c0.2,0.3,0.3,0.6,0.4,0.9s0.2,0.4,0.3,0.5l0.2,0.6c0.1,0.2,0.1,0.4,0.2,0.6l0.1,0.4l2.4-2L295.3,295.2L295.3,295.2z
	 M300,290.3L300,290.3l-0.7-0.7l-0.4-0.4l-2.8-2.9L290,280l-3.1,0.9l-4.6,1.4l-6.6,2v-8.6l0,0v-0.1h0v0h-0.1l0,0h0l0,0h-13.2v15.7
	H284l0.5,0l-0.2,0h0.3l0.8,0.1l0.7,0.1h-0.6l0.8,0.2h0l-0.2-0.2l0.2,0l0.5,0.1l0.5,0.1l0.5,0.1l0.6,0.2l0.3,0.1l-0.3-0.1l0.1,0.1
	l0.2,0.1l0.2,0.1l0.3,0.1l0.2,0.1h0l-0.2-0.1l0.2,0.1c0.1,0,0.2,0.1,0.3,0.1c0.1,0,0.2,0.1,0.3,0.1c0.1,0.1,0.3,0.1,0.4,0.2h0
	c0.1,0,0.1,0,0.1,0.1l0.1,0.1l0.1,0.1l0.1,0.1h0.1l0.1,0.1h0.1c0.3,0.2,0.6,0.4,0.8,0.6c0.3,0.2,0.6,0.4,0.8,0.6
	c0.4,0.3,0.8,0.7,1.1,1c0.1,0.1,0.2,0.3,0.3,0.4c0.4,0.4,0.7,0.8,1,1.2l0.3,0.4c0.1,0.1,0.2,0.3,0.3,0.4c0.1,0.2,0.3,0.5,0.4,0.7
	l0.2,0.4c0.2,0.3,0.3,0.6,0.4,0.9s0.2,0.4,0.3,0.5l0.2,0.6c0.1,0.2,0.1,0.4,0.2,0.6l0.1,0.4l2.4-2l3-3v-9.8L300,290.3z M293.9,295.8
	c0.1,0.1,0.2,0.2,0.2,0.3L293.9,295.8c0.1,0.1,0.2,0.3,0.3,0.4l0,0l-0.1-0.1L293.9,295.8z M293.7,295.5c0.1,0.1,0.2,0.1,0.2,0.2
	C293.8,295.7,293.7,295.5,293.7,295.5C293.6,295.4,293.6,295.4,293.7,295.5L293.7,295.5l-0.1-0.1c-0.1-0.1-0.2-0.2-0.3-0.2
	c-0.1-0.1-0.2-0.2-0.3-0.2c-0.1-0.1-0.2-0.1-0.3-0.2c0.1,0.1,0.2,0.1,0.3,0.2c0,0,0,0.1,0.1,0.1l0.1,0.1l0.3,0.3l0,0c0,0,0,0,0,0
	c0.1,0.1,0.2,0.2,0.3,0.3C293.8,295.7,293.8,295.6,293.7,295.5z M291.5,293.8l-0.4-0.2c0.1,0,0.1,0.1,0.2,0.1l-0.2-0.1
	C291.3,293.6,291.4,293.7,291.5,293.8L291.5,293.8C291.5,293.8,291.5,293.8,291.5,293.8c0.1,0.1,0.2,0.1,0.2,0.2
	C291.7,293.9,291.6,293.8,291.5,293.8L291.5,293.8z M286.7,291.7l0.3,0.1L286.7,291.7L286.7,291.7z M286.2,291.6l0.4,0.1l-0.2-0.1
	H286.2z M284.9,291.3h-0.4l0.8,0.1L284.9,291.3L284.9,291.3z M303,297L303,297L303,297L303,297z M325.9,317.1v8.2h7.9v0L325.9,317.1
	z M325.8,274.8V292l0,0l15.1-14.5v-2.6H325.8z M294.2,296.1l-0.3-0.3C294,295.9,294.1,296,294.2,296.1l-0.3-0.3
	c0.1,0.1,0.2,0.3,0.4,0.4l0,0L294.2,296.1z M293.7,295.5c0.1,0.1,0.2,0.1,0.2,0.2C293.8,295.7,293.7,295.5,293.7,295.5
	C293.6,295.4,293.6,295.4,293.7,295.5L293.7,295.5l-0.1-0.1c-0.1-0.1-0.2-0.2-0.3-0.2c-0.1-0.1-0.2-0.2-0.3-0.2
	c-0.1-0.1-0.2-0.1-0.3-0.2c0.1,0.1,0.2,0.1,0.3,0.2c0,0,0,0.1,0.1,0.1l0.1,0.1l0.3,0.3l0,0c0,0,0,0,0,0c0.1,0.1,0.2,0.2,0.3,0.3
	C293.8,295.7,293.8,295.6,293.7,295.5z M291.5,293.8l-0.4-0.2c0.1,0,0.1,0.1,0.2,0.1l-0.2-0.1C291.3,293.6,291.4,293.7,291.5,293.8
	L291.5,293.8C291.5,293.8,291.5,293.8,291.5,293.8c0.1,0.1,0.2,0.1,0.2,0.2C291.7,293.9,291.6,293.8,291.5,293.8L291.5,293.8z
	 M289.9,292.8L289.9,292.8c-0.1,0-0.2-0.1-0.3-0.1c-0.1-0.1-0.2-0.1-0.3-0.1l-0.3-0.1h0l-0.2-0.1l-0.3-0.1l-0.3-0.1l0.1,0.1l0.2,0.1
	l0.2,0.1l0.3,0.1l0.2,0.1h0l-0.2-0.1l0.2,0.1c0.1,0,0.2,0.1,0.3,0.1C289.7,292.7,289.7,292.8,289.9,292.8c0.1,0.1,0.2,0.1,0.4,0.2h0
	C290.1,292.9,290,292.9,289.9,292.8L289.9,292.8z M286.7,291.7l0.3,0.1L286.7,291.7L286.7,291.7z M286.2,291.6l0.4,0.1l-0.2-0.1
	H286.2z M285.4,291.5l0.8,0.2h0l-0.2-0.2H285.4z M284.9,291.3h-0.4l0.8,0.1L284.9,291.3L284.9,291.3z M284,291.3l0.5,0l-0.2,0H284z
	 M275.7,275.6h-0.1H275.7l-0.1,0l0,0L275.7,275.6L275.7,275.6l0,0.1L275.7,275.6L275.7,275.6L275.7,275.6z M325.8,274.8V292l0,0
	L325.8,274.8l15.2,0v0H325.8z M295.3,295.2L295.3,295.2l4.6-4.8l0.1-0.1l-0.1-0.1l-0.6-0.6l-0.4-0.4l-2.8-2.9L290,280l-3.1,0.9
	l-4.6,1.4l-6.6,2v-8.7h-13.3v15.7h22.1l0.8,0.1l0.7,0.1h0l0.2,0l0.5,0.1l0.5,0.1l0.5,0.1l0.6,0.2l0.3,0.1l0.3,0.1l0.2,0.1h0l0.3,0.1
	c0.1,0,0.2,0.1,0.3,0.1c0.1,0,0.2,0.1,0.3,0.1h0l0,0c0.1,0,0.2,0.1,0.3,0.2h0c0.1,0,0.1,0,0.1,0.1l0.1,0.1l0.1,0.1l0.1,0.1h0.1
	l0.1,0.1h0.1c0.3,0.2,0.6,0.4,0.8,0.6c0.3,0.2,0.6,0.4,0.8,0.6c0.4,0.3,0.8,0.7,1.1,1c0.1,0.1,0.2,0.3,0.3,0.4
	c0.4,0.4,0.7,0.8,1,1.2l0.3,0.4c0.1,0.1,0.2,0.3,0.3,0.4c0.1,0.2,0.3,0.5,0.4,0.7l0.2,0.4c0.2,0.3,0.3,0.6,0.4,0.9s0.2,0.4,0.3,0.5
	l0.2,0.6c0.1,0.2,0.1,0.4,0.2,0.6l0.1,0.4l2.4-2L295.3,295.2L295.3,295.2z M300,290.3L300,290.3l-4.7,4.8l-0.1,0.1l4.8,4.8l3-3v-9.8
	L300,290.3z M325.9,317.1v8.2h7.9v0L325.9,317.1z M295.3,295.2L295.3,295.2l4.6-4.8l0.1-0.1l-0.1-0.1l-0.6-0.6l-0.4-0.4l-2.8-2.9
	L290,280l-3.1,0.9l-4.6,1.4l-6.6,2v-8.7h-13.3v15.7h22.1l0.8,0.1l0.7,0.1h0l0.2,0l0.5,0.1l0.5,0.1l0.5,0.1l0.6,0.2l0.3,0.1l0.3,0.1
	l0.2,0.1h0l0.3,0.1c0.1,0,0.2,0.1,0.3,0.1c0.1,0,0.2,0.1,0.3,0.1h0l0,0c0.1,0,0.2,0.1,0.3,0.2h0c0.1,0,0.1,0,0.1,0.1l0.1,0.1
	l0.1,0.1l0.1,0.1h0.1l0.1,0.1h0.1c0.3,0.2,0.6,0.4,0.8,0.6c0.3,0.2,0.6,0.4,0.8,0.6c0.4,0.3,0.8,0.7,1.1,1c0.1,0.1,0.2,0.3,0.3,0.4
	c0.4,0.4,0.7,0.8,1,1.2l0.3,0.4c0.1,0.1,0.2,0.3,0.3,0.4c0.1,0.2,0.3,0.5,0.4,0.7l0.2,0.4c0.2,0.3,0.3,0.6,0.4,0.9s0.2,0.4,0.3,0.5
	l0.2,0.6c0.1,0.2,0.1,0.4,0.2,0.6l0.1,0.4l2.4-2L295.3,295.2L295.3,295.2z M300,290.3L300,290.3l-4.7,4.8l-0.1,0.1l4.8,4.8l3-3v-9.8
	L300,290.3z M325.9,317.1v8.2h7.9v0L325.9,317.1z M295.3,295.2L295.3,295.2l4.6-4.8l0.1-0.1l-0.1-0.1l-0.6-0.6l-0.4-0.4l-2.8-2.9
	L290,280l-3.1,0.9l-4.6,1.4l-6.6,2v-8.7h-13.3v15.7h22.1l0.8,0.1l0.7,0.1h0l0.2,0l0.5,0.1l0.5,0.1l0.5,0.1l0.6,0.2l0.3,0.1l0.3,0.1
	l0.2,0.1h0l0.3,0.1c0.1,0,0.2,0.1,0.3,0.1c0.1,0,0.2,0.1,0.3,0.1h0l0,0c0.1,0,0.2,0.1,0.3,0.2h0c0.1,0,0.1,0,0.1,0.1l0.1,0.1
	l0.1,0.1l0.1,0.1h0.1l0.1,0.1h0.1c0.3,0.2,0.6,0.4,0.8,0.6c0.3,0.2,0.6,0.4,0.8,0.6c0.4,0.3,0.8,0.7,1.1,1c0.1,0.1,0.2,0.3,0.3,0.4
	c0.4,0.4,0.7,0.8,1,1.2l0.3,0.4c0.1,0.1,0.2,0.3,0.3,0.4c0.1,0.2,0.3,0.5,0.4,0.7l0.2,0.4c0.2,0.3,0.3,0.6,0.4,0.9s0.2,0.4,0.3,0.5
	l0.2,0.6c0.1,0.2,0.1,0.4,0.2,0.6l0.1,0.4l2.4-2L295.3,295.2L295.3,295.2z M300,290.3L300,290.3l-4.7,4.8l-0.1,0.1l4.8,4.8l3-3v-9.8
	L300,290.3z M325.9,317.1v8.2h7.9v0L325.9,317.1z M295.3,295.2L295.3,295.2l4.6-4.8l0.1-0.1l-0.1-0.1l-0.6-0.6l-0.4-0.4l-2.8-2.9
	L290,280l-3.1,0.9l-4.6,1.4l-6.6,2v-8.7h-13.3v15.7h22.1l0.8,0.1l0.7,0.1h0l0.2,0l0.5,0.1l0.5,0.1l0.5,0.1l0.6,0.2l0.3,0.1l0.3,0.1
	l0.2,0.1h0l0.3,0.1c0.1,0,0.2,0.1,0.3,0.1c0.1,0,0.2,0.1,0.3,0.1h0l0,0c0.1,0,0.2,0.1,0.3,0.2h0c0.1,0,0.1,0,0.1,0.1l0.1,0.1
	l0.1,0.1l0.1,0.1h0.1l0.1,0.1h0.1c0.3,0.2,0.6,0.4,0.8,0.6c0.3,0.2,0.6,0.4,0.8,0.6c0.4,0.3,0.8,0.7,1.1,1c0.1,0.1,0.2,0.3,0.3,0.4
	c0.4,0.4,0.7,0.8,1,1.2l0.3,0.4c0.1,0.1,0.2,0.3,0.3,0.4c0.1,0.2,0.3,0.5,0.4,0.7l0.2,0.4c0.2,0.3,0.3,0.6,0.4,0.9s0.2,0.4,0.3,0.5
	l0.2,0.6c0.1,0.2,0.1,0.4,0.2,0.6l0.1,0.4l2.4-2L295.3,295.2L295.3,295.2z M300,290.3L300,290.3l-4.7,4.8l-0.1,0.1l4.8,4.8l3-3v-9.8
	L300,290.3z M325.9,317.1v8.2h7.9v0L325.9,317.1z M295.3,295.2L295.3,295.2l4.6-4.8l0.1-0.1l-0.1-0.1l-0.6-0.6l-0.4-0.4l-2.8-2.9
	L290,280l-3.1,0.9l-4.6,1.4l-6.6,2v-8.7h-13.3v15.7h22.1l0.8,0.1l0.7,0.1h0l0.2,0l0.5,0.1l0.5,0.1l0.5,0.1l0.6,0.2l0.3,0.1l0.3,0.1
	l0.2,0.1h0l0.3,0.1c0.1,0,0.2,0.1,0.3,0.1c0.1,0,0.2,0.1,0.3,0.1h0l0,0c0.1,0,0.2,0.1,0.3,0.2h0c0.1,0,0.1,0,0.1,0.1l0.1,0.1
	l0.1,0.1l0.1,0.1h0.1l0.1,0.1h0.1c0.3,0.2,0.6,0.4,0.8,0.6c0.3,0.2,0.6,0.4,0.8,0.6c0.4,0.3,0.8,0.7,1.1,1c0.1,0.1,0.2,0.3,0.3,0.4
	c0.4,0.4,0.7,0.8,1,1.2l0.3,0.4c0.1,0.1,0.2,0.3,0.3,0.4c0.1,0.2,0.3,0.5,0.4,0.7l0.2,0.4c0.2,0.3,0.3,0.6,0.4,0.9s0.2,0.4,0.3,0.5
	l0.2,0.6c0.1,0.2,0.1,0.4,0.2,0.6l0.1,0.4l2.4-2L295.3,295.2L295.3,295.2z M300,290.3L300,290.3l-4.7,4.8l-0.1,0.1l4.8,4.8l3-3v-9.8
	L300,290.3z M325.9,317.1v8.2h7.9v0L325.9,317.1z M295.3,295.2L295.3,295.2l4.6-4.8l0.1-0.1l-0.1-0.1l-0.6-0.6l-0.4-0.4l-2.8-2.9
	L290,280l-3.1,0.9l-4.6,1.4l-6.6,2v-8.7h-13.3v15.7h22.1l0.8,0.1l0.7,0.1h0l0.2,0l0.5,0.1l0.5,0.1l0.5,0.1l0.6,0.2l0.3,0.1l0.3,0.1
	l0.2,0.1h0l0.3,0.1c0.1,0,0.2,0.1,0.3,0.1c0.1,0,0.2,0.1,0.3,0.1h0l0,0c0.1,0,0.2,0.1,0.3,0.2h0c0.1,0,0.1,0,0.1,0.1l0.1,0.1
	l0.1,0.1l0.1,0.1h0.1l0.1,0.1h0.1c0.3,0.2,0.6,0.4,0.8,0.6c0.3,0.2,0.6,0.4,0.8,0.6c0.4,0.3,0.8,0.7,1.1,1c0.1,0.1,0.2,0.3,0.3,0.4
	c0.4,0.4,0.7,0.8,1,1.2l0.3,0.4c0.1,0.1,0.2,0.3,0.3,0.4c0.1,0.2,0.3,0.5,0.4,0.7l0.2,0.4c0.2,0.3,0.3,0.6,0.4,0.9s0.2,0.4,0.3,0.5
	l0.2,0.6c0.1,0.2,0.1,0.4,0.2,0.6l0.1,0.4l2.4-2L295.3,295.2L295.3,295.2z M300,290.3L300,290.3l-4.7,4.8l-0.1,0.1l4.8,4.8l3-3v-9.8
	L300,290.3z M325.9,317.1v8.2h7.9v0L325.9,317.1z M295.3,295.2L295.3,295.2l4.6-4.8l0.1-0.1l-0.1-0.1l-0.6-0.6l-0.4-0.4l-2.8-2.9
	L290,280l-3.1,0.9l-4.6,1.4l-6.6,2v-8.7h-13.3v15.7h22.1l0.8,0.1l0.7,0.1h0l0.2,0l0.5,0.1l0.5,0.1l0.5,0.1l0.6,0.2l0.3,0.1l0.3,0.1
	l0.2,0.1h0l0.3,0.1c0.1,0,0.2,0.1,0.3,0.1c0.1,0,0.2,0.1,0.3,0.1h0l0,0c0.1,0,0.2,0.1,0.3,0.2h0c0.1,0,0.1,0,0.1,0.1l0.1,0.1
	l0.1,0.1l0.1,0.1h0.1l0.1,0.1h0.1c0.3,0.2,0.6,0.4,0.8,0.6c0.3,0.2,0.6,0.4,0.8,0.6c0.4,0.3,0.8,0.7,1.1,1c0.1,0.1,0.2,0.3,0.3,0.4
	c0.4,0.4,0.7,0.8,1,1.2l0.3,0.4c0.1,0.1,0.2,0.3,0.3,0.4c0.1,0.2,0.3,0.5,0.4,0.7l0.2,0.4c0.2,0.3,0.3,0.6,0.4,0.9s0.2,0.4,0.3,0.5
	l0.2,0.6c0.1,0.2,0.1,0.4,0.2,0.6l0.1,0.4l2.4-2L295.3,295.2L295.3,295.2z M300,290.3L300,290.3l-4.7,4.8l-0.1,0.1l4.8,4.8l3-3v-9.8
	L300,290.3z M325.9,317.1v8.2h7.9v0L325.9,317.1z M295.3,295.2L295.3,295.2l4.6-4.8l0.1-0.1l-0.1-0.1l-0.6-0.6l-0.4-0.4l-2.8-2.9
	L290,280l-3.1,0.9l-4.6,1.4l-6.6,2v-8.7h-13.3v15.7h22.1l0.8,0.1l0.7,0.1h0l0.2,0l0.5,0.1l0.5,0.1l0.5,0.1l0.6,0.2l0.3,0.1l0.3,0.1
	l0.2,0.1h0l0.3,0.1c0.1,0,0.2,0.1,0.3,0.1c0.1,0,0.2,0.1,0.3,0.1h0l0,0c0.1,0,0.2,0.1,0.3,0.2h0c0.1,0,0.1,0,0.1,0.1l0.1,0.1
	l0.1,0.1l0.1,0.1h0.1l0.1,0.1h0.1c0.3,0.2,0.6,0.4,0.8,0.6c0.3,0.2,0.6,0.4,0.8,0.6c0.4,0.3,0.8,0.7,1.1,1c0.1,0.1,0.2,0.3,0.3,0.4
	c0.4,0.4,0.7,0.8,1,1.2l0.3,0.4c0.1,0.1,0.2,0.3,0.3,0.4c0.1,0.2,0.3,0.5,0.4,0.7l0.2,0.4c0.2,0.3,0.3,0.6,0.4,0.9s0.2,0.4,0.3,0.5
	l0.2,0.6c0.1,0.2,0.1,0.4,0.2,0.6l0.1,0.4l2.4-2L295.3,295.2L295.3,295.2z M300,290.3L300,290.3l-4.7,4.8l-0.1,0.1l4.8,4.8l3-3v-9.8
	L300,290.3z M325.9,317.1v8.2h7.9v0L325.9,317.1z M295.3,295.2L295.3,295.2l4.6-4.8l0.1-0.1l-0.1-0.1l-0.6-0.6l-0.4-0.4l-2.8-2.9
	L290,280l-3.1,0.9l-4.6,1.4l-6.6,2v-8.7h-13.3v15.7h22.1l0.8,0.1l0.7,0.1h0l0.2,0l0.5,0.1l0.5,0.1l0.5,0.1l0.6,0.2l0.3,0.1l0.3,0.1
	l0.2,0.1h0l0.3,0.1c0.1,0,0.2,0.1,0.3,0.1c0.1,0,0.2,0.1,0.3,0.1h0l0,0c0.1,0,0.2,0.1,0.3,0.2h0c0.1,0,0.1,0,0.1,0.1l0.1,0.1
	l0.1,0.1l0.1,0.1h0.1l0.1,0.1h0.1c0.3,0.2,0.6,0.4,0.8,0.6c0.3,0.2,0.6,0.4,0.8,0.6c0.4,0.3,0.8,0.7,1.1,1c0.1,0.1,0.2,0.3,0.3,0.4
	c0.4,0.4,0.7,0.8,1,1.2l0.3,0.4c0.1,0.1,0.2,0.3,0.3,0.4c0.1,0.2,0.3,0.5,0.4,0.7l0.2,0.4c0.2,0.3,0.3,0.6,0.4,0.9s0.2,0.4,0.3,0.5
	l0.2,0.6c0.1,0.2,0.1,0.4,0.2,0.6l0.1,0.4l2.4-2L295.3,295.2L295.3,295.2z M300,290.3L300,290.3l-4.7,4.8l-0.1,0.1l4.8,4.8l3-3v-9.8
	L300,290.3z M325.9,317.1v8.2h7.9v0L325.9,317.1z M295.3,295.2L295.3,295.2l4.6-4.8l0.1-0.1l-0.1-0.1l-0.6-0.6l-0.4-0.4l-2.8-2.9
	L290,280l-3.1,0.9l-4.6,1.4l-6.6,2v-8.7h-13.3v15.7h22.1l0.8,0.1l0.7,0.1h0l0.2,0l0.5,0.1l0.5,0.1l0.5,0.1l0.6,0.2l0.3,0.1l0.3,0.1
	l0.2,0.1h0l0.3,0.1c0.1,0,0.2,0.1,0.3,0.1c0.1,0,0.2,0.1,0.3,0.1h0l0,0c0.1,0,0.2,0.1,0.3,0.2h0c0.1,0,0.1,0,0.1,0.1l0.1,0.1
	l0.1,0.1l0.1,0.1h0.1l0.1,0.1h0.1c0.3,0.2,0.6,0.4,0.8,0.6c0.3,0.2,0.6,0.4,0.8,0.6c0.4,0.3,0.8,0.7,1.1,1c0.1,0.1,0.2,0.3,0.3,0.4
	c0.4,0.4,0.7,0.8,1,1.2l0.3,0.4c0.1,0.1,0.2,0.3,0.3,0.4c0.1,0.2,0.3,0.5,0.4,0.7l0.2,0.4c0.2,0.3,0.3,0.6,0.4,0.9s0.2,0.4,0.3,0.5
	l0.2,0.6c0.1,0.2,0.1,0.4,0.2,0.6l0.1,0.4l2.4-2L295.3,295.2L295.3,295.2z M300,290.3L300,290.3l-4.7,4.8l-0.1,0.1l4.8,4.8l3-3v-9.8
	L300,290.3z M325.9,317.1v8.2h7.9v0L325.9,317.1z M295.3,295.2L295.3,295.2l4.6-4.8l0.1-0.1l-0.1-0.1l-0.6-0.6l-0.4-0.4l-2.8-2.9
	L290,280l-3.1,0.9l-4.6,1.4l-6.6,2v-8.7h-13.3v15.7h22.1l0.8,0.1l0.7,0.1h0l0.2,0l0.5,0.1l0.5,0.1l0.5,0.1l0.6,0.2l0.3,0.1l0.3,0.1
	l0.2,0.1h0l0.3,0.1c0.1,0,0.2,0.1,0.3,0.1c0.1,0,0.2,0.1,0.3,0.1h0l0,0c0.1,0,0.2,0.1,0.3,0.2h0c0.1,0,0.1,0,0.1,0.1l0.1,0.1
	l0.1,0.1l0.1,0.1h0.1l0.1,0.1h0.1c0.3,0.2,0.6,0.4,0.8,0.6c0.3,0.2,0.6,0.4,0.8,0.6c0.4,0.3,0.8,0.7,1.1,1c0.1,0.1,0.2,0.3,0.3,0.4
	c0.4,0.4,0.7,0.8,1,1.2l0.3,0.4c0.1,0.1,0.2,0.3,0.3,0.4c0.1,0.2,0.3,0.5,0.4,0.7l0.2,0.4c0.2,0.3,0.3,0.6,0.4,0.9s0.2,0.4,0.3,0.5
	l0.2,0.6c0.1,0.2,0.1,0.4,0.2,0.6l0.1,0.4l2.4-2L295.3,295.2L295.3,295.2z M300,290.3L300,290.3l-4.7,4.8l-0.1,0.1l4.8,4.8l3-3v-9.8
	L300,290.3z M325.9,317.1v8.2h7.9v0L325.9,317.1z M295.3,295.2L295.3,295.2l4.6-4.8l0.1-0.1l-0.1-0.1l-0.6-0.6l-0.4-0.4l-2.8-2.9
	L290,280l-3.1,0.9l-4.6,1.4l-6.6,2v-8.7h-13.3v15.7h22.1l0.8,0.1l0.7,0.1h0l0.2,0l0.5,0.1l0.5,0.1l0.5,0.1l0.6,0.2l0.3,0.1l0.3,0.1
	l0.2,0.1h0l0.3,0.1c0.1,0,0.2,0.1,0.3,0.1c0.1,0,0.2,0.1,0.3,0.1h0l0,0c0.1,0,0.2,0.1,0.3,0.2h0c0.1,0,0.1,0,0.1,0.1l0.1,0.1
	l0.1,0.1l0.1,0.1h0.1l0.1,0.1h0.1c0.3,0.2,0.6,0.4,0.8,0.6c0.3,0.2,0.6,0.4,0.8,0.6c0.4,0.3,0.8,0.7,1.1,1c0.1,0.1,0.2,0.3,0.3,0.4
	c0.4,0.4,0.7,0.8,1,1.2l0.3,0.4c0.1,0.1,0.2,0.3,0.3,0.4c0.1,0.2,0.3,0.5,0.4,0.7l0.2,0.4c0.2,0.3,0.3,0.6,0.4,0.9s0.2,0.4,0.3,0.5
	l0.2,0.6c0.1,0.2,0.1,0.4,0.2,0.6l0.1,0.4l2.4-2L295.3,295.2L295.3,295.2z M300,290.3L300,290.3l-4.7,4.8l-0.1,0.1l4.8,4.8l3-3v-9.8
	L300,290.3z M325.9,317.1v8.2h7.9v0L325.9,317.1z M295.3,295.2L295.3,295.2l4.6-4.8l0.1-0.1l-0.1-0.1l-0.6-0.6l-0.4-0.4l-2.8-2.9
	L290,280l-3.1,0.9l-4.6,1.4l-6.6,2v-8.7h-13.3v15.7h22.1l0.8,0.1l0.7,0.1h0l0.2,0l0.5,0.1l0.5,0.1l0.5,0.1l0.6,0.2l0.3,0.1l0.3,0.1
	l0.2,0.1h0l0.3,0.1c0.1,0,0.2,0.1,0.3,0.1c0.1,0,0.2,0.1,0.3,0.1h0l0,0c0.1,0,0.2,0.1,0.3,0.2h0c0.1,0,0.1,0,0.1,0.1l0.1,0.1
	l0.1,0.1l0.1,0.1h0.1l0.1,0.1h0.1c0.3,0.2,0.6,0.4,0.8,0.6c0.3,0.2,0.6,0.4,0.8,0.6c0.4,0.3,0.8,0.7,1.1,1c0.1,0.1,0.2,0.3,0.3,0.4
	c0.4,0.4,0.7,0.8,1,1.2l0.3,0.4c0.1,0.1,0.2,0.3,0.3,0.4c0.1,0.2,0.3,0.5,0.4,0.7l0.2,0.4c0.2,0.3,0.3,0.6,0.4,0.9s0.2,0.4,0.3,0.5
	l0.2,0.6c0.1,0.2,0.1,0.4,0.2,0.6l0.1,0.4l2.4-2L295.3,295.2L295.3,295.2z M300,290.3L300,290.3l-4.7,4.8l-0.1,0.1l4.8,4.8l3-3v-9.8
	L300,290.3z M325.9,317.1v8.2h7.9v0L325.9,317.1z M295.3,295.2L295.3,295.2l4.6-4.8l0.1-0.1l-0.1-0.1l-0.6-0.6l-0.4-0.4l-2.8-2.9
	L290,280l-3.1,0.9l-4.6,1.4l-6.6,2v-8.7h-13.3v15.7h22.1l0.8,0.1l0.7,0.1h0l0.2,0l0.5,0.1l0.5,0.1l0.5,0.1l0.6,0.2l0.3,0.1l0.3,0.1
	l0.2,0.1h0l0.3,0.1c0.1,0,0.2,0.1,0.3,0.1c0.1,0,0.2,0.1,0.3,0.1h0l0,0c0.1,0,0.2,0.1,0.3,0.2h0c0.1,0,0.1,0,0.1,0.1l0.1,0.1
	l0.1,0.1l0.1,0.1h0.1l0.1,0.1h0.1c0.3,0.2,0.6,0.4,0.8,0.6c0.3,0.2,0.6,0.4,0.8,0.6c0.4,0.3,0.8,0.7,1.1,1c0.1,0.1,0.2,0.3,0.3,0.4
	c0.4,0.4,0.7,0.8,1,1.2l0.3,0.4c0.1,0.1,0.2,0.3,0.3,0.4c0.1,0.2,0.3,0.5,0.4,0.7l0.2,0.4c0.2,0.3,0.3,0.6,0.4,0.9s0.2,0.4,0.3,0.5
	l0.2,0.6c0.1,0.2,0.1,0.4,0.2,0.6l0.1,0.4l2.4-2L295.3,295.2L295.3,295.2z M300,290.3L300,290.3l-4.7,4.8l-0.1,0.1l4.8,4.8l3-3v-9.8
	L300,290.3z M325.9,317.1v8.2h7.9v0L325.9,317.1z M295.3,295.2L295.3,295.2l4.6-4.8l0.1-0.1l-0.1-0.1l-0.6-0.6l-0.4-0.4l-2.8-2.9
	L290,280l-3.1,0.9l-4.6,1.4l-6.6,2v-8.7h-13.3v15.7h22.1l0.8,0.1l0.7,0.1h0l0.2,0l0.5,0.1l0.5,0.1l0.5,0.1l0.6,0.2l0.3,0.1l0.3,0.1
	l0.2,0.1h0l0.3,0.1c0.1,0,0.2,0.1,0.3,0.1c0.1,0,0.2,0.1,0.3,0.1h0l0,0c0.1,0,0.2,0.1,0.3,0.2h0c0.1,0,0.1,0,0.1,0.1l0.1,0.1
	l0.1,0.1l0.1,0.1h0.1l0.1,0.1h0.1c0.3,0.2,0.6,0.4,0.8,0.6c0.3,0.2,0.6,0.4,0.8,0.6c0.4,0.3,0.8,0.7,1.1,1c0.1,0.1,0.2,0.3,0.3,0.4
	c0.4,0.4,0.7,0.8,1,1.2l0.3,0.4c0.1,0.1,0.2,0.3,0.3,0.4c0.1,0.2,0.3,0.5,0.4,0.7l0.2,0.4c0.2,0.3,0.3,0.6,0.4,0.9s0.2,0.4,0.3,0.5
	l0.2,0.6c0.1,0.2,0.1,0.4,0.2,0.6l0.1,0.4l2.4-2L295.3,295.2L295.3,295.2z M300,290.3L300,290.3l-4.7,4.8l-0.1,0.1l4.8,4.8l3-3v-9.8
	L300,290.3z M325.9,317.1v8.2h7.9v0L325.9,317.1z M295.3,295.2L295.3,295.2l4.6-4.8l0.1-0.1l-0.1-0.1l-0.6-0.6l-0.4-0.4l-2.8-2.9
	L290,280l-3.1,0.9l-4.6,1.4l-6.6,2v-8.7h-13.3v15.7h22.1l0.8,0.1l0.7,0.1h0l0.2,0l0.5,0.1l0.5,0.1l0.5,0.1l0.6,0.2l0.3,0.1l0.3,0.1
	l0.2,0.1h0l0.3,0.1c0.1,0,0.2,0.1,0.3,0.1c0.1,0,0.2,0.1,0.3,0.1h0l0,0c0.1,0,0.2,0.1,0.3,0.2h0c0.1,0,0.1,0,0.1,0.1l0.1,0.1
	l0.1,0.1l0.1,0.1h0.1l0.1,0.1h0.1c0.3,0.2,0.6,0.4,0.8,0.6c0.3,0.2,0.6,0.4,0.8,0.6c0.4,0.3,0.8,0.7,1.1,1c0.1,0.1,0.2,0.3,0.3,0.4
	c0.4,0.4,0.7,0.8,1,1.2l0.3,0.4c0.1,0.1,0.2,0.3,0.3,0.4c0.1,0.2,0.3,0.5,0.4,0.7l0.2,0.4c0.2,0.3,0.3,0.6,0.4,0.9s0.2,0.4,0.3,0.5
	l0.2,0.6c0.1,0.2,0.1,0.4,0.2,0.6l0.1,0.4l2.4-2L295.3,295.2L295.3,295.2z M300,290.3L300,290.3l-4.7,4.8l-0.1,0.1l4.8,4.8l3-3v-9.8
	L300,290.3z M325.9,317.1v8.2h7.9v0L325.9,317.1z M295.3,295.2L295.3,295.2l4.6-4.8l0.1-0.1l-0.1-0.1l-0.6-0.6l-0.4-0.4l-2.8-2.9
	L290,280l-3.1,0.9l-4.6,1.4l-6.6,2v-8.7h-13.3v15.7h22.1l0.8,0.1l0.7,0.1h0l0.2,0l0.5,0.1l0.5,0.1l0.5,0.1l0.6,0.2l0.3,0.1l0.3,0.1
	l0.2,0.1h0l0.3,0.1c0.1,0,0.2,0.1,0.3,0.1c0.1,0,0.2,0.1,0.3,0.1h0l0,0c0.1,0,0.2,0.1,0.3,0.2h0c0.1,0,0.1,0,0.1,0.1l0.1,0.1
	l0.1,0.1l0.1,0.1h0.1l0.1,0.1h0.1c0.3,0.2,0.6,0.4,0.8,0.6c0.3,0.2,0.6,0.4,0.8,0.6c0.4,0.3,0.8,0.7,1.1,1c0.1,0.1,0.2,0.3,0.3,0.4
	c0.4,0.4,0.7,0.8,1,1.2l0.3,0.4c0.1,0.1,0.2,0.3,0.3,0.4c0.1,0.2,0.3,0.5,0.4,0.7l0.2,0.4c0.2,0.3,0.3,0.6,0.4,0.9s0.2,0.4,0.3,0.5
	l0.2,0.6c0.1,0.2,0.1,0.4,0.2,0.6l0.1,0.4l2.4-2L295.3,295.2L295.3,295.2z M300,290.3L300,290.3l-4.7,4.8l-0.1,0.1l4.8,4.8l3-3v-9.8
	L300,290.3z M325.9,317.1v8.2h7.9v0L325.9,317.1z M295.3,295.2L295.3,295.2l4.6-4.8l0.1-0.1l-0.1-0.1l-0.6-0.6l-0.4-0.4l-2.8-2.9
	L290,280l-3.1,0.9l-4.6,1.4l-6.6,2v-8.7h-13.3v15.7h22.1l0.8,0.1l0.7,0.1h0l0.2,0l0.5,0.1l0.5,0.1l0.5,0.1l0.6,0.2l0.3,0.1l0.3,0.1
	l0.2,0.1h0l0.3,0.1c0.1,0,0.2,0.1,0.3,0.1c0.1,0,0.2,0.1,0.3,0.1h0l0,0c0.1,0,0.2,0.1,0.3,0.2h0c0.1,0,0.1,0,0.1,0.1l0.1,0.1
	l0.1,0.1l0.1,0.1h0.1l0.1,0.1h0.1c0.3,0.2,0.6,0.4,0.8,0.6c0.3,0.2,0.6,0.4,0.8,0.6c0.4,0.3,0.8,0.7,1.1,1c0.1,0.1,0.2,0.3,0.3,0.4
	c0.4,0.4,0.7,0.8,1,1.2l0.3,0.4c0.1,0.1,0.2,0.3,0.3,0.4c0.1,0.2,0.3,0.5,0.4,0.7l0.2,0.4c0.2,0.3,0.3,0.6,0.4,0.9s0.2,0.4,0.3,0.5
	l0.2,0.6c0.1,0.2,0.1,0.4,0.2,0.6l0.1,0.4l2.4-2L295.3,295.2L295.3,295.2z M300,290.3L300,290.3l-4.7,4.8l-0.1,0.1l4.8,4.8l3-3v-9.8
	L300,290.3z M325.9,317.1v8.2h7.9v0L325.9,317.1z M295.3,295.2L295.3,295.2l4.6-4.8l0.1-0.1l-0.1-0.1l-0.6-0.6l-0.4-0.4l-2.8-2.9
	L290,280l-3.1,0.9l-4.6,1.4l-6.6,2v-8.7h-13.3v15.7h22.1l0.8,0.1l0.7,0.1h0l0.2,0l0.5,0.1l0.5,0.1l0.5,0.1l0.6,0.2l0.3,0.1l0.3,0.1
	l0.2,0.1h0l0.3,0.1c0.1,0,0.2,0.1,0.3,0.1c0.1,0,0.2,0.1,0.3,0.1h0l0,0c0.1,0,0.2,0.1,0.3,0.2h0c0.1,0,0.1,0,0.1,0.1l0.1,0.1
	l0.1,0.1l0.1,0.1h0.1l0.1,0.1h0.1c0.3,0.2,0.6,0.4,0.8,0.6c0.3,0.2,0.6,0.4,0.8,0.6c0.4,0.3,0.8,0.7,1.1,1c0.1,0.1,0.2,0.3,0.3,0.4
	c0.4,0.4,0.7,0.8,1,1.2l0.3,0.4c0.1,0.1,0.2,0.3,0.3,0.4c0.1,0.2,0.3,0.5,0.4,0.7l0.2,0.4c0.2,0.3,0.3,0.6,0.4,0.9s0.2,0.4,0.3,0.5
	l0.2,0.6c0.1,0.2,0.1,0.4,0.2,0.6l0.1,0.4l2.4-2L295.3,295.2L295.3,295.2z M300,290.3L300,290.3l-4.7,4.8l-0.1,0.1l4.8,4.8l3-3v-9.8
	L300,290.3z M325.9,317.1v8.2h7.9v0L325.9,317.1z M295.3,295.2L295.3,295.2l4.6-4.8l0.1-0.1l-0.1-0.1l-0.6-0.6l-0.4-0.4l-2.8-2.9
	L290,280l-3.1,0.9l-4.6,1.4l-6.6,2v-8.7h-13.3v15.7h22.1l0.8,0.1l0.7,0.1h0l0.2,0l0.5,0.1l0.5,0.1l0.5,0.1l0.6,0.2l0.3,0.1l0.3,0.1
	l0.2,0.1h0l0.3,0.1c0.1,0,0.2,0.1,0.3,0.1c0.1,0,0.2,0.1,0.3,0.1h0l0,0c0.1,0,0.2,0.1,0.3,0.2h0c0.1,0,0.1,0,0.1,0.1l0.1,0.1
	l0.1,0.1l0.1,0.1h0.1l0.1,0.1h0.1c0.3,0.2,0.6,0.4,0.8,0.6c0.3,0.2,0.6,0.4,0.8,0.6c0.4,0.3,0.8,0.7,1.1,1c0.1,0.1,0.2,0.3,0.3,0.4
	c0.4,0.4,0.7,0.8,1,1.2l0.3,0.4c0.1,0.1,0.2,0.3,0.3,0.4c0.1,0.2,0.3,0.5,0.4,0.7l0.2,0.4c0.2,0.3,0.3,0.6,0.4,0.9s0.2,0.4,0.3,0.5
	l0.2,0.6c0.1,0.2,0.1,0.4,0.2,0.6l0.1,0.4l2.4-2L295.3,295.2L295.3,295.2z M300,290.3L300,290.3l-4.7,4.8l-0.1,0.1l4.8,4.8l3-3v-9.8
	L300,290.3z M325.9,317.1v8.2h7.9v0L325.9,317.1z M295.3,295.2L295.3,295.2l4.6-4.8l0.1-0.1l-0.1-0.1l-0.6-0.6l-0.4-0.4l-2.8-2.9
	L290,280l-3.1,0.9l-4.6,1.4l-6.6,2v-8.7h-13.3v15.7h22.1l0.8,0.1l0.7,0.1h0l0.2,0l0.5,0.1l0.5,0.1l0.5,0.1l0.6,0.2l0.3,0.1l0.3,0.1
	l0.2,0.1h0l0.3,0.1c0.1,0,0.2,0.1,0.3,0.1c0.1,0,0.2,0.1,0.3,0.1h0l0,0c0.1,0,0.2,0.1,0.3,0.2h0c0.1,0,0.1,0,0.1,0.1l0.1,0.1
	l0.1,0.1l0.1,0.1h0.1l0.1,0.1h0.1c0.3,0.2,0.6,0.4,0.8,0.6c0.3,0.2,0.6,0.4,0.8,0.6c0.4,0.3,0.8,0.7,1.1,1c0.1,0.1,0.2,0.3,0.3,0.4
	c0.4,0.4,0.7,0.8,1,1.2l0.3,0.4c0.1,0.1,0.2,0.3,0.3,0.4c0.1,0.2,0.3,0.5,0.4,0.7l0.2,0.4c0.2,0.3,0.3,0.6,0.4,0.9s0.2,0.4,0.3,0.5
	l0.2,0.6c0.1,0.2,0.1,0.4,0.2,0.6l0.1,0.4l2.4-2L295.3,295.2L295.3,295.2z M300,290.3L300,290.3l-4.7,4.8l-0.1,0.1l4.8,4.8l3-3v-9.8
	L300,290.3z M300,290.3L300,290.3L300,290.3l-0.7-0.7l-0.4-0.4l-2.8-2.9L290,280l-3.1,0.9l-4.6,1.4l-6.6,2v-8.7h-13.3v15.7h22.1
	l0.8,0.1l0.7,0.1h0l0.2,0l0.5,0.1l0.5,0.1l0.5,0.1l0.6,0.2l0.3,0.1l0.3,0.1l0.2,0.1h0l0.3,0.1c0.1,0,0.2,0.1,0.3,0.1
	c0.1,0,0.2,0.1,0.3,0.1h0l0,0c0.1,0,0.2,0.1,0.3,0.2h0c0.1,0,0.1,0,0.1,0.1l0.1,0.1l0.1,0.1l0.1,0.1h0.1l0.1,0.1h0.1
	c0.3,0.2,0.6,0.4,0.8,0.6c0.3,0.2,0.6,0.4,0.8,0.6c0.4,0.3,0.8,0.7,1.1,1c0.1,0.1,0.2,0.3,0.3,0.4c0.4,0.4,0.7,0.8,1,1.2l0.3,0.4
	c0.1,0.1,0.2,0.3,0.3,0.4c0.1,0.2,0.3,0.5,0.4,0.7l0.2,0.4c0.2,0.3,0.3,0.6,0.4,0.9s0.2,0.4,0.3,0.5l0.2,0.6
	c0.1,0.2,0.1,0.4,0.2,0.6l0.1,0.4l2.4-2l3-3v-3.6L300,290.3z M300,290.3L300,290.3L300,290.3l-0.7-0.7l-0.4-0.4l-2.8-2.9L290,280
	l-3.1,0.9l-4.6,1.4l-6.6,2v-8.7h-13.3v15.7h22.1l0.8,0.1l0.7,0.1h0l0.2,0l0.5,0.1l0.5,0.1l0.5,0.1l0.6,0.2l0.3,0.1l0.3,0.1l0.2,0.1
	h0l0.3,0.1c0.1,0,0.2,0.1,0.3,0.1c0.1,0,0.2,0.1,0.3,0.1h0l0,0c0.1,0,0.2,0.1,0.3,0.2h0c0.1,0,0.1,0,0.1,0.1l0.1,0.1l0.1,0.1
	l0.1,0.1h0.1l0.1,0.1h0.1c0.3,0.2,0.6,0.4,0.8,0.6c0.3,0.2,0.6,0.4,0.8,0.6c0.4,0.3,0.8,0.7,1.1,1c0.1,0.1,0.2,0.3,0.3,0.4
	c0.4,0.4,0.7,0.8,1,1.2l0.3,0.4c0.1,0.1,0.2,0.3,0.3,0.4c0.1,0.2,0.3,0.5,0.4,0.7l0.2,0.4c0.2,0.3,0.3,0.6,0.4,0.9s0.2,0.4,0.3,0.5
	l0.2,0.6c0.1,0.2,0.1,0.4,0.2,0.6l0.1,0.4l2.4-2l3-3v-3.6L300,290.3z M300,290.3L300,290.3L300,290.3l-0.7-0.7l-0.4-0.4l-2.8-2.9
	L290,280l-3.1,0.9l-4.6,1.4l-6.6,2v-8.7h-13.3v15.7h22.1l0.8,0.1l0.7,0.1h0l0.2,0l0.5,0.1l0.5,0.1l0.5,0.1l0.6,0.2l0.3,0.1l0.3,0.1
	l0.2,0.1h0l0.3,0.1c0.1,0,0.2,0.1,0.3,0.1c0.1,0,0.2,0.1,0.3,0.1h0l0,0c0.1,0,0.2,0.1,0.3,0.2h0c0.1,0,0.1,0,0.1,0.1l0.1,0.1
	l0.1,0.1l0.1,0.1h0.1l0.1,0.1h0.1c0.3,0.2,0.6,0.4,0.8,0.6c0.3,0.2,0.6,0.4,0.8,0.6c0.4,0.3,0.8,0.7,1.1,1c0.1,0.1,0.2,0.3,0.3,0.4
	l0.9-1l0.2,0.2l-0.1,0.1l4.8,4.8l3-3v-3.6L300,290.3z M283.2,291.3h-9.8l-10.9-10.5v10.5h21.1C283.5,291.3,283.3,291.3,283.2,291.3z
	 M284.3,291.3L284.3,291.3l-0.2,0c-0.2,0-0.3,0-0.5,0l0.3,0h0l0.5,0L284.3,291.3z M286,291.5h-0.7l0.8,0.2h0L286,291.5z M285,291.4
	L285,291.4l-0.5,0l0.8,0.1L285,291.4z M289.3,292.5l-0.3-0.1l0.1,0l0.1,0L289.3,292.5c0.1,0,0.2,0.1,0.3,0.1
	C289.5,292.6,289.4,292.6,289.3,292.5z M288.5,292.2l-0.3-0.1l0.1,0.1L288.5,292.2l0.3,0.1l0.2,0.1l0,0l-0.2-0.1L288.5,292.2z
	 M289.9,292.8L289.9,292.8L289.9,292.8L289.9,292.8c0,0,0.1,0.1,0.2,0.1c0,0,0.1,0,0.1,0.1h0C290.1,292.9,290,292.9,289.9,292.8z
	 M289.3,292.6c0.1,0,0.2,0.1,0.2,0.1c0.1,0,0.2,0.1,0.3,0.1c-0.1,0-0.2-0.1-0.3-0.1C289.5,292.6,289.4,292.6,289.3,292.6z
	 M289.3,292.5l-0.3-0.1l0.1,0l0.1,0L289.3,292.5L289.3,292.5c0.1,0,0.2,0.1,0.3,0.1C289.5,292.6,289.4,292.6,289.3,292.5z
	 M286.5,291.6h-0.2l0.4,0.1L286.5,291.6z M286.8,291.7L286.8,291.7l0.3,0.1L286.8,291.7z M294.2,296.1l-0.3-0.3
	C294,295.9,294.1,296,294.2,296.1c0,0,0.1,0.1,0.1,0.1L294.2,296.1z M293.1,295c-0.1-0.1-0.2-0.1-0.3-0.2
	C292.9,294.8,293,294.9,293.1,295C293.1,295,293.1,295,293.1,295l0.1,0.2c0,0,0.1,0,0.1,0.1C293.2,295.1,293.2,295,293.1,295z
	 M293.3,295.2l0.2,0.2l0,0c0,0,0,0,0,0c0,0,0,0,0,0C293.5,295.3,293.4,295.3,293.3,295.2z M293.6,295.4
	C293.6,295.4,293.6,295.4,293.6,295.4C293.6,295.5,293.7,295.5,293.6,295.4c0.2,0.2,0.2,0.2,0.3,0.3
	C293.8,295.7,293.7,295.5,293.6,295.4z M291.5,293.8L291.5,293.8l-0.4-0.3c0.1,0,0.1,0.1,0.2,0.1S291.5,293.8,291.5,293.8
	L291.5,293.8C291.5,293.8,291.5,293.8,291.5,293.8c0.1,0.1,0.2,0.1,0.2,0.2C291.7,293.9,291.6,293.8,291.5,293.8z M275.6,275.6
	L275.6,275.6l0.1,0.1v-0.1H275.6z M275.6,275.6L275.6,275.6l0.1,0.1v-0.1H275.6z M325.8,274.8V292l0,0l15.1-14.5v-2.6H325.8z
	 M262.5,280.8v10.5h10.9v0L262.5,280.8z"/>
<path d="M361.7,282.1l3-0.9v-27.6h-47.2c-8.3,0-15.6,5.5-18,13.4v-13.4h-45.8c-2.5,0.1-5,0.7-7.3,1.8c-2.2,1-4.2,2.5-5.9,4.3
	c-0.3,0.3-0.6,0.6-0.8,0.9c-0.3,0.3-0.5,0.7-0.8,1c-2.3,3.3-3.6,7.2-3.6,11.2v20.7c0,1.7,0.2,3.3,0.6,4.9
	c2.2,8.5,9.9,14.5,18.7,14.5h1.8l-6.8,2l-8.4,2.5l-3,0.9v28h44.9c7.4,0,14.1-4.2,17.3-10.8c3.1,6.6,9.7,10.8,17,10.8h47.2v-28.1
	l-3-0.9l-19.4-5.9V288L361.7,282.1z M303.1,297.1L303.1,297.1L300,300l-2.4,2c0.1,0.3,0.1,0.5,0.2,0.7c0,0.2,0.1,0.4,0.1,0.6v0.3
	l0.1,0.4c0,0.2,0,0.3,0.1,0.5c0,0.2,0,0.3,0,0.5v0.1c0,0.2,0,0.3,0,0.5v0.5l0.2,21v2.2c0,0,0,0.1,0,0.1v0.5c0,0.1,0,0.3-0.1,0.4
	c0,0.1-0.2,0.7-0.3,1c0,0,0,0.1,0,0.1l-0.1,0.2c0,0.1,0,0.2-0.1,0.3c0,0,0,0,0,0l0,0c0,0-0.1,0.2-0.1,0.3l-0.1,0.3
	c0,0.1-0.1,0.2-0.1,0.3c0,0.1-0.1,0.2-0.1,0.3l-0.1,0.3c-0.1,0.1-0.1,0.2-0.2,0.3l-0.2,0.3c0,0.1-0.1,0.2-0.2,0.3
	c0,0.1-0.1,0.2-0.2,0.3c-0.1,0.1-0.2,0.3-0.3,0.5l-0.2,0.3l-0.1,0.1c-0.1,0.1-0.2,0.3-0.3,0.4c-0.1,0.2-0.3,0.3-0.4,0.5
	c-0.1,0.1-0.2,0.2-0.2,0.3l-0.3,0.3c-0.2,0.2-0.5,0.5-0.7,0.7l-0.3,0.2l-0.3,0.3l-0.1,0.1c-0.1,0.1-0.3,0.2-0.4,0.3l-0.1,0.1
	l-0.3,0.3c-0.1,0.1-0.2,0.2-0.4,0.3c-0.1,0.1-0.4,0.3-0.6,0.4c0,0-0.1,0.1-0.1,0.1l-0.1,0.1h-0.1L291,340l-0.1,0.1l-0.5,0.3
	l-0.3,0.2H290c-0.2,0.1-0.4,0.2-0.6,0.3l-0.3,0.1H289l-0.4,0.2c-0.1,0.1-0.3,0.1-0.4,0.2l-0.5,0.1l-0.4,0.1c-0.1,0-0.2,0.1-0.4,0.1
	l-0.4,0.1h-0.1l-0.7,0.1c-0.3,0-0.5,0.1-0.8,0.1s-0.5,0-0.8,0.1s-0.5,0-0.8,0h-41v-20.3l8.4-2.5l11.2-3.3v8.7h13.3v-15.7h-20.7
	c-2.3,0-4.6-0.5-6.7-1.6c-0.5-0.3-1.1-0.6-1.6-0.9c-0.3-0.2-0.7-0.5-1-0.7s-0.6-0.5-0.9-0.7l-0.1-0.1c-0.1-0.1-0.2-0.2-0.3-0.3
	c-0.1-0.1-0.3-0.3-0.4-0.4l-0.5-0.6c-0.1-0.2-0.3-0.3-0.4-0.5c-0.1-0.2-0.3-0.3-0.4-0.5c-0.1-0.2-0.2-0.3-0.3-0.5l-0.3-0.5v-0.1
	c-0.1-0.1-0.2-0.2-0.2-0.4l-0.3-0.5c-0.1-0.2-0.2-0.4-0.3-0.5c-0.1-0.2-0.2-0.4-0.2-0.6c-0.1-0.2-0.1-0.4-0.2-0.5
	c-0.1-0.2-0.1-0.4-0.2-0.6c-0.1-0.2-0.1-0.4-0.2-0.6c0-0.1-0.1-0.3-0.1-0.4c-0.1-0.5-0.2-0.9-0.3-1.4c-0.1-0.6-0.1-1.3-0.1-1.9v-21
	c0-0.1,0-0.1,0-0.2v-0.8c0,0,0-0.1,0-0.1c0,0,0-0.1,0-0.1v-0.1c0,0,0-0.1,0-0.1v-0.3c0-0.2,0.1-0.3,0.1-0.5v-0.1l0.1-0.5V270
	c0-0.1,0-0.3,0.1-0.4c0-0.1,0-0.1,0-0.2c0-0.2,0.1-0.3,0.1-0.4l0.1-0.2c0-0.1,0.1-0.3,0.1-0.4s0.1-0.3,0.1-0.4
	c0-0.1,0.1-0.3,0.1-0.4c0.2-0.6,0.5-1.2,0.8-1.7c0.1-0.1,0.2-0.3,0.2-0.4l0.2-0.3v-0.1l0.1-0.1l0.1-0.2l0.1-0.2
	c0-0.1,0.1-0.2,0.2-0.2c0-0.1,0.1-0.1,0.1-0.2c0.3-0.4,0.6-0.9,1-1.3l0.3-0.3l0.2-0.2l0.1-0.2c0.3-0.3,0.7-0.7,1.1-1
	c0.4-0.3,0.7-0.5,1-0.8c0.3-0.2,0.7-0.5,1.1-0.7c0.4-0.2,0.7-0.4,1.1-0.6c0.6-0.3,1.2-0.5,1.8-0.7c1.5-0.5,3-0.7,4.6-0.7h40.6v20.5
	L290,280l6.1,6.3l2.8,2.9l0.4,0.4l0.6,0.6l0.1,0.1l3-3.1L303.1,297.1L303.1,297.1L303.1,297.1z M325.9,292v25.1l7.9,8.1v0h-7.9v0
	H341v-9.6l19.4,5.9v20.7h-44.6c-0.2,0-0.3,0-0.5-0.1h-0.8l-0.5-0.1h-0.3l-0.3-0.1h-0.3c-0.1,0-0.2-0.1-0.3-0.1h-0.1l-0.1,0
	c-0.2-0.1-0.4-0.2-0.7-0.3c-0.2-0.1-0.4-0.1-0.6-0.3h-0.1c-0.1-0.1-0.3-0.1-0.4-0.2l-0.2-0.1c0,0-0.1,0-0.1,0h-0.1l-0.1-0.1
	l-0.3-0.2l-0.1-0.1l-0.3-0.2c-0.1-0.1-0.3-0.2-0.4-0.3l-0.1-0.1c-0.1,0-0.1-0.1-0.2-0.2l-0.1,0h-0.1l-0.1-0.1h-0.1l-0.5-0.4
	l-0.1-0.1l-0.2-0.1l-0.3-0.3l-0.2-0.2l-0.2-0.3c-0.2-0.2-0.3-0.3-0.4-0.5l-0.5-0.6c-0.1-0.2-0.3-0.4-0.4-0.6l-0.1-0.1
	c0,0,0-0.1-0.1-0.1c0,0-0.1-0.1-0.1-0.1l-0.1-0.1l-0.1-0.1c-0.1-0.2-0.2-0.3-0.3-0.5l-0.1-0.1l-0.1-0.2l-0.1-0.2l-0.1-0.1
	c0-0.1-0.1-0.2-0.1-0.3c0-0.1-0.1-0.2-0.2-0.3c0-0.1-0.1-0.2-0.1-0.3l-0.1-0.4c-0.1-0.2-0.2-0.5-0.2-0.7c-0.1-0.2-0.1-0.5-0.2-0.7
	c-0.1-0.2-0.1-0.5-0.2-0.7c0-0.2-0.1-0.5-0.1-0.7c0-0.2,0-0.4-0.1-0.5v-0.5c0,0,0,0,0,0v-57.2c0-0.5,0-1,0.1-1.4V271
	c0-0.5,0.1-1,0.2-1.5c0-0.2,0.1-0.5,0.1-0.7c0-0.2,0.1-0.5,0.2-0.7c0.1-0.2,0.1-0.4,0.2-0.6s0.1-0.2,0.1-0.3c0-0.1,0-0.1,0.1-0.2
	c0-0.1,0-0.1,0.1-0.2c0,0,0,0,0-0.1c0.2-0.4,0.4-0.9,0.6-1.3l0.1-0.1l0.1-0.2l0.1-0.2c0.1-0.2,0.2-0.4,0.4-0.6l0.1-0.2l0.2-0.3
	c0.3-0.5,0.7-0.9,1.1-1.3c0.1-0.2,0.3-0.3,0.4-0.4l0.2-0.2c0.1-0.1,0.2-0.2,0.3-0.3c0.4-0.4,0.9-0.7,1.3-1l0.2-0.2l0.3-0.2l0.5-0.3
	c0.4-0.3,0.9-0.6,1.3-0.8c0.4-0.2,0.9-0.3,1.3-0.5c1.4-0.4,2.8-0.6,4.2-0.6h42.9V278l-19.4,5.9v-6.4L325.9,292z"/>
<path d="M241.6,265.5c0.1-0.1,0.1-0.3,0.2-0.4c0,0,0,0,0,0.1C241.7,265.2,241.7,265.4,241.6,265.5z"/>
<path d="M242,264.9l-0.1,0.2l-0.1,0.1L242,264.9z"/>
<path d="M283.1,291.3c0.1,0,0.3,0,0.5,0H283.1z"/>
<path d="M284.5,291.3L284.5,291.3h-0.9c0.1,0,0.3,0,0.5,0l0,0H284.5h0.3h0.1l0.4,0.1L284.5,291.3z"/>
<path d="M286.2,291.6l-0.9-0.2h0.3h0.3h0.1L286.2,291.6z"/>
<path d="M286.7,291.7l-0.5-0.1h0.2L286.7,291.7z"/>
<path d="M287.2,291.8l-0.5-0.1h0.1L287.2,291.8z"/>
<path d="M288.2,292.1l-0.6-0.2l0.4,0.1L288.2,292.1z"/>
<path d="M288.8,292.4l-0.6-0.2l0.3,0.1L288.8,292.4z"/>
<path d="M289.2,292.6L289.2,292.6l-0.5-0.2l0.2,0.1L289.2,292.6z"/>
<path d="M290.4,293.1c-0.2-0.1-0.3-0.2-0.5-0.3c-0.2-0.1-0.4-0.2-0.5-0.3c0.2,0.1,0.4,0.2,0.5,0.3l0.4,0.2L290.4,293.1z"/>
<path d="M292,294.1c-0.3-0.2-0.5-0.4-0.8-0.6l0.4,0.2C291.7,293.9,291.9,294,292,294.1z"/>
<path d="M293.6,295.5c0.1,0.1,0.2,0.2,0.3,0.3c-0.4-0.4-0.7-0.7-1.1-1c0.1,0.1,0.2,0.1,0.3,0.2l0.5,0.4
	C293.5,295.5,293.6,295.5,293.6,295.5z"/>
<path d="M295.3,297.4L295.3,297.4c-0.3-0.4-0.6-0.8-1-1.2l0,0c-0.1-0.1-0.2-0.3-0.4-0.4l0.3,0.3l0.1,0.1l0,0
	C294.6,296.6,295,297,295.3,297.4z"/>
<path d="M295.3,257.9h-40.6c-1.5,0-3.1,0.2-4.6,0.7c1.5-0.5,3-0.7,4.6-0.7L295.3,257.9z"/>
<path d="M341,315.6L341,315.6l19.4,5.9l0,0L341,315.6z M325.9,325.2L325.9,325.2z M308.4,338.9l0.1,0.1h0.1L308.4,338.9z
	 M307.3,337.9l0.3,0.3l0.1,0.1C307.5,338.2,307.4,338,307.3,337.9L307.3,337.9z"/>
<path d="M303.3,269.5c-0.1,0.5-0.2,1-0.2,1.5C303.2,270.5,303.2,270,303.3,269.5z"/>
<path d="M312,259c-0.6,0.2-1.1,0.5-1.6,0.8C310.9,259.5,311.4,259.2,312,259z"/>
<path d="M360.4,257.9L360.4,257.9h-42.9c-1.9,0-3.8,0.4-5.5,1.1c1.7-0.7,3.6-1.1,5.5-1.1L360.4,257.9z"/>
</svg>
