<?xml version="1.0" encoding="utf-8"?>
<!-- Generator: Adobe Illustrator 22.0.1, SVG Export Plug-In . SVG Version: 6.00 Build 0)  -->
<svg version="1.1" id="Layer_1" xmlns="http://www.w3.org/2000/svg" xmlns:xlink="http://www.w3.org/1999/xlink" x="0px" y="0px"
	 viewBox="0 0 805 789.6" style="enable-background:new 0 0 805 789.6;" xml:space="preserve">
<style type="text/css">
	.st0{fill:#2474AE;}
	.st1{fill:#4156A6;}
	.st2{fill:#FFFFFF;}
	.st3{fill:#13263D;}
	.st4{fill:#FCFDFD;}
	.st5{fill:#FEC324;}
	.st6{fill:#FE8024;}
	.st7{fill:#132249;}
	.st8{fill:#C60000;}
	.st9{fill:#8187BC;}
	.st10{fill:#8186BB;}
	.st11{fill:#F5F5F5;}
	.st12{fill:#F8E391;}
	.st13{fill:#4BBCFB;}
	.st14{fill:#FB7DDE;}
	.st15{fill:#F8E392;}
	.st16{fill:#D7D793;}
	.st17{fill:#F4F5F4;}
	.st18{fill:#D971E1;}
	.st19{fill:#FBCA90;}
	.st20{fill:#EDD7B1;}
	.st21{fill:#8D8873;}
	.st22{fill:#F59ABC;}
	.st23{fill:#042742;}
	.st24{fill:#0C74C1;}
	.st25{clip-path:url(#SVGID_2_);fill:#FFFFFF;}
	.st26{fill:#C30000;}
</style>
<rect x="0" width="805" height="789.6"/>
<g>
	<polygon class="st2" points="323.1,461.7 323.1,461.7 316.6,468.5 316,469.1 314.9,468.5 313.9,468 313.7,467.8 308.7,464.5 
		308.7,464.5 311.5,461.7 311.5,461.7 	"/>
	<polygon class="st2" points="345.3,438.7 328,456.6 316.6,456.6 316.6,456.3 337.4,434.7 337.4,438.7 	"/>
	<polygon class="st2" points="363.5,408.7 363.5,419.9 363.5,419.9 350.2,433.6 350.2,433.6 342.5,433.6 342.5,429.3 342.5,429.3 
		357.5,413.6 362.3,408.7 362.3,408.7 	"/>
	<path class="st2" d="M389.9,392.5l-1.1,1.1l-7.3,7.6l0,0l-13,13.3v-11.1H367l8.1-8.4l0,0l4.3-4.4h8.7
		C388.8,391.2,389.4,391.9,389.9,392.5z"/>
	<polygon class="st2" points="360.7,461.7 360.7,461.7 353.6,468.5 332.9,488.1 323.4,474.2 329,468.5 335.8,461.7 335.8,461.7 	"/>
	<path class="st2" d="M394.8,405v24l-28.7,27.6H341l17.9-17.9h9.8v-9.8l20.5-20.5l5.7-5.7C394.6,403.6,394.8,404.2,394.8,405z"/>
	<path class="st2" d="M407.3,390.1v26.8l-4.8,4.6l-2.7,2.7V405c0-0.3,0-0.6,0-0.8c0-0.3,0-0.5,0-0.8v-0.2c0-0.3,0-0.5,0-0.8
		c0-0.3,0-0.5,0-0.8l0,0l-0.2-0.6v-0.2c0-0.2,0-0.2,0-0.3c0-0.3-0.2-0.6-0.2-1c0-0.5-0.2-0.8-0.3-1.1l0,0l3.3-3.6L407.3,390.1z"/>
	<polygon class="st2" points="434.6,390.8 430,395.2 429.8,395.2 423.7,401.2 423.7,401.2 416,408.5 412.4,412 412.4,390.8 	"/>
	<polygon class="st2" points="467.6,354.9 467.6,359 467.6,359 443.6,382.2 443.6,354.9 	"/>
	<path class="st2" d="M407.3,361.7v12.7l-4.8,4.9l-0.2,0.2l-7.5,7.6l-1.4,1.6l0,0c-0.2-0.2-0.3-0.5-0.6-0.6
		c-0.6-0.6-1.1-1.1-1.7-1.6c-0.5-0.3-0.8-0.6-1.3-1c-0.5-0.3-0.8-0.6-1.3-1l0,0l0,0l0,0h-0.2l-0.2-0.2h-0.2l0,0l-0.2-0.2l-0.2-0.2
		l-0.2-0.2c-0.3-0.2-0.5-0.3-0.8-0.5l0,0l2.4-2.4l0,0l7.6-7.9l0,0l6.2-6.3L407.3,361.7z"/>
	<path class="st2" d="M526.1,288.8c0.8,1,0.8,2.1-0.6,3.3l-10.8,9.2c-1.4,1.3-2.5,1.1-3.3,0c-0.8-1.1-0.8-2.1,0.6-3.3l10.8-9.2
		C524.2,287.7,525.3,287.8,526.1,288.8z"/>
	<path class="st2" d="M513.8,251l-3.3,3.5l-2.9,2.9l-4.6,4.8l0,0c1.4,2.1,1.1,4.4-0.8,7.1l-1.6,2.1l-3.2-2.2l1.6-2.2
		c0.3-0.5,0.5-1,0.6-1.4l0,0l-12.7,13.2c0.2,0.2,0.3,0.3,0.5,0.3c1.1,0.8,2.1,0.6,3.2-0.8l2.2-3l3.2,2.2l-2.1,2.9
		c-2.5,3.3-5.6,4.1-8.9,1.7c-0.3-0.2-0.5-0.5-0.8-0.6l-4,4.1l-2.7,3l-31.4,32.7l-6.5,6.8h12.5l6.5-6.8l0,0l26.2-27.1l0,0l2.2-2.2
		l0.2-0.2l0.5-0.5l27-27.9l5.7-6l31.7-12.7l-27.4,27.9l-4.6,4.6l0,0l-17.6,19.4l-0.8-0.8l-4.3,4.3l-2.9,2.9L476,321.3l-6.8,6.8h29.2
		v1.4l6.8-6.5l3.6-3.5l3-2.9l5.2-4.9l0,0c0.3-1.9,1.4-3.6,3.2-4.6l5.4-3.6l0,0l14.3-13.8l0,0l3-2.9l3-2.9l21.1-53.5L513.8,251z
		 M528,295.4l-10.3,8.9c-3.2,2.7-6.3,2.5-9-0.5c-2.7-3-2.2-6.3,1-9l10.3-8.9c3.2-2.7,6.5-2.5,9,0.5
		C531.5,289.4,531.2,292.6,528,295.4L528,295.4z"/>
	<path class="st2" d="M319.5,514.8L319.5,514.8c-1.3-0.6-2.4-1.3-3.5-2.2l0,0c1.1-1.6,2.1-1.6,3.2-1
		C320.2,512.3,320.2,513.4,319.5,514.8z"/>
	<path class="st2" d="M342.6,510.5L342.6,510.5L342.6,510.5l-0.2,0.2c0,0-0.2,0-0.2,0.2l-0.2,0.2l-0.2,0.2l-0.2,0.2l-0.2,0.2l0,0
		l0,0c0,0,0,0-0.2,0.2l-0.5,0.3l-0.8,0.5h-0.2l-0.8,0.5h-0.2l0,0l0,0l-0.8,0.5c-1,0.5-1.9,1-2.9,1.4l-1.3,0.5l0,0
		c-0.5,0.2-1,0.3-1.4,0.5l-0.6,0.2l-5.7-3.6l-1.9,3.2l1.4,0.8h-0.3h-0.5l-0.6-0.2l-0.6-0.2l-0.6-0.2c1.6-2.5,0.8-5.9-1.7-7.5
		c0,0-0.2,0-0.2-0.2c-3-2.2-6-1.6-8.4,1.3l-27-27c-3.6-3.5-5.6-8.4-5.2-13.5v-0.6v-0.2v-0.5c0-0.3,0-0.6,0.2-1.1c0-0.2,0-0.3,0-0.5
		s0-0.5,0.2-0.6c0.2-0.2,0.2-0.6,0.2-1c0-0.3,0.2-0.5,0.2-0.6c0.2-0.5,0.3-1.1,0.5-1.6c0-0.2,0.2-0.5,0.2-0.8c0.3-0.8,0.6-1.6,1-2.4
		c0-0.2,0.2-0.3,0.2-0.5c0.3-0.6,0.5-1.1,0.8-1.6l0.3-0.5l0.3-0.5c0,0,0-0.2,0.2-0.2c0.2-0.5,0.5-0.8,0.6-1.3l0.5-0.8l1.4,1
		l15.2,9.8l2.2,1.4l2.9,1.7l3.8,2.5l0.5,0.2l6.2,4l2.4,1.6l0,0l22.2,33.6V510.5z"/>
	<path class="st2" d="M285.4,488.5l-14.9,17.8l-2.5,3.2l-12.5,14.8l1.9,1.9L272,541l0,0l1.3,1.3l14.8-12.7l3-2.7l17.6-15.1
		L285.4,488.5z M285.4,495.3l12.2,12.2l-19.4-3.8L285.4,495.3z M273.3,536.5l-10-10l17.4,3.6L273.3,536.5z M285.4,526.1l-2.1-0.5
		l-20-4.4l3.6-4.1l9.7,2.1l7.3,1.6l6.3,1.4l-2.5,2.2L285.4,526.1z M276.8,513.5l-5.9-1.3l2.2-2.5l1.3-1.4l25.9,5.1l-5.2,4.4
		L276.8,513.5z"/>
	<path class="st2" d="M270.1,548.6c0,2.5-1,4.9-2.7,6.7l-0.3,0.3l-0.8,0.6c-1,0.6-1.9,1.1-2.9,1.4l-1,0.2c-0.5,0.2-1,0.2-1.4,0.2h-1
		c-0.5,0-1,0-1.4-0.2l-1-0.2c-1.1-0.3-2.1-0.8-2.9-1.4c-0.2-0.2-0.3-0.3-0.6-0.5l-0.5-0.5l-11.9-11.9l-0.5-0.5l-0.5-0.6
		c-0.6-1-1.1-1.9-1.4-2.9c-0.2-0.3-0.2-0.6-0.2-1c-0.2-0.5-0.2-1-0.2-1.4c0-0.3,0-0.6,0-1c0-0.5,0-1,0.2-1.4c0-0.3,0.2-0.6,0.2-1
		l1.4-2.9c0.2-0.3,0.5-0.5,0.6-0.8l0.3-0.3l0.3-0.3l0.8-0.6c0.5-0.3,0.8-0.6,1.3-0.8l0.6-0.3c0.6-0.2,1.1-0.3,1.7-0.5l1-0.2
		c0.6,0,1.3,0,1.7,0c0.3,0,0.6,0,1,0.2c0.6,0.2,1.3,0.3,1.7,0.5l0.8,0.3c0.5,0.2,0.8,0.5,1.3,0.8l0,0c0.3,0.2,0.5,0.3,0.6,0.6
		l0.3,0.3l11.9,11.9c0.5,0.5,1,1,1.3,1.6l0,0l0,0C269.6,544.9,270.1,546.7,270.1,548.6z"/>
	<path class="st2" d="M365.5,328.1L365.5,328.1l-6.5-6.8l-31.6-32.7l-2.9-3l-4.3-4.4l-1.3,1c-1-0.6-1.7-1.4-2.2-2.4l-2.5-3.2
		c-1.4-1.9-2.7-2.2-4.1-1l-1.1,1l6.5,8.4l-2.5,1.9l0,0l4.3,4.4l0,0l2.9,2.9l26.2,27.1l6.5,6.8L365.5,328.1L365.5,328.1z
		 M335.8,328.1l-6.7-6.7l-18.6-18.7l-2.9-2.9l-7.6-7.6l-0.3,0.3l2.9,4l-2.7,2.5l-15.2-21.7l0.3-0.3l-4.6-4.6l-2.9-2.9l0,0
		l-24.9-24.9l31.9,12.7l3,3.2l0,0l2.9,2.9l17.3,17.9l-11.1-14.6l4.9-3.8c0.3-0.2,0.5-0.5,0.8-0.6l-4.6-4.8l-3-3l-3.3-3.5l-53.1-20.5
		l0,0l21.1,53.5l3,2.9l2.9,2.9l28.2,27l3,2.9l11.9,11.4l4.9,4.8l0.3-0.3l0.2-0.2c0.5-0.5,1.1-1.1,1.7-1.6s1.1-0.8,1.6-1.3
		c0.5-0.5,1.1-0.8,1.7-1.1c0.6-0.3,1.1-0.6,1.7-1c1-0.5,1.9-0.8,2.9-1.1c2.4-0.8,4.8-1.1,7.3-1.1H335.8L335.8,328.1z M285.7,306.5
		l-15.4-12.7l2.5-3.2l15.5,12.8c1.4,1.3,2.5,1,3.3,0c0.8-1,0.8-2.1-0.6-3.3l-15.5-12.8l2.5-3l15.4,12.7c3.2,2.7,3.8,5.9,1.3,8.9
		S288.8,309.2,285.7,306.5L285.7,306.5z M308.3,268.8l-0.3-0.3l0,0l-2.9-3c-0.6-0.2-1.3,0-1.7,0.5l-1.6,1.3l4.9,6.3l1.3-1
		C309.3,271.6,309.6,270.5,308.3,268.8L308.3,268.8z"/>
	<path class="st2" d="M394.8,405v8.9l-5.7-5.6l-7.5-7.1l0,0l-6.3-6l0,0l-4.6-4.4h17.6c0.6,0.5,1.3,1.1,1.7,1.7
		c0.3,0.5,0.8,0.8,1.1,1.3c2.1,2.5,3.3,5.7,3.6,9C394.6,403.6,394.8,404.2,394.8,405z"/>
	<path class="st2" d="M407.3,399.6V426l-4.8-4.6l-2.7-2.7v-13.8c0-0.3,0-0.6,0-0.8c0-0.3,0-0.5,0-0.8v-0.2c0-0.3,0-0.5,0-0.8
		c0-0.3,0-0.5,0-0.8l0,0l-0.2-0.6v-0.2c0-0.2,0-0.2,0-0.3c0-0.3-0.2-0.6-0.2-1c0-0.5-0.2-0.8-0.3-1.1l0,0l-0.2-0.6
		c-0.2-0.3-0.2-0.6-0.3-1l-0.3-1c-0.2-0.3-0.3-0.6-0.5-0.8s-0.5-1-0.6-1.4L397,393c-0.2-0.3-0.5-0.8-0.6-1.1
		c-0.2-0.3-0.3-0.5-0.5-0.8l-0.5-0.6l0,0c-0.5-0.6-1-1.3-1.6-1.9l0,0c-0.2-0.2-0.3-0.5-0.6-0.6c-0.6-0.6-1.1-1.1-1.7-1.6
		c-0.5-0.3-0.8-0.6-1.3-1c-0.5-0.3-0.8-0.6-1.3-1l0,0l0,0l0,0h-0.2l-0.2-0.2h-0.3l0,0l-0.2-0.2l-0.2-0.2l-0.2-0.2
		c-0.3-0.2-0.5-0.3-0.8-0.5c-0.3-0.2-0.6-0.3-0.8-0.5l-0.8-0.3l-1-0.3l-1-0.3l-0.8-0.2l-0.8-0.2l-0.8-0.2l-1.4-0.3l-1.3-0.2h-0.2
		h-1.4h-16.5l-17.3-16.7V356h20.8l0,0l0.2,0.2l0,0v13.5l10.3-3.2l0,0l14.3,14.3l0,0l6.2,6.2l7.6,7.3L407.3,399.6z"/>
	<polygon class="st2" points="464.3,456.6 439.2,456.6 412.4,431 412.4,404.9 416,408.5 438.4,430.9 438.4,439.9 447.6,439.9 	"/>
	<polygon class="st2" points="481.7,474.2 472,488.1 451.6,468.5 444.4,461.7 444.4,461.7 469.3,461.7 469.3,461.7 476,468.5 	"/>
	<polygon class="st2" points="407.3,371.9 407.3,384.6 407.3,384.4 402.6,379.5 402.4,379.5 401.5,378.4 400.8,377.7 396.4,373.1 
		386.7,363.2 386.7,363.2 395.1,360.6 395.1,359 402.6,366.8 	"/>
	<polygon class="st2" points="438.4,404.2 438.4,416.6 423.7,401.2 418.1,395.7 416.8,394.2 413.5,390.8 425.6,390.8 429.8,395.2 	
		"/>
	<polygon class="st2" points="467.6,434.5 467.6,434.8 467.6,434.8 467.6,434.8 456,434.8 456,434.8 456,434.8 443.6,422 
		443.6,409.5 	"/>
	<polygon class="st2" points="488.9,456.6 477.1,456.6 460.9,439.9 472.7,439.9 472.7,439.8 	"/>
	<polygon class="st2" points="496.5,464.5 490.8,468.3 490.3,468.5 489.2,469.1 488.5,468.5 482,461.7 482,461.7 493.8,461.7 
		493.8,461.7 	"/>
	<path class="st2" d="M524.4,469.4c0.3,5.1-1.6,10-5.2,13.5l-27.6,27.6c-0.3,0.3-0.6,0.6-1,0.8c-0.3,0.2-1,0.8-1.4,1.1
		s-0.6,0.5-1,0.6l-0.5,0.3l-3.5-4.9l-3.3,2.4l3.2,4.4l0,0h-0.2l-0.6,0.2l-1,0.3l-1.1,0.3l-2.5-4l-3.5,2.2l1.4,2.2H476h-0.6h0.2h-0.5
		c-0.2,0-0.5,0-0.6-0.2l-0.6-0.2l-0.5-0.2l-0.6-0.2l-0.6-0.2l-0.5-0.2l-0.6-0.2l-0.6-0.3c-0.3-0.2-0.6-0.2-0.8-0.3
		c-1.1-0.5-2.2-1.1-3.3-1.7l-0.5-0.3l-0.2-0.2l-0.2-0.2l-0.6-0.3h-0.2l-0.5-0.3l0,0H464l-0.2-0.2l0,0l0,0l0,0l-0.2-0.2l-0.3-0.2
		c-0.2-0.2-0.5-0.3-0.6-0.6l0,0l22.2-33.6l0,0l1.4-1l0.5-0.3l6.2-4l0.3-0.2l4.4-2.9l5.1-3.3l2.4-1.6l12.7-8.2l1.4-1
		c0.2,0.3,0.3,0.6,0.5,0.8c0.3,0.6,0.6,1.1,1,1.7c0.2,0.3,0.3,0.5,0.5,0.8l0.5,0.8l0.3,0.6c0.5,1,0.8,1.9,1.1,2.9
		c0,0.2,0.2,0.5,0.2,0.6s0.2,0.5,0.2,0.6s0.2,0.3,0.2,0.5c0,0.2,0.2,0.6,0.3,1c0.2,0.3,0,0.3,0,0.5c0,0.2,0.2,0.5,0.2,0.6
		s0.2,0.5,0.2,0.8c0,0.3,0,0.3,0,0.5s0,0.6,0.2,1c0.2,0.3,0,0.5,0,0.6c0,0,0,0,0,0.2C524.4,469.1,524.4,469.3,524.4,469.4z"/>
	<path class="st2" d="M537.4,509.4l-2.7-3.2l-15.1-17.8l-23.3,23.3l17.6,15.1l3.2,2.7l14.8,12.7l1.3-1.3l14.8-14.9l1.9-2.1
		L537.4,509.4z M519.6,495.3l7.1,8.4l-19.2,3.8L519.6,495.3z M510.1,517.8l-5.2-4.4l25.9-5.1l1.3,1.4l2.2,2.5l-5.7,1.4L510.1,517.8z
		 M531.8,536.5l-7.5-6.3l17.4-3.6L531.8,536.5z M521.7,525.6l-2.1,0.5l-2.2-1.9l-2.5-2.2l6.3-1.4l7.3-1.6l9.7-2.1l3.6,4.1
		L521.7,525.6z"/>
	<path class="st2" d="M565.8,536.7c0,0.3,0,0.6,0,1c-0.2,1-0.3,1.7-0.6,2.7c-0.2,0.3-0.2,0.5-0.3,0.6c-0.2,0.5-0.5,1-0.8,1.3
		c-0.2,0.3-0.3,0.5-0.6,0.8c-0.2,0.2-0.2,0.2-0.3,0.3l-11.9,11.9l-0.3,0.3c-0.2,0.2-0.5,0.5-0.8,0.6c-1,0.6-1.9,1.1-2.9,1.4l-1,0.2
		c-0.5,0.2-1,0.2-1.4,0.2h-1c-0.5,0-1,0-1.4-0.2l-1-0.2c-1.1-0.3-2.1-0.8-2.9-1.4c-0.2-0.2-0.3-0.3-0.6-0.5
		c-0.2-0.2-0.3-0.3-0.5-0.5l-0.5-0.5c-0.2-0.2-0.3-0.3-0.5-0.6l-1.4-3c-0.2-0.3-0.2-0.5-0.2-0.8c-0.2-0.5-0.2-1-0.2-1.4
		c0-0.2,0-0.3,0-0.5s0-0.3,0-0.5c0-0.5,0-1,0.2-1.4c0-0.3,0.2-0.6,0.2-1c0.2-0.8,0.5-1.4,1-2.1v-0.2v-0.2l0,0
		c0.2-0.2,0.3-0.5,0.5-0.6c0.2-0.3,0.3-0.5,0.6-0.8l0.3-0.3l11.9-11.9l0.5-0.3c0.2-0.2,0.5-0.3,0.6-0.6l0,0c0.5-0.3,1-0.6,1.4-0.8
		l0.6-0.3c0.6-0.2,1.1-0.3,1.7-0.5c0.3,0,0.6-0.2,1-0.2c0.6,0,1.3,0,1.7,0c0.3,0,0.6,0.2,1,0.2c0.6,0.2,1.1,0.3,1.7,0.5
		c0.3,0.2,0.6,0.3,0.8,0.3c0.5,0.2,0.8,0.5,1.3,0.8c0.3,0.2,0.5,0.5,0.8,0.6l0.3,0.3l0.3,0.3c0.2,0.2,0.5,0.5,0.6,0.8
		c0.3,0.3,0.5,0.8,0.8,1.3c0.2,0.3,0.3,0.6,0.3,0.8c0.3,0.8,0.6,1.7,0.6,2.7C565.8,536,565.8,536.4,565.8,536.7z"/>
	<path class="st2" d="M434.6,551.9l-2.7-14c-0.3-1.9-1.3-2.4-2.5-2.2c-1.3,0.2-1.9,1.1-1.6,3l2.7,14c0.3,1.7,1.3,2.4,2.5,2.1
		C434.3,554.4,434.9,553.8,434.6,551.9z M434.6,551.9l-2.7-14c-0.3-1.9-1.3-2.4-2.5-2.2c-1.3,0.2-1.9,1.1-1.6,3l2.7,14
		c0.3,1.7,1.3,2.4,2.5,2.1C434.3,554.4,434.9,553.8,434.6,551.9z M434.6,551.9l-2.7-14c-0.3-1.9-1.3-2.4-2.5-2.2
		c-1.3,0.2-1.9,1.1-1.6,3l2.7,14c0.3,1.7,1.3,2.4,2.5,2.1C434.3,554.4,434.9,553.8,434.6,551.9z M434.6,551.9l-2.7-14
		c-0.3-1.9-1.3-2.4-2.5-2.2c-1.3,0.2-1.9,1.1-1.6,3l2.7,14c0.3,1.7,1.3,2.4,2.5,2.1C434.3,554.4,434.9,553.8,434.6,551.9z
		 M434.6,551.9l-2.7-14c-0.3-1.9-1.3-2.4-2.5-2.2c-1.3,0.2-1.9,1.1-1.6,3l2.7,14c0.3,1.7,1.3,2.4,2.5,2.1
		C434.3,554.4,434.9,553.8,434.6,551.9z M434.6,551.9l-2.7-14c-0.3-1.9-1.3-2.4-2.5-2.2c-1.3,0.2-1.9,1.1-1.6,3l2.7,14
		c0.3,1.7,1.3,2.4,2.5,2.1C434.3,554.4,434.9,553.8,434.6,551.9z M355.3,530.8l-2.2-0.8l-6.2,17.6l2.2,0.8c1.3,0.5,2.2,0,2.9-1.7
		l4.4-12.8C357.2,532.1,356.6,531.3,355.3,530.8L355.3,530.8z M434.6,551.9l-2.7-14c-0.3-1.9-1.3-2.4-2.5-2.2
		c-1.3,0.2-1.9,1.1-1.6,3l2.7,14c0.3,1.7,1.3,2.4,2.5,2.1C434.3,554.4,434.9,553.8,434.6,551.9z M434.6,551.9l-2.7-14
		c-0.3-1.9-1.3-2.4-2.5-2.2c-1.3,0.2-1.9,1.1-1.6,3l2.7,14c0.3,1.7,1.3,2.4,2.5,2.1C434.3,554.4,434.9,553.8,434.6,551.9z
		 M355.3,530.8l-2.2-0.8l-6.2,17.6l2.2,0.8c1.3,0.5,2.2,0,2.9-1.7l4.4-12.8C357.2,532.1,356.6,531.3,355.3,530.8L355.3,530.8z
		 M355.3,530.8l-2.2-0.8l-6.2,17.6l2.2,0.8c1.3,0.5,2.2,0,2.9-1.7l4.4-12.8C357.2,532.1,356.6,531.3,355.3,530.8L355.3,530.8z
		 M434.6,551.9l-2.7-14c-0.3-1.9-1.3-2.4-2.5-2.2c-1.3,0.2-1.9,1.1-1.6,3l2.7,14c0.3,1.7,1.3,2.4,2.5,2.1
		C434.3,554.4,434.9,553.8,434.6,551.9z M434.6,551.9l-2.7-14c-0.3-1.9-1.3-2.4-2.5-2.2c-1.3,0.2-1.9,1.1-1.6,3l2.7,14
		c0.3,1.7,1.3,2.4,2.5,2.1C434.3,554.4,434.9,553.8,434.6,551.9z M355.3,530.8l-2.2-0.8l-6.2,17.6l2.2,0.8c1.3,0.5,2.2,0,2.9-1.7
		l4.4-12.8C357.2,532.1,356.6,531.3,355.3,530.8L355.3,530.8z M355.3,530.8l-2.2-0.8l-6.2,17.6l2.2,0.8c1.3,0.5,2.2,0,2.9-1.7
		l4.4-12.8C357.2,532.1,356.6,531.3,355.3,530.8L355.3,530.8z M434.6,551.9l-2.7-14c-0.3-1.9-1.3-2.4-2.5-2.2
		c-1.3,0.2-1.9,1.1-1.6,3l2.7,14c0.3,1.7,1.3,2.4,2.5,2.1C434.3,554.4,434.9,553.8,434.6,551.9z M434.6,551.9l-2.7-14
		c-0.3-1.9-1.3-2.4-2.5-2.2c-1.3,0.2-1.9,1.1-1.6,3l2.7,14c0.3,1.7,1.3,2.4,2.5,2.1C434.3,554.4,434.9,553.8,434.6,551.9z
		 M355.3,530.8l-2.2-0.8l-6.2,17.6l2.2,0.8c1.3,0.5,2.2,0,2.9-1.7l4.4-12.8C357.2,532.1,356.6,531.3,355.3,530.8L355.3,530.8z
		 M355.3,530.8l-2.2-0.8l-6.2,17.6l2.2,0.8c1.3,0.5,2.2,0,2.9-1.7l4.4-12.8C357.2,532.1,356.6,531.3,355.3,530.8L355.3,530.8z
		 M434.6,551.9l-2.7-14c-0.3-1.9-1.3-2.4-2.5-2.2c-1.3,0.2-1.9,1.1-1.6,3l2.7,14c0.3,1.7,1.3,2.4,2.5,2.1
		C434.3,554.4,434.9,553.8,434.6,551.9z M434.6,551.9l-2.7-14c-0.3-1.9-1.3-2.4-2.5-2.2c-1.3,0.2-1.9,1.1-1.6,3l2.7,14
		c0.3,1.7,1.3,2.4,2.5,2.1C434.3,554.4,434.9,553.8,434.6,551.9z M355.3,530.8l-2.2-0.8l-6.2,17.6l2.2,0.8c1.3,0.5,2.2,0,2.9-1.7
		l4.4-12.8C357.2,532.1,356.6,531.3,355.3,530.8L355.3,530.8z M290,278.8l7.8,10.9l2.9-2.7L290,278.8z M355.5,530.8l-2.2-0.8
		l-6.2,17.6l2.2,0.8c1.3,0.5,2.2,0,2.9-1.7l4.4-12.8C357.2,532.1,356.6,531.3,355.5,530.8L355.5,530.8z M434.6,551.9l-2.7-14
		c-0.3-1.9-1.3-2.4-2.5-2.2c-1.3,0.2-1.9,1.1-1.6,3l2.7,14c0.3,1.7,1.3,2.4,2.5,2.1C434.3,554.4,434.9,553.8,434.6,551.9z
		 M434.6,551.9l-2.7-14c-0.3-1.9-1.3-2.4-2.5-2.2c-1.3,0.2-1.9,1.1-1.6,3l2.7,14c0.3,1.7,1.3,2.4,2.5,2.1
		C434.3,554.4,434.9,553.8,434.6,551.9z M355.3,530.8l-2.2-0.8l-6.2,17.6l2.2,0.8c1.3,0.5,2.2,0,2.9-1.7l4.4-12.8
		C357.2,532.1,356.6,531.3,355.3,530.8L355.3,530.8z M290,278.8l7.8,10.9l2.9-2.7L290,278.8z M290,278.8l7.8,10.9l2.9-2.7L290,278.8
		z M308.3,268.8l-0.3-0.3l0,0l-1.3-1.6c-0.3-0.6-1-1.1-1.6-1.3s-1.3,0-1.7,0.5l-1.6,1.3l4.9,6.3l1.3-1
		C309.3,271.6,309.6,270.5,308.3,268.8L308.3,268.8z M355.5,530.8l-2.2-0.8l-6.2,17.6l2.2,0.8c1.3,0.5,2.2,0,2.9-1.7l4.4-12.8
		C357.2,532.1,356.6,531.3,355.5,530.8L355.5,530.8z M434.6,551.9l-2.7-14c-0.3-1.9-1.3-2.4-2.5-2.2c-1.3,0.2-1.9,1.1-1.6,3l2.7,14
		c0.3,1.7,1.3,2.4,2.5,2.1C434.3,554.4,434.9,553.8,434.6,551.9z M434.6,551.9l-2.7-14c-0.3-1.9-1.3-2.4-2.5-2.2
		c-1.3,0.2-1.9,1.1-1.6,3l2.7,14c0.3,1.7,1.3,2.4,2.5,2.1C434.3,554.4,434.9,553.8,434.6,551.9z M355.3,530.8l-2.2-0.8l-6.2,17.6
		l2.2,0.8c1.3,0.5,2.2,0,2.9-1.7l4.4-12.8C357.2,532.1,356.6,531.3,355.3,530.8L355.3,530.8z M290,278.8l7.8,10.9l2.9-2.7L290,278.8
		z M308.3,268.8l-0.3-0.3l0,0l-1.3-1.6c-0.3-0.6-1-1.1-1.6-1.3s-1.3,0-1.7,0.5l-1.6,1.3l4.9,6.3l1.3-1
		C309.3,271.6,309.6,270.5,308.3,268.8L308.3,268.8z M290,278.8l7.8,10.9l2.9-2.7L290,278.8z M308.3,268.8l-0.3-0.3l0,0l-1.3-1.6
		c-0.3-0.6-1-1.1-1.6-1.3s-1.3,0-1.7,0.5l-1.6,1.3l4.9,6.3l1.3-1C309.3,271.6,309.6,270.5,308.3,268.8L308.3,268.8z M355.5,530.8
		l-2.2-0.8l-6.2,17.6l2.2,0.8c1.3,0.5,2.2,0,2.9-1.7l4.4-12.8C357.2,532.1,356.6,531.3,355.5,530.8L355.5,530.8z M358.5,239.3
		l1.7,13.3l3.8-1.1L358.5,239.3z M434.6,551.9l-2.7-14c-0.3-1.9-1.3-2.4-2.5-2.2c-1.3,0.2-1.9,1.1-1.6,3l2.7,14
		c0.3,1.7,1.3,2.4,2.5,2.1C434.3,554.4,434.9,553.8,434.6,551.9L434.6,551.9z M434.6,551.9l-2.7-14c-0.3-1.9-1.3-2.4-2.5-2.2
		c-1.3,0.2-1.9,1.1-1.6,3l2.7,14c0.3,1.7,1.3,2.4,2.5,2.1C434.3,554.4,434.9,553.8,434.6,551.9L434.6,551.9z M355.3,530.8l-2.2-0.8
		l-6.2,17.6l2.2,0.8c1.3,0.5,2.2,0,2.9-1.7l4.4-12.8C357.2,532.1,356.6,531.3,355.3,530.8L355.3,530.8z M290,278.8l7.8,10.9l2.9-2.7
		L290,278.8z M308.3,268.8l-0.3-0.3l0,0l-1.3-1.6c-0.3-0.6-1-1.1-1.6-1.3s-1.3,0-1.7,0.5l-1.6,1.3l4.9,6.3l1.3-1
		C309.3,271.6,309.6,270.5,308.3,268.8L308.3,268.8z M358.5,239.3l1.7,13.3l3.8-1.1L358.5,239.3z M290,278.8l7.8,10.9l2.9-2.7
		L290,278.8z M308.3,268.8l-0.3-0.3l0,0l-1.3-1.6c-0.3-0.6-1-1.1-1.6-1.3s-1.3,0-1.7,0.5l-1.6,1.3l4.9,6.3l1.3-1
		C309.3,271.6,309.6,270.5,308.3,268.8L308.3,268.8z M355.5,530.8l-2.2-0.8l-6.2,17.6l2.2,0.8c1.3,0.5,2.2,0,2.9-1.7l4.4-12.8
		C357.2,532.1,356.6,531.3,355.5,530.8L355.5,530.8z M358.5,239.3l1.7,13.3l3.8-1.1L358.5,239.3z M434.6,551.9l-2.7-14
		c-0.3-1.9-1.3-2.4-2.5-2.2c-1.3,0.2-1.9,1.1-1.6,3l2.7,14c0.3,1.7,1.3,2.4,2.5,2.1C434.3,554.4,434.9,553.8,434.6,551.9
		L434.6,551.9z M434.6,551.9l-2.7-14c-0.3-1.9-1.3-2.4-2.5-2.2c-1.3,0.2-1.9,1.1-1.6,3l2.7,14c0.3,1.7,1.3,2.4,2.5,2.1
		C434.3,554.4,434.9,553.8,434.6,551.9L434.6,551.9z M355.3,530.8l-2.2-0.8l-6.2,17.6l2.2,0.8c1.3,0.5,2.2,0,2.9-1.7l4.4-12.8
		C357.2,532.1,356.6,531.3,355.3,530.8L355.3,530.8z M290,278.8l7.8,10.9l2.9-2.7L290,278.8z M308.3,268.8l-0.3-0.3l0,0l-1.3-1.6
		c-0.3-0.6-1-1.1-1.6-1.3s-1.3,0-1.7,0.5l-1.6,1.3l4.9,6.3l1.3-1C309.3,271.6,309.6,270.5,308.3,268.8L308.3,268.8z M358.5,239.3
		l1.7,13.3l3.8-1.1L358.5,239.3z M290,278.8l7.8,10.9l2.9-2.7L290,278.8z M308.3,268.8l-0.3-0.3l0,0l-1.3-1.6
		c-0.3-0.6-1-1.1-1.6-1.3s-1.3,0-1.7,0.5l-1.6,1.3l4.9,6.3l1.3-1C309.3,271.6,309.6,270.5,308.3,268.8L308.3,268.8z M355.5,530.8
		l-2.2-0.8l-6.2,17.6l2.2,0.8c1.3,0.5,2.2,0,2.9-1.7l4.4-12.8C357.2,532.1,356.6,531.3,355.5,530.8L355.5,530.8z M358.5,239.3
		l1.7,13.3l3.8-1.1L358.5,239.3z M434.6,551.9l-2.7-14c-0.3-1.9-1.3-2.4-2.5-2.2c-1.3,0.2-1.9,1.1-1.6,3l2.7,14
		c0.3,1.7,1.3,2.4,2.5,2.1C434.3,554.4,434.9,553.8,434.6,551.9L434.6,551.9z M434.6,551.9l-2.7-14c-0.3-1.9-1.3-2.4-2.5-2.2
		c-1.3,0.2-1.9,1.1-1.6,3l2.7,14c0.3,1.7,1.3,2.4,2.5,2.1C434.3,554.4,434.9,553.8,434.6,551.9L434.6,551.9z M355.3,530.8l-2.2-0.8
		l-6.2,17.6l2.2,0.8c1.3,0.5,2.2,0,2.9-1.7l4.4-12.8C357.2,532.1,356.6,531.3,355.3,530.8L355.3,530.8z M290,278.8l7.8,10.9l2.9-2.7
		L290,278.8z M308.3,268.8l-0.3-0.3l0,0l-1.3-1.6c-0.3-0.6-1-1.1-1.6-1.3s-1.3,0-1.7,0.5l-1.6,1.3l4.9,6.3l1.3-1
		C309.3,271.6,309.6,270.5,308.3,268.8L308.3,268.8z M358.5,239.3l1.7,13.3l3.8-1.1L358.5,239.3z M290,278.8l7.8,10.9l2.9-2.7
		L290,278.8z M308.3,268.8l-0.3-0.3l0,0l-1.3-1.6c-0.3-0.6-1-1.1-1.6-1.3s-1.3,0-1.7,0.5l-1.6,1.3l4.9,6.3l1.3-1
		C309.3,271.6,309.6,270.5,308.3,268.8L308.3,268.8z M355.5,530.8l-2.2-0.8l-6.2,17.6l2.2,0.8c1.3,0.5,2.2,0,2.9-1.7l4.4-12.8
		C357.2,532.1,356.6,531.3,355.5,530.8L355.5,530.8z M358.5,239.3l1.7,13.3l3.8-1.1L358.5,239.3z M434.6,551.9l-2.7-14
		c-0.3-1.9-1.3-2.4-2.5-2.2c-1.3,0.2-1.9,1.1-1.6,3l2.7,14c0.3,1.7,1.3,2.4,2.5,2.1C434.3,554.4,434.9,553.8,434.6,551.9
		L434.6,551.9z M434.6,551.9l-2.7-14c-0.3-1.9-1.3-2.4-2.5-2.2c-1.3,0.2-1.9,1.1-1.6,3l2.7,14c0.3,1.7,1.3,2.4,2.5,2.1
		C434.3,554.4,434.9,553.8,434.6,551.9L434.6,551.9z M355.3,530.8l-2.2-0.8l-6.2,17.6l2.2,0.8c1.3,0.5,2.2,0,2.9-1.7l4.4-12.8
		C357.2,532.1,356.6,531.3,355.3,530.8L355.3,530.8z M290,278.8l7.8,10.9l2.9-2.7L290,278.8z M308.3,268.8l-0.3-0.3l0,0l-1.3-1.6
		c-0.3-0.6-1-1.1-1.6-1.3s-1.3,0-1.7,0.5l-1.6,1.3l4.9,6.3l1.3-1C309.3,271.6,309.6,270.5,308.3,268.8L308.3,268.8z M358.5,239.3
		l1.7,13.3l3.8-1.1L358.5,239.3z M290,278.8l7.8,10.9l2.9-2.7L290,278.8z M308.3,268.8l-0.3-0.3l0,0l-1.3-1.6
		c-0.3-0.6-1-1.1-1.6-1.3s-1.3,0-1.7,0.5l-1.6,1.3l4.9,6.3l1.3-1C309.3,271.6,309.6,270.5,308.3,268.8L308.3,268.8z M355.5,530.8
		l-2.2-0.8l-6.2,17.6l2.2,0.8c1.3,0.5,2.2,0,2.9-1.7l4.4-12.8C357.2,532.1,356.6,531.3,355.5,530.8L355.5,530.8z M358.5,239.3
		l1.7,13.3l3.8-1.1L358.5,239.3z M434.6,551.9l-2.7-14c-0.3-1.9-1.3-2.4-2.5-2.2c-1.3,0.2-1.9,1.1-1.6,3l2.7,14
		c0.3,1.7,1.3,2.4,2.5,2.1C434.3,554.4,434.9,553.8,434.6,551.9L434.6,551.9z M434.6,551.9l-2.7-14c-0.3-1.9-1.3-2.4-2.5-2.2
		c-1.3,0.2-1.9,1.1-1.6,3l2.7,14c0.3,1.7,1.3,2.4,2.5,2.1C434.3,554.4,434.9,553.8,434.6,551.9L434.6,551.9z M355.3,530.8l-2.2-0.8
		l-6.2,17.6l2.2,0.8c1.3,0.5,2.2,0,2.9-1.7l4.4-12.8C357.2,532.1,356.6,531.3,355.3,530.8L355.3,530.8z M290,278.8l7.8,10.9l2.9-2.7
		L290,278.8z M308.3,268.8l-0.3-0.3l0,0l-1.3-1.6c-0.3-0.6-1-1.1-1.6-1.3s-1.3,0-1.7,0.5l-1.6,1.3l4.9,6.3l1.3-1
		C309.3,271.6,309.6,270.5,308.3,268.8L308.3,268.8z M358.5,239.3l1.7,13.3l3.8-1.1L358.5,239.3z M290,278.8l7.8,10.9l2.9-2.7
		L290,278.8z M308.3,268.8l-0.3-0.3l0,0l-1.3-1.6c-0.3-0.6-1-1.1-1.6-1.3s-1.3,0-1.7,0.5l-1.6,1.3l4.9,6.3l1.3-1
		C309.3,271.6,309.6,270.5,308.3,268.8L308.3,268.8z M355.5,530.8l-2.2-0.8l-6.2,17.6l2.2,0.8c1.3,0.5,2.2,0,2.9-1.7l4.4-12.8
		C357.2,532.1,356.6,531.3,355.5,530.8L355.5,530.8z M358.5,239.3l1.7,13.3l3.8-1.1L358.5,239.3z M434.6,551.9l-2.7-14
		c-0.3-1.9-1.3-2.4-2.5-2.2c-1.3,0.2-1.9,1.1-1.6,3l2.7,14c0.3,1.7,1.3,2.4,2.5,2.1C434.3,554.4,434.9,553.8,434.6,551.9
		L434.6,551.9z M434.6,551.9l-2.7-14c-0.3-1.9-1.3-2.4-2.5-2.2c-1.3,0.2-1.9,1.1-1.6,3l2.7,14c0.3,1.7,1.3,2.4,2.5,2.1
		C434.3,554.4,434.9,553.8,434.6,551.9L434.6,551.9z M355.3,530.8l-2.2-0.8l-6.2,17.6l2.2,0.8c1.3,0.5,2.2,0,2.9-1.7l4.4-12.8
		C357.2,532.1,356.6,531.3,355.3,530.8L355.3,530.8z M290,278.8l7.8,10.9l2.9-2.7L290,278.8z M308.3,268.8l-0.3-0.3l0,0l-1.3-1.6
		c-0.3-0.6-1-1.1-1.6-1.3s-1.3,0-1.7,0.5l-1.6,1.3l4.9,6.3l1.3-1C309.3,271.6,309.6,270.5,308.3,268.8L308.3,268.8z M358.5,239.3
		l1.7,13.3l3.8-1.1L358.5,239.3z M290,278.8l7.8,10.9l2.9-2.7L290,278.8z M308.3,268.8l-0.3-0.3l0,0l-1.3-1.6
		c-0.3-0.6-1-1.1-1.6-1.3s-1.3,0-1.7,0.5l-1.6,1.3l4.9,6.3l1.3-1C309.3,271.6,309.6,270.5,308.3,268.8L308.3,268.8z M355.5,530.8
		l-2.2-0.8l-6.2,17.6l2.2,0.8c1.3,0.5,2.2,0,2.9-1.7l4.4-12.8C357.2,532.1,356.6,531.3,355.5,530.8L355.5,530.8z M358.5,239.3
		l1.7,13.3l3.8-1.1L358.5,239.3z M434.6,551.9l-2.7-14c-0.3-1.9-1.3-2.4-2.5-2.2c-1.3,0.2-1.9,1.1-1.6,3l2.7,14
		c0.3,1.7,1.3,2.4,2.5,2.1C434.3,554.4,434.9,553.8,434.6,551.9L434.6,551.9z M434.6,551.9l-2.7-14c-0.3-1.9-1.3-2.4-2.5-2.2
		c-1.3,0.2-1.9,1.1-1.6,3l2.7,14c0.3,1.7,1.3,2.4,2.5,2.1C434.3,554.4,434.9,553.8,434.6,551.9L434.6,551.9z M355.3,530.8l-2.2-0.8
		l-6.2,17.6l2.2,0.8c1.3,0.5,2.2,0,2.9-1.7l4.4-12.8C357.2,532.1,356.6,531.3,355.3,530.8L355.3,530.8z M290,278.8l7.8,10.9l2.9-2.7
		L290,278.8z M308.3,268.8l-0.3-0.3l0,0l-1.3-1.6c-0.3-0.6-1-1.1-1.6-1.3s-1.3,0-1.7,0.5l-1.6,1.3l4.9,6.3l1.3-1
		C309.3,271.6,309.6,270.5,308.3,268.8L308.3,268.8z M358.5,239.3l1.7,13.3l3.8-1.1L358.5,239.3z M290,278.8l7.8,10.9l2.9-2.7
		L290,278.8z M308.3,268.8l-0.3-0.3l0,0l-1.3-1.6c-0.3-0.6-1-1.1-1.6-1.3s-1.3,0-1.7,0.5l-1.6,1.3l4.9,6.3l1.3-1
		C309.3,271.6,309.6,270.5,308.3,268.8L308.3,268.8z M355.5,530.8l-2.2-0.8l-6.2,17.6l2.2,0.8c1.3,0.5,2.2,0,2.9-1.7l4.4-12.8
		C357.2,532.1,356.6,531.3,355.5,530.8L355.5,530.8z M358.5,239.3l1.7,13.3l3.8-1.1L358.5,239.3z M434.6,551.9l-2.7-14
		c-0.3-1.9-1.3-2.4-2.5-2.2c-1.3,0.2-1.9,1.1-1.6,3l2.7,14c0.3,1.7,1.3,2.4,2.5,2.1C434.3,554.4,434.9,553.8,434.6,551.9
		L434.6,551.9z M526.1,288.8c-0.8-1-1.9-1.1-3.3,0L512,298c-1.4,1.3-1.4,2.4-0.6,3.3c0.8,1,1.9,1.1,3.3,0l10.8-9.2
		C527.1,290.8,527.1,289.7,526.1,288.8z M434.6,551.9l-2.7-14c-0.3-1.9-1.3-2.4-2.5-2.2c-1.3,0.2-1.9,1.1-1.6,3l2.7,14
		c0.3,1.7,1.3,2.4,2.5,2.1C434.3,554.4,434.9,553.8,434.6,551.9z M355.3,530.8l-2.2-0.8l-6.2,17.6l2.2,0.8c1.3,0.5,2.2,0,2.9-1.7
		l4.4-12.8C357.2,532.1,356.6,531.3,355.3,530.8L355.3,530.8z M290,278.8l7.8,10.9l2.9-2.7L290,278.8z M308.3,268.8l-0.3-0.3l0,0
		l-1.3-1.6c-0.3-0.6-1-1.1-1.6-1.3s-1.3,0-1.7,0.5l-1.6,1.3l4.9,6.3l1.3-1C309.3,271.6,309.6,270.5,308.3,268.8L308.3,268.8z
		 M358.5,239.3l1.7,13.3l3.8-1.1L358.5,239.3z M526.3,288.8c-0.8-1-1.9-1.1-3.3,0l-10.8,9.2c-1.4,1.3-1.4,2.4-0.6,3.3s1.9,1.1,3.3,0
		l10.8-9.2C527.1,290.8,527.1,289.7,526.3,288.8L526.3,288.8z M290,278.8l7.8,10.9l2.9-2.7L290,278.8z M308.3,268.8l-0.3-0.3l0,0
		l-1.3-1.6c-0.3-0.6-1-1.1-1.6-1.3s-1.3,0-1.7,0.5l-1.6,1.3l4.9,6.3l1.3-1C309.3,271.6,309.6,270.5,308.3,268.8L308.3,268.8z
		 M355.3,530.8l-2.2-0.8l-6,17.6l2.2,0.8c1.3,0.5,2.2,0,2.9-1.7l4.4-12.8C357.2,532.1,356.6,531.3,355.3,530.8L355.3,530.8z
		 M358.3,239.3l1.7,13.3l3.8-1.1L358.3,239.3z M434.4,551.9l-2.7-14c-0.3-1.9-1.3-2.4-2.5-2.2s-1.9,1.1-1.6,3l2.7,14
		c0.3,1.7,1.3,2.4,2.5,2.1C434.1,554.4,434.9,553.8,434.4,551.9L434.4,551.9z M526.1,288.8c-0.8-1-1.9-1.1-3.3,0L512,298
		c-1.4,1.3-1.4,2.4-0.6,3.3c0.8,1,1.9,1.1,3.3,0l10.8-9.2C527.1,290.8,527.1,289.7,526.1,288.8z M537.2,303.2
		c-0.8-1.1-1.7-1.4-3.3-0.3l-11.7,7.9c-1.6,1.1-1.6,2.2-1,3.2s1.7,1.4,3.3,0.3l11.7-7.9C537.9,305.3,537.9,304.3,537.2,303.2
		L537.2,303.2z M434.6,551.9l-2.7-14c-0.3-1.9-1.3-2.4-2.5-2.2c-1.3,0.2-1.9,1.1-1.6,3l2.7,14c0.3,1.7,1.3,2.4,2.5,2.1
		C434.3,554.4,434.9,553.8,434.6,551.9z M355.3,530.8l-2.2-0.8l-6.2,17.6l2.2,0.8c1.3,0.5,2.2,0,2.9-1.7l4.4-12.8
		C357.2,532.1,356.6,531.3,355.3,530.8L355.3,530.8z M290,278.8l7.8,10.9l2.9-2.7L290,278.8z M308.3,268.8l-0.3-0.3l0,0l-1.3-1.6
		c-0.3-0.6-1-1.1-1.6-1.3s-1.3,0-1.7,0.5l-1.6,1.3l4.9,6.3l1.3-1C309.3,271.6,309.6,270.5,308.3,268.8L308.3,268.8z M358.5,239.3
		l1.7,13.3l3.8-1.1L358.5,239.3z M526.3,288.8c-0.8-1-1.9-1.1-3.3,0l-10.8,9.2c-1.4,1.3-1.4,2.4-0.6,3.3s1.9,1.1,3.3,0l10.8-9.2
		C527.1,290.8,527.1,289.7,526.3,288.8L526.3,288.8z M537.2,303.2c-0.8-1.1-1.7-1.4-3.3-0.3l-11.7,7.9c-1.6,1.1-1.6,2.2-1,3.2
		s1.7,1.4,3.3,0.3l11.7-7.9C537.9,305.3,537.9,304.3,537.2,303.2L537.2,303.2z M542.3,293c-0.5-0.5-0.8-1.1-1.3-1.6
		c-0.5-0.5-0.8-1.1-1.3-1.6l0,0c-4.6-6-9.7-11.9-15.2-17.3c-3.2-3.2-6.5-6.2-9.8-9.2c-2.4-2.1-4.8-4-7.3-5.9l-1.6-1.3l-1.6-1.3
		c-60.7-44.1-142.9-44.1-203.5,0l-1.6,1.3l-1.6,1.3c-2.5,1.9-4.9,3.8-7.3,5.9c-3.5,2.9-6.7,6-9.8,9.2c-5.4,5.4-10.5,11.1-15.2,17.3
		l-1.3,1.6l-1.3,1.6c-46,63.1-44.1,149.3,4.8,210.2l1.3,1.6l1.3,1.6c1,1.1,1.9,2.2,2.9,3.3c1.3,1.3,2.4,2.7,3.6,4
		c2.2,2.4,4.6,4.8,7,7c1.3,1.3,2.5,2.4,3.8,3.5c1.1,1,2.2,1.9,3.3,2.9c0.5,0.5,1,0.8,1.6,1.3c0.6,0.5,1.1,0.8,1.6,1.3
		c63.3,50.9,153.7,50.9,217,0l1.6-1.3l1.6-1.3c1.1-1,2.2-1.9,3.3-2.9c1.3-1.1,2.5-2.4,3.8-3.5c2.4-2.2,4.8-4.6,7-7
		c1.3-1.3,2.4-2.5,3.6-4c1.3-1.4,1.9-2.2,2.9-3.3c0.5-0.5,0.8-1,1.3-1.6l1.3-1.6C586.4,442.3,588.5,356,542.3,293L542.3,293z
		 M531.4,299.5c3.5-2.4,6.7-1.9,8.9,1.4c2.2,3.3,1.6,6.5-1.9,8.9l-11.3,7.6c-3.5,2.4-6.7,1.9-8.9-1.4c-1-1.3-1.4-2.7-1.3-4.3l0,0
		c0.3-1.9,1.4-3.6,3.2-4.6l5.4-3.6l0,0L531.4,299.5z M529,286.4c2.7,3,2.2,6.3-1,9l-10.3,8.9c-3.2,2.7-6.3,2.5-9-0.5
		c-2.7-3-2.2-6.3,1-9l10.3-8.9C523.1,283.2,526.4,283.2,529,286.4L529,286.4z M517.2,274.3l3,2.9l0,0l-17.8,19.2l-0.8-0.8l-2.2-2.1
		l7.6-8.2l-3.5-3.2l-7.6,8.2l-3-2.9l17.8-19.2l3,2.9l-7.6,8.2l3.5,3.2L517.2,274.3z M501.1,260.5c0.6,0.5,1.3,1.1,1.9,1.9l0,0
		c1.4,2.1,1.1,4.4-0.8,7.1l-1.6,2.1l-3.2-2.2l1.6-2.2c0.3-0.5,0.5-1,0.6-1.4c0.2-0.8-0.2-1.6-1-1.9c-1.1-0.8-2.1-0.6-3.2,0.8
		l-8.4,11.4c-1,1.3-1,2.2-0.2,3c0.2,0.2,0.3,0.3,0.5,0.3c1.1,0.8,2.1,0.6,3.2-0.8l2.2-3l3.2,2.2l-2.1,2.9c-2.5,3.3-5.6,4.1-8.9,1.7
		c-0.3-0.2-0.5-0.5-0.8-0.6c-2.5-2.2-2.5-5.2-0.3-8.2l8.1-10.9C494.7,258.8,497.9,258,501.1,260.5L501.1,260.5z M470.8,265.1
		l0.8-1.4l3.3,1.9l-1,1.6c-1,1.6-0.6,2.5,0.6,3.3s2.2,0.5,3.2-1.1c2.7-4.6-3.8-9.5,0-16c2.1-3.6,5.1-4.6,8.6-2.7
		c3.5,1.9,4,5.1,1.9,8.7l-0.5,0.6l-3.3-1.9l0.5-1c1-1.6,0.6-2.5-0.5-3.3c-1.1-0.8-2.2-0.5-3,1.3c-2.7,4.6,3.8,9.5,0,16
		c-2.1,3.6-5.1,4.6-8.6,2.5C469.3,271.6,468.5,268.6,470.8,265.1z M460,238.6l-4,10.5l4.4,1.7l4-10.5l4,1.4l-9.4,24.4l-4.1-1.4
		l4-10.5l-4.4-1.7l-4,10.5l-3.8-1.4l9.4-24.4L460,238.6z M433.2,251.5l3.3-13.2c1.1-4.1,3.6-5.9,7.6-4.9c4,1,5.4,3.8,4.3,7.9
		l-0.6,2.5l-3.8-1l0.6-2.7c0.5-1.7-0.2-2.7-1.4-3c-1.3-0.3-2.2,0.2-2.7,1.9l-3.5,13.6c-0.5,1.7,0.2,2.7,1.4,3s2.2-0.2,2.7-1.9
		l1.3-4.6l-1.7-0.5l1-3.6l5.6,1.4l-2.1,8.1c-1,4.1-3.6,5.9-7.6,4.9C433.5,258.6,431.9,255.6,433.2,251.5L433.2,251.5z M428.6,230.6
		l4.1,0.6l-4.4,25.9l-4-0.6L428.6,230.6z M409.5,228.5l4.1,0.3l-1,11.1l4.6,0.3l1-11.1l4.1,0.3l-2.2,26l-4.1-0.3l1-11.3l-4.6-0.3
		l-1,11.1l-4.1-0.3L409.5,228.5z M389.6,229l1.6,22.4l6.8-0.5l0.3,3.8l-10.8,0.8l-1.9-26L389.6,229z M373.7,231l3.8,22l6.7-1.1
		l0.6,3.6l-10.8,1.9l-4.4-25.9L373.7,231z M360.4,233.9l11.1,24.1l-4,1.1l-1.9-4.4l-4.9,1.4l0.6,4.8l-3.6,1l-3.2-26.3L360.4,233.9z
		 M336.9,242.1l4.3,10.3l4.3-1.7l-4.3-10.3l3.8-1.6l10,24.1l-3.8,1.6l-4.3-10.3l-4.3,1.7l4.3,10.3l-3.8,1.6l-10-24.3L336.9,242.1z
		 M321,249.7l1.9,3.2l-3.6,2.2l11.7,19l-3.5,2.2l-11.7-19l-3.6,2.2l-1.9-3.2L321,249.7z M296.5,266.7l4.9-3.8
		c0.3-0.2,0.5-0.5,0.8-0.6c3-1.9,5.4-1.3,7.6,1.6l1.3,1.6c1.6,2.1,2.1,4.1,1.1,5.9c2.2-0.6,4,0.6,5.6,2.7l2.5,3.2
		c0.6,1,1.4,1.7,2.2,2.2l-2.1,1.6l-1.3,1c-1-0.6-1.7-1.4-2.2-2.4l-2.5-3.2c-1.4-1.9-2.7-2.2-4.1-1l-1.1,1l6.5,8.4l-2.5,1.9l0,0
		l-0.6,0.5l-4.8-6.2l0,0l0,0L296.5,266.7z M289,273.2l21.3,15.9l-3,2.9l-3.8-3l-3.3,3.2l-0.3,0.3l2.9,4l-2.7,2.5l-15.2-21.7l0.3-0.3
		L289,273.2z M272.8,290.7l15.5,12.8c1.4,1.3,2.5,1,3.3,0c0.8-1,0.8-2.1-0.6-3.3l-15.5-12.8l2.5-3l15.4,12.7
		c3.2,2.7,3.8,5.9,1.3,8.9s-5.7,3.2-9,0.6l-15.4-12.7L272.8,290.7z M267.1,298l3.2,2.1l-2.4,3.6l18.7,12.4l-2.2,3.5l-18.7-12.4
		l-2.4,3.6l-3.2-2.1L267.1,298z M257.8,326.4c-3.8-1.9-4.9-4.9-3-8.4c1.9-3.5,4.9-4.3,8.6-2.4l0.8,0.3l-1.7,3.5l-1-0.5
		c-1.7-1-2.7-0.5-3.2,0.6c-0.5,1.1-0.3,2.2,1.4,3c4.8,2.5,9.4-4.1,16-0.8c3.6,1.9,4.9,4.9,3,8.4s-4.9,4.3-8.7,2.4l-1.4-0.8l1.7-3.5
		l1.6,0.8c1.6,0.8,2.7,0.5,3.2-0.8c0.5-1.3,0.5-2.2-1.3-3C269,323.2,264.4,329.8,257.8,326.4L257.8,326.4z M314.4,528.6
		c-2.5,3.3-5.6,4.1-8.9,1.7s-3.6-5.6-1.1-8.9l1-1.3l3.2,2.2l-1.1,1.6c-1.1,1.6-0.8,2.5,0.2,3.3c1,0.8,2.2,0.6,3.2-0.8
		c3.2-4.4-2.9-9.8,1.6-16c0.2-0.2,0.3-0.3,0.5-0.5c2.4-3,5.2-3.5,8.4-1.3c2.5,1.4,3.5,4.8,1.9,7.5c0,0,0,0.2-0.2,0.2
		c-0.2,0.5-0.5,1-0.8,1.3l-0.5,0.6l-3.2-2.2l0.6-0.8l0.2-0.2c1-1.4,0.6-2.4-0.3-3.2c-1-0.8-2.1-0.6-3.2,1l0,0
		C312.8,517,318.7,522.4,314.4,528.6L314.4,528.6z M316.6,537.3L328,518l-2.2-1.3l0,0l-1.4-0.8l1.9-3.2l6,3.5l4.9,2.9l-1.9,3.2
		l-3.6-2.2l-11.4,19.4L316.6,537.3z M332.1,545.9c-3.6-1.7-4.6-4.8-2.9-8.6l8.4-18.1l3.8,1.7l-8.6,18.2c-0.8,1.7-0.3,2.7,0.8,3.2
		c1.3,0.5,2.2,0.3,3-1.4l8.6-18.2l3.5,1.6l-8.4,18.1C338.6,546.4,335.8,547.6,332.1,545.9L332.1,545.9z M348,552.1l-6.2-2.2
		l8.6-24.7l6.2,2.2c3.8,1.4,5.1,4.1,3.6,8.1l-4.4,12.5C354.7,551.9,352,553.3,348,552.1L348,552.1z M370.1,546.4l-5.6-1.3l-1.7,7.5
		l7,1.7l-1,3.6l-10.9-2.7l6.2-25.4l10.9,2.7l-1,3.5l-7-1.6l-1.7,7.1l5.6,1.3L370.1,546.4z M385.8,560.5l-4.1-0.6l-2.4-19.5
		l-2.7,18.7l-3.6-0.5l3.6-25.9l5.1,0.8l2.1,16l2.2-15.5l3.6,0.5L385.8,560.5z M402.7,538.9l-4.3-0.2l-1,22.4l-4.1-0.2l1-22.4
		l-4.3-0.2l0.2-3.8l12.7,0.5L402.7,538.9z M417.6,560.8c-4,0.3-6.3-1.9-6.7-6l-1.3-13.5c-0.3-4.1,1.6-6.8,5.6-7.1
		c4-0.3,6.3,1.9,6.7,6l0.2,2.5l-3.8,0.3l-0.3-2.9c-0.2-1.9-1.1-2.5-2.4-2.4s-2.1,1-1.9,2.7l1.3,14.1c0.2,1.9,1.1,2.4,2.4,2.4
		s2.1-0.8,1.9-2.7l-0.3-3.8l3.8-0.3l0.3,3.5C423.5,557.8,421.6,560.5,417.6,560.8L417.6,560.8z M433.7,558.6c-4,0.8-6.5-1.3-7.3-5.2
		l-2.5-13.3c-0.8-4.1,1-6.8,4.9-7.6c4-0.8,6.5,1.3,7.3,5.4l2.5,13.3C439.4,555.1,437.6,557.8,433.7,558.6L433.7,558.6z M449.7,554.8
		c-3.8,1.1-6.5-0.6-7.8-4.6l-5.6-19.2l4-1.1l5.7,19.4c0.5,1.7,1.6,2.2,2.7,1.9s1.9-1.3,1.3-3l-5.7-19.4l3.8-1.1l5.6,19.2
		C454.9,550.6,453.5,553.5,449.7,554.8L449.7,554.8z M467.8,547.9l-11.9-15.5l7.1,17.4l-3.5,1.4l-10-24.3l4.8-1.9l9.8,12.8
		l-5.9-14.4l3.3-1.4l10,24.3L467.8,547.9z M481.1,541.8c-3.6,1.9-6.5,0.8-8.6-2.9l-6.3-12.1c-2.1-3.6-1.3-6.8,2.4-8.7
		s6.5-0.8,8.6,2.9l1.3,2.2l-3.3,1.7l-1.3-2.5c-0.8-1.6-1.9-1.9-3.2-1.3c-1.3,0.6-1.6,1.6-0.6,3.3l6.7,12.5c1,1.6,1.9,1.9,3,1.3
		c1.1-0.6,1.6-1.6,0.6-3.2l-1.7-3.3l3.5-1.7l1.6,3C485.4,536.8,484.6,539.9,481.1,541.8L481.1,541.8z M489.6,536.7l-12.7-20
		l-1.4-2.2l3.5-2.2l2.5,4l11.4,18.2L489.6,536.7z M496.6,532.1l-12.2-16.7l0,0l-3.2-4.4l3.3-2.4l3.5,4.9l9.7,13.3l5.6-4l2.2,3
		L496.6,532.1z M523.3,453.6c-0.3,0.8-0.8,1.4-1.1,2.2l-1.1,2.2c-12.5,23.5-31.6,42.7-55,55.4l-2.1,1.1c-0.6,0.3-1.4,0.6-2.1,1
		c-37.4,18.6-81.5,18.6-119,0l-2.1-1l-2.1-1.1l0,0c-23.5-12.7-42.5-31.9-55-55.4l-1.1-2.2l-1.1-2.2c-20.8-43-17.3-93.7,9.4-133.4
		l1.1-1.7c0.5-0.5,0.8-1.1,1.1-1.6c4.3-6,9-11.6,14.3-16.8c3-3,6.2-5.9,9.5-8.6l0,0c2.4-1.9,4.8-3.8,7.3-5.7l1.6-1.1
		c0.6-0.3,1.1-0.8,1.7-1.1c45.2-30.1,104.1-30.1,149.3,0l1.7,1.1l1.6,1.1c2.5,1.7,4.9,3.6,7.3,5.7c3.3,2.7,6.5,5.6,9.5,8.6l0,0
		c5.2,5.2,10,10.9,14.3,16.8l1.1,1.6c0.5,0.6,0.8,1.1,1.1,1.7C540.4,359.8,544.1,410.6,523.3,453.6z M528.8,326l3.2,5.9l-3.3,1.7
		l-5.2-9.5l23-12.4l1.9,3.6L528.8,326z M521.2,314c0.8,1.1,1.7,1.4,3.3,0.3l11.7-7.9c1.6-1.1,1.6-2.1,1-3.2s-1.7-1.4-3.3-0.3
		l-11.7,7.9C520.6,311.8,520.6,312.9,521.2,314z M512.2,298c-1.4,1.3-1.4,2.4-0.6,3.3s1.9,1.1,3.3,0l10.8-9.2
		c1.4-1.3,1.4-2.2,0.6-3.3c-0.8-1.1-1.9-1.1-3.3,0L512.2,298z M431.9,538.1c-0.3-1.9-1.3-2.4-2.5-2.2c-1.3,0.2-1.9,1.1-1.6,3l2.7,14
		c0.3,1.7,1.3,2.4,2.5,2.1c1.3-0.3,1.9-1.1,1.6-2.9L431.9,538.1z M363.9,251.5l-5.6-12.2l1.7,13.3L363.9,251.5z M355.3,530.8
		l-2.2-0.8l-6.2,17.6l2.2,0.8c1.3,0.5,2.2,0,2.9-1.7l4.4-12.8C357.2,532.1,356.6,531.3,355.3,530.8z M308.3,268.8l-0.3-0.3l0,0
		l-1.3-1.6c-0.3-0.6-1-1.1-1.6-1.3s-1.3,0-1.7,0.5l-1.6,1.3l4.9,6.3l1.3-1C309.3,271.6,309.6,270.5,308.3,268.8z M300.6,286.9
		l-10.6-8.1l7.8,10.9L300.6,286.9z M537.2,303.2c-0.8-1.1-1.7-1.4-3.3-0.3l-11.7,7.9c-1.6,1.1-1.6,2.2-1,3.2s1.7,1.4,3.3,0.3
		l11.7-7.9C537.9,305.3,537.9,304.3,537.2,303.2z M526.1,288.8c-0.8-1-1.9-1.1-3.3,0L512,298c-1.4,1.3-1.4,2.4-0.6,3.3
		c0.8,1,1.9,1.1,3.3,0l10.8-9.2C527.1,290.8,527.1,289.7,526.1,288.8z M358.3,239.3l1.7,13.3l3.8-1.1L358.3,239.3z M308.3,268.8
		l-0.3-0.3l0,0l-1.3-1.6c-0.3-0.6-1-1.1-1.6-1.3s-1.3,0-1.7,0.5l-1.6,1.3l4.9,6.3l1.3-1C309.3,271.6,309.6,270.5,308.3,268.8z
		 M290,278.8l7.8,10.9l2.9-2.7L290,278.8z M355.5,530.8l-2.2-0.8l-6.2,17.6l2.2,0.8c1.3,0.5,2.2,0,2.9-1.7l4.4-12.8
		C357.2,532.1,356.6,531.3,355.5,530.8L355.5,530.8z M434.6,551.9l-2.7-14c-0.3-1.9-1.3-2.4-2.5-2.2c-1.3,0.2-1.9,1.1-1.6,3l2.7,14
		c0.3,1.7,1.3,2.4,2.5,2.1C434.3,554.4,434.9,553.8,434.6,551.9z M537.2,303.2c-0.8-1.1-1.7-1.4-3.3-0.3l-11.7,7.9
		c-1.6,1.1-1.6,2.2-1,3.2s1.7,1.4,3.3,0.3l11.7-7.9C537.9,305.3,537.9,304.3,537.2,303.2L537.2,303.2z M526.1,288.8
		c-0.8-1-1.9-1.1-3.3,0L512,298c-1.4,1.3-1.4,2.4-0.6,3.3c0.8,1,1.9,1.1,3.3,0l10.8-9.2C527.1,290.8,527.1,289.7,526.1,288.8
		L526.1,288.8z M434.6,551.9l-2.7-14c-0.3-1.9-1.3-2.4-2.5-2.2c-1.3,0.2-1.9,1.1-1.6,3l2.7,14c0.3,1.7,1.3,2.4,2.5,2.1
		C434.3,554.4,434.9,553.8,434.6,551.9z M358.5,239.3l1.7,13.3l3.8-1.1L358.5,239.3z M355.5,530.8l-2.2-0.8l-6.2,17.6l2.2,0.8
		c1.3,0.5,2.2,0,2.9-1.7l4.4-12.8C357.2,532.1,356.6,531.3,355.5,530.8L355.5,530.8z M308.3,268.8l-0.3-0.3l0,0l-1.3-1.6
		c-0.3-0.6-1-1.1-1.6-1.3s-1.3,0-1.7,0.5l-1.6,1.3l4.9,6.3l1.3-1C309.3,271.6,309.6,270.5,308.3,268.8z M290,278.8l7.8,10.9l2.9-2.7
		L290,278.8z M358.5,239.3l1.7,13.3l3.8-1.1L358.5,239.3z M308.3,268.8l-0.3-0.3l0,0l-1.3-1.6c-0.3-0.6-1-1.1-1.6-1.3
		s-1.3,0-1.7,0.5l-1.6,1.3l4.9,6.3l1.3-1C309.3,271.6,309.6,270.5,308.3,268.8z M290,278.8l7.8,10.9l2.9-2.7L290,278.8z
		 M355.5,530.8l-2.2-0.8l-6.2,17.6l2.2,0.8c1.3,0.5,2.2,0,2.9-1.7l4.4-12.8C357.2,532.1,356.6,531.3,355.5,530.8L355.5,530.8z
		 M434.6,551.9l-2.7-14c-0.3-1.9-1.3-2.4-2.5-2.2c-1.3,0.2-1.9,1.1-1.6,3l2.7,14c0.3,1.7,1.3,2.4,2.5,2.1
		C434.3,554.4,434.9,553.8,434.6,551.9z M434.6,551.9l-2.7-14c-0.3-1.9-1.3-2.4-2.5-2.2c-1.3,0.2-1.9,1.1-1.6,3l2.7,14
		c0.3,1.7,1.3,2.4,2.5,2.1C434.3,554.4,434.9,553.8,434.6,551.9z M358.5,239.3l1.7,13.3l3.8-1.1L358.5,239.3z M355.5,530.8l-2.2-0.8
		l-6.2,17.6l2.2,0.8c1.3,0.5,2.2,0,2.9-1.7l4.4-12.8C357.2,532.1,356.6,531.3,355.5,530.8L355.5,530.8z M308.3,268.8l-0.3-0.3l0,0
		l-1.3-1.6c-0.3-0.6-1-1.1-1.6-1.3s-1.3,0-1.7,0.5l-1.6,1.3l4.9,6.3l1.3-1C309.3,271.6,309.6,270.5,308.3,268.8z M290,278.8
		l7.8,10.9l2.9-2.7L290,278.8z M358.5,239.3l1.7,13.3l3.8-1.1L358.5,239.3z M308.3,268.8l-0.3-0.3l0,0l-1.3-1.6
		c-0.3-0.6-1-1.1-1.6-1.3s-1.3,0-1.7,0.5l-1.6,1.3l4.9,6.3l1.3-1C309.3,271.6,309.6,270.5,308.3,268.8z M290,278.8l7.8,10.9l2.9-2.7
		L290,278.8z M355.5,530.8l-2.2-0.8l-6.2,17.6l2.2,0.8c1.3,0.5,2.2,0,2.9-1.7l4.4-12.8C357.2,532.1,356.6,531.3,355.5,530.8
		L355.5,530.8z M434.6,551.9l-2.7-14c-0.3-1.9-1.3-2.4-2.5-2.2c-1.3,0.2-1.9,1.1-1.6,3l2.7,14c0.3,1.7,1.3,2.4,2.5,2.1
		C434.3,554.4,434.9,553.8,434.6,551.9z M434.6,551.9l-2.7-14c-0.3-1.9-1.3-2.4-2.5-2.2c-1.3,0.2-1.9,1.1-1.6,3l2.7,14
		c0.3,1.7,1.3,2.4,2.5,2.1C434.3,554.4,434.9,553.8,434.6,551.9z M358.5,239.3l1.7,13.3l3.8-1.1L358.5,239.3z M355.5,530.8l-2.2-0.8
		l-6.2,17.6l2.2,0.8c1.3,0.5,2.2,0,2.9-1.7l4.4-12.8C357.2,532.1,356.6,531.3,355.5,530.8L355.5,530.8z M308.3,268.8l-0.3-0.3l0,0
		l-1.3-1.6c-0.3-0.6-1-1.1-1.6-1.3s-1.3,0-1.7,0.5l-1.6,1.3l4.9,6.3l1.3-1C309.3,271.6,309.6,270.5,308.3,268.8z M290,278.8
		l7.8,10.9l2.9-2.7L290,278.8z M358.5,239.3l1.7,13.3l3.8-1.1L358.5,239.3z M308.3,268.8l-0.3-0.3l0,0l-1.3-1.6
		c-0.3-0.6-1-1.1-1.6-1.3s-1.3,0-1.7,0.5l-1.6,1.3l4.9,6.3l1.3-1C309.3,271.6,309.6,270.5,308.3,268.8z M290,278.8l7.8,10.9l2.9-2.7
		L290,278.8z M355.5,530.8l-2.2-0.8l-6.2,17.6l2.2,0.8c1.3,0.5,2.2,0,2.9-1.7l4.4-12.8C357.2,532.1,356.6,531.3,355.5,530.8
		L355.5,530.8z M434.6,551.9l-2.7-14c-0.3-1.9-1.3-2.4-2.5-2.2c-1.3,0.2-1.9,1.1-1.6,3l2.7,14c0.3,1.7,1.3,2.4,2.5,2.1
		C434.3,554.4,434.9,553.8,434.6,551.9z M434.6,551.9l-2.7-14c-0.3-1.9-1.3-2.4-2.5-2.2c-1.3,0.2-1.9,1.1-1.6,3l2.7,14
		c0.3,1.7,1.3,2.4,2.5,2.1C434.3,554.4,434.9,553.8,434.6,551.9z M358.5,239.3l1.7,13.3l3.8-1.1L358.5,239.3z M355.5,530.8l-2.2-0.8
		l-6.2,17.6l2.2,0.8c1.3,0.5,2.2,0,2.9-1.7l4.4-12.8C357.2,532.1,356.6,531.3,355.5,530.8L355.5,530.8z M308.3,268.8l-0.3-0.3l0,0
		l-1.3-1.6c-0.3-0.6-1-1.1-1.6-1.3s-1.3,0-1.7,0.5l-1.6,1.3l4.9,6.3l1.3-1C309.3,271.6,309.6,270.5,308.3,268.8z M290,278.8
		l7.8,10.9l2.9-2.7L290,278.8z M358.5,239.3l1.7,13.3l3.8-1.1L358.5,239.3z M308.3,268.8l-0.3-0.3l0,0l-1.3-1.6
		c-0.3-0.6-1-1.1-1.6-1.3s-1.3,0-1.7,0.5l-1.6,1.3l4.9,6.3l1.3-1C309.3,271.6,309.6,270.5,308.3,268.8z M290,278.8l7.8,10.9l2.9-2.7
		L290,278.8z M355.5,530.8l-2.2-0.8l-6.2,17.6l2.2,0.8c1.3,0.5,2.2,0,2.9-1.7l4.4-12.8C357.2,532.1,356.6,531.3,355.5,530.8
		L355.5,530.8z M434.6,551.9l-2.7-14c-0.3-1.9-1.3-2.4-2.5-2.2c-1.3,0.2-1.9,1.1-1.6,3l2.7,14c0.3,1.7,1.3,2.4,2.5,2.1
		C434.3,554.4,434.9,553.8,434.6,551.9z M434.6,551.9l-2.7-14c-0.3-1.9-1.3-2.4-2.5-2.2c-1.3,0.2-1.9,1.1-1.6,3l2.7,14
		c0.3,1.7,1.3,2.4,2.5,2.1C434.3,554.4,434.9,553.8,434.6,551.9z M358.5,239.3l1.7,13.3l3.8-1.1L358.5,239.3z M355.5,530.8l-2.2-0.8
		l-6.2,17.6l2.2,0.8c1.3,0.5,2.2,0,2.9-1.7l4.4-12.8C357.2,532.1,356.6,531.3,355.5,530.8L355.5,530.8z M308.3,268.8l-0.3-0.3l0,0
		l-1.3-1.6c-0.3-0.6-1-1.1-1.6-1.3s-1.3,0-1.7,0.5l-1.6,1.3l4.9,6.3l1.3-1C309.3,271.6,309.6,270.5,308.3,268.8z M290,278.8
		l7.8,10.9l2.9-2.7L290,278.8z M358.5,239.3l1.7,13.3l3.8-1.1L358.5,239.3z M308.3,268.8l-0.3-0.3l0,0l-1.3-1.6
		c-0.3-0.6-1-1.1-1.6-1.3s-1.3,0-1.7,0.5l-1.6,1.3l4.9,6.3l1.3-1C309.3,271.6,309.6,270.5,308.3,268.8z M290,278.8l7.8,10.9l2.9-2.7
		L290,278.8z M355.5,530.8l-2.2-0.8l-6.2,17.6l2.2,0.8c1.3,0.5,2.2,0,2.9-1.7l4.4-12.8C357.2,532.1,356.6,531.3,355.5,530.8
		L355.5,530.8z M434.6,551.9l-2.7-14c-0.3-1.9-1.3-2.4-2.5-2.2c-1.3,0.2-1.9,1.1-1.6,3l2.7,14c0.3,1.7,1.3,2.4,2.5,2.1
		C434.3,554.4,434.9,553.8,434.6,551.9z M434.6,551.9l-2.7-14c-0.3-1.9-1.3-2.4-2.5-2.2c-1.3,0.2-1.9,1.1-1.6,3l2.7,14
		c0.3,1.7,1.3,2.4,2.5,2.1C434.3,554.4,434.9,553.8,434.6,551.9z M358.5,239.3l1.7,13.3l3.8-1.1L358.5,239.3z M355.5,530.8l-2.2-0.8
		l-6.2,17.6l2.2,0.8c1.3,0.5,2.2,0,2.9-1.7l4.4-12.8C357.2,532.1,356.6,531.3,355.5,530.8L355.5,530.8z M308.3,268.8l-0.3-0.3l0,0
		l-1.3-1.6c-0.3-0.6-1-1.1-1.6-1.3s-1.3,0-1.7,0.5l-1.6,1.3l4.9,6.3l1.3-1C309.3,271.6,309.6,270.5,308.3,268.8z M290,278.8
		l7.8,10.9l2.9-2.7L290,278.8z M358.5,239.3l1.7,13.3l3.8-1.1L358.5,239.3z M308.3,268.8l-0.3-0.3l0,0l-1.3-1.6
		c-0.3-0.6-1-1.1-1.6-1.3s-1.3,0-1.7,0.5l-1.6,1.3l4.9,6.3l1.3-1C309.3,271.6,309.6,270.5,308.3,268.8z M290,278.8l7.8,10.9l2.9-2.7
		L290,278.8z M355.5,530.8l-2.2-0.8l-6.2,17.6l2.2,0.8c1.3,0.5,2.2,0,2.9-1.7l4.4-12.8C357.2,532.1,356.6,531.3,355.5,530.8
		L355.5,530.8z M434.6,551.9l-2.7-14c-0.3-1.9-1.3-2.4-2.5-2.2c-1.3,0.2-1.9,1.1-1.6,3l2.7,14c0.3,1.7,1.3,2.4,2.5,2.1
		C434.3,554.4,434.9,553.8,434.6,551.9z M434.6,551.9l-2.7-14c-0.3-1.9-1.3-2.4-2.5-2.2c-1.3,0.2-1.9,1.1-1.6,3l2.7,14
		c0.3,1.7,1.3,2.4,2.5,2.1C434.3,554.4,434.9,553.8,434.6,551.9z M358.5,239.3l1.7,13.3l3.8-1.1L358.5,239.3z M355.5,530.8l-2.2-0.8
		l-6.2,17.6l2.2,0.8c1.3,0.5,2.2,0,2.9-1.7l4.4-12.8C357.2,532.1,356.6,531.3,355.5,530.8L355.5,530.8z M308.3,268.8l-0.3-0.3l0,0
		l-1.3-1.6c-0.3-0.6-1-1.1-1.6-1.3s-1.3,0-1.7,0.5l-1.6,1.3l4.9,6.3l1.3-1C309.3,271.6,309.6,270.5,308.3,268.8z M290,278.8
		l7.8,10.9l2.9-2.7L290,278.8z M358.5,239.3l1.7,13.3l3.8-1.1L358.5,239.3z M308.3,268.8l-0.3-0.3l0,0l-1.3-1.6
		c-0.3-0.6-1-1.1-1.6-1.3s-1.3,0-1.7,0.5l-1.6,1.3l4.9,6.3l1.3-1C309.3,271.6,309.6,270.5,308.3,268.8z M290,278.8l7.8,10.9l2.9-2.7
		L290,278.8z M355.5,530.8l-2.2-0.8l-6.2,17.6l2.2,0.8c1.3,0.5,2.2,0,2.9-1.7l4.4-12.8C357.2,532.1,356.6,531.3,355.5,530.8
		L355.5,530.8z M434.6,551.9l-2.7-14c-0.3-1.9-1.3-2.4-2.5-2.2c-1.3,0.2-1.9,1.1-1.6,3l2.7,14c0.3,1.7,1.3,2.4,2.5,2.1
		C434.3,554.4,434.9,553.8,434.6,551.9z M434.6,551.9l-2.7-14c-0.3-1.9-1.3-2.4-2.5-2.2c-1.3,0.2-1.9,1.1-1.6,3l2.7,14
		c0.3,1.7,1.3,2.4,2.5,2.1C434.3,554.4,434.9,553.8,434.6,551.9z M358.5,239.3l1.7,13.3l3.8-1.1L358.5,239.3z M355.5,530.8l-2.2-0.8
		l-6.2,17.6l2.2,0.8c1.3,0.5,2.2,0,2.9-1.7l4.4-12.8C357.2,532.1,356.6,531.3,355.5,530.8L355.5,530.8z M308.3,268.8l-0.3-0.3l0,0
		l-1.3-1.6c-0.3-0.6-1-1.1-1.6-1.3s-1.3,0-1.7,0.5l-1.6,1.3l4.9,6.3l1.3-1C309.3,271.6,309.6,270.5,308.3,268.8z M290,278.8
		l7.8,10.9l2.9-2.7L290,278.8z M308.3,268.8l-0.3-0.3l0,0l-1.3-1.6c-0.3-0.6-1-1.1-1.6-1.3s-1.3,0-1.7,0.5l-1.6,1.3l4.9,6.3l1.3-1
		C309.3,271.6,309.6,270.5,308.3,268.8L308.3,268.8z M290,278.8l7.8,10.9l2.9-2.7L290,278.8z M355.5,530.8l-2.2-0.8l-6.2,17.6
		l2.2,0.8c1.3,0.5,2.2,0,2.9-1.7l4.4-12.8C357.2,532.1,356.6,531.3,355.5,530.8L355.5,530.8z M434.6,551.9l-2.7-14
		c-0.3-1.9-1.3-2.4-2.5-2.2c-1.3,0.2-1.9,1.1-1.6,3l2.7,14c0.3,1.7,1.3,2.4,2.5,2.1C434.3,554.4,434.9,553.8,434.6,551.9z
		 M434.6,551.9l-2.7-14c-0.3-1.9-1.3-2.4-2.5-2.2c-1.3,0.2-1.9,1.1-1.6,3l2.7,14c0.3,1.7,1.3,2.4,2.5,2.1
		C434.3,554.4,434.9,553.8,434.6,551.9z M355.3,530.8l-2.2-0.8l-6.2,17.6l2.2,0.8c1.3,0.5,2.2,0,2.9-1.7l4.4-12.8
		C357.2,532.1,356.6,531.3,355.3,530.8L355.3,530.8z M308.3,268.8l-0.3-0.3l0,0l-1.3-1.6c-0.3-0.6-1-1.1-1.6-1.3s-1.3,0-1.7,0.5
		l-1.6,1.3l4.9,6.3l1.3-1C309.3,271.6,309.6,270.5,308.3,268.8z M290,278.8l7.8,10.9l2.9-2.7L290,278.8z M308.3,268.8l-0.3-0.3l0,0
		l-1.3-1.6c-0.3-0.6-1-1.1-1.6-1.3s-1.3,0-1.7,0.5l-1.6,1.3l4.9,6.3l1.3-1C309.3,271.6,309.6,270.5,308.3,268.8L308.3,268.8z
		 M290,278.8l7.8,10.9l2.9-2.7L290,278.8z M355.5,530.8l-2.2-0.8l-6.2,17.6l2.2,0.8c1.3,0.5,2.2,0,2.9-1.7l4.4-12.8
		C357.2,532.1,356.6,531.3,355.5,530.8L355.5,530.8z M434.6,551.9l-2.7-14c-0.3-1.9-1.3-2.4-2.5-2.2c-1.3,0.2-1.9,1.1-1.6,3l2.7,14
		c0.3,1.7,1.3,2.4,2.5,2.1C434.3,554.4,434.9,553.8,434.6,551.9z M434.6,551.9l-2.7-14c-0.3-1.9-1.3-2.4-2.5-2.2
		c-1.3,0.2-1.9,1.1-1.6,3l2.7,14c0.3,1.7,1.3,2.4,2.5,2.1C434.3,554.4,434.9,553.8,434.6,551.9z M355.3,530.8l-2.2-0.8l-6.2,17.6
		l2.2,0.8c1.3,0.5,2.2,0,2.9-1.7l4.4-12.8C357.2,532.1,356.6,531.3,355.3,530.8L355.3,530.8z M308.3,268.8l-0.3-0.3l0,0l-1.3-1.6
		c-0.3-0.6-1-1.1-1.6-1.3s-1.3,0-1.7,0.5l-1.6,1.3l4.9,6.3l1.3-1C309.3,271.6,309.6,270.5,308.3,268.8z M290,278.8l7.8,10.9l2.9-2.7
		L290,278.8z M290,278.8l7.8,10.9l2.9-2.7L290,278.8z M355.5,530.8l-2.2-0.8l-6.2,17.6l2.2,0.8c1.3,0.5,2.2,0,2.9-1.7l4.4-12.8
		C357.2,532.1,356.6,531.3,355.5,530.8L355.5,530.8z M434.6,551.9l-2.7-14c-0.3-1.9-1.3-2.4-2.5-2.2c-1.3,0.2-1.9,1.1-1.6,3l2.7,14
		c0.3,1.7,1.3,2.4,2.5,2.1C434.3,554.4,434.9,553.8,434.6,551.9z M434.6,551.9l-2.7-14c-0.3-1.9-1.3-2.4-2.5-2.2
		c-1.3,0.2-1.9,1.1-1.6,3l2.7,14c0.3,1.7,1.3,2.4,2.5,2.1C434.3,554.4,434.9,553.8,434.6,551.9z M355.3,530.8l-2.2-0.8l-6.2,17.6
		l2.2,0.8c1.3,0.5,2.2,0,2.9-1.7l4.4-12.8C357.2,532.1,356.6,531.3,355.3,530.8L355.3,530.8z M290,278.8l7.8,10.9l2.9-2.7L290,278.8
		z M355.5,530.8l-2.2-0.8l-6.2,17.6l2.2,0.8c1.3,0.5,2.2,0,2.9-1.7l4.4-12.8C357.2,532.1,356.6,531.3,355.5,530.8L355.5,530.8z
		 M434.6,551.9l-2.7-14c-0.3-1.9-1.3-2.4-2.5-2.2c-1.3,0.2-1.9,1.1-1.6,3l2.7,14c0.3,1.7,1.3,2.4,2.5,2.1
		C434.3,554.4,434.9,553.8,434.6,551.9z M434.6,551.9l-2.7-14c-0.3-1.9-1.3-2.4-2.5-2.2c-1.3,0.2-1.9,1.1-1.6,3l2.7,14
		c0.3,1.7,1.3,2.4,2.5,2.1C434.3,554.4,434.9,553.8,434.6,551.9z M355.3,530.8l-2.2-0.8l-6.2,17.6l2.2,0.8c1.3,0.5,2.2,0,2.9-1.7
		l4.4-12.8C357.2,532.1,356.6,531.3,355.3,530.8L355.3,530.8z M355.3,530.8l-2.2-0.8l-6.2,17.6l2.2,0.8c1.3,0.5,2.2,0,2.9-1.7
		l4.4-12.8C357.2,532.1,356.6,531.3,355.3,530.8L355.3,530.8z M434.6,551.9l-2.7-14c-0.3-1.9-1.3-2.4-2.5-2.2
		c-1.3,0.2-1.9,1.1-1.6,3l2.7,14c0.3,1.7,1.3,2.4,2.5,2.1C434.3,554.4,434.9,553.8,434.6,551.9z M434.6,551.9l-2.7-14
		c-0.3-1.9-1.3-2.4-2.5-2.2c-1.3,0.2-1.9,1.1-1.6,3l2.7,14c0.3,1.7,1.3,2.4,2.5,2.1C434.3,554.4,434.9,553.8,434.6,551.9z
		 M355.3,530.8l-2.2-0.8l-6.2,17.6l2.2,0.8c1.3,0.5,2.2,0,2.9-1.7l4.4-12.8C357.2,532.1,356.6,531.3,355.3,530.8L355.3,530.8z
		 M355.3,530.8l-2.2-0.8l-6.2,17.6l2.2,0.8c1.3,0.5,2.2,0,2.9-1.7l4.4-12.8C357.2,532.1,356.6,531.3,355.3,530.8L355.3,530.8z
		 M434.6,551.9l-2.7-14c-0.3-1.9-1.3-2.4-2.5-2.2c-1.3,0.2-1.9,1.1-1.6,3l2.7,14c0.3,1.7,1.3,2.4,2.5,2.1
		C434.3,554.4,434.9,553.8,434.6,551.9z M434.6,551.9l-2.7-14c-0.3-1.9-1.3-2.4-2.5-2.2c-1.3,0.2-1.9,1.1-1.6,3l2.7,14
		c0.3,1.7,1.3,2.4,2.5,2.1C434.3,554.4,434.9,553.8,434.6,551.9z M355.3,530.8l-2.2-0.8l-6.2,17.6l2.2,0.8c1.3,0.5,2.2,0,2.9-1.7
		l4.4-12.8C357.2,532.1,356.6,531.3,355.3,530.8L355.3,530.8z M355.3,530.8l-2.2-0.8l-6.2,17.6l2.2,0.8c1.3,0.5,2.2,0,2.9-1.7
		l4.4-12.8C357.2,532.1,356.6,531.3,355.3,530.8L355.3,530.8z M434.6,551.9l-2.7-14c-0.3-1.9-1.3-2.4-2.5-2.2
		c-1.3,0.2-1.9,1.1-1.6,3l2.7,14c0.3,1.7,1.3,2.4,2.5,2.1C434.3,554.4,434.9,553.8,434.6,551.9z M434.6,551.9l-2.7-14
		c-0.3-1.9-1.3-2.4-2.5-2.2c-1.3,0.2-1.9,1.1-1.6,3l2.7,14c0.3,1.7,1.3,2.4,2.5,2.1C434.3,554.4,434.9,553.8,434.6,551.9z
		 M355.3,530.8l-2.2-0.8l-6.2,17.6l2.2,0.8c1.3,0.5,2.2,0,2.9-1.7l4.4-12.8C357.2,532.1,356.6,531.3,355.3,530.8L355.3,530.8z
		 M434.6,551.9l-2.7-14c-0.3-1.9-1.3-2.4-2.5-2.2c-1.3,0.2-1.9,1.1-1.6,3l2.7,14c0.3,1.7,1.3,2.4,2.5,2.1
		C434.3,554.4,434.9,553.8,434.6,551.9z M434.6,551.9l-2.7-14c-0.3-1.9-1.3-2.4-2.5-2.2c-1.3,0.2-1.9,1.1-1.6,3l2.7,14
		c0.3,1.7,1.3,2.4,2.5,2.1C434.3,554.4,434.9,553.8,434.6,551.9z M434.6,551.9l-2.7-14c-0.3-1.9-1.3-2.4-2.5-2.2
		c-1.3,0.2-1.9,1.1-1.6,3l2.7,14c0.3,1.7,1.3,2.4,2.5,2.1C434.3,554.4,434.9,553.8,434.6,551.9z M434.6,551.9l-2.7-14
		c-0.3-1.9-1.3-2.4-2.5-2.2c-1.3,0.2-1.9,1.1-1.6,3l2.7,14c0.3,1.7,1.3,2.4,2.5,2.1C434.3,554.4,434.9,553.8,434.6,551.9z"/>
	<path class="st2" d="M307.6,457.7l-2.2,3c-0.3-1-0.5-2.1-0.5-3H307.6z"/>
	<path class="st2" d="M305.8,461.7h-1.1l0.6-1C305.5,461,305.7,461.3,305.8,461.7z"/>
	<path class="st2" d="M388,458.5l-0.3,0.2l0.2-0.2H388z"/>
	<polygon class="st2" points="363.5,433.6 363.5,433.6 342.5,433.6 342.5,419.9 324.7,425.2 311.5,429.1 311.5,429.1 324.7,425.2 
		342.5,419.9 342.5,433.6 	"/>
	<path class="st2" d="M394.8,405v32.8c0,10.3-8.4,18.7-18.9,18.7h-59.5v-23.6l9.7-2.9l11.3-3.3v12.1h31.2v-35.1h-37.9
		c-8.1,0-15.2-5.2-17.8-12.8h75.3c0.6,0.5,1.3,1.1,1.7,1.7c0.3,0.5,0.8,0.8,1.1,1.3c1.9,2.5,3.2,5.7,3.6,8.9
		C394.6,403.6,394.8,404.2,394.8,405z"/>
	<path class="st2" d="M411,451L411,451l-0.3-0.5C410.8,450.7,411,450.9,411,451z"/>
	<path class="st2" d="M493.3,432.6v24h-63c-9.8,0-17.9-8.1-17.9-17.9l0,0v-47.9h26v49.2h34.3v-13.5L493.3,432.6z"/>
	<polygon class="st2" points="498.4,429 498.4,429 467.6,419.6 467.6,419.6 	"/>
	<path class="st2" d="M342.5,433.6v-13.8l-17.8,5.2l-13.3,4l0,0l13.3-4l17.8-5.2V433.6L342.5,433.6L342.5,433.6z M387.8,458.5
		l-0.2,0.2l0.3-0.2H387.8z M395.1,390.8L395.1,390.8z"/>
	<path class="st2" d="M363.9,356.2L363.9,356.2L363.9,356.2l0.2,0.2l0,0v-0.2H363.9z M407.3,390.1L407.3,390.1L407.3,390.1
		L407.3,390.1z M364,356.2L364,356.2L364,356.2L364,356.2L364,356.2l0.2,0.2v-0.2H364z M375.9,381.1h-15.5l-17.3-16.7v16.7h33.5
		C376.4,381.1,376.1,381.1,375.9,381.1z M377.7,381.1L377.7,381.1h-0.3c-0.3,0-0.5,0-0.8,0h0.5l0,0h0.8H377.7z M380.4,381.4h-1
		l1.3,0.3L380.4,381.4z M378.8,381.2L378.8,381.2h-0.2H378l1.3,0.2L378.8,381.2z M386.9,383.6l-0.3-0.2l0,0l0,0
		c-0.2,0-0.3-0.2-0.5-0.2s-0.3-0.2-0.5-0.2l-0.3-0.2l0.3,0.2c0.2,0,0.3,0.2,0.5,0.2c0.2,0,0.3,0.2,0.5,0.2c0.2,0.2,0.5,0.2,0.6,0.3
		C387,383.8,386.9,383.8,386.9,383.6z M386.1,383.3c-0.2-0.2-0.3-0.2-0.5-0.2l-0.5-0.2l0,0l0,0l-0.3-0.2l0.5,0.2l0.3,0.2l0,0
		l-0.3-0.2l0.3,0.2C385.8,383.1,385.9,383.1,386.1,383.3z M385.3,383l0.3,0.2l0,0L385.3,383z M381,381.6h-0.3l0.6,0.2L381,381.6z
		 M381.6,381.7L381.6,381.7l0.5,0.2L381.6,381.7z M393.4,388.7l-0.5-0.5c0.2,0.2,0.3,0.5,0.6,0.6l0,0
		C393.4,388.7,393.4,388.7,393.4,388.7z M392.3,387.6l-0.3-0.3c0,0-0.2,0-0.2-0.2L392.3,387.6L392.3,387.6L392.3,387.6L392.3,387.6z
		 M392.6,387.7C392.6,387.7,392.4,387.7,392.6,387.7L392.6,387.7l-0.2-0.2l0,0c0.2,0.2,0.3,0.3,0.5,0.5
		C392.7,388.1,392.7,387.9,392.6,387.7z M388.8,384.9l-0.3-0.2c0.2,0.2,0.5,0.3,0.6,0.5l0,0L388.8,384.9z M363.9,356.2L363.9,356.2
		l0.2,0.2l0,0v-0.2H363.9z M402.6,379.5L402.6,379.5L402.6,379.5l-1.1-1.1l-0.6-0.6l-4.4-4.6l-9.7-10l-4.9,1.4l-7.3,2.2L364,370
		v-13.8h-21.1v24.9H378l1.3,0.2l1.1,0.2l0,0h0.3l0.8,0.2l0.8,0.2l0.8,0.2l1,0.3l0.5,0.2l0.5,0.2l0.3,0.2l0,0l0.5,0.2
		c0.2,0,0.3,0.2,0.5,0.2s0.3,0.2,0.5,0.2l0,0l0,0c0.2,0,0.3,0.2,0.5,0.3l0,0c0.2,0,0.2,0,0.2,0.2l0.2,0.2l0.2,0.2l0.2,0.2h0.2
		l0.2,0.2h0.2c0.5,0.3,1,0.6,1.3,1c0.5,0.3,1,0.6,1.3,1c0.6,0.5,1.3,1.1,1.7,1.6c0.2,0.2,0.3,0.5,0.5,0.6l1.4-1.6l0.3,0.3l-0.2,0.2
		l7.6,7.6l4.8-4.8v-5.7L402.6,379.5z M402.6,379.5L402.6,379.5L402.6,379.5l-1.1-1.1l-0.6-0.6l-4.4-4.6l-9.7-10l-4.9,1.4l-7.3,2.2
		L364,370v-13.8h-21.1v24.9H378l1.3,0.2l1.1,0.2l0,0h0.3l0.8,0.2l0.8,0.2l0.8,0.2l1,0.3l0.5,0.2l0.5,0.2l0.3,0.2l0,0l0.5,0.2
		c0.2,0,0.3,0.2,0.5,0.2s0.3,0.2,0.5,0.2l0,0l0,0c0.2,0,0.3,0.2,0.5,0.3l0,0c0.2,0,0.2,0,0.2,0.2l0.2,0.2l0.2,0.2l0.2,0.2h0.2
		l0.2,0.2h0.2c0.5,0.3,1,0.6,1.3,1c0.5,0.3,1,0.6,1.3,1c0.6,0.5,1.3,1.1,1.7,1.6c0.2,0.2,0.3,0.5,0.5,0.6c0.6,0.6,1.1,1.3,1.6,1.9
		l0.5,0.6c0.2,0.2,0.3,0.5,0.5,0.6c0.2,0.3,0.5,0.8,0.6,1.1l0.3,0.6c0.3,0.5,0.5,1,0.6,1.4c0.2,0.5,0.3,0.6,0.5,0.8l0.3,1
		c0.2,0.3,0.2,0.6,0.3,1l0.2,0.6l3.8-3.2l4.8-4.8v-5.7L402.6,379.5z M402.6,379.5L402.6,379.5L402.6,379.5l-1.1-1.1l-0.6-0.6
		l-4.4-4.6l-9.7-10l-4.9,1.4l-7.3,2.2L364,370v-13.8h-21.1v24.9H378l1.3,0.2l1.1,0.2l0,0h0.3l0.8,0.2l0.8,0.2l0.8,0.2l1,0.3l0.5,0.2
		l0.5,0.2l0.3,0.2l0,0l0.5,0.2c0.2,0,0.3,0.2,0.5,0.2s0.3,0.2,0.5,0.2l0,0l0,0c0.2,0,0.3,0.2,0.5,0.3l0,0c0.2,0,0.2,0,0.2,0.2
		l0.2,0.2l0.2,0.2l0.2,0.2h0.2l0.2,0.2h0.2c0.5,0.3,1,0.6,1.3,1c0.5,0.3,1,0.6,1.3,1c0.6,0.5,1.3,1.1,1.7,1.6
		c0.2,0.2,0.3,0.5,0.5,0.6c0.6,0.6,1.1,1.3,1.6,1.9l0.5,0.6c0.2,0.2,0.3,0.5,0.5,0.6c0.2,0.3,0.5,0.8,0.6,1.1l0.3,0.6
		c0.3,0.5,0.5,1,0.6,1.4c0.2,0.5,0.3,0.6,0.5,0.8l0.3,1c0.2,0.3,0.2,0.6,0.3,1l0.2,0.6l3.8-3.2l4.8-4.8v-5.7L402.6,379.5z
		 M402.6,379.5L402.6,379.5l-7.5,7.6l-0.2,0.2l7.6,7.6l4.8-4.8v-15.5L402.6,379.5z M395.1,387.3L395.1,387.3l7.3-7.6l0.2-0.2
		l-0.2-0.2l-1-1l-0.6-0.6l-4.4-4.6l-9.7-10l-4.9,1.4l-7.3,2.2L364,370v-13.8h-21.1v24.9H378l1.3,0.2l1.1,0.2l0,0h0.3l0.8,0.2
		l0.8,0.2l0.8,0.2l1,0.3l0.5,0.2l0.5,0.2l0.3,0.2l0,0l0.5,0.2c0.2,0,0.3,0.2,0.5,0.2s0.3,0.2,0.5,0.2l0,0l0,0c0.2,0,0.3,0.2,0.5,0.3
		l0,0c0.2,0,0.2,0,0.2,0.2l0.2,0.2l0.2,0.2l0.2,0.2h0.2l0.2,0.2h0.2c0.5,0.3,1,0.6,1.3,1c0.5,0.3,1,0.6,1.3,1
		c0.6,0.5,1.3,1.1,1.7,1.6c0.2,0.2,0.3,0.5,0.5,0.6c0.6,0.6,1.1,1.3,1.6,1.9l0.5,0.6c0.2,0.2,0.3,0.5,0.5,0.6
		c0.2,0.3,0.5,0.8,0.6,1.1l0.3,0.6c0.3,0.5,0.5,1,0.6,1.4c0.2,0.5,0.3,0.6,0.5,0.8l0.3,1c0.2,0.3,0.2,0.6,0.3,1l0.2,0.6l3.8-3.2
		L395.1,387.3L395.1,387.3z M443.6,422v13h12.5l0,0L443.6,422z M402.6,379.5L402.6,379.5l-7.5,7.6l-0.2,0.2l7.6,7.6l4.8-4.8v-15.5
		L402.6,379.5z M395.1,387.3L395.1,387.3l7.3-7.6l0.2-0.2l-0.2-0.2l-1-1l-0.6-0.6l-4.4-4.6l-9.7-10l-4.9,1.4l-7.3,2.2L364,370v-13.8
		h-21.1v24.9H378l1.3,0.2l1.1,0.2l0,0h0.3l0.8,0.2l0.8,0.2l0.8,0.2l1,0.3l0.5,0.2l0.5,0.2l0.3,0.2l0,0l0.5,0.2
		c0.2,0,0.3,0.2,0.5,0.2s0.3,0.2,0.5,0.2l0,0l0,0c0.2,0,0.3,0.2,0.5,0.3l0,0c0.2,0,0.2,0,0.2,0.2l0.2,0.2l0.2,0.2l0.2,0.2h0.2
		l0.2,0.2h0.2c0.5,0.3,1,0.6,1.3,1c0.5,0.3,1,0.6,1.3,1c0.6,0.5,1.3,1.1,1.7,1.6c0.2,0.2,0.3,0.5,0.5,0.6c0.6,0.6,1.1,1.3,1.6,1.9
		l0.5,0.6c0.2,0.2,0.3,0.5,0.5,0.6c0.2,0.3,0.5,0.8,0.6,1.1l0.3,0.6c0.3,0.5,0.5,1,0.6,1.4c0.2,0.5,0.3,0.6,0.5,0.8l0.3,1
		c0.2,0.3,0.2,0.6,0.3,1l0.2,0.6l3.8-3.2L395.1,387.3L395.1,387.3z M443.6,422v13h12.5l0,0L443.6,422z M402.6,379.5L402.6,379.5
		l-7.5,7.6l-0.2,0.2l7.6,7.6l4.8-4.8v-15.5L402.6,379.5z M395.1,387.3L395.1,387.3l7.3-7.6l0.2-0.2l-0.2-0.2l-1-1l-0.6-0.6l-4.4-4.6
		l-9.7-10l-4.9,1.4l-7.3,2.2L364,370v-13.8h-21.1v24.9H378l1.3,0.2l1.1,0.2l0,0h0.3l0.8,0.2l0.8,0.2l0.8,0.2l1,0.3l0.5,0.2l0.5,0.2
		l0.3,0.2l0,0l0.5,0.2c0.2,0,0.3,0.2,0.5,0.2s0.3,0.2,0.5,0.2l0,0l0,0c0.2,0,0.3,0.2,0.5,0.3l0,0c0.2,0,0.2,0,0.2,0.2l0.2,0.2
		l0.2,0.2l0.2,0.2h0.2l0.2,0.2h0.2c0.5,0.3,1,0.6,1.3,1c0.5,0.3,1,0.6,1.3,1c0.6,0.5,1.3,1.1,1.7,1.6c0.2,0.2,0.3,0.5,0.5,0.6
		c0.6,0.6,1.1,1.3,1.6,1.9l0.5,0.6c0.2,0.2,0.3,0.5,0.5,0.6c0.2,0.3,0.5,0.8,0.6,1.1l0.3,0.6c0.3,0.5,0.5,1,0.6,1.4
		c0.2,0.5,0.3,0.6,0.5,0.8l0.3,1c0.2,0.3,0.2,0.6,0.3,1l0.2,0.6l3.8-3.2L395.1,387.3L395.1,387.3z M443.6,422v13h12.5l0,0L443.6,422
		z M402.6,379.5L402.6,379.5l-7.5,7.6l-0.2,0.2l7.6,7.6l4.8-4.8v-15.5L402.6,379.5z M395.1,387.3L395.1,387.3l7.3-7.6l0.2-0.2
		l-0.2-0.2l-1-1l-0.6-0.6l-4.4-4.6l-9.7-10l-4.9,1.4l-7.3,2.2L364,370v-13.8h-21.1v24.9H378l1.3,0.2l1.1,0.2l0,0h0.3l0.8,0.2
		l0.8,0.2l0.8,0.2l1,0.3l0.5,0.2l0.5,0.2l0.3,0.2l0,0l0.5,0.2c0.2,0,0.3,0.2,0.5,0.2s0.3,0.2,0.5,0.2l0,0l0,0c0.2,0,0.3,0.2,0.5,0.3
		l0,0c0.2,0,0.2,0,0.2,0.2l0.2,0.2l0.2,0.2l0.2,0.2h0.2l0.2,0.2h0.2c0.5,0.3,1,0.6,1.3,1c0.5,0.3,1,0.6,1.3,1
		c0.6,0.5,1.3,1.1,1.7,1.6c0.2,0.2,0.3,0.5,0.5,0.6c0.6,0.6,1.1,1.3,1.6,1.9l0.5,0.6c0.2,0.2,0.3,0.5,0.5,0.6
		c0.2,0.3,0.5,0.8,0.6,1.1l0.3,0.6c0.3,0.5,0.5,1,0.6,1.4c0.2,0.5,0.3,0.6,0.5,0.8l0.3,1c0.2,0.3,0.2,0.6,0.3,1l0.2,0.6l3.8-3.2
		L395.1,387.3L395.1,387.3z M443.6,422v13h12.5l0,0L443.6,422z M402.6,379.5L402.6,379.5l-7.5,7.6l-0.2,0.2l7.6,7.6l4.8-4.8v-15.5
		L402.6,379.5z M395.1,387.3L395.1,387.3l7.3-7.6l0.2-0.2l-0.2-0.2l-1-1l-0.6-0.6l-4.4-4.6l-9.7-10l-4.9,1.4l-7.3,2.2L364,370v-13.8
		h-21.1v24.9H378l1.3,0.2l1.1,0.2l0,0h0.3l0.8,0.2l0.8,0.2l0.8,0.2l1,0.3l0.5,0.2l0.5,0.2l0.3,0.2l0,0l0.5,0.2
		c0.2,0,0.3,0.2,0.5,0.2s0.3,0.2,0.5,0.2l0,0l0,0c0.2,0,0.3,0.2,0.5,0.3l0,0c0.2,0,0.2,0,0.2,0.2l0.2,0.2l0.2,0.2l0.2,0.2h0.2
		l0.2,0.2h0.2c0.5,0.3,1,0.6,1.3,1c0.5,0.3,1,0.6,1.3,1c0.6,0.5,1.3,1.1,1.7,1.6c0.2,0.2,0.3,0.5,0.5,0.6c0.6,0.6,1.1,1.3,1.6,1.9
		l0.5,0.6c0.2,0.2,0.3,0.5,0.5,0.6c0.2,0.3,0.5,0.8,0.6,1.1l0.3,0.6c0.3,0.5,0.5,1,0.6,1.4c0.2,0.5,0.3,0.6,0.5,0.8l0.3,1
		c0.2,0.3,0.2,0.6,0.3,1l0.2,0.6l3.8-3.2L395.1,387.3L395.1,387.3z M443.6,422v13h12.5l0,0L443.6,422z M402.6,379.5L402.6,379.5
		l-7.5,7.6l-0.2,0.2l7.6,7.6l4.8-4.8v-15.5L402.6,379.5z M395.1,387.3L395.1,387.3l7.3-7.6l0.2-0.2l-0.2-0.2l-1-1l-0.6-0.6l-4.4-4.6
		l-9.7-10l-4.9,1.4l-7.3,2.2L364,370v-13.8h-21.1v24.9H378l1.3,0.2l1.1,0.2l0,0h0.3l0.8,0.2l0.8,0.2l0.8,0.2l1,0.3l0.5,0.2l0.5,0.2
		l0.3,0.2l0,0l0.5,0.2c0.2,0,0.3,0.2,0.5,0.2s0.3,0.2,0.5,0.2l0,0l0,0c0.2,0,0.3,0.2,0.5,0.3l0,0c0.2,0,0.2,0,0.2,0.2l0.2,0.2
		l0.2,0.2l0.2,0.2h0.2l0.2,0.2h0.2c0.5,0.3,1,0.6,1.3,1c0.5,0.3,1,0.6,1.3,1c0.6,0.5,1.3,1.1,1.7,1.6c0.2,0.2,0.3,0.5,0.5,0.6
		c0.6,0.6,1.1,1.3,1.6,1.9l0.5,0.6c0.2,0.2,0.3,0.5,0.5,0.6c0.2,0.3,0.5,0.8,0.6,1.1l0.3,0.6c0.3,0.5,0.5,1,0.6,1.4
		c0.2,0.5,0.3,0.6,0.5,0.8l0.3,1c0.2,0.3,0.2,0.6,0.3,1l0.2,0.6l3.8-3.2L395.1,387.3L395.1,387.3z M443.6,422v13h12.5l0,0L443.6,422
		z M402.6,379.5L402.6,379.5l-7.5,7.6l-0.2,0.2l7.6,7.6l4.8-4.8v-15.5L402.6,379.5z M395.1,387.3L395.1,387.3l7.3-7.6l0.2-0.2
		l-0.2-0.2l-1-1l-0.6-0.6l-4.4-4.6l-9.7-10l-4.9,1.4l-7.3,2.2L364,370v-13.8h-21.1v24.9H378l1.3,0.2l1.1,0.2l0,0h0.3l0.8,0.2
		l0.8,0.2l0.8,0.2l1,0.3l0.5,0.2l0.5,0.2l0.3,0.2l0,0l0.5,0.2c0.2,0,0.3,0.2,0.5,0.2s0.3,0.2,0.5,0.2l0,0l0,0c0.2,0,0.3,0.2,0.5,0.3
		l0,0c0.2,0,0.2,0,0.2,0.2l0.2,0.2l0.2,0.2l0.2,0.2h0.2l0.2,0.2h0.2c0.5,0.3,1,0.6,1.3,1c0.5,0.3,1,0.6,1.3,1
		c0.6,0.5,1.3,1.1,1.7,1.6c0.2,0.2,0.3,0.5,0.5,0.6c0.6,0.6,1.1,1.3,1.6,1.9l0.5,0.6c0.2,0.2,0.3,0.5,0.5,0.6
		c0.2,0.3,0.5,0.8,0.6,1.1l0.3,0.6c0.3,0.5,0.5,1,0.6,1.4c0.2,0.5,0.3,0.6,0.5,0.8l0.3,1c0.2,0.3,0.2,0.6,0.3,1l0.2,0.6l3.8-3.2
		L395.1,387.3L395.1,387.3z M443.6,422v13h12.5l0,0L443.6,422z M402.6,379.5L402.6,379.5l-7.5,7.6l-0.2,0.2l7.6,7.6l4.8-4.8v-15.5
		L402.6,379.5z M395.1,387.3L395.1,387.3l7.3-7.6l0.2-0.2l-0.2-0.2l-1-1l-0.6-0.6l-4.4-4.6l-9.7-10l-4.9,1.4l-7.3,2.2L364,370v-13.8
		h-21.1v24.9H378l1.3,0.2l1.1,0.2l0,0h0.3l0.8,0.2l0.8,0.2l0.8,0.2l1,0.3l0.5,0.2l0.5,0.2l0.3,0.2l0,0l0.5,0.2
		c0.2,0,0.3,0.2,0.5,0.2s0.3,0.2,0.5,0.2l0,0l0,0c0.2,0,0.3,0.2,0.5,0.3l0,0c0.2,0,0.2,0,0.2,0.2l0.2,0.2l0.2,0.2l0.2,0.2h0.2
		l0.2,0.2h0.2c0.5,0.3,1,0.6,1.3,1c0.5,0.3,1,0.6,1.3,1c0.6,0.5,1.3,1.1,1.7,1.6c0.2,0.2,0.3,0.5,0.5,0.6c0.6,0.6,1.1,1.3,1.6,1.9
		l0.5,0.6c0.2,0.2,0.3,0.5,0.5,0.6c0.2,0.3,0.5,0.8,0.6,1.1l0.3,0.6c0.3,0.5,0.5,1,0.6,1.4c0.2,0.5,0.3,0.6,0.5,0.8l0.3,1
		c0.2,0.3,0.2,0.6,0.3,1l0.2,0.6l3.8-3.2L395.1,387.3L395.1,387.3z M443.6,422v13h12.5l0,0L443.6,422z M402.6,379.5L402.6,379.5
		l-7.5,7.6l-0.2,0.2l7.6,7.6l4.8-4.8v-15.5L402.6,379.5z M395.1,387.3L395.1,387.3l7.3-7.6l0.2-0.2l-0.2-0.2l-1-1l-0.6-0.6l-4.4-4.6
		l-9.7-10l-4.9,1.4l-7.3,2.2L364,370v-13.8h-21.1v24.9H378l1.3,0.2l1.1,0.2l0,0h0.3l0.8,0.2l0.8,0.2l0.8,0.2l1,0.3l0.5,0.2l0.5,0.2
		l0.3,0.2l0,0l0.5,0.2c0.2,0,0.3,0.2,0.5,0.2s0.3,0.2,0.5,0.2l0,0l0,0c0.2,0,0.3,0.2,0.5,0.3l0,0c0.2,0,0.2,0,0.2,0.2l0.2,0.2
		l0.2,0.2l0.2,0.2h0.2l0.2,0.2h0.2c0.5,0.3,1,0.6,1.3,1c0.5,0.3,1,0.6,1.3,1c0.6,0.5,1.3,1.1,1.7,1.6c0.2,0.2,0.3,0.5,0.5,0.6
		c0.6,0.6,1.1,1.3,1.6,1.9l0.5,0.6c0.2,0.2,0.3,0.5,0.5,0.6c0.2,0.3,0.5,0.8,0.6,1.1l0.3,0.6c0.3,0.5,0.5,1,0.6,1.4
		c0.2,0.5,0.3,0.6,0.5,0.8l0.3,1c0.2,0.3,0.2,0.6,0.3,1l0.2,0.6l3.8-3.2L395.1,387.3L395.1,387.3z M443.6,422v13h12.5l0,0L443.6,422
		z M402.6,379.5L402.6,379.5l-7.5,7.6l-0.2,0.2l7.6,7.6l4.8-4.8v-15.5L402.6,379.5z M395.1,387.3L395.1,387.3l7.3-7.6l0.2-0.2
		l-0.2-0.2l-1-1l-0.6-0.6l-4.4-4.6l-9.7-10l-4.9,1.4l-7.3,2.2L364,370v-13.8h-21.1v24.9H378l1.3,0.2l1.1,0.2l0,0h0.3l0.8,0.2
		l0.8,0.2l0.8,0.2l1,0.3l0.5,0.2l0.5,0.2l0.3,0.2l0,0l0.5,0.2c0.2,0,0.3,0.2,0.5,0.2s0.3,0.2,0.5,0.2l0,0l0,0c0.2,0,0.3,0.2,0.5,0.3
		l0,0c0.2,0,0.2,0,0.2,0.2l0.2,0.2l0.2,0.2l0.2,0.2h0.2l0.2,0.2h0.2c0.5,0.3,1,0.6,1.3,1c0.5,0.3,1,0.6,1.3,1
		c0.6,0.5,1.3,1.1,1.7,1.6c0.2,0.2,0.3,0.5,0.5,0.6c0.6,0.6,1.1,1.3,1.6,1.9l0.5,0.6c0.2,0.2,0.3,0.5,0.5,0.6
		c0.2,0.3,0.5,0.8,0.6,1.1l0.3,0.6c0.3,0.5,0.5,1,0.6,1.4c0.2,0.5,0.3,0.6,0.5,0.8l0.3,1c0.2,0.3,0.2,0.6,0.3,1l0.2,0.6l3.8-3.2
		L395.1,387.3L395.1,387.3z M443.6,422v13h12.5l0,0L443.6,422z M402.6,379.5L402.6,379.5l-7.5,7.6l-0.2,0.2l7.6,7.6l4.8-4.8v-15.5
		L402.6,379.5z M395.1,387.3L395.1,387.3l7.3-7.6l0.2-0.2l-0.2-0.2l-1-1l-0.6-0.6l-4.4-4.6l-9.7-10l-4.9,1.4l-7.3,2.2L364,370v-13.8
		h-21.1v24.9H378l1.3,0.2l1.1,0.2l0,0h0.3l0.8,0.2l0.8,0.2l0.8,0.2l1,0.3l0.5,0.2l0.5,0.2l0.3,0.2l0,0l0.5,0.2
		c0.2,0,0.3,0.2,0.5,0.2s0.3,0.2,0.5,0.2l0,0l0,0c0.2,0,0.3,0.2,0.5,0.3l0,0c0.2,0,0.2,0,0.2,0.2l0.2,0.2l0.2,0.2l0.2,0.2h0.2
		l0.2,0.2h0.2c0.5,0.3,1,0.6,1.3,1c0.5,0.3,1,0.6,1.3,1c0.6,0.5,1.3,1.1,1.7,1.6c0.2,0.2,0.3,0.5,0.5,0.6c0.6,0.6,1.1,1.3,1.6,1.9
		l0.5,0.6c0.2,0.2,0.3,0.5,0.5,0.6c0.2,0.3,0.5,0.8,0.6,1.1l0.3,0.6c0.3,0.5,0.5,1,0.6,1.4c0.2,0.5,0.3,0.6,0.5,0.8l0.3,1
		c0.2,0.3,0.2,0.6,0.3,1l0.2,0.6l3.8-3.2L395.1,387.3L395.1,387.3z M443.6,422v13h12.5l0,0L443.6,422z M402.6,379.5L402.6,379.5
		l-7.5,7.6l-0.2,0.2l7.6,7.6l4.8-4.8v-15.5L402.6,379.5z M395.1,387.3L395.1,387.3l7.3-7.6l0.2-0.2l-0.2-0.2l-1-1l-0.6-0.6l-4.4-4.6
		l-9.7-10l-4.9,1.4l-7.3,2.2L364,370v-13.8h-21.1v24.9H378l1.3,0.2l1.1,0.2l0,0h0.3l0.8,0.2l0.8,0.2l0.8,0.2l1,0.3l0.5,0.2l0.5,0.2
		l0.3,0.2l0,0l0.5,0.2c0.2,0,0.3,0.2,0.5,0.2s0.3,0.2,0.5,0.2l0,0l0,0c0.2,0,0.3,0.2,0.5,0.3l0,0c0.2,0,0.2,0,0.2,0.2l0.2,0.2
		l0.2,0.2l0.2,0.2h0.2l0.2,0.2h0.2c0.5,0.3,1,0.6,1.3,1c0.5,0.3,1,0.6,1.3,1c0.6,0.5,1.3,1.1,1.7,1.6c0.2,0.2,0.3,0.5,0.5,0.6
		c0.6,0.6,1.1,1.3,1.6,1.9l0.5,0.6c0.2,0.2,0.3,0.5,0.5,0.6c0.2,0.3,0.5,0.8,0.6,1.1l0.3,0.6c0.3,0.5,0.5,1,0.6,1.4
		c0.2,0.5,0.3,0.6,0.5,0.8l0.3,1c0.2,0.3,0.2,0.6,0.3,1l0.2,0.6l3.8-3.2L395.1,387.3L395.1,387.3z M443.6,422v13h12.5l0,0L443.6,422
		z M402.6,379.5L402.6,379.5l-7.5,7.6l-0.2,0.2l7.6,7.6l4.8-4.8v-15.5L402.6,379.5z M395.1,387.3L395.1,387.3l7.3-7.6l0.2-0.2
		l-0.2-0.2l-1-1l-0.6-0.6l-4.4-4.6l-9.7-10l-4.9,1.4l-7.3,2.2L364,370v-13.8h-21.1v24.9H378l1.3,0.2l1.1,0.2l0,0h0.3l0.8,0.2
		l0.8,0.2l0.8,0.2l1,0.3l0.5,0.2l0.5,0.2l0.3,0.2l0,0l0.5,0.2c0.2,0,0.3,0.2,0.5,0.2s0.3,0.2,0.5,0.2l0,0l0,0c0.2,0,0.3,0.2,0.5,0.3
		l0,0c0.2,0,0.2,0,0.2,0.2l0.2,0.2l0.2,0.2l0.2,0.2h0.2l0.2,0.2h0.2c0.5,0.3,1,0.6,1.3,1c0.5,0.3,1,0.6,1.3,1
		c0.6,0.5,1.3,1.1,1.7,1.6c0.2,0.2,0.3,0.5,0.5,0.6c0.6,0.6,1.1,1.3,1.6,1.9l0.5,0.6c0.2,0.2,0.3,0.5,0.5,0.6
		c0.2,0.3,0.5,0.8,0.6,1.1l0.3,0.6c0.3,0.5,0.5,1,0.6,1.4c0.2,0.5,0.3,0.6,0.5,0.8l0.3,1c0.2,0.3,0.2,0.6,0.3,1l0.2,0.6l3.8-3.2
		L395.1,387.3L395.1,387.3z M443.6,422v13h12.5l0,0L443.6,422z M402.6,379.5L402.6,379.5l-7.5,7.6l-0.2,0.2l7.6,7.6l4.8-4.8v-15.5
		L402.6,379.5z M395.1,387.3L395.1,387.3l7.3-7.6l0.2-0.2l-0.2-0.2l-1-1l-0.6-0.6l-4.4-4.6l-9.7-10l-4.9,1.4l-7.3,2.2L364,370v-13.8
		h-21.1v24.9H378l1.3,0.2l1.1,0.2l0,0h0.3l0.8,0.2l0.8,0.2l0.8,0.2l1,0.3l0.5,0.2l0.5,0.2l0.3,0.2l0,0l0.5,0.2
		c0.2,0,0.3,0.2,0.5,0.2s0.3,0.2,0.5,0.2l0,0l0,0c0.2,0,0.3,0.2,0.5,0.3l0,0c0.2,0,0.2,0,0.2,0.2l0.2,0.2l0.2,0.2l0.2,0.2h0.2
		l0.2,0.2h0.2c0.5,0.3,1,0.6,1.3,1c0.5,0.3,1,0.6,1.3,1c0.6,0.5,1.3,1.1,1.7,1.6c0.2,0.2,0.3,0.5,0.5,0.6c0.6,0.6,1.1,1.3,1.6,1.9
		l0.5,0.6c0.2,0.2,0.3,0.5,0.5,0.6c0.2,0.3,0.5,0.8,0.6,1.1l0.3,0.6c0.3,0.5,0.5,1,0.6,1.4c0.2,0.5,0.3,0.6,0.5,0.8l0.3,1
		c0.2,0.3,0.2,0.6,0.3,1l0.2,0.6l3.8-3.2L395.1,387.3L395.1,387.3z M443.6,422v13h12.5l0,0L443.6,422z M402.6,379.5L402.6,379.5
		l-7.5,7.6l-0.2,0.2l7.6,7.6l4.8-4.8v-15.5L402.6,379.5z M395.1,387.3L395.1,387.3l7.3-7.6l0.2-0.2l-0.2-0.2l-1-1l-0.6-0.6l-4.4-4.6
		l-9.7-10l-4.9,1.4l-7.3,2.2L364,370v-13.8h-21.1v24.9H378l1.3,0.2l1.1,0.2l0,0h0.3l0.8,0.2l0.8,0.2l0.8,0.2l1,0.3l0.5,0.2l0.5,0.2
		l0.3,0.2l0,0l0.5,0.2c0.2,0,0.3,0.2,0.5,0.2s0.3,0.2,0.5,0.2l0,0l0,0c0.2,0,0.3,0.2,0.5,0.3l0,0c0.2,0,0.2,0,0.2,0.2l0.2,0.2
		l0.2,0.2l0.2,0.2h0.2l0.2,0.2h0.2c0.5,0.3,1,0.6,1.3,1c0.5,0.3,1,0.6,1.3,1c0.6,0.5,1.3,1.1,1.7,1.6c0.2,0.2,0.3,0.5,0.5,0.6
		c0.6,0.6,1.1,1.3,1.6,1.9l0.5,0.6c0.2,0.2,0.3,0.5,0.5,0.6c0.2,0.3,0.5,0.8,0.6,1.1l0.3,0.6c0.3,0.5,0.5,1,0.6,1.4
		c0.2,0.5,0.3,0.6,0.5,0.8l0.3,1c0.2,0.3,0.2,0.6,0.3,1l0.2,0.6l3.8-3.2L395.1,387.3L395.1,387.3z M443.6,422v13h12.5l0,0L443.6,422
		z M402.6,379.5L402.6,379.5l-7.5,7.6l-0.2,0.2l7.6,7.6l4.8-4.8v-15.5L402.6,379.5z M395.1,387.3L395.1,387.3l7.3-7.6l0.2-0.2
		l-0.2-0.2l-1-1l-0.6-0.6l-4.4-4.6l-9.7-10l-4.9,1.4l-7.3,2.2L364,370v-13.8h-21.1v24.9H378l1.3,0.2l1.1,0.2l0,0h0.3l0.8,0.2
		l0.8,0.2l0.8,0.2l1,0.3l0.5,0.2l0.5,0.2l0.3,0.2l0,0l0.5,0.2c0.2,0,0.3,0.2,0.5,0.2s0.3,0.2,0.5,0.2l0,0l0,0c0.2,0,0.3,0.2,0.5,0.3
		l0,0c0.2,0,0.2,0,0.2,0.2l0.2,0.2l0.2,0.2l0.2,0.2h0.2l0.2,0.2h0.2c0.5,0.3,1,0.6,1.3,1c0.5,0.3,1,0.6,1.3,1
		c0.6,0.5,1.3,1.1,1.7,1.6c0.2,0.2,0.3,0.5,0.5,0.6c0.6,0.6,1.1,1.3,1.6,1.9l0.5,0.6c0.2,0.2,0.3,0.5,0.5,0.6
		c0.2,0.3,0.5,0.8,0.6,1.1l0.3,0.6c0.3,0.5,0.5,1,0.6,1.4c0.2,0.5,0.3,0.6,0.5,0.8l0.3,1c0.2,0.3,0.2,0.6,0.3,1l0.2,0.6l3.8-3.2
		L395.1,387.3L395.1,387.3z M443.6,422v13h12.5l0,0L443.6,422z M402.6,379.5L402.6,379.5l-7.5,7.6l-0.2,0.2l7.6,7.6l4.8-4.8v-15.5
		L402.6,379.5z M395.1,387.3L395.1,387.3l7.3-7.6l0.2-0.2l-0.2-0.2l-1-1l-0.6-0.6l-4.4-4.6l-9.7-10l-4.9,1.4l-7.3,2.2L364,370v-13.8
		h-21.1v24.9H378l1.3,0.2l1.1,0.2l0,0h0.3l0.8,0.2l0.8,0.2l0.8,0.2l1,0.3l0.5,0.2l0.5,0.2l0.3,0.2l0,0l0.5,0.2
		c0.2,0,0.3,0.2,0.5,0.2s0.3,0.2,0.5,0.2l0,0l0,0c0.2,0,0.3,0.2,0.5,0.3l0,0c0.2,0,0.2,0,0.2,0.2l0.2,0.2l0.2,0.2l0.2,0.2h0.2
		l0.2,0.2h0.2c0.5,0.3,1,0.6,1.3,1c0.5,0.3,1,0.6,1.3,1c0.6,0.5,1.3,1.1,1.7,1.6c0.2,0.2,0.3,0.5,0.5,0.6c0.6,0.6,1.1,1.3,1.6,1.9
		l0.5,0.6c0.2,0.2,0.3,0.5,0.5,0.6c0.2,0.3,0.5,0.8,0.6,1.1l0.3,0.6c0.3,0.5,0.5,1,0.6,1.4c0.2,0.5,0.3,0.6,0.5,0.8l0.3,1
		c0.2,0.3,0.2,0.6,0.3,1l0.2,0.6l3.8-3.2L395.1,387.3L395.1,387.3z M443.6,422v13h12.5l0,0L443.6,422z M402.6,379.5L402.6,379.5
		l-7.5,7.6l-0.2,0.2l7.6,7.6l4.8-4.8v-15.5L402.6,379.5z M395.1,387.3L395.1,387.3l7.3-7.6l0.2-0.2l-0.2-0.2l-1-1l-0.6-0.6l-4.4-4.6
		l-9.7-10l-4.9,1.4l-7.3,2.2L364,370v-13.8h-21.1v24.9H378l1.3,0.2l1.1,0.2l0,0h0.3l0.8,0.2l0.8,0.2l0.8,0.2l1,0.3l0.5,0.2l0.5,0.2
		l0.3,0.2l0,0l0.5,0.2c0.2,0,0.3,0.2,0.5,0.2s0.3,0.2,0.5,0.2l0,0l0,0c0.2,0,0.3,0.2,0.5,0.3l0,0c0.2,0,0.2,0,0.2,0.2l0.2,0.2
		l0.2,0.2l0.2,0.2h0.2l0.2,0.2h0.2c0.5,0.3,1,0.6,1.3,1c0.5,0.3,1,0.6,1.3,1c0.6,0.5,1.3,1.1,1.7,1.6c0.2,0.2,0.3,0.5,0.5,0.6
		c0.6,0.6,1.1,1.3,1.6,1.9l0.5,0.6c0.2,0.2,0.3,0.5,0.5,0.6c0.2,0.3,0.5,0.8,0.6,1.1l0.3,0.6c0.3,0.5,0.5,1,0.6,1.4
		c0.2,0.5,0.3,0.6,0.5,0.8l0.3,1c0.2,0.3,0.2,0.6,0.3,1l0.2,0.6l3.8-3.2L395.1,387.3L395.1,387.3z M443.6,422v13h12.5l0,0L443.6,422
		z M402.6,379.5L402.6,379.5l-7.5,7.6l-0.2,0.2l7.6,7.6l4.8-4.8v-15.5L402.6,379.5z M395.1,387.3L395.1,387.3l7.3-7.6l0.2-0.2
		l-0.2-0.2l-1-1l-0.6-0.6l-4.4-4.6l-9.7-10l-4.9,1.4l-7.3,2.2L364,370v-13.8h-21.1v24.9H378l1.3,0.2l1.1,0.2l0,0h0.3l0.8,0.2
		l0.8,0.2l0.8,0.2l1,0.3l0.5,0.2l0.5,0.2l0.3,0.2l0,0l0.5,0.2c0.2,0,0.3,0.2,0.5,0.2s0.3,0.2,0.5,0.2l0,0l0,0c0.2,0,0.3,0.2,0.5,0.3
		l0,0c0.2,0,0.2,0,0.2,0.2l0.2,0.2l0.2,0.2l0.2,0.2h0.2l0.2,0.2h0.2c0.5,0.3,1,0.6,1.3,1c0.5,0.3,1,0.6,1.3,1
		c0.6,0.5,1.3,1.1,1.7,1.6c0.2,0.2,0.3,0.5,0.5,0.6c0.6,0.6,1.1,1.3,1.6,1.9l0.5,0.6c0.2,0.2,0.3,0.5,0.5,0.6
		c0.2,0.3,0.5,0.8,0.6,1.1l0.3,0.6c0.3,0.5,0.5,1,0.6,1.4c0.2,0.5,0.3,0.6,0.5,0.8l0.3,1c0.2,0.3,0.2,0.6,0.3,1l0.2,0.6l3.8-3.2
		L395.1,387.3L395.1,387.3z M443.6,422v13h12.5l0,0L443.6,422z M402.6,379.5L402.6,379.5l-7.5,7.6l-0.2,0.2l7.6,7.6l4.8-4.8v-15.5
		L402.6,379.5z M395.1,387.3L395.1,387.3l7.3-7.6l0.2-0.2l-0.2-0.2l-1-1l-0.6-0.6l-4.4-4.6l-9.7-10l-4.9,1.4l-7.3,2.2L364,370v-13.8
		h-21.1v24.9H378l1.3,0.2l1.1,0.2l0,0h0.3l0.8,0.2l0.8,0.2l0.8,0.2l1,0.3l0.5,0.2l0.5,0.2l0.3,0.2l0,0l0.5,0.2
		c0.2,0,0.3,0.2,0.5,0.2s0.3,0.2,0.5,0.2l0,0l0,0c0.2,0,0.3,0.2,0.5,0.3l0,0c0.2,0,0.2,0,0.2,0.2l0.2,0.2l0.2,0.2l0.2,0.2h0.2
		l0.2,0.2h0.2c0.5,0.3,1,0.6,1.3,1c0.5,0.3,1,0.6,1.3,1c0.6,0.5,1.3,1.1,1.7,1.6c0.2,0.2,0.3,0.5,0.5,0.6c0.6,0.6,1.1,1.3,1.6,1.9
		l0.5,0.6c0.2,0.2,0.3,0.5,0.5,0.6c0.2,0.3,0.5,0.8,0.6,1.1l0.3,0.6c0.3,0.5,0.5,1,0.6,1.4c0.2,0.5,0.3,0.6,0.5,0.8l0.3,1
		c0.2,0.3,0.2,0.6,0.3,1l0.2,0.6l3.8-3.2L395.1,387.3L395.1,387.3z M443.6,422v13h12.5l0,0L443.6,422z M402.6,379.5L402.6,379.5
		l-7.5,7.6l-0.2,0.2l7.6,7.6l4.8-4.8v-15.5L402.6,379.5z M395.1,387.3L395.1,387.3l7.3-7.6l0.2-0.2l-0.2-0.2l-1-1l-0.6-0.6l-4.4-4.6
		l-9.7-10l-4.9,1.4l-7.3,2.2L364,370v-13.8h-21.1v24.9H378l1.3,0.2l1.1,0.2l0,0h0.3l0.8,0.2l0.8,0.2l0.8,0.2l1,0.3l0.5,0.2l0.5,0.2
		l0.3,0.2l0,0l0.5,0.2c0.2,0,0.3,0.2,0.5,0.2s0.3,0.2,0.5,0.2l0,0l0,0c0.2,0,0.3,0.2,0.5,0.3l0,0c0.2,0,0.2,0,0.2,0.2l0.2,0.2
		l0.2,0.2l0.2,0.2h0.2l0.2,0.2h0.2c0.5,0.3,1,0.6,1.3,1c0.5,0.3,1,0.6,1.3,1c0.6,0.5,1.3,1.1,1.7,1.6c0.2,0.2,0.3,0.5,0.5,0.6
		c0.6,0.6,1.1,1.3,1.6,1.9l0.5,0.6c0.2,0.2,0.3,0.5,0.5,0.6c0.2,0.3,0.5,0.8,0.6,1.1l0.3,0.6c0.3,0.5,0.5,1,0.6,1.4
		c0.2,0.5,0.3,0.6,0.5,0.8l0.3,1c0.2,0.3,0.2,0.6,0.3,1l0.2,0.6l3.8-3.2L395.1,387.3L395.1,387.3z M443.6,422v13h12.5l0,0L443.6,422
		z M402.6,379.5L402.6,379.5l-0.2,0.2l-7.3,7.6l-0.2,0.2l7.6,7.6l4.8-4.8v-15.5L402.6,379.5z M395.1,387.3L395.1,387.3l7.3-7.6
		l0.2-0.2l-0.2-0.2l-1-1l-0.6-0.6l-4.4-4.6l-9.7-10l-4.9,1.4l-7.3,2.2L364,370v-13.8h-21.1v24.9H378l1.3,0.2l1.1,0.2l0,0h0.3
		l0.8,0.2l0.8,0.2l0.8,0.2l1,0.3l0.5,0.2l0.5,0.2l0.3,0.2l0,0l0.5,0.2c0.2,0,0.3,0.2,0.5,0.2s0.3,0.2,0.5,0.2l0,0l0,0
		c0.2,0,0.3,0.2,0.5,0.3l0,0c0.2,0,0.2,0,0.2,0.2l0.2,0.2l0.2,0.2l0.2,0.2h0.2l0.2,0.2h0.2c0.5,0.3,1,0.6,1.3,1c0.5,0.3,1,0.6,1.3,1
		c0.6,0.5,1.3,1.1,1.7,1.6c0.2,0.2,0.3,0.5,0.5,0.6c0.6,0.6,1.1,1.3,1.6,1.9l0.5,0.6c0.2,0.2,0.3,0.5,0.5,0.6
		c0.2,0.3,0.5,0.8,0.6,1.1l0.3,0.6c0.3,0.5,0.5,1,0.6,1.4c0.2,0.5,0.3,0.6,0.5,0.8l0.3,1c0.2,0.3,0.2,0.6,0.3,1l0.2,0.6l3.8-3.2
		L395.1,387.3L395.1,387.3z M402.6,379.5L402.6,379.5l-1.1-1.1l-0.6-0.6l-4.4-4.6l-9.7-10l-4.9,1.4l-7.3,2.2L364,370v-13.6l0,0v-0.2
		l0,0l0,0h-0.2l0,0l0,0l0,0h-20.9v24.9h34.3h0.8h-0.3h0.5l1.3,0.2l1.1,0.2h-1l1.3,0.3l0,0l-0.3-0.3h0.3l0.8,0.2l0.8,0.2l0.8,0.2
		l1,0.3l0.5,0.2l-0.5-0.2l0.2,0.2l0.3,0.2l0.3,0.2l0.5,0.2l0.3,0.2l0,0l-0.3-0.2l0.3,0.2c0.2,0,0.3,0.2,0.5,0.2s0.3,0.2,0.5,0.2
		c0.2,0.2,0.5,0.2,0.6,0.3l0,0c0.2,0,0.2,0,0.2,0.2l0.2,0.2l0.2,0.2l0.2,0.2h0.2l0.2,0.2h0.2c0.5,0.3,1,0.6,1.3,1
		c0.5,0.3,1,0.6,1.3,1c0.6,0.5,1.3,1.1,1.7,1.6c0.2,0.2,0.3,0.5,0.5,0.6c0.6,0.6,1.1,1.3,1.6,1.9l0.5,0.6c0.2,0.2,0.3,0.5,0.5,0.6
		c0.2,0.3,0.5,0.8,0.6,1.1l0.3,0.6c0.3,0.5,0.5,1,0.6,1.4c0.2,0.5,0.3,0.6,0.5,0.8l0.3,1c0.2,0.3,0.2,0.6,0.3,1l0.2,0.6l3.8-3.2
		l4.8-4.8v-15.5L402.6,379.5z M392.9,388.2c0.2,0.2,0.3,0.3,0.3,0.5L392.9,388.2c0.2,0.2,0.3,0.5,0.5,0.6l0,0l-0.2-0.2L392.9,388.2z
		 M392.6,387.7c0.2,0.2,0.3,0.2,0.3,0.3C392.7,388.1,392.6,387.7,392.6,387.7C392.4,387.6,392.4,387.6,392.6,387.7L392.6,387.7
		l-0.2-0.2c-0.2-0.2-0.3-0.3-0.5-0.3c-0.2-0.2-0.3-0.3-0.5-0.3c-0.2-0.2-0.3-0.2-0.5-0.3c0.2,0.2,0.3,0.2,0.5,0.3c0,0,0,0.2,0.2,0.2
		l0.2,0.2l0.5,0.5l0,0l0,0c0.2,0.2,0.3,0.3,0.5,0.5C392.7,388.1,392.7,387.9,392.6,387.7z M389.1,385l-0.6-0.3
		c0.2,0,0.2,0.2,0.3,0.2l-0.3-0.2C388.8,384.7,388.9,384.9,389.1,385L389.1,385L389.1,385c0.2,0.2,0.3,0.2,0.3,0.3
		C389.4,385.2,389.2,385,389.1,385L389.1,385z M381.5,381.7l0.5,0.2L381.5,381.7L381.5,381.7z M380.7,381.6l0.6,0.2l-0.3-0.2H380.7z
		 M378.6,381.1H378l1.3,0.2L378.6,381.1L378.6,381.1z M407.3,390.1L407.3,390.1L407.3,390.1L407.3,390.1z M443.6,422v13h12.5l0,0
		L443.6,422z M443.5,354.9v27.3l0,0l24-23v-4.1h-24V354.9z M393.4,388.7l-0.5-0.5C393,388.4,393.2,388.5,393.4,388.7l-0.5-0.5
		c0.2,0.2,0.3,0.5,0.6,0.6l0,0L393.4,388.7z M392.6,387.7c0.2,0.2,0.3,0.2,0.3,0.3C392.7,388.1,392.6,387.7,392.6,387.7
		C392.4,387.6,392.4,387.6,392.6,387.7L392.6,387.7l-0.2-0.2c-0.2-0.2-0.3-0.3-0.5-0.3c-0.2-0.2-0.3-0.3-0.5-0.3
		c-0.2-0.2-0.3-0.2-0.5-0.3c0.2,0.2,0.3,0.2,0.5,0.3c0,0,0,0.2,0.2,0.2l0.2,0.2l0.5,0.5l0,0l0,0c0.2,0.2,0.3,0.3,0.5,0.5
		C392.7,388.1,392.7,387.9,392.6,387.7z M389.1,385l-0.6-0.3c0.2,0,0.2,0.2,0.3,0.2l-0.3-0.2C388.8,384.7,388.9,384.9,389.1,385
		L389.1,385L389.1,385c0.2,0.2,0.3,0.2,0.3,0.3C389.4,385.2,389.2,385,389.1,385L389.1,385z M386.5,383.5L386.5,383.5
		c-0.2,0-0.3-0.2-0.5-0.2c-0.2-0.2-0.3-0.2-0.5-0.2l-0.5-0.2l0,0l-0.3-0.2l-0.5-0.2l-0.5-0.2l0.2,0.2l0.3,0.2l0.3,0.2l0.5,0.2
		l0.3,0.2l0,0l-0.3-0.2l0.3,0.2c0.2,0,0.3,0.2,0.5,0.2C386.2,383.3,386.2,383.5,386.5,383.5c0.2,0.2,0.3,0.2,0.6,0.3l0,0
		C386.9,383.6,386.7,383.6,386.5,383.5L386.5,383.5z M381.5,381.7l0.5,0.2L381.5,381.7L381.5,381.7z M380.7,381.6l0.6,0.2l-0.3-0.2
		H380.7z M379.4,381.4l1.3,0.3l0,0l-0.3-0.3H379.4z M378.6,381.1H378l1.3,0.2L378.6,381.1L378.6,381.1z M377.2,381.1h0.8h-0.3H377.2
		z M364,356.2h-0.2H364h-0.2l0,0H364L364,356.2v0.2V356.2L364,356.2L364,356.2z M443.5,354.9v27.3l0,0V354.9h24.1l0,0H443.5z
		 M395.1,387.3L395.1,387.3l7.3-7.6l0.2-0.2l-0.2-0.2l-1-1l-0.6-0.6l-4.4-4.6l-9.7-10l-4.9,1.4l-7.3,2.2L364,370v-13.8h-21.1v24.9
		H378l1.3,0.2l1.1,0.2l0,0h0.3l0.8,0.2l0.8,0.2l0.8,0.2l1,0.3l0.5,0.2l0.5,0.2l0.3,0.2l0,0l0.5,0.2c0.2,0,0.3,0.2,0.5,0.2
		s0.3,0.2,0.5,0.2l0,0l0,0c0.2,0,0.3,0.2,0.5,0.3l0,0c0.2,0,0.2,0,0.2,0.2l0.2,0.2l0.2,0.2l0.2,0.2h0.2l0.2,0.2h0.2
		c0.5,0.3,1,0.6,1.3,1c0.5,0.3,1,0.6,1.3,1c0.6,0.5,1.3,1.1,1.7,1.6c0.2,0.2,0.3,0.5,0.5,0.6c0.6,0.6,1.1,1.3,1.6,1.9l0.5,0.6
		c0.2,0.2,0.3,0.5,0.5,0.6c0.2,0.3,0.5,0.8,0.6,1.1l0.3,0.6c0.3,0.5,0.5,1,0.6,1.4c0.2,0.5,0.3,0.6,0.5,0.8l0.3,1
		c0.2,0.3,0.2,0.6,0.3,1l0.2,0.6l3.8-3.2L395.1,387.3L395.1,387.3z M402.6,379.5L402.6,379.5l-7.5,7.6l-0.2,0.2l7.6,7.6l4.8-4.8
		v-15.5L402.6,379.5z M443.6,422v13h12.5l0,0L443.6,422z M395.1,387.3L395.1,387.3l7.3-7.6l0.2-0.2l-0.2-0.2l-1-1l-0.6-0.6l-4.4-4.6
		l-9.7-10l-4.9,1.4l-7.3,2.2L364,370v-13.8h-21.1v24.9H378l1.3,0.2l1.1,0.2l0,0h0.3l0.8,0.2l0.8,0.2l0.8,0.2l1,0.3l0.5,0.2l0.5,0.2
		l0.3,0.2l0,0l0.5,0.2c0.2,0,0.3,0.2,0.5,0.2s0.3,0.2,0.5,0.2l0,0l0,0c0.2,0,0.3,0.2,0.5,0.3l0,0c0.2,0,0.2,0,0.2,0.2l0.2,0.2
		l0.2,0.2l0.2,0.2h0.2l0.2,0.2h0.2c0.5,0.3,1,0.6,1.3,1c0.5,0.3,1,0.6,1.3,1c0.6,0.5,1.3,1.1,1.7,1.6c0.2,0.2,0.3,0.5,0.5,0.6
		c0.6,0.6,1.1,1.3,1.6,1.9l0.5,0.6c0.2,0.2,0.3,0.5,0.5,0.6c0.2,0.3,0.5,0.8,0.6,1.1l0.3,0.6c0.3,0.5,0.5,1,0.6,1.4
		c0.2,0.5,0.3,0.6,0.5,0.8l0.3,1c0.2,0.3,0.2,0.6,0.3,1l0.2,0.6l3.8-3.2L395.1,387.3L395.1,387.3z M402.6,379.5L402.6,379.5
		l-7.5,7.6l-0.2,0.2l7.6,7.6l4.8-4.8v-15.5L402.6,379.5z M443.6,422v13h12.5l0,0L443.6,422z M395.1,387.3L395.1,387.3l7.3-7.6
		l0.2-0.2l-0.2-0.2l-1-1l-0.6-0.6l-4.4-4.6l-9.7-10l-4.9,1.4l-7.3,2.2L364,370v-13.8h-21.1v24.9H378l1.3,0.2l1.1,0.2l0,0h0.3
		l0.8,0.2l0.8,0.2l0.8,0.2l1,0.3l0.5,0.2l0.5,0.2l0.3,0.2l0,0l0.5,0.2c0.2,0,0.3,0.2,0.5,0.2s0.3,0.2,0.5,0.2l0,0l0,0
		c0.2,0,0.3,0.2,0.5,0.3l0,0c0.2,0,0.2,0,0.2,0.2l0.2,0.2l0.2,0.2l0.2,0.2h0.2l0.2,0.2h0.2c0.5,0.3,1,0.6,1.3,1c0.5,0.3,1,0.6,1.3,1
		c0.6,0.5,1.3,1.1,1.7,1.6c0.2,0.2,0.3,0.5,0.5,0.6c0.6,0.6,1.1,1.3,1.6,1.9l0.5,0.6c0.2,0.2,0.3,0.5,0.5,0.6
		c0.2,0.3,0.5,0.8,0.6,1.1l0.3,0.6c0.3,0.5,0.5,1,0.6,1.4c0.2,0.5,0.3,0.6,0.5,0.8l0.3,1c0.2,0.3,0.2,0.6,0.3,1l0.2,0.6l3.8-3.2
		L395.1,387.3L395.1,387.3z M402.6,379.5L402.6,379.5l-7.5,7.6l-0.2,0.2l7.6,7.6l4.8-4.8v-15.5L402.6,379.5z M443.6,422v13h12.5l0,0
		L443.6,422z M395.1,387.3L395.1,387.3l7.3-7.6l0.2-0.2l-0.2-0.2l-1-1l-0.6-0.6l-4.4-4.6l-9.7-10l-4.9,1.4l-7.3,2.2L364,370v-13.8
		h-21.1v24.9H378l1.3,0.2l1.1,0.2l0,0h0.3l0.8,0.2l0.8,0.2l0.8,0.2l1,0.3l0.5,0.2l0.5,0.2l0.3,0.2l0,0l0.5,0.2
		c0.2,0,0.3,0.2,0.5,0.2s0.3,0.2,0.5,0.2l0,0l0,0c0.2,0,0.3,0.2,0.5,0.3l0,0c0.2,0,0.2,0,0.2,0.2l0.2,0.2l0.2,0.2l0.2,0.2h0.2
		l0.2,0.2h0.2c0.5,0.3,1,0.6,1.3,1c0.5,0.3,1,0.6,1.3,1c0.6,0.5,1.3,1.1,1.7,1.6c0.2,0.2,0.3,0.5,0.5,0.6c0.6,0.6,1.1,1.3,1.6,1.9
		l0.5,0.6c0.2,0.2,0.3,0.5,0.5,0.6c0.2,0.3,0.5,0.8,0.6,1.1l0.3,0.6c0.3,0.5,0.5,1,0.6,1.4c0.2,0.5,0.3,0.6,0.5,0.8l0.3,1
		c0.2,0.3,0.2,0.6,0.3,1l0.2,0.6l3.8-3.2L395.1,387.3L395.1,387.3z M402.6,379.5L402.6,379.5l-7.5,7.6l-0.2,0.2l7.6,7.6l4.8-4.8
		v-15.5L402.6,379.5z M443.6,422v13h12.5l0,0L443.6,422z M395.1,387.3L395.1,387.3l7.3-7.6l0.2-0.2l-0.2-0.2l-1-1l-0.6-0.6l-4.4-4.6
		l-9.7-10l-4.9,1.4l-7.3,2.2L364,370v-13.8h-21.1v24.9H378l1.3,0.2l1.1,0.2l0,0h0.3l0.8,0.2l0.8,0.2l0.8,0.2l1,0.3l0.5,0.2l0.5,0.2
		l0.3,0.2l0,0l0.5,0.2c0.2,0,0.3,0.2,0.5,0.2s0.3,0.2,0.5,0.2l0,0l0,0c0.2,0,0.3,0.2,0.5,0.3l0,0c0.2,0,0.2,0,0.2,0.2l0.2,0.2
		l0.2,0.2l0.2,0.2h0.2l0.2,0.2h0.2c0.5,0.3,1,0.6,1.3,1c0.5,0.3,1,0.6,1.3,1c0.6,0.5,1.3,1.1,1.7,1.6c0.2,0.2,0.3,0.5,0.5,0.6
		c0.6,0.6,1.1,1.3,1.6,1.9l0.5,0.6c0.2,0.2,0.3,0.5,0.5,0.6c0.2,0.3,0.5,0.8,0.6,1.1l0.3,0.6c0.3,0.5,0.5,1,0.6,1.4
		c0.2,0.5,0.3,0.6,0.5,0.8l0.3,1c0.2,0.3,0.2,0.6,0.3,1l0.2,0.6l3.8-3.2L395.1,387.3L395.1,387.3z M402.6,379.5L402.6,379.5
		l-7.5,7.6l-0.2,0.2l7.6,7.6l4.8-4.8v-15.5L402.6,379.5z M443.6,422v13h12.5l0,0L443.6,422z M395.1,387.3L395.1,387.3l7.3-7.6
		l0.2-0.2l-0.2-0.2l-1-1l-0.6-0.6l-4.4-4.6l-9.7-10l-4.9,1.4l-7.3,2.2L364,370v-13.8h-21.1v24.9H378l1.3,0.2l1.1,0.2l0,0h0.3
		l0.8,0.2l0.8,0.2l0.8,0.2l1,0.3l0.5,0.2l0.5,0.2l0.3,0.2l0,0l0.5,0.2c0.2,0,0.3,0.2,0.5,0.2s0.3,0.2,0.5,0.2l0,0l0,0
		c0.2,0,0.3,0.2,0.5,0.3l0,0c0.2,0,0.2,0,0.2,0.2l0.2,0.2l0.2,0.2l0.2,0.2h0.2l0.2,0.2h0.2c0.5,0.3,1,0.6,1.3,1c0.5,0.3,1,0.6,1.3,1
		c0.6,0.5,1.3,1.1,1.7,1.6c0.2,0.2,0.3,0.5,0.5,0.6c0.6,0.6,1.1,1.3,1.6,1.9l0.5,0.6c0.2,0.2,0.3,0.5,0.5,0.6
		c0.2,0.3,0.5,0.8,0.6,1.1l0.3,0.6c0.3,0.5,0.5,1,0.6,1.4c0.2,0.5,0.3,0.6,0.5,0.8l0.3,1c0.2,0.3,0.2,0.6,0.3,1l0.2,0.6l3.8-3.2
		L395.1,387.3L395.1,387.3z M402.6,379.5L402.6,379.5l-7.5,7.6l-0.2,0.2l7.6,7.6l4.8-4.8v-15.5L402.6,379.5z M443.6,422v13h12.5l0,0
		L443.6,422z M395.1,387.3L395.1,387.3l7.3-7.6l0.2-0.2l-0.2-0.2l-1-1l-0.6-0.6l-4.4-4.6l-9.7-10l-4.9,1.4l-7.3,2.2L364,370v-13.8
		h-21.1v24.9H378l1.3,0.2l1.1,0.2l0,0h0.3l0.8,0.2l0.8,0.2l0.8,0.2l1,0.3l0.5,0.2l0.5,0.2l0.3,0.2l0,0l0.5,0.2
		c0.2,0,0.3,0.2,0.5,0.2s0.3,0.2,0.5,0.2l0,0l0,0c0.2,0,0.3,0.2,0.5,0.3l0,0c0.2,0,0.2,0,0.2,0.2l0.2,0.2l0.2,0.2l0.2,0.2h0.2
		l0.2,0.2h0.2c0.5,0.3,1,0.6,1.3,1c0.5,0.3,1,0.6,1.3,1c0.6,0.5,1.3,1.1,1.7,1.6c0.2,0.2,0.3,0.5,0.5,0.6c0.6,0.6,1.1,1.3,1.6,1.9
		l0.5,0.6c0.2,0.2,0.3,0.5,0.5,0.6c0.2,0.3,0.5,0.8,0.6,1.1l0.3,0.6c0.3,0.5,0.5,1,0.6,1.4c0.2,0.5,0.3,0.6,0.5,0.8l0.3,1
		c0.2,0.3,0.2,0.6,0.3,1l0.2,0.6l3.8-3.2L395.1,387.3L395.1,387.3z M402.6,379.5L402.6,379.5l-7.5,7.6l-0.2,0.2l7.6,7.6l4.8-4.8
		v-15.5L402.6,379.5z M443.6,422v13h12.5l0,0L443.6,422z M395.1,387.3L395.1,387.3l7.3-7.6l0.2-0.2l-0.2-0.2l-1-1l-0.6-0.6l-4.4-4.6
		l-9.7-10l-4.9,1.4l-7.3,2.2L364,370v-13.8h-21.1v24.9H378l1.3,0.2l1.1,0.2l0,0h0.3l0.8,0.2l0.8,0.2l0.8,0.2l1,0.3l0.5,0.2l0.5,0.2
		l0.3,0.2l0,0l0.5,0.2c0.2,0,0.3,0.2,0.5,0.2s0.3,0.2,0.5,0.2l0,0l0,0c0.2,0,0.3,0.2,0.5,0.3l0,0c0.2,0,0.2,0,0.2,0.2l0.2,0.2
		l0.2,0.2l0.2,0.2h0.2l0.2,0.2h0.2c0.5,0.3,1,0.6,1.3,1c0.5,0.3,1,0.6,1.3,1c0.6,0.5,1.3,1.1,1.7,1.6c0.2,0.2,0.3,0.5,0.5,0.6
		c0.6,0.6,1.1,1.3,1.6,1.9l0.5,0.6c0.2,0.2,0.3,0.5,0.5,0.6c0.2,0.3,0.5,0.8,0.6,1.1l0.3,0.6c0.3,0.5,0.5,1,0.6,1.4
		c0.2,0.5,0.3,0.6,0.5,0.8l0.3,1c0.2,0.3,0.2,0.6,0.3,1l0.2,0.6l3.8-3.2L395.1,387.3L395.1,387.3z M402.6,379.5L402.6,379.5
		l-7.5,7.6l-0.2,0.2l7.6,7.6l4.8-4.8v-15.5L402.6,379.5z M443.6,422v13h12.5l0,0L443.6,422z M395.1,387.3L395.1,387.3l7.3-7.6
		l0.2-0.2l-0.2-0.2l-1-1l-0.6-0.6l-4.4-4.6l-9.7-10l-4.9,1.4l-7.3,2.2L364,370v-13.8h-21.1v24.9H378l1.3,0.2l1.1,0.2l0,0h0.3
		l0.8,0.2l0.8,0.2l0.8,0.2l1,0.3l0.5,0.2l0.5,0.2l0.3,0.2l0,0l0.5,0.2c0.2,0,0.3,0.2,0.5,0.2s0.3,0.2,0.5,0.2l0,0l0,0
		c0.2,0,0.3,0.2,0.5,0.3l0,0c0.2,0,0.2,0,0.2,0.2l0.2,0.2l0.2,0.2l0.2,0.2h0.2l0.2,0.2h0.2c0.5,0.3,1,0.6,1.3,1c0.5,0.3,1,0.6,1.3,1
		c0.6,0.5,1.3,1.1,1.7,1.6c0.2,0.2,0.3,0.5,0.5,0.6c0.6,0.6,1.1,1.3,1.6,1.9l0.5,0.6c0.2,0.2,0.3,0.5,0.5,0.6
		c0.2,0.3,0.5,0.8,0.6,1.1l0.3,0.6c0.3,0.5,0.5,1,0.6,1.4c0.2,0.5,0.3,0.6,0.5,0.8l0.3,1c0.2,0.3,0.2,0.6,0.3,1l0.2,0.6l3.8-3.2
		L395.1,387.3L395.1,387.3z M402.6,379.5L402.6,379.5l-7.5,7.6l-0.2,0.2l7.6,7.6l4.8-4.8v-15.5L402.6,379.5z M443.6,422v13h12.5l0,0
		L443.6,422z M395.1,387.3L395.1,387.3l7.3-7.6l0.2-0.2l-0.2-0.2l-1-1l-0.6-0.6l-4.4-4.6l-9.7-10l-4.9,1.4l-7.3,2.2L364,370v-13.8
		h-21.1v24.9H378l1.3,0.2l1.1,0.2l0,0h0.3l0.8,0.2l0.8,0.2l0.8,0.2l1,0.3l0.5,0.2l0.5,0.2l0.3,0.2l0,0l0.5,0.2
		c0.2,0,0.3,0.2,0.5,0.2s0.3,0.2,0.5,0.2l0,0l0,0c0.2,0,0.3,0.2,0.5,0.3l0,0c0.2,0,0.2,0,0.2,0.2l0.2,0.2l0.2,0.2l0.2,0.2h0.2
		l0.2,0.2h0.2c0.5,0.3,1,0.6,1.3,1c0.5,0.3,1,0.6,1.3,1c0.6,0.5,1.3,1.1,1.7,1.6c0.2,0.2,0.3,0.5,0.5,0.6c0.6,0.6,1.1,1.3,1.6,1.9
		l0.5,0.6c0.2,0.2,0.3,0.5,0.5,0.6c0.2,0.3,0.5,0.8,0.6,1.1l0.3,0.6c0.3,0.5,0.5,1,0.6,1.4c0.2,0.5,0.3,0.6,0.5,0.8l0.3,1
		c0.2,0.3,0.2,0.6,0.3,1l0.2,0.6l3.8-3.2L395.1,387.3L395.1,387.3z M402.6,379.5L402.6,379.5l-7.5,7.6l-0.2,0.2l7.6,7.6l4.8-4.8
		v-15.5L402.6,379.5z M443.6,422v13h12.5l0,0L443.6,422z M395.1,387.3L395.1,387.3l7.3-7.6l0.2-0.2l-0.2-0.2l-1-1l-0.6-0.6l-4.4-4.6
		l-9.7-10l-4.9,1.4l-7.3,2.2L364,370v-13.8h-21.1v24.9H378l1.3,0.2l1.1,0.2l0,0h0.3l0.8,0.2l0.8,0.2l0.8,0.2l1,0.3l0.5,0.2l0.5,0.2
		l0.3,0.2l0,0l0.5,0.2c0.2,0,0.3,0.2,0.5,0.2s0.3,0.2,0.5,0.2l0,0l0,0c0.2,0,0.3,0.2,0.5,0.3l0,0c0.2,0,0.2,0,0.2,0.2l0.2,0.2
		l0.2,0.2l0.2,0.2h0.2l0.2,0.2h0.2c0.5,0.3,1,0.6,1.3,1c0.5,0.3,1,0.6,1.3,1c0.6,0.5,1.3,1.1,1.7,1.6c0.2,0.2,0.3,0.5,0.5,0.6
		c0.6,0.6,1.1,1.3,1.6,1.9l0.5,0.6c0.2,0.2,0.3,0.5,0.5,0.6c0.2,0.3,0.5,0.8,0.6,1.1l0.3,0.6c0.3,0.5,0.5,1,0.6,1.4
		c0.2,0.5,0.3,0.6,0.5,0.8l0.3,1c0.2,0.3,0.2,0.6,0.3,1l0.2,0.6l3.8-3.2L395.1,387.3L395.1,387.3z M402.6,379.5L402.6,379.5
		l-7.5,7.6l-0.2,0.2l7.6,7.6l4.8-4.8v-15.5L402.6,379.5z M443.6,422v13h12.5l0,0L443.6,422z M395.1,387.3L395.1,387.3l7.3-7.6
		l0.2-0.2l-0.2-0.2l-1-1l-0.6-0.6l-4.4-4.6l-9.7-10l-4.9,1.4l-7.3,2.2L364,370v-13.8h-21.1v24.9H378l1.3,0.2l1.1,0.2l0,0h0.3
		l0.8,0.2l0.8,0.2l0.8,0.2l1,0.3l0.5,0.2l0.5,0.2l0.3,0.2l0,0l0.5,0.2c0.2,0,0.3,0.2,0.5,0.2s0.3,0.2,0.5,0.2l0,0l0,0
		c0.2,0,0.3,0.2,0.5,0.3l0,0c0.2,0,0.2,0,0.2,0.2l0.2,0.2l0.2,0.2l0.2,0.2h0.2l0.2,0.2h0.2c0.5,0.3,1,0.6,1.3,1c0.5,0.3,1,0.6,1.3,1
		c0.6,0.5,1.3,1.1,1.7,1.6c0.2,0.2,0.3,0.5,0.5,0.6c0.6,0.6,1.1,1.3,1.6,1.9l0.5,0.6c0.2,0.2,0.3,0.5,0.5,0.6
		c0.2,0.3,0.5,0.8,0.6,1.1l0.3,0.6c0.3,0.5,0.5,1,0.6,1.4c0.2,0.5,0.3,0.6,0.5,0.8l0.3,1c0.2,0.3,0.2,0.6,0.3,1l0.2,0.6l3.8-3.2
		L395.1,387.3L395.1,387.3z M402.6,379.5L402.6,379.5l-7.5,7.6l-0.2,0.2l7.6,7.6l4.8-4.8v-15.5L402.6,379.5z M443.6,422v13h12.5l0,0
		L443.6,422z M395.1,387.3L395.1,387.3l7.3-7.6l0.2-0.2l-0.2-0.2l-1-1l-0.6-0.6l-4.4-4.6l-9.7-10l-4.9,1.4l-7.3,2.2L364,370v-13.8
		h-21.1v24.9H378l1.3,0.2l1.1,0.2l0,0h0.3l0.8,0.2l0.8,0.2l0.8,0.2l1,0.3l0.5,0.2l0.5,0.2l0.3,0.2l0,0l0.5,0.2
		c0.2,0,0.3,0.2,0.5,0.2s0.3,0.2,0.5,0.2l0,0l0,0c0.2,0,0.3,0.2,0.5,0.3l0,0c0.2,0,0.2,0,0.2,0.2l0.2,0.2l0.2,0.2l0.2,0.2h0.2
		l0.2,0.2h0.2c0.5,0.3,1,0.6,1.3,1c0.5,0.3,1,0.6,1.3,1c0.6,0.5,1.3,1.1,1.7,1.6c0.2,0.2,0.3,0.5,0.5,0.6c0.6,0.6,1.1,1.3,1.6,1.9
		l0.5,0.6c0.2,0.2,0.3,0.5,0.5,0.6c0.2,0.3,0.5,0.8,0.6,1.1l0.3,0.6c0.3,0.5,0.5,1,0.6,1.4c0.2,0.5,0.3,0.6,0.5,0.8l0.3,1
		c0.2,0.3,0.2,0.6,0.3,1l0.2,0.6l3.8-3.2L395.1,387.3L395.1,387.3z M402.6,379.5L402.6,379.5l-7.5,7.6l-0.2,0.2l7.6,7.6l4.8-4.8
		v-15.5L402.6,379.5z M443.6,422v13h12.5l0,0L443.6,422z M395.1,387.3L395.1,387.3l7.3-7.6l0.2-0.2l-0.2-0.2l-1-1l-0.6-0.6l-4.4-4.6
		l-9.7-10l-4.9,1.4l-7.3,2.2L364,370v-13.8h-21.1v24.9H378l1.3,0.2l1.1,0.2l0,0h0.3l0.8,0.2l0.8,0.2l0.8,0.2l1,0.3l0.5,0.2l0.5,0.2
		l0.3,0.2l0,0l0.5,0.2c0.2,0,0.3,0.2,0.5,0.2s0.3,0.2,0.5,0.2l0,0l0,0c0.2,0,0.3,0.2,0.5,0.3l0,0c0.2,0,0.2,0,0.2,0.2l0.2,0.2
		l0.2,0.2l0.2,0.2h0.2l0.2,0.2h0.2c0.5,0.3,1,0.6,1.3,1c0.5,0.3,1,0.6,1.3,1c0.6,0.5,1.3,1.1,1.7,1.6c0.2,0.2,0.3,0.5,0.5,0.6
		c0.6,0.6,1.1,1.3,1.6,1.9l0.5,0.6c0.2,0.2,0.3,0.5,0.5,0.6c0.2,0.3,0.5,0.8,0.6,1.1l0.3,0.6c0.3,0.5,0.5,1,0.6,1.4
		c0.2,0.5,0.3,0.6,0.5,0.8l0.3,1c0.2,0.3,0.2,0.6,0.3,1l0.2,0.6l3.8-3.2L395.1,387.3L395.1,387.3z M402.6,379.5L402.6,379.5
		l-7.5,7.6l-0.2,0.2l7.6,7.6l4.8-4.8v-15.5L402.6,379.5z M443.6,422v13h12.5l0,0L443.6,422z M395.1,387.3L395.1,387.3l7.3-7.6
		l0.2-0.2l-0.2-0.2l-1-1l-0.6-0.6l-4.4-4.6l-9.7-10l-4.9,1.4l-7.3,2.2L364,370v-13.8h-21.1v24.9H378l1.3,0.2l1.1,0.2l0,0h0.3
		l0.8,0.2l0.8,0.2l0.8,0.2l1,0.3l0.5,0.2l0.5,0.2l0.3,0.2l0,0l0.5,0.2c0.2,0,0.3,0.2,0.5,0.2s0.3,0.2,0.5,0.2l0,0l0,0
		c0.2,0,0.3,0.2,0.5,0.3l0,0c0.2,0,0.2,0,0.2,0.2l0.2,0.2l0.2,0.2l0.2,0.2h0.2l0.2,0.2h0.2c0.5,0.3,1,0.6,1.3,1c0.5,0.3,1,0.6,1.3,1
		c0.6,0.5,1.3,1.1,1.7,1.6c0.2,0.2,0.3,0.5,0.5,0.6c0.6,0.6,1.1,1.3,1.6,1.9l0.5,0.6c0.2,0.2,0.3,0.5,0.5,0.6
		c0.2,0.3,0.5,0.8,0.6,1.1l0.3,0.6c0.3,0.5,0.5,1,0.6,1.4c0.2,0.5,0.3,0.6,0.5,0.8l0.3,1c0.2,0.3,0.2,0.6,0.3,1l0.2,0.6l3.8-3.2
		L395.1,387.3L395.1,387.3z M402.6,379.5L402.6,379.5l-7.5,7.6l-0.2,0.2l7.6,7.6l4.8-4.8v-15.5L402.6,379.5z M443.6,422v13h12.5l0,0
		L443.6,422z M395.1,387.3L395.1,387.3l7.3-7.6l0.2-0.2l-0.2-0.2l-1-1l-0.6-0.6l-4.4-4.6l-9.7-10l-4.9,1.4l-7.3,2.2L364,370v-13.8
		h-21.1v24.9H378l1.3,0.2l1.1,0.2l0,0h0.3l0.8,0.2l0.8,0.2l0.8,0.2l1,0.3l0.5,0.2l0.5,0.2l0.3,0.2l0,0l0.5,0.2
		c0.2,0,0.3,0.2,0.5,0.2s0.3,0.2,0.5,0.2l0,0l0,0c0.2,0,0.3,0.2,0.5,0.3l0,0c0.2,0,0.2,0,0.2,0.2l0.2,0.2l0.2,0.2l0.2,0.2h0.2
		l0.2,0.2h0.2c0.5,0.3,1,0.6,1.3,1c0.5,0.3,1,0.6,1.3,1c0.6,0.5,1.3,1.1,1.7,1.6c0.2,0.2,0.3,0.5,0.5,0.6c0.6,0.6,1.1,1.3,1.6,1.9
		l0.5,0.6c0.2,0.2,0.3,0.5,0.5,0.6c0.2,0.3,0.5,0.8,0.6,1.1l0.3,0.6c0.3,0.5,0.5,1,0.6,1.4c0.2,0.5,0.3,0.6,0.5,0.8l0.3,1
		c0.2,0.3,0.2,0.6,0.3,1l0.2,0.6l3.8-3.2L395.1,387.3L395.1,387.3z M402.6,379.5L402.6,379.5l-7.5,7.6l-0.2,0.2l7.6,7.6l4.8-4.8
		v-15.5L402.6,379.5z M443.6,422v13h12.5l0,0L443.6,422z M395.1,387.3L395.1,387.3l7.3-7.6l0.2-0.2l-0.2-0.2l-1-1l-0.6-0.6l-4.4-4.6
		l-9.7-10l-4.9,1.4l-7.3,2.2L364,370v-13.8h-21.1v24.9H378l1.3,0.2l1.1,0.2l0,0h0.3l0.8,0.2l0.8,0.2l0.8,0.2l1,0.3l0.5,0.2l0.5,0.2
		l0.3,0.2l0,0l0.5,0.2c0.2,0,0.3,0.2,0.5,0.2s0.3,0.2,0.5,0.2l0,0l0,0c0.2,0,0.3,0.2,0.5,0.3l0,0c0.2,0,0.2,0,0.2,0.2l0.2,0.2
		l0.2,0.2l0.2,0.2h0.2l0.2,0.2h0.2c0.5,0.3,1,0.6,1.3,1c0.5,0.3,1,0.6,1.3,1c0.6,0.5,1.3,1.1,1.7,1.6c0.2,0.2,0.3,0.5,0.5,0.6
		c0.6,0.6,1.1,1.3,1.6,1.9l0.5,0.6c0.2,0.2,0.3,0.5,0.5,0.6c0.2,0.3,0.5,0.8,0.6,1.1l0.3,0.6c0.3,0.5,0.5,1,0.6,1.4
		c0.2,0.5,0.3,0.6,0.5,0.8l0.3,1c0.2,0.3,0.2,0.6,0.3,1l0.2,0.6l3.8-3.2L395.1,387.3L395.1,387.3z M402.6,379.5L402.6,379.5
		l-7.5,7.6l-0.2,0.2l7.6,7.6l4.8-4.8v-15.5L402.6,379.5z M443.6,422v13h12.5l0,0L443.6,422z M395.1,387.3L395.1,387.3l7.3-7.6
		l0.2-0.2l-0.2-0.2l-1-1l-0.6-0.6l-4.4-4.6l-9.7-10l-4.9,1.4l-7.3,2.2L364,370v-13.8h-21.1v24.9H378l1.3,0.2l1.1,0.2l0,0h0.3
		l0.8,0.2l0.8,0.2l0.8,0.2l1,0.3l0.5,0.2l0.5,0.2l0.3,0.2l0,0l0.5,0.2c0.2,0,0.3,0.2,0.5,0.2s0.3,0.2,0.5,0.2l0,0l0,0
		c0.2,0,0.3,0.2,0.5,0.3l0,0c0.2,0,0.2,0,0.2,0.2l0.2,0.2l0.2,0.2l0.2,0.2h0.2l0.2,0.2h0.2c0.5,0.3,1,0.6,1.3,1c0.5,0.3,1,0.6,1.3,1
		c0.6,0.5,1.3,1.1,1.7,1.6c0.2,0.2,0.3,0.5,0.5,0.6c0.6,0.6,1.1,1.3,1.6,1.9l0.5,0.6c0.2,0.2,0.3,0.5,0.5,0.6
		c0.2,0.3,0.5,0.8,0.6,1.1l0.3,0.6c0.3,0.5,0.5,1,0.6,1.4c0.2,0.5,0.3,0.6,0.5,0.8l0.3,1c0.2,0.3,0.2,0.6,0.3,1l0.2,0.6l3.8-3.2
		L395.1,387.3L395.1,387.3z M402.6,379.5L402.6,379.5l-7.5,7.6l-0.2,0.2l7.6,7.6l4.8-4.8v-15.5L402.6,379.5z M443.6,422v13h12.5l0,0
		L443.6,422z M395.1,387.3L395.1,387.3l7.3-7.6l0.2-0.2l-0.2-0.2l-1-1l-0.6-0.6l-4.4-4.6l-9.7-10l-4.9,1.4l-7.3,2.2L364,370v-13.8
		h-21.1v24.9H378l1.3,0.2l1.1,0.2l0,0h0.3l0.8,0.2l0.8,0.2l0.8,0.2l1,0.3l0.5,0.2l0.5,0.2l0.3,0.2l0,0l0.5,0.2
		c0.2,0,0.3,0.2,0.5,0.2s0.3,0.2,0.5,0.2l0,0l0,0c0.2,0,0.3,0.2,0.5,0.3l0,0c0.2,0,0.2,0,0.2,0.2l0.2,0.2l0.2,0.2l0.2,0.2h0.2
		l0.2,0.2h0.2c0.5,0.3,1,0.6,1.3,1c0.5,0.3,1,0.6,1.3,1c0.6,0.5,1.3,1.1,1.7,1.6c0.2,0.2,0.3,0.5,0.5,0.6c0.6,0.6,1.1,1.3,1.6,1.9
		l0.5,0.6c0.2,0.2,0.3,0.5,0.5,0.6c0.2,0.3,0.5,0.8,0.6,1.1l0.3,0.6c0.3,0.5,0.5,1,0.6,1.4c0.2,0.5,0.3,0.6,0.5,0.8l0.3,1
		c0.2,0.3,0.2,0.6,0.3,1l0.2,0.6l3.8-3.2L395.1,387.3L395.1,387.3z M402.6,379.5L402.6,379.5l-7.5,7.6l-0.2,0.2l7.6,7.6l4.8-4.8
		v-15.5L402.6,379.5z M443.6,422v13h12.5l0,0L443.6,422z M395.1,387.3L395.1,387.3l7.3-7.6l0.2-0.2l-0.2-0.2l-1-1l-0.6-0.6l-4.4-4.6
		l-9.7-10l-4.9,1.4l-7.3,2.2L364,370v-13.8h-21.1v24.9H378l1.3,0.2l1.1,0.2l0,0h0.3l0.8,0.2l0.8,0.2l0.8,0.2l1,0.3l0.5,0.2l0.5,0.2
		l0.3,0.2l0,0l0.5,0.2c0.2,0,0.3,0.2,0.5,0.2s0.3,0.2,0.5,0.2l0,0l0,0c0.2,0,0.3,0.2,0.5,0.3l0,0c0.2,0,0.2,0,0.2,0.2l0.2,0.2
		l0.2,0.2l0.2,0.2h0.2l0.2,0.2h0.2c0.5,0.3,1,0.6,1.3,1c0.5,0.3,1,0.6,1.3,1c0.6,0.5,1.3,1.1,1.7,1.6c0.2,0.2,0.3,0.5,0.5,0.6
		c0.6,0.6,1.1,1.3,1.6,1.9l0.5,0.6c0.2,0.2,0.3,0.5,0.5,0.6c0.2,0.3,0.5,0.8,0.6,1.1l0.3,0.6c0.3,0.5,0.5,1,0.6,1.4
		c0.2,0.5,0.3,0.6,0.5,0.8l0.3,1c0.2,0.3,0.2,0.6,0.3,1l0.2,0.6l3.8-3.2L395.1,387.3L395.1,387.3z M402.6,379.5L402.6,379.5
		l-7.5,7.6l-0.2,0.2l7.6,7.6l4.8-4.8v-15.5L402.6,379.5z M443.6,422v13h12.5l0,0L443.6,422z M395.1,387.3L395.1,387.3l7.3-7.6
		l0.2-0.2l-0.2-0.2l-1-1l-0.6-0.6l-4.4-4.6l-9.7-10l-4.9,1.4l-7.3,2.2L364,370v-13.8h-21.1v24.9H378l1.3,0.2l1.1,0.2l0,0h0.3
		l0.8,0.2l0.8,0.2l0.8,0.2l1,0.3l0.5,0.2l0.5,0.2l0.3,0.2l0,0l0.5,0.2c0.2,0,0.3,0.2,0.5,0.2s0.3,0.2,0.5,0.2l0,0l0,0
		c0.2,0,0.3,0.2,0.5,0.3l0,0c0.2,0,0.2,0,0.2,0.2l0.2,0.2l0.2,0.2l0.2,0.2h0.2l0.2,0.2h0.2c0.5,0.3,1,0.6,1.3,1c0.5,0.3,1,0.6,1.3,1
		c0.6,0.5,1.3,1.1,1.7,1.6c0.2,0.2,0.3,0.5,0.5,0.6c0.6,0.6,1.1,1.3,1.6,1.9l0.5,0.6c0.2,0.2,0.3,0.5,0.5,0.6
		c0.2,0.3,0.5,0.8,0.6,1.1l0.3,0.6c0.3,0.5,0.5,1,0.6,1.4c0.2,0.5,0.3,0.6,0.5,0.8l0.3,1c0.2,0.3,0.2,0.6,0.3,1l0.2,0.6l3.8-3.2
		L395.1,387.3L395.1,387.3z M402.6,379.5L402.6,379.5l-7.5,7.6l-0.2,0.2l7.6,7.6l4.8-4.8v-15.5L402.6,379.5z M402.6,379.5
		L402.6,379.5L402.6,379.5l-1.1-1.1l-0.6-0.6l-4.4-4.6l-9.7-10l-4.9,1.4l-7.3,2.2L364,370v-13.8h-21.1v24.9H378l1.3,0.2l1.1,0.2l0,0
		h0.3l0.8,0.2l0.8,0.2l0.8,0.2l1,0.3l0.5,0.2l0.5,0.2l0.3,0.2l0,0l0.5,0.2c0.2,0,0.3,0.2,0.5,0.2s0.3,0.2,0.5,0.2l0,0l0,0
		c0.2,0,0.3,0.2,0.5,0.3l0,0c0.2,0,0.2,0,0.2,0.2l0.2,0.2l0.2,0.2l0.2,0.2h0.2l0.2,0.2h0.2c0.5,0.3,1,0.6,1.3,1c0.5,0.3,1,0.6,1.3,1
		c0.6,0.5,1.3,1.1,1.7,1.6c0.2,0.2,0.3,0.5,0.5,0.6c0.6,0.6,1.1,1.3,1.6,1.9l0.5,0.6c0.2,0.2,0.3,0.5,0.5,0.6
		c0.2,0.3,0.5,0.8,0.6,1.1l0.3,0.6c0.3,0.5,0.5,1,0.6,1.4c0.2,0.5,0.3,0.6,0.5,0.8l0.3,1c0.2,0.3,0.2,0.6,0.3,1l0.2,0.6l3.8-3.2
		l4.8-4.8v-5.7L402.6,379.5z M402.6,379.5L402.6,379.5L402.6,379.5l-1.1-1.1l-0.6-0.6l-4.4-4.6l-9.7-10l-4.9,1.4l-7.3,2.2L364,370
		v-13.8h-21.1v24.9H378l1.3,0.2l1.1,0.2l0,0h0.3l0.8,0.2l0.8,0.2l0.8,0.2l1,0.3l0.5,0.2l0.5,0.2l0.3,0.2l0,0l0.5,0.2
		c0.2,0,0.3,0.2,0.5,0.2s0.3,0.2,0.5,0.2l0,0l0,0c0.2,0,0.3,0.2,0.5,0.3l0,0c0.2,0,0.2,0,0.2,0.2l0.2,0.2l0.2,0.2l0.2,0.2h0.2
		l0.2,0.2h0.2c0.5,0.3,1,0.6,1.3,1c0.5,0.3,1,0.6,1.3,1c0.6,0.5,1.3,1.1,1.7,1.6c0.2,0.2,0.3,0.5,0.5,0.6c0.6,0.6,1.1,1.3,1.6,1.9
		l0.5,0.6c0.2,0.2,0.3,0.5,0.5,0.6c0.2,0.3,0.5,0.8,0.6,1.1l0.3,0.6c0.3,0.5,0.5,1,0.6,1.4c0.2,0.5,0.3,0.6,0.5,0.8l0.3,1
		c0.2,0.3,0.2,0.6,0.3,1l0.2,0.6l3.8-3.2l4.8-4.8v-5.7L402.6,379.5z M402.6,379.5L402.6,379.5L402.6,379.5l-1.1-1.1l-0.6-0.6
		l-4.4-4.6l-9.7-10l-4.9,1.4l-7.3,2.2L364,370v-13.8h-21.1v24.9H378l1.3,0.2l1.1,0.2l0,0h0.3l0.8,0.2l0.8,0.2l0.8,0.2l1,0.3l0.5,0.2
		l0.5,0.2l0.3,0.2l0,0l0.5,0.2c0.2,0,0.3,0.2,0.5,0.2s0.3,0.2,0.5,0.2l0,0l0,0c0.2,0,0.3,0.2,0.5,0.3l0,0c0.2,0,0.2,0,0.2,0.2
		l0.2,0.2l0.2,0.2l0.2,0.2h0.2l0.2,0.2h0.2c0.5,0.3,1,0.6,1.3,1c0.5,0.3,1,0.6,1.3,1c0.6,0.5,1.3,1.1,1.7,1.6
		c0.2,0.2,0.3,0.5,0.5,0.6l1.4-1.6l0.3,0.3l-0.2,0.2l7.6,7.6l4.8-4.8v-5.7L402.6,379.5z M375.9,381.1h-15.5l-17.3-16.7v16.7h33.5
		C376.4,381.1,376.1,381.1,375.9,381.1z M377.7,381.1L377.7,381.1h-0.3c-0.3,0-0.5,0-0.8,0h0.5l0,0h0.8H377.7z M380.4,381.4h-1.1
		l1.3,0.3l0,0L380.4,381.4z M378.8,381.2L378.8,381.2H378l1.3,0.2L378.8,381.2z M385.6,383l-0.5-0.2h0.2h0.2L385.6,383
		c0.2,0,0.3,0.2,0.5,0.2C385.9,383.1,385.8,383.1,385.6,383z M384.3,382.5l-0.5-0.2l0.2,0.2H384.3l0.5,0.2l0.3,0.2l0,0l-0.3-0.2
		L384.3,382.5z M386.5,383.5L386.5,383.5L386.5,383.5L386.5,383.5c0,0,0.2,0.2,0.3,0.2c0,0,0.2,0,0.2,0.2l0,0
		C386.9,383.6,386.7,383.6,386.5,383.5z M385.6,383.1c0.2,0,0.3,0.2,0.3,0.2c0.2,0,0.3,0.2,0.5,0.2c-0.2,0-0.3-0.2-0.5-0.2
		C385.9,383.1,385.8,383.1,385.6,383.1z M385.6,383l-0.5-0.2h0.2h0.2L385.6,383L385.6,383c0.2,0,0.3,0.2,0.5,0.2
		C385.9,383.1,385.8,383.1,385.6,383z M381.2,381.6h-0.3l0.6,0.2L381.2,381.6z M381.6,381.7L381.6,381.7l0.5,0.2L381.6,381.7z
		 M393.4,388.7l-0.5-0.5C393,388.4,393.2,388.5,393.4,388.7l0.2,0.2L393.4,388.7z M391.6,386.9c-0.2-0.2-0.3-0.2-0.5-0.3
		C391.3,386.6,391.5,386.8,391.6,386.9L391.6,386.9l0.2,0.3c0,0,0.2,0,0.2,0.2C391.8,387.1,391.8,386.9,391.6,386.9z M391.9,387.3
		l0.3,0.3l0,0l0,0l0,0C392.3,387.4,392.1,387.4,391.9,387.3z M392.4,387.6L392.4,387.6C392.4,387.7,392.6,387.7,392.4,387.6
		c0.3,0.3,0.3,0.3,0.5,0.5C392.7,388.1,392.6,387.7,392.4,387.6z M389.1,385L389.1,385l-0.6-0.5c0.2,0,0.2,0.2,0.3,0.2
		S389.1,385,389.1,385L389.1,385L389.1,385c0.2,0.2,0.3,0.2,0.3,0.3C389.4,385.2,389.2,385,389.1,385z M363.9,356.2L363.9,356.2
		l0.2,0.2v-0.2H363.9z M363.9,356.2L363.9,356.2l0.2,0.2v-0.2H363.9z M443.5,354.9v27.3l0,0l24-23v-4.1h-24V354.9z M343.1,364.4
		v16.7h17.3l0,0L343.1,364.4z"/>
	<path class="st2" d="M500.4,366.5l4.8-1.4v-43.8h-74.9c-13.2,0-24.7,8.7-28.6,21.3v-21.3h-72.6c-4,0.2-7.9,1.1-11.6,2.9
		c-3.5,1.6-6.7,4-9.4,6.8c-0.5,0.5-1,1-1.3,1.4c-0.5,0.5-0.8,1.1-1.3,1.6c-3.6,5.2-5.7,11.4-5.7,17.8v32.8c0,2.7,0.3,5.2,1,7.8
		c3.5,13.5,15.7,23,29.7,23h2.9l-10.8,3.2l-13.3,4l-4.8,1.4v44.4h71.2c11.7,0,22.4-6.7,27.4-17.1c4.9,10.5,15.4,17.1,27,17.1H505
		v-44.6l-4.8-1.4l-30.8-9.4v-37.1L500.4,366.5z M407.5,390.3L407.5,390.3l-4.9,4.6l-3.8,3.2c0.2,0.5,0.2,0.8,0.3,1.1
		c0,0.3,0.2,0.6,0.2,1v0.5l0.2,0.6c0,0.3,0,0.5,0.2,0.8c0,0.3,0,0.5,0,0.8v0.2c0,0.3,0,0.5,0,0.8v0.8l0.3,33.3v3.5v0.2v0.8
		c0,0.2,0,0.5-0.2,0.6c0,0.2-0.3,1.1-0.5,1.6v0.2l-0.2,0.3c0,0.2,0,0.3-0.2,0.5l0,0l0,0c0,0-0.2,0.3-0.2,0.5l-0.2,0.5
		c0,0.2-0.2,0.3-0.2,0.5c0,0.2-0.2,0.3-0.2,0.5l-0.2,0.5c-0.2,0.2-0.2,0.3-0.3,0.5l-0.3,0.5c0,0.2-0.2,0.3-0.3,0.5
		c0,0.2-0.2,0.3-0.3,0.5c-0.2,0.2-0.3,0.5-0.5,0.8l-0.3,0.5l-0.2,0.2c-0.2,0.2-0.3,0.5-0.5,0.6c-0.2,0.3-0.5,0.5-0.6,0.8
		c-0.2,0.2-0.3,0.3-0.3,0.5l-0.5,0.5c-0.3,0.3-0.8,0.8-1.1,1.1l-0.5,0.3l-0.5,0.5l-0.2,0.2c-0.2,0.2-0.5,0.3-0.6,0.5l-0.2,0.2
		l-0.5,0.5c-0.2,0.2-0.3,0.3-0.6,0.5c-0.2,0.2-0.6,0.5-1,0.6l-0.2,0.2l-0.2,0.2h-0.2l-0.2,0.2l-0.2,0.2l-0.8,0.5l-0.5,0.3h-0.2
		c-0.3,0.2-0.6,0.3-1,0.5l-0.5,0.2h-0.2l-0.6,0.3c-0.2,0.2-0.5,0.2-0.6,0.3l-0.8,0.2l-0.6,0.2c-0.2,0-0.3,0.2-0.6,0.2l-0.6,0.2H381
		l-1.1,0.2c-0.5,0-0.8,0.2-1.3,0.2c-0.5,0-0.8,0-1.3,0.2c-0.5,0.2-0.8,0-1.3,0h-65v-32.2l13.3-4l17.8-5.2v13.8h21.1v-24.9h-32.8
		c-3.6,0-7.3-0.8-10.6-2.5c-0.8-0.5-1.7-1-2.5-1.4c-0.5-0.3-1.1-0.8-1.6-1.1c-0.5-0.3-1-0.8-1.4-1.1l-0.2-0.2
		c-0.2-0.2-0.3-0.3-0.5-0.5c-0.2-0.2-0.5-0.5-0.6-0.6l-0.8-1c-0.2-0.3-0.5-0.5-0.6-0.8c-0.2-0.3-0.5-0.5-0.6-0.8
		c-0.2-0.3-0.3-0.5-0.5-0.8l-0.5-0.8v-0.2c-0.2-0.2-0.3-0.3-0.3-0.6l-0.5-0.8c-0.2-0.3-0.3-0.6-0.5-0.8c-0.2-0.3-0.3-0.6-0.3-1
		c-0.2-0.3-0.2-0.6-0.3-0.8c-0.2-0.3-0.2-0.6-0.3-1c-0.2-0.3-0.2-0.6-0.3-1c0-0.2-0.2-0.5-0.2-0.6c-0.2-0.8-0.3-1.4-0.5-2.2
		c-0.2-1-0.2-2.1-0.2-3v-33.3c0-0.2,0-0.2,0-0.3v-1.3v-0.2v-0.2v-0.2v-0.2v-0.5c0-0.3,0.2-0.5,0.2-0.8v-0.2l0.2-0.8v-0.6
		c0-0.2,0-0.5,0.2-0.6c0-0.2,0-0.2,0-0.3c0-0.3,0.2-0.5,0.2-0.6l0.2-0.3c0-0.2,0.2-0.5,0.2-0.6s0.2-0.5,0.2-0.6
		c0-0.2,0.2-0.5,0.2-0.6c0.3-1,0.8-1.9,1.3-2.7c0.2-0.2,0.3-0.5,0.3-0.6l0.3-0.5v-0.2l0.2-0.2l0.2-0.3l0.2-0.3
		c0-0.2,0.2-0.3,0.3-0.3c0-0.2,0.2-0.2,0.2-0.3c0.5-0.6,1-1.4,1.6-2.1l0.5-0.5l0.3-0.3l0.2-0.3c0.5-0.5,1.1-1.1,1.7-1.6
		c0.6-0.5,1.1-0.8,1.6-1.3c0.5-0.3,1.1-0.8,1.7-1.1c0.6-0.3,1.1-0.6,1.7-1c1-0.5,1.9-0.8,2.9-1.1c2.4-0.8,4.8-1.1,7.3-1.1h64.4v32.5
		l-7.9,2.9l9.7,10l4.4,4.6l0.6,0.6l1,1l0.2,0.2l4.8-4.9L407.5,390.3L407.5,390.3L407.5,390.3z M443.6,382.2V422l12.5,12.8l0,0h-12.5
		l0,0h24v-15.2l30.8,9.4v32.8h-70.7c-0.3,0-0.5,0-0.8-0.2h-1.3l-0.8-0.2h-0.5l-0.5-0.2h-0.5c-0.2,0-0.3-0.2-0.5-0.2h-0.2h-0.2
		c-0.3-0.2-0.6-0.3-1.1-0.5c-0.3-0.2-0.6-0.2-1-0.5h-0.2c-0.2-0.2-0.5-0.2-0.6-0.3l-0.3-0.2h-0.2h-0.2l-0.2-0.2l-0.5-0.3l-0.2-0.2
		l-0.5-0.3c-0.2-0.2-0.5-0.3-0.6-0.5l-0.2-0.2c-0.2,0-0.2-0.2-0.3-0.3h-0.2h-0.2l-0.2-0.2H416l-0.8-0.6l-0.2-0.2l-0.3-0.2l-0.5-0.5
		l-0.3-0.3l-0.3-0.5c-0.3-0.3-0.5-0.5-0.6-0.8l-0.8-1c-0.2-0.3-0.5-0.6-0.6-1l-0.2-0.2c0,0,0-0.2-0.2-0.2l-0.2-0.2l-0.2-0.2
		l-0.2-0.2c-0.2-0.3-0.3-0.5-0.5-0.8l-0.2-0.2l-0.2-0.3l-0.2-0.3l-0.2-0.2c0-0.2-0.2-0.3-0.2-0.5s-0.2-0.3-0.3-0.5
		c0-0.2-0.2-0.3-0.2-0.5l-0.2-0.6c-0.2-0.3-0.3-0.8-0.3-1.1c-0.2-0.3-0.2-0.8-0.3-1.1c-0.2-0.3-0.2-0.8-0.3-1.1
		c0-0.3-0.2-0.8-0.2-1.1c0-0.3,0-0.6-0.2-0.8v-0.8l0,0v-90.7c0-0.8,0-1.6,0.2-2.2v-0.3c0-0.8,0.2-1.6,0.3-2.4c0-0.3,0.2-0.8,0.2-1.1
		c0-0.3,0.2-0.8,0.3-1.1c0.2-0.3,0.2-0.6,0.3-1c0.2-0.3,0.2-0.3,0.2-0.5c0-0.2,0-0.2,0.2-0.3c0-0.2,0-0.2,0.2-0.3c0,0,0,0,0-0.2
		c0.3-0.6,0.6-1.4,1-2.1l0.2-0.2l0.2-0.3l0.2-0.3c0.2-0.3,0.3-0.6,0.6-1l0.2-0.3l0.3-0.5c0.5-0.8,1.1-1.4,1.7-2.1
		c0.2-0.3,0.5-0.5,0.6-0.6l0.3-0.3c0.2-0.2,0.3-0.3,0.5-0.5c0.6-0.6,1.4-1.1,2.1-1.6l0.3-0.3l0.5-0.3l0.8-0.5c0.6-0.5,1.4-1,2.1-1.3
		c0.6-0.3,1.4-0.5,2.1-0.8c2.2-0.6,4.4-1,6.7-1h68V360l-30.8,9.4v-10.2L443.6,382.2z"/>
	<path class="st2" d="M309.9,340.2c0.2-0.2,0.2-0.5,0.3-0.6c0,0,0,0,0,0.2C310.1,339.7,310.1,340,309.9,340.2z"/>
	<path class="st2" d="M310.6,339.2l-0.2,0.3l-0.2,0.2L310.6,339.2z"/>
	<path class="st2" d="M378,381.1L378,381.1h-1.4c0.2,0,0.5,0,0.8,0l0,0H378h0.5h0.2l0.6,0.2L378,381.1z"/>
	<path class="st2" d="M380.7,381.6l-1.4-0.3h0.5h0.5h0.2L380.7,381.6z"/>
	<path class="st2" d="M381.5,381.7l-0.8-0.2h0.3L381.5,381.7z"/>
	<path class="st2" d="M382.3,381.9l-0.8-0.2h0.2L382.3,381.9z"/>
	<path class="st2" d="M383.8,382.3l-1-0.3l0.6,0.2L383.8,382.3z"/>
	<path class="st2" d="M384.8,382.8l-1-0.3l0.5,0.2L384.8,382.8z"/>
	<path class="st2" d="M385.4,383.1L385.4,383.1l-0.8-0.3l0.3,0.2L385.4,383.1z"/>
	<path class="st2" d="M387.3,383.9c-0.3-0.2-0.5-0.3-0.8-0.5c-0.3-0.2-0.6-0.3-0.8-0.5c0.3,0.2,0.6,0.3,0.8,0.5l0.6,0.3L387.3,383.9
		z"/>
	<path class="st2" d="M389.9,385.5c-0.5-0.3-0.8-0.6-1.3-1l0.6,0.3C389.4,385.2,389.7,385.4,389.9,385.5z"/>
	<path class="st2" d="M392.4,387.7c0.2,0.2,0.3,0.3,0.5,0.5c-0.6-0.6-1.1-1.1-1.7-1.6c0.2,0.2,0.3,0.2,0.5,0.3l0.8,0.6
		C392.3,387.7,392.4,387.7,392.4,387.7z"/>
	<path class="st2" d="M395.1,390.8L395.1,390.8c-0.5-0.6-1-1.3-1.6-1.9l0,0c-0.2-0.2-0.3-0.5-0.6-0.6l0.5,0.5l0.2,0.2l0,0
		C394,389.5,394.6,390.1,395.1,390.8z"/>
	<path class="st2" d="M395.1,328.1h-64.4c-2.4,0-4.9,0.3-7.3,1.1c2.4-0.8,4.8-1.1,7.3-1.1H395.1z"/>
	<path class="st2" d="M467.6,419.6L467.6,419.6l30.8,9.4l0,0L467.6,419.6z M443.6,434.8L443.6,434.8z M415.9,456.6l0.2,0.2h0.2
		L415.9,456.6z M414.1,455l0.5,0.5l0.2,0.2C414.5,455.5,414.3,455.2,414.1,455L414.1,455z"/>
	<path class="st2" d="M407.8,346.5c-0.2,0.8-0.3,1.6-0.3,2.4C407.6,348.1,407.6,347.3,407.8,346.5z"/>
	<path class="st2" d="M421.6,329.8c-1,0.3-1.7,0.8-2.5,1.3C419.9,330.6,420.6,330.2,421.6,329.8z"/>
	<path class="st2" d="M498.4,328.1L498.4,328.1h-68c-3,0-6,0.6-8.7,1.7c2.7-1.1,5.7-1.7,8.7-1.7H498.4z"/>
</g>
</svg>
