<svg id="Layer_1" data-name="Layer 1" xmlns="http://www.w3.org/2000/svg" viewBox="0 0 600 600"><defs><style>.cls-1{fill:#fff;}</style></defs><title>stuco</title><polygon class="cls-1" points="249.91 342.13 249.9 342.14 245.77 346.4 245.35 346.83 244.68 346.4 244.13 346.06 243.97 345.95 240.78 343.92 240.8 343.89 242.55 342.08 242.55 342.13 249.91 342.13"/><polygon class="cls-1" points="263.92 327.64 253.01 338.92 245.75 338.92 245.75 338.74 258.9 325.06 258.9 327.64 263.92 327.64"/><polygon class="cls-1" points="275.36 308.71 275.36 315.81 275.35 315.81 267.02 324.43 267.01 324.44 262.1 324.44 262.1 321.71 262.11 321.7 271.63 311.8 274.58 308.73 274.59 308.71 275.36 308.71"/><path class="cls-1" d="M292.05,298.54l-.71.72-4.62,4.79h0l-8.16,8.44v-7h-.89l5.08-5.28h0l2.71-2.81h5.45A10,10,0,0,1,292.05,298.54Z"/><polygon class="cls-1" points="273.56 342.13 273.56 342.14 269.09 346.4 256.14 358.83 250.09 349.95 253.64 346.4 257.91 342.14 257.92 342.13 273.56 342.13"/><path class="cls-1" d="M295.06,306.37v15.14l-18.15,17.41H261.12l11.27-11.28h6.17v-6.2l12.87-12.88L295,305A12.26,12.26,0,0,1,295.06,306.37Z"/><path class="cls-1" d="M303,297v16.91l-3,2.91-1.74,1.67V306.38c0-.18,0-.35,0-.53a3.87,3.87,0,0,0,0-.48v-.06c0-.17,0-.34,0-.5s0-.32-.05-.48c0,0,0,0,0,0l-.06-.38s0-.08,0-.13a1.62,1.62,0,0,0,0-.19,5.59,5.59,0,0,0-.12-.56c-.05-.25-.11-.49-.18-.74h0L300,300l3-3Z"/><polygon class="cls-1" points="320.18 297.41 317.25 300.23 317.24 300.23 313.27 304.03 313.27 304.04 308.55 308.56 306.24 310.78 306.24 297.41 320.18 297.41"/><polygon class="cls-1" points="341.01 274.82 341.01 277.43 341 277.43 325.86 291.96 325.86 274.82 341.01 274.82"/><path class="cls-1" d="M303,279.13v8.05l-3,3.13-.09.09-4.68,4.83-.94,1h0c-.11-.13-.23-.25-.35-.38a14.18,14.18,0,0,0-1.14-1,7.92,7.92,0,0,0-.82-.64c-.28-.2-.55-.39-.84-.57l0,0h0s0,0,0,0l-.07,0-.15-.09-.08,0h0l-.14-.09-.14-.07-.1-.06a5.12,5.12,0,0,0-.52-.27h0l1.47-1.53h0l4.8-5h0l3.87-4Z"/><path class="cls-1" d="M377.94,233.09c.54.63.54,1.32-.36,2.09L370.81,241c-.89.77-1.57.67-2.1,0s-.54-1.31.36-2.08l6.77-5.8C376.73,232.37,377.41,232.47,377.94,233.09Z"/><path class="cls-1" d="M370.09,209.32,368,211.54l-1.76,1.84-2.92,3h0c.88,1.3.7,2.84-.49,4.46l-1,1.29-2-1.45,1.05-1.42a2.49,2.49,0,0,0,.43-.87h0l-8,8.32a1.2,1.2,0,0,0,.26.24c.67.49,1.34.45,2-.5l1.39-1.9,2,1.44-1.3,1.78c-1.56,2.12-3.51,2.56-5.57,1.06-.17-.13-.33-.26-.47-.39l-2.53,2.64L347.36,233l-19.83,20.63-4.09,4.27h7.91l4.12-4.27h0L352,236.53h0l1.39-1.44.14-.15.25-.25,17-17.59,3.64-3.77,20.05-8L377,222.84l-2.86,2.87.05,0L363,237.87l-.52-.48-2.71,2.72L358,241.92l-11.68,11.69L342,257.88h18.39v.92l4.27-4.09,2.27-2.18,1.87-1.78,3.25-3.12h0a4.17,4.17,0,0,1,2-2.89l3.42-2.31v0l9.05-8.68h0l1.85-1.76,1.9-1.82,13.31-33.69Zm9.06,27.94-6.53,5.58c-2,1.71-4.05,1.64-5.71-.29s-1.41-4,.59-5.69l6.52-5.59c2-1.71,4.06-1.64,5.71.3S381.15,235.54,379.15,237.26Z"/><path class="cls-1" d="M247.57,375.57l-.06,0a13.82,13.82,0,0,1-2.15-1.35h0c.69-1,1.33-1,2-.57S248.15,374.68,247.57,375.57Z"/><path class="cls-1" d="M262.21,372.88v0l0,0-.1.09a.71.71,0,0,1-.09.07l-.08.08-.09.07-.15.12-.12.09s0,0,0,0l0,0a.24.24,0,0,1-.08.06l-.31.24-.48.33-.06,0-.48.31-.07,0,0,0-.05,0-.46.28a16.79,16.79,0,0,1-1.8.88l-.81.32h0c-.27.1-.57.19-.86.28l-.35.09-3.8-2.23-1.19,2,.9.54-.22,0-.27,0-.36-.06-.39-.08-.43-.09a3.42,3.42,0,0,0-1.19-4.77c-1.93-1.4-3.77-1.05-5.26.82l-17-17a10.91,10.91,0,0,1-3.26-8.47v-.35a.22.22,0,0,0,0-.08l0-.33c0-.22,0-.44.08-.66a3.11,3.11,0,0,1,0-.32c0-.14,0-.27.07-.41s.08-.37.11-.56.07-.29.1-.43c.09-.33.18-.67.29-1,0-.15.09-.3.15-.45.16-.47.35-1,.56-1.45a2,2,0,0,0,.11-.26c.16-.35.33-.69.5-1.05l.18-.34.18-.33a.26.26,0,0,1,.07-.11c.13-.26.29-.53.44-.79l.34-.55.87.57,9.57,6.24,1.41.92,1.76,1.15,2.45,1.6.25.15,3.89,2.54,1.53,1h0l14,21.16Z"/><path class="cls-1" d="M226.05,359.05l-9.45,11.18-1.65,2-7.88,9.31,1.21,1.22,9.27,9.4h0l.79.81,9.33-8,1.95-1.67,11.14-9.55Zm.09,4.25,7.71,7.67-12.18-2.42Zm-7.65,26-6.31-6.3,11,2.29Zm7.63-6.58-1.29-.28-12.65-2.75,2.27-2.65,6.09,1.27,4.59,1,4,.85-1.61,1.38Zm-5.41-7.88L217,374l1.39-1.62.76-.9,16.29,3.23-3.29,2.84Z"/><path class="cls-1" d="M216.5,396.89a5.92,5.92,0,0,1-1.73,4.21l-.22.21-.47.38a6,6,0,0,1-1.82.9l-.56.13a4.81,4.81,0,0,1-.85.1h-.57a4.81,4.81,0,0,1-.85-.1l-.56-.13a6,6,0,0,1-1.82-.9,3.37,3.37,0,0,1-.36-.3l-.33-.29-7.51-7.51-.3-.33-.29-.36a6,6,0,0,1-.9-1.82,5.66,5.66,0,0,1-.13-.56,4.93,4.93,0,0,1-.1-.85,4.21,4.21,0,0,1,0-.58,5,5,0,0,1,.1-.85c0-.18.08-.37.13-.56l.9-1.81c.12-.16.25-.32.38-.47l.21-.22.22-.21.47-.38a6.07,6.07,0,0,1,.84-.51l.44-.2a6.26,6.26,0,0,1,1.1-.32l.56-.09a7.36,7.36,0,0,1,1.15,0,5,5,0,0,1,.56.09,6.12,6.12,0,0,1,1.11.32l.52.24a5.87,5.87,0,0,1,.75.47l0,0a5.07,5.07,0,0,1,.45.36l.22.21,7.51,7.51a6,6,0,0,1,.81,1h0s0,0,0,0A5.84,5.84,0,0,1,216.5,396.89Z"/><path class="cls-1" d="M276.57,257.89h0l-4.1-4.27L252.62,233l-1.78-1.87-2.67-2.77-.78.6a5.1,5.1,0,0,1-1.42-1.47l-1.58-2c-.93-1.22-1.68-1.35-2.62-.64l-.71.55,4.09,5.33-1.61,1.23h0l2.67,2.76h0l1.79,1.84,16.53,17.09,4.13,4.27h7.91Zm-18.63,0-4.23-4.24L242,241.94l-1.81-1.82-4.8-4.81-.21.2L237,238l-1.71,1.65-9.57-13.7.19-.18-2.9-2.9-1.78-1.78h0l-15.69-15.73,20.07,8,1.88,2h0l1.76,1.82,10.89,11.26-7-9.2,3.1-2.38a5.66,5.66,0,0,1,.53-.37l-2.9-3L232,211.55l-2.14-2.23-33.51-12.87h0l13.3,33.69,1.92,1.83,1.84,1.76,17.75,17,1.87,1.79,7.49,7.19,3.09,3,.23-.24.15-.15c.34-.34.7-.66,1.07-1s.66-.53,1-.77.71-.47,1.07-.68a12.12,12.12,0,0,1,1.13-.59,16.19,16.19,0,0,1,1.79-.7,14.94,14.94,0,0,1,4.55-.71h3.32Zm-31.69-13.6-9.7-8,1.64-2,9.83,8.09c.92.75,1.57.62,2.09,0s.53-1.31-.38-2.06l-9.82-8.09,1.55-1.89,9.7,8c2,1.68,2.37,3.66.75,5.62S228.29,246,226.25,244.28Zm14.35-23.76-.16-.22,0,0-1.78-1.85a1.14,1.14,0,0,0-1.09.28l-1,.76,3.08,4,.81-.61C241.19,222.27,241.4,221.57,240.6,220.52Z"/><path class="cls-1" d="M295.06,306.37V312l-3.63-3.48-4.71-4.5h0l-4-3.81h0l-2.93-2.81h11.09a10,10,0,0,1,1.14,1.12,9,9,0,0,1,.68.82A11.55,11.55,0,0,1,295,305,12.26,12.26,0,0,1,295.06,306.37Z"/><path class="cls-1" d="M303,303v16.65l-3-2.92-1.74-1.66v-8.73c0-.18,0-.35,0-.53a3.87,3.87,0,0,0,0-.48v-.06c0-.17,0-.34,0-.5s0-.32-.05-.48c0,0,0,0,0,0l-.06-.38s0-.08,0-.13a1.62,1.62,0,0,0,0-.19,5.59,5.59,0,0,0-.12-.56c-.05-.25-.11-.49-.18-.74h0l-.12-.36c-.07-.21-.13-.42-.21-.62l-.21-.57c-.08-.19-.16-.37-.25-.55s-.27-.59-.43-.88l-.22-.39c-.14-.23-.28-.46-.43-.68s-.2-.3-.31-.45l-.25-.35h0a13.75,13.75,0,0,0-1-1.19h0c-.11-.13-.23-.25-.35-.38a14.18,14.18,0,0,0-1.14-1,7.92,7.92,0,0,0-.82-.64c-.28-.2-.55-.39-.84-.57l0,0h0s0,0,0,0l-.07,0-.15-.09-.08,0h0l-.14-.09-.14-.07-.1-.06a5.12,5.12,0,0,0-.52-.27c-.17-.09-.35-.18-.54-.26l-.55-.23-.56-.22-.57-.19-.46-.14-.47-.12-.47-.1-.86-.16-.83-.11h-.06l-.87,0H273.4l-10.93-10.48v-5.21H275.6l0,0,.11.12h0v8.51l6.55-2h0l9,9h0l3.91,3.91L300,300Z"/><polygon class="cls-1" points="338.86 338.91 323.08 338.91 306.24 322.76 306.24 306.25 308.55 308.56 322.65 322.69 322.65 328.4 328.36 328.4 338.86 338.91"/><polygon class="cls-1" points="349.88 349.96 343.83 358.83 330.89 346.41 326.43 342.13 326.42 342.13 342.06 342.13 342.07 342.13 346.33 346.41 349.88 349.96"/><polygon class="cls-1" points="303.03 285.45 303.03 293.45 302.99 293.4 300 290.31 299.93 290.25 299.34 289.63 298.94 289.21 296.13 286.3 290.02 279.98 290.02 279.96 295.27 278.39 295.27 277.37 300 282.27 303.03 285.45"/><polygon class="cls-1" points="322.65 305.86 322.65 313.74 313.27 304.03 309.83 300.47 308.99 299.61 306.86 297.41 314.54 297.41 317.24 300.23 322.65 305.86"/><polygon class="cls-1" points="341.01 324.96 341.01 325.19 341 325.19 341 325.21 333.74 325.21 333.73 325.19 333.72 325.19 325.86 317.06 325.86 309.19 341 324.96 341.01 324.96"/><polygon class="cls-1" points="354.42 338.91 346.99 338.91 336.82 328.4 344.21 328.4 344.21 328.3 354.42 338.91"/><polygon class="cls-1" points="359.21 343.91 355.57 346.25 355.32 346.41 354.64 346.83 354.23 346.41 350.1 342.13 350.08 342.13 357.5 342.13 357.51 342.13 359.19 343.88 359.21 343.91"/><path class="cls-1" d="M376.82,347a10.91,10.91,0,0,1-3.26,8.47l-17.41,17.4c-.19.19-.37.36-.56.53s-.57.49-.86.7-.37.29-.56.42l-.27.18-2.24-3.07-2.09,1.53,2,2.78h0l-.09,0-.36.14-.61.2-.72.18L348.23,374,346,375.4l.86,1.36-.4,0-.35,0-.1,0-.33,0a3.64,3.64,0,0,1-.44-.07l-.37-.07-.32-.07-.36-.09-.36-.1-.31-.09-.42-.14-.42-.16a4.87,4.87,0,0,1-.53-.21,16.81,16.81,0,0,1-2.13-1.1l-.26-.17-.13-.08-.12-.08-.35-.23-.07-.05-.33-.24h0l-.08-.05a.57.57,0,0,0-.13-.1l0,0,0,0,0,0-.09-.07-.18-.15a5.16,5.16,0,0,1-.42-.36v0l14-21.16h0l.9-.59.33-.21,3.88-2.53.22-.15,2.78-1.81,3.19-2.08,1.55-1,8-5.23.85-.56c.11.19.23.37.33.55.22.36.42.72.6,1.07a5.12,5.12,0,0,1,.27.52l.28.55.19.43a17.66,17.66,0,0,1,.71,1.77c.05.14.09.27.13.41s.09.28.13.43.06.21.09.3.11.43.16.63,0,.18.05.26.06.25.08.36.06.31.08.46,0,.21,0,.32.05.43.07.63,0,.25,0,.37a.2.2,0,0,0,0,.07C376.81,346.78,376.82,346.89,376.82,347Z"/><path class="cls-1" d="M385,372.2l-1.66-2-9.46-11.19-14.71,14.68,11.15,9.55,1.95,1.67,9.32,8,.77-.77,9.27-9.42,1.23-1.25Zm-11.19-8.9,4.47,5.25L366.14,371Zm-6.05,14.21-3.3-2.84,16.28-3.23.78.91,1.38,1.61-3.64.86Zm13.71,11.77-4.69-4,11-2.29Zm-6.34-6.87-1.32.29-1.42-1.22-1.61-1.38,4-.85,4.59-1,6.09-1.27,2.27,2.65Z"/><path class="cls-1" d="M402.87,389.38a5.44,5.44,0,0,1,0,.57,5.68,5.68,0,0,1-.41,1.67,3.49,3.49,0,0,1-.2.44,4.83,4.83,0,0,1-.51.84,4.22,4.22,0,0,1-.38.46c-.06.08-.14.15-.21.23l-7.51,7.51-.22.21c-.15.13-.3.26-.46.38a6,6,0,0,1-1.82.9l-.56.13a4.93,4.93,0,0,1-.85.1h-.57a4.81,4.81,0,0,1-.85-.1l-.56-.13a5.89,5.89,0,0,1-1.83-.9,3.27,3.27,0,0,1-.35-.3,3.11,3.11,0,0,1-.33-.29l-.3-.33a4.57,4.57,0,0,1-.29-.36l-.92-1.89a3.89,3.89,0,0,1-.12-.49,6,6,0,0,1-.1-.85c0-.1,0-.19,0-.29s0-.18,0-.28a6,6,0,0,1,.1-.85,5.09,5.09,0,0,1,.14-.56,6,6,0,0,1,.57-1.33l0-.06,0-.06h0c.08-.13.16-.25.25-.37a5.58,5.58,0,0,1,.38-.47l.21-.22,7.51-7.51L393,385a4.87,4.87,0,0,1,.42-.35h0a5.78,5.78,0,0,1,.88-.54l.44-.2a6.12,6.12,0,0,1,1.11-.32,5,5,0,0,1,.56-.09,7.23,7.23,0,0,1,1.14,0,5.62,5.62,0,0,1,.57.09,6.26,6.26,0,0,1,1.1.32c.18.07.35.16.53.24a5.87,5.87,0,0,1,.75.47c.16.12.31.25.46.38l.22.21.21.22a5.58,5.58,0,0,1,.38.47,5.25,5.25,0,0,1,.47.75c.09.17.17.35.24.52a5.68,5.68,0,0,1,.41,1.67A5.44,5.44,0,0,1,402.87,389.38Z"/><path class="cls-1" d="M320.18,399l-1.66-8.76c-.22-1.16-.81-1.5-1.62-1.35s-1.23.7-1,1.85l1.66,8.76c.22,1.15.81,1.5,1.62,1.34S320.39,400.17,320.18,399Zm0,0-1.66-8.76c-.22-1.16-.81-1.5-1.62-1.35s-1.23.7-1,1.85l1.66,8.76c.22,1.15.81,1.5,1.62,1.34S320.39,400.17,320.18,399Zm0,0-1.66-8.76c-.22-1.16-.81-1.5-1.62-1.35s-1.23.7-1,1.85l1.66,8.76c.22,1.15.81,1.5,1.62,1.34S320.39,400.17,320.18,399Zm0,0-1.66-8.76c-.22-1.16-.81-1.5-1.62-1.35s-1.23.7-1,1.85l1.66,8.76c.22,1.15.81,1.5,1.62,1.34S320.39,400.17,320.18,399Zm0,0-1.66-8.76c-.22-1.16-.81-1.5-1.62-1.35s-1.23.7-1,1.85l1.66,8.76c.22,1.15.81,1.5,1.62,1.34S320.39,400.17,320.18,399Zm0,0-1.66-8.76c-.22-1.16-.81-1.5-1.62-1.35s-1.23.7-1,1.85l1.66,8.76c.22,1.15.81,1.5,1.62,1.34S320.39,400.17,320.18,399Zm-49.94-13.33-1.38-.49L265,396.32l1.38.49c.78.27,1.39,0,1.78-1.08l2.82-8.1C271.35,386.51,271,386,270.24,385.68ZM320.18,399l-1.66-8.76c-.22-1.16-.81-1.5-1.62-1.35s-1.23.7-1,1.85l1.66,8.76c.22,1.15.81,1.5,1.62,1.34S320.39,400.17,320.18,399Zm0,0-1.66-8.76c-.22-1.16-.81-1.5-1.62-1.35s-1.23.7-1,1.85l1.66,8.76c.22,1.15.81,1.5,1.62,1.34S320.39,400.17,320.18,399Zm-49.94-13.33-1.38-.49L265,396.32l1.38.49c.78.27,1.39,0,1.78-1.08l2.82-8.1C271.35,386.51,271,386,270.24,385.68Zm0,0-1.38-.49L265,396.32l1.38.49c.78.27,1.39,0,1.78-1.08l2.82-8.1C271.35,386.51,271,386,270.24,385.68ZM320.18,399l-1.66-8.76c-.22-1.16-.81-1.5-1.62-1.35s-1.23.7-1,1.85l1.66,8.76c.22,1.15.81,1.5,1.62,1.34S320.39,400.17,320.18,399Zm0,0-1.66-8.76c-.22-1.16-.81-1.5-1.62-1.35s-1.23.7-1,1.85l1.66,8.76c.22,1.15.81,1.5,1.62,1.34S320.39,400.17,320.18,399Zm-49.94-13.33-1.38-.49L265,396.32l1.38.49c.78.27,1.39,0,1.78-1.08l2.82-8.1C271.35,386.51,271,386,270.24,385.68Zm0,0-1.38-.49L265,396.32l1.38.49c.78.27,1.39,0,1.78-1.08l2.82-8.1C271.35,386.51,271,386,270.24,385.68ZM320.18,399l-1.66-8.76c-.22-1.16-.81-1.5-1.62-1.35s-1.23.7-1,1.85l1.66,8.76c.22,1.15.81,1.5,1.62,1.34S320.39,400.17,320.18,399Zm0,0-1.66-8.76c-.22-1.16-.81-1.5-1.62-1.35s-1.23.7-1,1.85l1.66,8.76c.22,1.15.81,1.5,1.62,1.34S320.39,400.17,320.18,399Zm-49.94-13.33-1.38-.49L265,396.32l1.38.49c.78.27,1.39,0,1.78-1.08l2.82-8.1C271.35,386.51,271,386,270.24,385.68Zm0,0-1.38-.49L265,396.32l1.38.49c.78.27,1.39,0,1.78-1.08l2.82-8.1C271.35,386.51,271,386,270.24,385.68ZM320.18,399l-1.66-8.76c-.22-1.16-.81-1.5-1.62-1.35s-1.23.7-1,1.85l1.66,8.76c.22,1.15.81,1.5,1.62,1.34S320.39,400.17,320.18,399Zm0,0-1.66-8.76c-.22-1.16-.81-1.5-1.62-1.35s-1.23.7-1,1.85l1.66,8.76c.22,1.15.81,1.5,1.62,1.34S320.39,400.17,320.18,399Zm-49.94-13.33-1.38-.49L265,396.32l1.38.49c.78.27,1.39,0,1.78-1.08l2.82-8.1C271.35,386.51,271,386,270.24,385.68ZM229,226.8l4.9,6.88,1.8-1.74Zm41.26,158.88-1.38-.49L265,396.32l1.38.49c.78.27,1.39,0,1.78-1.08l2.82-8.1C271.35,386.51,271,386,270.24,385.68ZM320.18,399l-1.66-8.76c-.22-1.16-.81-1.5-1.62-1.35s-1.23.7-1,1.85l1.66,8.76c.22,1.15.81,1.5,1.62,1.34S320.39,400.17,320.18,399Zm0,0-1.66-8.76c-.22-1.16-.81-1.5-1.62-1.35s-1.23.7-1,1.85l1.66,8.76c.22,1.15.81,1.5,1.62,1.34S320.39,400.17,320.18,399Zm-49.94-13.33-1.38-.49L265,396.32l1.38.49c.78.27,1.39,0,1.78-1.08l2.82-8.1C271.35,386.51,271,386,270.24,385.68ZM229,226.8l4.9,6.88,1.8-1.74Zm0,0,4.9,6.88,1.8-1.74Zm11.62-6.28-.16-.22,0,0-.79-1a2.2,2.2,0,0,0-1-.82,1.14,1.14,0,0,0-1.09.28l-1,.76,3.08,4,.81-.61C241.19,222.27,241.4,221.57,240.6,220.52Zm29.64,165.16-1.38-.49L265,396.32l1.38.49c.78.27,1.39,0,1.78-1.08l2.82-8.1C271.35,386.51,271,386,270.24,385.68ZM320.18,399l-1.66-8.76c-.22-1.16-.81-1.5-1.62-1.35s-1.23.7-1,1.85l1.66,8.76c.22,1.15.81,1.5,1.62,1.34S320.39,400.17,320.18,399Zm0,0-1.66-8.76c-.22-1.16-.81-1.5-1.62-1.35s-1.23.7-1,1.85l1.66,8.76c.22,1.15.81,1.5,1.62,1.34S320.39,400.17,320.18,399Zm-49.94-13.33-1.38-.49L265,396.32l1.38.49c.78.27,1.39,0,1.78-1.08l2.82-8.1C271.35,386.51,271,386,270.24,385.68ZM229,226.8l4.9,6.88,1.8-1.74Zm11.62-6.28-.16-.22,0,0-.79-1a2.2,2.2,0,0,0-1-.82,1.14,1.14,0,0,0-1.09.28l-1,.76,3.08,4,.81-.61C241.19,222.27,241.4,221.57,240.6,220.52ZM229,226.8l4.9,6.88,1.8-1.74Zm11.62-6.28-.16-.22,0,0-.79-1a2.2,2.2,0,0,0-1-.82,1.14,1.14,0,0,0-1.09.28l-1,.76,3.08,4,.81-.61C241.19,222.27,241.4,221.57,240.6,220.52Zm29.64,165.16-1.38-.49L265,396.32l1.38.49c.78.27,1.39,0,1.78-1.08l2.82-8.1C271.35,386.51,271,386,270.24,385.68Zm1.91-183.78,1.07,8.37,2.4-.68Zm48,197.11-1.66-8.76c-.22-1.16-.81-1.5-1.62-1.35s-1.23.7-1,1.85l1.66,8.76c.22,1.15.81,1.5,1.62,1.34S320.39,400.17,320.18,399Zm0,0-1.66-8.76c-.22-1.16-.81-1.5-1.62-1.35s-1.23.7-1,1.85l1.66,8.76c.22,1.15.81,1.5,1.62,1.34S320.39,400.17,320.18,399Zm-49.94-13.33-1.38-.49L265,396.32l1.38.49c.78.27,1.39,0,1.78-1.08l2.82-8.1C271.35,386.51,271,386,270.24,385.68ZM229,226.8l4.9,6.88,1.8-1.74Zm11.62-6.28-.16-.22,0,0-.79-1a2.2,2.2,0,0,0-1-.82,1.14,1.14,0,0,0-1.09.28l-1,.76,3.08,4,.81-.61C241.19,222.27,241.4,221.57,240.6,220.52Zm31.55-18.62,1.07,8.37,2.4-.68ZM229,226.8l4.9,6.88,1.8-1.74Zm11.62-6.28-.16-.22,0,0-.79-1a2.2,2.2,0,0,0-1-.82,1.14,1.14,0,0,0-1.09.28l-1,.76,3.08,4,.81-.61C241.19,222.27,241.4,221.57,240.6,220.52Zm29.64,165.16-1.38-.49L265,396.32l1.38.49c.78.27,1.39,0,1.78-1.08l2.82-8.1C271.35,386.51,271,386,270.24,385.68Zm1.91-183.78,1.07,8.37,2.4-.68Zm48,197.11-1.66-8.76c-.22-1.16-.81-1.5-1.62-1.35s-1.23.7-1,1.85l1.66,8.76c.22,1.15.81,1.5,1.62,1.34S320.39,400.17,320.18,399Zm0,0-1.66-8.76c-.22-1.16-.81-1.5-1.62-1.35s-1.23.7-1,1.85l1.66,8.76c.22,1.15.81,1.5,1.62,1.34S320.39,400.17,320.18,399Zm-49.94-13.33-1.38-.49L265,396.32l1.38.49c.78.27,1.39,0,1.78-1.08l2.82-8.1C271.35,386.51,271,386,270.24,385.68ZM229,226.8l4.9,6.88,1.8-1.74Zm11.62-6.28-.16-.22,0,0-.79-1a2.2,2.2,0,0,0-1-.82,1.14,1.14,0,0,0-1.09.28l-1,.76,3.08,4,.81-.61C241.19,222.27,241.4,221.57,240.6,220.52Zm31.55-18.62,1.07,8.37,2.4-.68ZM229,226.8l4.9,6.88,1.8-1.74Zm11.62-6.28-.16-.22,0,0-.79-1a2.2,2.2,0,0,0-1-.82,1.14,1.14,0,0,0-1.09.28l-1,.76,3.08,4,.81-.61C241.19,222.27,241.4,221.57,240.6,220.52Zm29.64,165.16-1.38-.49L265,396.32l1.38.49c.78.27,1.39,0,1.78-1.08l2.82-8.1C271.35,386.51,271,386,270.24,385.68Zm1.91-183.78,1.07,8.37,2.4-.68Zm48,197.11-1.66-8.76c-.22-1.16-.81-1.5-1.62-1.35s-1.23.7-1,1.85l1.66,8.76c.22,1.15.81,1.5,1.62,1.34S320.39,400.17,320.18,399Zm0,0-1.66-8.76c-.22-1.16-.81-1.5-1.62-1.35s-1.23.7-1,1.85l1.66,8.76c.22,1.15.81,1.5,1.62,1.34S320.39,400.17,320.18,399Zm-49.94-13.33-1.38-.49L265,396.32l1.38.49c.78.27,1.39,0,1.78-1.08l2.82-8.1C271.35,386.51,271,386,270.24,385.68ZM229,226.8l4.9,6.88,1.8-1.74Zm11.62-6.28-.16-.22,0,0-.79-1a2.2,2.2,0,0,0-1-.82,1.14,1.14,0,0,0-1.09.28l-1,.76,3.08,4,.81-.61C241.19,222.27,241.4,221.57,240.6,220.52Zm31.55-18.62,1.07,8.37,2.4-.68ZM229,226.8l4.9,6.88,1.8-1.74Zm11.62-6.28-.16-.22,0,0-.79-1a2.2,2.2,0,0,0-1-.82,1.14,1.14,0,0,0-1.09.28l-1,.76,3.08,4,.81-.61C241.19,222.27,241.4,221.57,240.6,220.52Zm29.64,165.16-1.38-.49L265,396.32l1.38.49c.78.27,1.39,0,1.78-1.08l2.82-8.1C271.35,386.51,271,386,270.24,385.68Zm1.91-183.78,1.07,8.37,2.4-.68Zm48,197.11-1.66-8.76c-.22-1.16-.81-1.5-1.62-1.35s-1.23.7-1,1.85l1.66,8.76c.22,1.15.81,1.5,1.62,1.34S320.39,400.17,320.18,399Zm0,0-1.66-8.76c-.22-1.16-.81-1.5-1.62-1.35s-1.23.7-1,1.85l1.66,8.76c.22,1.15.81,1.5,1.62,1.34S320.39,400.17,320.18,399Zm-49.94-13.33-1.38-.49L265,396.32l1.38.49c.78.27,1.39,0,1.78-1.08l2.82-8.1C271.35,386.51,271,386,270.24,385.68ZM229,226.8l4.9,6.88,1.8-1.74Zm11.62-6.28-.16-.22,0,0-.79-1a2.2,2.2,0,0,0-1-.82,1.14,1.14,0,0,0-1.09.28l-1,.76,3.08,4,.81-.61C241.19,222.27,241.4,221.57,240.6,220.52Zm31.55-18.62,1.07,8.37,2.4-.68ZM229,226.8l4.9,6.88,1.8-1.74Zm11.62-6.28-.16-.22,0,0-.79-1a2.2,2.2,0,0,0-1-.82,1.14,1.14,0,0,0-1.09.28l-1,.76,3.08,4,.81-.61C241.19,222.27,241.4,221.57,240.6,220.52Zm29.64,165.16-1.38-.49L265,396.32l1.38.49c.78.27,1.39,0,1.78-1.08l2.82-8.1C271.35,386.51,271,386,270.24,385.68Zm1.91-183.78,1.07,8.37,2.4-.68Zm48,197.11-1.66-8.76c-.22-1.16-.81-1.5-1.62-1.35s-1.23.7-1,1.85l1.66,8.76c.22,1.15.81,1.5,1.62,1.34S320.39,400.17,320.18,399Zm0,0-1.66-8.76c-.22-1.16-.81-1.5-1.62-1.35s-1.23.7-1,1.85l1.66,8.76c.22,1.15.81,1.5,1.62,1.34S320.39,400.17,320.18,399Zm-49.94-13.33-1.38-.49L265,396.32l1.38.49c.78.27,1.39,0,1.78-1.08l2.82-8.1C271.35,386.51,271,386,270.24,385.68ZM229,226.8l4.9,6.88,1.8-1.74Zm11.62-6.28-.16-.22,0,0-.79-1a2.2,2.2,0,0,0-1-.82,1.14,1.14,0,0,0-1.09.28l-1,.76,3.08,4,.81-.61C241.19,222.27,241.4,221.57,240.6,220.52Zm31.55-18.62,1.07,8.37,2.4-.68ZM229,226.8l4.9,6.88,1.8-1.74Zm11.62-6.28-.16-.22,0,0-.79-1a2.2,2.2,0,0,0-1-.82,1.14,1.14,0,0,0-1.09.28l-1,.76,3.08,4,.81-.61C241.19,222.27,241.4,221.57,240.6,220.52Zm29.64,165.16-1.38-.49L265,396.32l1.38.49c.78.27,1.39,0,1.78-1.08l2.82-8.1C271.35,386.51,271,386,270.24,385.68Zm1.91-183.78,1.07,8.37,2.4-.68Zm48,197.11-1.66-8.76c-.22-1.16-.81-1.5-1.62-1.35s-1.23.7-1,1.85l1.66,8.76c.22,1.15.81,1.5,1.62,1.34S320.39,400.17,320.18,399Zm0,0-1.66-8.76c-.22-1.16-.81-1.5-1.62-1.35s-1.23.7-1,1.85l1.66,8.76c.22,1.15.81,1.5,1.62,1.34S320.39,400.17,320.18,399Zm-49.94-13.33-1.38-.49L265,396.32l1.38.49c.78.27,1.39,0,1.78-1.08l2.82-8.1C271.35,386.51,271,386,270.24,385.68ZM229,226.8l4.9,6.88,1.8-1.74Zm11.62-6.28-.16-.22,0,0-.79-1a2.2,2.2,0,0,0-1-.82,1.14,1.14,0,0,0-1.09.28l-1,.76,3.08,4,.81-.61C241.19,222.27,241.4,221.57,240.6,220.52Zm31.55-18.62,1.07,8.37,2.4-.68ZM229,226.8l4.9,6.88,1.8-1.74Zm11.62-6.28-.16-.22,0,0-.79-1a2.2,2.2,0,0,0-1-.82,1.14,1.14,0,0,0-1.09.28l-1,.76,3.08,4,.81-.61C241.19,222.27,241.4,221.57,240.6,220.52Zm29.64,165.16-1.38-.49L265,396.32l1.38.49c.78.27,1.39,0,1.78-1.08l2.82-8.1C271.35,386.51,271,386,270.24,385.68Zm1.91-183.78,1.07,8.37,2.4-.68Zm48,197.11-1.66-8.76c-.22-1.16-.81-1.5-1.62-1.35s-1.23.7-1,1.85l1.66,8.76c.22,1.15.81,1.5,1.62,1.34S320.39,400.17,320.18,399Zm0,0-1.66-8.76c-.22-1.16-.81-1.5-1.62-1.35s-1.23.7-1,1.85l1.66,8.76c.22,1.15.81,1.5,1.62,1.34S320.39,400.17,320.18,399Zm-49.94-13.33-1.38-.49L265,396.32l1.38.49c.78.27,1.39,0,1.78-1.08l2.82-8.1C271.35,386.51,271,386,270.24,385.68ZM229,226.8l4.9,6.88,1.8-1.74Zm11.62-6.28-.16-.22,0,0-.79-1a2.2,2.2,0,0,0-1-.82,1.14,1.14,0,0,0-1.09.28l-1,.76,3.08,4,.81-.61C241.19,222.27,241.4,221.57,240.6,220.52Zm31.55-18.62,1.07,8.37,2.4-.68ZM229,226.8l4.9,6.88,1.8-1.74Zm11.62-6.28-.16-.22,0,0-.79-1a2.2,2.2,0,0,0-1-.82,1.14,1.14,0,0,0-1.09.28l-1,.76,3.08,4,.81-.61C241.19,222.27,241.4,221.57,240.6,220.52Zm29.64,165.16-1.38-.49L265,396.32l1.38.49c.78.27,1.39,0,1.78-1.08l2.82-8.1C271.35,386.51,271,386,270.24,385.68Zm1.91-183.78,1.07,8.37,2.4-.68Zm48,197.11-1.66-8.76c-.22-1.16-.81-1.5-1.62-1.35s-1.23.7-1,1.85l1.66,8.76c.22,1.15.81,1.5,1.62,1.34S320.39,400.17,320.18,399ZM377.94,233.1c-.53-.63-1.21-.73-2.1,0l-6.78,5.79c-.89.77-.89,1.46-.35,2.08s1.21.73,2.1,0l6.77-5.8C378.48,234.41,378.48,233.73,377.94,233.1ZM320.18,399l-1.66-8.76c-.22-1.16-.81-1.5-1.62-1.35s-1.23.7-1,1.85l1.66,8.76c.22,1.15.81,1.5,1.62,1.34S320.39,400.17,320.18,399Zm-49.94-13.33-1.38-.49L265,396.32l1.38.49c.78.27,1.39,0,1.78-1.08l2.82-8.1C271.35,386.51,271,386,270.24,385.68ZM229,226.8l4.9,6.88,1.8-1.74Zm11.62-6.28-.16-.22,0,0-.79-1a2.2,2.2,0,0,0-1-.82,1.14,1.14,0,0,0-1.09.28l-1,.76,3.08,4,.81-.61C241.19,222.27,241.4,221.57,240.6,220.52Zm31.55-18.62,1.07,8.37,2.4-.68Zm105.79,31.2c-.53-.63-1.21-.73-2.1,0l-6.78,5.79c-.89.77-.89,1.46-.35,2.08s1.21.73,2.1,0l6.77-5.8C378.48,234.41,378.48,233.73,377.94,233.1Zm-149-6.3,4.9,6.88,1.8-1.74Zm11.62-6.28-.16-.22,0,0-.79-1a2.2,2.2,0,0,0-1-.82,1.14,1.14,0,0,0-1.09.28l-1,.76,3.08,4,.81-.61C241.19,222.27,241.4,221.57,240.6,220.52Zm29.64,165.16-1.38-.49L265,396.32l1.38.49c.78.27,1.39,0,1.78-1.08l2.82-8.1C271.35,386.51,271,386,270.24,385.68Zm1.91-183.78,1.07,8.37,2.4-.68Zm48,197.11-1.66-8.76c-.22-1.16-.81-1.5-1.62-1.35s-1.23.7-1,1.85l1.66,8.76c.22,1.15.81,1.5,1.62,1.34S320.39,400.17,320.18,399ZM377.94,233.1c-.53-.63-1.21-.73-2.1,0l-6.78,5.79c-.89.77-.89,1.46-.35,2.08s1.21.73,2.1,0l6.77-5.8C378.48,234.41,378.48,233.73,377.94,233.1Zm6.93,9.07c-.46-.68-1.13-.86-2.1-.2l-7.37,5c-1,.67-1,1.35-.59,2s1.13.86,2.1.2l7.37-5C385.26,243.53,385.33,242.85,384.87,242.17ZM320.18,399l-1.66-8.76c-.22-1.16-.81-1.5-1.62-1.35s-1.23.7-1,1.85l1.66,8.76c.22,1.15.81,1.5,1.62,1.34S320.39,400.17,320.18,399Zm-49.94-13.33-1.38-.49L265,396.32l1.38.49c.78.27,1.39,0,1.78-1.08l2.82-8.1C271.35,386.51,271,386,270.24,385.68ZM229,226.8l4.9,6.88,1.8-1.74Zm11.62-6.28-.16-.22,0,0-.79-1a2.2,2.2,0,0,0-1-.82,1.14,1.14,0,0,0-1.09.28l-1,.76,3.08,4,.81-.61C241.19,222.27,241.4,221.57,240.6,220.52Zm31.55-18.62,1.07,8.37,2.4-.68Zm105.79,31.2c-.53-.63-1.21-.73-2.1,0l-6.78,5.79c-.89.77-.89,1.46-.35,2.08s1.21.73,2.1,0l6.77-5.8C378.48,234.41,378.48,233.73,377.94,233.1Zm6.93,9.07c-.46-.68-1.13-.86-2.1-.2l-7.37,5c-1,.67-1,1.35-.59,2s1.13.86,2.1.2l7.37-5C385.26,243.53,385.33,242.85,384.87,242.17Zm3.22-6.41c-.25-.34-.51-.68-.76-1s-.5-.67-.77-1h0A109.65,109.65,0,0,0,377,222.84q-3-3-6.22-5.75-2.25-1.92-4.59-3.71l-1-.77-1-.76a109.07,109.07,0,0,0-128.34,0l-1,.76-1,.76c-1.55,1.2-3.08,2.43-4.57,3.71q-3.24,2.76-6.24,5.76a109.65,109.65,0,0,0-9.55,10.88l-.77,1-.76,1A109,109,0,0,0,215,368.24l.81,1,.82,1c.6.71,1.21,1.42,1.83,2.11.75.84,1.5,1.67,2.28,2.48,1.42,1.52,2.9,3,4.42,4.43.8.76,1.6,1.5,2.43,2.23.68.61,1.37,1.21,2.08,1.8.32.28.64.55,1,.82s.66.54,1,.81a109.05,109.05,0,0,0,136.78,0l1-.81,1-.82q1-.88,2.07-1.8c.83-.73,1.63-1.47,2.43-2.23q2.28-2.14,4.44-4.43c.76-.81,1.51-1.64,2.26-2.47s1.22-1.4,1.82-2.11c.28-.32.55-.65.82-1l.81-1a109,109,0,0,0,3.08-132.5Zm-6.91,4.16c2.18-1.48,4.21-1.18,5.64.92s1,4.11-1.22,5.59l-7.09,4.82c-2.18,1.49-4.21,1.19-5.64-.91a4,4,0,0,1-.8-2.7h0a4.17,4.17,0,0,1,2-2.89l3.42-2.31v0Zm-1.45-8.35c1.66,1.93,1.42,4-.58,5.69l-6.53,5.58c-2,1.71-4.05,1.64-5.71-.29s-1.41-4,.59-5.69l6.52-5.59C376,229.56,378.08,229.63,379.73,231.57ZM372.26,224l1.89,1.75.05,0L363,237.87l-.52-.48-1.42-1.31,4.8-5.2-2.16-2-4.8,5.19-1.9-1.76,11.19-12.11L370.1,222l-4.8,5.19,2.16,2Zm-10.14-8.71a4.9,4.9,0,0,1,1.16,1.16h0c.88,1.3.7,2.84-.49,4.46l-1,1.29-2-1.45,1.05-1.42a2.49,2.49,0,0,0,.43-.87,1.18,1.18,0,0,0-.56-1.24c-.66-.48-1.34-.43-2,.52l-5.26,7.19c-.59.81-.56,1.4-.13,1.85a1.2,1.2,0,0,0,.26.24c.67.49,1.34.45,2-.5l1.39-1.9,2,1.44-1.3,1.78c-1.56,2.12-3.51,2.56-5.57,1.06-.17-.13-.33-.26-.47-.39-1.6-1.45-1.63-3.29-.2-5.24l5.07-6.93C358.11,214.18,360.06,213.74,362.12,215.25ZM343,218.16l.51-.87,2.12,1.23-.59,1c-.59,1-.35,1.64.36,2.06s1.37.3,2-.72c1.69-2.94-2.37-6,0-10.11,1.32-2.28,3.2-2.93,5.38-1.67s2.55,3.22,1.23,5.5l-.26.44-2.12-1.22.34-.59c.59-1,.41-1.65-.31-2.06s-1.35-.26-1.93.76c-1.7,2.94,2.36,6,0,10.11-1.32,2.28-3.22,2.93-5.42,1.65S341.63,220.45,343,218.16Zm-6.84-16.64-2.53,6.61,2.75,1.05,2.53-6.6,2.46.94-5.89,15.42L333,218l2.52-6.6-2.75-1.06-2.53,6.61-2.42-.93,5.89-15.41Zm-16.9,8.09,2.13-8.31c.66-2.56,2.31-3.69,4.78-3.06s3.37,2.43,2.71,5l-.4,1.55-2.37-.6.44-1.72c.29-1.14-.1-1.71-.9-1.91s-1.41.1-1.71,1.24l-2.21,8.63c-.3,1.15.1,1.68.9,1.89s1.41-.08,1.7-1.22l.76-2.94-1.15-.3.59-2.28,3.52.9-1.31,5.07c-.65,2.56-2.3,3.69-4.77,3.06S318.55,212.17,319.21,209.61Zm-2.91-13.22,2.56.44-2.78,16.26-2.55-.43Zm-11.94-1.26,2.59.21-.57,7,2.93.24.57-7,2.64.22-1.35,16.44-2.63-.21.58-7.05-2.94-.24-.58,7-2.58-.21Zm-12.59.3,1,14.11,4.26-.32.17,2.35-6.84.5-1.21-16.45Zm-10,1.27,2.4,13.94,4.2-.72.4,2.32L282,213.4l-2.8-16.27Zm-8.47,1.84,7,15.16-2.52.71-1.24-2.76-3.06.87.38,3-2.29.65-2-16.6Zm-14.78,5.11,2.71,6.53,2.72-1.13-2.71-6.53,2.44-1L270,216.75l-2.44,1-2.71-6.54-2.72,1.13,2.71,6.53-2.4,1-6.32-15.25Zm-10,4.85,1.24,2-2.3,1.42,7.44,12-2.21,1.37-7.44-12L243,214.72l-1.24-2Zm-15.5,10.65,3.1-2.38a5.66,5.66,0,0,1,.53-.37c1.88-1.21,3.42-.8,4.83,1l.79,1c1,1.34,1.28,2.55.69,3.68,1.36-.35,2.46.38,3.5,1.74l1.55,2a4.75,4.75,0,0,0,1.45,1.42l-1.32,1-.78.6a5.1,5.1,0,0,1-1.42-1.47l-1.58-2c-.93-1.22-1.68-1.35-2.62-.64l-.71.55,4.09,5.33-1.61,1.23h0l-.45.34-3-3.87h0l0,0Zm-4.64,4.14,13.36,10-1.88,1.82-2.4-1.85-2.08,2-.21.2L237,238l-1.71,1.65-9.57-13.7.19-.18Zm-10.22,11,9.83,8.09c.92.75,1.57.62,2.09,0s.53-1.31-.38-2.06l-9.82-8.09,1.55-1.89,9.7,8c2,1.68,2.37,3.66.75,5.62s-3.62,2-5.66.35l-9.7-8Zm-3.6,4.64,2,1.3-1.49,2.26,11.81,7.78-1.42,2.17-11.81-7.78-1.49,2.26-2-1.29Zm-5.89,17.84c-2.35-1.21-3.09-3.06-1.92-5.3s3.09-2.69,5.44-1.47l.46.23-1.13,2.18-.61-.31c-1.05-.55-1.66-.34-2,.4s-.2,1.35.85,1.89c3,1.57,5.91-2.63,10.09-.46,2.34,1.22,3.08,3.09,1.9,5.34s-3.12,2.74-5.46,1.52l-.9-.46,1.13-2.18,1,.54c1,.54,1.66.28,2-.45s.25-1.39-.79-1.93C215.78,254.75,212.88,259,208.7,256.77Zm35.69,127.48c-1.55,2.15-3.5,2.61-5.56,1.12s-2.27-3.48-.72-5.63l.59-.82,2,1.43-.68,1c-.69.95-.51,1.6.15,2.08s1.35.44,2-.51c2-2.76-1.76-6.24,1-10.06a4.19,4.19,0,0,1,.26-.33c1.49-1.86,3.33-2.21,5.26-.82a3.42,3.42,0,0,1,1.19,4.77,6.19,6.19,0,0,1-.51.83l-.3.42-2-1.43.39-.55a1.47,1.47,0,0,1,.1-.13c.58-.89.44-1.49-.2-1.95s-1.31-.39-2,.56h0C243.41,377,247.13,380.43,244.39,384.25Zm1.43,5.52,7.16-12.2-1.42-.83h0l-.89-.54,1.19-2,3.8,2.23,3.11,1.83-1.19,2-2.34-1.37-7.17,12.19Zm9.75,5.43c-2.31-1.07-2.86-3-1.75-5.39l5.31-11.39,2.35,1.1-5.38,11.53c-.5,1.07-.21,1.67.54,2s1.4.18,1.9-.89l5.37-11.54,2.23,1-5.31,11.39C259.71,395.47,257.88,396.28,255.57,395.2Zm10.05,3.85-3.87-1.36,5.43-15.57,3.88,1.35c2.44.85,3.18,2.63,2.31,5.12l-2.75,7.88C269.75,399,268.07,399.9,265.62,399.05Zm13.88-3.55-3.46-.84-1.14,4.7,4.35,1.06-.56,2.29L271.82,401l3.89-16,6.88,1.67L282,389l-4.35-1-1.09,4.46,3.46.84Zm9.87,8.86-2.64-.37L285.2,391.7l-1.67,11.84-2.31-.33,2.3-16.34,3.22.46L288,397.48l1.38-9.78,2.29.32Zm10.71-13.6-2.71-.11-.61,14.12-2.59-.11.61-14.12-2.71-.12.1-2.35,8,.34Zm9.44,13.82c-2.54.23-4-1.16-4.22-3.79l-.78-8.54c-.23-2.63,1-4.26,3.48-4.49s4,1.16,4.22,3.79l.15,1.6-2.44.22-.16-1.76c-.1-1.18-.66-1.58-1.48-1.5s-1.3.57-1.19,1.74l.79,8.87c.11,1.17.66,1.55,1.48,1.48s1.3-.54,1.2-1.72l-.21-2.35,2.44-.21.2,2.18C313.23,402.73,312.05,404.35,309.52,404.58Zm10.08-1.41c-2.5.48-4.15-.75-4.64-3.34l-1.6-8.43c-.48-2.6.6-4.34,3.1-4.81s4.15.75,4.64,3.35l1.59,8.42C323.19,401,322.1,402.7,319.6,403.17Zm10.08-2.4c-2.44.71-4.12-.36-4.87-2.89l-3.54-12.06,2.49-.72,3.58,12.2c.34,1.13,1,1.4,1.74,1.16s1.17-.78.84-1.91l-3.59-12.21,2.36-.7,3.54,12.06C333,398.23,332.13,400.05,329.68,400.77Zm11.43-4.31-7.52-9.83,4.53,11.05-2.16.89L329.7,383.3l3-1.23,6.21,8.13-3.74-9.14,2.14-.88,6.25,15.27Zm8.38-3.82c-2.25,1.2-4.12.5-5.36-1.83l-4-7.57c-1.25-2.33-.8-4.29,1.45-5.48s4.12-.49,5.36,1.83l.75,1.42-2.15,1.15-.84-1.56c-.55-1-1.22-1.19-2-.8s-1,1-.42,2.07l4.2,7.86c.56,1,1.21,1.17,1.94.78s1-1,.43-2.05l-1.11-2.08,2.16-1.15,1,1.93C352.19,389.49,351.74,391.44,349.49,392.64Zm5.37-3.29-8-12.58L346,375.4l2.19-1.39,1.58,2.5L357.05,388Zm4.44-2.85L351.59,376h0l-2-2.77,2.1-1.53,2.24,3.06,6.1,8.35,3.45-2.52,1.4,1.91ZM376.15,337c-.22.46-.45.91-.67,1.35l-.72,1.37a85,85,0,0,1-34.7,34.89l-1.29.68c-.42.22-.85.44-1.28.64a84.8,84.8,0,0,1-75,0l-1.28-.64-1.28-.68h0a85.06,85.06,0,0,1-34.71-34.9l-.71-1.36-.67-1.36a84.71,84.71,0,0,1,5.87-84.08l.72-1.06c.25-.34.49-.69.74-1a85,85,0,0,1,9-10.64c1.91-1.91,3.91-3.73,6-5.44h0q2.25-1.84,4.63-3.55l1-.74c.35-.24.7-.48,1.06-.71a84.64,84.64,0,0,1,94.11,0l1.06.72,1,.74c1.59,1.13,3.14,2.32,4.63,3.56a79.06,79.06,0,0,1,6,5.43h0a85.35,85.35,0,0,1,9,10.65l.73,1c.25.35.49.7.73,1.06A84.8,84.8,0,0,1,376.15,337Zm3.49-80.42,2,3.74-2.07,1.13-3.26-6,14.52-7.84,1.23,2.27ZM374.81,249c.47.68,1.13.86,2.1.2l7.37-5c1-.66,1.05-1.34.59-2s-1.13-.86-2.1-.2l-7.37,5C374.43,247.65,374.35,248.33,374.81,249Zm-5.75-10.08c-.89.77-.89,1.46-.35,2.08s1.21.73,2.1,0l6.77-5.8c.9-.77.9-1.45.36-2.08s-1.21-.73-2.1,0ZM318.52,390.25c-.22-1.16-.81-1.5-1.62-1.35s-1.23.7-1,1.85l1.66,8.76c.22,1.15.81,1.5,1.62,1.34s1.23-.68,1-1.84Zm-42.9-180.66-3.47-7.69,1.07,8.37Zm-5.38,176.09-1.38-.49L265,396.32l1.38.49c.78.27,1.39,0,1.78-1.08l2.82-8.1C271.35,386.51,271,386,270.24,385.68ZM240.6,220.52l-.16-.22,0,0-.79-1a2.2,2.2,0,0,0-1-.82,1.14,1.14,0,0,0-1.09.28l-1,.76,3.08,4,.81-.61C241.19,222.27,241.4,221.57,240.6,220.52Zm-4.92,11.42L229,226.8l4.9,6.88Zm149.19,10.23c-.46-.68-1.13-.86-2.1-.2l-7.37,5c-1,.67-1,1.35-.59,2s1.13.86,2.1.2l7.37-5C385.26,243.53,385.33,242.85,384.87,242.17Zm-6.93-9.07c-.53-.63-1.21-.73-2.1,0l-6.78,5.79c-.89.77-.89,1.46-.35,2.08s1.21.73,2.1,0l6.77-5.8C378.48,234.41,378.48,233.73,377.94,233.1ZM272.15,201.9l1.07,8.37,2.4-.68ZM240.6,220.52l-.16-.22,0,0-.79-1a2.2,2.2,0,0,0-1-.82,1.14,1.14,0,0,0-1.09.28l-1,.76,3.08,4,.81-.61C241.19,222.27,241.4,221.57,240.6,220.52ZM229,226.8l4.9,6.88,1.8-1.74Zm41.26,158.88-1.38-.49L265,396.32l1.38.49c.78.27,1.39,0,1.78-1.08l2.82-8.1C271.35,386.51,271,386,270.24,385.68ZM320.18,399l-1.66-8.76c-.22-1.16-.81-1.5-1.62-1.35s-1.23.7-1,1.85l1.66,8.76c.22,1.15.81,1.5,1.62,1.34S320.39,400.17,320.18,399Zm64.69-156.84c-.46-.68-1.13-.86-2.1-.2l-7.37,5c-1,.67-1,1.35-.59,2s1.13.86,2.1.2l7.37-5C385.26,243.53,385.33,242.85,384.87,242.17Zm-6.93-9.07c-.53-.63-1.21-.73-2.1,0l-6.78,5.79c-.89.77-.89,1.46-.35,2.08s1.21.73,2.1,0l6.77-5.8C378.48,234.41,378.48,233.73,377.94,233.1ZM320.18,399l-1.66-8.76c-.22-1.16-.81-1.5-1.62-1.35s-1.23.7-1,1.85l1.66,8.76c.22,1.15.81,1.5,1.62,1.34S320.39,400.17,320.18,399Zm-48-197.11,1.07,8.37,2.4-.68Zm-1.91,183.78-1.38-.49L265,396.32l1.38.49c.78.27,1.39,0,1.78-1.08l2.82-8.1C271.35,386.51,271,386,270.24,385.68ZM240.6,220.52l-.16-.22,0,0-.79-1a2.2,2.2,0,0,0-1-.82,1.14,1.14,0,0,0-1.09.28l-1,.76,3.08,4,.81-.61C241.19,222.27,241.4,221.57,240.6,220.52ZM229,226.8l4.9,6.88,1.8-1.74Zm43.17-24.9,1.07,8.37,2.4-.68ZM240.6,220.52l-.16-.22,0,0-.79-1a2.2,2.2,0,0,0-1-.82,1.14,1.14,0,0,0-1.09.28l-1,.76,3.08,4,.81-.61C241.19,222.27,241.4,221.57,240.6,220.52ZM229,226.8l4.9,6.88,1.8-1.74Zm41.26,158.88-1.38-.49L265,396.32l1.38.49c.78.27,1.39,0,1.78-1.08l2.82-8.1C271.35,386.51,271,386,270.24,385.68ZM320.18,399l-1.66-8.76c-.22-1.16-.81-1.5-1.62-1.35s-1.23.7-1,1.85l1.66,8.76c.22,1.15.81,1.5,1.62,1.34S320.39,400.17,320.18,399Zm0,0-1.66-8.76c-.22-1.16-.81-1.5-1.62-1.35s-1.23.7-1,1.85l1.66,8.76c.22,1.15.81,1.5,1.62,1.34S320.39,400.17,320.18,399Zm-48-197.11,1.07,8.37,2.4-.68Zm-1.91,183.78-1.38-.49L265,396.32l1.38.49c.78.27,1.39,0,1.78-1.08l2.82-8.1C271.35,386.51,271,386,270.24,385.68ZM240.6,220.52l-.16-.22,0,0-.79-1a2.2,2.2,0,0,0-1-.82,1.14,1.14,0,0,0-1.09.28l-1,.76,3.08,4,.81-.61C241.19,222.27,241.4,221.57,240.6,220.52ZM229,226.8l4.9,6.88,1.8-1.74Zm43.17-24.9,1.07,8.37,2.4-.68ZM240.6,220.52l-.16-.22,0,0-.79-1a2.2,2.2,0,0,0-1-.82,1.14,1.14,0,0,0-1.09.28l-1,.76,3.08,4,.81-.61C241.19,222.27,241.4,221.57,240.6,220.52ZM229,226.8l4.9,6.88,1.8-1.74Zm41.26,158.88-1.38-.49L265,396.32l1.38.49c.78.27,1.39,0,1.78-1.08l2.82-8.1C271.35,386.51,271,386,270.24,385.68ZM320.18,399l-1.66-8.76c-.22-1.16-.81-1.5-1.62-1.35s-1.23.7-1,1.85l1.66,8.76c.22,1.15.81,1.5,1.62,1.34S320.39,400.17,320.18,399Zm0,0-1.66-8.76c-.22-1.16-.81-1.5-1.62-1.35s-1.23.7-1,1.85l1.66,8.76c.22,1.15.81,1.5,1.62,1.34S320.39,400.17,320.18,399Zm-48-197.11,1.07,8.37,2.4-.68Zm-1.91,183.78-1.38-.49L265,396.32l1.38.49c.78.27,1.39,0,1.78-1.08l2.82-8.1C271.35,386.51,271,386,270.24,385.68ZM240.6,220.52l-.16-.22,0,0-.79-1a2.2,2.2,0,0,0-1-.82,1.14,1.14,0,0,0-1.09.28l-1,.76,3.08,4,.81-.61C241.19,222.27,241.4,221.57,240.6,220.52ZM229,226.8l4.9,6.88,1.8-1.74Zm43.17-24.9,1.07,8.37,2.4-.68ZM240.6,220.52l-.16-.22,0,0-.79-1a2.2,2.2,0,0,0-1-.82,1.14,1.14,0,0,0-1.09.28l-1,.76,3.08,4,.81-.61C241.19,222.27,241.4,221.57,240.6,220.52ZM229,226.8l4.9,6.88,1.8-1.74Zm41.26,158.88-1.38-.49L265,396.32l1.38.49c.78.27,1.39,0,1.78-1.08l2.82-8.1C271.35,386.51,271,386,270.24,385.68ZM320.18,399l-1.66-8.76c-.22-1.16-.81-1.5-1.62-1.35s-1.23.7-1,1.85l1.66,8.76c.22,1.15.81,1.5,1.62,1.34S320.39,400.17,320.18,399Zm0,0-1.66-8.76c-.22-1.16-.81-1.5-1.62-1.35s-1.23.7-1,1.85l1.66,8.76c.22,1.15.81,1.5,1.62,1.34S320.39,400.17,320.18,399Zm-48-197.11,1.07,8.37,2.4-.68Zm-1.91,183.78-1.38-.49L265,396.32l1.38.49c.78.27,1.39,0,1.78-1.08l2.82-8.1C271.35,386.51,271,386,270.24,385.68ZM240.6,220.52l-.16-.22,0,0-.79-1a2.2,2.2,0,0,0-1-.82,1.14,1.14,0,0,0-1.09.28l-1,.76,3.08,4,.81-.61C241.19,222.27,241.4,221.57,240.6,220.52ZM229,226.8l4.9,6.88,1.8-1.74Zm43.17-24.9,1.07,8.37,2.4-.68ZM240.6,220.52l-.16-.22,0,0-.79-1a2.2,2.2,0,0,0-1-.82,1.14,1.14,0,0,0-1.09.28l-1,.76,3.08,4,.81-.61C241.19,222.27,241.4,221.57,240.6,220.52ZM229,226.8l4.9,6.88,1.8-1.74Zm41.26,158.88-1.38-.49L265,396.32l1.38.49c.78.27,1.39,0,1.78-1.08l2.82-8.1C271.35,386.51,271,386,270.24,385.68ZM320.18,399l-1.66-8.76c-.22-1.16-.81-1.5-1.62-1.35s-1.23.7-1,1.85l1.66,8.76c.22,1.15.81,1.5,1.62,1.34S320.39,400.17,320.18,399Zm0,0-1.66-8.76c-.22-1.16-.81-1.5-1.62-1.35s-1.23.7-1,1.85l1.66,8.76c.22,1.15.81,1.5,1.62,1.34S320.39,400.17,320.18,399Zm-48-197.11,1.07,8.37,2.4-.68Zm-1.91,183.78-1.38-.49L265,396.32l1.38.49c.78.27,1.39,0,1.78-1.08l2.82-8.1C271.35,386.51,271,386,270.24,385.68ZM240.6,220.52l-.16-.22,0,0-.79-1a2.2,2.2,0,0,0-1-.82,1.14,1.14,0,0,0-1.09.28l-1,.76,3.08,4,.81-.61C241.19,222.27,241.4,221.57,240.6,220.52ZM229,226.8l4.9,6.88,1.8-1.74Zm43.17-24.9,1.07,8.37,2.4-.68ZM240.6,220.52l-.16-.22,0,0-.79-1a2.2,2.2,0,0,0-1-.82,1.14,1.14,0,0,0-1.09.28l-1,.76,3.08,4,.81-.61C241.19,222.27,241.4,221.57,240.6,220.52ZM229,226.8l4.9,6.88,1.8-1.74Zm41.26,158.88-1.38-.49L265,396.32l1.38.49c.78.27,1.39,0,1.78-1.08l2.82-8.1C271.35,386.51,271,386,270.24,385.68ZM320.18,399l-1.66-8.76c-.22-1.16-.81-1.5-1.62-1.35s-1.23.7-1,1.85l1.66,8.76c.22,1.15.81,1.5,1.62,1.34S320.39,400.17,320.18,399Zm0,0-1.66-8.76c-.22-1.16-.81-1.5-1.62-1.35s-1.23.7-1,1.85l1.66,8.76c.22,1.15.81,1.5,1.62,1.34S320.39,400.17,320.18,399Zm-48-197.11,1.07,8.37,2.4-.68Zm-1.91,183.78-1.38-.49L265,396.32l1.38.49c.78.27,1.39,0,1.78-1.08l2.82-8.1C271.35,386.51,271,386,270.24,385.68ZM240.6,220.52l-.16-.22,0,0-.79-1a2.2,2.2,0,0,0-1-.82,1.14,1.14,0,0,0-1.09.28l-1,.76,3.08,4,.81-.61C241.19,222.27,241.4,221.57,240.6,220.52ZM229,226.8l4.9,6.88,1.8-1.74Zm43.17-24.9,1.07,8.37,2.4-.68ZM240.6,220.52l-.16-.22,0,0-.79-1a2.2,2.2,0,0,0-1-.82,1.14,1.14,0,0,0-1.09.28l-1,.76,3.08,4,.81-.61C241.19,222.27,241.4,221.57,240.6,220.52ZM229,226.8l4.9,6.88,1.8-1.74Zm41.26,158.88-1.38-.49L265,396.32l1.38.49c.78.27,1.39,0,1.78-1.08l2.82-8.1C271.35,386.51,271,386,270.24,385.68ZM320.18,399l-1.66-8.76c-.22-1.16-.81-1.5-1.62-1.35s-1.23.7-1,1.85l1.66,8.76c.22,1.15.81,1.5,1.62,1.34S320.39,400.17,320.18,399Zm0,0-1.66-8.76c-.22-1.16-.81-1.5-1.62-1.35s-1.23.7-1,1.85l1.66,8.76c.22,1.15.81,1.5,1.62,1.34S320.39,400.17,320.18,399Zm-48-197.11,1.07,8.37,2.4-.68Zm-1.91,183.78-1.38-.49L265,396.32l1.38.49c.78.27,1.39,0,1.78-1.08l2.82-8.1C271.35,386.51,271,386,270.24,385.68ZM240.6,220.52l-.16-.22,0,0-.79-1a2.2,2.2,0,0,0-1-.82,1.14,1.14,0,0,0-1.09.28l-1,.76,3.08,4,.81-.61C241.19,222.27,241.4,221.57,240.6,220.52ZM229,226.8l4.9,6.88,1.8-1.74Zm43.17-24.9,1.07,8.37,2.4-.68ZM240.6,220.52l-.16-.22,0,0-.79-1a2.2,2.2,0,0,0-1-.82,1.14,1.14,0,0,0-1.09.28l-1,.76,3.08,4,.81-.61C241.19,222.27,241.4,221.57,240.6,220.52ZM229,226.8l4.9,6.88,1.8-1.74Zm41.26,158.88-1.38-.49L265,396.32l1.38.49c.78.27,1.39,0,1.78-1.08l2.82-8.1C271.35,386.51,271,386,270.24,385.68ZM320.18,399l-1.66-8.76c-.22-1.16-.81-1.5-1.62-1.35s-1.23.7-1,1.85l1.66,8.76c.22,1.15.81,1.5,1.62,1.34S320.39,400.17,320.18,399Zm0,0-1.66-8.76c-.22-1.16-.81-1.5-1.62-1.35s-1.23.7-1,1.85l1.66,8.76c.22,1.15.81,1.5,1.62,1.34S320.39,400.17,320.18,399Zm-48-197.11,1.07,8.37,2.4-.68Zm-1.91,183.78-1.38-.49L265,396.32l1.38.49c.78.27,1.39,0,1.78-1.08l2.82-8.1C271.35,386.51,271,386,270.24,385.68ZM240.6,220.52l-.16-.22,0,0-.79-1a2.2,2.2,0,0,0-1-.82,1.14,1.14,0,0,0-1.09.28l-1,.76,3.08,4,.81-.61C241.19,222.27,241.4,221.57,240.6,220.52ZM229,226.8l4.9,6.88,1.8-1.74Zm11.62-6.28-.16-.22,0,0-.79-1a2.2,2.2,0,0,0-1-.82,1.14,1.14,0,0,0-1.09.28l-1,.76,3.08,4,.81-.61C241.19,222.27,241.4,221.57,240.6,220.52ZM229,226.8l4.9,6.88,1.8-1.74Zm41.26,158.88-1.38-.49L265,396.32l1.38.49c.78.27,1.39,0,1.78-1.08l2.82-8.1C271.35,386.51,271,386,270.24,385.68ZM320.18,399l-1.66-8.76c-.22-1.16-.81-1.5-1.62-1.35s-1.23.7-1,1.85l1.66,8.76c.22,1.15.81,1.5,1.62,1.34S320.39,400.17,320.18,399Zm0,0-1.66-8.76c-.22-1.16-.81-1.5-1.62-1.35s-1.23.7-1,1.85l1.66,8.76c.22,1.15.81,1.5,1.62,1.34S320.39,400.17,320.18,399Zm-49.94-13.33-1.38-.49L265,396.32l1.38.49c.78.27,1.39,0,1.78-1.08l2.82-8.1C271.35,386.51,271,386,270.24,385.68ZM240.6,220.52l-.16-.22,0,0-.79-1a2.2,2.2,0,0,0-1-.82,1.14,1.14,0,0,0-1.09.28l-1,.76,3.08,4,.81-.61C241.19,222.27,241.4,221.57,240.6,220.52ZM229,226.8l4.9,6.88,1.8-1.74Zm11.62-6.28-.16-.22,0,0-.79-1a2.2,2.2,0,0,0-1-.82,1.14,1.14,0,0,0-1.09.28l-1,.76,3.08,4,.81-.61C241.19,222.27,241.4,221.57,240.6,220.52ZM229,226.8l4.9,6.88,1.8-1.74Zm41.26,158.88-1.38-.49L265,396.32l1.38.49c.78.27,1.39,0,1.78-1.08l2.82-8.1C271.35,386.51,271,386,270.24,385.68ZM320.18,399l-1.66-8.76c-.22-1.16-.81-1.5-1.62-1.35s-1.23.7-1,1.85l1.66,8.76c.22,1.15.81,1.5,1.62,1.34S320.39,400.17,320.18,399Zm0,0-1.66-8.76c-.22-1.16-.81-1.5-1.62-1.35s-1.23.7-1,1.85l1.66,8.76c.22,1.15.81,1.5,1.62,1.34S320.39,400.17,320.18,399Zm-49.94-13.33-1.38-.49L265,396.32l1.38.49c.78.27,1.39,0,1.78-1.08l2.82-8.1C271.35,386.51,271,386,270.24,385.68ZM240.6,220.52l-.16-.22,0,0-.79-1a2.2,2.2,0,0,0-1-.82,1.14,1.14,0,0,0-1.09.28l-1,.76,3.08,4,.81-.61C241.19,222.27,241.4,221.57,240.6,220.52ZM229,226.8l4.9,6.88,1.8-1.74Zm0,0,4.9,6.88,1.8-1.74Zm41.26,158.88-1.38-.49L265,396.32l1.38.49c.78.27,1.39,0,1.78-1.08l2.82-8.1C271.35,386.51,271,386,270.24,385.68ZM320.18,399l-1.66-8.76c-.22-1.16-.81-1.5-1.62-1.35s-1.23.7-1,1.85l1.66,8.76c.22,1.15.81,1.5,1.62,1.34S320.39,400.17,320.18,399Zm0,0-1.66-8.76c-.22-1.16-.81-1.5-1.62-1.35s-1.23.7-1,1.85l1.66,8.76c.22,1.15.81,1.5,1.62,1.34S320.39,400.17,320.18,399Zm-49.94-13.33-1.38-.49L265,396.32l1.38.49c.78.27,1.39,0,1.78-1.08l2.82-8.1C271.35,386.51,271,386,270.24,385.68ZM229,226.8l4.9,6.88,1.8-1.74Zm41.26,158.88-1.38-.49L265,396.32l1.38.49c.78.27,1.39,0,1.78-1.08l2.82-8.1C271.35,386.51,271,386,270.24,385.68ZM320.18,399l-1.66-8.76c-.22-1.16-.81-1.5-1.62-1.35s-1.23.7-1,1.85l1.66,8.76c.22,1.15.81,1.5,1.62,1.34S320.39,400.17,320.18,399Zm0,0-1.66-8.76c-.22-1.16-.81-1.5-1.62-1.35s-1.23.7-1,1.85l1.66,8.76c.22,1.15.81,1.5,1.62,1.34S320.39,400.17,320.18,399Zm-49.94-13.33-1.38-.49L265,396.32l1.38.49c.78.27,1.39,0,1.78-1.08l2.82-8.1C271.35,386.51,271,386,270.24,385.68Zm0,0-1.38-.49L265,396.32l1.38.49c.78.27,1.39,0,1.78-1.08l2.82-8.1C271.35,386.51,271,386,270.24,385.68ZM320.18,399l-1.66-8.76c-.22-1.16-.81-1.5-1.62-1.35s-1.23.7-1,1.85l1.66,8.76c.22,1.15.81,1.5,1.62,1.34S320.39,400.17,320.18,399Zm0,0-1.66-8.76c-.22-1.16-.81-1.5-1.62-1.35s-1.23.7-1,1.85l1.66,8.76c.22,1.15.81,1.5,1.62,1.34S320.39,400.17,320.18,399Zm-49.94-13.33-1.38-.49L265,396.32l1.38.49c.78.27,1.39,0,1.78-1.08l2.82-8.1C271.35,386.51,271,386,270.24,385.68Zm0,0-1.38-.49L265,396.32l1.38.49c.78.27,1.39,0,1.78-1.08l2.82-8.1C271.35,386.51,271,386,270.24,385.68ZM320.18,399l-1.66-8.76c-.22-1.16-.81-1.5-1.62-1.35s-1.23.7-1,1.85l1.66,8.76c.22,1.15.81,1.5,1.62,1.34S320.39,400.17,320.18,399Zm0,0-1.66-8.76c-.22-1.16-.81-1.5-1.62-1.35s-1.23.7-1,1.85l1.66,8.76c.22,1.15.81,1.5,1.62,1.34S320.39,400.17,320.18,399Zm-49.94-13.33-1.38-.49L265,396.32l1.38.49c.78.27,1.39,0,1.78-1.08l2.82-8.1C271.35,386.51,271,386,270.24,385.68Zm0,0-1.38-.49L265,396.32l1.38.49c.78.27,1.39,0,1.78-1.08l2.82-8.1C271.35,386.51,271,386,270.24,385.68ZM320.18,399l-1.66-8.76c-.22-1.16-.81-1.5-1.62-1.35s-1.23.7-1,1.85l1.66,8.76c.22,1.15.81,1.5,1.62,1.34S320.39,400.17,320.18,399Zm0,0-1.66-8.76c-.22-1.16-.81-1.5-1.62-1.35s-1.23.7-1,1.85l1.66,8.76c.22,1.15.81,1.5,1.62,1.34S320.39,400.17,320.18,399Zm-49.94-13.33-1.38-.49L265,396.32l1.38.49c.78.27,1.39,0,1.78-1.08l2.82-8.1C271.35,386.51,271,386,270.24,385.68ZM320.18,399l-1.66-8.76c-.22-1.16-.81-1.5-1.62-1.35s-1.23.7-1,1.85l1.66,8.76c.22,1.15.81,1.5,1.62,1.34S320.39,400.17,320.18,399Zm0,0-1.66-8.76c-.22-1.16-.81-1.5-1.62-1.35s-1.23.7-1,1.85l1.66,8.76c.22,1.15.81,1.5,1.62,1.34S320.39,400.17,320.18,399Zm0,0-1.66-8.76c-.22-1.16-.81-1.5-1.62-1.35s-1.23.7-1,1.85l1.66,8.76c.22,1.15.81,1.5,1.62,1.34S320.39,400.17,320.18,399Zm0,0-1.66-8.76c-.22-1.16-.81-1.5-1.62-1.35s-1.23.7-1,1.85l1.66,8.76c.22,1.15.81,1.5,1.62,1.34S320.39,400.17,320.18,399Z"/><path class="cls-1" d="M240.14,339.62l-1.41,1.9a5.83,5.83,0,0,1-.32-1.9Z"/><path class="cls-1" d="M239,342.14l-.68,0,.45-.6A4.29,4.29,0,0,0,239,342.14Z"/><path class="cls-1" d="M290.79,340.06l-.24.15.13-.09Z"/><polygon class="cls-1" points="275.35 324.43 275.35 324.44 262.1 324.44 262.1 315.79 250.9 319.12 242.55 321.6 242.55 321.58 250.91 319.11 262.11 315.76 262.11 324.43 275.35 324.43"/><path class="cls-1" d="M295.06,306.37v20.71a11.87,11.87,0,0,1-11.86,11.84H245.75V324l6.07-1.8,7.08-2.11v7.57h19.66V305.52H254.67a11.85,11.85,0,0,1-11.24-8.1h47.48a10,10,0,0,1,1.14,1.12,9,9,0,0,1,.68.82A11.55,11.55,0,0,1,295,305,12.26,12.26,0,0,1,295.06,306.37Z"/><path class="cls-1" d="M295.27,297.42h0Z"/><path class="cls-1" d="M305.32,335.41h0l-.18-.3C305.19,335.21,305.25,335.31,305.32,335.41Z"/><path class="cls-1" d="M305.51,335.7h0v0Z"/><path class="cls-1" d="M308.39,338.87l0,0v0Z"/><path class="cls-1" d="M310.39,340.24l-.07,0h0Z"/><path class="cls-1" d="M315.83,342h0l-.05,0Z"/><path class="cls-1" d="M316.14,342.06H316a.34.34,0,0,1-.14,0Z"/><rect class="cls-1" x="325.86" y="325.2" width="15.14" height="0.01"/><path class="cls-1" d="M357.21,323.83v15.08H317.5a11.3,11.3,0,0,1-11.26-11.34V297.41h16.41v31h21.57v-8.48Z"/><polygon class="cls-1" points="360.41 321.45 360.41 321.47 341.01 315.61 341.01 315.6 360.41 321.45"/><path class="cls-1" d="M262.11,324.43v-8.66l-11.2,3.34-8.36,2.48h0l8.35-2.48,11.2-3.33v8.65h0Zm28.57,15.69-.13.09.24-.15Zm4.58-42.7h0Z"/><path class="cls-1" d="M325.86,325.2h0Zm-50.24-49.61.11.12v-.12Zm-5.87,15.67h0ZM267,324.43h0ZM303,297l.07.07V297Zm-27.34-21.43.11.12v-.12Zm-5.87,15.67h0ZM267,324.43h0Zm16.14-33.17H273.4l-10.93-10.48v10.49H283.6A3.39,3.39,0,0,0,283.15,291.26Zm.93,0h0a3.38,3.38,0,0,0-.45,0l.89.05Zm1.94.26-.14,0-.26,0-.26,0,.86.16Zm-1.14-.18-.39,0,.87.11-.38-.06Zm3.57.87-.26-.09.56.22Zm1.77.81-.37-.2c-.19-.09-.37-.18-.55-.25.19.08.37.17.54.26a5.12,5.12,0,0,1,.52.27Zm-1.28-.61-.19-.07.55.23-.07,0Zm-2.49-.8-.23,0,.47.1Zm.31.07h-.07l.47.12Zm7.52,4.5-.11-.12-.25-.25c.12.13.24.25.35.38h0Zm-.77-.79-.45-.41a2.69,2.69,0,0,0-.28-.22,14.18,14.18,0,0,1,1.14,1,3.11,3.11,0,0,0-.31-.32A.94.94,0,0,0,293.51,295.42Zm-2-1.61-.38-.23c.29.18.56.37.84.57A5,5,0,0,0,291.5,293.81Zm-15.88-18.22.11.12v-.12ZM303,293.41l-3-3.1-.07-.06-.59-.62-.4-.41-2.81-2.92L290,280h0l-3.1.93-4.6,1.37h0l-6.57,1.95v-8.65H262.47v15.68H283.6l.87,0h.06l.83.11.86.16.47.1.47.12.46.14.57.19.56.22.55.23c.19.08.37.17.54.26a5.12,5.12,0,0,1,.52.27l.1.06.14.07.14.09h0l.08,0,.15.09.07,0s0,0,0,0h0l0,0c.29.18.56.37.84.57a7.92,7.92,0,0,1,.82.64,14.18,14.18,0,0,1,1.14,1c.12.13.24.25.35.38h0l.94-1L300,300l3-3L303,297v-3.5Zm0,0-3-3.1-.07-.06-.59-.62-.4-.41-2.81-2.92L290,280h0l-3.1.93-4.6,1.37h0l-6.57,1.95v-8.65H262.47v15.68H283.6l.87,0h.06l.83.11.86.16.47.1.47.12.46.14.57.19.56.22.55.23c.19.08.37.17.54.26a5.12,5.12,0,0,1,.52.27l.1.06.14.07.14.09h0l.08,0,.15.09.07,0s0,0,0,0h0l0,0c.29.18.56.37.84.57a7.92,7.92,0,0,1,.82.64,14.18,14.18,0,0,1,1.14,1c.12.13.24.25.35.38h0a13.75,13.75,0,0,1,1,1.19h0l.25.35c.11.15.21.29.31.45s.29.45.43.68l.22.39c.16.29.3.58.43.88s.17.36.25.55l.21.57c.08.2.14.41.21.62l.12.36L300,300l3-3L303,297v-3.5Zm0,0-3-3.1-.07-.06-.59-.62-.4-.41-2.81-2.92L290,280h0l-3.1.93-4.6,1.37h0l-6.57,1.95v-8.65H262.47v15.68H283.6l.87,0h.06l.83.11.86.16.47.1.47.12.46.14.57.19.56.22.55.23c.19.08.37.17.54.26a5.12,5.12,0,0,1,.52.27l.1.06.14.07.14.09h0l.08,0,.15.09.07,0s0,0,0,0h0l0,0c.29.18.56.37.84.57a7.92,7.92,0,0,1,.82.64,14.18,14.18,0,0,1,1.14,1c.12.13.24.25.35.38h0a13.75,13.75,0,0,1,1,1.19h0l.25.35c.11.15.21.29.31.45s.29.45.43.68l.22.39c.16.29.3.58.43.88s.17.36.25.55l.21.57c.08.2.14.41.21.62l.12.36L300,300l3-3L303,297v-3.5Zm28.36-35.53h0ZM300,290.31l-.09.09-4.68,4.83L300,300l3-3L303,297v-9.77Zm-.09.09.09-.09-.07-.06-.59-.62-.4-.41-2.81-2.92L290,280h0l-3.1.93-4.6,1.37h0l-6.57,1.95v-8.65H262.47v15.68H283.6l.87,0h.06l.83.11.86.16.47.1.47.12.46.14.57.19.56.22.55.23c.19.08.37.17.54.26a5.12,5.12,0,0,1,.52.27l.1.06.14.07.14.09h0l.08,0,.15.09.07,0s0,0,0,0h0l0,0c.29.18.56.37.84.57a7.92,7.92,0,0,1,.82.64,14.18,14.18,0,0,1,1.14,1c.12.13.24.25.35.38h0a13.75,13.75,0,0,1,1,1.19h0l.25.35c.11.15.21.29.31.45s.29.45.43.68l.22.39c.16.29.3.58.43.88s.17.36.25.55l.21.57c.08.2.14.41.21.62l.12.36L300,300l-4.77-4.76Zm31.44-32.52h0Zm2.37,67.32-7.86-8.14v8.15h7.86ZM300,290.31l-.09.09-4.68,4.83L300,300l3-3L303,297v-9.77Zm-.09.09.09-.09-.07-.06-.59-.62-.4-.41-2.81-2.92L290,280h0l-3.1.93-4.6,1.37h0l-6.57,1.95v-8.65H262.47v15.68H283.6l.87,0h.06l.83.11.86.16.47.1.47.12.46.14.57.19.56.22.55.23c.19.08.37.17.54.26a5.12,5.12,0,0,1,.52.27l.1.06.14.07.14.09h0l.08,0,.15.09.07,0s0,0,0,0h0l0,0c.29.18.56.37.84.57a7.92,7.92,0,0,1,.82.64,14.18,14.18,0,0,1,1.14,1c.12.13.24.25.35.38h0a13.75,13.75,0,0,1,1,1.19h0l.25.35c.11.15.21.29.31.45s.29.45.43.68l.22.39c.16.29.3.58.43.88s.17.36.25.55l.21.57c.08.2.14.41.21.62l.12.36L300,300l-4.77-4.76Zm31.44-32.52h0Zm2.37,67.32-7.86-8.14v8.15h7.86ZM300,290.31l-.09.09-4.68,4.83L300,300l3-3L303,297v-9.77Zm-.09.09.09-.09-.07-.06-.59-.62-.4-.41-2.81-2.92L290,280h0l-3.1.93-4.6,1.37h0l-6.57,1.95v-8.65H262.47v15.68H283.6l.87,0h.06l.83.11.86.16.47.1.47.12.46.14.57.19.56.22.55.23c.19.08.37.17.54.26a5.12,5.12,0,0,1,.52.27l.1.06.14.07.14.09h0l.08,0,.15.09.07,0s0,0,0,0h0l0,0c.29.18.56.37.84.57a7.92,7.92,0,0,1,.82.64,14.18,14.18,0,0,1,1.14,1c.12.13.24.25.35.38h0a13.75,13.75,0,0,1,1,1.19h0l.25.35c.11.15.21.29.31.45s.29.45.43.68l.22.39c.16.29.3.58.43.88s.17.36.25.55l.21.57c.08.2.14.41.21.62l.12.36L300,300l-4.77-4.76Zm31.44-32.52h0Zm2.37,67.32-7.86-8.14v8.15h7.86ZM300,290.31l-.09.09-4.68,4.83L300,300l3-3L303,297v-9.77Zm-.09.09.09-.09-.07-.06-.59-.62-.4-.41-2.81-2.92L290,280h0l-3.1.93-4.6,1.37h0l-6.57,1.95v-8.65H262.47v15.68H283.6l.87,0h.06l.83.11.86.16.47.1.47.12.46.14.57.19.56.22.55.23c.19.08.37.17.54.26a5.12,5.12,0,0,1,.52.27l.1.06.14.07.14.09h0l.08,0,.15.09.07,0s0,0,0,0h0l0,0c.29.18.56.37.84.57a7.92,7.92,0,0,1,.82.64,14.18,14.18,0,0,1,1.14,1c.12.13.24.25.35.38h0a13.75,13.75,0,0,1,1,1.19h0l.25.35c.11.15.21.29.31.45s.29.45.43.68l.22.39c.16.29.3.58.43.88s.17.36.25.55l.21.57c.08.2.14.41.21.62l.12.36L300,300l-4.77-4.76Zm31.44-32.52h0Zm2.37,67.32-7.86-8.14v8.15h7.86ZM300,290.31l-.09.09-4.68,4.83L300,300l3-3L303,297v-9.77Zm-.09.09.09-.09-.07-.06-.59-.62-.4-.41-2.81-2.92L290,280h0l-3.1.93-4.6,1.37h0l-6.57,1.95v-8.65H262.47v15.68H283.6l.87,0h.06l.83.11.86.16.47.1.47.12.46.14.57.19.56.22.55.23c.19.08.37.17.54.26a5.12,5.12,0,0,1,.52.27l.1.06.14.07.14.09h0l.08,0,.15.09.07,0s0,0,0,0h0l0,0c.29.18.56.37.84.57a7.92,7.92,0,0,1,.82.64,14.18,14.18,0,0,1,1.14,1c.12.13.24.25.35.38h0a13.75,13.75,0,0,1,1,1.19h0l.25.35c.11.15.21.29.31.45s.29.45.43.68l.22.39c.16.29.3.58.43.88s.17.36.25.55l.21.57c.08.2.14.41.21.62l.12.36L300,300l-4.77-4.76Zm31.44-32.52h0Zm2.37,67.32-7.86-8.14v8.15h7.86ZM300,290.31l-.09.09-4.68,4.83L300,300l3-3L303,297v-9.77Zm-.09.09.09-.09-.07-.06-.59-.62-.4-.41-2.81-2.92L290,280h0l-3.1.93-4.6,1.37h0l-6.57,1.95v-8.65H262.47v15.68H283.6l.87,0h.06l.83.11.86.16.47.1.47.12.46.14.57.19.56.22.55.23c.19.08.37.17.54.26a5.12,5.12,0,0,1,.52.27l.1.06.14.07.14.09h0l.08,0,.15.09.07,0s0,0,0,0h0l0,0c.29.18.56.37.84.57a7.92,7.92,0,0,1,.82.64,14.18,14.18,0,0,1,1.14,1c.12.13.24.25.35.38h0a13.75,13.75,0,0,1,1,1.19h0l.25.35c.11.15.21.29.31.45s.29.45.43.68l.22.39c.16.29.3.58.43.88s.17.36.25.55l.21.57c.08.2.14.41.21.62l.12.36L300,300l-4.77-4.76Zm31.44-32.52h0Zm2.37,67.32-7.86-8.14v8.15h7.86ZM300,290.31l-.09.09-4.68,4.83L300,300l3-3L303,297v-9.77Zm-.09.09.09-.09-.07-.06-.59-.62-.4-.41-2.81-2.92L290,280h0l-3.1.93-4.6,1.37h0l-6.57,1.95v-8.65H262.47v15.68H283.6l.87,0h.06l.83.11.86.16.47.1.47.12.46.14.57.19.56.22.55.23c.19.08.37.17.54.26a5.12,5.12,0,0,1,.52.27l.1.06.14.07.14.09h0l.08,0,.15.09.07,0s0,0,0,0h0l0,0c.29.18.56.37.84.57a7.92,7.92,0,0,1,.82.64,14.18,14.18,0,0,1,1.14,1c.12.13.24.25.35.38h0a13.75,13.75,0,0,1,1,1.19h0l.25.35c.11.15.21.29.31.45s.29.45.43.68l.22.39c.16.29.3.58.43.88s.17.36.25.55l.21.57c.08.2.14.41.21.62l.12.36L300,300l-4.77-4.76Zm31.44-32.52h0Zm2.37,67.32-7.86-8.14v8.15h7.86ZM300,290.31l-.09.09-4.68,4.83L300,300l3-3L303,297v-9.77Zm-.09.09.09-.09-.07-.06-.59-.62-.4-.41-2.81-2.92L290,280h0l-3.1.93-4.6,1.37h0l-6.57,1.95v-8.65H262.47v15.68H283.6l.87,0h.06l.83.11.86.16.47.1.47.12.46.14.57.19.56.22.55.23c.19.08.37.17.54.26a5.12,5.12,0,0,1,.52.27l.1.06.14.07.14.09h0l.08,0,.15.09.07,0s0,0,0,0h0l0,0c.29.18.56.37.84.57a7.92,7.92,0,0,1,.82.64,14.18,14.18,0,0,1,1.14,1c.12.13.24.25.35.38h0a13.75,13.75,0,0,1,1,1.19h0l.25.35c.11.15.21.29.31.45s.29.45.43.68l.22.39c.16.29.3.58.43.88s.17.36.25.55l.21.57c.08.2.14.41.21.62l.12.36L300,300l-4.77-4.76Zm31.44-32.52h0Zm2.37,67.32-7.86-8.14v8.15h7.86ZM300,290.31l-.09.09-4.68,4.83L300,300l3-3L303,297v-9.77Zm-.09.09.09-.09-.07-.06-.59-.62-.4-.41-2.81-2.92L290,280h0l-3.1.93-4.6,1.37h0l-6.57,1.95v-8.65H262.47v15.68H283.6l.87,0h.06l.83.11.86.16.47.1.47.12.46.14.57.19.56.22.55.23c.19.08.37.17.54.26a5.12,5.12,0,0,1,.52.27l.1.06.14.07.14.09h0l.08,0,.15.09.07,0s0,0,0,0h0l0,0c.29.18.56.37.84.57a7.92,7.92,0,0,1,.82.64,14.18,14.18,0,0,1,1.14,1c.12.13.24.25.35.38h0a13.75,13.75,0,0,1,1,1.19h0l.25.35c.11.15.21.29.31.45s.29.45.43.68l.22.39c.16.29.3.58.43.88s.17.36.25.55l.21.57c.08.2.14.41.21.62l.12.36L300,300l-4.77-4.76Zm31.44-32.52h0Zm2.37,67.32-7.86-8.14v8.15h7.86ZM300,290.31l-.09.09-4.68,4.83L300,300l3-3L303,297v-9.77Zm-.09.09.09-.09-.07-.06-.59-.62-.4-.41-2.81-2.92L290,280h0l-3.1.93-4.6,1.37h0l-6.57,1.95v-8.65H262.47v15.68H283.6l.87,0h.06l.83.11.86.16.47.1.47.12.46.14.57.19.56.22.55.23c.19.08.37.17.54.26a5.12,5.12,0,0,1,.52.27l.1.06.14.07.14.09h0l.08,0,.15.09.07,0s0,0,0,0h0l0,0c.29.18.56.37.84.57a7.92,7.92,0,0,1,.82.64,14.18,14.18,0,0,1,1.14,1c.12.13.24.25.35.38h0a13.75,13.75,0,0,1,1,1.19h0l.25.35c.11.15.21.29.31.45s.29.45.43.68l.22.39c.16.29.3.58.43.88s.17.36.25.55l.21.57c.08.2.14.41.21.62l.12.36L300,300l-4.77-4.76Zm31.44-32.52h0Zm2.37,67.32-7.86-8.14v8.15h7.86ZM300,290.31l-.09.09-4.68,4.83L300,300l3-3L303,297v-9.77Zm-.09.09.09-.09-.07-.06-.59-.62-.4-.41-2.81-2.92L290,280h0l-3.1.93-4.6,1.37h0l-6.57,1.95v-8.65H262.47v15.68H283.6l.87,0h.06l.83.11.86.16.47.1.47.12.46.14.57.19.56.22.55.23c.19.08.37.17.54.26a5.12,5.12,0,0,1,.52.27l.1.06.14.07.14.09h0l.08,0,.15.09.07,0s0,0,0,0h0l0,0c.29.18.56.37.84.57a7.92,7.92,0,0,1,.82.64,14.18,14.18,0,0,1,1.14,1c.12.13.24.25.35.38h0a13.75,13.75,0,0,1,1,1.19h0l.25.35c.11.15.21.29.31.45s.29.45.43.68l.22.39c.16.29.3.58.43.88s.17.36.25.55l.21.57c.08.2.14.41.21.62l.12.36L300,300l-4.77-4.76Zm31.44-32.52h0Zm2.37,67.32-7.86-8.14v8.15h7.86ZM300,290.31l-.09.09-4.68,4.83L300,300l3-3L303,297v-9.77Zm-.09.09.09-.09-.07-.06-.59-.62-.4-.41-2.81-2.92L290,280h0l-3.1.93-4.6,1.37h0l-6.57,1.95v-8.65H262.47v15.68H283.6l.87,0h.06l.83.11.86.16.47.1.47.12.46.14.57.19.56.22.55.23c.19.08.37.17.54.26a5.12,5.12,0,0,1,.52.27l.1.06.14.07.14.09h0l.08,0,.15.09.07,0s0,0,0,0h0l0,0c.29.18.56.37.84.57a7.92,7.92,0,0,1,.82.64,14.18,14.18,0,0,1,1.14,1c.12.13.24.25.35.38h0a13.75,13.75,0,0,1,1,1.19h0l.25.35c.11.15.21.29.31.45s.29.45.43.68l.22.39c.16.29.3.58.43.88s.17.36.25.55l.21.57c.08.2.14.41.21.62l.12.36L300,300l-4.77-4.76Zm31.44-32.52h0Zm2.37,67.32-7.86-8.14v8.15h7.86ZM300,290.31l-.09.09-4.68,4.83L300,300l3-3L303,297v-9.77Zm-.09.09.09-.09-.07-.06-.59-.62-.4-.41-2.81-2.92L290,280h0l-3.1.93-4.6,1.37h0l-6.57,1.95v-8.65H262.47v15.68H283.6l.87,0h.06l.83.11.86.16.47.1.47.12.46.14.57.19.56.22.55.23c.19.08.37.17.54.26a5.12,5.12,0,0,1,.52.27l.1.06.14.07.14.09h0l.08,0,.15.09.07,0s0,0,0,0h0l0,0c.29.18.56.37.84.57a7.92,7.92,0,0,1,.82.64,14.18,14.18,0,0,1,1.14,1c.12.13.24.25.35.38h0a13.75,13.75,0,0,1,1,1.19h0l.25.35c.11.15.21.29.31.45s.29.45.43.68l.22.39c.16.29.3.58.43.88s.17.36.25.55l.21.57c.08.2.14.41.21.62l.12.36L300,300l-4.77-4.76Zm31.44-32.52h0Zm2.37,67.32-7.86-8.14v8.15h7.86ZM300,290.31l-.09.09-4.68,4.83L300,300l3-3L303,297v-9.77Zm-.09.09.09-.09-.07-.06-.59-.62-.4-.41-2.81-2.92L290,280h0l-3.1.93-4.6,1.37h0l-6.57,1.95v-8.65H262.47v15.68H283.6l.87,0h.06l.83.11.86.16.47.1.47.12.46.14.57.19.56.22.55.23c.19.08.37.17.54.26a5.12,5.12,0,0,1,.52.27l.1.06.14.07.14.09h0l.08,0,.15.09.07,0s0,0,0,0h0l0,0c.29.18.56.37.84.57a7.92,7.92,0,0,1,.82.64,14.18,14.18,0,0,1,1.14,1c.12.13.24.25.35.38h0a13.75,13.75,0,0,1,1,1.19h0l.25.35c.11.15.21.29.31.45s.29.45.43.68l.22.39c.16.29.3.58.43.88s.17.36.25.55l.21.57c.08.2.14.41.21.62l.12.36L300,300l-4.77-4.76Zm31.44-32.52h0Zm2.37,67.32-7.86-8.14v8.15h7.86ZM300,290.31l-.09.09-4.68,4.83L300,300l3-3L303,297v-9.77Zm-.09.09.09-.09-.07-.06-.59-.62-.4-.41-2.81-2.92L290,280h0l-3.1.93-4.6,1.37h0l-6.57,1.95v-8.65H262.47v15.68H283.6l.87,0h.06l.83.11.86.16.47.1.47.12.46.14.57.19.56.22.55.23c.19.08.37.17.54.26a5.12,5.12,0,0,1,.52.27l.1.06.14.07.14.09h0l.08,0,.15.09.07,0s0,0,0,0h0l0,0c.29.18.56.37.84.57a7.92,7.92,0,0,1,.82.64,14.18,14.18,0,0,1,1.14,1c.12.13.24.25.35.38h0a13.75,13.75,0,0,1,1,1.19h0l.25.35c.11.15.21.29.31.45s.29.45.43.68l.22.39c.16.29.3.58.43.88s.17.36.25.55l.21.57c.08.2.14.41.21.62l.12.36L300,300l-4.77-4.76Zm31.44-32.52h0Zm2.37,67.32-7.86-8.14v8.15h7.86ZM300,290.31l-.09.09-4.68,4.83L300,300l3-3L303,297v-9.77Zm-.09.09.09-.09-.07-.06-.59-.62-.4-.41-2.81-2.92L290,280h0l-3.1.93-4.6,1.37h0l-6.57,1.95v-8.65H262.47v15.68H283.6l.87,0h.06l.83.11.86.16.47.1.47.12.46.14.57.19.56.22.55.23c.19.08.37.17.54.26a5.12,5.12,0,0,1,.52.27l.1.06.14.07.14.09h0l.08,0,.15.09.07,0s0,0,0,0h0l0,0c.29.18.56.37.84.57a7.92,7.92,0,0,1,.82.64,14.18,14.18,0,0,1,1.14,1c.12.13.24.25.35.38h0a13.75,13.75,0,0,1,1,1.19h0l.25.35c.11.15.21.29.31.45s.29.45.43.68l.22.39c.16.29.3.58.43.88s.17.36.25.55l.21.57c.08.2.14.41.21.62l.12.36L300,300l-4.77-4.76Zm31.44-32.52h0Zm2.37,67.32-7.86-8.14v8.15h7.86ZM300,290.31l-.09.09-4.68,4.83L300,300l3-3L303,297v-9.77Zm-.09.09.09-.09-.07-.06-.59-.62-.4-.41-2.81-2.92L290,280h0l-3.1.93-4.6,1.37h0l-6.57,1.95v-8.65H262.47v15.68H283.6l.87,0h.06l.83.11.86.16.47.1.47.12.46.14.57.19.56.22.55.23c.19.08.37.17.54.26a5.12,5.12,0,0,1,.52.27l.1.06.14.07.14.09h0l.08,0,.15.09.07,0s0,0,0,0h0l0,0c.29.18.56.37.84.57a7.92,7.92,0,0,1,.82.64,14.18,14.18,0,0,1,1.14,1c.12.13.24.25.35.38h0a13.75,13.75,0,0,1,1,1.19h0l.25.35c.11.15.21.29.31.45s.29.45.43.68l.22.39c.16.29.3.58.43.88s.17.36.25.55l.21.57c.08.2.14.41.21.62l.12.36L300,300l-4.77-4.76Zm31.44-32.52h0Zm2.37,67.32-7.86-8.14v8.15h7.86ZM300,290.31l-.09.09-4.68,4.83L300,300l3-3L303,297v-9.77Zm-.09.09.09-.09-.07-.06-.59-.62-.4-.41-2.81-2.92L290,280h0l-3.1.93-4.6,1.37h0l-6.57,1.95v-8.65H262.47v15.68H283.6l.87,0h.06l.83.11.86.16.47.1.47.12.46.14.57.19.56.22.55.23c.19.08.37.17.54.26a5.12,5.12,0,0,1,.52.27l.1.06.14.07.14.09h0l.08,0,.15.09.07,0s0,0,0,0h0l0,0c.29.18.56.37.84.57a7.92,7.92,0,0,1,.82.64,14.18,14.18,0,0,1,1.14,1c.12.13.24.25.35.38h0a13.75,13.75,0,0,1,1,1.19h0l.25.35c.11.15.21.29.31.45s.29.45.43.68l.22.39c.16.29.3.58.43.88s.17.36.25.55l.21.57c.08.2.14.41.21.62l.12.36L300,300l-4.77-4.76Zm31.44-32.52h0Zm2.37,67.32-7.86-8.14v8.15h7.86ZM300,290.31l-.09.09-4.68,4.83L300,300l3-3L303,297v-9.77Zm-.09.09.09-.09-.07-.06-.59-.62-.4-.41-2.81-2.92L290,280h0l-3.1.93-4.6,1.37h0l-6.57,1.95v-8.65H262.47v15.68H283.6l.87,0h.06l.83.11.86.16.47.1.47.12.46.14.57.19.56.22.55.23c.19.08.37.17.54.26a5.12,5.12,0,0,1,.52.27l.1.06.14.07.14.09h0l.08,0,.15.09.07,0s0,0,0,0h0l0,0c.29.18.56.37.84.57a7.92,7.92,0,0,1,.82.64,14.18,14.18,0,0,1,1.14,1c.12.13.24.25.35.38h0a13.75,13.75,0,0,1,1,1.19h0l.25.35c.11.15.21.29.31.45s.29.45.43.68l.22.39c.16.29.3.58.43.88s.17.36.25.55l.21.57c.08.2.14.41.21.62l.12.36L300,300l-4.77-4.76Zm31.44-32.52h0Zm2.37,67.32-7.86-8.14v8.15h7.86ZM300,290.31l-.09.09-4.68,4.83L300,300l3-3L303,297v-9.77Zm-.09.09.09-.09-.07-.06-.59-.62-.4-.41-2.81-2.92L290,280h0l-3.1.93-4.6,1.37h0l-6.57,1.95v-8.65H262.47v15.68H283.6l.87,0h.06l.83.11.86.16.47.1.47.12.46.14.57.19.56.22.55.23c.19.08.37.17.54.26a5.12,5.12,0,0,1,.52.27l.1.06.14.07.14.09h0l.08,0,.15.09.07,0s0,0,0,0h0l0,0c.29.18.56.37.84.57a7.92,7.92,0,0,1,.82.64,14.18,14.18,0,0,1,1.14,1c.12.13.24.25.35.38h0a13.75,13.75,0,0,1,1,1.19h0l.25.35c.11.15.21.29.31.45s.29.45.43.68l.22.39c.16.29.3.58.43.88s.17.36.25.55l.21.57c.08.2.14.41.21.62l.12.36L300,300l-4.77-4.76Zm31.44-32.52h0Zm2.37,67.32-7.86-8.14v8.15h7.86ZM300,290.31l-.09.09-4.68,4.83L300,300l3-3L303,297v-9.77Zm-.09.09.09-.09-.07-.06-.59-.62-.4-.41-2.81-2.92L290,280h0l-3.1.93-4.6,1.37h0l-6.57,1.95v-8.65H262.47v15.68H283.6l.87,0h.06l.83.11.86.16.47.1.47.12.46.14.57.19.56.22.55.23c.19.08.37.17.54.26a5.12,5.12,0,0,1,.52.27l.1.06.14.07.14.09h0l.08,0,.15.09.07,0s0,0,0,0h0l0,0c.29.18.56.37.84.57a7.92,7.92,0,0,1,.82.64,14.18,14.18,0,0,1,1.14,1c.12.13.24.25.35.38h0a13.75,13.75,0,0,1,1,1.19h0l.25.35c.11.15.21.29.31.45s.29.45.43.68l.22.39c.16.29.3.58.43.88s.17.36.25.55l.21.57c.08.2.14.41.21.62l.12.36L300,300l-4.77-4.76Zm31.44-32.52h0Zm-5.49,59.18v8.15h7.86ZM299.91,290.4l-4.68,4.83L300,300l3-3L303,297v-9.77l-3,3.13Zm0,0,.09-.09-.07-.06-.59-.62-.4-.41-2.81-2.92L290,280h0l-3.1.93-4.6,1.37h0l-6.57,1.95v-8.65H262.47v15.68H283.6l.87,0h.06l.83.11.86.16.47.1.47.12.46.14.57.19.56.22.55.23c.19.08.37.17.54.26a5.12,5.12,0,0,1,.52.27l.1.06.14.07.14.09h0l.08,0,.15.09.07,0s0,0,0,0h0l0,0c.29.18.56.37.84.57a7.92,7.92,0,0,1,.82.64,14.18,14.18,0,0,1,1.14,1c.12.13.24.25.35.38h0a13.75,13.75,0,0,1,1,1.19h0l.25.35c.11.15.21.29.31.45s.29.45.43.68l.22.39c.16.29.3.58.43.88s.17.36.25.55l.21.57c.08.2.14.41.21.62l.12.36L300,300l-4.77-4.76Zm17.59-36.79A18.81,18.81,0,0,0,299.55,267V253.61H254.62l-.91,0a19,19,0,0,0-7.28,1.81,19.46,19.46,0,0,0-5.9,4.29c-.28.31-.57.63-.83.95s-.53.66-.78,1a19.25,19.25,0,0,0-3.62,11.24v20.71a19,19,0,0,0,.64,4.89A19.37,19.37,0,0,0,254.66,313h1.8l-6.77,2-8.36,2.48-3.05.92v28H283.2a19.42,19.42,0,0,0,17.35-10.77,18.74,18.74,0,0,0,16.95,10.77h47.18V318.29l-3-.9-19.41-5.86V288l19.41-5.88,3-.91V253.61Zm-19.24,73.48c0,.23,0,.45,0,.67s0,.26,0,.38,0,.19,0,.29a1.24,1.24,0,0,0,0,.18c0,.12,0,.23,0,.34v0a.14.14,0,0,1,0,.06v.06a1.29,1.29,0,0,1,0,.19.39.39,0,0,1,0,.15,2.7,2.7,0,0,1,0,.28c0,.07,0,.13,0,.19s-.05.28-.09.42-.09.43-.15.64a4772185884377.77,4772185884377.77,0,0,1-.14.48l-.06.18c0,.08-.05.17-.08.25s0,0,0,.05-.07.19-.1.3l-.14.35a2.33,2.33,0,0,1-.14.33.06.06,0,0,1,0,0c0,.1-.08.19-.13.29l-.15.34s0,0,0,0a3.18,3.18,0,0,0-.16.32l-.17.31a3.14,3.14,0,0,1-.18.31c-.05.1-.12.21-.18.31s-.2.33-.31.49l-.22.32-.07.1a4,4,0,0,1-.29.39c-.12.17-.25.32-.37.47a3.22,3.22,0,0,1-.24.28l-.3.34c-.22.24-.46.48-.7.71l-.26.24-.28.25-.09.08c-.12.11-.25.21-.38.31l-.08.06-.35.27c-.12.09-.24.18-.37.26s-.39.27-.6.4a.67.67,0,0,0-.14.09l0,0-.12.08-.09,0-.11.06-.13.09-.5.26-.34.17-.1,0a5.69,5.69,0,0,1-.56.26l-.34.14-.06,0-.44.17c-.14.06-.29.1-.44.15l-.46.13-.36.1c-.11,0-.24.07-.36.09l-.37.08-.06,0-.67.11c-.25,0-.5.08-.75.1s-.51.05-.77.06-.51,0-.77,0H242.55V321.6l8.35-2.48,11.2-3.33v8.65h13.25V308.73H254.66a14.79,14.79,0,0,1-6.69-1.59,14,14,0,0,1-1.59-.92c-.34-.23-.68-.46-1-.72s-.58-.47-.86-.73l-.1-.1a3.34,3.34,0,0,1-.33-.32c-.14-.13-.27-.27-.4-.4l-.51-.57c-.13-.15-.26-.31-.38-.47s-.25-.32-.37-.49-.23-.33-.35-.5l-.28-.45a0,0,0,0,0,0,0s0,0,0,0l0-.06a.05.05,0,0,1,0,0,.08.08,0,0,1,0,0s0,0,0,0a2.26,2.26,0,0,1-.22-.37l-.28-.54c-.1-.18-.19-.37-.27-.55s-.17-.38-.24-.57a.08.08,0,0,0,0,0c-.07-.18-.14-.36-.2-.55a5.66,5.66,0,0,1-.2-.58h0a5.72,5.72,0,0,1-.17-.59h0c0-.15-.08-.3-.11-.45a13.08,13.08,0,0,1-.26-1.39h0a15.22,15.22,0,0,1-.13-1.92V272.94a1.15,1.15,0,0,1,0-.19c0-.07,0-.15,0-.22s0-.4,0-.61a0,0,0,0,1,0,0,1.69,1.69,0,0,1,0-.23.66.66,0,0,0,0-.13s0-.09,0-.14l0-.3c0-.15.05-.3.07-.45v-.06l.09-.47a.29.29,0,0,1,0-.09,2.74,2.74,0,0,1,.08-.37,1.74,1.74,0,0,1,.05-.22c0-.15.07-.29.11-.44l.06-.23c0-.14.08-.27.13-.41s.08-.26.13-.38a2.92,2.92,0,0,1,.14-.38,14,14,0,0,1,.78-1.72c.07-.13.15-.28.23-.41l.18-.31a.25.25,0,0,0,0-.07l.06-.06.09-.16.1-.16a1.88,1.88,0,0,1,.16-.23.8.8,0,0,1,.13-.19,11.92,11.92,0,0,1,1-1.26l.29-.31h0l.23-.24.15-.15c.34-.34.7-.66,1.07-1s.66-.53,1-.77.71-.47,1.07-.68a12.12,12.12,0,0,1,1.13-.59,16.19,16.19,0,0,1,1.79-.7,14.94,14.94,0,0,1,4.55-.71h40.65v20.52L290,280h0l-3.1.93-4.6,1.37h0l-6.57,1.95v-8.65H262.47v15.68H283.6l.87,0h.06l.83.11.86.16.47.1.47.12.46.14.57.19.56.22.55.23c.19.08.37.17.54.26a5.12,5.12,0,0,1,.52.27l.1.06.14.07.14.09h0l.08,0,.15.09.07,0s0,0,0,0h0l0,0c.29.18.56.37.84.57a7.92,7.92,0,0,1,.82.64,14.18,14.18,0,0,1,1.14,1c.12.13.24.25.35.38h0a13.75,13.75,0,0,1,1,1.19h0l.25.35c.11.15.21.29.31.45s.29.45.43.68l.22.39c.16.29.3.58.43.88s.17.36.25.55l.21.57c.08.2.14.41.21.62l.12.36h0c.07.25.13.49.18.74a5.59,5.59,0,0,1,.12.56,1.62,1.62,0,0,1,0,.19c0,.05,0,.09,0,.13l.06.38s0,0,0,0c0,.16,0,.32.05.48s0,.33,0,.5v.06a3.87,3.87,0,0,1,0,.48c0,.18,0,.35,0,.53ZM360.41,278,341,283.88v-9H325.86v50.37H341v-9.59h0l19.4,5.85v20.67H317.5c-.23,0-.45,0-.68,0h-.21l-.47,0H316l-.14,0h-.08a4,4,0,0,1-.5-.07l-.3,0h-.07l-.08,0h-.07l-.07,0h-.12l-.13,0-.5-.12h0l-.14,0-.12,0-.3-.09-.15,0-.1,0a1.42,1.42,0,0,1-.33-.11l-.1,0-.14-.05c-.23-.08-.44-.17-.66-.27a4.91,4.91,0,0,1-.57-.25l-.07,0h0l0,0h0a3.75,3.75,0,0,1-.4-.21l-.23-.12,0,0a.2.2,0,0,1-.09-.05l-.08,0v0h0l0,0-.12-.06-.29-.18-.12-.08-.32-.21a4,4,0,0,1-.42-.3l-.14-.1a1.84,1.84,0,0,1-.22-.17l-.06-.05-.07,0-.11-.1,0,0s0,0,0,0l0,0-.06,0-.47-.42-.06-.06h0l-.15-.13-.28-.29-.24-.24-.24-.26c-.15-.16-.3-.33-.43-.5l-.46-.57s0,0,0,0q-.19-.27-.39-.57h0a0,0,0,0,1,0,0s0,0,0,0l0,0-.07-.11a.47.47,0,0,1-.06-.09,1.19,1.19,0,0,1-.09-.15l-.09-.14-.06-.11c-.09-.15-.18-.3-.26-.46l-.06-.09-.11-.23-.12-.23-.06-.12c0-.1-.1-.21-.14-.31s-.1-.22-.15-.33h0a2.18,2.18,0,0,1-.11-.27l-.15-.38c-.08-.22-.16-.45-.23-.68s-.13-.46-.19-.69-.12-.47-.16-.7-.09-.48-.13-.71h0c0-.18-.05-.36-.08-.55a.62.62,0,0,0,0-.13.49.49,0,0,0,0-.12c0-.09,0-.18,0-.28s0,0,0,0,0-.16,0-.24a1.93,1.93,0,0,1,0-.24c0-.2,0-.41,0-.61V272.45a13.62,13.62,0,0,1,.07-1.44.13.13,0,0,0,0-.06c.05-.49.13-1,.22-1.45,0-.23.1-.47.15-.7s.14-.46.2-.69.13-.41.2-.6.07-.19.11-.28a1.07,1.07,0,0,1,.07-.19,1.46,1.46,0,0,0,.07-.19.2.2,0,0,0,0-.08c.18-.43.39-.86.61-1.27l.07-.14.14-.23.14-.24c.11-.2.24-.39.37-.59l.14-.19.21-.31a13.13,13.13,0,0,1,1.13-1.34c.13-.15.27-.28.4-.42a.08.08,0,0,1,0,0l.22-.22h0c.11-.12.23-.22.35-.33a13,13,0,0,1,1.31-1l.24-.17.26-.16.52-.32A14,14,0,0,1,312,259a11.84,11.84,0,0,1,1.3-.47,14.56,14.56,0,0,1,4.2-.62h42.91Zm-60.5,12.4.09-.09-.07-.06-.59-.62-.4-.41-2.81-2.92L290,280h0l-3.1.93-4.6,1.37h0l-6.57,1.95v-8.65H262.47v15.68H283.6l.87,0h.06l.83.11.86.16.47.1.47.12.46.14.57.19.56.22.55.23c.19.08.37.17.54.26a5.12,5.12,0,0,1,.52.27l.1.06.14.07.14.09h0l.08,0,.15.09.07,0s0,0,0,0h0l0,0c.29.18.56.37.84.57a7.92,7.92,0,0,1,.82.64,14.18,14.18,0,0,1,1.14,1c.12.13.24.25.35.38h0a13.75,13.75,0,0,1,1,1.19h0l.25.35c.11.15.21.29.31.45s.29.45.43.68l.22.39c.16.29.3.58.43.88s.17.36.25.55l.21.57c.08.2.14.41.21.62l.12.36L300,300l-4.77-4.76Zm.09-.09-.09.09-4.68,4.83L300,300l3-3L303,297v-9.77Zm33.72,34.89-7.86-8.14v8.15h7.86Zm-2.37-67.32h0ZM299.91,290.4l.09-.09-.07-.06-.59-.62-.4-.41-2.81-2.92L290,280h0l-3.1.93-4.6,1.37h0l-6.57,1.95v-8.65H262.47v15.68H283.6l.87,0h.06l.83.11.86.16.47.1.47.12.46.14.57.19.56.22.55.23c.19.08.37.17.54.26a5.12,5.12,0,0,1,.52.27l.1.06.14.07.14.09h0l.08,0,.15.09.07,0s0,0,0,0h0l0,0c.29.18.56.37.84.57a7.92,7.92,0,0,1,.82.64,14.18,14.18,0,0,1,1.14,1c.12.13.24.25.35.38h0a13.75,13.75,0,0,1,1,1.19h0l.25.35c.11.15.21.29.31.45s.29.45.43.68l.22.39c.16.29.3.58.43.88s.17.36.25.55l.21.57c.08.2.14.41.21.62l.12.36L300,300l-4.77-4.76Zm.09-.09-.09.09-4.68,4.83L300,300l3-3L303,297v-9.77Zm33.72,34.89-7.86-8.14v8.15h7.86Zm-2.37-67.32h0ZM299.91,290.4l.09-.09-.07-.06-.59-.62-.4-.41-2.81-2.92L290,280h0l-3.1.93-4.6,1.37h0l-6.57,1.95v-8.65H262.47v15.68H283.6l.87,0h.06l.83.11.86.16.47.1.47.12.46.14.57.19.56.22.55.23c.19.08.37.17.54.26a5.12,5.12,0,0,1,.52.27l.1.06.14.07.14.09h0l.08,0,.15.09.07,0s0,0,0,0h0l0,0c.29.18.56.37.84.57a7.92,7.92,0,0,1,.82.64,14.18,14.18,0,0,1,1.14,1c.12.13.24.25.35.38h0a13.75,13.75,0,0,1,1,1.19h0l.25.35c.11.15.21.29.31.45s.29.45.43.68l.22.39c.16.29.3.58.43.88s.17.36.25.55l.21.57c.08.2.14.41.21.62l.12.36L300,300l-4.77-4.76Zm.09-.09-.09.09-4.68,4.83L300,300l3-3L303,297v-9.77Zm33.72,34.89-7.86-8.14v8.15h7.86Zm-2.37-67.32h0ZM299.91,290.4l.09-.09-.07-.06-.59-.62-.4-.41-2.81-2.92L290,280h0l-3.1.93-4.6,1.37h0l-6.57,1.95v-8.65H262.47v15.68H283.6l.87,0h.06l.83.11.86.16.47.1.47.12.46.14.57.19.56.22.55.23c.19.08.37.17.54.26a5.12,5.12,0,0,1,.52.27l.1.06.14.07.14.09h0l.08,0,.15.09.07,0s0,0,0,0h0l0,0c.29.18.56.37.84.57a7.92,7.92,0,0,1,.82.64,14.18,14.18,0,0,1,1.14,1c.12.13.24.25.35.38h0a13.75,13.75,0,0,1,1,1.19h0l.25.35c.11.15.21.29.31.45s.29.45.43.68l.22.39c.16.29.3.58.43.88s.17.36.25.55l.21.57c.08.2.14.41.21.62l.12.36L300,300l-4.77-4.76Zm.09-.09-.09.09-4.68,4.83L300,300l3-3L303,297v-9.77Zm33.72,34.89-7.86-8.14v8.15h7.86Zm-2.37-67.32h0ZM299.91,290.4l.09-.09-.07-.06-.59-.62-.4-.41-2.81-2.92L290,280h0l-3.1.93-4.6,1.37h0l-6.57,1.95v-8.65H262.47v15.68H283.6l.87,0h.06l.83.11.86.16.47.1.47.12.46.14.57.19.56.22.55.23c.19.08.37.17.54.26a5.12,5.12,0,0,1,.52.27l.1.06.14.07.14.09h0l.08,0,.15.09.07,0s0,0,0,0h0l0,0c.29.18.56.37.84.57a7.92,7.92,0,0,1,.82.64,14.18,14.18,0,0,1,1.14,1c.12.13.24.25.35.38h0a13.75,13.75,0,0,1,1,1.19h0l.25.35c.11.15.21.29.31.45s.29.45.43.68l.22.39c.16.29.3.58.43.88s.17.36.25.55l.21.57c.08.2.14.41.21.62l.12.36L300,300l-4.77-4.76Zm.09-.09-.09.09-4.68,4.83L300,300l3-3L303,297v-9.77Zm33.72,34.89-7.86-8.14v8.15h7.86Zm-2.37-67.32h0ZM299.91,290.4l.09-.09-.07-.06-.59-.62-.4-.41-2.81-2.92L290,280h0l-3.1.93-4.6,1.37h0l-6.57,1.95v-8.65H262.47v15.68H283.6l.87,0h.06l.83.11.86.16.47.1.47.12.46.14.57.19.56.22.55.23c.19.08.37.17.54.26a5.12,5.12,0,0,1,.52.27l.1.06.14.07.14.09h0l.08,0,.15.09.07,0s0,0,0,0h0l0,0c.29.18.56.37.84.57a7.92,7.92,0,0,1,.82.64,14.18,14.18,0,0,1,1.14,1c.12.13.24.25.35.38h0a13.75,13.75,0,0,1,1,1.19h0l.25.35c.11.15.21.29.31.45s.29.45.43.68l.22.39c.16.29.3.58.43.88s.17.36.25.55l.21.57c.08.2.14.41.21.62l.12.36L300,300l-4.77-4.76Zm.09-.09-.09.09-4.68,4.83L300,300l3-3L303,297v-9.77Zm33.72,34.89-7.86-8.14v8.15h7.86Zm-2.37-67.32h0ZM299.91,290.4l.09-.09-.07-.06-.59-.62-.4-.41-2.81-2.92L290,280h0l-3.1.93-4.6,1.37h0l-6.57,1.95v-8.65H262.47v15.68H283.6l.87,0h.06l.83.11.86.16.47.1.47.12.46.14.57.19.56.22.55.23c.19.08.37.17.54.26a5.12,5.12,0,0,1,.52.27l.1.06.14.07.14.09h0l.08,0,.15.09.07,0s0,0,0,0h0l0,0c.29.18.56.37.84.57a7.92,7.92,0,0,1,.82.64,14.18,14.18,0,0,1,1.14,1c.12.13.24.25.35.38h0a13.75,13.75,0,0,1,1,1.19h0l.25.35c.11.15.21.29.31.45s.29.45.43.68l.22.39c.16.29.3.58.43.88s.17.36.25.55l.21.57c.08.2.14.41.21.62l.12.36L300,300l-4.77-4.76Zm.09-.09-.09.09-4.68,4.83L300,300l3-3L303,297v-9.77Zm33.72,34.89-7.86-8.14v8.15h7.86Zm-2.37-67.32h0ZM299.91,290.4l.09-.09-.07-.06-.59-.62-.4-.41-2.81-2.92L290,280h0l-3.1.93-4.6,1.37h0l-6.57,1.95v-8.65H262.47v15.68H283.6l.87,0h.06l.83.11.86.16.47.1.47.12.46.14.57.19.56.22.55.23c.19.08.37.17.54.26a5.12,5.12,0,0,1,.52.27l.1.06.14.07.14.09h0l.08,0,.15.09.07,0s0,0,0,0h0l0,0c.29.18.56.37.84.57a7.92,7.92,0,0,1,.82.64,14.18,14.18,0,0,1,1.14,1c.12.13.24.25.35.38h0a13.75,13.75,0,0,1,1,1.19h0l.25.35c.11.15.21.29.31.45s.29.45.43.68l.22.39c.16.29.3.58.43.88s.17.36.25.55l.21.57c.08.2.14.41.21.62l.12.36L300,300l-4.77-4.76Zm.09-.09-.09.09-4.68,4.83L300,300l3-3L303,297v-9.77Zm33.72,34.89-7.86-8.14v8.15h7.86Zm-2.37-67.32h0ZM299.91,290.4l.09-.09-.07-.06-.59-.62-.4-.41-2.81-2.92L290,280h0l-3.1.93-4.6,1.37h0l-6.57,1.95v-8.65H262.47v15.68H283.6l.87,0h.06l.83.11.86.16.47.1.47.12.46.14.57.19.56.22.55.23c.19.08.37.17.54.26a5.12,5.12,0,0,1,.52.27l.1.06.14.07.14.09h0l.08,0,.15.09.07,0s0,0,0,0h0l0,0c.29.18.56.37.84.57a7.92,7.92,0,0,1,.82.64,14.18,14.18,0,0,1,1.14,1c.12.13.24.25.35.38h0a13.75,13.75,0,0,1,1,1.19h0l.25.35c.11.15.21.29.31.45s.29.45.43.68l.22.39c.16.29.3.58.43.88s.17.36.25.55l.21.57c.08.2.14.41.21.62l.12.36L300,300l-4.77-4.76Zm.09-.09-.09.09-4.68,4.83L300,300l3-3L303,297v-9.77Zm33.72,34.89-7.86-8.14v8.15h7.86Zm-2.37-67.32h0ZM299.91,290.4l.09-.09-.07-.06-.59-.62-.4-.41-2.81-2.92L290,280h0l-3.1.93-4.6,1.37h0l-6.57,1.95v-8.65H262.47v15.68H283.6l.87,0h.06l.83.11.86.16.47.1.47.12.46.14.57.19.56.22.55.23c.19.08.37.17.54.26a5.12,5.12,0,0,1,.52.27l.1.06.14.07.14.09h0l.08,0,.15.09.07,0s0,0,0,0h0l0,0c.29.18.56.37.84.57a7.92,7.92,0,0,1,.82.64,14.18,14.18,0,0,1,1.14,1c.12.13.24.25.35.38h0a13.75,13.75,0,0,1,1,1.19h0l.25.35c.11.15.21.29.31.45s.29.45.43.68l.22.39c.16.29.3.58.43.88s.17.36.25.55l.21.57c.08.2.14.41.21.62l.12.36L300,300l-4.77-4.76Zm.09-.09-.09.09-4.68,4.83L300,300l3-3L303,297v-9.77Zm33.72,34.89-7.86-8.14v8.15h7.86Zm-2.37-67.32h0ZM299.91,290.4l.09-.09-.07-.06-.59-.62-.4-.41-2.81-2.92L290,280h0l-3.1.93-4.6,1.37h0l-6.57,1.95v-8.65H262.47v15.68H283.6l.87,0h.06l.83.11.86.16.47.1.47.12.46.14.57.19.56.22.55.23c.19.08.37.17.54.26a5.12,5.12,0,0,1,.52.27l.1.06.14.07.14.09h0l.08,0,.15.09.07,0s0,0,0,0h0l0,0c.29.18.56.37.84.57a7.92,7.92,0,0,1,.82.64,14.18,14.18,0,0,1,1.14,1c.12.13.24.25.35.38h0a13.75,13.75,0,0,1,1,1.19h0l.25.35c.11.15.21.29.31.45s.29.45.43.68l.22.39c.16.29.3.58.43.88s.17.36.25.55l.21.57c.08.2.14.41.21.62l.12.36L300,300l-4.77-4.76Zm.09-.09-.09.09-4.68,4.83L300,300l3-3L303,297v-9.77Zm33.72,34.89-7.86-8.14v8.15h7.86Zm-2.37-67.32h0ZM299.91,290.4l.09-.09-.07-.06-.59-.62-.4-.41-2.81-2.92L290,280h0l-3.1.93-4.6,1.37h0l-6.57,1.95v-8.65H262.47v15.68H283.6l.87,0h.06l.83.11.86.16.47.1.47.12.46.14.57.19.56.22.55.23c.19.08.37.17.54.26a5.12,5.12,0,0,1,.52.27l.1.06.14.07.14.09h0l.08,0,.15.09.07,0s0,0,0,0h0l0,0c.29.18.56.37.84.57a7.92,7.92,0,0,1,.82.64,14.18,14.18,0,0,1,1.14,1c.12.13.24.25.35.38h0a13.75,13.75,0,0,1,1,1.19h0l.25.35c.11.15.21.29.31.45s.29.45.43.68l.22.39c.16.29.3.58.43.88s.17.36.25.55l.21.57c.08.2.14.41.21.62l.12.36L300,300l-4.77-4.76Zm.09-.09-.09.09-4.68,4.83L300,300l3-3L303,297v-9.77Zm33.72,34.89-7.86-8.14v8.15h7.86Zm-2.37-67.32h0ZM299.91,290.4l.09-.09-.07-.06-.59-.62-.4-.41-2.81-2.92L290,280h0l-3.1.93-4.6,1.37h0l-6.57,1.95v-8.65H262.47v15.68H283.6l.87,0h.06l.83.11.86.16.47.1.47.12.46.14.57.19.56.22.55.23c.19.08.37.17.54.26a5.12,5.12,0,0,1,.52.27l.1.06.14.07.14.09h0l.08,0,.15.09.07,0s0,0,0,0h0l0,0c.29.18.56.37.84.57a7.92,7.92,0,0,1,.82.64,14.18,14.18,0,0,1,1.14,1c.12.13.24.25.35.38h0a13.75,13.75,0,0,1,1,1.19h0l.25.35c.11.15.21.29.31.45s.29.45.43.68l.22.39c.16.29.3.58.43.88s.17.36.25.55l.21.57c.08.2.14.41.21.62l.12.36L300,300l-4.77-4.76Zm.09-.09-.09.09-4.68,4.83L300,300l3-3L303,297v-9.77Zm33.72,34.89-7.86-8.14v8.15h7.86Zm-2.37-67.32h0ZM299.91,290.4l.09-.09-.07-.06-.59-.62-.4-.41-2.81-2.92L290,280h0l-3.1.93-4.6,1.37h0l-6.57,1.95v-8.65H262.47v15.68H283.6l.87,0h.06l.83.11.86.16.47.1.47.12.46.14.57.19.56.22.55.23c.19.08.37.17.54.26a5.12,5.12,0,0,1,.52.27l.1.06.14.07.14.09h0l.08,0,.15.09.07,0s0,0,0,0h0l0,0c.29.18.56.37.84.57a7.92,7.92,0,0,1,.82.64,14.18,14.18,0,0,1,1.14,1c.12.13.24.25.35.38h0a13.75,13.75,0,0,1,1,1.19h0l.25.35c.11.15.21.29.31.45s.29.45.43.68l.22.39c.16.29.3.58.43.88s.17.36.25.55l.21.57c.08.2.14.41.21.62l.12.36L300,300l-4.77-4.76Zm.09-.09-.09.09-4.68,4.83L300,300l3-3L303,297v-9.77Zm33.72,34.89-7.86-8.14v8.15h7.86Zm-2.37-67.32h0ZM299.91,290.4l.09-.09-.07-.06-.59-.62-.4-.41-2.81-2.92L290,280h0l-3.1.93-4.6,1.37h0l-6.57,1.95v-8.65H262.47v15.68H283.6l.87,0h.06l.83.11.86.16.47.1.47.12.46.14.57.19.56.22.55.23c.19.08.37.17.54.26a5.12,5.12,0,0,1,.52.27l.1.06.14.07.14.09h0l.08,0,.15.09.07,0s0,0,0,0h0l0,0c.29.18.56.37.84.57a7.92,7.92,0,0,1,.82.64,14.18,14.18,0,0,1,1.14,1c.12.13.24.25.35.38h0a13.75,13.75,0,0,1,1,1.19h0l.25.35c.11.15.21.29.31.45s.29.45.43.68l.22.39c.16.29.3.58.43.88s.17.36.25.55l.21.57c.08.2.14.41.21.62l.12.36L300,300l-4.77-4.76Zm.09-.09-.09.09-4.68,4.83L300,300l3-3L303,297v-9.77Zm33.72,34.89-7.86-8.14v8.15h7.86Zm-2.37-67.32h0ZM299.91,290.4l.09-.09-.07-.06-.59-.62-.4-.41-2.81-2.92L290,280h0l-3.1.93-4.6,1.37h0l-6.57,1.95v-8.65H262.47v15.68H283.6l.87,0h.06l.83.11.86.16.47.1.47.12.46.14.57.19.56.22.55.23c.19.08.37.17.54.26a5.12,5.12,0,0,1,.52.27l.1.06.14.07.14.09h0l.08,0,.15.09.07,0s0,0,0,0h0l0,0c.29.18.56.37.84.57a7.92,7.92,0,0,1,.82.64,14.18,14.18,0,0,1,1.14,1c.12.13.24.25.35.38h0a13.75,13.75,0,0,1,1,1.19h0l.25.35c.11.15.21.29.31.45s.29.45.43.68l.22.39c.16.29.3.58.43.88s.17.36.25.55l.21.57c.08.2.14.41.21.62l.12.36L300,300l-4.77-4.76Zm.09-.09-.09.09-4.68,4.83L300,300l3-3L303,297v-9.77Zm33.72,34.89-7.86-8.14v8.15h7.86Zm-2.37-67.32h0ZM299.91,290.4l.09-.09-.07-.06-.59-.62-.4-.41-2.81-2.92L290,280h0l-3.1.93-4.6,1.37h0l-6.57,1.95v-8.65H262.47v15.68H283.6l.87,0h.06l.83.11.86.16.47.1.47.12.46.14.57.19.56.22.55.23c.19.08.37.17.54.26a5.12,5.12,0,0,1,.52.27l.1.06.14.07.14.09h0l.08,0,.15.09.07,0s0,0,0,0h0l0,0c.29.18.56.37.84.57a7.92,7.92,0,0,1,.82.64,14.18,14.18,0,0,1,1.14,1c.12.13.24.25.35.38h0a13.75,13.75,0,0,1,1,1.19h0l.25.35c.11.15.21.29.31.45s.29.45.43.68l.22.39c.16.29.3.58.43.88s.17.36.25.55l.21.57c.08.2.14.41.21.62l.12.36L300,300l-4.77-4.76Zm.09-.09-.09.09-4.68,4.83L300,300l3-3L303,297v-9.77Zm33.72,34.89-7.86-8.14v8.15h7.86Zm-2.37-67.32h0ZM299.91,290.4l.09-.09-.07-.06-.59-.62-.4-.41-2.81-2.92L290,280h0l-3.1.93-4.6,1.37h0l-6.57,1.95v-8.65H262.47v15.68H283.6l.87,0h.06l.83.11.86.16.47.1.47.12.46.14.57.19.56.22.55.23c.19.08.37.17.54.26a5.12,5.12,0,0,1,.52.27l.1.06.14.07.14.09h0l.08,0,.15.09.07,0s0,0,0,0h0l0,0c.29.18.56.37.84.57a7.92,7.92,0,0,1,.82.64,14.18,14.18,0,0,1,1.14,1c.12.13.24.25.35.38h0a13.75,13.75,0,0,1,1,1.19h0l.25.35c.11.15.21.29.31.45s.29.45.43.68l.22.39c.16.29.3.58.43.88s.17.36.25.55l.21.57c.08.2.14.41.21.62l.12.36L300,300l-4.77-4.76Zm.09-.09-.09.09-4.68,4.83L300,300l3-3L303,297v-9.77Zm33.72,34.89-7.86-8.14v8.15h7.86Zm-2.37-67.32h0ZM299.91,290.4l.09-.09-.07-.06-.59-.62-.4-.41-2.81-2.92L290,280h0l-3.1.93-4.6,1.37h0l-6.57,1.95v-8.65H262.47v15.68H283.6l.87,0h.06l.83.11.86.16.47.1.47.12.46.14.57.19.56.22.55.23c.19.08.37.17.54.26a5.12,5.12,0,0,1,.52.27l.1.06.14.07.14.09h0l.08,0,.15.09.07,0s0,0,0,0h0l0,0c.29.18.56.37.84.57a7.92,7.92,0,0,1,.82.64,14.18,14.18,0,0,1,1.14,1c.12.13.24.25.35.38h0a13.75,13.75,0,0,1,1,1.19h0l.25.35c.11.15.21.29.31.45s.29.45.43.68l.22.39c.16.29.3.58.43.88s.17.36.25.55l.21.57c.08.2.14.41.21.62l.12.36L300,300l-4.77-4.76Zm.09-.09-.09.09-4.68,4.83L300,300l3-3L303,297v-9.77Zm33.72,34.89-7.86-8.14v8.15h7.86Zm-2.37-67.32h0ZM299.91,290.4l.09-.09-.07-.06-.59-.62-.4-.41-2.81-2.92L290,280h0l-3.1.93-4.6,1.37h0l-6.57,1.95v-8.65H262.47v15.68H283.6l.87,0h.06l.83.11.86.16.47.1.47.12.46.14.57.19.56.22.55.23c.19.08.37.17.54.26a5.12,5.12,0,0,1,.52.27l.1.06.14.07.14.09h0l.08,0,.15.09.07,0s0,0,0,0h0l0,0c.29.18.56.37.84.57a7.92,7.92,0,0,1,.82.64,14.18,14.18,0,0,1,1.14,1c.12.13.24.25.35.38h0a13.75,13.75,0,0,1,1,1.19h0l.25.35c.11.15.21.29.31.45s.29.45.43.68l.22.39c.16.29.3.58.43.88s.17.36.25.55l.21.57c.08.2.14.41.21.62l.12.36L300,300l-4.77-4.76Zm.09-.09-.09.09-4.68,4.83L300,300l3-3L303,297v-9.77Zm33.72,34.89-7.86-8.14v8.15h7.86Zm-2.37-67.32h0ZM299.91,290.4l.09-.09-.07-.06-.59-.62-.4-.41-2.81-2.92L290,280h0l-3.1.93-4.6,1.37h0l-6.57,1.95v-8.65H262.47v15.68H283.6l.87,0h.06l.83.11.86.16.47.1.47.12.46.14.57.19.56.22.55.23c.19.08.37.17.54.26a5.12,5.12,0,0,1,.52.27l.1.06.14.07.14.09h0l.08,0,.15.09.07,0s0,0,0,0h0l0,0c.29.18.56.37.84.57a7.92,7.92,0,0,1,.82.64,14.18,14.18,0,0,1,1.14,1c.12.13.24.25.35.38h0a13.75,13.75,0,0,1,1,1.19h0l.25.35c.11.15.21.29.31.45s.29.45.43.68l.22.39c.16.29.3.58.43.88s.17.36.25.55l.21.57c.08.2.14.41.21.62l.12.36L300,300l-4.77-4.76Zm.09-.09-.09.09-4.68,4.83L300,300l3-3L303,297v-9.77Zm31.35-32.43h0ZM303,293.41l-3-3.1-.07-.06-.59-.62-.4-.41-2.81-2.92L290,280h0l-3.1.93-4.6,1.37h0l-6.57,1.95v-8.65H262.47v15.68H283.6l.87,0h.06l.83.11.86.16.47.1.47.12.46.14.57.19.56.22.55.23c.19.08.37.17.54.26a5.12,5.12,0,0,1,.52.27l.1.06.14.07.14.09h0l.08,0,.15.09.07,0s0,0,0,0h0l0,0c.29.18.56.37.84.57a7.92,7.92,0,0,1,.82.64,14.18,14.18,0,0,1,1.14,1c.12.13.24.25.35.38h0a13.75,13.75,0,0,1,1,1.19h0l.25.35c.11.15.21.29.31.45s.29.45.43.68l.22.39c.16.29.3.58.43.88s.17.36.25.55l.21.57c.08.2.14.41.21.62l.12.36L300,300l3-3L303,297v-3.5Zm28.36-35.53h0ZM303,293.41l-3-3.1-.07-.06-.59-.62-.4-.41-2.81-2.92L290,280h0l-3.1.93-4.6,1.37h0l-6.57,1.95v-8.65H262.47v15.68H283.6l.87,0h.06l.83.11.86.16.47.1.47.12.46.14.57.19.56.22.55.23c.19.08.37.17.54.26a5.12,5.12,0,0,1,.52.27l.1.06.14.07.14.09h0l.08,0,.15.09.07,0s0,0,0,0h0l0,0c.29.18.56.37.84.57a7.92,7.92,0,0,1,.82.64,14.18,14.18,0,0,1,1.14,1c.12.13.24.25.35.38h0a13.75,13.75,0,0,1,1,1.19h0l.25.35c.11.15.21.29.31.45s.29.45.43.68l.22.39c.16.29.3.58.43.88s.17.36.25.55l.21.57c.08.2.14.41.21.62l.12.36L300,300l3-3L303,297v-3.5Zm0,0-3-3.1-.07-.06-.59-.62-.4-.41-2.81-2.92L290,280h0l-3.1.93-4.6,1.37h0l-6.57,1.95v-8.65H262.47v15.68H283.6l.87,0h.06l.83.11.86.16.47.1.47.12.46.14.57.19.56.22.55.23c.19.08.37.17.54.26a5.12,5.12,0,0,1,.52.27l.1.06.14.07.14.09h0l.08,0,.15.09.07,0s0,0,0,0h0l0,0c.29.18.56.37.84.57a7.92,7.92,0,0,1,.82.64,14.18,14.18,0,0,1,1.14,1c.12.13.24.25.35.38h0l.94-1L300,300l3-3L303,297v-3.5Zm-19.84-2.15H273.4l-10.93-10.48v10.49H283.6A3.39,3.39,0,0,0,283.15,291.26Zm.93,0h0a3.38,3.38,0,0,0-.45,0l.89.05Zm1.94.26-.14,0-.26,0-.26,0,.86.16Zm-1.14-.18-.39,0,.87.11-.38-.06Zm3.57.87-.26-.09.56.22Zm1.77.81-.37-.2c-.19-.09-.37-.18-.55-.25.19.08.37.17.54.26a5.12,5.12,0,0,1,.52.27Zm-1.28-.61-.19-.07.55.23-.07,0Zm-2.49-.8-.23,0,.47.1Zm.31.07h-.07l.47.12Zm7.41,4.38-.25-.25c.12.13.24.25.35.38h0Zm-.66-.67-.45-.41a2.69,2.69,0,0,0-.28-.22,14.18,14.18,0,0,1,1.14,1,3.11,3.11,0,0,0-.31-.32A.94.94,0,0,0,293.51,295.42Zm-2-1.61-.38-.23c.29.18.56.37.84.57A5,5,0,0,0,291.5,293.81ZM267,324.43h0Zm4.56-33.17h0Zm4.05-15.67.11.12v-.12ZM267,324.43h0Zm2.74-33.17h0Zm5.87-15.67.11.12v-.12Zm50.24,49.61h0Zm0-50.36V292L341,277.44v-2.6ZM273.4,291.26l-10.93-10.48v10.49H273.4ZM267,324.43h0Zm58.85.77h0Z"/><path class="cls-1" d="M241.58,265.46c.07-.13.15-.26.23-.38a.16.16,0,0,0,0,.07A3.21,3.21,0,0,0,241.58,265.46Z"/><path class="cls-1" d="M242,264.86l-.09.16-.06.06Z"/><path class="cls-1" d="M283.15,291.26a3.39,3.39,0,0,1,.45,0h-.45Z"/><path class="cls-1" d="M284.53,291.33h-.06l-.87,0a3.38,3.38,0,0,1,.45,0h0l.41,0,.39,0h.1l.38.06Z"/><path class="cls-1" d="M286.22,291.6l-.86-.16.26,0,.26,0,.14,0Z"/><path class="cls-1" d="M286.69,291.7l-.47-.1.23,0Z"/><path class="cls-1" d="M287.16,291.82l-.47-.12h.07Z"/><path class="cls-1" d="M288.19,292.15l-.57-.19.43.13Z"/><path class="cls-1" d="M288.75,292.37l-.56-.22.26.09Z"/><path class="cls-1" d="M289.23,292.56l.07,0-.55-.23.19.07Z"/><path class="cls-1" d="M290.36,293.13a5.12,5.12,0,0,0-.52-.27c-.17-.09-.35-.18-.54-.26.18.07.36.16.55.25l.37.2Z"/><path class="cls-1" d="M292,294.15c-.28-.2-.55-.39-.84-.57l.38.23A5,5,0,0,1,292,294.15Z"/><path class="cls-1" d="M293.61,295.52a3.11,3.11,0,0,1,.31.32,14.18,14.18,0,0,0-1.14-1,2.69,2.69,0,0,1,.28.22l.45.41A.94.94,0,0,1,293.61,295.52Z"/><path class="cls-1" d="M295.27,297.42h0a13.75,13.75,0,0,0-1-1.19h0c-.11-.13-.23-.25-.35-.38l.25.25.11.12s0,0,0,0A12.51,12.51,0,0,1,295.27,297.42Z"/><path class="cls-1" d="M295.27,257.88H254.62a14.94,14.94,0,0,0-4.55.71,14.59,14.59,0,0,1,4.55-.72Z"/><path class="cls-1" d="M341,315.6v0l19.4,5.85h0Zm-15.15,9.6h0Zm-17.47,13.68.11.1.07,0Zm-1.12-1,.28.29.15.13A5.66,5.66,0,0,1,307.27,337.86Z"/><path class="cls-1" d="M303.33,269.5c-.09.47-.17.95-.22,1.45A13.3,13.3,0,0,1,303.33,269.5Z"/><path class="cls-1" d="M312,259a15.61,15.61,0,0,0-1.64.81A11.9,11.9,0,0,1,312,259Z"/><path class="cls-1" d="M360.41,257.87v0H317.5A14.34,14.34,0,0,0,312,259a14.17,14.17,0,0,1,5.5-1.1Z"/></svg>