<?xml version="1.0" encoding="utf-8"?>
<!-- Generator: Adobe Illustrator 22.0.1, SVG Export Plug-In . SVG Version: 6.00 Build 0)  -->
<svg version="1.1" id="Layer_1" xmlns="http://www.w3.org/2000/svg" xmlns:xlink="http://www.w3.org/1999/xlink" x="0px" y="0px"
	 viewBox="0 0 805 789.6" style="enable-background:new 0 0 805 789.6;" xml:space="preserve">
<style type="text/css">
	.st0{fill:#4156A6;}
	.st1{fill:#2474AE;}
	.st2{fill:#FFFFFF;}
	.st3{fill:#13263D;}
	.st4{fill:#C60000;}
	.st5{fill:#FCFDFD;}
	.st6{fill:#FEC324;}
	.st7{fill:#FE8024;}
	.st8{fill:#132249;}
</style>
<rect x="0" y="0" class="st6" width="805" height="789.6"/>
<g>
	<path class="st2" d="M425.9,344.2c1.5-4.2,2.6-8.5,1.2-13c-1.7-5.3-4.9-9.4-9.3-13.1c-0.6,6.4-0.7,12.4-0.7,18.5
		c0,0.9,0.6,1.4,1.1,2c1.9,2.3,4,4.3,5.1,7.1l0,0c-2.1-0.4-3.3-2.2-4.7-3.6c-4-4.1-8.6-7.4-13-11c-3.8-3.1-8.2-3.1-12.6-1.2
		c-1,0.4-1.6,1-0.3,1.9c5.2,4,9.8,8.6,14.5,13.2c4.3,4.2,9.5,4,15.1,2.8c-0.3,1.2-1.2,1.8-1.9,2.5c-5,5-11.3,8.3-16.2,13.3
		c-2.4,2.4-5.2,4.5-6.9,7.6c-2.4,4.4-2.5,8.7,0.2,13.1c0.9,1.4,1.5,1.5,2.6,0.3c3.4-3.8,7.2-7,11.8-10c-0.4,2.5-0.7,4.7-0.5,6.8
		c0.5,4.5,2.8,7.9,6.6,10.3c1,0.7,1.7,0.7,2.1-0.8c2.1-7.7,5.5-14.9,8.8-22.1c3-6.4,4.1-12.7,0.2-19.5c9.1,1.7,15.8-1.9,21.6-8.4
		c1.3,2.7,1.7,5.4,2.1,8c3.6,26.8-12.8,51.2-39.5,56.9c-17.6,3.7-33.2-1-46.5-13.4c-11.4-10.6-16-23.9-15.3-39
		c0.5-11.6,4.7-22.1,12.8-30.6c11.5-12,25.8-18.3,42.6-16.6c19.9,2,34.1,12.5,42.4,30.7c0.8,1.6,0.8,2.4-1.5,2.3
		c-4.4-0.2-8.7,0-13.1-0.1c-1.5,0-2.6,0.3-3.8,1.3c-1.6,1.5-3.1,3-5.2,3.9L425.9,344.2z"/>
	<g>
		<g>
			<path class="st2" d="M150.9,432v2.2h10.2v40.4h2.6v-40.4h10.1V432H150.9z"/>
		</g>
		<g>
			<path class="st2" d="M208.2,432v19.5h-24.9V432h-2.6v42.6h2.6v-20.9h24.9v20.9h2.6V432H208.2z"/>
		</g>
		<g>
			<path class="st2" d="M244.2,434.2V432h-22.5v42.6h22.5v-2.2h-19.8v-18.2h19.2V452h-19.2v-17.8H244.2z"/>
		</g>
		<g>
			<path class="st2" d="M284.9,455v4h24.8c-2.2,7.8-10,13-18,13c-10.6,0-19.5-8.1-19.5-18.9c0-5.1,2.5-10.2,6.1-13.5
				c3.7-3.4,8.5-5,13.2-5c6.2,0,12.6,3.1,15.7,8.3h5.1c-1.1-3.4-4.9-6.9-7.8-8.8c-3.8-2.5-8.4-3.8-13-3.8c-6.4,0-12.3,2.2-17,6.8
				c-4.1,4.1-6.9,10-6.9,15.9c0,13,11,23.2,23.8,23.2c12,0,22.7-9.1,23.5-21.3H284.9z"/>
		</g>
		<g>
			<path class="st2" d="M322.2,431.1v44.4h4.4v-44.4H322.2z"/>
		</g>
		<g>
			<path class="st2" d="M367.9,431.1L352.2,470l-15.6-38.9h-4.9l18.4,44.4h4.2l18.5-44.4H367.9z"/>
		</g>
		<g>
			<path class="st2" d="M378,431.1v44.4h4.4v-44.4H378z"/>
		</g>
		<g>
			<path class="st2" d="M422.4,431.1V468l-24.9-36.9h-6v44.4h4.4v-39.1l26.4,39.1h4.4v-44.4H422.4z"/>
		</g>
		<g>
			<path class="st2" d="M451.3,455v4h24.8c-2.2,7.8-10,13-18,13c-10.6,0-19.5-8.1-19.5-18.9c0-5.1,2.5-10.2,6.1-13.5
				c3.7-3.4,8.5-5,13.2-5c6.2,0,12.6,3.1,15.7,8.3h5.1c-1.1-3.4-4.9-6.9-7.8-8.8c-3.8-2.5-8.4-3.8-13-3.8c-6.4,0-12.3,2.2-17,6.8
				c-4.1,4.1-6.8,10-6.8,15.9c0,13,11,23.2,23.8,23.2c12,0,22.7-9.1,23.5-21.3H451.3z"/>
		</g>
		<g>
			<path class="st2" d="M524.4,454.7c-2.1-1.9-4.4-2.6-7.1-3.3l-1.1-0.3c-4.2-1.2-9.4-2.6-9.4-8.7c0-4.8,3.8-8.7,8.5-8.7
				c4.7,0,8.3,3.2,8.9,7.8h2.9c-0.2-2.6-1.3-5-3.1-6.9c-2.1-2.2-5-3.3-8.2-3.3c-6.8,0-11.7,4.7-11.7,11.1c0,3,1.2,5.7,3.4,7.6
				c2.1,1.8,4.8,2.5,7.4,3.2c2.7,0.7,5.1,1.3,7.3,3.2c2.1,1.7,3.4,4.4,3.4,7c0,5.4-4.4,9.7-10.1,9.7c-5.1,0-9.2-3.9-9.8-9h-3
				c0.2,3,1.3,5.6,3.4,7.6c2.4,2.4,5.8,3.8,9.5,3.8c7,0,12.6-5.4,12.6-12.1C528.3,460,526.8,456.8,524.4,454.7z"/>
		</g>
		<g>
			<path class="st2" d="M558.2,434.3c-3.4-2.1-7.3-2.2-11.4-2.3H536v42.6h2.6v-17.9h9.3c4.4,0,8-0.5,11-2.7c3-2.2,4.7-5.6,4.7-9.6
				C563.6,440.1,561.6,436.4,558.2,434.3z M556.6,452.6c-2.9,1.8-6.1,1.9-9.4,1.9h-8.5v-20.3h6.6c0.5,0,1,0,1.5,0
				c2.7,0,5.5-0.1,8.1,1.1c3.9,1.6,6.1,4.9,6.1,9.1C560.9,447.8,559.3,450.9,556.6,452.6z"/>
		</g>
		<g>
			<path class="st2" d="M571.6,432v42.6h2.6V432H571.6z"/>
		</g>
		<g>
			<path class="st2" d="M601.3,458c6.7-0.2,12.2-5.7,12.2-12.4c0-5-2.3-9.2-6.5-11.5c-3.6-2-8.4-2-12.2-2h-9.7v42.6h2.6v-40.4h7.9
				c3.6,0,7.4,0,10.6,2.3c2.7,1.9,4.5,5.3,4.5,8.7c0,4.3-2.4,8-6.3,9.8c-2.9,1.3-6.3,1.3-9.3,1.3H595l13.7,18.3h3.3l-12.5-16.5
				L601.3,458z"/>
		</g>
		<g>
			<path class="st2" d="M621.7,432v42.6h2.6V432H621.7z"/>
		</g>
		<g>
			<path class="st2" d="M631.1,432v2.2h10.2v40.4h2.6v-40.4h10.1V432H631.1z"/>
		</g>
	</g>
</g>
</svg>
