<svg id="Layer_1" data-name="Layer 1" xmlns="http://www.w3.org/2000/svg" viewBox="0 0 600 600"><defs><style>.cls-1{fill:#fff;}.cls-2{fill:none;}</style></defs><title>uc</title><path class="cls-1" d="M266.94,410.09a10,10,0,0,1,.07,4.39c-1.73,9.21-5,17.9-8.66,26.48-.11.26-.21.52-.31.79H216.93a133.09,133.09,0,0,0,12-12.86c5.2-6.71,9.62-13.89,11.47-22.35.29-1.38.64-2.74.88-4.13a2.26,2.26,0,0,1,1.72-2c.68-.2,1.34-.44,2-.66,6.24-2,12.51-4,18.1-7.64a9.16,9.16,0,0,1,1.67-.59c.08,1.08.18,1.92.2,2.76A71.8,71.8,0,0,0,266.94,410.09Z"/><path class="cls-1" d="M439.81,437.07l-24.56.2c-5.78-4-11.54-8.08-17.37-12a87.44,87.44,0,0,1-13.67-11c-3.82-3.88-6.58-8.54-9.48-13.08-5.26-8.26-11.07-16.11-17.08-23.83a40.72,40.72,0,0,0-8.38-8.15c-.61-.43-1.15-.94-2-1.66,1.08-.53,1.82-.9,2.58-1.25,4-1.9,8.12-3.69,12.09-5.71a57.51,57.51,0,0,0,5.68-3.7,2.69,2.69,0,0,0,1.21-2.7c-22.61,10.8-46,18.74-69.73,25.85.11.63.19,1.13.29,1.71a13,13,0,0,0,1.51-.09c5.71-.89,11.46-1.61,16.95-3.59,3.82-1.37,7.67-2.68,11.51-4,1.24-.42,2.51-.76,3.93-1.19a13.34,13.34,0,0,1,0,1.58c-.29,2.17-.59,4.33-.92,6.5a44.57,44.57,0,0,0,3.24,25c1.6,3.64,3.31,7.25,5,10.87a68.72,68.72,0,0,0,11.78,17.71c1.3,1.42,2.34,3.23,4.7,3.23l-72.31,2.18a6.21,6.21,0,0,0-.2-3.15,115.68,115.68,0,0,0-8-15.38A43.42,43.42,0,0,1,270,404.45c-.62-3.94-1.33-7.86-2-11.79-.23-1.38-.56-2.75.56-4,.28-.31.15-1,.25-1.88-14.85,5.72-29.18,12-44.33,15.91a7.16,7.16,0,0,0-1.09.41,3.23,3.23,0,0,0-.52.31c.79,2.14,1.52,2.27,3.27,1.81,3.1-.82,6.21-1.57,9.32-2.36l2.55-.66c-.23,1.13-.36,2-.57,2.75-2.55,9.39-7.42,17.54-13.51,25-3.07,3.75-6.38,7.3-9.57,11a4.47,4.47,0,0,0-.45.76l.07.08H160.19c.68-.56,1.05-.81,1.35-1.12a91.79,91.79,0,0,0,19.21-30.35c5.79-14.53,10.34-29.52,16.48-43.93a16.35,16.35,0,0,0,1-5.48c.14-2.65-.08-5.32-.12-8-.11-7.11-.27-14.22-.26-21.33a14.28,14.28,0,0,1,.91-5.28c4.44-10.69,10.1-20.62,18.28-29,6.42-6.57,13.67-11.63,22.64-14,2.79-.75,5.51-1.75,8.29-2.57a74.45,74.45,0,0,0,24-12c3.87-2.92,7.74-5.85,11.46-9a74,74,0,0,1,13.13-9,14.42,14.42,0,0,0,5.59-5.23c.88-1.39,1.71-2.81,2.6-4.19a15.75,15.75,0,0,1,1.22-1.47c.32,1.44.56,2.48.79,3.53,1.94,8.74,6.14,15.84,14.41,20a3.94,3.94,0,0,0,.58.16c.22-.39.4-.72.64-1.18-.86-.84-1.78-1.69-2.64-2.58a65.14,65.14,0,0,1-4.49-4.77c-4.49-5.72-6.23-12.53-7.45-19.52a4.12,4.12,0,0,1,0-1.4c.22-1.23.61-2.44.74-3.67s0-2.58,0-4.45l12.91,10.18c1.38-1.66.71-2.48-.27-3.36-4.25-3.81-8.5-7.63-12.69-11.51-6.72-6.23-10.93-14.06-13.74-22.62-1.66-5-3.91-9.53-8-13a9.73,9.73,0,0,1-3.54-8.09c0-1.24,0-2.48,0-3.73l.45-5c.72-1.28,1.41-2.59,2.18-3.84a44.29,44.29,0,0,1,2.49-3.7c2.74-3.62,6.19-3.91,9.91-1.3,5.32,3.73,11,6.61,17.86,5.74A12.35,12.35,0,0,1,325,168c3.38,2.39,6.69,4.88,10.09,7.25,2,1.42,4.21,2.68,6.34,4a2.69,2.69,0,0,0,1.5.58c2.53-.29,5.16.29,7.6-1a7.09,7.09,0,0,1,4.6-.27,2.91,2.91,0,0,1,2.58,2.35c1.47,5.93,2.22,11.84-.16,17.74-.27.68-.41,1.41-.61,2.11l5.55-4a11.11,11.11,0,0,0-.29,2.66,13.16,13.16,0,0,0,.94,3.61,44.39,44.39,0,0,0,6.26,10.7c2.09,2.53,4,5.17,6.07,7.76a88,88,0,0,1,13.35,23.6c3,8.11,6.39,16,11.47,23l.13.2a14.76,14.76,0,0,1,2.06,9.22c-.54,3.87-.92,7.77-1.66,11.6-1.42,7.32-3.93,14.32-6.39,21.33-.92,2.66-1.68,5.37-2.48,8.07a6.56,6.56,0,0,0-.1,1.41l.44.15,4.44-6.7a5,5,0,0,1,.06,1c-1,4.68-.1,9.05,1.47,13.53a219.16,219.16,0,0,1,7.44,24.68q3.46,15.45,7.43,30.77A127.81,127.81,0,0,0,421,406.57a182.13,182.13,0,0,0,13.2,23c1.52,2.26,3.4,4.28,5.13,6.4C439.4,436,439.63,437,439.81,437.07Z"/><line class="cls-2" x1="283.7" y1="168.81" x2="283.25" y2="173.82"/><line class="cls-2" x1="362.5" y1="196.84" x2="356.95" y2="200.83"/></svg>