<?xml version="1.0" encoding="utf-8"?>
<!-- Generator: Adobe Illustrator 22.0.1, SVG Export Plug-In . SVG Version: 6.00 Build 0)  -->
<svg version="1.1" id="Layer_1" xmlns="http://www.w3.org/2000/svg" xmlns:xlink="http://www.w3.org/1999/xlink" x="0px" y="0px"
	 viewBox="0 0 600 600" style="enable-background:new 0 0 600 600;" xml:space="preserve">
<style type="text/css">
	.st0{fill:#FFFFFF;}
	.st1{fill:none;}
</style>
<title>uc</title>
<path class="st0" d="M266.9,410.1c0.3,1.4,0.4,2.9,0.1,4.4c-1.7,9.2-5,17.9-8.7,26.5c-0.1,0.3-0.2,0.5-0.3,0.8h-41.1
	c4.3-4,8.3-8.3,12-12.9c5.2-6.7,9.6-13.9,11.5-22.4c0.3-1.4,0.6-2.7,0.9-4.1c0.1-1,0.8-1.8,1.7-2c0.7-0.2,1.3-0.4,2-0.7
	c6.2-2,12.5-4,18.1-7.6c0.5-0.3,1.1-0.4,1.7-0.6c0.1,1.1,0.2,1.9,0.2,2.8C265,399.6,265.7,404.9,266.9,410.1z"/>
<path d="M439.8,437.1l-24.6,0.2c-5.8-4-11.5-8.1-17.4-12c-4.9-3.2-9.5-6.9-13.7-11c-3.8-3.9-6.6-8.5-9.5-13.1
	c-5.3-8.3-11.1-16.1-17.1-23.8c-2.4-3.1-5.2-5.9-8.4-8.1c-0.6-0.4-1.1-0.9-2-1.7c1.1-0.5,1.8-0.9,2.6-1.3c4-1.9,8.1-3.7,12.1-5.7
	c2-1.1,3.9-2.4,5.7-3.7c0.9-0.6,1.4-1.6,1.2-2.7c-22.6,10.8-46,18.7-69.7,25.9c0.1,0.6,0.2,1.1,0.3,1.7c0.5,0,1,0,1.5-0.1
	c5.7-0.9,11.5-1.6,17-3.6c3.8-1.4,7.7-2.7,11.5-4c1.2-0.4,2.5-0.8,3.9-1.2c0,0.5,0,1.1,0,1.6c-0.3,2.2-0.6,4.3-0.9,6.5
	c-1.3,8.5-0.2,17.2,3.2,25c1.6,3.6,3.3,7.3,5,10.9c3,6.5,7,12.5,11.8,17.7c1.3,1.4,2.3,3.2,4.7,3.2l-72.3,2.2c0.2-1,0.1-2.1-0.2-3.1
	c-2.3-5.3-5-10.5-8-15.4c-3.4-5.1-5.6-10.9-6.6-17c-0.6-3.9-1.3-7.9-2-11.8c-0.2-1.4-0.6-2.8,0.6-4c0.3-0.3,0.1-1,0.3-1.9
	c-14.9,5.7-29.2,12-44.3,15.9c-0.4,0.1-0.7,0.2-1.1,0.4c-0.2,0.1-0.4,0.2-0.5,0.3c0.8,2.1,1.5,2.3,3.3,1.8c3.1-0.8,6.2-1.6,9.3-2.4
	l2.6-0.7c-0.2,1.1-0.4,2-0.6,2.8c-2.6,9.4-7.4,17.5-13.5,25c-3.1,3.8-6.4,7.3-9.6,11c-0.2,0.2-0.3,0.5-0.4,0.8l0.1,0.1h-53.8
	c0.7-0.6,1.1-0.8,1.4-1.1c8.3-8.8,14.9-19.1,19.2-30.4c5.8-14.5,10.3-29.5,16.5-43.9c0.6-1.8,1-3.6,1-5.5c0.1-2.6-0.1-5.3-0.1-8
	c-0.1-7.1-0.3-14.2-0.3-21.3c0-1.8,0.3-3.6,0.9-5.3c4.4-10.7,10.1-20.6,18.3-29c6.4-6.6,13.7-11.6,22.6-14c2.8-0.8,5.5-1.8,8.3-2.6
	c8.7-2.5,16.8-6.6,24-12c3.9-2.9,7.7-5.9,11.5-9c4-3.5,8.4-6.5,13.1-9c2.3-1.2,4.2-3,5.6-5.2c0.9-1.4,1.7-2.8,2.6-4.2
	c0.4-0.5,0.8-1,1.2-1.5c0.3,1.4,0.6,2.5,0.8,3.5c1.9,8.7,6.1,15.8,14.4,20c0.2,0.1,0.4,0.1,0.6,0.2c0.2-0.4,0.4-0.7,0.6-1.2
	c-0.9-0.8-1.8-1.7-2.6-2.6c-1.6-1.5-3.1-3.1-4.5-4.8c-4.5-5.7-6.2-12.5-7.5-19.5c-0.1-0.5-0.1-0.9,0-1.4c0.2-1.2,0.6-2.4,0.7-3.7
	s0-2.6,0-4.4l12.9,10.2c1.4-1.7,0.7-2.5-0.3-3.4c-4.3-3.8-8.5-7.6-12.7-11.5c-6.7-6.2-10.9-14.1-13.7-22.6c-1.7-5-3.9-9.5-8-13
	c-2.4-2-3.7-5-3.5-8.1c0-1.2,0-2.5,0-3.7l0.5-5c0.7-1.3,1.4-2.6,2.2-3.8c0.8-1.3,1.6-2.5,2.5-3.7c2.7-3.6,6.2-3.9,9.9-1.3
	c5.3,3.7,11,6.6,17.9,5.7c3.1-0.4,6.3,0.4,8.9,2.3c3.4,2.4,6.7,4.9,10.1,7.3c2,1.4,4.2,2.7,6.3,4c0.4,0.3,1,0.5,1.5,0.6
	c2.5-0.3,5.2,0.3,7.6-1c1.5-0.6,3.1-0.7,4.6-0.3c1.3,0.1,2.3,1.1,2.6,2.4c1.5,5.9,2.2,11.8-0.2,17.7c-0.3,0.7-0.4,1.4-0.6,2.1l5.5-4
	c-0.2,0.9-0.3,1.8-0.3,2.7c0.1,1.2,0.5,2.5,0.9,3.6c1.6,3.8,3.7,7.4,6.3,10.7c2.1,2.5,4,5.2,6.1,7.8c5.6,7.1,10.1,15.1,13.4,23.6
	c3,8.1,6.4,16,11.5,23l0.1,0.2c1.7,2.8,2.4,6,2.1,9.2c-0.5,3.9-0.9,7.8-1.7,11.6c-1.4,7.3-3.9,14.3-6.4,21.3
	c-0.9,2.7-1.7,5.4-2.5,8.1c-0.1,0.5-0.1,0.9-0.1,1.4l0.4,0.1l4.4-6.7c0.1,0.3,0.1,0.7,0.1,1c-1,4.7-0.1,9,1.5,13.5
	c3,8.1,5.4,16.3,7.4,24.7c2.3,10.3,4.8,20.6,7.4,30.8c1.9,8,4.5,15.8,7.9,23.2c3.8,8,8.2,15.7,13.2,23c1.5,2.3,3.4,4.3,5.1,6.4
	C439.4,436,439.6,437,439.8,437.1z"/>
<line class="st1" x1="283.7" y1="168.8" x2="283.3" y2="173.8"/>
<line class="st1" x1="362.5" y1="196.8" x2="357" y2="200.8"/>
</svg>
