<?xml version="1.0" encoding="utf-8"?>
<!-- Generator: Adobe Illustrator 22.0.1, SVG Export Plug-In . SVG Version: 6.00 Build 0)  -->
<svg version="1.1" id="Layer_1" xmlns="http://www.w3.org/2000/svg" xmlns:xlink="http://www.w3.org/1999/xlink" x="0px" y="0px"
	 viewBox="0 0 805 805" style="enable-background:new 0 0 805 805;" xml:space="preserve">
<style type="text/css">
	.st0{fill:#042742;}
	.st1{fill:#4156A6;}
	.st2{fill:#2474AE;}
	.st3{fill:#FFFFFF;}
	.st4{fill:#13263D;}
	.st5{fill:#FCFDFD;}
	.st6{fill:#FEC324;}
	.st7{fill:#FE8024;}
	.st8{fill:#132249;}
	.st9{fill:#C60000;}
	.st10{fill:#8187BC;}
	.st11{fill:#8186BB;}
	.st12{fill:#F5F5F5;}
	.st13{fill:#F8E391;}
	.st14{fill:#4BBCFB;}
	.st15{fill:#FB7DDE;}
	.st16{fill:#F8E392;}
	.st17{fill:#D7D793;}
	.st18{fill:#F4F5F4;}
	.st19{fill:#D971E1;}
	.st20{fill:#FBCA90;}
	.st21{fill:#EDD7B1;}
	.st22{fill:#8D8873;}
	.st23{fill:#F59ABC;}
	.st24{fill:#0C74C1;}
</style>
<rect class="st0" width="805" height="805"/>
<path class="st24" d="M424,311c-4.2-3.3-8.3-6.5-12.8-10.1c0,1.9,0.1,3.2,0,4.4c-0.1,1.2-0.5,2.4-0.7,3.7c-0.1,0.4,0,0.9,0,1.4
	c1.2,6.9,2.9,13.7,7.4,19.4c1.3,1.7,2.9,3.2,4.5,4.7c0.9,0.9,1.8,1.7,2.6,2.6c-0.2,0.5-0.4,0.8-0.6,1.2c-0.2,0-0.4-0.1-0.6-0.2
	c-8.2-4.1-12.4-11.2-14.3-19.9c-0.2-1-0.5-2.1-0.8-3.5c-0.6,0.7-1,1-1.2,1.5c-0.9,1.4-1.7,2.8-2.6,4.2c-1.4,2.2-3.2,4-5.6,5.2
	c-4.7,2.5-9,5.5-13,8.9c-3.7,3.1-7.5,6-11.4,8.9c-7.2,5.4-15.2,9.4-23.8,12c-2.8,0.8-5.5,1.8-8.2,2.6c-8.9,2.4-16.1,7.4-22.5,14
	c-8.1,8.3-13.8,18.2-18.2,28.8c-0.7,1.6-0.9,3.5-0.9,5.2c0,7.1,0.2,14.1,0.3,21.2c0,2.6,0.3,5.3,0.1,7.9c-0.1,1.8-0.3,3.8-1,5.5
	c-6.1,14.3-10.6,29.2-16.4,43.7c-4.5,11.2-10.6,21.4-19.1,30.2c-0.3,0.3-0.7,0.6-1.3,1.1c0.1-1,0.1-1.6,0.2-2.3
	c-0.4,0.3-0.8,0.6-1.2,0.9c0-0.2-0.1-0.4-0.1-0.5c1-1.5,2-3.2,3.2-4.6c3.4-4,6.2-8.4,8.8-12.9c5.1-8.9,8.5-18.5,12-28
	c2.8-7.6,5.5-15.2,8.3-22.8c0.3-0.7,0.4-1.6,0.9-2.2c2.8-3.9,2.7-8.3,2.4-12.8c-0.6-8.8-0.5-17.6,0.3-26.3c0.2-2.2,0.7-4.5,1.6-6.5
	c5.3-12.8,13.1-23.9,23.6-33.1c4.1-3.6,8.7-6.3,13.8-8c3.8-1.3,7.7-2.5,11.6-3.7c9.8-2.8,18.6-7.4,26.7-13.6
	c3.4-2.6,6.8-5.2,10.1-7.9c3.7-3.1,7.6-5.7,12-7.6c3.3-1.4,5.8-3.5,7.2-6.9c0.3-0.6,0.7-1.2,1.1-1.8c1.4-2.1,2.7-4.2,2.5-6.8
	c-0.1-0.7,0.3-1.5,0.5-2.3c0.8-2.2,0.3-4.3-0.1-6.4c-0.1-0.5-0.6-1.1-1.1-1.5c-3.3-2.9-5.8-6.5-7.8-10.4c-2.3-4.3-4.4-8.7-5.8-13.5
	c-1.1-3.9-3.1-7.1-6.2-9.7c-5.4-4.6-5.3-10.5-4.1-16.7c0.1-0.3,0.3-0.5,0.5-0.8c1.2-0.1,1.5,0.7,1.5,1.6c0,1.5,0,3,0,4.4
	c-0.1,3.2,1,5.9,3.5,8c4.1,3.4,6.3,7.9,8,12.9c2.8,8.5,7,16.3,13.7,22.5c4.2,3.9,8.4,7.7,12.6,11.4C424.7,308.5,425.4,309.3,424,311
	z"/>
<path class="st3" d="M395.4,281.8c1.3,2.1,1.1,2.6-0.9,3.5c-8.2,3.4-16.3,6.9-24.5,10.3c-26.3,11-52.6,22-78.9,33
	c-7.7,3.2-15.5,6.6-23.2,9.7c-2.1,0.8-2.7,2-2.7,4.2c0,23,0,46-0.1,69c0,14.5,0,28.9-0.1,43.4c-0.1,16.4-0.2,32.8-0.2,49.2
	c0,2.6-1,4.4-3.2,6.1c0-1-0.1-1.7-0.1-2.5c0.1-41.4,0.1-82.7,0.2-124.1c0-14.5,0.2-29.1,0.2-43.6c0-2.2,0.7-3.3,2.8-4.2
	c26.9-11.1,53.7-22.2,80.6-33.3c15.6-6.4,31.2-12.9,46.7-19.3C393.2,282.6,394.3,282.2,395.4,281.8z"/>
<path class="st24" d="M543.6,510.7c-0.6-0.9-1.2-1.8-1.7-2.8c-0.2,0.1-0.4,0.3-0.6,0.4c0.1,0.4,0.2,0.9,0.3,1.3
	c-0.2,0-0.4,0-0.5-0.1c-1.7-2.1-3.6-4.1-5.1-6.4c-4.9-7.3-9.3-14.9-13.1-22.8c-3.5-7.3-5.8-15.1-7.8-22.9
	c-2.6-10.2-5.1-20.4-7.4-30.6c-1.9-8.4-4.6-16.5-7.4-24.5c-1.6-4.4-2.5-8.8-1.5-13.4c0-0.2,0-0.5-0.1-1c-1.6,2.4-3,4.5-4.4,6.7
	c-0.1,0-0.3-0.1-0.4-0.1c0-0.5,0-1,0.1-1.4c0.8-2.7,1.5-5.4,2.5-8c2.4-7,4.9-13.9,6.3-21.2c0.7-3.8,1.1-7.7,1.6-11.5
	c0.5-3.3-0.5-6.3-2-9.2c0-0.1-0.1-0.1-0.1-0.2c-5-7-8.4-14.8-11.4-22.9c-3.1-8.5-7.7-16.3-13.3-23.5c-2-2.6-4-5.2-6-7.7
	c-2.7-3.2-4.6-6.9-6.2-10.6c-0.5-1.1-0.8-2.4-0.9-3.6c-0.1-0.9,0.2-1.8,0.3-2.6c0.2,0,0.3-0.1,0.5-0.1c0.3,0.4,0.7,0.7,0.9,1.1
	c2.4,4.9,5.4,9.4,8.9,13.6c2.4,2.8,4.6,5.7,6.9,8.5c5.3,6.7,9.5,14,12.7,21.9c0.6,1.5,1.3,3,1.8,4.5c2.1,5.8,4.8,11.3,8.2,16.4
	c2.1,3,2.8,6.3,2.7,9.9c-0.2,6.8-0.1,13.7-2,20.4c-0.9,3.1-2,6.2-2.8,9.4c-1.9,7.5-3,15.1,0.3,22.6c0.8,1.8,1.3,3.7,1.8,5.5
	c3,10.5,5.9,20.9,8.8,31.4c2.4,8.8,4.8,17.5,7.3,26.3c1.8,6.3,4.3,12.3,7.1,18.2c4.5,9.5,9.8,18.6,15.6,27.3
	c0.2,0.4,0.4,0.8,0.6,1.1C544,510.3,543.8,510.5,543.6,510.7z"/>
<path class="st3" d="M527.7,230.9c-21.5,9.1-42.4,18.1-63.3,27c-0.9-1.5-0.8-2.3,0.3-3c0.6-0.4,1.3-0.6,1.9-0.9
	c20.3-8.6,40.7-17.2,61-25.8c0.3-0.1,0.6-0.3,0.9-0.3c1.5-0.5,2-0.1,2.2,1.4c0.1,0.9,0,1.9,0,2.8c0,66.6,0,133.1,0,199.7
	c0,15.6,0,31.3,0,46.9c0,0.8,0,1.6,0,2.4c-2-2-2.8-4.1-2.8-6.7c0.1-35.7,0-71.4,0-107.1c0-44,0-88,0-132
	C527.9,233.9,527.8,232.7,527.7,230.9z"/>
<path class="st24" d="M402.1,455.7c-0.1-0.6-0.2-1.1-0.3-1.7c23.6-7.1,46.8-15,69.3-25.7c0.1,1.5-0.4,2.2-1.2,2.7
	c-1.9,1.3-3.7,2.7-5.6,3.7c-3.9,2-8,3.8-12,5.7c-0.7,0.4-1.5,0.7-2.6,1.2c0.9,0.7,1.4,1.2,2,1.7c3.2,2.3,5.9,5,8.3,8.1
	c6,7.7,11.7,15.5,17,23.7c2.9,4.5,5.6,9.1,9.4,13c4.1,4.2,8.8,7.7,13.6,11c6,4.1,11.9,8.2,17.8,12.3c0.4,0.3,0.7,0.6,1.4,1.2
	c-1-0.1-1.5-0.1-2.1-0.1c0.2,0.4,0.4,0.8,0.6,1.2c-0.2,0-0.4,0.1-0.5,0.1c-9.9-5.7-19.8-11.4-28.6-18.8c-4.4-3.7-8.2-8.1-11.2-13
	c-5.6-9-11.6-17.7-17.9-26.2c-3.1-4.2-6.6-8-10.7-11.3c-1.4-1.2-2.6-1.7-4.4-0.8c-1.4,0.7-3,1.2-4.6,1.7c-1.1,0.4-1.7,1-1.9,2.1
	c-1.9,10.6-1.6,21,2.6,31.1c4.8,11.4,10.8,22.1,18.2,31.9c0.2,0.3,0.5,0.6,0.7,1c-2.4,0.1-3.5-1.8-4.8-3.2
	c-4.8-5.3-8.7-11.1-11.7-17.6c-1.7-3.6-3.4-7.2-5-10.8c-3.5-8-4.5-16.3-3.2-24.9c0.3-2.2,0.6-4.3,0.9-6.5c0.1-0.4,0-0.9,0-1.6
	c-1.4,0.4-2.7,0.8-3.9,1.2c-3.8,1.3-7.6,2.6-11.4,4c-5.5,2-11.2,2.7-16.8,3.6C403.1,455.7,402.6,455.6,402.1,455.7z"/>
<path class="st3" d="M295.9,540.3c-1.5-0.6-2.4-1-3.4-1.4c-4.2-1.6-8.4-2.5-13-1.8c-8.2,1.4-14.2,8-14.5,16.1
	c-0.3,8,5.1,15.1,13.1,17c5.3,1.3,10.3,0.6,15.2-1.8c0.7-0.3,1.4-0.6,2.4-1.1c0.4,2.2,0.3,4.3,0.1,6.3c-0.1,0.5-0.9,1-1.5,1.3
	c-3.3,1.5-6.8,2.2-10.4,2.3c-6.3,0.2-12-1.5-16.8-5.6c-6.9-5.8-9.9-13.1-8.3-22c1.6-8.7,7-14.4,15.1-17.6c7-2.7,14-1.7,20.9,0.8
	c0.7,0.3,1.2,0.7,1.2,1.5C295.9,536.3,295.9,538.1,295.9,540.3z"/>
<path class="st24" d="M246.1,532.3c2,0,3.6,0,5.5,0c0.1,0.9,0.2,1.7,0.2,2.5c0,8.2,0.1,16.5,0,24.7c0,2.3-0.3,4.7-1,6.9
	c-2.1,6.3-6.6,9.9-13.2,10.5c-2.2,0.2-4.6,0.2-6.7-0.3c-6.8-1.5-10.7-6-12.1-12.7c-0.3-1.6-0.5-3.2-0.5-4.9c-0.1-8.2,0-16.5,0-24.7
	c0-0.6,0.1-1.2,0.2-2c1.8,0,3.6,0,5.5,0c0.1,1,0.1,1.9,0.1,2.8c0,7.9-0.1,15.7,0.1,23.6c0,2.1,0.3,4.2,0.9,6.2
	c1.1,3.4,3.5,5.6,7,6.1c2.1,0.3,4.4,0.3,6.4-0.1c3.9-0.8,6.2-3.4,7.1-7.2c0.4-1.5,0.5-3.1,0.5-4.6c0-7.9,0-15.9,0-23.8
	C246.1,534.4,246.1,533.4,246.1,532.3z"/>
<path class="st3" d="M583.4,545.4c-1.2,1.2-2.4,2.2-3.6,3.3c-0.8-0.6-1.4-1.1-2.1-1.6c-4.2-3.1-8.9-4.3-14.1-3.4
	c-6.8,1.3-11.5,6.9-11.5,13.8c0,6.7,4.8,12.4,11.4,13.7c3.3,0.6,6.5,0.5,9.7-0.5c3.9-1.3,6.3-4.1,7.6-8.3c-3.3,0-6.4-0.1-9.5-0.1
	c0-1.8,0-3.3,0-5c5.1,0,10.1,0,15.3,0c0.4,2.7,0.1,5.3-0.8,7.8c-2.7,7.1-9,11.6-16.6,11.8c-2.3,0-4.7,0-6.9-0.5
	c-8.8-1.6-15.2-9.3-15.7-18.4c-0.4-8.4,5.3-16.7,13.6-19c8.5-2.4,16.1-0.6,22.6,5.5C583,544.7,583.1,544.9,583.4,545.4z"/>
<path class="st3" d="M320.6,577.1c-10,0.1-17.5-7.2-19.5-14.3c-3-10.7,3.7-21.8,14.6-24.2c7.3-1.5,13.7,0,19.1,5.3
	c5.5,5.3,7,11.9,4.9,19c-2.1,7.1-7,11.5-14.2,13.5C324,576.8,322.3,576.9,320.6,577.1z M335.1,557c0-0.3-0.1-1.1-0.2-1.8
	c-1.1-6.3-6-10.8-12.8-11.7c-9.8-1.3-18.8,7.7-15.7,18c1.8,5.9,6.3,9.1,12.3,10C327.2,572.8,335.1,566.1,335.1,557z"/>
<path class="st24" d="M318.5,516.9c-0.6-0.7-1-1.1-1.4-1.6c0.1-0.2,0.3-0.5,0.5-0.8c3.2-3.6,6.5-7.2,9.5-10.9
	c6.1-7.4,10.9-15.5,13.4-24.8c0.2-0.8,0.3-1.6,0.6-2.7c-1.1,0.3-1.8,0.5-2.5,0.7c-3.1,0.8-6.2,1.5-9.3,2.3c-1.7,0.5-2.5,0.3-3.2-1.8
	c0.1-0.1,0.3-0.2,0.5-0.3c0.4-0.2,0.7-0.3,1.1-0.4c15.1-3.9,29.3-10.1,44.1-15.8c-0.1,0.9,0,1.6-0.2,1.9c-1.1,1.2-0.8,2.6-0.6,4
	c0.6,3.9,1.3,7.8,2,11.7c1,6.1,3.2,11.7,6.5,16.8c3.1,4.8,5.6,10.1,8,15.3c0.4,0.9,0.3,2,0.2,3.1c-5.8-7.6-11.5-15.3-16.2-24.3
	c-0.3,1.3-0.5,2.1-0.7,2.9c-1.8,8-4.4,15.7-8,23.1c-0.4,0.8-0.5,1.9-2.1,1.6c0.3-0.8,0.6-1.5,0.8-2.2c3.6-8.5,6.9-17.2,8.6-26.3
	c0.3-1.5,0.3-2.9-0.1-4.4c-1.3-5.1-1.9-10.4-2-15.7c0-0.8-0.1-1.7-0.2-2.7c-0.7,0.3-1.3,0.3-1.7,0.6c-5.6,3.6-11.8,5.6-18,7.6
	c-0.7,0.2-1.3,0.5-2,0.7c-1,0.3-1.5,0.9-1.7,2c-0.2,1.4-0.6,2.7-0.9,4.1c-1.8,8.4-6.2,15.5-11.4,22.2
	C328.1,507.7,323.4,512.1,318.5,516.9z"/>
<path class="st3" d="M373.4,539.4c1.9,0,3.5,0,5.1,0c0,12.6,0,25,0,37.5c-0.1,0.1-0.3,0.2-0.4,0.2c-8.6-8.7-17.1-17.4-25.7-26.1
	c-0.2,0.1-0.4,0.1-0.6,0.2c-0.1,8.1,0,16.2-0.1,24.5c-1.7,0-3.2,0-4.7,0c-0.5-1.6-0.7-34-0.1-37.1c2.1,1.5,3.6,3.4,5.3,5.1
	c1.8,1.7,3.5,3.5,5.2,5.3c1.7,1.7,3.4,3.4,5.1,5.2c1.7,1.8,3.5,3.6,5.2,5.3c1.7,1.7,3.6,3.4,5.6,5.3
	C373.4,556.3,373.4,547.9,373.4,539.4z"/>
<path class="st3" d="M540.7,577.4c-8.8-9-17.4-17.7-26-26.4c-0.8,0.9-0.5,1.8-0.5,2.5c0,6.4,0,12.9,0,19.3c0,0.9-0.1,1.8-0.1,2.9
	c-1.7,0-3.2,0-4.9,0c0-12.4,0-24.7,0-36.9c0.1-0.1,0.3-0.2,0.4-0.2c8.6,8.7,17.1,17.4,26.1,26.6c0-2.5,0.1-4.6,0.1-6.6
	c0-2.2,0-4.3,0-6.5c0-2.1,0-4.2,0-6.3c0-2.1,0-4.1,0-6.4c1.8,0,3.3,0,4.8,0C541.1,541.1,541.3,573.4,540.7,577.4z"/>
<path class="st3" d="M438.1,539.3c1.8,0,3.3,0,5,0c0.1,0.9,0.2,1.7,0.2,2.6c0,6.4,0.1,12.9,0,19.3c0,2.2-0.2,4.4-0.8,6.4
	c-1.5,5.5-6.4,9.1-12.1,9.3c-1.5,0-3,0-4.4-0.2c-6.7-1.3-10.8-6.3-11-13.9c-0.2-7.4-0.1-14.8-0.1-22.1c0-0.4,0.1-0.7,0.2-1.3
	c1.6,0,3.2,0,5,0c0,1,0,1.9,0,2.7c0,6.4,0,12.7,0,19.1c0,1.7,0.2,3.4,0.7,5c1.1,3.3,3.5,5.2,7,5.5c0.9,0.1,1.9,0.1,2.8,0
	c3.8-0.3,6.5-2.8,7.1-6.5c0.2-1.3,0.3-2.6,0.3-3.9c0-6.4,0-12.7,0-19.1C438.1,541.3,438.1,540.4,438.1,539.3z"/>
<path class="st3" d="M408.3,543.4c-1.5,1.2-2.7,2.2-4.1,3.3c-0.7-0.6-1.3-1.1-1.9-1.5c-2.5-2-5.3-2.2-8.1-1
	c-3.1,1.3-3.6,4.6-0.9,6.7c1.3,1,2.8,1.6,4.2,2.4c2.1,1.1,4.2,2,6.2,3.3c3.4,2.3,5.4,5.5,5.3,9.8c-0.1,5.3-4.2,10-9.5,10.7
	c-6.5,0.9-12.5-2.7-14.9-8.8c-0.1-0.3-0.2-0.7-0.3-1.3c1.6-0.5,3.1-0.9,4.7-1.4c0.7,1.1,1.3,2.1,2,3c2.1,2.7,5.4,3.8,8.5,2.9
	c3.8-1.2,5.2-5,3.1-8.4c-1-1.5-2.3-2.5-3.9-3.3c-2-0.9-4-1.8-5.9-2.7c-2.1-1-3.9-2.5-5.2-4.5c-2.4-3.6-1.9-8.1,1.1-11.1
	c2.1-2.1,4.7-3.3,7.7-3.3C401.1,538.1,405,539.5,408.3,543.4z"/>
<path class="st24" d="M386,244.1c0-0.7-0.2-1.5-0.1-2.2c0.8-3.5,2.5-6.5,5.2-8.9c2.8-2.5,7.1-2.7,10.3-0.7c2.5,1.6,5.1,2.9,7.8,4.1
	c2.7,1.3,5.6,1.8,8.6,1.4c4.5-0.6,8.4,0.7,12,3.4c5,3.8,10,7.6,15,11.3c1.1-0.2,2.3-0.4,3.4-0.6c1.4-0.3,3-0.2,4.3-0.8
	c3.4-1.6,9.6,1.2,10.1,5.3c0.3,2.5,0.9,4.9,1.2,7.3c0.3,2,0,4-0.8,5.9c-1,2.3-1.8,4.6-3.8,6.4c0.2-0.7,0.3-1.4,0.6-2.1
	c2.4-5.9,1.6-11.7,0.2-17.6c-0.3-1.4-1.2-2.1-2.6-2.3c-1.6-0.3-3.1-0.5-4.6,0.3c-2.4,1.2-5,0.7-7.6,1c-0.5,0.1-1-0.3-1.5-0.6
	c-2.1-1.3-4.3-2.6-6.3-4c-3.4-2.3-6.7-4.8-10-7.2c-2.6-1.9-5.6-2.7-8.8-2.3c-6.8,0.9-12.5-2-17.7-5.7c-3.7-2.6-7.1-2.3-9.9,1.3
	c-0.9,1.2-1.7,2.4-2.5,3.7c-0.8,1.2-1.4,2.5-2.2,3.8C386.3,244.1,386.1,244.1,386,244.1z"/>
<path class="st3" d="M468.9,544.3c0-1.8,0-3.2,0-4.6c1.7-0.6,19.5-0.8,22.1-0.1c0,1.5,0,3,0,4.8c-2.8,0-5.5,0-8.4,0
	c0,10.6,0,20.9,0,31.2c-1.8,0.7-3.4,0.5-5.2,0.2c0-10.4,0-20.7,0-31.2c-1.6,0-3-0.1-4.3-0.1C471.8,544.3,470.5,544.3,468.9,544.3z"
	/>
<path class="st3" d="M451.1,575.7c0-12.2,0-24.2,0-36.4c1.6,0,3.1,0,4.9,0c0.4,2.6,0.1,5.3,0.2,7.9c0,2.6,0,5.1,0,7.7
	c0,2.6,0,5.3,0,7.9c0,2.5,0,5.1,0,7.8c4,0,7.6,0,11.4,0c0.6,1.8,0.4,3.3,0.1,5.1C462.2,575.7,456.8,575.7,451.1,575.7z"/>
<path class="st3" d="M501.1,575.8c-1.4,0-2.8,0-4.2,0c-0.5-1.7-0.7-32.5-0.2-36.2c1.4-0.6,2.9-0.3,4.4-0.2
	C501.6,541.2,501.6,573.5,501.1,575.8z"/>
<path class="st3" d="M463.5,511.3c1.2,0,2,0,2.8,0c12.5,0,25,0,37.5-0.1c2.9,0,5.3,0.8,7.6,2.9c-0.8,0.1-1.4,0.1-2.1,0.1
	c-13.5,0-27,0-40.5,0.1C466.5,514.4,464.9,513.6,463.5,511.3z"/>
<path class="st3" d="M386.1,515.6c-7.4,0.1-14.4,0.1-21.6,0.1c0.5-2.6,0.6-2.8,2.7-2.8c4.9-0.1,9.8-0.1,14.7-0.3
	C384,512.5,385.1,513.7,386.1,515.6z"/>
</svg>
