<?xml version="1.0" encoding="utf-8"?>
<!-- Generator: Adobe Illustrator 22.0.1, SVG Export Plug-In . SVG Version: 6.00 Build 0)  -->
<svg version="1.1" id="Layer_1" xmlns="http://www.w3.org/2000/svg" xmlns:xlink="http://www.w3.org/1999/xlink" x="0px" y="0px"
	 viewBox="0 0 805 789.6" style="enable-background:new 0 0 805 789.6;" xml:space="preserve">
<style type="text/css">
	.st0{fill:#4156A6;}
	.st1{fill:#2474AE;}
	.st2{fill:#FFFFFF;}
	.st3{fill:#13263D;}
	.st4{fill:#C60000;}
	.st5{fill:#FCFDFD;}
	.st6{fill:#FEC324;}
	.st7{fill:#FE8024;}
	.st8{fill:#132249;}
</style>
<rect x="0" y="0" class="st1" width="805" height="789.6"/>
<g>
	<path class="st2" d="M611.8,453.7c-4.6,1.9-8.8,5-13.1,7.6c-3.8,2.2-7.5,4.7-11.5,6.3c-3.3,1.4-5.9-0.8-5.7-4.4
		c0.2-3.1,0.6-6.3,1.6-9.2c3.9-10.7,8.2-21.2,12.3-31.8c3.4-8.8,7.1-17.5,9.8-26.5c2.9-9.6-2.5-16-12.3-14.9
		c-9.1,1-16.2,5.6-20.5,14c-0.5,0.9-0.9,1.8-1.6,3.2c-0.9-1.4-1.6-2.3-2.2-3.3c-4.2-6-9.3-11-16.7-12.8c-9.2-2.3-17.5,0.2-25.3,5
		c-10.6,6.6-18.5,15.7-24.7,26.4c-5.9,10-9.9,20.8-10.5,32.4c-0.2,3.9-1.1,6.8-4.2,9c-0.8,0.6-1.4,1.3-2.2,2
		c-5.4,4.5-10.8,8.8-17.7,10.9c-8.5,2.6-13.4-1-13.7-9.9c0-0.3,0-0.6,0-0.9c-0.3-9.1,2-17.7,4.4-26.3c0.5-1.9,1.7-3.7,3-5.2
		c9.5-11.3,19.5-22.1,28.6-33.7c12.8-16.3,24.4-33.6,32.5-52.8c4.5-10.6,7.9-21.5,6.4-33.4c-1.2-9.2-6.6-15.6-15.6-17.2
		c-10.5-1.8-20.3,0.2-29.1,6.3c-9.8,6.7-16.1,16.2-21,26.8c-18.6,40.4-31.4,82.8-40.7,126.2c-0.3,1.5-0.8,3.3-1.8,4.1
		c-9.7,7.5-20.3,13.5-32.2,16.6c-8.2,2.1-15.2-1.8-17.8-9.6c-1.3-3.7-2-7.9-1.9-11.8c0.5-13.7,5.5-26,13-37.3c3-4.6,7.4-7.5,13-8.5
		c6.2-1,11.6,3.7,9.8,9.1c-0.5-0.3-0.9-0.5-1.1-0.8c-3.6-3-7.5-3.9-11.7-1.7c-5,2.6-7,7.2-7.2,12.4c-0.2,4.7,2.7,7.8,6.9,9.8
		c6.7,3.1,15.1,1.8,20.7-3.1c4.7-4.2,6.7-9.5,7.5-15.5c1.5-11.9-3.2-23.6-16.5-27.7c-7.4-2.3-14.8-2.2-22-0.1
		c-26.7,7.8-41.3,26.4-46.8,53c-1.7,8.3-0.9,9.3-1.7,13.6c-1.6,9.4-9.2,15.7-19,18c-3.1,0.7-5.4-0.3-6.8-3.2c-0.7-1.4-1.1-3-1.3-4.5
		c-1.5-8.9,0.1-17.7,2.1-26.2c5.1-21.6,10.4-43.2,15.9-64.8c5.6-21.9,11.7-43.7,17.5-65.6c1.5-5.8-1.2-10.6-6.9-12.4
		c-1.9-0.6-4-0.9-6.1-1.1c-9.4-1-19.5,3-23.3,12.3c-0.9,2.3-1.6,4.6-2.2,7c-6.1,22.9-12.2,45.8-18.2,68.8
		c-4.2,15.9-7.8,31.9-12.2,47.8c-3,11-7,21.7-13.7,31.1c-2.2,3.1-5.1,6.1-8.3,8.1c-6.3,4-13.9,0.6-15.6-6.6
		c-0.7-2.7-1.1-5.7-0.8-8.4c1-7.4,1.9-14.8,3.8-22c6.6-24.7,13.6-49.3,20.5-73.9c3.1-11.1,5.4-22.4,3.2-34
		c-1.7-8.8-5.3-16.7-12.5-22.4c-7.2-5.7-15.5-7.6-24.6-6.5c-8.8,1.1-17.3,3.2-24.3,8.8c-9.9,7.8-14.1,18.6-14.6,30.9
		c-0.2,4.2,0.6,8.4,3.3,12c2.4,3.1,5.5,3.7,9,2.8c3.1-0.7,4.3-3.4,4.7-6.2c0.4-2.9,0.5-5.9,0.7-8.8c0.4-5.3,1.7-10.3,5.9-14
		c3-2.7,6.5-3.6,10.4-2.2c4.2,1.4,6.6,4.4,7.2,8.8c0.9,7.3-0.1,14.5-2,21.5c-4.6,16.7-9.9,33.3-14.2,50c-5.2,20-11.6,39.7-12.4,60.6
		c-0.3,8.1,0.7,16.1,4.3,23.5c6.6,13.4,21,18.6,36.3,15.7c13.3-2.5,23.6-9.4,29.8-21.7c0.6-1.3,1.5-2.4,2.4-3.9
		c1.5,3.8,2.6,7.3,4.1,10.5c5.6,12,16.5,17.2,29.4,14.4c12.5-2.8,22.1-10.3,30.4-19.6c0.8-0.9,1.7-1.8,2.8-3
		c1.1,2.2,1.8,4.1,2.9,5.8c9.2,15.4,23.6,18.9,39.6,16.9c12.3-1.5,22.9-7.2,32.8-14.4c3.3-2.4,6.5-5.1,10-7.9
		c0.3,1.1,0.5,1.9,0.7,2.7c3.3,13.2,12.3,20.5,25.9,20.4c18-0.1,32.8-7.4,45.1-20.3c0.8-0.8,1.5-1.6,2.5-2.7
		c0.7,1.3,1.1,2.2,1.7,2.9c2.9,4.1,5.5,8.7,9,12.3c7.8,8,17.9,9.4,27.8,4.5c7-3.5,12.1-8.9,15.9-15.7c0.5-0.9,1.1-1.7,2-3.1
		c0.4,2.5,0.7,4.2,1,5.9c1.9,10.7,9.5,17.1,20.3,16.2c4.7-0.4,9.4-1.9,13.8-3.7c11.4-4.5,20.2-12.8,28.7-21.3
		c2.7-2.7,4.2-6.1,4.2-10.1C620.5,454.7,616.9,451.7,611.8,453.7z M474.1,381.6c6.2-20.2,13.6-39.9,24.2-58.2c2-3.5,4.8-6.6,7.4-9.8
		c0.9-1.1,2.3-1.8,3.7-2.3c2.5-0.9,4.7,0.2,4.5,2.8c-0.2,4-0.6,8.3-2,12c-5.9,15.8-14.6,30.2-23.9,44.1c-4,6-8.6,11.7-12.9,17.5
		c-0.7,1-1.3,2.2-1.9,3.3c-0.5-0.4-0.9-0.7-1.4-1.1C472.5,387.2,473.3,384.4,474.1,381.6z M560.6,420.6c-4.1,11.8-8.9,23.5-13.9,35
		c-1.6,3.7-4.8,6.9-7.8,9.8c-2.8,2.6-6.7,3.6-10.4,1.8c-3.9-1.8-4.8-5.4-4.9-9.4c0-0.8,0-1.6,0-2.4c1.4-16.9,5.7-32.8,17-46.1
		c2.3-2.7,5.2-5.2,8.3-7c5.4-3.2,11-0.9,12.1,5.3C561.7,411.9,561.9,416.7,560.6,420.6z"/>
</g>
</svg>
