<?xml version="1.0" encoding="utf-8"?>
<!-- Generator: Adobe Illustrator 22.0.1, SVG Export Plug-In . SVG Version: 6.00 Build 0)  -->
<svg version="1.1" id="Layer_1" xmlns="http://www.w3.org/2000/svg" xmlns:xlink="http://www.w3.org/1999/xlink" x="0px" y="0px"
	 viewBox="0 0 600 600" style="enable-background:new 0 0 600 600;" xml:space="preserve">
<title>vf</title>
<path d="M237.1,350.4v39.7c0,11-8.9,19.9-19.9,19.9c-11,0-19.9-8.9-19.9-19.9v-39.7c0-11,8.9-19.9,19.9-19.9
	C228.2,330.5,237.1,339.4,237.1,350.4L237.1,350.4z"/>
<path d="M292.3,319.9v70.3c-0.2,11-9.3,19.7-20.3,19.4c-10.6-0.2-19.2-8.8-19.4-19.4v-70.3c0.2-11,9.3-19.7,20.3-19.4
	C283.5,300.7,292,309.2,292.3,319.9z"/>
<path d="M347.5,319.9v10.9c-5.9,1.3-11.2,4.3-15.5,8.6c-12.5,12.6-12.5,32.9,0,45.4l13.6,13.6c-4.6,10-16.4,14.3-26.3,9.7
	c-7-3.2-11.5-10.3-11.6-18v-70.3c0.2-11,9.3-19.7,20.3-19.4C338.7,300.7,347.2,309.2,347.5,319.9L347.5,319.9z"/>
<path d="M402.6,209.9v154.7l-25.2-25.2c-4-4-9-6.9-14.5-8.4V209.9c0.2-11,9.3-19.7,20.3-19.4C393.8,190.7,402.4,199.2,402.6,209.9z"
	/>
<path d="M402.6,390.1c0,0.7,0,1.3-0.1,2c0,0.3-0.1,0.7-0.1,1c0,0.3-0.1,0.7-0.2,1c-0.2,0.8-0.4,1.7-0.7,2.5
	c-0.1,0.4-0.3,0.8-0.5,1.2s-0.3,0.6-0.4,0.9c-2.3,4.7-6.2,8.3-11.1,10c-0.3,0.1-0.6,0.2-0.9,0.3c-0.9,0.3-1.9,0.5-2.9,0.7
	c-0.3,0-0.7,0.1-1,0.1L384,410c-0.4,0-0.8,0-1.1,0c-1.4,0-2.8-0.1-4.2-0.4l-0.8-0.2c-0.3-0.1-0.6-0.2-0.9-0.3
	c-0.3-0.1-0.6-0.2-0.9-0.3s-0.5-0.2-0.8-0.3l-0.3-0.1l-0.3-0.1c-0.1,0-0.2-0.1-0.2-0.1c-0.3-0.1-0.5-0.3-0.8-0.4c0,0-0.1,0-0.1,0
	c-0.2-0.1-0.4-0.3-0.7-0.4l0,0c-0.4-0.2-0.7-0.5-1.1-0.7s-0.6-0.4-0.9-0.6l-0.3-0.3c-0.3-0.2-0.5-0.4-0.7-0.6
	c-0.1,0-0.1-0.1-0.2-0.1c0,0-0.1-0.1-0.1-0.1c-0.1-0.1-0.2-0.2-0.3-0.3c-0.1-0.1-0.2-0.2-0.3-0.3L347.5,383l-6.8-6.8
	c-7.7-7.8-7.7-20.3,0-28.1c1.9-1.9,4.1-3.3,6.6-4.3l0.2-0.1c5-1.9,10.6-1.8,15.5,0.4c2.2,1,4.2,2.3,5.8,4l28.1,28.1
	C400.6,379.9,402.7,384.9,402.6,390.1z"/>
</svg>
