<svg id="Layer_1" data-name="Layer 1" xmlns="http://www.w3.org/2000/svg" viewBox="0 0 600 600"><defs><style>.cls-1{fill:#fff;}</style></defs><title>vf</title><path class="cls-1" d="M237.1,350.41v39.73a19.87,19.87,0,0,1-39.74,0V350.41a19.87,19.87,0,0,1,39.74,0Z"/><path class="cls-1" d="M292.28,319.86v70.28a19.87,19.87,0,0,1-39.73,0V319.86a19.87,19.87,0,0,1,39.73,0Z"/><path class="cls-1" d="M347.46,319.86v10.93A31.65,31.65,0,0,0,332,339.35a32.16,32.16,0,0,0,0,45.44l13.63,13.65a19.86,19.86,0,0,1-37.9-8.29V319.86a19.87,19.87,0,0,1,39.73,0Z"/><path class="cls-1" d="M402.64,209.85V364.57l-25.2-25.22A32.09,32.09,0,0,0,362.91,331V209.85a19.87,19.87,0,0,1,39.73,0Z"/><path class="cls-1" d="M402.64,390.15a17.09,17.09,0,0,1-.11,2c0,.34-.07.66-.13,1a8.26,8.26,0,0,1-.18,1,16.85,16.85,0,0,1-.67,2.48c-.15.39-.29.8-.46,1.19s-.27.63-.42.94a20.06,20.06,0,0,1-11.08,10.05c-.31.11-.62.22-.92.3a18.81,18.81,0,0,1-2.88.67c-.32.05-.66.1-1,.13L384,410c-.39,0-.77,0-1.15,0a20.3,20.3,0,0,1-4.17-.44l-.82-.19a7.75,7.75,0,0,1-.94-.27c-.32-.1-.63-.2-.94-.32s-.54-.2-.82-.32l-.32-.15-.25-.1a1.27,1.27,0,0,1-.23-.12c-.25-.11-.52-.25-.77-.38a.12.12,0,0,1-.09,0c-.22-.14-.44-.25-.66-.38,0,0,0,0,0,0-.38-.22-.74-.45-1.11-.7s-.59-.4-.87-.62l-.33-.26c-.25-.19-.5-.4-.74-.61a1,1,0,0,1-.16-.14.93.93,0,0,0-.15-.13,3.08,3.08,0,0,0-.33-.3c-.12-.09-.22-.2-.34-.31l-21.28-21.29-6.79-6.79a19.92,19.92,0,0,1,0-28.1,19.47,19.47,0,0,1,6.56-4.33l.23-.09a20.11,20.11,0,0,1,15.45.4,19,19,0,0,1,5.83,4l28.11,28.1A19.77,19.77,0,0,1,402.64,390.15Z"/></svg>