<?xml version="1.0" encoding="utf-8"?>
<!-- Generator: Adobe Illustrator 22.0.1, SVG Export Plug-In . SVG Version: 6.00 Build 0)  -->
<svg version="1.1" id="Layer_1" xmlns="http://www.w3.org/2000/svg" xmlns:xlink="http://www.w3.org/1999/xlink" x="0px" y="0px"
	 viewBox="0 0 805 805" style="enable-background:new 0 0 805 805;" xml:space="preserve">
<style type="text/css">
	.st0{fill:#4156A6;}
	.st1{fill:#2474AE;}
	.st2{fill:#FFFFFF;}
	.st3{fill:#13263D;}
	.st4{fill:#C60000;}
	.st5{fill:#FCFDFD;}
	.st6{fill:#FEC324;}
	.st7{fill:#FE8024;}
	.st8{fill:#132249;}
</style>
<rect x="0" class="st4" width="805" height="805"/>
<g>
	<path class="st2" d="M339.6,452.6v39.7c0,11-8.9,19.9-19.9,19.9s-19.9-8.9-19.9-19.9v-39.7c0-11,8.9-19.9,19.9-19.9
		C330.7,432.7,339.6,441.6,339.6,452.6L339.6,452.6z"/>
	<path class="st2" d="M394.8,422.1v70.3c-0.2,11-9.3,19.7-20.3,19.4c-10.6-0.2-19.2-8.8-19.4-19.4v-70.3c0.2-11,9.3-19.7,20.3-19.4
		C386,402.9,394.5,411.4,394.8,422.1z"/>
	<path class="st2" d="M450,422.1V433c-5.9,1.3-11.2,4.3-15.5,8.6c-12.5,12.6-12.5,32.9,0,45.4l13.6,13.6c-4.6,10-16.4,14.3-26.3,9.7
		c-7-3.2-11.5-10.3-11.6-18V422c0.2-11,9.3-19.7,20.3-19.4C441.2,402.9,449.7,411.4,450,422.1L450,422.1z"/>
	<path class="st2" d="M505.1,312.1v154.7l-25.2-25.2c-4-4-9-6.9-14.5-8.4V312.1c0.2-11,9.3-19.7,20.3-19.4
		C496.3,292.9,504.9,301.4,505.1,312.1z"/>
	<path class="st2" d="M505.1,492.3c0,0.7,0,1.3-0.1,2c0,0.3-0.1,0.7-0.1,1s-0.1,0.7-0.2,1c-0.2,0.8-0.4,1.7-0.7,2.5
		c-0.1,0.4-0.3,0.8-0.5,1.2s-0.3,0.6-0.4,0.9c-2.3,4.7-6.2,8.3-11.1,10c-0.3,0.1-0.6,0.2-0.9,0.3c-0.9,0.3-1.9,0.5-2.9,0.7
		c-0.3,0-0.7,0.1-1,0.1l-0.7,0.2c-0.4,0-0.8,0-1.1,0c-1.4,0-2.8-0.1-4.2-0.4l-0.8-0.2c-0.3-0.1-0.6-0.2-0.9-0.3
		c-0.3-0.1-0.6-0.2-0.9-0.3s-0.5-0.2-0.8-0.3l-0.3-0.1l-0.3-0.1c-0.1,0-0.2-0.1-0.2-0.1c-0.3-0.1-0.5-0.3-0.8-0.4h-0.1
		c-0.2-0.1-0.4-0.3-0.7-0.4l0,0c-0.4-0.2-0.7-0.5-1.1-0.7s-0.6-0.4-0.9-0.6l-0.3-0.3c-0.3-0.2-0.5-0.4-0.7-0.6
		c-0.1,0-0.1-0.1-0.2-0.1l-0.1-0.1c-0.1-0.1-0.2-0.2-0.3-0.3c-0.1-0.1-0.2-0.2-0.3-0.3L450,485.2l-6.8-6.8c-7.7-7.8-7.7-20.3,0-28.1
		c1.9-1.9,4.1-3.3,6.6-4.3l0.2-0.1c5-1.9,10.6-1.8,15.5,0.4c2.2,1,4.2,2.3,5.8,4l28.1,28.1C503.1,482.1,505.2,487.1,505.1,492.3z"/>
</g>
</svg>
