<?xml version="1.0" encoding="utf-8"?>
<!-- Generator: Adobe Illustrator 22.0.1, SVG Export Plug-In . SVG Version: 6.00 Build 0)  -->
<svg version="1.1" id="Layer_1" xmlns="http://www.w3.org/2000/svg" xmlns:xlink="http://www.w3.org/1999/xlink" x="0px" y="0px"
	 viewBox="0 0 805 789.6" style="enable-background:new 0 0 805 789.6;" xml:space="preserve">
<style type="text/css">
	.st0{fill:#4156A6;}
	.st1{fill:#2474AE;}
	.st2{fill:#FFFFFF;}
	.st3{fill:#13263D;}
	.st4{fill:#C60000;}
	.st5{fill:#FCFDFD;}
	.st6{fill:#FEC324;}
	.st7{fill:#FE8024;}
	.st8{fill:#132249;}
</style>
<rect y="0" class="st7" width="805" height="789.6"/>
<g>
	<path class="st2" d="M228.2,379h43l-26.6,41h26.6v9.3h-44.1l26.4-41h-25.4V379z"/>
	<path class="st2" d="M322.5,405h-35.4c0.3,4.8,1.9,8.6,4.8,11.5c3,2.8,6.8,4.3,11.5,4.3c6.6,0,12.6-2,18.2-6.1v9.7
		c-3.1,2-6.1,3.5-9.1,4.4s-6.5,1.3-10.6,1.3c-5.5,0-10-1.1-13.5-3.4c-3.4-2.3-6.2-5.4-8.2-9.3c-2.1-3.9-3.1-8.4-3.1-13.5
		c0-7.7,2.2-13.9,6.5-18.7c4.3-4.8,10-7.2,16.9-7.2c6.7,0,12,2.3,16,7c4,4.7,6,10.9,6,18.8V405z M287.3,399.1h25.3
		c-0.3-4-1.4-7-3.6-9.2c-2.1-2.2-5-3.2-8.5-3.2c-3.6,0-6.5,1.1-8.8,3.2C289.5,392,288,395.1,287.3,399.1z"/>
	<path class="st2" d="M343.2,379v6.4c4.4-4.9,9.5-7.4,15.1-7.4c3.1,0,6.1,0.8,8.8,2.4c2.7,1.6,4.7,3.8,6.2,6.7
		c1.4,2.8,2.1,7.3,2.1,13.4v28.8h-10v-28.7c0-5.1-0.8-8.8-2.4-11c-1.6-2.2-4.2-3.3-7.9-3.3c-4.7,0-8.7,2.4-12,7.1v35.9h-10.2V379
		H343.2z"/>
	<path class="st2" d="M390.4,379v-3c0-8.1,1.7-14.1,5.2-18.1s7.6-6,12.4-6c2.1,0,4.5,0.3,7.4,1v9.7c-1.6-0.6-3.1-0.9-4.6-0.9
		c-3.9,0-6.6,1-8.1,3.1c-1.5,2.1-2.3,5.8-2.3,11.1v3h9v9h-9v41.3h-10V388h-7.2v-9H390.4z"/>
	<path class="st2" d="M440.3,378.9c7.7,0,14,2.5,19.1,7.4c5.1,4.9,7.6,11.1,7.6,18.6c0,7.3-2.6,13.3-7.7,18.1
		c-5.1,4.8-11.6,7.2-19.4,7.2c-7.5,0-13.9-2.4-18.9-7.3c-5.1-4.9-7.6-10.9-7.6-18.2c0-7.4,2.6-13.5,7.7-18.4
		C426.1,381.4,432.5,378.9,440.3,378.9z M439.7,387.9c-4.8,0-8.7,1.6-11.8,4.7c-3.1,3.1-4.6,7.1-4.6,12c0,4.8,1.6,8.7,4.7,11.8
		c3.1,3,7.2,4.6,12.1,4.6c4.9,0,8.9-1.5,12-4.6c3.1-3.1,4.7-7,4.7-11.8c0-4.8-1.6-8.7-4.9-11.9C448.7,389.4,444.6,387.9,439.7,387.9
		z"/>
	<path class="st2" d="M478.2,352.9h10v76.4h-10V352.9z"/>
	<path class="st2" d="M507.7,357.8c1.6,0,3,0.6,4.2,1.7c1.2,1.1,1.7,2.5,1.7,4.2c0,1.6-0.6,3-1.7,4.2c-1.2,1.2-2.6,1.8-4.2,1.8
		c-1.5,0-2.9-0.6-4-1.8c-1.2-1.2-1.8-2.6-1.8-4.1c0-1.5,0.6-2.9,1.8-4.1C504.8,358.4,506.2,357.8,507.7,357.8z M502.8,379h10v50.3
		h-10V379z"/>
	<path class="st2" d="M551.2,378.9c7.7,0,14,2.5,19.1,7.4c5.1,4.9,7.6,11.1,7.6,18.6c0,7.3-2.6,13.3-7.7,18.1
		c-5.1,4.8-11.6,7.2-19.4,7.2c-7.5,0-13.9-2.4-18.9-7.3c-5.1-4.9-7.6-10.9-7.6-18.2c0-7.4,2.6-13.5,7.7-18.4
		C537,381.4,543.4,378.9,551.2,378.9z M550.6,387.9c-4.8,0-8.7,1.6-11.8,4.7c-3.1,3.1-4.6,7.1-4.6,12c0,4.8,1.6,8.7,4.7,11.8
		c3.1,3,7.2,4.6,12.1,4.6c4.9,0,8.9-1.5,12-4.6c3.1-3.1,4.7-7,4.7-11.8c0-4.8-1.6-8.7-4.9-11.9C559.6,389.4,555.5,387.9,550.6,387.9
		z"/>
</g>
</svg>
